  <svg xmlns="http://www.w3.org/2000/svg" xmlns:xlink="http://www.w3.org/1999/xlink" viewBox="0 0 95 33">
    <g>
      <path d="M94.004,19.648l-47.853,6.212l-3.827,6.932l50.787,-12.094l0.893,-1.05Zm-81.924,6.157l-12.08,-6.329l76.793,0l1.52,0.841l-66.233,5.488Zm77.608,-25.805c0.341,0.007 0.655,0.043 0.947,0.106c0.544,0.119 1.009,0.334 1.379,0.637c0.336,0.275 0.591,0.621 0.759,1.033c0.07,0.172 0.124,0.356 0.161,0.549c0.103,0.53 0.085,1.14 -0.071,1.822l-0.34,1.816c-0.339,1.551 -0.889,2.714 -2.145,3.299c0,0 -6.264,3.124 -6.635,3.381c-0.521,0.361 -1.098,0.852 -1.343,2.704l8.596,0l-0.729,3.606l-8.701,-0.009l-0.003,0.009l-0.012,0l-0.002,-0.009l-0.546,-0.001c-1.338,0.033 -2.794,-0.66 -2.663,-2.555l0.562,-3.291c0.406,-1.465 1.544,-2.907 4.663,-4.365l4.63,-2.347c0,0 0.576,-0.231 0.719,-0.923c0.024,-0.117 0.342,-1.5 0.342,-1.5l0,-0.002c0,0 0.001,-0.002 0.001,-0.005c0,0 0.038,-0.133 -0.052,-0.268c-0.002,-0.002 -0.073,-0.106 -0.232,-0.106l-7.747,-0.007l0.594,-3.574l7.868,0Z" fill="#e10c08"></path><path d="M50.241,2.058c-1.404,0.002 -2.814,0.535 -3.969,1.501c-1.157,0.969 -1.93,2.265 -2.175,3.649l-0.707,4.309c-0.252,1.425 0.08,2.772 0.935,3.794c0.861,1.029 2.14,1.596 3.601,1.593c1.406,-0.002 2.815,-0.535 3.969,-1.501c1.157,-0.969 1.929,-2.266 2.175,-3.649l0.708,-4.31c0.251,-1.424 -0.081,-2.771 -0.935,-3.793c-0.861,-1.03 -2.141,-1.596 -3.602,-1.593Zm-9.923,0.164l0.165,0.006c0.192,0.012 0.375,0.037 0.546,0.074c0.407,0.089 0.755,0.25 1.032,0.477c0.251,0.206 0.443,0.465 0.569,0.774c0.052,0.129 0.093,0.266 0.121,0.412c0.077,0.397 0.062,0.853 -0.054,1.364l-0.563,3.099c-0.51,2.198 -2.434,2.931 -2.57,2.993l2.388,5.44l-1.459,0c-1.25,0.023 -1.803,-0.331 -2.636,-2.368l-1.166,-2.754l-1.791,0l-1.091,4.993l-3,0l2.803,-13.775c0.034,-0.374 0.341,-0.683 0.718,-0.735l5.988,0Zm-14.316,14.595l-2.169,0c0,0 -1.022,0.063 -1.888,-0.726c-0.663,-0.605 -0.704,-1.817 -0.704,-1.817l-0.056,-11.963l2.817,0l0.113,10.956c0,0 0,0.278 0.06,0.423c0.067,0.162 0.222,0.22 0.222,0.22l5.099,-11.571l3.071,-0.028l-6.565,14.506Zm46.897,-14.595l2.57,0l0.349,14.51l-3.004,0l-0.018,-2.993l-4.186,0l-1.383,2.993l-3.016,0l5.906,-12.619c0.742,-1.356 1.652,-1.767 2.614,-1.875l0.168,-0.016Zm-60.157,0l7.188,0l-0.523,2.84l-5.842,0l-0.521,3.147l5.214,0l-0.522,2.84l-5.215,0l-0.522,2.841l6.948,0l-0.523,2.842l-7.43,-0.008c-1.004,0.024 -2.095,-0.494 -1.996,-1.915c0,0 0.031,-0.319 0.075,-0.581c0.044,-0.263 1.877,-10.501 1.877,-10.501c0.152,-0.829 0.949,-1.5 1.792,-1.505Zm51.958,0c0.259,0.006 0.492,0.033 0.709,0.079c0.408,0.089 0.757,0.251 1.034,0.478c0.251,0.206 0.443,0.465 0.569,0.774c0.052,0.129 0.092,0.266 0.121,0.412c0.077,0.397 0.063,0.853 -0.055,1.364l-0.651,2.758c-0.253,1.162 -0.983,2.158 -1.823,2.733c-0.708,0.485 -1.558,0.789 -2.451,0.896l-0.143,0.017l-0.102,0.006c-0.202,0.016 -0.389,0.02 -0.389,0.02l-2.335,-0.02l-1.09,4.993l-2.935,0l2.737,-13.775c0.035,-0.374 0.341,-0.683 0.719,-0.735l6.085,0Zm-18.063,11.141c-0.351,-0.42 -0.484,-0.987 -0.377,-1.596l0.708,-4.31c0.241,-1.363 1.625,-2.517 3.021,-2.519c0.636,-0.001 1.183,0.234 1.542,0.662c0.35,0.419 0.484,0.986 0.376,1.595l-0.708,4.31c-0.241,1.362 -1.624,2.516 -3.02,2.519c-0.637,0 -1.184,-0.234 -1.542,-0.661Zm26.143,-2.342l-0.033,-5.921c-0.263,-0.007 -0.399,0.248 -0.507,0.498l-2.386,5.423l2.926,0Zm-8.751,-6.244l-3.552,0l-0.875,4.293l2.006,0l0.002,-0.002c0.115,-0.003 0.225,-0.009 0.33,-0.02c0.33,-0.036 0.608,-0.116 0.845,-0.241c0.54,-0.287 0.855,-0.81 1.044,-1.576c0.021,-0.087 0.411,-2.169 0.411,-2.169l0,-0.004l0.001,-0.001c0,-0.003 0,-0.005 0,-0.007c0.005,-0.085 -0.008,-0.14 -0.054,-0.192c-0.001,-0.002 -0.002,-0.004 -0.003,-0.006c-0.029,-0.031 -0.068,-0.051 -0.106,-0.063l-0.049,-0.012Zm-24.17,0.273c0.006,-0.085 -0.008,-0.14 -0.053,-0.192c-0.002,-0.002 -0.003,-0.004 -0.004,-0.006c-0.029,-0.031 -0.068,-0.051 -0.106,-0.063c-0.017,-0.005 -0.033,-0.009 -0.049,-0.012l-3.455,0l-0.874,4.293l2.005,0l0.002,-0.002c0.493,-0.009 0.886,-0.1 1.203,-0.275c0.02,-0.012 0.038,-0.023 0.059,-0.036c0.003,-0.001 0.007,-0.004 0.01,-0.006c0.481,-0.296 0.769,-0.8 0.947,-1.52c0.022,-0.087 0.315,-2.169 0.315,-2.169l0,-0.001c0,0 0,-0.001 0,-0.003l0,-0.008Z" fill="#213f9f">
    </path>
    </g>
  </svg>