<?xml version="1.0" encoding="utf-8"?>
<!-- Generator: Adobe Illustrator 25.2.0, SVG Export Plug-In . SVG Version: 6.00 Build 0)  -->
<svg version="1.1" id="Vrstva_1" xmlns="http://www.w3.org/2000/svg" xmlns:xlink="http://www.w3.org/1999/xlink" x="0px" y="0px"
	 viewBox="0 0 154 157" style="enable-background:new 0 0 154 157;" xml:space="preserve">
<style type="text/css">
	.st0{clip-path:url(#SVGID_2_);}
	.st1{clip-path:url(#SVGID_2_);fill:#FFFFFF;}
	.st2{clip-path:url(#SVGID_2_);fill:#E30613;}
	.st3{fill:#FFFFFF;}
</style>
<g>
	<g>
		<defs>
			<rect id="SVGID_1_" x="-78" y="-69.5" width="300" height="300"/>
		</defs>
		<clipPath id="SVGID_2_">
			<use xlink:href="#SVGID_1_"  style="overflow:visible;"/>
		</clipPath>
		<path class="st0" d="M139.5,107.1v-74c0-2.4,0-9,0-9s-6.3,0-8.8,0H32.4c-4.8,0-8.7,4.1-8.7,9v73.5L139.5,107.1z"/>
		<path class="st1" d="M95.1,61.9c1.2-1.5,1.6-3.4,1-4.9c-0.5-1.4-1.7-2.8-2.8-4.3c-2.3-2.9-4.8-5.9-3.3-9.9
			c3.1-8.3,12.2-7,17.8-5.3c-0.6,0.9-3.1,4.4-3.4,4.9c-0.6-0.3-2.7-1.3-2.7-1.3c-1.5-0.7-3.3-0.5-4.5,0.5c-1,0.8-1.3,2-0.9,3.3
			c0.4,1.4,1.3,2.5,2.2,3.6c0.6,0.7,1.2,1.5,1.6,2.2c1.6,3.1,3.3,6.6,2.4,10.3c-0.8,3.3-3.4,6.3-6.8,7.7c-3,1.3-6.1,1.2-8.5-0.2
			c-1.4-0.8-3.6-2.7-4.1-4.1l-0.2-0.8l-0.6,0.6c-0.6,0.6-8.7,4.8-12.4,3.9c-0.8-0.2-1.3-0.6-1.6-1.3c-0.8-2.4,0.4-5.2,1.4-7.6
			l0.5-1.2l3.6-8.5l0.2-0.6c0.3-0.7,0.6-1.4,0.7-2.1l0.1-0.6h-0.8l-0.1,0.1c-0.2,0.1-2.4,0.9-4,1.4c-0.2-0.6-0.5-1.9-0.7-2.4
			c0.7-0.3,9.1-4.7,9.1-4.7c2.9-1.5,5.6-2.8,7.1-3.7c-0.6,1.4-1.6,3.9-2.7,6.3c-5.4,12.7-6.9,16.5-6.9,17.8c0,0.2,0,0.3,0.1,0.4
			c0.6,0.9,2.4,0.1,7.6-2.5c0.8-0.4,1.5-0.8,2.1-1c0.6,2.9,3.1,5.7,6.4,5.6C92.9,63.9,94.2,63.2,95.1,61.9 M86,35.7
			c-0.9,0.5-4.4,2.3-8.2,4.3L68,45l0.1,0.4l1,3.8l0.5-0.2c0.7-0.2,2.7-0.9,3.8-1.3c-0.1,0.4-0.3,0.7-0.4,1.1l-0.2,0.6l-3.6,8.5
			l-0.5,1.2c-0.9,2-1.8,4.1-1.8,6.3c0,0.7,0.1,1.4,0.3,2.1c0.4,1.1,1.3,1.7,2.6,2c3.7,0.6,10.6-2.6,12.6-3.9c-1.2-2.3,4.9,4.4,4.2,4
			c2.7,1.6,6.2,1.7,9.4,0.3c3.7-1.6,6.6-4.8,7.4-8.4c0.9-4-0.8-7.8-2.5-11c-0.4-0.8-1.1-1.6-1.7-2.4c-0.9-1.1-1.7-2.1-2-3.3
			c-0.3-0.9,0-1.7,0.6-2.3c0.9-0.8,2.3-0.9,3.4-0.4l3.5,1.6l4.7-6.7l-0.6-0.2c-4.7-1.5-16.1-4.1-19.7,5.7c-1.6,4.5,1.1,7.9,3.5,10.9
			c1.1,1.4,2.2,2.7,2.7,4c0.5,1.4-0.1,2.9-0.9,3.9c-0.7,0.9-1.7,1.5-2.3,1.4c-3.1,0.1-5.3-2.7-5.6-5.4l-0.1-0.6L85.8,57
			c-0.5,0.2-1.5,0.7-2.7,1.3c-1.8,0.9-5.3,2.7-6.3,2.8c0.2-1.8,4.3-11.3,6.8-17.1c2.5-5.9,3.2-7.4,3.2-7.8v-0.9L86,35.7z"/>
		<path class="st1" d="M116.8,61.9c1.2-1.5,1.6-3.4,1-4.9c-0.5-1.4-1.7-2.8-2.8-4.3c-2.3-2.9-4.8-5.9-3.3-9.9
			c3.1-8.3,12.2-7,17.9-5.3c-0.6,0.9-3,4.4-3.4,5c-0.6-0.3-3-1.3-3-1.3c-1.5-0.7-3.2-0.5-4.3,0.4c-0.9,0.8-1.3,2-0.9,3.3
			c0.4,1.4,1.3,2.5,2.2,3.6c0.6,0.7,1.2,1.4,1.6,2.2c1.6,3.1,3.3,6.6,2.4,10.3c-0.8,3.3-3.4,6.3-6.8,7.7c-3,1.3-6.1,1.2-8.5-0.2
			c-1.4-0.8-4.4-3.3-5-4.8c0.5-0.8,2.2-3.3,3.6-5.3c0.8,2.7,3.2,5.1,6.3,5.1C114.6,63.9,115.8,63.2,116.8,61.9 M110.8,42.5
			c-1.7,4.5,1.1,7.9,3.5,10.9c1.1,1.4,2.2,2.7,2.7,4c0.5,1.4-0.1,2.9-0.9,3.9c-0.7,0.9-1.7,1.5-2.3,1.4c-3.1,0.1-5.3-2.7-5.6-5.4
			L108,56l-0.8,1.1c-4.8,6.9-4.8,6.9-4.4,7.3l-0.1-0.3c0.6,1.8,4.2,4.7,5.5,5.5c2.7,1.6,6.2,1.7,9.4,0.3c3.7-1.6,6.6-4.8,7.4-8.4
			c1-4-0.8-7.8-2.5-11c-0.4-0.8-1.1-1.6-1.7-2.4c-0.9-1.1-1.7-2.1-2-3.3c-0.3-0.9-0.1-1.8,0.6-2.3c0.8-0.7,2.1-0.8,3.3-0.3l3.8,1.6
			l0.2-0.3l4.4-6.4l-0.6-0.2C125.8,35.2,114.4,32.7,110.8,42.5"/>
		<path class="st1" d="M86.5,28.4c0-2,1.6-3.6,3.6-3.6c2,0,3.6,1.6,3.6,3.6c0,2-1.6,3.6-3.6,3.6C88.1,32,86.5,30.4,86.5,28.4
			 M85.5,28.4c0,2.5,2.1,4.6,4.6,4.6c2.5,0,4.6-2.1,4.6-4.6c0-2.5-2.1-4.6-4.6-4.6C87.5,23.8,85.5,25.9,85.5,28.4"/>
		<path class="st1" d="M81.4,12.5l-0.3-1c-7.2,3.7-21.1,12-34.2,25.9l-0.5,1.9C59.7,24.9,74,16.3,81.4,12.5"/>
		<path class="st1" d="M53.8,86.9c-1.2-2.8-8.6-20-10-34.8l-0.1-0.8l-0.7,0.4C34.7,57,25.9,89.8,25.9,107c0,2.5,0.2,4.6,0.6,6.3
			c-2,0.4-5.6,1.5-9.1,2.5c-3.4,1-6.8,2-8.8,2.5c1.5-13.8,20.8-78.5,38.8-106.8c0.3,0,2.7,0,4.8,0l0.7-1l-6.1,0l-0.1,0.2
			C28.2,39.4,8.4,106.4,7.5,118.8l-0.1,0.7l0.6-0.1c1.9-0.3,5.8-1.5,9.6-2.6c3.8-1.1,7.6-2.3,9.5-2.6l0.5-0.1l-0.1-0.6
			c-0.4-1.6-0.7-3.8-0.7-6.4c0-16.2,8.2-47.8,16.1-54c1.8,16,10.1,34.5,10.2,34.6l0.1,0.3l0.4,0c0.1,0,0.2,0,3.9-1.8l-0.5-0.9
			C55.6,86.1,54.4,86.6,53.8,86.9"/>
		<path class="st2" d="M110,39.7l-4.1,5.8c0,0-2.5-1.2-3.1-1.4c-2.4-1.1-5.5,0.4-4.7,3.2c0.6,2.2,2.7,3.8,3.7,5.8
			c1.7,3.3,3.3,6.9,2.4,10.7c-1.5,6.5-10,11.4-16.1,7.8c-1.4-0.8-3.8-2.7-4.3-4.4c-0.6,0.7-13.2,7.2-14.9,2.5c-1.1-3,0.8-6.5,2-9.2
			c1.2-2.8,2.4-5.6,3.6-8.5c0.3-0.8,0.8-1.7,0.9-2.6h-0.1C75,49.5,70.8,51,70.8,51l-0.9-3.3c5.4-2.9,16-8.2,17.7-9.1
			c0,0.9-10.7,24.2-9.9,25.3c0.7,1,8.1-3.4,9.6-4c0.3,2.8,2.8,5.9,6,5.8c1.8,0.2,4.8-3.2,3.7-6c-1.6-4.2-8.5-8.2-6.1-14.6
			C94,36.8,103,37.4,110,39.7"/>
		<path class="st2" d="M131.7,39.7l-4,5.9c0,0-2.8-1.2-3.4-1.4c-2.4-1.1-5.3,0.4-4.5,3.2c0.6,2.2,2.7,3.8,3.7,5.8
			c1.8,3.3,3.3,6.9,2.4,10.7c-1.5,6.5-10,11.4-16.1,7.8c-1.4-0.8-4.8-3.6-5.3-5.2c-0.6,0.7,4.4-6.5,4.4-6.5c0.3,2.8,2.8,5.9,6,5.8
			c1.8,0.2,4.8-3.2,3.7-6c-1.6-4.2-8.5-8.2-6.1-14.6C115.6,36.8,124.7,37.4,131.7,39.7"/>
		<path class="st2" d="M95.5,30.8c0,2.3-1.8,4.1-4.1,4.1c-2.3,0-4.1-1.8-4.1-4.1c0-2.3,1.8-4.1,4.1-4.1
			C93.7,26.8,95.5,28.6,95.5,30.8"/>
		<path class="st2" d="M138.5,22.4l-8.7,0H82.1c7.9-5,15.6-9.2,20.6-11.2c0,0-12.9,0.1-15.3,0.1c-0.6,0.3-22.2,9.4-41.1,30.5h-0.1
			c0.1-6,7.8-19.1,13.4-29.4H48.4c-1.9,2.9-3.9,6.3-5.8,10H32.2c-6,0-10.8,5-10.8,11.2v43.1c-5.7,18.3-9.6,34.2-10,39.7
			c2.1-0.3,6.1-1.1,10-1.8v19.7c0,2.7,0,9.3,0,9.3h110.3c5,0,9-4.2,9-9.3V110h0V33.7l0-11.3L138.5,22.4z M25.6,33.7
			c0-3.7,2.9-6.8,6.5-6.8h8.2C35.1,37.8,30,50.8,25.6,63.5V33.7z M136.3,33.7v71.4H39.6c-4.7,0-8.4,0-10.9,0c0.4-17,8-47.7,16-52.5
			c2.7,13,13.7,32.9,13.7,32.9c0.3,0,11.7-5.1,11.7-5.1c0-0.1-17.1-22.1-16.3-32.5c0.8-4.9,10.6-13.3,21.6-20.9h54.5
			c0,0,4.1,0,6.5,0C136.4,29.4,136.3,33.7,136.3,33.7"/>
		<path class="st1" d="M75.8,99.6H72l3.7-18.1h7c1.3,0,2.2,0.4,2.8,1.2c0.6,0.8,0.7,2,0.4,3.5c-0.2,1.2-0.7,2.1-1.4,2.9
			c-0.7,0.8-1.6,1.3-2.9,1.5l0,0c0.2,0,0.5,0.1,0.8,0.2c0.3,0.1,0.7,0.2,1,0.5c0.3,0.2,0.6,0.6,0.7,1c0.2,0.5,0.2,1.1,0,1.9
			c-0.1,0.3-0.1,0.7-0.2,1.2c-0.1,0.5-0.2,1.1-0.3,1.6c-0.1,0.6-0.1,1.1-0.2,1.5c0,0.5,0,0.8,0,1h-3.7c-0.1-0.6-0.1-1.1,0-1.7
			c0.1-0.6,0.2-1.2,0.4-1.8c0.1-0.5,0.2-1,0.3-1.5c0.1-0.5,0.1-0.9,0-1.3c-0.1-0.4-0.3-0.6-0.6-0.9c-0.3-0.2-0.9-0.3-1.6-0.3h-1
			L75.8,99.6z M77.9,89.3h1.7c0.4,0,0.7-0.1,1-0.2c0.3-0.2,0.5-0.4,0.7-0.6c0.2-0.3,0.4-0.5,0.5-0.9c0.1-0.3,0.2-0.6,0.3-0.9
			c0.2-0.9,0.1-1.5-0.1-1.8c-0.3-0.4-0.7-0.5-1.3-0.5h-1.7L77.9,89.3z"/>
		<path class="st1" d="M95.2,97.2c-0.1,0.4-0.1,0.8-0.2,1.2c0,0.4-0.1,0.8-0.1,1.2h-3.3l0.2-1.7h0c-1,1.3-2.2,1.9-3.7,1.9
			c-0.6,0-1.1-0.1-1.5-0.3c-0.4-0.2-0.7-0.5-0.8-0.9c-0.2-0.4-0.3-0.8-0.3-1.3c0-0.5,0-1,0.1-1.6c0.2-1.1,0.6-1.9,1.1-2.5
			c0.5-0.6,1.1-1,1.7-1.3c0.7-0.3,1.4-0.4,2.2-0.5c0.8-0.1,1.6-0.1,2.4-0.1l0.2-1c0-0.3,0.1-0.5,0.1-0.7c0-0.2,0-0.4-0.1-0.6
			c-0.1-0.2-0.2-0.3-0.3-0.4c-0.2-0.1-0.4-0.1-0.7-0.1c-0.3,0-0.5,0.1-0.8,0.2c-0.2,0.1-0.4,0.3-0.5,0.4s-0.2,0.4-0.3,0.6
			c-0.1,0.2-0.1,0.5-0.2,0.7H87c0.2-0.8,0.4-1.4,0.7-1.9c0.3-0.5,0.7-0.9,1.2-1.2c0.5-0.3,1-0.5,1.6-0.6c0.6-0.1,1.2-0.2,1.9-0.2
			c1.1,0,2,0.1,2.6,0.3c0.6,0.2,1.1,0.5,1.3,0.9c0.3,0.4,0.4,0.8,0.4,1.4c0,0.5-0.1,1.1-0.2,1.6L95.2,97.2z M92.6,93.5
			c-0.4,0-0.8,0-1.2,0c-0.4,0-0.7,0.1-1,0.2c-0.3,0.1-0.6,0.3-0.8,0.6c-0.2,0.3-0.4,0.7-0.5,1.3C89,95.9,89,96.1,89,96.4
			c0,0.2,0,0.4,0,0.6c0.1,0.2,0.2,0.4,0.3,0.5c0.1,0.1,0.4,0.2,0.6,0.2c0.5,0,0.9-0.2,1.2-0.5c0.3-0.3,0.6-0.7,0.7-1.1
			c0.2-0.4,0.3-0.9,0.4-1.4C92.4,94.2,92.5,93.8,92.6,93.5"/>
		<path class="st1" d="M103.4,99.6l0.3-1.4h0c-0.5,0.6-0.9,1.1-1.5,1.3c-0.5,0.2-1.2,0.4-1.8,0.4c-0.9,0-1.6-0.2-1.9-0.7
			c-0.4-0.5-0.6-1-0.7-1.7c-0.1-0.7,0-1.4,0.1-2.2c0.1-0.8,0.3-1.5,0.4-2.1c0.1-0.6,0.3-1.3,0.5-2.1c0.2-0.8,0.4-1.5,0.8-2.1
			c0.3-0.7,0.8-1.2,1.4-1.6c0.6-0.4,1.3-0.7,2.2-0.7c0.6,0,1.2,0.1,1.6,0.3c0.4,0.2,0.7,0.6,1,1.1h0.1l1.4-6.7h3.5l-3.8,18.1H103.4z
			 M102.2,97.7c0.3,0,0.6-0.1,0.8-0.3c0.2-0.2,0.4-0.4,0.6-0.8c0.2-0.4,0.3-0.8,0.5-1.4c0.2-0.6,0.3-1.3,0.5-2.1
			c0.1-0.6,0.2-1.2,0.3-1.7c0.1-0.5,0.1-1,0.1-1.4c0-0.4-0.1-0.7-0.2-0.9c-0.2-0.2-0.4-0.3-0.8-0.3c-0.4,0-0.7,0.1-0.9,0.3
			c-0.2,0.2-0.5,0.5-0.6,0.9c-0.2,0.4-0.3,0.8-0.4,1.4c-0.1,0.5-0.2,1.1-0.4,1.7c-0.3,1.6-0.5,2.8-0.4,3.5
			C101.2,97.3,101.6,97.7,102.2,97.7"/>
		<path class="st1" d="M112.8,99.6h-3.5l2.6-12.7h3.5L112.8,99.6z M116.6,81.5l-0.6,2.8h-3.5l0.6-2.8H116.6z"/>
		<path class="st1" d="M120.1,99.9c-1.1,0-2-0.2-2.6-0.5c-0.6-0.3-1-0.8-1.3-1.4c-0.2-0.6-0.3-1.3-0.3-2.1c0.1-0.8,0.2-1.7,0.4-2.7
			c0.2-0.9,0.4-1.7,0.7-2.5c0.3-0.8,0.6-1.5,1.1-2c0.5-0.6,1.1-1.1,1.8-1.4c0.8-0.3,1.7-0.5,2.9-0.5c1.2,0,2.1,0.2,2.7,0.5
			c0.6,0.3,1,0.8,1.2,1.4c0.2,0.6,0.3,1.3,0.2,2c-0.1,0.8-0.2,1.6-0.4,2.5c-0.2,1-0.4,1.9-0.7,2.7c-0.3,0.8-0.7,1.5-1.2,2.1
			c-0.5,0.6-1.1,1.1-1.8,1.4C122.2,99.7,121.2,99.9,120.1,99.9 M120.6,97.6c0.3,0,0.6-0.1,0.8-0.2c0.2-0.1,0.5-0.4,0.7-0.7
			c0.2-0.3,0.4-0.8,0.5-1.4c0.2-0.6,0.4-1.4,0.6-2.4c0.1-0.7,0.2-1.2,0.3-1.7c0.1-0.5,0.1-0.9,0-1.2c0-0.3-0.2-0.6-0.3-0.7
			c-0.2-0.2-0.5-0.3-0.8-0.3c-0.4,0-0.7,0.1-1,0.3s-0.5,0.4-0.6,0.7c-0.2,0.3-0.3,0.7-0.5,1.2c-0.1,0.5-0.3,1.1-0.4,1.7
			c-0.2,1-0.3,1.8-0.4,2.4c-0.1,0.6-0.1,1.1,0,1.4c0,0.3,0.2,0.6,0.3,0.7C120,97.5,120.3,97.6,120.6,97.6"/>
	</g>
	<g>
		<path class="st3" d="M57.1,128.1h-1.4l0.3-1.6h1.4L57.1,128.1z"/>
		<path class="st3" d="M60.5,128.1h-1.4l0.3-1.6h1.4L60.5,128.1z"/>
		<path class="st3" d="M63.9,128.1h-1.4l0.3-1.6h1.4L63.9,128.1z"/>
		<path class="st3" d="M67.4,128.1h-1.3l2.3-10.8h1.3l-0.9,4h0c0.3-0.3,0.6-0.5,0.9-0.7c0.3-0.2,0.7-0.2,1-0.2
			c0.6,0,1.1,0.1,1.4,0.4c0.3,0.2,0.5,0.6,0.6,1c0.1,0.4,0.1,0.8,0,1.3c-0.1,0.5-0.2,1-0.3,1.4c-0.2,0.8-0.4,1.5-0.6,2
			s-0.5,0.9-0.8,1.2c-0.3,0.3-0.6,0.4-0.9,0.5c-0.3,0.1-0.6,0.1-0.9,0.1c-0.4,0-0.7-0.1-1-0.3c-0.2-0.2-0.4-0.4-0.6-0.8h0
			L67.4,128.1z M68.2,124c-0.1,0.3-0.1,0.6-0.2,1c-0.1,0.4-0.1,0.7-0.1,1.1c0,0.3,0.1,0.6,0.2,0.8c0.1,0.2,0.4,0.3,0.8,0.3
			c0.4,0,0.7-0.1,1-0.3s0.5-0.4,0.6-0.7c0.2-0.3,0.3-0.6,0.4-0.9c0.1-0.3,0.2-0.6,0.2-0.9c0.1-0.5,0.2-1,0.2-1.3
			c0.1-0.4,0.1-0.7,0-1c-0.1-0.3-0.2-0.5-0.3-0.6c-0.2-0.1-0.4-0.2-0.8-0.2c-0.3,0-0.6,0.1-0.9,0.3c-0.2,0.2-0.4,0.4-0.6,0.7
			c-0.2,0.3-0.3,0.5-0.4,0.9C68.3,123.5,68.3,123.8,68.2,124z"/>
		<path class="st3" d="M75.6,124.7c-0.1,0.5-0.2,1-0.2,1.3s0,0.6,0.1,0.8c0.1,0.2,0.2,0.3,0.4,0.4c0.2,0.1,0.4,0.1,0.6,0.1
			c0.4,0,0.8-0.1,1.1-0.4c0.3-0.3,0.5-0.6,0.6-1h1.4c-0.2,0.8-0.6,1.5-1.1,1.9c-0.6,0.4-1.3,0.6-2.1,0.6c-0.4,0-0.8,0-1.1-0.1
			c-0.3-0.1-0.6-0.3-0.8-0.5c-0.2-0.3-0.3-0.7-0.4-1.2s0-1.2,0.2-2c0.1-0.5,0.3-1.1,0.4-1.6c0.2-0.5,0.4-0.9,0.7-1.3
			c0.3-0.4,0.6-0.7,1.1-0.9c0.4-0.2,1-0.3,1.7-0.3c0.6,0,1,0.1,1.3,0.2c0.3,0.2,0.6,0.4,0.7,0.7c0.1,0.3,0.2,0.7,0.2,1.1
			c0,0.5-0.1,1-0.2,1.6l-0.1,0.6H75.6z M78.8,123.8c0.1-0.5,0.2-1,0.2-1.3c0-0.3-0.1-0.6-0.2-0.8c-0.1-0.2-0.2-0.3-0.4-0.3
			c-0.2,0-0.4-0.1-0.6-0.1c-0.2,0-0.4,0-0.6,0.1c-0.2,0.1-0.4,0.2-0.5,0.4c-0.2,0.2-0.3,0.4-0.5,0.8c-0.1,0.3-0.3,0.7-0.4,1.3H78.8z
			"/>
		<path class="st3" d="M88.9,128.1L90,123c0-0.2,0.1-0.4,0.1-0.6c0-0.2,0-0.4-0.1-0.5c-0.1-0.1-0.2-0.2-0.4-0.3
			c-0.2-0.1-0.4-0.1-0.6-0.1c-0.3,0-0.6,0.1-0.8,0.2c-0.2,0.1-0.4,0.3-0.6,0.5c-0.2,0.2-0.3,0.4-0.4,0.7c-0.1,0.3-0.2,0.6-0.3,0.9
			l-0.9,4.5h-1.3l2.3-10.8h1.3l-0.9,4.2h0.1c0.2-0.2,0.3-0.4,0.5-0.5c0.2-0.1,0.3-0.3,0.5-0.3c0.2-0.1,0.4-0.1,0.6-0.2
			c0.2,0,0.4-0.1,0.7-0.1c0.7,0,1.1,0.2,1.4,0.5c0.3,0.4,0.3,1,0.1,1.8l-1.1,5.4H88.9z"/>
		<path class="st3" d="M96.6,127L96.6,127c-0.3,0.4-0.6,0.8-1,1c-0.4,0.2-0.8,0.3-1.3,0.3c-0.4,0-0.7-0.1-1-0.2
			c-0.2-0.1-0.4-0.3-0.5-0.5c-0.1-0.2-0.2-0.5-0.2-0.8c0-0.3,0-0.6,0.1-1c0.1-0.6,0.3-1,0.7-1.3c0.3-0.3,0.7-0.6,1.1-0.7
			c0.4-0.1,0.9-0.2,1.4-0.3c0.5,0,0.9,0,1.4,0c0.1-0.2,0.1-0.5,0.2-0.7c0-0.2,0-0.5,0-0.7c0-0.2-0.1-0.4-0.3-0.5
			c-0.2-0.1-0.4-0.2-0.7-0.2c-0.4,0-0.8,0.1-1,0.4c-0.3,0.2-0.4,0.6-0.5,1h-1.4c0.2-0.8,0.6-1.4,1.1-1.8c0.5-0.3,1.2-0.5,2-0.5
			c0.5,0,0.9,0.1,1.2,0.2c0.3,0.1,0.5,0.3,0.7,0.5c0.1,0.2,0.2,0.4,0.2,0.7c0,0.3,0,0.6-0.1,0.9l-0.8,3.6c-0.1,0.3-0.1,0.6-0.1,0.9
			c0,0.3-0.1,0.6-0.1,0.9h-1.4L96.6,127z M97.1,124.3c-0.3,0-0.6,0-1,0c-0.3,0-0.6,0.1-0.9,0.2c-0.3,0.1-0.5,0.2-0.8,0.4
			c-0.2,0.2-0.4,0.5-0.5,0.9c-0.1,0.4-0.1,0.7,0.1,1c0.1,0.3,0.4,0.4,0.8,0.4c0.2,0,0.4,0,0.6-0.1c0.2-0.1,0.4-0.2,0.6-0.4
			c0.2-0.2,0.4-0.5,0.6-0.9C96.9,125.4,97,124.9,97.1,124.3z"/>
		<path class="st3" d="M102.8,121.4L102.8,121.4c0.3-0.3,0.6-0.6,1-0.8c0.3-0.2,0.7-0.3,1.1-0.3c0.3,0,0.6,0,0.9,0.1
			c0.3,0.1,0.5,0.3,0.7,0.5c0.2,0.3,0.3,0.7,0.3,1.2c0,0.5,0,1.2-0.2,2c-0.1,0.5-0.2,0.9-0.4,1.4c-0.1,0.5-0.3,0.9-0.6,1.3
			c-0.2,0.4-0.6,0.7-1,1c-0.4,0.2-0.9,0.4-1.5,0.4c-0.4,0-0.7-0.1-0.9-0.2c-0.2-0.2-0.4-0.4-0.6-0.7h0l-0.8,3.6h-1.3l2.2-10.4h1.3
			L102.8,121.4z M103,127.2c0.3,0,0.6-0.1,0.8-0.2c0.2-0.1,0.4-0.3,0.6-0.6c0.2-0.3,0.3-0.6,0.4-1c0.1-0.4,0.2-0.8,0.3-1.3
			c0.1-0.3,0.1-0.6,0.2-0.9c0.1-0.3,0.1-0.6,0-0.9c0-0.3-0.1-0.5-0.3-0.7c-0.2-0.2-0.5-0.3-0.9-0.3c-0.4,0-0.7,0.1-1,0.3
			c-0.2,0.2-0.4,0.5-0.6,0.8c-0.1,0.3-0.3,0.7-0.3,1.1c-0.1,0.4-0.2,0.7-0.2,1c-0.1,0.2-0.1,0.5-0.1,0.8c0,0.3-0.1,0.6,0,0.8
			c0,0.3,0.1,0.5,0.3,0.7C102.4,127.2,102.7,127.2,103,127.2z"/>
		<path class="st3" d="M110.5,121.4L110.5,121.4c0.3-0.3,0.6-0.6,1-0.8c0.3-0.2,0.7-0.3,1.1-0.3c0.3,0,0.6,0,0.9,0.1
			c0.3,0.1,0.5,0.3,0.7,0.5c0.2,0.3,0.3,0.7,0.3,1.2c0,0.5,0,1.2-0.2,2c-0.1,0.5-0.2,0.9-0.4,1.4c-0.1,0.5-0.3,0.9-0.6,1.3
			c-0.2,0.4-0.6,0.7-1,1c-0.4,0.2-0.9,0.4-1.5,0.4c-0.4,0-0.7-0.1-0.9-0.2c-0.2-0.2-0.4-0.4-0.6-0.7h0l-0.8,3.6h-1.3l2.2-10.4h1.3
			L110.5,121.4z M110.7,127.2c0.3,0,0.6-0.1,0.8-0.2c0.2-0.1,0.4-0.3,0.6-0.6s0.3-0.6,0.4-1c0.1-0.4,0.2-0.8,0.3-1.3
			c0.1-0.3,0.1-0.6,0.2-0.9c0.1-0.3,0.1-0.6,0-0.9c0-0.3-0.1-0.5-0.3-0.7c-0.2-0.2-0.5-0.3-0.9-0.3c-0.4,0-0.7,0.1-1,0.3
			c-0.2,0.2-0.4,0.5-0.6,0.8c-0.1,0.3-0.3,0.7-0.3,1.1c-0.1,0.4-0.2,0.7-0.2,1c-0.1,0.2-0.1,0.5-0.1,0.8c0,0.3-0.1,0.6,0,0.8
			c0,0.3,0.1,0.5,0.3,0.7C110.1,127.2,110.3,127.2,110.7,127.2z"/>
		<path class="st3" d="M118,126.7L118,126.7l3.2-6.2h1.4l-5.7,10.4h-1.3l1.5-2.9l-1-7.6h1.5L118,126.7z"/>
		<path class="st3" d="M124.3,128.1h-1.4l0.3-1.6h1.4L124.3,128.1z M123.6,125.6l1.5-8.3h1.7l-2.1,8.3H123.6z"/>
	</g>
</g>
</svg>
