<?xml version="1.0" encoding="utf-8"?>
<!-- Generator: Adobe Illustrator 23.0.2, SVG Export Plug-In . SVG Version: 6.00 Build 0)  -->
<svg version="1.1" id="Vrstva_1" xmlns="http://www.w3.org/2000/svg" xmlns:xlink="http://www.w3.org/1999/xlink" x="0px" y="0px"
	 viewBox="0 0 485 530" style="enable-background:new 0 0 485 530;" xml:space="preserve">
<style type="text/css">
	.st0{clip-path:url(#SVGID_2_);fill:#D93E36;}
	.st1{clip-path:url(#SVGID_4_);fill:#0084C1;}
	.st2{clip-path:url(#SVGID_6_);}
	.st3{clip-path:url(#SVGID_8_);fill:#FFFFFF;}
	.st4{clip-path:url(#SVGID_10_);fill:#F8EC11;}
	.st5{clip-path:url(#SVGID_12_);}
	.st6{opacity:0.75;clip-path:url(#SVGID_14_);}
	.st7{clip-path:url(#SVGID_16_);}
	.st8{clip-path:url(#SVGID_18_);}
	.st9{clip-path:url(#SVGID_20_);fill:#FFFFFF;}
	.st10{clip-path:url(#SVGID_22_);fill:#D93D35;}
	.st11{clip-path:url(#SVGID_24_);fill:#FFFFFF;}
	.st12{clip-path:url(#SVGID_26_);fill:#D93D35;}
	.st13{clip-path:url(#SVGID_28_);fill:#D93D35;}
</style>
<g>
	<g>
		<defs>
			<rect id="SVGID_1_" width="485" height="530"/>
		</defs>
		<clipPath id="SVGID_2_">
			<use xlink:href="#SVGID_1_"  style="overflow:visible;"/>
		</clipPath>
		<rect x="39.4" y="35.8" class="st0" width="406.2" height="438.4"/>
	</g>
	<g>
		<defs>
			<rect id="SVGID_3_" width="485" height="530"/>
		</defs>
		<clipPath id="SVGID_4_">
			<use xlink:href="#SVGID_3_"  style="overflow:visible;"/>
		</clipPath>
		<rect x="60.7" y="151.1" class="st1" width="363.6" height="222.9"/>
	</g>
	<g>
		<defs>
			<rect id="SVGID_5_" width="485" height="530"/>
		</defs>
		<clipPath id="SVGID_6_">
			<use xlink:href="#SVGID_5_"  style="overflow:visible;"/>
		</clipPath>
		<g class="st2">
			<g>
				<defs>
					<rect id="SVGID_7_" x="1.1" y="3.8" width="482.7" height="502.5"/>
				</defs>
				<clipPath id="SVGID_8_">
					<use xlink:href="#SVGID_7_"  style="overflow:visible;"/>
				</clipPath>
				<path class="st3" d="M341.7,43.4h19.4l-11.7,11h-15.4L341.7,43.4z M60.7,124.9h30.4c14.1,0,22.4-6.7,22.4-17.8v-0.2
					c0-8.8-4.6-13.2-11.7-15.8c5.2-2.5,9.1-6.9,9.1-14.4v-0.2c0-4.4-1.4-7.8-3.8-10.5c-3.5-3.7-8.7-5.7-16.1-5.7H60.7V124.9z
					 M94.7,80.4c0,3.8-2.9,5.6-7.8,5.6H76.6V74.7h10.7c4.8,0,7.4,1.9,7.4,5.5C94.7,80.3,94.7,80.4,94.7,80.4z M97.1,104.4v0.2
					c0,3.8-2.8,5.9-7.8,5.9H76.6V98.6h12.5C94.6,98.6,97.1,100.9,97.1,104.4 M127.7,124.9h44.9v-15.7h-28.6V60.3h-16.4V124.9z
					 M181.8,124.9h17.1l4.2-11.6H226l4.2,11.6h17.5l-25.1-65h-15.8L181.8,124.9z M208,99.4l6.7-18.3l6.6,18.3H208z M260.2,124.9
					h16.2V89.5l25.3,35.4H316V60.3h-16.2v34.1l-24.3-34.1h-15.3V124.9z M333.6,124.9H350V60.3h-16.4L333.6,124.9L333.6,124.9z
					 M367.5,124.9h16.4v-16.8l6-7.2l14.9,24h19.6L401.2,88l22.4-27.7h-19.3l-20.4,26.2V60.3h-16.4L367.5,124.9L367.5,124.9z"/>
			</g>
			<g>
				<defs>
					<rect id="SVGID_9_" x="1.1" y="3.8" width="482.7" height="502.5"/>
				</defs>
				<clipPath id="SVGID_10_">
					<use xlink:href="#SVGID_9_"  style="overflow:visible;"/>
				</clipPath>
				<path class="st4" d="M198.6,194.9c-53,0-95.9,42.9-95.9,95.9c0,35.6,19.4,66.7,48.3,83.2h95.3c28.8-16.5,48.3-47.6,48.3-83.2
					C294.5,237.9,251.6,194.9,198.6,194.9 M219.2,259.6c4.7-1.9,10,0.4,11.9,5.1c1.9,4.7-0.4,10-5.1,11.9c-4.7,1.9-10-0.4-11.9-5.1
					C212.1,266.8,214.5,261.5,219.2,259.6 M156.4,294.7c-1.9-4.7,0.4-10,5.1-11.9c4.7-1.9,10,0.4,11.9,5.1c1.9,4.7-0.4,10-5.1,11.9
					C163.6,301.7,158.3,299.4,156.4,294.7 M255,288.2c-2.4,20.4-15,37.6-33.7,46.1c-7.8,3.5-16,5.3-24.2,5.3
					c-11.4,0-22.8-3.4-32.7-10.1c-3.7-2.5-4.7-7.6-2.2-11.4c2.5-3.7,7.6-4.7,11.4-2.2c12.2,8.3,27.5,9.6,40.9,3.5
					s22.4-18.5,24.2-33.1c0.5-4.5,4.6-7.7,9.1-7.1C252.3,279.6,255.5,283.7,255,288.2 M166.3,183.5l-10.1-32.3h24.3l0.2,29.1
					C175.8,181,171,182.1,166.3,183.5 M248.5,190.3c-4.1-2-8.4-3.8-12.8-5.3l12-33.9H277L248.5,190.3z M88.6,265.3L60.7,264v-19.5
					l32.8,5.5C91.5,254.9,89.9,260,88.6,265.3 M116.4,214.2L60.7,178v-26.9H71l54.6,54.4C122.4,208.2,119.3,211.1,116.4,214.2
					 M308,262.7l116.3-21.5V274l-113.5,3C310.2,272.1,309.2,267.4,308,262.7 M424.3,151.1V170L292,228c-2.3-3.3-4.7-6.5-7.3-9.5
					l93.7-67.4L424.3,151.1L424.3,151.1z M308.3,320l116,24.4v29.8H422l-118.7-39C305.3,330.2,307,325.1,308.3,320 M90,324
					c1.4,4.9,3.2,9.6,5.3,14.2l-34.6,21.5v-27.4L90,324z"/>
			</g>
		</g>
	</g>
	<g>
		<defs>
			<rect id="SVGID_11_" width="485" height="530"/>
		</defs>
		<clipPath id="SVGID_12_">
			<use xlink:href="#SVGID_11_"  style="overflow:visible;"/>
		</clipPath>
		<g class="st5">
			<g>
				<defs>
					<rect id="SVGID_13_" width="485" height="530"/>
				</defs>
				<clipPath id="SVGID_14_">
					<use xlink:href="#SVGID_13_"  style="overflow:visible;"/>
				</clipPath>
				<g class="st6">
					<g>
						<g>
							<defs>
								<rect id="SVGID_15_" x="109.1" y="370.2" width="271" height="151"/>
							</defs>
							<clipPath id="SVGID_16_">
								<use xlink:href="#SVGID_15_"  style="overflow:visible;"/>
							</clipPath>
							<g class="st7">
								<g>
									<defs>
										<rect id="SVGID_17_" x="109.1" y="370.2" width="271" height="151"/>
									</defs>
									<clipPath id="SVGID_18_">
										<use xlink:href="#SVGID_17_"  style="overflow:visible;"/>
									</clipPath>
									<g class="st8">
										
											<image style="overflow:visible;enable-background:new    ;" width="272" height="152" xlink:href="3FF51063499B1135.png"  transform="matrix(0.9934 0 0 0.9934 109.5329 370.2411)">
										</image>
									</g>
								</g>
							</g>
						</g>
					</g>
				</g>
			</g>
			<g>
				<defs>
					<rect id="SVGID_19_" width="485" height="530"/>
				</defs>
				<clipPath id="SVGID_20_">
					<use xlink:href="#SVGID_19_"  style="overflow:visible;"/>
				</clipPath>
				<path class="st9" d="M362.5,444c0,33.2-53.7,60.2-120,60.2s-120-26.9-120-60.2s53.7-60.2,120-60.2S362.5,410.8,362.5,444"/>
			</g>
			<g>
				<defs>
					<rect id="SVGID_21_" width="485" height="530"/>
				</defs>
				<clipPath id="SVGID_22_">
					<use xlink:href="#SVGID_21_"  style="overflow:visible;"/>
				</clipPath>
				<path class="st10" d="M358.6,444c0,32.2-52,58.2-116.1,58.2S126.4,476.2,126.4,444s52-58.2,116.1-58.2
					C306.6,385.8,358.6,411.9,358.6,444"/>
			</g>
			<g>
				<defs>
					<rect id="SVGID_23_" width="485" height="530"/>
				</defs>
				<clipPath id="SVGID_24_">
					<use xlink:href="#SVGID_23_"  style="overflow:visible;"/>
				</clipPath>
				<path class="st11" d="M353.7,444.2c0,30.5-49.3,55.3-110.2,55.3s-110.2-24.7-110.2-55.3S182.6,389,243.5,389
					S353.7,413.7,353.7,444.2"/>
			</g>
			<g>
				<defs>
					<rect id="SVGID_25_" width="485" height="530"/>
				</defs>
				<clipPath id="SVGID_26_">
					<use xlink:href="#SVGID_25_"  style="overflow:visible;"/>
				</clipPath>
				<path class="st12" d="M232.5,420.1l-10.8,13.2c-3.9-5.2-9.8-8.6-15-8.6c-8.5,0-15,7.1-15,16.7s6.4,16.8,15,16.8
					c4.8,0,10.7-3,15-7.5l10.8,11.9c-6.8,7.6-17.1,12.5-26.6,12.5c-19.1,0-33.2-14.3-33.2-33.5c0-18.9,14.3-33,33.8-33
					C216,408.6,226.1,413,232.5,420.1"/>
			</g>
			<g>
				<defs>
					<rect id="SVGID_27_" width="485" height="530"/>
				</defs>
				<clipPath id="SVGID_28_">
					<use xlink:href="#SVGID_27_"  style="overflow:visible;"/>
				</clipPath>
				<polygon class="st13" points="266.5,459.2 298.3,459.2 298.3,474.2 241.7,474.2 241.7,462 272.9,424.2 242.8,424.2 242.8,409.1 
					297.7,409.1 297.7,421.4 				"/>
			</g>
		</g>
	</g>
</g>
</svg>
