<?xml version="1.0" encoding="utf-8"?>
<!-- Generator: Adobe Illustrator 25.2.0, SVG Export Plug-In . SVG Version: 6.00 Build 0)  -->
<svg version="1.1" id="Vrstva_1" xmlns="http://www.w3.org/2000/svg" xmlns:xlink="http://www.w3.org/1999/xlink" x="0px" y="0px"
	 viewBox="0 0 841.9 841.9" style="enable-background:new 0 0 841.9 841.9;" xml:space="preserve">
<style type="text/css">
	.st0{fill:url(#SVGID_1_);}
	.st1{fill:#FFFFFF;}
</style>
<linearGradient id="SVGID_1_" gradientUnits="userSpaceOnUse" x1="923.543" y1="520.371" x2="-80.5431" y2="-20.371" gradientTransform="matrix(1 0 0 -1 0 671)">
	<stop  offset="0" style="stop-color:#C30C2B"/>
	<stop  offset="0.4236" style="stop-color:#C30C2B"/>
	<stop  offset="1" style="stop-color:#432C79"/>
</linearGradient>
<rect x="0.5" y="0" class="st0" width="841.9" height="841.9"/>
<path class="st1" d="M702.7,427.5H602.1V324.7c0-0.1,0-0.3,0-0.4c0.2-4.4,1-8.7,2.4-12.9c8.4-25.1,35.5-38.7,60.6-30.3
	c14.3,4.8,25.5,16,30.3,30.3c2.2,6.6,3,13.7,2.2,20.7c7-0.8,14-0.1,20.7,2.1c25.1,8.3,38.8,35.4,30.5,60.5
	c-6.4,19.4-24.4,32.6-44.8,32.9L702.7,427.5z M620.6,409h83.2c16.2-0.3,29.1-13.7,28.8-30c-0.3-16.2-13.7-29.1-30-28.8
	c-5.3,0.1-10.4,1.6-14.9,4.4c-4.3,2.7-10,1.4-12.7-3c-1.9-3-1.9-6.7,0-9.7c8.5-13.9,4.1-32-9.7-40.4c-13.9-8.5-32-4.1-40.4,9.7
	c-1.2,1.9-2.1,3.9-2.8,6c-0.8,2.5-1.3,5.1-1.5,7.7V409z M734.1,452.5c10.4-4.3,19.7-10.7,27.3-19c7.8-8.4,13.6-18.5,17.1-29.4
	c1.2-3.8-1-7.9-4.8-9c-3.8-1.1-7.7,0.9-9,4.6c-2.8,8.9-7.6,17.1-13.9,24c-6.2,6.7-13.8,12-22.2,15.4c-3.8,1.3-5.8,5.4-4.5,9.2
	c1.3,3.8,5.4,5.8,9.2,4.5C733.6,452.7,733.8,452.6,734.1,452.5L734.1,452.5z M589,304.9c3.4-10,9.2-19,17-26.1
	c6.6-6.1,14.4-10.7,22.9-13.5c3.7-1.5,5.5-5.7,4-9.4c-1.4-3.4-5-5.2-8.6-4.3c-10.4,3.5-20,9.1-28.1,16.6
	c-9.5,8.8-16.7,19.8-20.8,32.1c-1.3,3.8,0.7,7.9,4.5,9.2c0.8,0.3,1.5,0.4,2.3,0.4C585.3,309.8,588,307.8,589,304.9z M555.9,304.2
	c0.7-3,1.5-6,2.5-9c5.1-15.3,14-29.1,25.9-40c12.4-11.4,27.5-19.3,43.9-22.9c3.9-0.7,6.5-4.5,5.8-8.4c-0.7-3.9-4.5-6.5-8.4-5.8
	c-0.2,0-0.3,0.1-0.5,0.1c-18.9,4.2-36.3,13.3-50.6,26.4c-13.7,12.5-24,28.4-29.8,46c-1.1,3.4-2.1,6.8-2.9,10.4
	c-0.9,3.9,1.6,7.8,5.5,8.7C551.1,310.5,555,308.1,555.9,304.2L555.9,304.2L555.9,304.2z M727,488.1c42.5-9,75.8-42.2,84.8-84.7
	c0.8-3.9-1.7-7.8-5.6-8.6c-3.9-0.8-7.8,1.7-8.6,5.6l0,0c-3.6,16.9-11.6,32.4-23.4,45.1c-11,11.9-24.8,20.8-40.2,25.8
	c-3.3,1.1-6.6,2-10,2.7c-3.9,0.8-6.4,4.7-5.5,8.6c0.7,3.3,3.6,5.7,7,5.7C726,488.3,726.5,488.2,727,488.1z M537.7,340.5
	c25.6,0,43.8,19.1,43.8,43.4s-18.2,43.4-43.8,43.4s-43.8-19.1-43.8-43.4S511.9,340.6,537.7,340.5 M537.7,408.5
	c14.4,0,23.6-10.9,23.6-24.5c0-13.6-9.2-24.5-23.6-24.5c-14.4,0-23.6,10.9-23.6,24.5C514.1,397.6,523.2,408.5,537.7,408.5
	 M35.8,425.3h19.9v-32.1h31.9v32.1h19.8v-81.4H87.6v32H55.7v-32H35.8V425.3z M121.5,425.3h19.9v-81.4h-20L121.5,425.3z M223.8,344.1
	h34c17.5,0,28.9,10.6,28.9,25.9c0,14.2-7.2,22.2-19.3,25.2l22,30.3h-25l-20.8-30.4v30.4h-19.9L223.8,344.1z M259.8,379.4
	c4.5,0,7.5-4.6,7.5-9.3s-3.5-9-8-9h-15.5v18.3L259.8,379.4z M385.3,344.1h28.3c24,0,42.6,17.7,42.6,40.6c0,21.7-16.5,40.8-42.6,40.8
	h-28.4L385.3,344.1z M413.3,407.3c12.8,0,22.5-9,22.5-22.7c0-12.6-8.5-22.5-22.5-22.5h-8v45.2H413.3z M464.9,425.5h19.9v-81.4h-20
	L464.9,425.5z M342.9,344.1h-14.9l-34,81.4h21.4l3.9-8.4h32.1l4.1,8.4h21.4L342.9,344.1z M325.8,398.7l9.8-27.7l9.4,27.7H325.8z
	 M329.8,336.5h13.4l9.3-15h-16.6L329.8,336.5z M173.3,361.5h-20.9v-17.6h62v17.6h-21.1v63.6h-20L173.3,361.5z M31,533.7l37.3-61.4
	H35.6v-18.4h64.1v1.9l-38.7,61.2h37.3v18.5H31V533.7z M112,453.9h20v64.5h35.5v17.2H112V453.9z M177.2,453.9h20v81.7h-20V453.9z
	 M210.3,453.9h21.1l31.7,48.5v-48.5H283v81.7h-20.8L230.3,487v48.6h-20V453.9z M181.5,446.9h12.4l8.6-13.9h-15.3L181.5,446.9z"/>
</svg>
