<svg xmlns="http://www.w3.org/2000/svg" viewBox="0 0 1530.7 1530.7">
  <defs>
    <style>
      .a {
        fill: #00ab96;
      }

      .b {
        fill: #fff;
      }
    </style>
  </defs>
  <g>
    <rect class="a" width="1530.7" height="1530.71"/>
    <path class="b" d="M421.3,211H211.1V315.6h424C604.5,244.2,523.8,211,421.3,211M620.8,479.3H211.1V375.2H648.2c.2,4.1.3,8.2.3,12.4-.4,38.8-9.6,68.6-27.7,91.7M211.1,538.9v104H593l-64-104Zm0,163.6H629.6L694,807.2H211.1Z" transform="translate(-0.2 -0.2)"/>
    <g>
      <path class="b" d="M285.5,1007.1h28.7v127.5H285.5v-55.1h-46v55.1H210.4V1007.1h29.1v48.4h46Z" transform="translate(-0.2 -0.2)"/>
      <path class="b" d="M358.1,1056.4c5.1-13,12.8-17.1,24.2-17.1a30.6,30.6,0,0,1,4.7.3v24.2a47,47,0,0,0-6.3-.5c-19.1,0-21.3,14.1-21.3,25.3v46H332.1v-93.5h26Z" transform="translate(-0.2 -0.2)"/>
      <path class="b" d="M475.5,1134.6H450.1l-.2-8.5c-10.3,7.2-16.1,11.2-29.5,11.2-18,0-32.5-11.2-32.5-30.2,0-26.5,25.9-28.8,46.1-31.7,4.7-.8,14.4-1.1,14.4-7.8s-8.6-8.7-14.2-8.7c-7.4,0-16.8,2.6-16.5,11.8H393.2c1.2-23.3,18.8-32.4,39.9-32.4,15.5,0,33,2.6,39.9,18.8,2.9,7.1,2.5,17.9,2.5,25.5Zm-26.3-44.8c-2.6.9-4.2,1.6-6.5,2.2-7.5,2-27.9,2.1-27.9,14.2,0,7.8,7.1,10.2,12.5,10.2,2,0,15-.2,21.9-12.1Z" transform="translate(-0.2 -0.2)"/>
      <path class="b" d="M551.3,1134.6v-9c-5.4,8.5-15.2,11.3-24.8,11.3-26.5,0-39.9-24.3-39.9-48.2,0-25.4,12.9-50,41.2-50,8.5,0,15.9,3.1,22.4,8.5v-40.1h26.9v127.5Zm-18.8-74c-14.3,0-18.8,15.1-18.8,26.9s3.8,27.4,19.2,27.4,18.2-14.3,18.2-26.5S548,1060.6,532.5,1060.6Z" transform="translate(-0.2 -0.2)"/>
      <path class="b" d="M615.8,1095.6c1.6,11.5,7.9,20,20.2,20,8.3,0,13.5-2.9,17.5-9.9l26.7,1.8c-6.6,20.1-24.3,29.8-44.9,29.8-29.6,0-47.3-20.8-47.3-49.5s18.6-49.4,47.3-49.4c31.2,0,46,23.8,46,52.7v4.5Zm37.5-20.2c-.9-9.4-7.7-16.1-17.3-16.1-11.4,0-17.2,5.4-20,16.1Z" transform="translate(-0.2 -0.2)"/>
      <path class="b" d="M777.9,1099.9c-4.9,25.8-21.3,37.4-44.3,37.4-29.8,0-46.2-20.4-46.2-49.1s17.7-49.8,47.9-49.8c19.6,0,40.4,11.9,41.7,35.2l-25.7,1c-1.6-9.2-7.2-14.4-16.6-14.4-15.2,0-19.7,13.7-19.7,26.7s3.6,27.8,19.2,27.8c9.7,0,16.8-6.3,17.8-16Z" transform="translate(-0.2 -0.2)"/>
      <path class="b" d="M323.6,1320.1H288.2l-37.7-57.3-11.8,11.6v45.7H210.2V1192.6h28.5v48.7l45-48.7h37L270,1243.5Z" transform="translate(-0.2 -0.2)"/>
      <path class="b" d="M355.3,1241.9c5.1-13,12.9-17.2,24.2-17.2a23.1,23.1,0,0,1,4.7.4v24.2a35.2,35.2,0,0,0-6.3-.6c-19.1,0-21.3,14.1-21.3,25.3v46.1H329.3v-93.6h26Z" transform="translate(-0.2 -0.2)"/>
      <path class="b" d="M472.7,1320.1H447.3l-.2-8.4c-10.3,7-16.1,11.2-29.5,11.2-18,0-32.5-11.2-32.5-30.4,0-26.5,25.9-28.9,46.1-31.8,4.7-.7,14.4-1.1,14.4-7.7s-8.6-8.7-14.2-8.7c-7.4,0-16.8,2.5-16.5,11.7H390.4c1.2-23.3,18.8-32.3,39.9-32.3,15.5,0,33,2.5,39.9,18.8,2.9,7,2.5,17.9,2.5,25.5Zm-26.3-44.8a53.9,53.9,0,0,1-6.5,2.1c-7.5,2-27.9,2.2-27.9,14.3,0,7.8,7.1,10.1,12.5,10.1,2,0,15-.2,21.9-12.1Zm-5.4-61.6H421.7l12.2-25.2h29.7Z" transform="translate(-0.2 -0.2)"/>
      <path class="b" d="M514.8,1320.1H488.3V1192.6h26.5Z" transform="translate(-0.2 -0.2)"/>
      <path class="b" d="M573.1,1322.8c-29.2,0-47.5-20.3-47.5-49,0-30.3,19.7-50,50-50,28.7,0,46.8,21.1,46.8,49.1S602.2,1322.8,573.1,1322.8Zm1.3-77.7c-16.1,0-21.5,13.7-21.5,27.7s5,28.3,21.1,28.3,21.1-15.3,21.1-29.3S590.1,1245.1,574.4,1245.1Z" transform="translate(-0.2 -0.2)"/>
      <path class="b" d="M678,1320.1H652.6l-32.3-93.6h28.3l17.2,58,15.5-58h28.2Z" transform="translate(-0.2 -0.2)"/>
      <path class="b" d="M735.6,1281.1c1.6,11.5,7.9,20,20.2,20,8.3,0,13.6-2.9,17.5-9.9l26.8,1.8c-6.7,20-24.4,29.8-45,29.8-29.6,0-47.3-20.8-47.3-49.5s18.6-49.5,47.3-49.5c31.2,0,46,23.9,46,52.7v4.6Zm37.6-20.3c-.9-9.4-7.8-16-17.4-16-11.4,0-17.1,5.4-20,16Zm-30.4-47.1,8.1-26.5h29.8l-20,26.5Z" transform="translate(-0.2 -0.2)"/>
    </g>
  </g>
</svg>
