<svg xmlns="http://www.w3.org/2000/svg" viewBox="0 0 1530.7 1530.7">
  <defs>
    <style>
      .a {
        fill: #00ab96;
      }

      .b {
        fill: #fff;
      }
    </style>
  </defs>
  <g>
    <rect class="a" width="1530.7" height="1530.71"/>
    <path class="b" d="M543.3,295.5H295.7V418.7H795.3c-36.1-84.2-131.2-123.2-252-123.2m235,316.1H295.7V488.9h515c.2,4.8.3,9.7.3,14.6-.4,45.7-11.4,80.9-32.7,108.1M295.7,681.8V804.3H745.6L670.3,681.8Zm0,192.7H788.8l75.9,123.4h-569Z" transform="translate(-84.8 -84.7)"/>
    <g>
      <path class="b" d="M384.9,1409c-58.8,0-94.9-44.6-94.9-101.2,0-58.6,35.5-102.1,96-102.1s96.5,42.7,96.5,101.2S444.9,1409,384.9,1409Zm1.1-166.1c-35.7,0-50.3,33-50.3,64.3s14.3,64.6,50.6,64.6c34.1,0,50.3-29.4,50.3-62.7S424.5,1242.9,386,1242.9Z" transform="translate(-84.8 -84.7)"/>
      <path class="b" d="M544.6,1404.6H504.2V1210.4h40.4Z" transform="translate(-84.8 -84.7)"/>
      <path class="b" d="M633.3,1408.7c-44.5,0-72.3-30.8-72.3-74.5,0-46.2,30-76.2,76.2-76.2,43.7,0,71.2,32.2,71.2,74.8S677.6,1408.7,633.3,1408.7Zm2-118.3c-24.5,0-32.7,20.9-32.7,42.1s7.7,43.2,32.1,43.2,32.2-23.4,32.2-44.6S659.2,1290.4,635.3,1290.4Z" transform="translate(-84.8 -84.7)"/>
      <path class="b" d="M891.7,1404.6v-74.8c0-15.4-1.4-34.1-20.7-34.1-21.1,0-22,18.1-22,34.1v74.8H808.3V1324c0-12.1-3-28.3-20.9-28.3-20.6,0-22.5,19.5-22.5,33v75.9H724.7V1262.1h40.2v19c8.5-16,21.4-22.3,39.3-22.3s31.4,8,38,24.5c8.8-15.4,25-24.2,42.6-24.2,10.7,0,23.4,3.3,31.9,10.2,15.1,12.3,15.4,27.5,15.4,45.3v90Z" transform="translate(-84.8 -84.7)"/>
      <path class="b" d="M1020.6,1408.7c-44.5,0-72.3-30.8-72.3-74.5,0-46.2,30-76.2,76.2-76.2,43.7,0,71.2,32.2,71.2,74.8S1064.9,1408.7,1020.6,1408.7Zm2-118.3c-24.5,0-32.8,20.9-32.8,42.1s7.7,43.2,32.2,43.2,32.2-23.4,32.2-44.6S1046.5,1290.4,1022.6,1290.4Z" transform="translate(-84.8 -84.7)"/>
      <path class="b" d="M1199,1404.6v-15.7c-8,12.9-25.9,19.2-40.4,19.2-44.6,0-47.6-36-47.6-62.9v-83.1h40.4v81.7c0,15.7,3,30.8,22.3,30.8s24.5-16.8,24.5-38.2v-74.3h39.3v142.5Z" transform="translate(-84.8 -84.7)"/>
      <path class="b" d="M1391.9,1351.8c-7.4,39.3-32.4,56.9-67.3,56.9-45.4,0-70.4-31.1-70.4-74.8s26.9-75.9,72.8-75.9c30,0,61.6,18.1,63.6,53.6l-39.1,1.7c-2.5-14.1-11-22-25.3-22-23.1,0-30,20.9-30,40.7s5.5,42.3,29.2,42.3c14.8,0,25.6-9.6,27.2-24.5Z" transform="translate(-84.8 -84.7)"/>
    </g>
  </g>
</svg>
