<svg xmlns="http://www.w3.org/2000/svg" viewBox="0 0 1530.7 1530.7">
  <defs>
    <style>
      .a {
        fill: #00ab96;
      }

      .b {
        fill: #fff;
      }
    </style>
  </defs>
  <g>
    <rect class="a" width="1530.7" height="1530.71"/>
    <path class="b" d="M543.3,295.5H295.7V418.7H795.3c-36.1-84.2-131.2-123.2-252-123.2m235,316.1H295.7V488.9h515c.2,4.8.3,9.7.3,14.6-.4,45.7-11.4,80.9-32.7,108.1M295.7,681.8V804.3H745.6L670.3,681.8Zm0,192.7H788.8l75.9,123.4h-569Z" transform="translate(-84.8 -84.7)"/>
    <g>
      <path class="b" d="M408.7,1268.2c-1.4-21-14-30.2-38.4-30.2-19.9,0-31.1,7-31.1,20.1s13.2,17.1,33.1,21.6l25.7,5.9c16.5,3.6,57.7,13.1,57.7,60.2,0,24.3-12.3,63.2-82.9,63.2-44.8,0-82.6-15.4-84.8-67.2l44.5-2.5c.3,22.1,16,32.5,42.3,32.5,11.7,0,35.3-2.5,35.3-23,0-16.2-18.2-20.4-38.4-24.9l-14-3.1c-38.4-8.4-63.3-22.9-63.3-59,0-54.1,54.3-59.7,79.5-59.7,46.8,0,76.8,22.4,78.7,62.7Z" transform="translate(-84.8 -84.7)"/>
      <path class="b" d="M512.5,1344.1c2.6,17.9,12.4,31.1,31.4,31.1,12.9,0,21-4.5,27.2-15.4l41.4,2.8c-10.4,31-37.8,46.2-69.7,46.2-45.9,0-73.4-32.2-73.4-76.8s28.9-76.7,73.4-76.7c48.4,0,71.4,37,71.4,81.8v7Zm58.3-31.4c-1.4-14.5-12.1-24.9-26.9-24.9-17.6,0-26.6,8.4-31.1,24.9Z" transform="translate(-84.8 -84.7)"/>
      <path class="b" d="M700,1404.6H660.5l-50.1-145.1h43.9l26.6,89.9,24.1-89.9h43.7Z" transform="translate(-84.8 -84.7)"/>
      <path class="b" d="M789.2,1344.1c2.6,17.9,12.4,31.1,31.4,31.1,12.9,0,21-4.5,27.2-15.4l41.4,2.8c-10.4,31-37.8,46.2-69.7,46.2-45.9,0-73.4-32.2-73.4-76.8s28.9-76.7,73.4-76.7c48.4,0,71.4,37,71.4,81.8v7Zm58.3-31.4c-1.4-14.5-12.1-24.9-26.9-24.9-17.6,0-26.6,8.4-31.1,24.9Z" transform="translate(-84.8 -84.7)"/>
      <path class="b" d="M947.4,1283.3c7.8-20.1,19.9-26.6,37.5-26.6a37.3,37.3,0,0,1,7.3.6v37.5a56.3,56.3,0,0,0-9.8-.8c-29.7,0-33,21.8-33,39.2v71.4H907.1V1259.5h40.3Z" transform="translate(-84.8 -84.7)"/>
    </g>
  </g>
</svg>
