<?xml version="1.0" encoding="utf-8"?>
<!-- Generator: Adobe Illustrator 23.0.2, SVG Export Plug-In . SVG Version: 6.00 Build 0)  -->
<svg version="1.1" id="Layer_1" xmlns="http://www.w3.org/2000/svg" xmlns:xlink="http://www.w3.org/1999/xlink" x="0px" y="0px"
	 viewBox="0 0 363.6 167.8" style="enable-background:new 0 0 363.6 167.8;" xml:space="preserve">
<style type="text/css">
	.st0{fill:#1D1D1D;}
	.st1{fill:#FFFFFF;}
	.st2{fill:#D3A82B;}
	.st3{fill:#B63323;}
</style>
<g>
	<path class="st0" d="M347.4,96l-43.4-30.3c0.3,0.2,0.6,0.4,0.8,0.6l-8.9-7.4c4,3.3,5.2,8.9,3,13.6l22.6-48.9
		c2.3-4.9,0.8-10.7-3.5-13.9c-4.3-3.2-10.3-3.1-14.4,0.4l-42.7,36.2c4-3.4,9.7-3.7,14-0.7l-21.7-15c-3.7-2.6-8.6-2.7-12.5-0.4
		c-3.9,2.3-6,6.7-5.5,11.2l0.6,4.7c-0.1-0.6-0.1-1.3-0.1-1.9c0,0.2,0,0.3,0,0.3c0,0,0.1-0.2,0.2-0.3c0.3-0.3,0.6-0.5,0.8-0.6
		c-0.8,0.3-3.4,0.2-4.9,0.1c-1.1-0.1-2.3-0.1-3.4-0.1c-2.4,0-5.2,0.1-7.1,0.2c1.3,0,2.6,0.1,3.9,0.5c-1.3-0.4-2.7-0.6-4.1-0.6h-19.9
		c-5.1,0-9.7,2.8-12.1,7.2c0-0.1-7.2,13.2-7.2,13.2c2.5-4.6,7.9-6.9,13-5.6c5.1,1.4,8.7,6,8.6,11.3l0.2-12.2
		c0.1-3.6-1.4-7.2-3.9-9.8c0,0-0.1-0.1-0.1-0.1c-2.6-2.6-6.1-4.1-9.8-4.1h-17.7c-3.6,0-7.1,1.5-9.7,4c-2,2-3.4,4.6-3.9,7.3
		c0.7-4.2,3.7-7.6,7.8-8.9c4-1.3,8.5-0.3,11.5,2.6c-1.4-1.4-3.1-2.4-5.1-3.1c-5.3-1.8-11.1-2.8-16.7-2.8c-10.8,0-20.9,4.2-28.4,11.7
		c-4.1,4.1-7.3,9.2-9.2,14.6c1.6-4.6,6-7.6,10.9-7.6c4.9,0,9.2,3.1,10.8,7.7c-2.1-6.1-5.8-11.6-10.6-15.9
		c-7.6-6.8-17.8-10.6-28.7-10.6c-10.9,0-21.2,3.8-28.8,10.6c-3.1,2.8-5.8,6.1-7.8,9.8c2.2-4,6.5-6.3,11-5.9l-2-0.2
		c4.8,0.4,8.8,3.7,10.1,8.3c-1.8-6.3-5.5-11.6-10.7-15.3c-6-4.3-13.6-6.5-22.7-6.5h-22c-3.6,0-7.2,1.5-9.7,4c-2.5,2.5-4,6.1-4,9.7
		v49.9c0,3.6,1.5,7.2,4.1,9.7c0,0-0.1-0.1-0.1-0.1c2.6,2.6,6.1,4.1,9.8,4.1h23.2c-6.4,0-11.5-5.1-11.5-11.5v34.5
		c0,6.3,5.1,11.5,11.5,11.5h19.7c6.4,0,11.5-5.1,11.5-11.5v-6.8c0,5.3-3.7,9.9-8.9,11.2c-5.2,1.2-10.6-1.3-12.9-6.1L64,149
		c1.9,3.9,5.9,6.4,10.3,6.4h33.5c5.3,0,10-3.7,11.2-8.8l1.2-5.3c-1.2,5.2-5.9,8.8-11.2,8.8h8.2c-5.2,0-9.8-3.5-11.1-8.5l1.4,5.3
		c1.3,5,5.9,8.5,11.1,8.5h40.1c4,0,7.7-2.1,9.8-5.5c2.1-3.4,2.3-7.6,0.5-11.2c1.7,3.4,1.6,7.5-0.3,10.9c-1.9,3.3-5.4,5.5-9.3,5.7
		c8.8-0.5,16.5-3.7,22.3-9.3c3.4-3.2,6.1-7.2,7.9-11.7c-2,5.1-7.4,8.1-12.8,7.1c-5.4-1-9.4-5.8-9.4-11.3v13.8
		c0,6.3,5.1,11.5,11.5,11.5h20c6.4,0,11.5-5.1,11.5-11.5v-14.1c0,5.5-3.9,10.2-9.3,11.3c-5.4,1-10.8-1.9-12.9-7
		c2,5,5.1,9.3,9.1,12.8c6.7,5.9,15.9,9.2,25.7,9.2c0.9,0,1.8,0,2.8-0.1c-4.8,0.3-9.2-2.4-11.2-6.7l0.1,0.1c1.9,4.2,6.1,6.8,10.7,6.7
		c1.7,0,17.1-0.5,27-3.8c13.9-4.6,18.3-18.2,18.7-19.7c0.3-0.9,0.4-1.8,0.5-2.7l0-0.2c-0.1,1.5-0.4,2.9-1,4.3l15.5-33.5
		c-2.1,4.6-7.1,7.3-12.2,6.5l65.2,9.8c5.3,0.8,10.4-2.1,12.4-7.1C353.4,104.7,351.7,99,347.4,96"/>
	<path class="st1" d="M221.1,104.3c0,0-14.6-21.6-16.3-24.1c1.6-2.5,14.7-22.7,14.7-22.7c0.3-0.4,0.4-0.9,0.4-1.3
		c0-0.4-0.1-0.8-0.3-1.2c-0.4-0.8-1.3-1.3-2.2-1.3h-19.7c-0.9,0-1.8,0.5-2.2,1.3c0,0-4.1,7.6-6.7,12.2c0.1-5.5,0.2-11,0.2-11
		c0-0.7-0.3-1.3-0.7-1.8c-0.5-0.5-1.1-0.7-1.8-0.7h-17.6c-1,0-1.8,0.5-2.2,1.3c-4.1-1.4-8.5-2.1-12.8-2.1
		c-12.3,0-22.5,7.4-26.6,18.1C123.2,60,112.6,52.8,99,52.8c-12.1,0-21.8,5.7-26.7,14.7C70,58.7,62,53.6,49.9,53.6H28.1
		c-1.4,0-2.5,1.1-2.5,2.5v49.5c0,1.4,1.1,2.5,2.5,2.5h46.7c0.9,0,1.8-0.5,2.2-1.3c0.2-0.4,0.3-0.8,0.3-1.2c0-0.5-0.1-1-0.4-1.4
		l-4.7-7c0,0,1.2-0.8,1.9,0.1c5.3,7.1,14.1,11.5,24.9,11.5c13.6,0,24.1-6.8,28.2-17.5c4,10.4,13.9,17.5,25.9,17.5
		c2.9,0,9.9-0.5,13.6-2c0.4,0.8,1.2,1.3,2.2,1.3l7.5,5.5l10.1-5.5c0.7,0,1.3-0.3,1.8-0.7c0.5-0.5,0.7-1.1,0.7-1.8
		c0,0-0.1-3.2-0.2-8.7c2-0.3,7.1,10,7.1,10c0.4,0.8,2.6,4.5,3.5,4.5l19.7-3.2c0.9,0,1.8-0.5,2.2-1.3c0.2-0.4,0.3-0.8,0.3-1.2
		C221.5,105.2,221.4,104.7,221.1,104.3"/>
	<path class="st2" d="M280,71.4L304,28l-37.3,33.3l-16.5-12.4l3.1,23.3l-17.2,14l19.2,2.1l3.8,29.6L271.7,90l50.2,7.6L280,71.4z
		 M274.7,95.9l-17.8,38.4l-5-41.8l-24-3.7l21.5-18.1l-3.6-30.4l21.7,15l42.6-36.2l-23,49.8l52.7,36.7L274.7,95.9z"/>
	<path class="st3" d="M221.9,125.6c-3.3,0-5.4-2.2-5.4-5.6c0-2.8,1.7-5.7,5.4-5.7c3.7,0,5.4,2.9,5.4,5.7
		C227.3,123.4,225.2,125.6,221.9,125.6 M153.5,125.5v-11.1c3.5,0.4,5,2.1,5,5.9C158.5,123.3,156.8,125.1,153.5,125.5z M186.4,84.9
		c0.4,2,2,3.9,3,5.8l3.1,5.4h-6.3L186,84.9H186.4z M89,131.3l-3.8-5.7c-0.1-0.2-0.3-0.4-0.4-0.6c4.5-2.4,6.5-6,6.5-11.8
		c0-3.1-0.6-5.9-1.8-8.2c2.6,0.8,5.4,1.3,8.3,1.4L89,131.3z M45.7,78.1v-8.4h1.4c3.1,0,5.8,0.5,5.8,4.3c0,3.7-3,4.1-5.9,4.1H45.7z
		 M99,71.6c5.7,0,9.3,4.4,9.3,9.7c0,5.6-3.8,9.5-9.3,9.5c-5.5,0-9.3-3.9-9.3-9.5C89.7,76,93.3,71.6,99,71.6z M221.9,95.4
		c-3.2,0-6.2,0.5-9,1.3l-11.2-16.5l15.6-24.1h-19.7L188.9,72c-1,1.8-2.1,3.6-2.5,5.6H186l0.4-21.5h-17.6v44.2
		c-0.9-0.5-1.8-1-2.7-1.4l0.4-13c-2.9,2.8-6.2,4.6-10.3,4.6c-5.4,0-10.1-4.2-10.1-9.7c0-5.4,4.4-9.7,9.8-9.7c4.1,0,7.7,2.3,10.6,5
		L166,57.4c-3.8-1.3-8-2-12.1-2c-14.6,0-26,11.6-26,26c0,5.9,2,11.3,5.3,15.5v30.8l-11.3-31.6c3-4,4.7-9.1,4.7-15.1
		c0-15.6-12.4-25.7-27.5-25.7c-15.1,0-27.5,10.1-27.5,25.7c0,6.2,1.9,11.5,5.1,15.6c-1.7-0.3-3.6-0.5-5.5-0.5h-2.7L64,89.6
		c-1-1.5-2.1-2.2-3-3v-0.4c6.7-2.2,9.6-5.4,9.6-12.9c0-12.5-9.5-17.2-20.7-17.2H28v49.5h17.7V89.8H46l4,8.1v42.9
		c0,1.4,1.1,2.5,2.5,2.5h15c1.4,0,2.5-1.1,2.5-2.5v-3.4c1,2,2.3,4.5,2.3,4.5c0.4,0.8,1.3,1.4,2.2,1.4h30c1.2,0,2.2-0.8,2.4-1.9
		c0,0,0.4-1.8,0.8-3.3h7.7c0.4,1.6,0.9,3.4,0.9,3.4c0.3,1.1,1.3,1.9,2.4,1.9h16.2c0.1,0,0.2,0,0.2,0c0.1,0,0.2,0,0.3,0h19.5
		c10.1,0,18-4.9,21.6-12.7v10.2c0,1.4,1.1,2.5,2.5,2.5h16.5c1.4,0,2.5-1.1,2.5-2.5v-10.6c3.9,8.4,12.6,13.7,23.7,13.7
		c15.2,0,25.9-9.9,25.9-24.1C247.8,105.7,236.9,95.4,221.9,95.4z"/>
	<path class="st1" d="M108.6,125.5l2.8-12.9h0.6c0.3,1.8,0.6,3.6,1,5.4l1.8,7.4H108.6z M68.6,117.3h-1.1v-7.2h1.2
		c2.6,0,4.9,0.4,4.9,3.6C73.7,116.9,71.2,117.3,68.6,117.3z M103.1,98.6l-13.3,38.3l-6.6-9.8c-0.8-1.2-1.8-1.9-2.6-2.5v-0.3
		c5.7-1.9,8.2-4.6,8.2-11c0-10.6-8.1-14.6-17.6-14.6H52.6v42.1h15v-13.5h0.3l6.7,13.5h30l1.2-5.2h11.6l1.4,5.2h16.2L120,98.6H103.1z
		"/>
	<path class="st1" d="M151.9,128.1h-1v-16.3h1c5.6,0,9,2.5,9,8.4C161,125.7,157,128.1,151.9,128.1 M151.3,98.6h-15.6v42.1h19.5
		c12.4,0,21.2-7.9,21.2-20.5C176.3,104.8,165.5,98.6,151.3,98.6z"/>
	<rect x="179.2" y="98.6" class="st1" width="16.5" height="42.1"/>
	<path class="st1" d="M221.9,128.1c-4.7,0-7.9-3.3-7.9-8.1c0-4.5,3-8.2,7.9-8.2c4.9,0,7.9,3.7,7.9,8.2
		C229.8,124.8,226.6,128.1,221.9,128.1 M221.9,97.9c-12.8,0-23.4,8.6-23.4,21.8c0,13.5,10.5,21.6,23.4,21.6
		c12.9,0,23.4-8.1,23.4-21.6C245.3,106.5,234.8,97.9,221.9,97.9z"/>
</g>
</svg>
