<?xml version="1.0" encoding="utf-8"?>
<!-- Generator: Adobe Illustrator 25.2.0, SVG Export Plug-In . SVG Version: 6.00 Build 0)  -->
<svg version="1.1" id="Vrstva_1" xmlns="http://www.w3.org/2000/svg" xmlns:xlink="http://www.w3.org/1999/xlink" x="0px" y="0px"
	 viewBox="0 0 841.9 841.9" style="enable-background:new 0 0 841.9 841.9;" xml:space="preserve">
<style type="text/css">
	.st0{fill:url(#SVGID_1_);}
	.st1{fill:#FFFFFF;}
</style>
<linearGradient id="SVGID_1_" gradientUnits="userSpaceOnUse" x1="923.543" y1="520.371" x2="-80.5431" y2="-20.371" gradientTransform="matrix(1 0 0 -1 0 671)">
	<stop  offset="0" style="stop-color:#C30C2B"/>
	<stop  offset="0.4236" style="stop-color:#C30C2B"/>
	<stop  offset="1" style="stop-color:#432C79"/>
</linearGradient>
<rect x="0.5" y="0" class="st0" width="841.9" height="841.9"/>
<path class="st1" d="M700.6,443.5H599.9V340.6c0-0.1,0-0.3,0-0.4c1.3-26.5,23.7-46.9,50.2-45.6c26.5,1.3,46.9,23.7,45.6,50.2
	c-0.1,1.1-0.1,2.1-0.3,3.2c26.3-3,50.1,15.8,53.2,42.1c3,26.3-15.8,50.1-42.1,53.2c-1.5,0.2-3.1,0.3-4.6,0.3H700.6z M618.4,425h83.3
	c16.3-0.3,29.2-13.7,28.9-30c-0.3-16.3-13.7-29.2-30-28.9c-5.3,0.1-10.4,1.6-14.9,4.4c-4.4,2.7-10.1,1.3-12.8-3
	c-1.8-3-1.8-6.7,0-9.7c4.5-7.4,5.5-16.4,2.7-24.7c-5.1-15.4-21.7-23.8-37.2-18.7c-8.8,2.9-15.8,9.9-18.7,18.7
	c-0.8,2.5-1.3,5.1-1.5,7.7L618.4,425z M732.1,468.6c10.4-4.3,19.7-10.8,27.3-19c7.8-8.4,13.6-18.5,17.1-29.4c1.2-3.8-1-7.9-4.8-9
	c-3.8-1.1-7.7,0.9-9,4.6c-2.8,8.9-7.6,17.1-14,24c-6.2,6.7-13.8,12-22.2,15.4c-3.6,1.7-5.1,6-3.4,9.7
	C724.7,468.1,728.5,469.7,732.1,468.6L732.1,468.6z M586.8,320.8c3.4-10,9.2-19,17-26.1c6.6-6.1,14.4-10.7,22.9-13.5
	c3.8-1.1,6-5.2,4.9-9s-5.2-6-9-4.9c-0.1,0-0.3,0.1-0.4,0.1c-10.5,3.5-20,9.1-28.2,16.6c-9.6,8.8-16.8,19.8-20.9,32.1
	c-1.3,3.8,0.7,7.9,4.5,9.2c0,0,0,0,0,0c0.8,0.3,1.5,0.4,2.3,0.4C583,325.7,585.8,323.7,586.8,320.8z M553.7,320.1
	c0.7-3,1.5-6.1,2.5-9c5.1-15.3,14-29.1,25.9-40c12.4-11.4,27.5-19.3,43.9-23c3.9-0.7,6.5-4.5,5.8-8.5c-0.7-3.9-4.5-6.5-8.5-5.8
	c-0.2,0-0.3,0.1-0.5,0.1c-18.9,4.2-36.4,13.3-50.6,26.4c-13.7,12.6-23.9,28.4-29.8,46.1c-1.1,3.4-2.1,6.8-2.9,10.4
	c-0.9,3.9,1.5,7.8,5.4,8.7c0.5,0.1,1.1,0.2,1.6,0.2C550,325.7,552.9,323.3,553.7,320.1z M725,504.2c3.9-0.8,7.8-1.9,11.6-3.1
	c17.7-5.8,33.7-16,46.3-29.7c13.5-14.6,22.8-32.5,26.9-51.9c0.8-3.9-1.7-7.8-5.6-8.6c-3.9-0.8-7.8,1.7-8.6,5.6l0,0
	c-3.6,16.9-11.7,32.5-23.4,45.1c-13.4,14.4-31,24.4-50.3,28.5c-3.9,0.8-6.4,4.7-5.6,8.6c0.7,3.3,3.6,5.7,7,5.7
	C724,504.3,724.5,504.3,725,504.2z M71.1,474.6c11.5-0.3,22.5,4.4,30.1,12.9l-11.9,11.3c-4.8-4.9-11.4-7.8-18.3-7.9
	c-12.6,0-20.7,9.4-20.7,21.2s8.1,21.3,20.7,21.3c6.9-0.1,13.5-2.9,18.3-7.9l11.5,11.3c-7.7,8.3-18.5,13-29.8,12.9
	c-22.3,0-38.1-16.5-38.1-37.5C33,491.2,48.8,474.6,71.1,474.6z M74.6,458.3l-3.4,5l-3.4-5.1H54.6l8.8,11.9h15.6l8.8-11.9L74.6,458.3
	z M112.3,477h46.6v15.3h-29.3v12.7h27.1v15h-27.1v12.7h30.6v14.8h-47.9L112.3,477z M168.5,477H198c15.1,0,25,9.2,25,22.4
	c0,12.3-6.2,19.2-16.7,21.8l19,26.2h-21.6l-18-26.3v26.3h-17.2L168.5,477z M199.6,507.5c3.9,0,6.4-4.1,6.4-8.2
	c0-4.1-3.1-7.7-6.9-7.7h-13.4v15.9H199.6z M231.4,477h18.2l27.2,41.7v-41.8H294v70.4h-17.9l-27.4-41.9v41.9h-17.2V477z M408.5,477
	h17.2v27.7h27.6v-27.8h17v70.4h-17.1v-27.8h-27.6v27.8h-17.2L408.5,477z M520.3,474.7c22.2,0,37.9,16.5,37.9,37.5
	c0,21-15.8,37.5-38,37.5c-22.2,0-37.9-16.5-37.9-37.5C482.3,491.2,497.9,474.6,520.3,474.7L520.3,474.7z M520.3,533.5
	c12.4,0,20.4-9.4,20.4-21.2c0-11.9-8-21.2-20.4-21.2c-12.5,0-20.4,9.4-20.4,21.2C499.8,524.1,507.7,533.4,520.3,533.5L520.3,533.5z
	 M570.1,477h29.5c15.1,0,25,9.2,25,22.4c0,12.3-6.2,19.2-16.7,21.8l19.1,26.2h-21.7l-18-26.3v26.3h-17.2L570.1,477z M601.2,507.5
	c3.9,0,6.4-4,6.4-8.1s-3.1-7.7-6.9-7.7h-13.4v15.8H601.2z M343.7,477h-12.8l-29.4,70.4h18.5l3.4-7.3h27.8l3.5,7.3h18.5L343.7,477z
	 M328.9,524.1l8.4-24l8.1,24H328.9z M331.2,470.1h12.6l8.8-14.1H337L331.2,470.1z M675.9,476.9H663l-29.4,70.4h18.5l3.4-7.3h27.7
	l3.5,7.3h18.5L675.9,476.9z M661,524.1l8.4-24l8.2,24H661z M533.9,357c25.6,0,43.7,19.1,43.7,43.3c0,24.2-18.1,43.3-43.7,43.3
	c-25.6,0-43.7-19.1-43.7-43.3C490.2,376.1,508.2,357,533.9,357 M533.9,424.8c14.3,0,23.5-10.8,23.5-24.5s-9.2-24.5-23.5-24.5
	s-23.6,10.8-23.6,24.5S519.5,424.8,533.9,424.8 M33.2,441.6h19.9v-32.1h31.8v32.1h19.8v-81.2H84.9v31.9H53.1v-31.9H33.2V441.6z
	 M118.7,441.6h19.9v-81.2h-19.9V441.6z M220.9,360.6h34c17.5,0,28.8,10.5,28.8,25.9c0,14.2-7.2,22.2-19.2,25.2l21.9,30.2h-25
	l-20.7-30.3v30.3h-19.9L220.9,360.6z M256.6,395.8c4.5,0,7.5-4.6,7.5-9.3s-3.5-8.9-8-8.9h-15.4v18.3H256.6z M381.9,360.7h28.3
	c24,0,42.5,17.6,42.5,40.5c0,21.6-16.5,40.7-42.5,40.7h-28.3V360.7z M409.7,423.7c12.7,0,22.5-8.9,22.5-22.6
	c0-12.6-8.5-22.5-22.5-22.5h-8v45.1L409.7,423.7z M461.3,441.8h19.9v-81.2h-19.9V441.8z M339.6,360.7h-14.8l-33.9,81.2h21.3l3.9-8.4
	h32.1l4.1,8.4h21.4L339.6,360.7z M322.5,415.1l9.7-27.7l9.3,27.7H322.5z M326.5,353.1h13.3l9.3-15h-16.5L326.5,353.1z M170.5,378.1
	h-20.8v-17.7h61.8V378h-21.1v63.5h-20L170.5,378.1z"/>
</svg>
