<svg enable-background="new 0 0 1000 1000" viewBox="0 0 1000 1000" xmlns="http://www.w3.org/2000/svg"><path clip-rule="evenodd" d="m0 0h1000v1000h-1000z" fill="#0c6170" fill-rule="evenodd"/><g fill="#fff"><path d="m811.9 477.6h-112.6v-115c0-.2 0-.3 0-.5 1.1-29.6 25.9-52.7 55.5-51.6s52.7 25.9 51.6 55.5c-.1 1.6-.2 3.2-.4 4.8 7.8-.9 15.7-.1 23.1 2.3 28.1 9.3 43.4 39.6 34.1 67.7-7.2 21.7-27.2 36.4-50 36.8zm-91.8-20.7h93.1c18.2-.4 32.6-15.4 32.2-33.5-.4-18.2-15.4-32.6-33.5-32.2-5.9.1-11.6 1.8-16.6 4.9-4.9 3-11.2 1.5-14.3-3.4-2.1-3.3-2.1-7.5 0-10.9 5.1-8.3 6.2-18.4 3.1-27.6-4.5-13.4-17-22.5-31.2-22.5-17.5 0-31.9 13.7-32.8 31.1zm126.9 48.6c11.6-4.8 22-12 30.5-21.2 8.7-9.4 15.3-20.7 19.2-32.9 1.2-4.3-1.4-8.8-5.7-9.9-4.1-1.1-8.3 1.1-9.7 5.1-3.2 10-8.5 19.1-15.6 26.8-6.9 7.5-15.4 13.4-24.8 17.3-4.1 1.7-6.1 6.4-4.4 10.6 1.2 3 4.2 5 7.5 5 1-.1 2.1-.3 3-.8zm-162.3-165c3.8-11.2 10.3-21.2 19-29.2 7.4-6.8 16.1-11.9 25.6-15.1 4.1-1.7 6.2-6.4 4.5-10.5-1.5-3.8-5.7-5.9-9.6-4.8-11.7 3.9-22.4 10.2-31.5 18.5-10.7 9.8-18.7 22.1-23.4 35.8-1.4 4.2.8 8.8 5 10.3 4.4 1.4 9-.8 10.4-5zm-37-.9c.8-3.4 1.7-6.8 2.8-10 5.7-17.1 15.6-32.5 28.9-44.7 13.8-12.7 30.8-21.6 49.1-25.6 4.4-1 7-5.4 6-9.8-1-4.3-5.2-6.9-9.5-6-21.1 4.7-40.6 14.9-56.6 29.5-15.3 14-26.8 31.8-33.3 51.5-1.3 3.8-2.4 7.7-3.2 11.6-1 4.4 1.7 8.7 6.1 9.7.6.1 1.2.2 1.8.2 3.8 0 7.1-2.7 7.9-6.4zm191.4 205.8c4.4-.9 8.7-2.1 12.9-3.5 19.8-6.4 37.7-17.9 51.8-33.2 15.1-16.3 25.5-36.3 30.1-58.1.9-4.4-1.9-8.7-6.2-9.6-4.4-.9-8.7 1.9-9.6 6.2-4 18.9-13 36.3-26.1 50.4-12.3 13.3-27.8 23.2-45 28.8-3.7 1.2-7.4 2.2-11.2 3-4.4.9-7.2 5.2-6.2 9.6.8 3.7 4.1 6.4 7.9 6.4.5.2 1.1.1 1.6 0zm-213.7-164.5c28.6 0 48.8 21.3 48.8 48.4s-20.3 48.4-48.8 48.4c-28.7 0-48.8-21.3-48.8-48.4s20.1-48.4 48.8-48.4m0 75.7c16 0 26.3-12.1 26.3-27.4s-10.3-27.4-26.3-27.4c-16.2 0-26.3 12.1-26.3 27.4s10.1 27.4 26.3 27.4m-559.5 18.8h22.2v-35.8h35.5v35.8h22.1v-90.7h-22.1v35.7h-35.5v-35.7h-22.2zm95.5 0h22.2v-90.7h-22.2zm114.1-90.5h38c19.5 0 32.2 11.8 32.2 28.9 0 15.9-8 24.8-21.5 28.1l24.5 33.7h-27.9l-23.1-33.9v33.9h-22.2zm40.1 39.3c5 0 8.4-5.1 8.4-10.4s-3.9-10-8.9-10h-17.3v20.4zm139.9-39.3h31.6c26.8 0 47.5 19.7 47.5 45.2 0 24.2-18.4 45.5-47.5 45.5h-31.6zm31.1 70.4c14.2 0 25.1-10 25.1-25.3 0-14.1-9.5-25.1-25.1-25.1h-8.9v50.4zm57.6 20.3h22.2v-90.7h-22.2zm-136-90.7h-16.5l-37.9 90.7h23.9l4.4-9.4h35.9l4.5 9.4h23.9zm-19.1 60.8 10.9-30.9 10.4 30.9zm4.5-69.3h14.9l10.4-16.7h-18.5zm-174.4 27.9h-23.2v-19.6h69.1v19.6h-23.5v70.9h-22.3v-70.9z"/><path d="m321.1 503.3h15.1l10.6-16.9h-18.8z"/><path d="m65.9 511.7h32.1c27.2 0 48.3 20 48.3 46 0 24.6-18.8 46.3-48.3 46.3h-32.1zm31.7 71.7c14.5 0 25.5-10.1 25.5-25.7 0-14.3-9.7-25.5-25.5-25.5h-9.1v51.2z"/><path d="m161.7 511.7h61.1v20h-38.4v16.6h35.5v19.7h-35.5v16.6h40.1v19.4h-62.8z"/><path d="m258.3 576.9c0 5.3 4.2 9.6 9.5 9.7 5.7 0 9.2-3.2 9.2-8 0-6.9-9.1-8.9-16.6-11.5-15.5-5.6-24.1-12.8-24.1-28.6 0-16.3 14-29.8 31.4-29.8 20.5 0 30.1 13.1 31.4 30.1h-21.2c0-5.2-3.2-9.5-9.5-9.5-4.9 0-9.7 2.9-9.7 8.9 0 6.9 8.5 8.2 16.3 10.4 16.5 4.9 24.2 14.2 24.2 28.6 0 16.3-13.8 29.8-31.2 29.8-20.1 0-31.5-13.5-31.5-30.1z"/><path d="m316.4 511.7h22.6v92.3h-22.6z"/><path d="m370.1 531.7h-20.6v-20h64.3v20h-20.9v72.3h-22.8z"/><path d="m424.2 511.7h22.6v41.2h.3l26.6-41.2h24.9l-31.6 43.8 33.4 48.5h-24.9l-28.3-44.8h-.3v44.8h-22.6v-92.3z"/><path d="m561.5 511.7h-16.8l-38.5 92.3h24.3l4.5-9.5h36.4l4.6 9.5h24.3zm-19.5 61.9 11.1-31.5 10.6 31.5z"/></g></svg>