<svg xmlns="http://www.w3.org/2000/svg" viewBox="0 0 1530.7 1530.7">
  <defs>
    <style>
      .a {
        fill: #00ab96;
      }

      .b {
        fill: #fff;
      }
    </style>
  </defs>
  <g>
    <rect class="a" width="1530.7" height="1530.71"/>
    <path class="b" d="M543.3,295.5H295.7V418.7H795.3c-36.1-84.2-131.2-123.2-252-123.2m235,316.1H295.7V488.9h515c.2,4.8.3,9.7.3,14.6-.4,45.7-11.4,80.9-32.7,108.1M295.7,681.8V804.3H745.6L670.3,681.8Zm0,192.7H788.8l75.9,123.4h-569Z" transform="translate(-84.8 -84.7)"/>
    <g>
      <path class="b" d="M365.1,1230.2c26.4,0,49.9,3.7,62.5,29.9,3.7,7.9,5.4,18,5.4,26.6,0,12.6-2.9,26-10.8,36.1-15.9,20.8-36.1,21.5-59.8,21.5h-25v60.3H297.9V1230.2Zm-27.7,82h24.7c15.4,0,31.7-4.2,31.7-25.2,0-24.2-21.8-25-36.1-25H337.4Z" transform="translate(-84.8 -84.7)"/>
      <path class="b" d="M556.5,1404.6H521.6l-.2-11.6c-14.1,9.8-22,15.3-40.3,15.3-24.7,0-44.5-15.3-44.5-41.3,0-36.3,35.4-39.5,63-43.5,6.4-.9,19.8-1.4,19.8-10.6s-11.9-11.8-19.5-11.8c-10.2,0-23,3.4-22.5,16H443.8c1.7-31.8,25.7-44.2,54.6-44.2,21.2,0,45.2,3.5,54.6,25.7,3.9,9.6,3.4,24.4,3.4,34.8Zm-36.1-61.3c-3.5,1.2-5.7,2.2-8.9,3-10.2,2.7-38.1,2.9-38.1,19.5,0,10.6,9.7,13.8,17.1,13.8,2.7,0,20.5-.2,29.9-16.5Z" transform="translate(-84.8 -84.7)"/>
      <path class="b" d="M612.9,1297.6c7-17.8,17.6-23.5,33.1-23.5a35.9,35.9,0,0,1,6.5.5v33.1a53.6,53.6,0,0,0-8.7-.7c-26.2,0-29.1,19.3-29.1,34.6v63H577.4v-128h35.5Z" transform="translate(-84.8 -84.7)"/>
      <path class="b" d="M744.4,1404.6v-12.4c-7.4,11.6-20.7,15.6-33.8,15.6-36.3,0-54.6-33.4-54.6-66,0-34.8,17.5-68.4,56.3-68.4,11.6,0,21.7,4.2,30.6,11.6v-54.8h36.8v174.4Zm-25.7-101.3c-19.5,0-25.7,20.7-25.7,36.8s5.2,37.5,26.2,37.5,25-19.5,25-36.3S740,1303.3,718.7,1303.3Z" transform="translate(-84.8 -84.7)"/>
      <path class="b" d="M879.7,1404.6v-14.1c-7.2,11.6-23.2,17.3-36.3,17.3-40.1,0-42.8-32.4-42.8-56.6v-74.6h36.3V1350c0,14.1,2.8,27.6,20,27.6s22-15,22-34.3v-66.7h35.3v128Z" transform="translate(-84.8 -84.7)"/>
      <path class="b" d="M971.8,1230.2V1286c8.9-9.1,21.2-12.8,33.8-12.8,37.8,0,54.1,31.6,54.1,65.2s-14.6,69.9-53.8,69.9c-14.9,0-25-6.2-34.9-16.8,0,4.4.8,13.1.8,13.1H935.7V1230.2Zm26.7,72.8c-21.3,0-27,19.1-27,36.8s4.5,38.1,26.2,38.1,25.4-23,25.4-39.5S1018,1303,998.5,1303Z" transform="translate(-84.8 -84.7)"/>
      <path class="b" d="M1112.6,1263h-36.1v-32.8h36.1Zm0,141.6h-36.1v-128h36.1Z" transform="translate(-84.8 -84.7)"/>
      <path class="b" d="M1251.2,1357.1c-6.7,35.4-29.2,51.2-60.5,51.2-40.8,0-63.3-27.9-63.3-67.2s24.2-68.2,65.5-68.2c26.9,0,55.3,16.3,57,48.2l-35,1.5c-2.3-12.6-9.9-19.8-22.8-19.8-20.7,0-26.9,18.8-26.9,36.6s5,38,26.2,38c13.3,0,23-8.7,24.5-22Z" transform="translate(-84.8 -84.7)"/>
      <path class="b" d="M1296.3,1351.2c2.2,15.8,10.9,27.4,27.7,27.4,11.3,0,18.5-3.9,23.9-13.6l36.6,2.5c-9.2,27.4-33.4,40.8-61.5,40.8-40.5,0-64.7-28.4-64.7-67.7s25.4-67.7,64.7-67.7c42.7,0,63,32.6,63,72.1v6.2Zm51.4-27.7c-1.3-12.8-10.6-21.9-23.7-21.9-15.6,0-23.5,7.4-27.4,21.9Z" transform="translate(-84.8 -84.7)"/>
    </g>
  </g>
</svg>
