<?xml version="1.0" encoding="utf-8"?>
<!-- Generator: Adobe Illustrator 25.2.0, SVG Export Plug-In . SVG Version: 6.00 Build 0)  -->
<svg version="1.1" id="Vrstva_1" xmlns="http://www.w3.org/2000/svg" xmlns:xlink="http://www.w3.org/1999/xlink" x="0px" y="0px"
	 viewBox="0 0 361 292" style="enable-background:new 0 0 361 292;" xml:space="preserve">
<style type="text/css">
	.st0{fill-rule:evenodd;clip-rule:evenodd;fill:#243062;}
	.st1{fill:#CB9D49;}
	.st2{fill:#243062;}
</style>
<path class="st0" d="M141.1,117.8c8.6-11.8,21.6-18.9,35.4-20.4v-32c-24.8,1.6-48.4,14.5-63,36.4L141.1,117.8z M176.4,197.7
	c-6.8-0.7-13.5-2.8-19.8-6.5c-6.3-3.6-11.5-8.4-15.5-13.9l-27.7,16c6.8,10.2,16,19,27.3,25.5c11.3,6.5,23.5,10.1,35.8,10.9V197.7z
	 M222.5,177.3c-8.6,11.8-21.6,18.9-35.4,20.4v32c24.8-1.6,48.4-14.5,63-36.4L222.5,177.3z M207,103.9c6.3,3.6,11.5,8.4,15.5,13.9
	l27.7-16c-6.8-10.2-16-19-27.3-25.5c-11.3-6.5-23.5-10.1-35.8-10.9v32C194,98.1,200.7,100.3,207,103.9z M91.2,126.7
	c1.6-7.1,4.1-14.1,7.6-20.9L68.6,88.4l5.4-9.3l30.1,17.4c16.6-25.3,43.8-40.1,72.4-41.8V20h10.7v34.7c14,0.8,28.1,4.8,41.1,12.3
	c13,7.5,23.5,17.7,31.2,29.5l30.1-17.4l5.4,9.3l-30.1,17.4c3.3,6.6,5.9,13.7,7.5,20.9h-11c-1.4-5.3-3.3-10.5-5.8-15.5l-26.8,15.5
	h-13.2c-0.7-1.2-1.5-2.3-2.4-3.4l0,0c-2.3-3-5.1-5.7-8.3-8l-0.2-0.1c-0.2-0.1-0.3-0.2-0.5-0.3c-3.3-2.3-7.1-4.1-11-5.3l-0.2-0.1
	c-0.2-0.1-0.4-0.1-0.5-0.2l-0.5-0.1l-0.3-0.1c-0.2-0.1-0.5-0.1-0.7-0.2l-0.1,0c-1.2-0.3-2.4-0.5-3.5-0.6v0c-1.8-0.2-3.5-0.4-5.4-0.4
	c-7.3,0-14.2,2-20,5.4l-0.4,0.2l-0.3,0.2c-4,2.5-7.7,5.7-10.7,9.6l0,0c-0.8,1.1-1.6,2.2-2.4,3.4h-13.2L108,111.2
	c-2.5,5-4.4,10.2-5.8,15.5H91.2z M68.6,206.7l30.1-17.4c-3.3-6.6-5.9-13.7-7.5-20.9h11c1.4,5.3,3.3,10.5,5.8,15.5l26.8-15.5h13.2
	c0.7,1.2,1.5,2.3,2.4,3.4l0,0c2.3,3,5.1,5.7,8.3,8l0.2,0.1c0.2,0.1,0.3,0.2,0.5,0.3c3.3,2.3,7.1,4.1,11,5.3l0.2,0.1
	c0.2,0.1,0.4,0.1,0.5,0.2l0.5,0.1l0.3,0.1c0.2,0.1,0.5,0.1,0.7,0.2l0.1,0c1.2,0.3,2.4,0.5,3.5,0.6v0c1.8,0.2,3.5,0.4,5.4,0.4
	c7.3,0,14.2-2,20-5.4l0.4-0.2l0.3-0.2c4-2.5,7.7-5.7,10.7-9.6l0,0c0.8-1.1,1.6-2.2,2.4-3.4h13.2l26.8,15.5c2.5-5,4.4-10.2,5.8-15.5
	h11.1c-1.6,7.1-4.1,14.1-7.6,20.9l30.1,17.4l-5.4,9.3l-30.1-17.4c-16.6,25.3-43.8,40.1-72.4,41.8l0,34.7l-10.7,0v-34.7
	c-14-0.8-28.1-4.8-41.1-12.3c-13-7.5-23.5-17.7-31.2-29.5L74,216L68.6,206.7z"/>
<path class="st1" d="M18.9,139.7c0.4-0.1,1.1-0.2,2.4-0.2c2.5,0,3.9,1.1,3.9,3.3c0,2.1-1.6,3.4-4.2,3.4h-2.1V139.7z M13.6,159.4h5.3
	v-9.3h1.6c2.2,0,3.2,0.8,3.8,3.8c0.7,2.9,1.3,4.8,1.6,5.5h5.5c-0.5-0.9-1.2-4-1.9-6.7c-0.6-2.2-1.5-3.7-3.2-4.4v-0.1
	c2-0.7,4.2-2.8,4.2-5.8c0-2.2-0.8-3.8-2.2-4.9c-1.7-1.3-4.1-1.9-7.6-1.9c-2.8,0-5.4,0.2-7.1,0.5V159.4z"/>
<rect x="34.4" y="135.8" class="st1" width="5.4" height="23.6"/>
<path class="st1" d="M56.1,159.4l7.9-23.6h-5.7l-3,10.1c-0.8,2.7-1.5,5.5-2.1,8.3h-0.1c-0.6-2.9-1.3-5.6-2.1-8.4l-2.9-10h-5.8
	l7.6,23.6H56.1z"/>
<polygon class="st1" points="80.6,145 72,145 72,140.1 81.2,140.1 81.2,135.8 66.6,135.8 66.6,159.4 81.6,159.4 81.6,155 72,155 
	72,149.4 80.6,149.4 "/>
<path class="st1" d="M90.6,139.7c0.4-0.1,1.1-0.2,2.4-0.2c2.5,0,3.9,1.1,3.9,3.3c0,2.1-1.6,3.4-4.2,3.4h-2.1V139.7z M85.3,159.4h5.3
	v-9.3h1.6c2.2,0,3.2,0.8,3.8,3.8c0.7,2.9,1.3,4.8,1.6,5.5h5.5c-0.5-0.9-1.2-4-1.9-6.7c-0.6-2.2-1.5-3.7-3.2-4.4v-0.1
	c2-0.7,4.2-2.8,4.2-5.8c0-2.2-0.8-3.8-2.2-4.9c-1.7-1.3-4.1-1.9-7.6-1.9c-2.8,0-5.4,0.2-7.1,0.5V159.4z"/>
<path class="st1" d="M229,139.8c0.4-0.1,1.1-0.2,2.2-0.2c2.7,0,4.2,1.3,4.2,3.5c0,2.4-1.8,3.9-4.6,3.9c-0.8,0-1.3,0-1.8-0.1V139.8z
	 M223.7,159.4h5.3v-8.4c0.5,0.1,1.1,0.1,1.8,0.1c3.2,0,5.8-0.8,7.7-2.5c1.4-1.3,2.2-3.3,2.2-5.6c0-2.3-1-4.3-2.5-5.5
	c-1.6-1.3-3.9-1.9-7.2-1.9c-3.3,0-5.6,0.2-7.2,0.5V159.4z"/>
<path class="st1" d="M249.3,139.7c0.4-0.1,1.1-0.2,2.4-0.2c2.5,0,3.9,1.1,3.9,3.3c0,2.1-1.6,3.4-4.2,3.4h-2.1V139.7z M244,159.4h5.3
	v-9.3h1.6c2.2,0,3.2,0.8,3.8,3.8c0.7,2.9,1.3,4.8,1.6,5.5h5.5c-0.5-0.9-1.2-4-1.9-6.7c-0.6-2.2-1.5-3.7-3.2-4.4v-0.1
	c2-0.7,4.2-2.8,4.2-5.8c0-2.2-0.8-3.8-2.2-4.9c-1.7-1.3-4.1-1.9-7.6-1.9c-2.8,0-5.4,0.2-7.1,0.5V159.4z"/>
<path class="st1" d="M271.4,149.3l1.4-5c0.4-1.4,0.7-3.2,1.1-4.6h0.1c0.4,1.4,0.8,3.2,1.2,4.6l1.5,5H271.4z M277.4,153.3l1.8,6.1
	h5.7l-7.3-23.6h-7l-7.2,23.6h5.5l1.7-6.1H277.4z"/>
<path class="st1" d="M306.9,145.8h-8.8v4.2h3.6v4.9c-0.4,0.2-1.4,0.3-2.6,0.3c-4.4,0-7.4-2.9-7.4-7.7c0-5.1,3.4-7.6,7.8-7.6
	c2.6,0,4.2,0.5,5.5,1l1.1-4.3c-1.2-0.6-3.5-1.2-6.5-1.2c-7.7,0-13.4,4.5-13.5,12.3c0,3.5,1.2,6.5,3.3,8.6c2.2,2.1,5.3,3.2,9.6,3.2
	c3.1,0,6.2-0.8,7.9-1.3V145.8z"/>
<path class="st1" d="M311,135.8v13.2c0,7.5,3.5,10.8,9.5,10.8c6.2,0,9.8-3.5,9.8-10.7v-13.2H325v13.6c0,4.2-1.5,6.1-4.3,6.1
	c-2.7,0-4.3-2.1-4.3-6.1v-13.6H311z"/>
<polygon class="st1" points="349,145 340.3,145 340.3,140.1 349.5,140.1 349.5,135.8 334.9,135.8 334.9,159.4 350,159.4 350,155 
	340.3,155 340.3,149.4 349,149.4 "/>
<path class="st2" d="M118.4,148.9h1.8c2.7,0,4.8,0.9,4.8,3.3c0,2.5-2.1,3.4-4.6,3.4c-0.9,0-1.5,0-2.1-0.1V148.9z M118.4,139.6
	c0.5-0.1,1.1-0.1,2.3-0.1c2.4,0,3.8,0.9,3.8,2.7c0,1.8-1.5,2.9-4.3,2.9h-1.8V139.6z M113.1,159.3c1.2,0.2,3.2,0.3,5.8,0.3
	c4.7,0,7.6-0.8,9.3-2.1c1.5-1.2,2.5-2.9,2.5-5c0-3-2-5.1-4.7-5.8v-0.1c2.7-1,3.9-2.9,3.9-5c0-2.1-1.2-3.7-2.8-4.6
	c-1.7-1-3.7-1.3-7-1.3c-2.7,0-5.5,0.2-6.9,0.5V159.3z"/>
<path class="st2" d="M144.5,139.6c3.7,0,5.7,3.6,5.7,7.9c0,4.6-2.1,8-5.7,8c-3.6,0-5.7-3.3-5.7-7.9
	C138.8,143,140.9,139.6,144.5,139.6 M144.7,135.4c-7,0-11.5,5.3-11.5,12.4c0,6.7,4.1,12,11.1,12c6.9,0,11.6-4.7,11.6-12.4
	C155.9,140.8,151.9,135.4,144.7,135.4z"/>
<path class="st2" d="M165.1,149.3l1.4-5c0.4-1.4,0.7-3.2,1.1-4.6h0.1c0.4,1.4,0.8,3.2,1.2,4.6l1.5,5H165.1z M171.1,153.3l1.8,6.1
	h5.7l-7.3-23.6h-7l-7.2,23.6h5.5l1.7-6.1H171.1z"/>
<polygon class="st2" points="183.4,159.4 188.8,159.4 188.8,140.2 195.2,140.2 195.2,135.8 177.1,135.8 177.1,140.2 183.4,140.2 "/>
<path class="st2" d="M196.8,158.3c1.3,0.7,4,1.4,6.7,1.4c6.5,0,9.5-3.4,9.5-7.3c0-3.3-2-5.5-6.1-7c-3-1.2-4.4-1.8-4.4-3.3
	c0-1.2,1.1-2.3,3.4-2.3c2.3,0,4,0.7,4.9,1.1l1.2-4.3c-1.4-0.6-3.4-1.2-6-1.2c-5.6,0-8.9,3.1-8.9,7.1c0,3.4,2.6,5.6,6.5,7
	c2.8,1,4,1.9,4,3.3c0,1.5-1.3,2.6-3.7,2.6c-2.3,0-4.5-0.7-5.9-1.5L196.8,158.3z"/>
</svg>
