<svg enable-background="new 0 0 500 500" viewBox="0 0 500 500" xmlns="http://www.w3.org/2000/svg"><path d="m473 264.1-48.5-33.8-2-1.7 21.4-46.2c2.5-5.5.9-12.1-4-15.7-4.9-3.7-11.6-3.5-16.3.5l-40.6 34.4-16.3-11.2c-4.2-2.9-9.7-3.1-14.1-.5s-6.8 7.6-6.2 12.6l.3 2.7c-1.3.1-3 0-4.2-.1-1.3-.1-2.5-.1-3.9-.1-2.4 0-5 .1-7 .1-.4 0-.8-.1-1.3-.1h-22.4c-2.3 0-4.4.5-6.4 1.4-2-.9-4.1-1.4-6.3-1.4h-20c-1.5 0-3 .3-4.5.7-4.4-1.1-9-1.6-13.6-1.6-11.4 0-22 4.1-30.2 11.6-8.5-7.5-19.9-11.6-32.1-11.6-11.1 0-21.6 3.5-29.8 9.8-.6-.5-1.3-1.1-2-1.5-6.7-4.9-15.4-7.4-25.6-7.4h-24.8c-4.1 0-8.1 1.7-11 4.5-2.7 2.7-4.3 6.3-4.5 10.1h-27.7c-2 0-3.8.6-5.4 1.6-3.7-1.4-7.8-2.1-12-2.1-17.4 0-30.5 12.4-30.5 28.9s13.1 28.9 30.5 28.9c3.9 0 7.7-.6 11.2-1.7 1.4.7 3 1.2 4.7 1.2h29.1v.4c0 4.1 1.7 8.1 4.6 10.9 2.9 2.9 6.9 4.5 11 4.5h13.2v26c0 7.2 5.8 12.9 13 12.9h22.2c.6 0 1.2-.1 1.8-.2.7.1 1.4.2 2.1.2h37.8c2.2 0 4.3-.6 6.1-1.5 1.8 1 3.9 1.5 6.1 1.5h45.2c.8 0 1.6-.1 2.4-.2 4.3-.4 8.3-1.4 12-2.9 2.3 1.9 5.2 3.1 8.4 3.1h22.6c3.2 0 6.1-1.2 8.4-3.1 5.7 2.5 12.1 3.9 18.8 3.9h1.2c.5 0 1.1.1 1.6.1 1.9 0 19.3-.5 30.5-4.3 15.3-5.1 20.3-19.7 21.1-22l12.8-27.8 63.9 9.6c6 .9 11.8-2.4 14-8 2-5.5.1-11.9-4.8-15.4z" fill="#202020"/><path d="m101.6 287.8c-.1-.1-.1-.1-.1-.1.1 0 .1.1.1.1z" fill="#202020"/><path d="m330.4 273.5s-16.5-24.4-18.4-27.2c1.8-2.8 16.5-25.7 16.5-25.7.3-.5.5-1 .5-1.5s-.1-.9-.3-1.4c-.5-.9-1.4-1.5-2.5-1.5h-22.3c-1 0-2 .6-2.5 1.5 0 0-4.7 8.5-7.6 13.8.1-6.2.2-12.5.2-12.5 0-.7-.3-1.5-.8-2s-1.3-.8-2-.8h-19.9c-1.1 0-2 .6-2.5 1.5-4.6-1.6-9.6-2.4-14.4-2.4-13.8 0-25.4 8.4-30 20.4-4.6-12.3-16.6-20.4-31.9-20.4-13.6 0-24.7 6.5-30.1 16.6-2.7-10-11.7-15.7-25.4-15.7h-24.6c-1.6 0-2.8 1.3-2.8 2.8v55.9c0 1.6 1.3 2.8 2.8 2.8h52.8c1.1 0 2-.6 2.5-1.5.2-.4.3-.9.3-1.3 0-.5-.2-1.1-.5-1.6l-5.3-7.9s1.4-.9 2.2.2c6 8 15.9 13 28.1 13 15.4 0 27.2-7.7 31.8-19.8 4.5 11.7 15.7 19.8 29.2 19.8 3.3 0 11.2-.6 15.3-2.3.5.9 1.4 1.4 2.5 1.4l8.5 6.2 11.4-6.2c.8 0 1.5-.3 2-.8s.8-1.2.8-2c0 0-.1-3.6-.2-9.8 2.2-.4 8 11.2 8 11.2.5.9 2.9 5.1 3.9 5.1l22.2-3.6c1 0 2-.6 2.5-1.5.2-.4.3-.9.3-1.3.2-.5.1-1-.3-1.5" fill="#fff"/><path d="m396.9 236.4 27-49-42.1 37.6-18.6-14 3.5 26.3-19.4 15.8 21.7 2.4 4.3 33.4 14.2-31.4 56.6 8.6zm-6 27.7-20 43.4-5.6-47.2-27.1-4.2 24.2-20.4-4.1-34.3 24.5 16.9 48.1-40.9-26 56.2 59.5 41.4z" fill="#d8b130"/><path d="m331.4 297.5c-3.7 0-6.1-2.5-6.1-6.3 0-3.2 1.9-6.5 6.1-6.5s6.1 3.2 6.1 6.5c0 3.9-2.4 6.3-6.1 6.3m-77.3-.1v-12.6c4 .4 5.6 2.4 5.6 6.6 0 3.6-1.9 5.6-5.6 6m37.2-45.8c.4 2.3 2.2 4.4 3.4 6.5l3.5 6.1h-7.1l-.2-12.6zm-110 52.4-4.3-6.4c-.2-.2-.3-.4-.5-.6 5.1-2.7 7.3-6.8 7.3-13.4 0-3.5-.7-6.6-2.1-9.2 2.9.9 6.1 1.4 9.4 1.6zm-48.8-60.1v-9.5h1.6c3.5 0 6.5.5 6.5 4.8s-3.4 4.7-6.7 4.7zm60.1-7.3c6.5 0 10.5 5 10.5 10.9 0 6.4-4.3 10.8-10.5 10.8s-10.5-4.4-10.5-10.8c.1-5.9 4.1-10.9 10.5-10.9m138.8 26.9c-3.6 0-7 .5-10.1 1.5l-12.6-18.7 17.6-27.2h-22.3l-9.8 17.9c-1.1 2-2.4 4-2.8 6.3h-.4l.4-24.2h-19.9v49.9c-1-.6-2-1.1-3.1-1.6l.4-14.7c-3.3 3.2-7 5.2-11.7 5.2-6.1 0-11.4-4.7-11.4-10.9s5-10.9 11.1-10.9c4.6 0 8.7 2.6 12 5.6l-.6-21.3c-4.3-1.5-9.1-2.3-13.7-2.3-16.5 0-29.3 13.1-29.3 29.4 0 6.7 2.2 12.8 5.9 17.6v34.8l-12.8-35.7c3.4-4.5 5.3-10.2 5.3-17 0-17.6-14-29-31-29s-31 11.4-31 29c0 7 2.1 13 5.8 17.6-1.9-.4-4-.6-6.3-.6h-3.1l-5-7.4c-1.1-1.6-2.4-2.5-3.4-3.3v-.4c7.6-2.5 10.9-6.1 10.9-14.5 0-14.1-10.7-19.4-23.4-19.4h-24.6v55.8h19.9v-18h.4l4.5 9.1v48.4c0 1.6 1.3 2.8 2.8 2.8h17c1.6 0 2.8-1.3 2.8-2.8v-3.9c1.1 2.3 2.5 5.1 2.5 5.1.5 1 1.5 1.6 2.5 1.6h33.9c1.3 0 2.5-.9 2.8-2.2 0 0 .5-2 .9-3.8h8.7c.5 1.8 1 3.8 1 3.8.3 1.2 1.5 2.1 2.7 2.1h18.3.3.3 22c11.4 0 20.3-5.5 24.4-14.4v11.5c0 1.6 1.3 2.8 2.8 2.8h18.7c1.6 0 2.8-1.3 2.8-2.8v-11.9c4.4 9.5 14.2 15.5 26.8 15.5 17.2 0 29.2-11.2 29.2-27.2.1-15.8-12.2-27.2-29.1-27.2" fill="#be3a27"/><g fill="#fff"><path d="m203.4 297.4 3.2-14.5h.6c.3 2 .6 4.1 1.1 6.1l2 8.4zm-45.1-9.3h-1.2v-8.1h1.3c3 0 5.6.4 5.6 4.1s-2.8 4-5.7 4m38.9-21.1-15.1 43.2-7.5-11.1c-.9-1.4-2-2.1-2.9-2.8v-.4c6.5-2.1 9.2-5.2 9.2-12.4 0-12-9.1-16.5-19.9-16.5h-20.9v47.6h17v-15.3h.3l7.6 15.3h33.9l1.4-5.9h13.1l1.6 5.9h18.3l-17-47.6z"/><path d="m252.4 300.4h-1.1v-18.4h1.1c6.3 0 10.2 2.8 10.2 9.5 0 6.2-4.5 8.9-10.2 8.9m-.8-33.3h-17.7v47.6h22c14 0 24-9 24-23.1 0-17.5-12.3-24.5-28.3-24.5"/><path d="m283.1 267.1h18.7v47.6h-18.7z"/><path d="m331.4 300.4c-5.3 0-8.9-3.7-8.9-9.1 0-5 3.4-9.3 8.9-9.3s8.9 4.2 8.9 9.3c0 5.3-3.7 9.1-8.9 9.1m0-34.1c-14.5 0-26.4 9.7-26.4 24.7 0 14.9 11.8 24.4 26.4 24.4s26.4-9.1 26.4-24.4-11.9-24.7-26.4-24.7"/></g><path d="m61.1 264.4c-3.2 1.5-7 2.1-10.4 2.1-12 0-20.1-8-20.1-18.4s8.4-18.5 20.1-18.5c3.6 0 7 .7 9.9 2v10c-2.6-1.6-6.2-3-9.7-3-6 0-10.1 3.9-10.1 9.4s3.8 9.5 10.3 9.5c3.5 0 7-1.2 10-3.1z" fill="#be3a27"/><path d="m50.7 267.6c-12.3 0-21.2-8.2-21.2-19.5s8.9-19.6 21.2-19.6c3.6 0 7.3.8 10.4 2.1.4.2.7.6.7 1v10c0 .4-.2.8-.6 1-.3.2-.8.2-1.1 0-2.9-1.8-6.2-2.8-9.1-2.8-5.4 0-9 3.3-9 8.3 0 4.9 3.7 8.4 9.2 8.4 3.1 0 6.3-1 9.4-2.9.3-.2.8-.2 1.1 0s.6.6.6 1v10.1c0 .4-.2.8-.6 1-3.2 1.1-7.1 1.9-11 1.9zm0-36.9c-11 0-19 7.3-19 17.4s8 17.3 19 17.3c3.4 0 6.6-.6 9.3-1.7v-7.4c-2.9 1.5-6 2.3-8.9 2.3-6.7 0-11.4-4.3-11.4-10.6s4.6-10.5 11.2-10.5c2.8 0 5.8.8 8.6 2.2v-7.4c-2.6-1.1-5.7-1.6-8.8-1.6z" fill="#fff"/><path d="m66.5 265.9 14.7-27.1v-.1h-13.2v-8.6h29.5v.1l-14.8 27v.1h14.4v8.6z" fill="#be3a27"/><path d="m97.1 267h-30.6c-.4 0-.8-.2-1-.6v-.1c-.2-.3-.2-.7 0-1l13.9-25.5h-11.4c-.6 0-1.1-.5-1.1-1.1v-8.6c0-.6.5-1.1 1.1-1.1h29.5c.4 0 .8.2 1 .6.2.3.2.8 0 1.1l-13.9 25.5h12.6c.6 0 1.1.5 1.1 1.1v8.6c-.1.7-.5 1.1-1.2 1.1zm-28.8-2.1h27.7v-6.4h-13.2c-.4 0-.8-.2-1-.6-.2-.3-.2-.8 0-1.1l13.9-25.5h-26.6v6.4h12.1c.4 0 .8.2 1 .6.2.3.2.8 0 1.1z" fill="#fff"/></svg>