<svg enable-background="new 0 0 841.9 841.9" viewBox="0 0 841.9 841.9" xmlns="http://www.w3.org/2000/svg" xmlns:xlink="http://www.w3.org/1999/xlink"><linearGradient id="a" gradientTransform="matrix(1 0 0 -1 0 671)" gradientUnits="userSpaceOnUse" x1="922.993" x2="-81.093" y1="520.421" y2="-20.321"><stop offset="0" stop-color="#c30c2b"/><stop offset=".4236" stop-color="#c30c2b"/><stop offset="1" stop-color="#432c79"/></linearGradient><path d="m0 0h841.9v841.9h-841.9z" fill="url(#a)"/><path d="m703.2 439.4h-100v-102.2c0-.1 0-.3 0-.4 1.4-26.3 23.8-46.4 50-45.1 26.3 1.4 46.4 23.8 45.1 50 0 .9-.1 1.8-.2 2.7 26.1-3 49.8 15.7 52.8 41.8s-15.7 49.8-41.8 52.8c-1.5.2-3.1.3-4.6.3h-1.3zm-81.6-18.4h82.7c16.1-.3 29-13.6 28.7-29.8-.3-16.1-13.6-29-29.8-28.7-5.2.1-10.3 1.6-14.8 4.3-4.3 2.7-10 1.4-12.7-3-1.8-3-1.8-6.7 0-9.7 4.5-7.4 5.5-16.3 2.7-24.5-5-15.3-21.5-23.6-36.8-18.6-8.8 2.9-15.7 9.8-18.6 18.6-.8 2.5-1.3 5-1.5 7.7zm112.8 43.3c10.3-4.2 19.6-10.7 27.1-18.9 7.7-8.4 13.6-18.4 17-29.2 1.3-3.8-.8-7.8-4.6-9.1s-7.8.8-9.1 4.6c0 .1 0 .1-.1.2-2.8 8.9-7.5 17-13.8 23.8-6.1 6.7-13.7 11.9-22.1 15.3-3.7 1.5-5.4 5.7-3.9 9.4 1.6 3.6 5.8 5.4 9.5 3.9zm-144.2-146.7c3.4-9.9 9.2-18.9 16.9-25.9 6.6-6 14.3-10.6 22.8-13.4 3.8-1.2 5.9-5.2 4.7-9s-5.2-5.9-9-4.7c-.1 0-.2.1-.3.1-10.4 3.5-19.9 9.1-28 16.5-9.5 8.7-16.6 19.7-20.8 31.9-1.3 3.8.7 7.8 4.5 9.1.7.3 1.5.4 2.3.4 3.2-.1 5.9-2.1 6.9-5zm-32.9-.7c.7-3 1.5-6 2.5-8.9 5-15.2 13.9-28.9 25.7-39.7 12.3-11.3 27.3-19.2 43.6-22.8 3.9-.7 6.5-4.5 5.7-8.4-.7-3.9-4.5-6.5-8.4-5.7-.2 0-.3.1-.5.1-18.8 4.2-36.1 13.2-50.2 26.2-13.6 12.5-23.8 28.2-29.6 45.7-1.1 3.4-2.1 6.8-2.9 10.3-.9 3.9 1.5 7.7 5.4 8.6s7.8-1.5 8.7-5.4zm170.1 182.8c3.9-.8 7.7-1.9 11.5-3.1 17.6-5.7 33.4-15.9 46-29.5 13.4-14.5 22.6-32.3 26.7-51.6 1-3.9-1.4-7.8-5.2-8.7-3.9-1-7.8 1.4-8.7 5.2 0 .2-.1.4-.1.5-3.6 16.7-11.6 32.2-23.2 44.8-10.9 11.8-24.7 20.6-40 25.6-3.3 1.1-6.6 2-10 2.7-3.9.8-6.4 4.6-5.5 8.5.7 3.9 4.5 6.4 8.5 5.6zm-641.8-33.7c13-.3 25.6 5 34.3 14.7l-13.5 12.8c-5.5-5.6-13-8.9-20.9-9-14.3 0-23.5 10.7-23.5 24.2s9.2 24.2 23.5 24.2c7.9-.1 15.4-3.3 20.9-9l13.1 12.8c-8.7 9.5-21.1 14.8-34 14.7-25.4 0-43.4-18.8-43.4-42.8 0-23.8 18.1-42.6 43.5-42.6zm43.8 2.7h19.6v80.2h-19.6zm46.7 17.4h-17.9v-17.4h55.8v17.3h-18.2v62.8h-19.8v-62.7zm71.3 24-28.4-41.4h22.2l16 24.1 16.2-24.1h22.1l-28.5 41.4v38.8h-19.6zm69 13.6h20.2v2c0 4.4 3.5 7.6 8.1 7.6s8.4-3.7 8.5-8.3v-8.5c-3.9 1.5-8 2.3-12.2 2.3-15.2 0-24.7-11.9-24.7-25.9 0-14.7 12.7-26.9 28.4-26.9s28.2 12.2 28.2 26.9v32.1c0 14.6-12.7 26.6-28.2 26.6s-28.4-11.5-28.4-25.9zm37.4-30.5c0-4.8-4.5-8.7-9.1-8.7-4.9 0-8.9 3.8-9.1 8.7 0 4.4 4.4 8.4 9.1 8.4s9.1-4 9.1-8.4zm27.5 28.7h18.9v2.2c0 5.9 4.9 9.9 10.6 9.9 6.2 0 10.8-4.1 10.8-9.9 0-6.2-4.9-8.7-10.8-8.7h-4.5v-18.2h4.3c4-.1 7.2-3.4 7.1-7.4-.1-3.3-2.8-5.8-6-5.8h-.1c-3-.1-5.6 2.4-5.6 5.4v.3 1.9h-19.6v-1.9c0-12.7 11.6-23.7 25.3-23.7 16.2 0 25.9 11.1 25.9 22.6-.3 6.1-3 11.8-7.6 15.9 7.7 5.6 11 12.8 11 20.3 0 13.5-11.6 26.7-29.9 26.7-16.4 0-29.5-12.2-29.5-27.5v-2.1zm66.3 12.3h17l-13.2 30.1h-7.7zm59.9-47.8h-34.3v-17.7h64.2v2.7l-42.1 77.5h-21.4zm30.3-132.9c25.3 0 43.3 18.9 43.3 42.9 0 23.9-17.9 42.9-43.3 42.9s-43.3-18.9-43.3-42.9 17.9-42.9 43.3-42.9m0 67.1c14.2 0 23.3-10.7 23.3-24.2s-9.1-24.3-23.3-24.3-23.3 10.7-23.3 24.3c0 13.5 9 24.1 23.3 24.2m-495.7 16.5h19.7v-31.8h31.5v31.8h19.6v-80.4h-19.6v31.6h-31.5v-31.6h-19.7zm84.6 0h19.7v-80.4h-19.7zm101.1-80.2h33.6c17.3 0 28.5 10.4 28.5 25.6 0 14.1-7.1 22-19 24.9l21.6 29.9h-24.5l-20.5-30v30h-19.7zm35.5 34.9c4.4 0 7.4-4.5 7.4-9.2s-3.5-8.8-7.9-8.8h-15.3v18.1h15.8zm124-34.9h28c23.7 0 42.1 17.4 42.1 40.1 0 21.4-16.3 40.3-42.1 40.3h-28zm27.6 62.5c12.6 0 22.2-8.8 22.2-22.4 0-12.5-8.4-22.2-22.2-22.2h-7.9v44.6zm51 17.9h19.7v-80.4h-19.7zm-120.4-80.4h-14.6l-33.6 80.4h21.2l3.9-8.3h31.8l4.1 8.3h21.2zm-17 54 9.6-27.4 9.2 27.4zm4-61.4h13.2l9.2-14.9h-16.4zm-154.5 24.6h-20.6v-17.4h61.2v17.4h-20.9v62.9h-19.7zm381.8 94.3h51.9v17.4h-32.2v17.2h29.6v17.2h-29.6v28.7h-19.7zm65.9 1.3h18.1l20.2 44.4 20.4-44.4h17.8v79.3h-19.2v-33.7l-12.6 33.7h-12.6l-12.5-34v34h-19.5v-79.3z" fill="#fff"/></svg>