<?xml version="1.0" encoding="utf-8"?>
<!-- Generator: Adobe Illustrator 25.2.0, SVG Export Plug-In . SVG Version: 6.00 Build 0)  -->
<svg version="1.1" id="Layer_1" xmlns="http://www.w3.org/2000/svg" xmlns:xlink="http://www.w3.org/1999/xlink" x="0px" y="0px"
	 viewBox="0 0 200 200" style="enable-background:new 0 0 200 200;" xml:space="preserve">
<style type="text/css">
	.st0{fill:url(#SVGID_1_);}
	.st1{fill:url(#SVGID_2_);}
	.st2{fill:url(#SVGID_3_);}
	.st3{fill:url(#SVGID_4_);}
	.st4{fill:url(#SVGID_5_);}
	.st5{fill:url(#SVGID_6_);}
</style>
<linearGradient id="SVGID_1_" gradientUnits="userSpaceOnUse" x1="80.3386" y1="47.09" x2="80.3386" y2="115.69" gradientTransform="matrix(1 0 0 -1 -34.58 183.22)">
	<stop  offset="0" style="stop-color:#EC195A"/>
	<stop  offset="1" style="stop-color:#F47F20"/>
</linearGradient>
<path class="st0" d="M77.1,99.5v-0.1c0-0.2,0-0.3,0-0.5l0,0l0,0c0-0.2,0-0.3,0-0.5v-0.1v-0.5v-0.1c0-0.2,0-0.3,0-0.5V97l0,0
	c0-0.1,0-0.3,0-0.4v-0.1L77,95.9v-0.1l0,0l-0.3-0.5v-0.1c0-0.2,0-0.3-0.1-0.5v-0.2c0-0.1,0-0.3-0.1-0.4v-0.1c0-0.2-0.1-0.3-0.1-0.5
	v-0.1l-0.1-0.4l0,0V93c0-0.2-0.1-0.3-0.1-0.5v-0.1l0,0c0-0.1-0.1-0.3-0.1-0.4l0,0V92c0-0.2-0.1-0.3-0.1-0.5v-0.1L76,91
	c0,0,0-0.1,0-0.1c-0.1-0.2-0.1-0.3-0.2-0.5v-0.1l-0.1-0.4c0,0,0-0.1,0-0.1c0,0-0.1-0.3-0.2-0.4v-0.1c0-0.1-0.1-0.3-0.2-0.4v-0.2
	c-0.1-0.1-0.1-0.3-0.2-0.4l0,0l0,0c-0.1-0.1-0.1-0.3-0.2-0.4c0,0,0-0.1-0.1-0.1l-0.2-0.4l0,0v-0.1c-0.1-0.1-0.1-0.3-0.2-0.4
	c-0.1-0.2,0-0.1,0-0.1l0,0c0-0.1-0.1-0.2-0.2-0.3l0,0v-0.1c-0.1-0.1-0.1-0.3-0.2-0.4l-0.6-0.3l0,0l-0.2-0.3l0,0v-0.1l-0.2-0.4v-0.1
	l0,0L73,84.4l0,0L73,84.3l-0.2-0.4v-0.1l0,0l-0.2-0.3l0,0l-0.1-0.1c-0.1-0.1-0.2-0.3-0.2-0.4v-0.1l0,0L72,82.6l0,0
	c0,0-0.1-0.1-0.1-0.1l-0.3-0.4v-0.1l0,0l-0.2-0.3c0,0-0.1-0.1-0.1-0.1l-0.3-0.4v-0.1l0,0l-0.2-0.3l-0.1-0.1l-0.3-0.3l-0.1-0.1
	l-0.3-0.3c0,0-0.1-0.1-0.1-0.1c-0.1-0.1-0.2-0.2-0.2-0.3l0,0v-0.1l-0.3-0.3l-0.7-0.5l-0.2-0.3l0,0v-0.1l-0.3-0.3l-0.1-0.1l0,0
	l-0.3-0.3l0,0h-0.1l-0.3-0.3l-0.1-0.1l0,0L67,77l0,0l-0.1-0.1l-0.3-0.3l-0.1-0.1l0,0l-0.3-0.2l0,0l-0.1-0.1l-0.3-0.3l-0.1-0.1l0,0
	l-0.3-0.2l0,0l-0.1-0.1l-0.6-0.5v0l0,0l-0.3-0.2l0,0l-0.1-0.1L64,74.4l0,0l0,0l-0.3-0.2l-0.1-0.1l-0.4-0.3l0,0l-0.4-0.2l-0.1-0.1
	l-0.4-0.2l0,0l-0.4-0.2L61.7,73l-0.6-0.4l0,0l-0.4-0.2h-0.1l0,0l-0.4-0.2l0,0l0,0l-0.4-0.2h-0.1l0,0l-0.6-0.3l0,0l0,0l-0.4-0.2h-0.1
	c-2-0.9-4-1.5-6.1-2c-2.2-0.5-4.4-0.8-6.7-0.8c-6.3,0-12.4,1.9-17.5,5.4c-1.7,1.1-3.2,2.4-4.6,3.8c-1.4,1.4-2.7,3-3.8,4.6
	c-1.1,1.7-2.1,3.5-2.9,5.3c-4.2,10-3,21.4,3.3,30.3c3.6,5.2,8.7,9.1,14.6,11.3l0,0l0,0l0,0l0.6,0.2l0,0l0,0l0.6,0.2l0,0l0.6,0.2h0.1
	l0.6,0.2l0,0h0.1l0.6,0.1h0.1l0,0l0.6,0.1l0.3,0.2l0.6,0.1l0,0l0.6,0.1h0.1l0.6,0.1h0.1l0.6,0.1h0.1c0.2,0,0.4,0.1,0.6,0.1l0,0
	l0.6,0.1h0.1h0.6h0.1h0.6h0.1h0.6h0.9c6.3,0,12.4-1.9,17.6-5.4c5-3.4,9-8.2,11.4-13.8c1.6-3.9,2.5-8,2.5-12.2
	C77.1,99.8,77.1,99.7,77.1,99.5z M47.1,73.5h0.3h0.4H48h0.1h0.4h0.2h0.1l0.4,0h0.3l0,0l0.4,0.1l0.3,0.1l0.4,0.1l0.3,0.1l0.3,0.1
	l0.3,0.1l0.3,0.1l0.3,0.1l0.3,0.1l0.3,0.1l0.3,0.1l0,0l0.2,0.1l0.3,0.1h0.1l0.2,0.1l0.3,0.1l0.1,0l0.2,0.1L55,75l0,0H55l0.2,0.1
	l0.5,0.2h0.1h0.1l0.6,0.3c13.5,5.6,19.9,21.1,14.3,34.5c-5.6,13.5-21.1,19.9-34.5,14.3H36H36l-0.4-0.2l-0.2-0.1l-0.4-0.2l0,0h-0.1
	l-0.5-0.2l0,0l-0.5-0.2h-0.1l0,0l-0.4-0.2l0,0l-0.1-0.1l-0.6-0.5l0,0l0,0l-0.5-0.3l0,0h0l-0.4-0.2l-0.1-0.1
	c-0.1-0.1-0.3-0.2-0.4-0.2l0,0h-0.1c-0.3-0.2-0.6-0.4-1-0.7l-0.1-0.1l0,0c-0.1-0.1-0.2-0.2-0.4-0.3l0,0l-0.1-0.1
	c-0.1-0.1-0.3-0.2-0.4-0.3l0,0l0,0l-0.5-0.4l0,0l0,0l-0.4-0.3l-0.1-0.1l0,0l-0.3-0.3l0,0l-0.1-0.1c-0.3-0.3-0.6-0.6-0.8-0.8v-0.1
	l0,0l-0.3-0.3l0,0l-0.1-0.1l-0.3-0.4l0,0l0,0L26,117l0,0l0,0l-0.3-0.4l-0.1-0.1l0,0l-0.8-0.8l0,0l-0.1-0.1l-0.7-1v-0.1l0,0l-0.3-0.4
	c0,0,0-0.1-0.1-0.1l-0.2-0.4l0,0l0,0l-0.3-0.5l0,0l0,0l-0.3-0.5l-0.1-0.1l0,0l-0.2-0.4l0,0v-0.1l-0.2-0.5l0,0
	c-0.1-0.2-0.2-0.3-0.3-0.5l-0.3-0.3v-0.1l-0.2-0.4c0-0.1-0.1-0.1-0.1-0.2c-0.1-0.1-0.1-0.3-0.2-0.4v-0.1v-0.1l-0.2-0.6l0,0l0,0
	l-0.2-0.5c0,0,0-0.1,0-0.1l0,0c0-0.1-0.1-0.3-0.1-0.4l0,0c0,0,0-0.1,0-0.1s-0.1-0.3-0.1-0.5l0,0l0,0c0-0.2-0.1-0.4-0.2-0.6v-0.3
	v-0.1c0-0.2-0.1-0.3-0.1-0.4s0-0.1,0-0.2l-0.1-0.4v-0.1c0,0,0-0.1,0-0.1c0-0.2-0.1-0.4-0.1-0.6l0,0l0,0c0-0.2-0.1-0.4-0.1-0.6
	s0-0.1,0-0.1v-0.1l-0.1-0.4l0,0c0-0.1,0-0.1,0-0.2s0-0.3,0-0.5v-0.1c0-0.2,0-0.4,0-0.6v-0.1c0-0.2,0-0.3,0-0.5c0-0.1,0-0.1,0-0.2
	c0-0.1,0-0.3,0-0.4v-0.2c0-0.2,0-0.4,0-0.6c0-14.4,11.5-26.1,25.8-26.3h1L47.1,73.5z"/>
<linearGradient id="SVGID_2_" gradientUnits="userSpaceOnUse" x1="64.6586" y1="47.09" x2="64.6586" y2="115.69" gradientTransform="matrix(1 0 0 -1 -34.58 183.22)">
	<stop  offset="0" style="stop-color:#EC195A"/>
	<stop  offset="1" style="stop-color:#F47F20"/>
</linearGradient>
<path class="st1" d="M32.9,93L32.9,93c0-0.1,0-0.2,0-0.2l0,0l0,0l0,0l-0.1-0.2l0,0c0-0.1,0-0.1-0.1-0.2l0,0l0,0l-0.1-0.2l0,0l0,0
	c0-0.1-0.1-0.1-0.1-0.2l0,0c-0.1-0.1-0.2-0.3-0.3-0.4l0,0L32,91.3l0,0c-0.5-0.5-1.2-0.7-1.9-0.7h0c-1.6,0-2.8,1.3-2.8,2.8v11.7
	c0,1.5,1.2,2.8,2.7,2.8h0.6h0.1h0.1h0.1h0.1H31H31l0,0h0.1h0l0,0h0.1h0.1h0.1h0.1h0.1h0.1h0.1h0.1l0,0h0.1l0,0h0h0.1l0,0l0,0l0,0h0
	v-0.1l0,0v-0.1h0v-0.1v-0.1l0,0c0,0,0,0,0-0.1l0,0v-0.1l0,0v-0.1l0,0l0,0v0v-0.1l0,0l0,0c0,0,0,0,0-0.1l0,0v-0.1l0,0l0,0l0,0
	c0,0,0,0,0-0.1v-0.1c0,0,0,0,0-0.1V107c0,0,0,0,0-0.1v-0.1c0,0,0,0,0-0.1v-0.1c0,0,0,0,0-0.1v-0.1c0,0,0-0.1,0-0.1v-0.1
	c0,0,0-0.1,0-0.1V93.2c0-0.1,0-0.2,0-0.2L32.9,93z"/>
<linearGradient id="SVGID_3_" gradientUnits="userSpaceOnUse" x1="72.3813" y1="47.09" x2="72.3813" y2="115.69" gradientTransform="matrix(1 0 0 -1 -34.58 183.22)">
	<stop  offset="0" style="stop-color:#EC195A"/>
	<stop  offset="1" style="stop-color:#F47F20"/>
</linearGradient>
<path class="st2" d="M40.5,96.8L40.5,96.8v-0.2l0,0l0,0c0-0.1,0-0.1,0-0.2l0,0l0,0l-0.1-0.2l0,0c0-0.1,0-0.1-0.1-0.2l0,0l0,0
	c0-0.1-0.1-0.1-0.1-0.2l0,0l0,0c-0.1-0.1-0.2-0.3-0.3-0.4l0,0l-0.2-0.2l0,0c-0.5-0.5-1.2-0.7-1.9-0.8h0c-1.6,0-2.8,1.3-2.8,2.8v4.9
	c0,1.5,1.2,2.8,2.7,2.8h0.8h0.1h0.1h0.1h0.1h0.1l-0.1-0.3l0,0h0.1h0.1h0.1h0l0,0h0.1l0,0h0.1l0,0h0.1h0h0.1h0h0.1l0,0l0.1-0.1l0,0
	h0.1l0,0v0l0,0v0l0,0v-0.1l0,0v0l0,0c0,0,0,0,0-0.1l0,0l0,0v-0.1l0,0v-0.1l0,0l0,0l0,0v-0.1l0,0l0,0c0,0,0,0,0-0.1l0,0l0,0V104v-0.1
	c0,0,0,0,0-0.1v-0.1c0,0,0,0,0-0.1v-0.1c0,0,0,0,0-0.1v-0.1c0,0,0,0,0-0.1v-0.1c0,0,0-0.1,0-0.1l0,0v-6.2c0-0.1,0-0.2,0-0.2
	L40.5,96.8z"/>
<linearGradient id="SVGID_4_" gradientUnits="userSpaceOnUse" x1="79.4118" y1="47.09" x2="79.4118" y2="115.69" gradientTransform="matrix(1 0 0 -1 -34.58 183.22)">
	<stop  offset="0" style="stop-color:#EC195A"/>
	<stop  offset="1" style="stop-color:#F47F20"/>
</linearGradient>
<path class="st3" d="M45.4,84.1c-1.6,0-2.8,1.3-2.8,2.8v25.2c0,1.5,1.3,2.8,2.8,2.8h0.7h0.1h0.1h0.1l0,0l0,0h0.1h0.1h0.1l0,0h0.1
	h0.1l0.2-0.3l0,0h0.1h0.1l0,0h0.1l0,0H47l0.1-0.1l0,0l0,0l0,0l0,0l0,0h0.1l0,0v0l0,0c0,0,0,0,0,0l0,0l0,0v-0.1l0,0v-0.1v-0.1l0,0
	l0,0l0,0v-0.1l0,0v-0.1l0,0l0,0l0,0l0,0l0,0l0,0c0,0,0,0,0-0.1l0,0l0,0c0,0,0,0,0-0.1V114c0,0,0,0,0-0.1l0,0l0,0c0,0,0,0,0-0.1v-1.2
	c0,0,0,0,0-0.1V86.9c0-0.1,0-0.2,0-0.2l0,0c0-0.1,0-0.2,0-0.2l0,0l0,0c0-0.1,0-0.2-0.1-0.2l0,0l0,0c0-0.1-0.1-0.1-0.1-0.2l0,0l0,0
	l-0.1-0.2l0,0l0,0l-0.1-0.2l0,0c-0.1-0.1-0.2-0.2-0.3-0.4l0,0l-0.2-0.2l0,0c-0.5-0.5-1.2-0.7-1.9-0.7L45.4,84.1z"/>
<linearGradient id="SVGID_5_" gradientUnits="userSpaceOnUse" x1="87.83" y1="47.09" x2="87.83" y2="115.69" gradientTransform="matrix(1 0 0 -1 -34.58 183.22)">
	<stop  offset="0" style="stop-color:#EC195A"/>
	<stop  offset="1" style="stop-color:#F47F20"/>
</linearGradient>
<path class="st4" d="M53.3,109.3H54l0,0h0.1h0.1l0,0h0.1l0,0l0,0h0.1l0,0l0,0h0.1l0,0l0,0h0.1l0,0h0.1l0,0h0.1l0,0h0.1l0,0h0.1l0,0
	h0.1l0,0h0.1l0,0l0.1,0l0,0v0l0,0l0,0v-0.1l0,0v-0.1v0V109v0v-0.1l0,0l0,0v-0.1l0,0l0,0v-0.1l0,0l0,0v-0.1l0,0l0,0c0,0,0,0,0-0.1
	l0,0l0,0c0,0,0,0,0-0.1v-0.1c0,0,0,0,0-0.1v-0.1c0,0,0,0,0-0.1v-0.1c0,0,0,0,0-0.1v-1.2c0,0,0,0,0-0.1v-0.1c0,0,0-0.1,0-0.1l0,0
	V93.2c0-0.1,0-0.2,0-0.2l0,0c0-0.1,0-0.2,0-0.2l0,0l0,0c0-0.1,0-0.1,0-0.2l0,0c0-0.1,0-0.1-0.1-0.2l0,0l0,0c0-0.1-0.1-0.1-0.1-0.2
	l0,0l0,0c0-0.1-0.1-0.1-0.1-0.2l0,0l1.1-0.3l0,0l0,0l-0.1-0.1l0,0l-0.2-0.2l0,0c-0.5-0.5-1.2-0.7-1.9-0.7l0,0
	c-1.6,0-2.8,1.3-2.8,2.8v13.1C50.7,108,51.9,109.2,53.3,109.3z"/>
<linearGradient id="SVGID_6_" gradientUnits="userSpaceOnUse" x1="95.665" y1="47.09" x2="95.665" y2="115.69" gradientTransform="matrix(1 0 0 -1 -34.58 183.22)">
	<stop  offset="0" style="stop-color:#EC195A"/>
	<stop  offset="1" style="stop-color:#F47F20"/>
</linearGradient>
<path class="st5" d="M61.2,105.1L61.2,105.1h0.3h0.7l0,0l0,0h0.1h0.1h0.1h0.1h0.1h0.1h0.1h0.1l0,0h0.1h0.1l0,0h0.1l0,0l0,0H63l0,0v0
	l0,0l0,0v0l0,0l0,0V105l0,0l0,0v-0.1l0,0c0,0,0,0,0-0.1v-0.1l0,0l0,0l0,0l0,0l0,0v-0.1l0,0v0v-0.1l0,0l0,0v0l0,0l0,0c0,0,0,0,0-0.1
	v-0.1c0,0,0,0,0-0.1v-0.1c0,0,0,0,0-0.1v-0.1c0,0,0,0,0-0.1V104c0,0,0,0,0-0.1v-1.4c0,0,0,0,0-0.1v-0.1c0-0.1,0-0.1,0-0.1v-4.9
	c0-0.1,0-0.2,0-0.2l0,0c0-0.1,0-0.2,0-0.2l0,0l0,0l0,0c0-0.1,0-0.1,0-0.2l0,0c0-0.1,0-0.1-0.1-0.2l0,0l-0.1-0.2l0,0l0,0
	c0-0.1-0.1-0.1-0.1-0.2l0,0c0-0.1-0.1-0.1-0.1-0.2l0,0c0.4,0.1,0.7,0,1-0.3l0,0l-0.2-0.2l0,0c-0.5-0.5-1.2-0.7-1.9-0.7h-0.1
	c-1.6,0-2.8,1.3-2.8,2.8v4.8C58.6,103.8,59.7,105,61.2,105.1z"/>
<path d="M110.7,98.2c0.9-0.4,1.8-0.7,2.8-0.8l1.4-0.2c0.5-0.1,1.1-0.2,1.6-0.4c0.4-0.2,0.8-0.3,1.2-0.6v2.2c0,0.5-0.1,1.1-0.2,1.6
	h6.1v-9c0-2.8-1-4.6-2.9-5.6c-2.1-1-4.4-1.5-6.7-1.5c-3.9,0-6.6,1-8.2,3c-1.1,1.4-1.6,3.2-1.7,4.9h5.8c0.1-0.8,0.4-1.5,0.9-2.1
	c0.8-0.7,1.9-1.1,3-1c1-0.1,2,0.1,2.9,0.5c0.7,0.4,1.1,1.2,1,1.9c0,0.8-0.5,1.5-1.3,1.7c-0.8,0.3-1.6,0.5-2.4,0.5l-2,0.3
	c-1.8,0.2-3.6,0.6-5.3,1.5c-1.8,1-3,2.8-3.2,4.9h6C109.5,99.2,110,98.5,110.7,98.2z"/>
<path d="M133.5,95.9c-0.1-1.7,0.4-3.4,1.2-4.9c0.8-1.3,2.3-2.1,3.9-2c1.1,0,2.2,0.4,3,1.1c1.4,1.2,2.1,3.2,2.1,6
	c0,1.3-0.2,2.6-0.7,3.8h6.6v-24h-6.1v11.3c-0.6-1.1-1.5-1.9-2.6-2.5c-1.1-0.6-2.4-0.9-3.7-0.9c-2.8-0.1-5.5,1.2-7.2,3.4
	c-1.8,2.2-2.7,5.3-2.7,9.2c0,1.2,0.1,2.4,0.4,3.6h6.5C133.6,98.7,133.4,97.3,133.5,95.9z"/>
<rect x="153.2" y="84.3" width="6.1" height="15.6"/>
<path d="M168.5,95.8c-0.1-1.9,0.4-3.7,1.4-5.3c1.9-2.2,5.3-2.5,7.5-0.6c0.2,0.2,0.4,0.4,0.6,0.6c1,1.6,1.5,3.4,1.4,5.3
	c0,1.4-0.2,2.8-0.7,4.1h6.4c0.4-1.3,0.6-2.7,0.6-4.1c0.1-3.1-1-6.1-2.9-8.6c-1.9-2.4-4.9-3.6-8.8-3.6c-3.9,0-6.9,1.2-8.8,3.6
	c-1.9,2.4-3,5.5-2.9,8.6c0,1.4,0.2,2.8,0.6,4.1h6.4C168.7,98.6,168.4,97.2,168.5,95.8z"/>
<path d="M95.4,96.3c-0.1-1.4,0.2-2.8,0.7-4.1c0.8-1.6,2.4-2.3,4.8-2.3h0.7c0.3,0,0.6,0,1,0.1v-6.1h-0.5h-0.3
	c-1.6-0.1-3.1,0.4-4.4,1.4c-1,0.9-1.8,2-2.4,3.1v-4h-5.7v15.6h6L95.4,96.3z"/>
<path d="M97.4,105.8l-3,8.9h-2.7l-3.1-8.9h2.6l1.9,6.8l0,0l1.8-6.8L97.4,105.8z"/>
<path d="M99,114.7v-8.9h2.3v1.6h0.1c0.1-0.5,0.4-1,0.8-1.3c0.4-0.3,0.9-0.5,1.3-0.5c0.2,0,0.5,0,0.7,0.1v2.1
	c-0.3-0.1-0.6-0.1-0.9-0.1c-0.5,0-1,0.2-1.4,0.5c-0.4,0.4-0.5,0.9-0.5,1.5v5L99,114.7z"/>
<path d="M108.5,114.8c-0.8,0-1.5-0.2-2.1-0.8c-0.6-0.5-0.9-1.2-0.8-1.9c0-0.7,0.3-1.5,0.9-1.9c0.8-0.5,1.6-0.8,2.6-0.8l2.2-0.1v-0.6
	c0-0.4-0.1-0.7-0.4-1c-0.3-0.2-0.7-0.4-1.1-0.3c-0.4,0-0.8,0.1-1.1,0.3c-0.3,0.2-0.5,0.5-0.5,0.8h-2.2c0-0.8,0.4-1.6,1.1-2.1
	c0.8-0.6,1.8-0.9,2.8-0.8c1,0,1.9,0.2,2.7,0.8c0.7,0.5,1,1.3,1,2.2v6.1h-2.3v-1.3h-0.1c-0.3,0.5-0.6,0.9-1.1,1.1
	C109.6,114.7,109.1,114.8,108.5,114.8z M109.3,113.1c0.5,0,1-0.2,1.4-0.5c0.4-0.3,0.6-0.7,0.6-1.2v-0.6l-1.9,0.1
	c-0.4,0-0.7,0.1-1.1,0.3c-0.2,0.2-0.4,0.5-0.4,0.8c0,0.3,0.1,0.6,0.4,0.8C108.6,113,109,113.1,109.3,113.1z"/>
<path d="M116.7,103.7h2.4v2.1h1.7v1.8h-1.6v4.3c0,0.7,0.4,1,1.1,1c0.2,0,0.4,0,0.6,0v1.7c-0.4,0.1-0.8,0.1-1.2,0.1
	c-0.8,0.1-1.6-0.1-2.2-0.6c-0.5-0.5-0.7-1.2-0.7-1.9v-4.7h-1.3v-1.8h1.3L116.7,103.7z"/>
<path d="M125.1,104.4c-0.2,0.2-0.6,0.4-0.9,0.4c-0.3,0-0.7-0.1-0.9-0.4c-0.5-0.5-0.5-1.2,0-1.7c0,0,0,0,0,0c0.2-0.2,0.6-0.4,0.9-0.4
	c0.3,0,0.7,0.1,0.9,0.4C125.6,103.1,125.6,103.9,125.1,104.4C125.1,104.4,125.1,104.4,125.1,104.4z M123,114.7v-8.9h2.4v8.9H123z"/>
<path d="M127.8,108.4c0-0.8,0.4-1.5,1-2c0.8-0.5,1.8-0.8,2.7-0.8c1,0,1.9,0.2,2.7,0.8c0.6,0.5,1,1.3,1,2.1h-2.2
	c0-0.3-0.2-0.6-0.4-0.8c-0.3-0.2-0.7-0.3-1.1-0.3c-0.4,0-0.7,0.1-1,0.3c-0.2,0.1-0.4,0.4-0.4,0.7c0,0.4,0.4,0.7,1.2,0.9l1.7,0.4
	c0.7,0.1,1.4,0.4,1.9,0.9c0.4,0.4,0.6,1,0.6,1.6c0,0.8-0.4,1.6-1.1,2.1c-0.8,0.6-1.8,0.8-2.9,0.8c-1,0-2-0.2-2.8-0.8
	c-0.7-0.5-1.1-1.3-1.1-2.1h2.4c0,0.3,0.2,0.7,0.5,0.9c0.3,0.2,0.7,0.3,1.1,0.3c0.4,0,0.8-0.1,1.1-0.3c0.2-0.1,0.4-0.4,0.4-0.7
	c0-0.2-0.1-0.4-0.2-0.5c-0.3-0.2-0.5-0.3-0.8-0.3l-1.6-0.4C128.6,110.6,127.8,109.7,127.8,108.4z"/>
<path d="M137.5,114.7v-12h2.4v12H137.5z"/>
<path d="M145.1,114.8c-0.8,0-1.5-0.2-2.1-0.8c-0.6-0.5-0.9-1.2-0.9-1.9c0-0.7,0.3-1.5,0.9-1.9c0.8-0.5,1.7-0.8,2.6-0.8l2.2-0.1v-0.6
	c0-0.4-0.1-0.7-0.4-1c-0.3-0.2-0.7-0.4-1.1-0.3c-0.4,0-0.8,0.1-1.1,0.3c-0.3,0.2-0.5,0.5-0.5,0.8h-2.2c0-0.8,0.4-1.6,1.1-2.1
	c0.8-0.6,1.8-0.9,2.8-0.8c1,0,1.9,0.2,2.7,0.8c0.7,0.5,1,1.3,1,2.2v6.1h-2.3v-1.3h-0.1c-0.3,0.5-0.6,0.9-1.1,1.1
	C146.2,114.7,145.6,114.8,145.1,114.8z M145.9,113.1c0.5,0,1-0.2,1.4-0.5c0.4-0.3,0.6-0.7,0.6-1.2v-0.6l-1.9,0.1
	c-0.4,0-0.7,0.1-1,0.3c-0.2,0.2-0.4,0.5-0.4,0.8c0,0.3,0.1,0.6,0.4,0.8C145.2,113,145.5,113.1,145.9,113.1L145.9,113.1z"/>
<path d="M160.7,105.8l-3.1,8.9h-2.7l-3.1-8.9h2.6l1.9,6.8h0.1l1.9-6.8L160.7,105.8z"/>
<path d="M164.6,104.4c-0.2,0.2-0.6,0.4-0.9,0.4c-0.3,0-0.7-0.1-0.9-0.4c-0.5-0.5-0.5-1.3,0-1.8c0,0,0,0,0,0c0.2-0.2,0.6-0.4,0.9-0.4
	c0.3,0,0.7,0.1,0.9,0.4C165.1,103.1,165.1,103.9,164.6,104.4C164.6,104.4,164.6,104.4,164.6,104.4L164.6,104.4z M162.4,114.7v-8.9
	h2.4v8.9H162.4z"/>
<path d="M175.4,109.1h-2.2c0-0.4-0.3-0.9-0.6-1.2c-0.3-0.3-0.7-0.5-1.2-0.4c-0.6,0-1.1,0.3-1.4,0.7c-0.7,1.2-0.7,2.8,0,4
	c0.3,0.5,0.9,0.8,1.4,0.7c0.4,0,0.9-0.1,1.2-0.4c0.3-0.3,0.5-0.7,0.6-1.2h2.3c0,1-0.5,1.9-1.2,2.5c-0.8,0.7-1.8,1-2.8,0.9
	c-1.2,0.1-2.4-0.4-3.2-1.2c-1.6-2-1.6-4.8,0-6.8c1.7-1.6,4.2-1.7,6.1-0.3C174.9,107.2,175.4,108.1,175.4,109.1z"/>
<path d="M183.3,111.9h2.2c-0.1,0.9-0.6,1.6-1.3,2.1c-0.8,0.6-1.8,0.8-2.8,0.8c-1.2,0.1-2.4-0.4-3.2-1.2c-0.8-0.9-1.2-2.1-1.2-3.4
	c-0.1-1.2,0.4-2.5,1.2-3.4c1.7-1.7,4.5-1.7,6.2-0.1c0.8,0.9,1.2,2.1,1.1,3.2v0.7h-6.1v0.2c0,0.6,0.2,1.1,0.6,1.5
	c0.4,0.4,0.9,0.6,1.5,0.6c0.4,0,0.8-0.1,1.1-0.3C183,112.6,183.2,112.3,183.3,111.9z M181.4,107.4c-0.5,0-1,0.2-1.3,0.5
	c-0.4,0.4-0.6,0.9-0.6,1.4h3.8c0-0.5-0.2-1-0.6-1.4C182.4,107.5,181.9,107.4,181.4,107.4L181.4,107.4z"/>
<path d="M158.8,81.3c-1.4,1.3-3.5,1.3-4.8,0c-1.3-1.3-1.3-3.3-0.1-4.6c0,0,0,0,0.1-0.1c1.4-1.3,3.5-1.3,4.8,0
	C160,77.9,160.1,80,158.8,81.3C158.8,81.3,158.8,81.3,158.8,81.3z"/>
</svg>
