<svg xmlns="http://www.w3.org/2000/svg" viewBox="0 0 1530.7 1530.7">
  <defs>
    <style>
      .a {
        fill: #00ab96;
      }

      .b {
        fill: #fff;
      }
    </style>
  </defs>
  <g>
    <rect class="a" width="1530.7" height="1530.71"/>
    <path class="b" d="M543.3,295.5H295.7V418.7H795.3c-36.1-84.2-131.2-123.2-252-123.2m235,316.1H295.7V488.9h515c.2,4.8.3,9.7.3,14.6-.4,45.7-11.4,80.9-32.7,108.1M295.7,681.8V804.3H745.6L670.3,681.8Zm0,192.7H788.8l75.9,123.4h-569Z" transform="translate(-84.8 -84.7)"/>
    <g>
      <path class="b" d="M372.5,1206.9c30,0,56.6,4.2,70.9,33.9,4.2,8.9,6.1,20.4,6.1,30.2,0,14.3-3.3,29.4-12.3,40.9-17.9,23.5-40.9,24.3-67.7,24.3H341.2v68.4H296.4V1206.9Zm-31.3,92.9h28c17.3,0,35.8-4.7,35.8-28.5,0-27.5-24.6-28.3-40.9-28.3H341.2Z" transform="translate(-84.8 -84.7)"/>
      <path class="b" d="M504.6,1404.6H463.4V1206.9h41.2Z" transform="translate(-84.8 -84.7)"/>
      <path class="b" d="M642.6,1292.8l-69.4,77.6h74.2v34.2H519.7v-30.8l71.7-80.1H527.8v-34.2H642.6Z" transform="translate(-84.8 -84.7)"/>
      <path class="b" d="M696.9,1344.1c2.5,17.9,12.3,31.1,31.4,31.1,12.8,0,21-4.5,27.1-15.4l41.5,2.8c-10.4,31-37.8,46.2-69.8,46.2-45.9,0-73.3-32.2-73.3-76.8s28.8-76.7,73.3-76.7c48.5,0,71.4,37,71.4,81.8v7Zm58.2-31.4c-1.4-14.5-12-24.9-26.8-24.9-17.7,0-26.6,8.4-31.1,24.9Z" transform="translate(-84.8 -84.7)"/>
      <path class="b" d="M904.4,1404.6v-85.4c0-14-5.3-27.8-21.5-27.8-19.6,0-25,17.4-25,32.8v80.4H816.5V1259.5h40.3v16.8c10.1-12.9,23.3-20.1,40.1-20.1,10.9,0,21.8,2.8,30.5,9.5,16.5,12.6,19.3,30.2,19.3,49.8v89.1Zm-38-206.1,13.7,23.2,14.3-23.2H926l-26.6,41.1H859.9l-24.6-41.1Z" transform="translate(-84.8 -84.7)"/>
    </g>
  </g>
</svg>
