<svg xmlns="http://www.w3.org/2000/svg" viewBox="0 0 1530.7 1530.7">
  <defs>
    <style>
      .a {
        fill: #000f37;
      }

      .b {
        fill: #fff;
      }
    </style>
  </defs>
  <g>
    <rect class="a" width="1530.7" height="1530.71"/>
    <path class="b" d="M421.3,211H211.1V315.6h424C604.5,244.2,523.8,211,421.3,211M620.8,479.3H211.1V375.2H648.2c.2,4.1.3,8.2.3,12.4-.4,38.8-9.6,68.6-27.7,91.7M211.1,538.9v104H593l-64-104Zm0,163.6H629.6L694,807.2H211.1Z" transform="translate(-0.2 -0.2)"/>
    <g>
      <path class="b" d="M287.5,1086l29.3,48.6h-32l-26.5-44.1H239.1v44.1H210.2V1007.1h49.1c19.3,0,36.4,2.7,45.6,21.9,2.7,5.7,3.9,13.1,3.9,19.5,0,9.2-2.1,18.9-7.9,26.3A35.6,35.6,0,0,1,287.5,1086Zm-11.1-48.7c-5.8-7.3-15.1-6.9-23.4-6.9H239.1v36.5h15.3c4.7,0,11.4,0,15.7-1.9,6.7-3.1,10.1-9.2,10.1-16.5A18.3,18.3,0,0,0,276.4,1037.3Z" transform="translate(-0.2 -0.2)"/>
      <path class="b" d="M405.6,1134.6H380.1l-.2-8.5c-10.3,7.2-16,11.2-29.4,11.2-18.1,0-32.5-11.2-32.5-30.2,0-26.5,25.8-28.8,46-31.7,4.7-.8,14.5-1.1,14.5-7.8s-8.7-8.7-14.3-8.7c-7.4,0-16.8,2.6-16.4,11.8H323.2c1.3-23.3,18.8-32.4,39.9-32.4,15.6,0,33.1,2.6,40,18.8,2.8,7.1,2.5,17.9,2.5,25.5Zm-26.4-44.8a62.3,62.3,0,0,1-6.5,2.2c-7.4,2-27.8,2.1-27.8,14.2,0,7.8,7,10.2,12.5,10.2,1.9,0,14.9-.2,21.8-12.1Z" transform="translate(-0.2 -0.2)"/>
      <path class="b" d="M481.3,1134.6v-9c-5.4,8.5-15.1,11.3-24.7,11.3-26.6,0-39.9-24.3-39.9-48.2,0-25.4,12.8-50,41.2-50,8.4,0,15.8,3.1,22.3,8.5v-40.1h27v127.5Zm-18.8-74c-14.2,0-18.7,15.1-18.7,26.9s3.8,27.4,19.1,27.4,18.2-14.3,18.2-26.5S478.1,1060.6,462.5,1060.6Z" transform="translate(-0.2 -0.2)"/>
      <path class="b" d="M549.1,1031.1H522.8v-24h26.3Zm0,103.5H522.8v-93.5h26.3Z" transform="translate(-0.2 -0.2)"/>
      <path class="b" d="M607.5,1137.3c-29.3,0-47.5-20.2-47.5-48.9,0-30.4,19.7-50,50-50,28.7,0,46.8,21.1,46.8,49.1S636.6,1137.3,607.5,1137.3Zm1.3-77.6c-16.1,0-21.5,13.7-21.5,27.6s5,28.3,21.1,28.3,21.1-15.3,21.1-29.2S624.5,1059.7,608.8,1059.7Z" transform="translate(-0.2 -0.2)"/>
      <path class="b" d="M758.5,1007.1c19.3,0,36.5,2.7,45.7,21.9,2.7,5.7,3.9,13.1,3.9,19.5,0,9.2-2.1,18.9-7.9,26.3-11.6,15.2-26.4,15.7-43.7,15.7H738.3v44.1H709.4V1007.1Zm-20.2,60h18c11.2,0,23.1-3.1,23.1-18.5,0-17.7-15.9-18.2-26.3-18.2H738.3Z" transform="translate(-0.2 -0.2)"/>
      <path class="b" d="M842.9,1056.4c5-13,12.8-17.1,24.2-17.1a30.1,30.1,0,0,1,4.6.3v24.2a45.8,45.8,0,0,0-6.3-.5c-19.1,0-21.3,14.1-21.3,25.3v46H816.9v-93.5h26Z" transform="translate(-0.2 -0.2)"/>
      <path class="b" d="M960.3,1134.6H934.8l-.2-8.5c-10.3,7.2-16.1,11.2-29.4,11.2-18.1,0-32.5-11.2-32.5-30.2,0-26.5,25.8-28.8,46-31.7,4.7-.8,14.5-1.1,14.5-7.8s-8.7-8.7-14.3-8.7c-7.4,0-16.8,2.6-16.4,11.8H877.9c1.3-23.3,18.8-32.4,39.9-32.4,15.5,0,33.1,2.6,39.9,18.8,2.9,7.1,2.6,17.9,2.6,25.5Zm-26.4-44.8c-2.5.9-4.2,1.6-6.5,2.2-7.4,2-27.8,2.1-27.8,14.2,0,7.8,7,10.2,12.4,10.2,2,0,15-.2,21.9-12.1Z" transform="translate(-0.2 -0.2)"/>
      <path class="b" d="M1062.5,1041.1V1123c0,7.1-.4,14.5-3.1,21-7.2,17.1-26.2,21.3-43,21.3-20,0-39.3-6.7-41.3-29.6h28.2c2.5,6.5,8.6,8.6,15.1,8.6,16.3,0,17.9-9.7,17.9-23.4a23.6,23.6,0,0,1,.2-3.8c-5.8,7.9-16.8,11.5-26.2,11.5-25.3,0-39.6-20.7-39.6-44.4s13.8-45.7,39.2-45.7c12.5,0,19.9,5.1,26.9,14.8v-12.2Zm-45.5,19.3c-13.2,0-20.2,10.6-20.2,22.9s6.5,22.8,19.5,22.8,19.8-11.2,19.8-23.7S1029.6,1060.4,1017,1060.4Z" transform="translate(-0.2 -0.2)"/>
      <path class="b" d="M1135.2,1134.6v-10.3c-5.2,8.5-17,12.6-26.5,12.6-29.3,0-31.3-23.6-31.3-41.3v-54.5H1104v53.6c0,10.3,2,20.2,14.6,20.2s16.1-11,16.1-25.1v-48.7h25.8v93.5Z" transform="translate(-0.2 -0.2)"/>
      <path class="b" d="M1199.3,1095.6c1.7,11.5,8,20,20.2,20,8.4,0,13.6-2.9,17.6-9.9l26.7,1.8c-6.7,20.1-24.4,29.8-45,29.8-29.6,0-47.3-20.8-47.3-49.5s18.6-49.4,47.3-49.4c31.3,0,46.1,23.8,46.1,52.7v4.5Zm37.6-20.2c-.9-9.4-7.8-16.1-17.4-16.1-11.3,0-17.1,5.4-20,16.1Z" transform="translate(-0.2 -0.2)"/>
      <path class="b" d="M239.3,1320.1H210.6V1192.6h28.7Z" transform="translate(-0.2 -0.2)"/>
      <path class="b" d="M313.7,1320.1V1265c0-9-3.4-17.9-13.9-17.9-12.6,0-16.1,11.2-16.1,21.1v51.9H257v-93.6h26v10.9c6.5-8.3,15-13,25.8-13,7.1,0,14.1,1.8,19.7,6.1,10.7,8.1,12.5,19.5,12.5,32.1v57.5Z" transform="translate(-0.2 -0.2)"/>
      <path class="b" d="M387,1246.7v42.1c0,7.8,1.4,10.9,10.1,10.9,2.7,0,4.5-.2,7.2-.4v20.6a139.1,139.1,0,0,1-18.2,1.2c-21.9,0-25.6-10.4-25.6-29.2v-45.2H347.1v-20.2h13.4v-27.6H387v27.6h16.4v20.2Z" transform="translate(-0.2 -0.2)"/>
      <path class="b" d="M436.2,1281.1c1.6,11.5,7.9,20,20.2,20,8.3,0,13.5-2.9,17.5-9.9l26.7,1.8c-6.7,20-24.3,29.8-44.9,29.8-29.6,0-47.3-20.8-47.3-49.5s18.6-49.5,47.3-49.5c31.2,0,46,23.9,46,52.7v4.6Zm37.5-20.3c-.9-9.4-7.7-16-17.3-16-11.4,0-17.2,5.4-20.1,16Z" transform="translate(-0.2 -0.2)"/>
      <path class="b" d="M538.2,1241.9c5-13,12.8-17.2,24.2-17.2a24.1,24.1,0,0,1,4.7.4v24.2a36.3,36.3,0,0,0-6.4-.6c-19.1,0-21.3,14.1-21.3,25.3v46.1H512.2v-93.6h26Z" transform="translate(-0.2 -0.2)"/>
      <path class="b" d="M630,1320.1V1265c0-9-3.4-17.9-13.9-17.9-12.6,0-16.1,11.2-16.1,21.1v51.9H573.3v-93.6h26v10.9c6.5-8.3,15-13,25.8-13,7.1,0,14.1,1.8,19.7,6.1,10.7,8.1,12.5,19.5,12.5,32.1v57.5Z" transform="translate(-0.2 -0.2)"/>
      <path class="b" d="M754.6,1320.1H729.1l-.2-8.5c-10.3,7.2-16,11.2-29.4,11.2-18.1,0-32.5-11.2-32.5-30.2,0-26.5,25.8-28.9,46.1-31.8,4.6-.7,14.4-1.1,14.4-7.7s-8.7-8.7-14.3-8.7c-7.4,0-16.8,2.5-16.4,11.7H672.2c1.3-23.3,18.8-32.3,39.9-32.3,15.6,0,33.1,2.5,40,18.8,2.9,7,2.5,17.9,2.5,25.5Zm-26.4-44.8a44.5,44.5,0,0,1-6.5,2.1c-7.4,2-27.8,2.2-27.8,14.3,0,7.8,7,10.1,12.5,10.1,2,0,15-.2,21.8-12.1Z" transform="translate(-0.2 -0.2)"/>
      <path class="b" d="M801.4,1246.7v42.1c0,7.8,1.5,10.9,10.2,10.9,2.7,0,4.5-.2,7.2-.4v20.6a139.4,139.4,0,0,1-18.3,1.2c-21.8,0-25.6-10.4-25.6-29.2v-45.2H761.5v-20.2h13.4v-27.6h26.5v27.6h16.5v20.2Z" transform="translate(-0.2 -0.2)"/>
      <path class="b" d="M856.4,1216.6H830v-24h26.4Zm0,103.5H830v-93.6h26.4Z" transform="translate(-0.2 -0.2)"/>
      <path class="b" d="M914.7,1322.8c-29.2,0-47.5-20.3-47.5-49,0-30.3,19.7-50,50-50,28.8,0,46.8,21.1,46.8,49.1S943.8,1322.8,914.7,1322.8Zm1.3-77.7c-16.1,0-21.5,13.7-21.5,27.7s5,28.3,21.1,28.3,21.1-15.3,21.1-29.3S931.7,1245.1,916,1245.1Z" transform="translate(-0.2 -0.2)"/>
      <path class="b" d="M1031.6,1320.1V1265c0-9-3.4-17.9-13.9-17.9-12.6,0-16,11.2-16,21.1v51.9H974.9v-93.6H1001v10.9c6.5-8.3,14.9-13,25.8-13,7,0,14.1,1.8,19.7,6.1,10.6,8.1,12.4,19.5,12.4,32.1v57.5Z" transform="translate(-0.2 -0.2)"/>
      <path class="b" d="M1156.2,1320.1h-25.4l-.2-8.5c-10.3,7.2-16.1,11.2-29.5,11.2-18,0-32.5-11.2-32.5-30.2,0-26.5,25.9-28.9,46.1-31.8,4.7-.7,14.4-1.1,14.4-7.7s-8.6-8.7-14.2-8.7c-7.4,0-16.8,2.5-16.5,11.7h-24.5c1.2-23.3,18.7-32.3,39.9-32.3,15.5,0,33,2.5,39.9,18.8,2.9,7,2.5,17.9,2.5,25.5Zm-26.4-44.8a44.5,44.5,0,0,1-6.5,2.1c-7.4,2-27.8,2.2-27.8,14.3,0,7.8,7.1,10.1,12.5,10.1,2,0,15-.2,21.8-12.1Z" transform="translate(-0.2 -0.2)"/>
      <path class="b" d="M1198.3,1320.1h-26.5V1192.6h26.5Z" transform="translate(-0.2 -0.2)"/>
    </g>
  </g>
</svg>
