<svg enable-background="new 0 0 500 500" viewBox="0 0 500 500" xmlns="http://www.w3.org/2000/svg"><path d="m476.7 266.6-58.3-40.6-2.4-2 25.6-55.5c3.1-6.6 1.1-14.5-4.7-18.9s-14-4.2-19.5.6l-48.7 41.3-19.6-13.5c-5-3.5-11.6-3.7-16.9-.5s-8.2 9.1-7.4 15.1l.4 3.2c-1.5.1-3.6 0-5-.1-1.5-.1-3.1-.1-4.7-.1-2.8 0-6 .1-8.5.2-.5 0-1-.1-1.5-.1h-7.3v-2.5c0-1.7-.6-3.3-1.7-4.6v-3.2c.8-1.2 1.3-2.6 1.3-4.1v-5.5c0-3.9-3.2-7.1-7.1-7.1h-14.9c-.6 0-1.1.1-1.6.2-.5-.1-1.1-.2-1.6-.2h-6.7c-2 0-3.9.9-5.2 2.3-1.3-1.4-3.2-2.3-5.2-2.3h-7c-.6 0-1.1.1-1.6.2-.5-.1-1.1-.2-1.6-.2h-6.5c-.6 0-1.2.1-1.8.3-.6-.2-1.2-.3-1.8-.3h-21.2c-1.6 0-3 .5-4.2 1.4-1.2-.9-2.6-1.4-4.1-1.4h-6.4c-2.8 0-5.2 1.6-6.4 4.1-1.1-2.4-3.6-4.1-6.4-4.1h-6.3c-1.9 0-3.5.7-4.8 1.9-1.3-1.2-3-1.9-4.8-1.9h-6.1c-1.9 0-3.7.8-5 2-.1 0-.2-.1-.3-.2-2.6-1.3-5.6-1.9-9.6-1.9h-8c-.9 0-1.7.2-2.5.5-.8-.3-1.6-.5-2.5-.5h-14.9c-.6 0-1.2.1-1.8.3-.6-.2-1.2-.3-1.8-.3h-21c-1.7 0-3.3.6-4.5 1.6-1.2-1-2.8-1.6-4.5-1.6h-6.5c-2.9 0-5.3 1.7-6.4 4.1-1.2-2.5-3.6-4.1-6.4-4.1h-6.4c-2.9 0-5.5 1.8-6.6 4.4l-9.1 22.6h-2.7c-4.9 0-9.7 2-13.2 5.5-3.5 3.4-5.5 8.2-5.5 13.1v67.6c0 4.9 2 9.7 5.5 13.1 3.5 3.5 8.3 5.5 13.2 5.5h15.8v31.2c0 8.6 7 15.5 15.6 15.5h26.6c.7 0 1.4-.1 2.1-.2.8.1 1.6.2 2.5.2h45.4c2.6 0 5.1-.7 7.3-1.8 2.2 1.2 4.7 1.8 7.3 1.8h54.3c1 0 1.9-.1 2.9-.3 5.1-.5 10-1.6 14.5-3.5 2.7 2.3 6.2 3.7 10 3.7h27.1c3.9 0 7.4-1.5 10.1-3.8 6.9 3 14.5 4.7 22.6 4.7h1.4c.6.1 1.3.1 1.9.1 2.3 0 23.2-.6 36.6-5.1 18.3-6.1 24.4-23.6 25.3-26.5l15.4-33.3 76.8 11.5c7.2 1.1 14.1-2.9 16.8-9.6 2.6-6.6.3-14.2-5.6-18.4z" fill="#202020"/><path d="m30.9 295.1s-.1-.1 0 0c-.1-.1-.1-.1-.1-.1s0 0 .1.1z" fill="#202020"/><path d="m305.5 277.8s-19.8-29.3-22.1-32.6c2.1-3.3 19.9-30.8 19.9-30.8.4-.5.5-1.2.5-1.8s-.1-1.1-.4-1.6c-.6-1.1-1.7-1.8-3-1.8h-26.7c-1.2 0-2.4.7-3 1.8 0 0-5.6 10.2-9.1 16.6.1-7.5.3-15 .3-15 0-.9-.3-1.8-1-2.4-.6-.7-1.5-1-2.4-1h-23.8c-1.3 0-2.4.7-3 1.8-5.5-1.9-11.5-2.9-17.3-2.9-16.6 0-30.5 10-36 24.5-5.5-14.7-19.9-24.5-38.2-24.5-16.4 0-29.6 7.8-36.2 19.9-3.2-12-14.1-18.9-30.5-18.9h-29.6c-1.9 0-3.4 1.5-3.4 3.4v67.1c0 1.9 1.5 3.4 3.4 3.4h63.3c1.3 0 2.4-.7 3-1.8.3-.5.4-1 .4-1.6 0-.7-.2-1.3-.6-1.9l-6.4-9.5s1.7-1.1 2.6.2c7.2 9.6 19 15.6 33.8 15.6 18.5 0 32.6-9.3 38.2-23.7 5.4 14 18.9 23.7 35.1 23.7 4 0 13.4-.7 18.4-2.8.6 1 1.7 1.7 2.9 1.7l10.2 7.5 13.7-7.5c.9 0 1.8-.4 2.4-1s1-1.5 1-2.4c0 0-.1-4.3-.3-11.8 2.7-.4 9.7 13.5 9.7 13.5.6 1.1 3.5 6.1 4.7 6.1l26.6-4.4c1.2 0 2.4-.7 3-1.8.3-.5.4-1 .4-1.6.1-.4-.1-1.1-.5-1.7" fill="#fff"/><path d="m385.4 233.3 32.5-58.8-50.6 45.1-22.3-16.8 4.2 31.6-23.3 18.9 26.1 2.8 5.1 40.1 17-37.7 68 10.3zm-7.2 33.2-24.1 52.1-6.7-56.7-32.6-5 29.1-24.5-4.9-41.2 29.4 20.3 57.8-49-31.2 67.5 71.4 49.7z" fill="#d8b130"/><path d="m306.7 306.7c-4.4 0-7.3-3-7.3-7.6 0-3.9 2.3-7.7 7.3-7.7 5.1 0 7.3 3.9 7.3 7.7 0 4.7-2.9 7.6-7.3 7.6m-92.7-.1v-15.1c4.7.5 6.7 2.9 6.7 7.9 0 4.3-2.3 6.7-6.7 7.2m44.6-55c.5 2.7 2.7 5.2 4.1 7.8l4.2 7.3h-8.5l-.3-15.2zm-132.1 62.9-5.2-7.7c-.2-.3-.4-.5-.6-.8 6.1-3.3 8.8-8.2 8.8-16 0-4.2-.9-7.9-2.5-11.1 3.5 1.1 7.3 1.7 11.3 1.9zm-58.6-72.2v-11.4h1.9c4.2 0 7.9.6 7.9 5.8s-4 5.6-8 5.6zm72.3-8.7c7.8 0 12.6 6 12.6 13.1 0 7.7-5.2 12.9-12.6 12.9s-12.6-5.3-12.6-12.9c0-7.1 4.8-13.1 12.6-13.1m166.5 32.2c-4.3 0-8.4.7-12.1 1.8l-15.2-22.4 21.1-32.7h-26.7l-11.8 21.6c-1.3 2.4-2.9 4.8-3.4 7.6h-.5l.5-29.1h-23.8v60c-1.2-.7-2.4-1.4-3.7-1.9l.5-17.6c-3.9 3.8-8.4 6.2-14 6.2-7.3 0-13.7-5.7-13.7-13.1s6-13.1 13.3-13.1c5.5 0 10.5 3.1 14.4 6.8l-.7-25.6c-5.2-1.8-10.9-2.8-16.5-2.8-19.8 0-35.2 15.7-35.2 35.3 0 8 2.6 15.3 7.1 21.1v41.7l-15.3-42.9c4-5.4 6.4-12.3 6.4-20.4 0-21.1-16.8-34.8-37.3-34.8s-37.3 13.7-37.3 34.8c0 8.4 2.6 15.6 6.9 21.1-2.3-.4-4.8-.7-7.5-.7h-3.7l-5.9-8.8c-1.3-2-2.9-3-4.1-4v-.5c9.1-3 13-7.3 13-17.5 0-16.9-12.9-23.3-28.1-23.3h-29.5v67.1h23.9v-21.6h.4l5.4 10.9v58.2c0 1.9 1.5 3.4 3.4 3.4h20.4c1.9 0 3.4-1.5 3.4-3.4v-4.6c1.4 2.7 3.1 6.1 3.1 6.1.6 1.2 1.8 1.9 3 1.9h40.7c1.6 0 3-1.1 3.3-2.6 0 0 .6-2.4 1.1-4.5h10.4c.6 2.1 1.2 4.6 1.2 4.6.4 1.5 1.8 2.5 3.3 2.5h22 .3.4 26.4c13.7 0 24.4-6.6 29.3-17.2v13.8c0 1.9 1.5 3.4 3.4 3.4h22.4c1.9 0 3.4-1.5 3.4-3.4v-14.3c5.2 11.4 17 18.6 32.1 18.6 20.7 0 35.1-13.4 35.1-32.7 0-19.2-14.7-33-35-33" fill="#be3a27"/><g fill="#fff"><path d="m153.1 306.6 3.8-17.4h.8c.4 2.4.8 4.9 1.4 7.4l2.4 10.1h-8.4zm-54.1-11.1h-1.4v-9.7h1.6c3.6 0 6.7.5 6.7 4.9s-3.5 4.8-6.9 4.8m46.6-25.3-18.1 51.9-9-13.3c-1.1-1.7-2.4-2.6-3.5-3.4v-.5c7.7-2.6 11.1-6.2 11.1-14.8 0-14.4-10.9-19.8-23.8-19.8h-25.1v57.1h20.4v-18.3h.4l9.1 18.3h40.7l1.7-7.1h15.7l1.9 7.1h22l-20.4-57.1h-23.1z"/><path d="m211.9 310.1h-1.3v-22.1h1.3c7.6 0 12.2 3.4 12.2 11.4 0 7.6-5.3 10.7-12.2 10.7m-1-40h-21.2v57.1h26.4c16.8 0 28.8-10.8 28.8-27.7 0-20.9-14.7-29.4-34-29.4"/><path d="m248.8 270.1h22.4v57.1h-22.4z"/><path d="m306.7 310.1c-6.3 0-10.7-4.5-10.7-11 0-6.1 4.1-11.1 10.7-11.1s10.7 5.1 10.7 11.1c0 6.6-4.4 11-10.7 11m0-40.9c-17.4 0-31.7 11.7-31.7 29.6s14.2 29.3 31.7 29.3 31.7-11 31.7-29.3-14.3-29.6-31.7-29.6"/><path d="m62.4 175.7h6.4l9.3 22.9h-7.1l-1.6-4.7h-7.8l-1.7 4.7h-6.7zm3.1 6.9c-.4 1.5-.9 2.8-1.4 4.3l-.8 2.2h4.4l-.8-2.2c-.5-1.5-.9-2.8-1.4-4.3z"/><path d="m81.6 175.7h6.5v17.4h9.6v5.5h-16.1z"/><path d="m104.4 181.2h-7.3v-5.5h21.1v5.5h-7.3v17.4h-6.5z"/><path d="m121.8 175.7h14.9v5.5h-8.4v2.9h7.1v5.2h-7.1v3.8h8.8v5.5h-15.3z"/><path d="m141.7 175.7h8c2.8 0 4.8.3 6.4 1.1 2.2 1.1 3.7 3 3.7 6 0 2.8-1.4 5-4.2 6.2l6.1 9.6h-7.4l-5.1-8.7h-1v8.7h-6.5zm8.1 9.7c1.2 0 2.1-.2 2.6-.5.6-.3.9-.9.9-1.8 0-1-.4-1.6-1.1-1.9-.5-.3-1.3-.4-2.8-.4h-1.2v4.6z"/><path d="m174.3 190.3c-1.3-1.7-2.4-3.3-3.5-4.9h-.1c0 1.9.1 3.9.1 5.8v7.3h-6.3v-22.9h6.1l6.1 8.3c1.3 1.7 2.4 3.3 3.5 4.9h.1c0-1.9-.1-3.9-.1-5.8v-7.3h6.3v22.9h-6.1z"/><path d="m199.3 175.7h6.4l9.3 22.9h-7.1l-1.6-4.7h-7.8l-1.7 4.7h-6.8zm3.1 6.9c-.4 1.5-.9 2.8-1.4 4.3l-.8 2.2h4.4l-.8-2.2c-.5-1.5-.9-2.8-1.4-4.3z"/><path d="m221.3 181.2h-7.3v-5.5h21.1v5.5h-7.3v17.4h-6.5z"/><path d="m238.7 175.7h6.5v22.9h-6.5z"/><path d="m248.5 175.7h7l3.2 9c.7 1.9 1.3 3.7 1.9 5.6h.1c.6-1.9 1.3-3.8 2-5.6l3.3-8.9h6.7l-8.8 22.9h-6.6z"/><path d="m275.8 175.7h14.9v5.5h-8.4v2.9h7.1v5.2h-7.1v3.8h8.8v5.5h-15.3z"/></g></svg>