<svg xmlns="http://www.w3.org/2000/svg" viewBox="0 0 1530.7 1530.7">
  <defs>
    <style>
      .a {
        fill: #00ab96;
      }

      .b {
        fill: #fff;
      }
    </style>
  </defs>
  <g>
    <rect class="a" width="1530.7" height="1530.71"/>
    <path class="b" d="M543.3,295.5H295.7V418.7H795.3c-36.1-84.2-131.2-123.2-252-123.2m235,316.1H295.7V488.9h515c.2,4.8.3,9.7.3,14.6-.4,45.7-11.4,80.9-32.7,108.1M295.7,681.8V804.3H745.6L670.3,681.8Zm0,192.7H788.8l75.9,123.4h-569Z" transform="translate(-84.8 -84.7)"/>
    <g>
      <path class="b" d="M349.7,1242.2c19.3,0,38.4,1.6,54.5,13.5,21.4,15.9,29.4,42.4,29.4,67.9,0,30.8-13.3,62.6-43.2,75-13.4,5.5-27.8,6-42.1,6H296.1V1242.2Zm-17.3,132.2h10.8c25.3,0,51.6-1.1,51.6-52.4,0-15.4-3.7-36.4-18.9-44.4-9.4-5.1-23-5.1-33.6-5.1h-9.9Z" transform="translate(-84.8 -84.7)"/>
      <path class="b" d="M585.6,1404.6h-41l-10.5-34.5h-52l-10.4,34.5H431l55.2-162.4h41.7Zm-60.5-64.2-17.7-62.6-16.8,62.6Z" transform="translate(-84.8 -84.7)"/>
      <path class="b" d="M596.3,1242.2h73.6c30.8,0,54.7,11,54.7,41.8a34.9,34.9,0,0,1-23,33.4c8.8,3.4,27.2,14,27.2,39.3,0,38.7-32.5,47.9-56.4,47.9H596.3Zm36.3,62.5h30.1c12.5,0,25.8-.9,25.8-15.4s-13.8-16.8-24.1-16.8H632.6Zm0,70h29.2c19.1,0,29.9-6,29.9-20.7,0-18-15.2-20.1-25.7-20.1H632.6Z" transform="translate(-84.8 -84.7)"/>
      <path class="b" d="M879.2,1242.2c24.6,0,46.4,3.4,58.2,27.8,3.4,7.4,5,16.8,5,24.8,0,11.8-2.7,24.2-10.1,33.6-14.7,19.3-33.6,20-55.7,20H853.4v56.2H816.6V1242.2Zm-25.8,76.3h23c14.3,0,29.5-3.9,29.5-23.4,0-22.6-20.3-23.3-33.6-23.3H853.4Z" transform="translate(-84.8 -84.7)"/>
      <path class="b" d="M986.7,1305c6.4-16.6,16.3-21.9,30.8-21.9a30.7,30.7,0,0,1,6,.5v30.8a46.7,46.7,0,0,0-8.1-.7c-24.4,0-27.1,17.9-27.1,32.2v58.7H953.5V1285.4h33.2Z" transform="translate(-84.8 -84.7)"/>
      <path class="b" d="M1136.2,1404.6h-32.4l-.3-10.9c-13.1,9.2-20.4,14.3-37.5,14.3-23,0-41.4-14.3-41.4-38.4,0-33.8,32.9-36.8,58.7-40.5,6-.9,18.4-1.4,18.4-9.9s-11.1-11-18.2-11c-9.4,0-21.4,3.2-20.9,14.9h-31.3c1.6-29.6,23.9-41.1,50.8-41.1,19.8,0,42.1,3.2,50.9,23.9,3.7,8.9,3.2,22.7,3.2,32.4Zm-33.6-57.1a62.4,62.4,0,0,1-8.3,2.8c-9.4,2.5-35.4,2.7-35.4,18.1,0,9.9,9,12.9,15.9,12.9,2.5,0,19.1-.2,27.8-15.4Z" transform="translate(-84.8 -84.7)"/>
      <path class="b" d="M1228,1404.6v-66.7c0-11.1-.5-26.5-17.7-26.5-20,0-20.7,19.3-20.7,31.3v61.9H1156V1242.2h33.6v55.4c5.3-9.4,22.3-14.9,32.4-14.9,32.4,0,39.8,24.6,39.8,45.3v76.6Z" transform="translate(-84.8 -84.7)"/>
      <path class="b" d="M1386.3,1404.6h-32.5l-.2-10.9c-13.1,9.2-20.5,14.3-37.5,14.3-23,0-41.4-14.3-41.4-38.4,0-33.8,32.9-36.8,58.6-40.5,6-.9,18.4-1.4,18.4-9.9s-11-11-18.1-11c-9.5,0-21.4,3.2-21,14.9h-31.2c1.6-29.6,23.9-41.1,50.8-41.1,19.8,0,42.1,3.2,50.8,23.9,3.7,8.9,3.2,22.7,3.2,32.4Zm-33.6-57.1a67.7,67.7,0,0,1-8.3,2.8c-9.5,2.5-35.4,2.7-35.4,18.1,0,9.9,8.9,12.9,15.8,12.9,2.6,0,19.1-.2,27.9-15.4Z" transform="translate(-84.8 -84.7)"/>
    </g>
  </g>
</svg>
