<?xml version="1.0" encoding="utf-8"?>
<!-- Generator: Adobe Illustrator 25.2.0, SVG Export Plug-In . SVG Version: 6.00 Build 0)  -->
<svg version="1.1" id="Vrstva_1" xmlns="http://www.w3.org/2000/svg" xmlns:xlink="http://www.w3.org/1999/xlink" x="0px" y="0px"
	 viewBox="0 0 841.9 841.9" style="enable-background:new 0 0 841.9 841.9;" xml:space="preserve">
<style type="text/css">
	.st0{fill:url(#SVGID_1_);}
	.st1{fill:#FFFFFF;}
</style>
<linearGradient id="SVGID_1_" gradientUnits="userSpaceOnUse" x1="923.543" y1="520.371" x2="-80.5431" y2="-20.371" gradientTransform="matrix(1 0 0 -1 0 671)">
	<stop  offset="0" style="stop-color:#C30C2B"/>
	<stop  offset="0.4236" style="stop-color:#C30C2B"/>
	<stop  offset="1" style="stop-color:#432C79"/>
</linearGradient>
<rect x="0.5" y="0" class="st0" width="841.9" height="841.9"/>
<path class="st1" d="M694.7,426h-99.9V323.9c0-0.1,0-0.3,0-0.4c1.3-26.3,23.6-46.5,49.8-45.3c26.3,1.3,46.5,23.6,45.3,49.8
	c-0.1,1.1-0.1,2.1-0.3,3.1c6.9-0.8,13.9-0.1,20.5,2.1c7.1,2.3,13.6,6.3,18.8,11.6c18.5,18.7,18.5,48.8-0.2,67.4
	c-8.7,8.7-20.5,13.6-32.8,13.8H694.7z M613.2,407.6h82.7c16.1-0.3,29-13.6,28.6-29.8c-0.3-16.1-13.6-29-29.8-28.6
	c-5.2,0.1-10.3,1.6-14.8,4.3c-4.3,2.7-10,1.3-12.7-3c-1.8-2.9-1.8-6.7,0-9.6c8.4-13.8,4.1-31.7-9.7-40.2
	c-13.8-8.4-31.7-4.1-40.2,9.7c-1.1,1.9-2.1,3.9-2.8,6c-0.8,2.5-1.3,5.1-1.4,7.7V407.6z M725.9,450.9c10.3-4.2,19.6-10.7,27.1-18.9
	c7.7-8.4,13.5-18.4,17-29.2c1.1-3.8-1-7.8-4.8-9c-3.7-1.1-7.7,0.9-8.9,4.6c-2.8,8.8-7.5,17-13.9,23.8c-6.1,6.7-13.7,11.9-22,15.3
	c-3.6,1.7-5.1,6-3.4,9.6C718.6,450.4,722.4,452,725.9,450.9L725.9,450.9z M581.8,304.3c3.4-9.9,9.2-18.8,16.9-25.9
	c6.6-6,14.3-10.6,22.7-13.4c3.8-1.1,6-5.1,4.8-8.9c-1.1-3.8-5.1-6-8.9-4.8c-0.1,0-0.3,0.1-0.4,0.1c-10.4,3.5-19.9,9.1-27.9,16.5
	c-9.5,8.7-16.6,19.7-20.8,31.9c-1.3,3.7,0.7,7.8,4.5,9.1c0,0,0,0,0,0c0.7,0.3,1.5,0.4,2.3,0.4C578.1,309.1,580.8,307.2,581.8,304.3z
	 M548.9,303.5c0.7-3,1.5-6,2.5-8.9c5-15.2,13.9-28.9,25.7-39.7c12.3-11.3,27.3-19.1,43.6-22.8c3.9-0.7,6.6-4.4,5.9-8.3
	c-0.7-3.9-4.4-6.6-8.3-5.9c-0.3,0-0.5,0.1-0.8,0.2c-18.8,4.2-36.1,13.2-50.2,26.2c-13.6,12.5-23.8,28.2-29.5,45.7
	c-1.1,3.4-2.1,6.8-2.9,10.3c-0.9,3.9,1.5,7.7,5.4,8.6c0.5,0.1,1.1,0.2,1.6,0.2C545.3,309.1,548.2,306.8,548.9,303.5L548.9,303.5z
	 M719,486.2c22.1-4.7,42.2-16,57.5-32.6c13.4-14.5,22.6-32.3,26.7-51.6c0.8-3.9-1.7-7.7-5.5-8.5c-3.9-0.8-7.7,1.7-8.5,5.5l0,0
	c-3.5,16.7-11.6,32.2-23.2,44.8c-10.9,11.8-24.7,20.6-40,25.6c-3.3,1.1-6.6,2-10,2.7c-3.9,0.8-6.3,4.7-5.5,8.5
	c0.7,3.3,3.6,5.7,7,5.7C718,486.4,718.5,486.3,719,486.2z M530.8,339.7c25.5,0,43.5,19,43.5,43.1s-18,43.1-43.5,43.1
	c-25.5,0-43.5-19-43.5-43.1C487.3,358.7,505.2,339.7,530.8,339.7 M530.8,407.2c14.3,0,23.4-10.8,23.4-24.3
	c0-13.5-9.2-24.3-23.4-24.3c-14.3,0-23.4,10.8-23.4,24.3C507.4,396.4,516.4,407.2,530.8,407.2 M32.3,423.9h19.8v-31.9h31.7v31.9
	h19.7V343H83.8v31.8H52.1V343H32.3V423.9z M117.5,423.9h19.8V343h-19.8V423.9z M219.1,343.2h33.8c17.4,0,28.7,10.5,28.7,25.7
	c0,14.1-7.1,22.1-19.1,25l21.8,30h-24.8l-20.6-30.2V424h-19.8L219.1,343.2z M254.8,378.2c4.4,0,7.4-4.6,7.4-9.3
	c0-4.7-3.5-8.9-7.9-8.9h-15.4v18.2L254.8,378.2z M379.5,343.2h28.2c23.8,0,42.3,17.6,42.3,40.3c0,21.6-16.4,40.5-42.3,40.5h-28.2
	L379.5,343.2z M407.3,406c12.7,0,22.4-8.9,22.4-22.5c0-12.5-8.5-22.4-22.4-22.4h-7.9V406H407.3z M458.6,424.1h19.8v-80.8h-19.9
	L458.6,424.1z M337.4,343.2h-14.8L288.9,424h21.3l3.9-8.4H346l4.1,8.4h21.3L337.4,343.2z M320.4,397.4l9.7-27.6l9.3,27.6H320.4z
	 M324.4,335.7h13.3l9.3-14.9h-16.5L324.4,335.7z M169,360.5h-20.7V343h61.6v17.5h-21v63.2h-19.9L169,360.5z M32.3,452.3h52.9V470
	H52.4v17.5h30.2V505H52.4v29.3H32.3V452.3z M215.3,452.3h34.3c16.8,0,26.7,12.4,26.7,26.2c0,15.3-11.5,26.2-26.7,26.2h-14.4v29.5
	h-19.9V452.3z M247.7,487.5c5.2,0,8.1-4.8,8.1-9.6c0-4.5-2.7-8.6-8.1-8.6h-12.5v18.2L247.7,487.5z M289.1,452.3h20.1v64.8h35.7v17.2
	h-55.8V452.3z M351.9,452.3h19.9v51.4c0,10.9,5.2,14.8,12.2,14.8c7.7,0,12.4-3.8,12.4-14.8v-51.4h20.1v54.4
	c0,19.4-14.5,30.4-32.5,30.4c-18.7,0-32.1-11.5-32.1-30.4L351.9,452.3z M448.8,510.2c0,4.7,3.8,8.6,8.5,8.6c5.1,0,8.2-2.9,8.2-7.1
	c0-6.2-8.1-7.9-14.8-10.3c-13.8-4.9-21.5-11.4-21.5-25.4c0-14.5,12.4-26.5,27.9-26.5c18.2,0,26.8,11.6,27.9,26.8h-18.9
	c0-4.6-2.9-8.5-8.5-8.5c-4.4,0-8.6,2.6-8.6,7.9c0,6.2,7.5,7.3,14.5,9.3c14.6,4.4,21.5,12.6,21.5,25.4c0,14.5-12.3,26.5-27.8,26.5
	c-17.9,0-28-12-28-26.8H448.8z M99.7,453.4h18.5l20.6,45.3l20.8-45.3h18.2v80.9H158V500l-12.8,34.4h-12.9l-12.8-34.7v34.7H99.6
	L99.7,453.4z"/>
</svg>
