<svg enable-background="new 0 0 500 200" viewBox="0 0 500 200" xmlns="http://www.w3.org/2000/svg"><path d="m103.9 179.5c-.9-.4-1.3-1.3-1.2-2.8.1-1 .2-1.3.7-1.7.4-.4 32.1-18.8 34.8-20.2.2-.1 1-.2 1.7-.2 1.1 0 1.4.1 1.9.5.6.5.6.6.6 2.1 0 1.4-.1 1.6-.5 2-.2.2-6.6 3.9-14 8.3-22.1 12.7-21.2 12.2-22.4 12.3-.6 0-1.3-.1-1.6-.3z"/><path d="m72.1 175c-.4-.5-.5-.8-.5-2 0-1 .1-1.5.4-1.8.2-.2 2.2-1.4 4.4-2.7 2.3-1.3 7.6-4.2 11.8-6.6 41.3-23.1 64.2-35.9 64.8-36.2.8-.5 3-.5 3.7-.1.8.5 1.1 2 .7 3.5-.2.6-.4.9-1.4 1.4-.6.4-13.5 7.6-28.6 16s-29.1 16.2-31 17.3-7.4 4.1-12.1 6.8l-8.6 4.8h-1.5c-1.5.2-1.6.2-2.1-.4z"/><path d="m105.4 166.2c-.6-.6-.6-.7-.6-2.1 0-1.3.1-1.5.5-1.9.2-.2 5.5-3.2 11.6-6.7 20.7-11.6 36.6-20.4 41.6-23.3l5-2.8h1.5c1.4 0 1.5 0 2 .6.4.5.5.8.5 2 0 1.3 0 1.5-.5 2-.3.3-8.3 4.8-17.7 10.1-18.3 10.2-19.8 11.1-32.2 18l-8.1 4.5-1.4.1c-1.5.1-1.6.1-2.2-.5z"/><path d="m60.9 161.2c-.8-.3-1.2-1.2-1.2-2.5 0-.8.1-1.4.3-1.7.2-.2 5.2-3.2 11.6-6.7 11.8-6.6 36.7-20.5 38.6-21.5 1-.6 4.2-2.3 6.4-3.6.5-.3 6.3-3.5 12.8-7.2s17.8-10 25.1-14.1l13.2-7.4 1.4-.1c1.4-.1 1.5-.1 2.1.5s.6.7.6 2.1c0 1.1-.1 1.6-.3 1.9-.2.2-4.3 2.6-9.1 5.2-4.8 2.7-10.6 5.9-12.9 7.2-4.4 2.5-14.8 8.2-44.4 24.8-9.9 5.5-22.9 12.8-28.8 16.1-13.9 7.8-12.6 7.1-13.9 7.1-.6.1-1.3 0-1.5-.1z"/><path d="m81 161.1c-.7-.4-1-1.1-1-2.5 0-1 .1-1.3.5-1.7.2-.3 6.5-3.9 13.8-8 15.1-8.4 43.2-24.1 67-37.4 17-9.5 16.9-9.5 18.6-8.9 1.1.3 1.3.8 1.3 2.5 0 1.2-.1 1.5-.4 1.9-.3.3-5.9 3.5-12.6 7.2s-16.6 9.3-22.2 12.4-13.2 7.4-16.9 9.4c-3.7 2.1-14.9 8.3-24.8 13.9-9.9 5.5-18.5 10.4-19.2 10.7-1 .6-1.4.7-2.4.7-.7.1-1.4 0-1.7-.2z"/><path d="m52.4 155.5c-.7-.4-1-1.1-1-2.6 0-1.1.1-1.4.5-1.8.2-.3 4.8-2.9 10-5.8 5.3-2.9 12.3-6.8 15.6-8.7 11.6-6.5 12.2-6.8 12.8-6.8.3 0 1.5.2 2.6.4s2.4.4 2.8.4c1.4 0 1.6.2 1.6 1v.7l-6.9 3.9c-10 5.6-25.9 14.5-30.6 17.2-4 2.3-4.1 2.3-5.5 2.4-.9 0-1.6-.1-1.9-.3z"/><path d="m45.1 148.7c-.6-.6-.7-.8-.7-2s.1-1.4.6-1.9c.3-.3 7.4-4.4 17.4-10 12.9-7.2 17-9.4 17.5-9.4.4 0 1.4.4 2.8 1.2 2.1 1.1 2.1 1.1 2.1 1.8s0 .7-7.2 4.7c-4 2.2-12.1 6.8-18.2 10.2l-11 6.1h-1.4c-1.1 0-1.3 0-1.9-.7z"/><path d="m333.5 142.5c-1.7-.4-3.3-1.3-4.5-2.4-1.3-1.1-2-2.3-2.5-3.9-.4-1.1-.4-2.1-.4-16.4 0-16.7 0-16.5 1.3-18.6 1.3-2.2 3.7-3.7 6.5-4.3 2.2-.4 19.4-.3 20.8.2 3.4 1.2 5.4 3.1 6.4 6.2.4 1.2.4 1.6.5 15.1.1 15.4 0 16.9-1 18.9-1 2.2-3 4-5.5 4.9-1.2.4-1.4.4-10.9.5-7.6.1-9.7 0-10.7-.2zm16.7-8.3c.5-.3 1.2-.9 1.5-1.4l.6-.9.1-11.9.1-11.9-.5-1c-.3-.7-.8-1.3-1.3-1.6l-.8-.6-5.4-.1c-3.4 0-5.7 0-6.1.1-.9.3-2.3 1.7-2.6 2.8-.1.5-.2 4.5-.2 12.4.1 11.3.1 11.6.5 12.4.5.9 1.7 1.9 2.7 2.1.4.1 2.9.2 5.7.1 4.7 0 4.8 0 5.7-.5z"/><path d="m39.7 142.2c-.9-.5-1.1-1-1.1-2.5 0-1.1.1-1.5.4-1.9.2-.2 7.7-4.5 16.6-9.5 13.5-7.5 16.4-9.1 17.1-9.1s.9.2 2.2 1.5c1.2 1.2 1.5 1.6 1.5 2.1 0 .7.8.2-7.9 5-3.8 2.2-11.3 6.3-16.5 9.2-9.5 5.3-9.5 5.3-10.7 5.3-.7.1-1.4 0-1.6-.1z"/><path d="m191.4 119.7v-22.5l12.7.1c14 .1 13.4 0 16 1.4 1.4.7 3.1 2.5 3.7 3.9.9 1.9 1.1 3.3 1 9.9-.1 6.9-.1 7.1-1.7 9.3-.9 1.3-2.6 2.6-4 3.1-.4.1-.7.3-.7.4s1.7 2.9 3.8 6.2l3.8 6v2.3 2.3h-4.7-4.6l-4.2-8.1-4.2-8.1h-3.7-3.8v8.1 8.1h-4.7-4.7zm21.8-2.4c.5-.3 1.2-.9 1.5-1.3l.6-.9v-3.6-3.5l-.6-.9c-.3-.5-1-1.1-1.5-1.3-.9-.5-1-.5-6.7-.5h-5.8v6.2 6.2h5.8c5.7.1 5.9.1 6.7-.4z"/><path d="m227.6 140v-2.3l6.8-20.3 6.7-20.2h5.9l5.9.1 6.7 20.1 6.7 20.1v2.4 2.3h-4.7-4.6l-.2-.6c-.1-.4-.5-1.6-.8-2.7s-.9-2.9-1.2-4.1l-.6-2h-7.2l-7.2.1-1.2 3.9c-.7 2.1-1.3 4.2-1.4 4.7l-.2.7h-4.7-4.7zm24.3-15.4c0-.1-1.1-3.8-2.4-8.1s-2.4-7.9-2.4-8-1.2 3.3-2.4 7.6-2.4 8-2.5 8.2l-.1.4h5c3.8.1 4.9 0 4.8-.1z"/><path d="m270.4 119.8.1-22.5h12.6c13.7 0 13.7 0 16 1.1 1.4.7 3.1 2.3 3.8 3.4.3.4.7 1.3.9 1.9.4 1 .4 1.9.4 16v14.9l-.5 1.2c-1.2 3.3-3.9 5.4-7.5 6.1-.5.1-6.5.2-13.3.2h-12.4zm22 13.9c1-.5 1.6-1.1 2-2 .4-.7.4-1.3.4-12v-11.3l-.5-.9c-.3-.5-.9-1.1-1.3-1.5l-.9-.6-6.2-.1-6.2-.1v14.4 14.4l6-.1c5.4.2 6.1.2 6.7-.2z"/><path d="m310.4 119.8.1-22.5 4.7-.1h4.6v22.5 22.5h-4.7-4.7z"/><path d="m34.4 134.2c-.6-.6-.7-.6-.7-2.1 0-1.2.1-1.6.4-1.9.2-.2 1.8-1.2 3.6-2.2s9.1-5.1 16.3-9.1c14.2-8 14.3-8 14.8-6.7.1.3.6 1.1.9 1.7.4.7.7 1.4.7 1.8v.7l-4.6 2.5c-7.2 4-18.9 10.6-23.8 13.3-4.4 2.5-4.4 2.5-5.8 2.5-1 .1-1.3 0-1.8-.5z"/><path d="m31.1 126.5c-1-.4-1.3-1-1.3-2.6 0-1.1.1-1.4.5-1.8.2-.3 8-4.7 17.1-9.8 15.1-8.4 16.8-9.3 17.5-9.3l.8.1.5 1.8c.2 1 .5 2.2.5 2.6v.8l-9.4 5.3c-5.2 2.9-12 6.7-15.2 8.5-8.1 4.5-8.5 4.7-9.5 4.7-.5 0-1.2-.1-1.5-.3z"/><path d="m27.6 117.4c-.5-.5-.6-.7-.6-2.1 0-1.1.1-1.6.4-1.9.2-.2 8.5-5 18.4-10.5 15.1-8.4 18.2-10.1 18.9-10.1h.8l-.1 3c-.1 1.6-.2 3-.2 3.1s-1.1.7-2.4 1.4c-2.2 1.2-28.2 15.7-30.7 17.1-.9.5-1.3.6-2.5.6-1.3 0-1.5-.1-2-.6z"/><path d="m127.2 114.2c0-.3.4-1.4.9-2.4s1.1-2.4 1.3-3.1c.4-1.2.6-1.4 1.5-1.8.5-.3 2.1-1.2 3.5-2s7.9-4.5 14.6-8.2 13.5-7.5 15.2-8.5c3.1-1.8 3.1-1.8 4.6-1.8 1.3 0 1.5 0 2 .6.5.5.6.7.6 2s-.1 1.5-.5 2c-.3.3-3.6 2.3-7.4 4.4-3.7 2.1-10.3 5.7-14.5 8.1s-8.8 4.9-10.2 5.7-4.2 2.3-6.4 3.5c-2.8 1.6-4 2.2-4.5 2.2-.6-.1-.7-.2-.7-.7z"/><path d="m26.5 108.5c-1-.4-1.3-1-1.3-2.6 0-1.7.2-2 3.2-3.6 1.3-.7 4.2-2.4 6.6-3.7s7.8-4.3 12-6.7 8.2-4.6 8.9-5 3.7-2 6.7-3.7c6.1-3.4 6.8-3.6 6.8-2.4 0 .4-.3 1.3-.8 2.3-.4.8-1 2.2-1.3 3l-.6 1.4-4 2.3c-2.2 1.2-8.6 4.8-14.1 7.9-5.6 3.1-12.2 6.8-14.8 8.3-4 2.2-4.8 2.6-5.7 2.7-.6.1-1.3 0-1.6-.2z"/><path d="m96.3 104.3c-3.1-.7-4.9-3.2-4.9-6.7 0-3 1.1-5 3.5-6.2 1.3-.7 1.5-.7 3.4-.7 1.7 0 2.2.1 3.1.5 2.5 1.2 3.6 2.9 3.8 5.9.1 2.3-.3 3.7-1.4 5.1-1.5 1.9-4.6 2.8-7.5 2.1z"/><path d="m131.3 100.4c.1-1 .1-2.3.1-3v-1.2l5.9-3.3c3.2-1.8 10.9-6.1 17-9.5 9.8-5.5 11.3-6.3 12.2-6.4 1.3-.1 2 .1 2.6.7.4.4.5.7.5 2 0 1.2-.1 1.5-.4 2-.3.3-8.5 5-18.4 10.5-15.7 8.8-18.1 10-18.8 10h-.8z"/><path d="m26.2 98.6c-.3-.1-.7-.4-.9-.6-.8-.8-.8-3.2 0-4 .4-.4 11.5-6.7 17.1-9.7 2.8-1.5 74.5-41.6 76.7-42.9 1.1-.6 4.6-2.6 7.8-4.4 5-2.8 6-3.3 6.8-3.4 1.2-.1 2.1.2 2.7.9.6.8.6 3 0 3.7-.4.5-2.9 1.9-14.7 8.4-2.1 1.2-10.1 5.6-17.7 9.9s-15.1 8.4-16.5 9.2c-2.5 1.4-25.6 14.3-48.2 27-9.2 5.2-10.7 5.9-11.6 6-.5.1-1.2 0-1.5-.1z"/><path d="m130.9 92c-.4-1.1-.9-3.8-.9-4.5 0-.8 0-.8 1.3-1.5 2-1.1 26.4-14.7 29.1-16.2 2.4-1.3 2.5-1.4 3.8-1.4 2.1 0 2.7.7 2.7 2.8 0 1-.1 1.3-.5 1.8-.3.3-7.9 4.7-17.2 9.8-16.6 9.2-18 10-18.3 9.2z"/><path d="m356.4 91.4c-1.7-.4-2.9-1.2-4-2.4-1-1.1-1.6-2.1-2-3.6-.3-1-.3-2.9-.3-16.6 0-16.5 0-16.7 1-18.6.6-1.2 2.1-2.7 3.4-3.4 2.3-1.2 2.7-1.3 15.2-1.2 12.7.1 12.3 0 14.7 1.6.8.6 1.5 1.3 2.1 2.1 1.6 2.4 1.5 1.4 1.6 18.7 0 9.9 0 15.8-.2 16.5-.5 2.7-2.3 5.1-4.6 6.2-1.9.9-2.5 1-14.3 1-10 .1-11.5 0-12.6-.3zm16-22.6v-10h-3.4-3.4v10 10h3.4 3.4z"/><path d="m448.6 85.3v-6.5h6.9 6.9v-16.3-16.3h7.8 7.8v19.3l-.1 19.2-.5 1.3c-.9 2.5-2.6 4.3-5.2 5.3-1.1.5-1.2.5-12.4.5l-11.3.1z"/><path d="m190.2 68.7v-22.5h14.1c8.7 0 14.5.1 15.3.2 3.5.6 6.3 3 7.1 6.3.3 1 .3 2.5.3 9.1l-.1 7.9-.5 1.1c-.7 1.4-1.6 2.5-2.8 3.3l-.9.6 2.9 4.6 2.9 4.6v3.7 3.7h-7.8l-7.8-.1-2.6-7.1-2.6-7.1-.8-.1-.8-.1v7.2 7.2h-8.1-7.8zm21.2-7.1v-2.2h-2.8-2.8v2.2 2.2h2.8 2.8z"/><path d="m232.6 68.7v-22.5h17.2 17.2v4.7 4.6l-2 2-1.9 1.9h-7.5-7.4v1.5 1.5h6.3l6.2.1v6.2 6.2l-6.2.1h-6.3v1.6 1.6h9.4 9.4v6.5 6.5h-17.2-17.2z"/><path d="m278.6 75.6v-15.6h-5.3-5.3v-6.9-6.9h18.4 18.4v5.1 5l-1.9 1.9-1.8 1.8h-3.5-3.4v15.6 15.6h-7.8-7.8z"/><path d="m308 68.7v-22.5h14.1c8.7 0 14.5.1 15.3.2 3.5.6 6.3 3 7.1 6.3.3 1 .3 2.5.3 9.1l-.1 7.9-.5 1.1c-.7 1.4-1.6 2.5-2.8 3.3l-.9.6 2.9 4.6 2.9 4.6v3.7 3.7h-7.8l-7.8-.1-2.6-7.1-2.6-7.1-.8-.1-.8-.1v7.2 7.2h-7.8-8.1zm21.2-7.1v-2.2h-2.8-2.8v2.2 2.2h2.8 2.8z"/><path d="m409.8 68.7v-22.5h13.8c8.3 0 14.3.1 15 .2 3.6.6 6.4 3.3 7.2 6.8.2.8.2 5.2.2 16.2l-.1 15.1-.4 1.1c-.9 2.3-2.8 4.1-5.1 5l-1.2.5-14.6.1-14.7.1zm20.6.1v-9.4h-2.5-2.5v9.4 9.4h2.5 2.5z"/><path d="m31.5 85.5c-1-.4-1.3-1-1.3-2.5 0-1.1.1-1.4.5-1.8.2-.3 4-2.5 8.3-4.9 25.5-14.2 83.8-46.8 86.3-48.3 1.6-1 1.9-1.1 3.2-1.1 1.4-.1 1.5-.1 2.1.5.7.6.7.7.7 2.1 0 1.3-.1 1.6-.5 2-.3.3-2.3 1.5-4.4 2.6-5.9 3.3-32.1 17.9-81.4 45.4-3.2 1.8-7 3.9-8.4 4.7-2.7 1.6-3.9 1.9-5.1 1.3z"/><path d="m127.1 81.7c-.6-1.2-.9-1.9-.9-2.4v-.8l2.8-1.5c1.6-.9 4.8-2.7 7.2-4 22.5-12.6 22.7-12.7 23.9-12.7 2 0 2.7.8 2.7 2.9 0 .9-.1 1.3-.4 1.7-.4.5-.4.5-19.1 10.9-11.7 6.6-14 7.7-14.6 7.7-.7-.1-.7-.1-1.6-1.8z"/><path d="m22.6 79.7c-.7-.4-1-1.1-1-2.5 0-1.1.1-1.3.6-1.8s10.4-6.1 63.6-35.8c4.8-2.7 10.7-6 13.1-7.3l4.4-2.5h1.4c1.2 0 1.4.1 1.9.6s.6.7.6 2c0 1.7-.2 2-2.3 3.2-32.1 17.9-78.3 43.7-78.9 44-.9.5-2.6.5-3.4.1z"/><path d="m121.7 74.4c-1.2-1.2-1.5-1.7-1.5-2.2 0-.6.1-.7 5.5-3.7 3-1.7 8.1-4.5 11.3-6.3 17.8-10 17.2-9.6 18.2-9.6 2 0 2.8.8 2.8 2.8 0 1.1-.1 1.4-.4 1.8-.3.3-7.8 4.6-16.8 9.6-12.9 7.2-16.5 9.1-17 9.1-.6.1-.9-.2-2.1-1.5z"/><path d="m114.5 68.9c-.8-.5-1.7-1-2-1.2-.5-.3-.6-.5-.6-1v-.7l10.7-5.9c5.8-3.3 14-7.9 18.1-10.2l7.5-4.2h1.3c1.3 0 1.4 0 2 .7.6.6.7.7.7 2s0 1.4-.6 2c-.3.3-4.9 3-10.2 5.9-15 8.3-21.4 11.9-22.9 12.7-.8.5-1.6.8-2 .8-.3 0-1.2-.4-2-.9z"/><path d="m103.5 64.9c-.8-.1-2.1-.3-3-.4l-1.5-.1.1-.7.1-.7 7.6-4.3c4.2-2.3 13.6-7.6 21-11.8l13.4-7.5h1.4c1.2 0 1.4.1 2 .6.6.6.7.7.7 2s0 1.5-.6 2c-.5.5-17.6 10.2-34.5 19.5-3.7 1.9-3.9 1.9-6.7 1.4z"/><path d="m46.1 55.2c-1-.6-1.3-2.8-.5-4 .3-.5 4.6-3 20.1-11.7 10.8-6 23.8-13.3 28.8-16.1l9.1-5.1h1.4c1.4 0 1.5 0 2 .6.4.5.5.8.5 2 0 1-.1 1.5-.4 1.8 0 .3-13.2 7.7-29.1 16.6l-28.8 16.1h-1.4c-.7 0-1.5-.1-1.7-.2z"/></svg>