<svg xmlns="http://www.w3.org/2000/svg" xml:space="preserve" style="enable-background:new 0 0 500 500" viewBox="0 0 500 500">
  <path d="M0 0h500v500H0z" style="fill:#fff"/>
  <path d="m17.15 244.66 75.71-89.81c-25.19.17-50.39.35-75.58.52-.07-12.78-.14-25.55-.22-38.33l127.61-.15v36.69l-76.59 90.85h79.12v37.96l-129.71.51c-.11-12.75-.23-25.5-.34-38.24zm255.94-31.28c0 20.47-9.35 31.6-30.08 31.6-20.22 0-29.57-11.38-29.57-31.6v-96.01h-40.95v96.01c0 42.72 25.28 69.51 70.78 69.51 44.74 0 69.76-27.05 69.76-69.51v-96.01h-39.94v96.01zM411.3 117.3c-45.21 0-70.34 26.79-70.34 69.51v96.14h40.69v-96.14c0-20.22 9.55-31.6 29.64-31.6s29.64 11.38 29.64 31.6v96.14h40.7v-96.14c.01-42.71-25.11-69.51-70.33-69.51zm57.4 160.89c-4.46 0-8.08-3.62-8.08-8.08s3.62-8.08 8.08-8.08 8.08 3.62 8.08 8.08c0 4.47-3.62 8.08-8.08 8.08zM30.2 363.67h-6.96v18.48h-5.42l-.06-44.06h17.87c6.59 0 12.63 4.56 12.63 12.63 0 7.09-5.85 12.45-11.95 12.75l.55.43 12.38 17.62v.62h-5.67L30.2 363.67zm4.92-20.83H23.23v15.96h11.95c4 0 7.95-3.45 7.95-8.01 0-4.99-3.94-7.95-8.01-7.95zm110.96-4.87h-4.5l-17.31 44.18h5.48c1.36-3.39 2.71-7.09 4.01-10.47h19.78l3.94 10.47h5.61l-17.01-44.18zm-10.54 28.96 8.07-20.76 8.13 20.76h-16.2zm14.68-39.71h-13.16v-4.53h13.16v4.53zm104.32 54.93h-15.77v-43.99h16.51c9.37 0 19.59 7.39 19.59 22.06 0 14.6-10.72 21.93-20.33 21.93zm-.18-39.31h-10.17v34.57h10.04c7.15 0 15.47-5.73 15.47-17.13 0-11.77-7.46-17.44-15.34-17.44zm99.93-4.75h5.42v44.06h-5.42v-44.06zm105.81 44.8c-11.46 0-22-9.24-22-22.8 0-13.8 10.53-22.86 22-22.86 11.52 0 22.06 9.43 22.06 22.92 0 13.62-10.54 22.74-22.06 22.74zm0-40.67c-9.55 0-16.76 8.01-16.76 17.93 0 9.8 7.21 17.75 16.76 17.75 9.61 0 16.76-7.89 16.76-17.75 0-9.92-7.15-17.93-16.76-17.93z" style="fill:#12100e"/>
</svg>
