<svg enable-background="new 0 0 300 300" viewBox="0 0 300 300" xmlns="http://www.w3.org/2000/svg"><path d="m0 0h300v300h-300z" fill="#5e1e5f"/><g fill="#fff"><path d="m248.2 165.6h-34.7v-35.5c0-.1 0-.1 0-.2.3-9.1 8-16.3 17.1-15.9s16.3 8 15.9 17.1c0 .5-.1 1-.1 1.5 2.4-.3 4.8 0 7.1.7 8.7 2.9 13.4 12.2 10.5 20.9-2.2 6.7-8.4 11.2-15.4 11.4zm-28.3-6.4h28.7c5.6-.1 10.1-4.7 10-10.4s-4.7-10.1-10.4-10c-1.8 0-3.6.6-5.1 1.5s-3.5.5-4.4-1c-.6-1-.6-2.3 0-3.4 1.6-2.6 1.9-5.7 1-8.5-1.4-4.1-5.3-7-9.6-6.9-4.4 0-8.3 2.8-9.6 6.9-.3.9-.5 1.8-.5 2.7v29.1zm39.2 15c3.6-1.5 6.8-3.7 9.4-6.6 2.7-2.9 4.7-6.4 5.9-10.2.4-1.3-.4-2.7-1.8-3.1-1.3-.3-2.6.3-3 1.6-1 3.1-2.6 5.9-4.8 8.3-2.1 2.3-4.8 4.1-7.7 5.3-1.3.5-1.9 2-1.4 3.3.4.9 1.3 1.5 2.3 1.5.4.1.8.1 1.1-.1zm-50.2-50.9c1.2-3.5 3.2-6.6 5.9-9 2.3-2.1 5-3.7 7.9-4.7 1.3-.5 1.9-2 1.4-3.3-.5-1.2-1.7-1.8-3-1.5-3.6 1.2-6.9 3.2-9.7 5.7-3.3 3-5.8 6.8-7.2 11.1-.4 1.3.3 2.7 1.6 3.2s2.7-.2 3.1-1.5zm-11.4-.3c.2-1 .5-2.1.9-3.1 1.7-5.3 4.8-10 8.9-13.8 4.3-3.9 9.5-6.7 15.2-7.9 1.3-.3 2.2-1.6 1.9-3-.3-1.3-1.6-2.2-3-1.9-6.5 1.5-12.5 4.6-17.5 9.1-4.7 4.3-8.3 9.8-10.3 15.9-.4 1.2-.7 2.4-1 3.6-.3 1.3.5 2.7 1.9 3 .2 0 .4.1.6.1 1.1 0 2.1-.8 2.4-2zm59.1 63.6c1.3-.3 2.7-.6 4-1.1 6.1-2 11.6-5.5 16-10.3 4.7-5 7.9-11.2 9.3-17.9.3-1.4-.6-2.7-1.9-3-1.4-.3-2.7.6-3 1.9-1.2 5.8-4 11.2-8.1 15.6-3.8 4.1-8.6 7.2-13.9 8.9-1.1.4-2.3.7-3.5.9-1.4.3-2.2 1.6-1.9 3 .2 1.1 1.3 2 2.4 2zm-66-50.9c8.8 0 15.1 6.6 15.1 14.9s-6.3 14.9-15.1 14.9c-8.9 0-15.1-6.6-15.1-14.9s6.3-14.9 15.1-14.9m0 23.4c4.9 0 8.1-3.7 8.1-8.5s-3.2-8.5-8.1-8.5c-5 0-8.1 3.7-8.1 8.5s3.1 8.5 8.1 8.5m-172.8 5.8h6.9v-11.1h11v11.1h6.8v-28h-6.8v11h-11v-11h-6.9zm29.5 0h6.9v-28h-6.9zm35.3-27.9h11.7c6 0 9.9 3.6 9.9 8.9 0 4.9-2.5 7.7-6.6 8.7l7.6 10.4h-8.6l-7.1-10.5v10.5h-6.9zm12.3 12.1c1.5 0 2.6-1.6 2.6-3.2s-1.2-3.1-2.8-3.1h-5.3v6.3zm43.3-12.1h9.8c8.3 0 14.7 6.1 14.7 14 0 7.5-5.7 14.1-14.7 14.1h-9.8zm9.6 21.7c4.4 0 7.7-3.1 7.7-7.8 0-4.3-2.9-7.7-7.7-7.7h-2.8v15.5zm17.8 6.3h6.9v-28h-6.9zm-42-28h-5.1l-11.7 28h7.4l1.4-2.9h11.1l1.4 2.9h7.4zm-6 18.8 3.4-9.6 3.2 9.6zm1.4-21.4h4.6l3.2-5.2h-5.7zm-53.8 8.6h-7.2v-6.1h21.3v6.1h-7.3v21.9h-6.9v-21.9z"/><path d="m30.5 175c7.4 0 12.7 5.5 12.7 12.6 0 7-5.3 12.6-12.7 12.6-7.5 0-12.7-5.5-12.7-12.6s5.2-12.6 12.7-12.6zm0 19.6c4.2 0 6.8-3.1 6.8-7.1s-2.7-7.1-6.8-7.1c-4.2 0-6.8 3.1-6.8 7.1s2.6 7.1 6.8 7.1z"/><path d="m52.6 192.4c0 1.4 1.1 2.5 2.4 2.5 1.5 0 2.4-.8 2.4-2 0-1.8-2.3-2.3-4.2-2.9-4-1.4-6.2-3.3-6.2-7.3 0-4.2 3.6-7.6 8-7.6 5.2 0 7.7 3.3 8 7.7h-5.4c0-1.3-.8-2.4-2.4-2.4-1.3 0-2.5.7-2.5 2.3 0 1.8 2.2 2.1 4.2 2.7 4.2 1.3 6.2 3.6 6.2 7.3 0 4.2-3.5 7.6-8 7.6-5.1 0-8-3.5-8-7.7h5.5z"/><path d="m95.5 175.7h8.2c6.9 0 12.3 5.1 12.3 11.7 0 6.3-4.8 11.8-12.3 11.8h-8.2zm8.1 18.3c3.7 0 6.5-2.6 6.5-6.6 0-3.7-2.5-6.5-6.5-6.5h-2.3v13.1z"/><path d="m119.9 175.7h15.6v5.1h-9.8v4.2h9.1v5h-9.1v4.2h10.2v4.9h-16z"/><path d="m145.7 192.4c0 1.4 1.1 2.5 2.4 2.5 1.5 0 2.4-.8 2.4-2 0-1.8-2.3-2.3-4.2-2.9-4-1.4-6.2-3.3-6.2-7.3 0-4.2 3.6-7.6 8-7.6 5.2 0 7.7 3.3 8 7.7h-5.4c0-1.3-.8-2.4-2.4-2.4-1.3 0-2.5.7-2.5 2.3 0 1.8 2.2 2.1 4.2 2.7 4.2 1.3 6.2 3.6 6.2 7.3 0 4.2-3.5 7.6-8 7.6-5.1 0-8-3.5-8-7.7z"/><path d="m186.3 180.8h-5.3v-5.1h16.4v5.1h-5.3v18.4h-5.8z"/><path d="m201.6 175.7h5.8v10.5h.1l6.8-10.5h6.4l-8.1 11.2 8.5 12.4h-6.4l-7.2-11.4h-.1v11.4h-5.8z"/><path d="m67.5 175.7h5.4l6 13.2 6.1-13.2h5.3v23.6h-5.8v-10l-3.7 10h-3.8l-3.7-10.1v10.1h-5.8z"/><path d="m171.1 175.7h-4.3l-9.8 23.6h6.2l1.1-2.4h9.3l1.2 2.4h6.2zm-5 15.8 2.8-8 2.7 8zm1.2-18h3.9l2.7-4.4h-4.8z"/><path d="m237.5 175.7h-4.3l-9.8 23.6h6.2l1.1-2.4h9.3l1.2 2.4h6.2zm-5 15.8 2.8-8 2.7 8z"/></g></svg>