<svg xmlns="http://www.w3.org/2000/svg" viewBox="0 0 1530.7 1530.7">
  <defs>
    <style>
      .a {
        fill: #00ab96;
      }

      .b {
        fill: #fff;
      }
    </style>
  </defs>
  <g>
    <rect class="a" width="1530.7" height="1530.71"/>
    <path class="b" d="M543.3,295.5H295.7V418.7H795.3c-36.1-84.2-131.2-123.2-252-123.2m235,316.1H295.7V488.9h515c.2,4.8.3,9.7.3,14.6-.4,45.7-11.4,80.9-32.7,108.1M295.7,681.8V804.3H745.6L670.3,681.8Zm0,192.7H788.8l75.9,123.4h-569Z" transform="translate(-84.8 -84.7)"/>
    <g>
      <path class="b" d="M386.8,1409c-59.9,0-96.6-45.3-96.6-103,0-59.6,36.1-103.9,97.7-103.9s98.3,43.4,98.3,103.1S447.9,1409,386.8,1409Zm1.1-169.1c-36.4,0-51.2,33.6-51.2,65.5s14.6,65.8,51.5,65.8c34.7,0,51.3-29.9,51.3-63.8S427.1,1239.9,387.9,1239.9Z" transform="translate(-84.8 -84.7)"/>
      <path class="b" d="M537.7,1353.6c2.5,18.8,12.3,24.1,30.8,24.1,8.9,0,20.7-2,20.7-13.5,0-26-86.3-5-86.3-63,0-34.1,31.1-45.9,60.5-45.9,31.9,0,61.9,13.7,63.6,49.3l-38.7,2c-.8-15.4-13.4-21-25.4-21-7.9,0-20.2,1.4-20.2,12.3,0,22.1,88.5,4.7,88.5,62.1,0,37.6-33.9,48.8-65.5,48.8s-67.2-13.8-67.2-52.1V1355Z" transform="translate(-84.8 -84.7)"/>
      <path class="b" d="M697.9,1290.9v65.2c0,12.1,2.2,16.8,15.6,16.8,4.2,0,7-.3,11.2-.5v31.9a217.5,217.5,0,0,1-28.2,1.9c-33.9,0-39.8-16.2-39.8-45.3v-70H636v-31.4h20.7v-42.8h41.2v42.8h25.4v31.4Z" transform="translate(-84.8 -84.7)"/>
      <path class="b" d="M781.8,1283.3c7.8-20.1,19.8-26.6,37.5-26.6a38.4,38.4,0,0,1,7.3.6v37.5a57,57,0,0,0-9.8-.8c-29.7,0-33.1,21.8-33.1,39.2v71.4H741.4V1259.5h40.4Z" transform="translate(-84.8 -84.7)"/>
      <path class="b" d="M963.8,1404.6H924.3l-.3-13.2c-15.9,11.2-24.9,17.4-45.6,17.4-28,0-50.4-17.4-50.4-46.8,0-41.2,40-44.8,71.4-49.3,7.3-1.1,22.4-1.7,22.4-12s-13.5-13.5-22.1-13.5c-11.5,0-26.1,3.9-25.5,18.2H836.1c2-36.1,29.1-50.1,61.9-50.1,24.1,0,51.2,3.9,61.9,29.1,4.5,11,3.9,27.8,3.9,39.5Zm-40.9-69.5a92.3,92.3,0,0,1-10.1,3.4c-11.5,3.1-43.1,3.3-43.1,22.1,0,12,10.9,15.7,19.3,15.7,3.1,0,23.3-.3,33.9-18.8Z" transform="translate(-84.8 -84.7)"/>
      <path class="b" d="M1057.8,1404.6h-39.5l-50.1-145.1h44l26.6,89.9,24.1-89.9h43.7Z" transform="translate(-84.8 -84.7)"/>
      <path class="b" d="M1239.7,1404.6h-39.5l-.3-13.2c-15.9,11.2-24.9,17.4-45.6,17.4-28,0-50.4-17.4-50.4-46.8,0-41.2,40-44.8,71.4-49.3,7.3-1.1,22.4-1.7,22.4-12s-13.5-13.5-22.1-13.5c-11.5,0-26.1,3.9-25.5,18.2H1112c1.9-36.1,29.1-50.1,61.9-50.1,24.1,0,51.2,3.9,61.9,29.1,4.4,11,3.9,27.8,3.9,39.5Zm-40.9-69.5a100.1,100.1,0,0,1-10.1,3.4c-11.5,3.1-43.1,3.3-43.1,22.1,0,12,10.9,15.7,19.3,15.7,3.1,0,23.2-.3,33.9-18.8Z" transform="translate(-84.8 -84.7)"/>
    </g>
  </g>
</svg>
