<svg xmlns="http://www.w3.org/2000/svg" viewBox="0 0 1530.7 1530.7">
  <defs>
    <style>
      .a {
        fill: #cda200;
      }

      .b {
        fill: #fff;
      }
    </style>
  </defs>
  <g>
    <rect class="a" width="1530.7" height="1530.71"/>
    <path class="b" d="M543.3,295.5H295.7V418.7H795.3c-36.1-84.2-131.2-123.2-252-123.2m235,316.1H295.7V488.9h515c.2,4.8.3,9.7.3,14.6-.4,45.7-11.4,80.9-32.7,108.1M295.7,681.8V804.3H745.6L670.3,681.8Zm0,192.7H788.8l75.9,123.4h-569Z" transform="translate(-84.8 -84.7)"/>
    <g>
      <path class="b" d="M540,1206.9l-55.7,197.7H442.8l-28-133.9-28.5,133.9H345.4l-55.5-197.7h44.8l31.4,132.4,27.4-132.4h42.6l28,132.4,32.2-132.4Z" transform="translate(-84.8 -84.7)"/>
      <path class="b" d="M669.2,1404.6H629.7l-.3-13.2c-16,11.2-24.9,17.4-45.7,17.4-28,0-50.4-17.4-50.4-46.8,0-41.2,40.1-44.8,71.4-49.3,7.3-1.1,22.4-1.7,22.4-12s-13.4-13.5-22.1-13.5c-11.5,0-26,3.9-25.5,18.2H541.4c2-36.1,29.2-50.1,61.9-50.1,24.1,0,51.3,3.9,61.9,29.1,4.5,11,3.9,27.8,3.9,39.5Zm-41-69.5a98.7,98.7,0,0,1-10,3.4c-11.5,3.1-43.2,3.3-43.2,22.1,0,12,11,15.7,19.4,15.7,3,0,23.2-.3,33.8-18.8Z" transform="translate(-84.8 -84.7)"/>
      <path class="b" d="M763.2,1404.6H723.7l-50.1-145.1h43.9l26.6,89.9,24.1-89.9h43.7Z" transform="translate(-84.8 -84.7)"/>
      <path class="b" d="M852.4,1344.1c2.6,17.9,12.4,31.1,31.4,31.1,12.9,0,21-4.5,27.2-15.4l41.4,2.8c-10.4,31-37.8,46.2-69.7,46.2-45.9,0-73.4-32.2-73.4-76.8s28.9-76.7,73.4-76.7c48.4,0,71.4,37,71.4,81.8v7Zm58.3-31.4c-1.4-14.5-12.1-24.9-26.9-24.9-17.6,0-26.6,8.4-31.1,24.9Z" transform="translate(-84.8 -84.7)"/>
    </g>
  </g>
</svg>
