<svg xmlns="http://www.w3.org/2000/svg" viewBox="0 0 1530.7 1530.7">
  <defs>
    <style>
      .a {
        fill: #00ab96;
      }

      .b {
        fill: #fff;
      }
    </style>
  </defs>
  <g>
    <rect class="a" width="1530.7" height="1530.71"/>
    <path class="b" d="M421.3,211H211.1V315.6h424C604.5,244.2,523.8,211,421.3,211M620.8,479.3H211.1V375.2H648.2c.2,4.1.3,8.2.3,12.4-.4,38.8-9.6,68.6-27.7,91.7M211.1,538.9v104H593l-64-104Zm0,163.6H629.6L694,807.2H211.1Z" transform="translate(-0.2 -0.2)"/>
    <g>
      <path class="b" d="M323.5,1134.6H288.1l-37.8-57.2-11.7,11.5v45.7H210.1V1007.1h28.5v48.8l44.9-48.8h37.1L269.8,1058Z" transform="translate(-0.2 -0.2)"/>
      <path class="b" d="M409.4,1134.6H383.9l-.2-8.5c-10.3,7.2-16,11.2-29.4,11.2-18.1,0-32.5-11.2-32.5-30.2,0-26.5,25.8-28.8,46-31.7,4.7-.8,14.5-1.1,14.5-7.8s-8.7-8.7-14.3-8.7c-7.4,0-16.8,2.6-16.4,11.8H327c1.3-23.3,18.8-32.4,39.9-32.4,15.6,0,33.1,2.6,39.9,18.8,2.9,7.1,2.6,17.9,2.6,25.5ZM383,1089.8c-2.5.9-4.2,1.6-6.5,2.2-7.4,2-27.8,2.1-27.8,14.2,0,7.8,7,10.2,12.5,10.2,1.9,0,14.9-.2,21.8-12.1Z" transform="translate(-0.2 -0.2)"/>
      <path class="b" d="M450.7,1056.4c5-13,12.8-17.1,24.2-17.1a32,32,0,0,1,4.7.3v24.2a48.5,48.5,0,0,0-6.4-.5c-19.1,0-21.3,14.1-21.3,25.3v46H424.7v-93.5h26Z" transform="translate(-0.2 -0.2)"/>
      <path class="b" d="M512.4,1134.6H485.8V1007.1h26.6Z" transform="translate(-0.2 -0.2)"/>
      <path class="b" d="M570.6,1137.3c-29.2,0-47.5-20.2-47.5-48.9,0-30.4,19.7-50,50.1-50,28.7,0,46.7,21.1,46.7,49.1S599.7,1137.3,570.6,1137.3Zm1.3-77.6c-16.1,0-21.5,13.7-21.5,27.6s5.1,28.3,21.1,28.3,21.2-15.3,21.2-29.2S587.6,1059.7,571.9,1059.7Z" transform="translate(-0.2 -0.2)"/>
      <path class="b" d="M675.6,1134.6H650.1l-32.3-93.5h28.3l17.2,57.9,15.5-57.9H707Z" transform="translate(-0.2 -0.2)"/>
      <path class="b" d="M799.3,1041.1l-30.9,92.8c-1.6,5-4.9,15.3-8.9,20.2-6.8,8.7-17.5,9.2-34.1,9.2-2.9,0-6.3-.4-7-.4V1142h8.8c10.7,0,13.4-5.6,13.4-11.7,0-3.8-1.3-6.5-3.8-13.4l-27.1-75.8h28.9l17,63,15.5-63Z" transform="translate(-0.2 -0.2)"/>
      <path class="b" d="M316.2,1192.6l-44.6,127.5H245.1l-44.8-127.5h31.2l27.1,92.6,26.7-92.6Z" transform="translate(-0.2 -0.2)"/>
      <path class="b" d="M396.9,1320.1H371.5l-.2-8.5c-10.3,7.2-16.1,11.2-29.5,11.2-18,0-32.5-11.2-32.5-30.2,0-26.5,25.9-28.9,46.1-31.8,4.7-.7,14.4-1.1,14.4-7.7s-8.6-8.7-14.2-8.7c-7.4,0-16.8,2.5-16.5,11.7H314.6c1.2-23.3,18.7-32.3,39.9-32.3,15.5,0,33,2.5,39.9,18.8,2.9,7,2.5,17.9,2.5,25.5Zm-26.4-44.8a44.5,44.5,0,0,1-6.5,2.1c-7.4,2-27.8,2.2-27.8,14.3,0,7.8,7.1,10.1,12.5,10.1,2,0,15-.2,21.8-12.1Z" transform="translate(-0.2 -0.2)"/>
      <path class="b" d="M438.2,1241.9c5.1-13,12.8-17.2,24.2-17.2a23.1,23.1,0,0,1,4.7.4v24.2a35.2,35.2,0,0,0-6.3-.6c-19.2,0-21.3,14.1-21.3,25.3v46.1H412.2v-93.6h26Z" transform="translate(-0.2 -0.2)"/>
      <path class="b" d="M558.9,1226.5,528,1319.3c-1.6,5.1-4.9,15.4-8.9,20.3-6.8,8.6-17.5,9.2-34.1,9.2-2.9,0-6.3-.4-7-.4v-20.9h8.8c10.7,0,13.4-5.6,13.4-11.8,0-3.8-1.3-6.5-3.8-13.3l-27.1-75.9h28.9l17,63,15.5-63Z" transform="translate(-0.2 -0.2)"/>
    </g>
  </g>
</svg>
