<svg enable-background="new 0 0 287 119" viewBox="0 0 287 119" xmlns="http://www.w3.org/2000/svg" xmlns:xlink="http://www.w3.org/1999/xlink"><linearGradient id="a" gradientTransform="matrix(.1218 0 0 -.1218 -340.7408 -239.2145)" gradientUnits="userSpaceOnUse" x1="4282.2939" x2="4807.3633" y1="-2765.2305" y2="-2195.1553"><stop offset="0" stop-color="#007db9"/><stop offset="1" stop-color="#45ff99"/></linearGradient><path d="m255 44.5c-5.4 0-9.9 4.5-9.9 9.9v.4c0 3.2-2.6 5.9-5.9 5.9-3.2 0-5.9-2.6-5.9-5.9v-9.4c0-5.4-4.5-9.9-9.9-9.9h-1.4c-4.6 0-8.5 3.8-8.5 8.5 0 3.2-2.6 5.9-5.9 5.9-3.2 0-5.9-2.6-5.9-5.9v-16c0-5.4-4.5-9.9-9.9-9.9-5.4 0-9.9 4.5-9.9 9.9v66.2c0 5.4 4.5 9.9 9.9 9.9 5.4 0 9.9-4.5 9.9-9.9v-30.5c0-3.2 2.6-5.9 5.9-5.9 3.2 0 5.9 2.6 5.9 5.9v18.1c0 5.4 4.5 9.9 9.9 9.9 5.4 0 9.9-4.5 9.9-9.9v-7.2c0-3.2 2.6-5.9 5.9-5.9 3.2 0 5.9 2.6 5.9 5.9v.4c0 5.4 4.5 9.9 9.9 9.9 5.4 0 9.9-4.5 9.9-9.9v-20.6c0-5.4-4.5-9.9-9.9-9.9z" fill="url(#a)"/><path d="m38.6 82.4c-3.8 0-7.2-.9-10.3-2.6s-5.6-4.2-7.5-7.3c-1.8-3.1-2.8-6.7-2.8-10.6 0-3.9.9-7.4 2.8-10.5 1.8-3.1 4.3-5.5 7.5-7.3 3.1-1.7 6.6-2.6 10.3-2.6 3.8 0 7.2.9 10.3 2.6s5.6 4.2 7.4 7.3 2.7 6.6 2.7 10.5c0 3.9-.9 7.4-2.7 10.6-1.8 3.1-4.3 5.6-7.4 7.3-3.1 1.8-6.6 2.6-10.3 2.6zm0-8.9c3.2 0 5.7-1.1 7.7-3.2 1.9-2.1 2.9-4.9 2.9-8.4 0-3.5-1-6.4-2.9-8.5s-4.5-3.2-7.7-3.2c-3.2 0-5.8 1-7.7 3.1s-2.9 4.9-2.9 8.5c0 3.5 1 6.4 2.9 8.5 1.9 2.2 4.4 3.2 7.7 3.2zm41.6-24h-5.7v-9.1h15.8v41.6h-10.1zm16.8 11.2c0-6.5 1.3-11.7 3.8-15.5s6.6-5.7 12.2-5.7c5.6 0 9.7 1.9 12.2 5.7s3.8 8.9 3.8 15.5c0 6.6-1.3 11.8-3.8 15.6s-6.6 5.6-12.2 5.6c-5.6 0-9.7-1.9-12.2-5.6-2.5-3.9-3.8-9-3.8-15.6zm22.5 0c0-3.8-.4-6.8-1.2-8.9s-2.6-3.1-5.2-3.1c-2.6 0-4.4 1-5.2 3.1s-1.2 5-1.2 8.9c0 2.6.2 4.7.5 6.4s.9 3.1 1.9 4.1c.9 1 2.3 1.6 4.1 1.6 1.8 0 3.2-.5 4.1-1.6.9-1 1.5-2.4 1.8-4.1.2-1.7.4-3.9.4-6.4zm35.2-9.1c-.3-1.4-.8-2.5-1.6-3.2s-1.8-1.1-3.2-1.1c-2.2 0-3.7.9-4.7 2.8-.9 1.9-1.4 4.9-1.5 8.9.8-1.3 2-2.4 3.6-3.1 1.6-.8 3.3-1.1 5.2-1.1 3.7 0 6.7 1.2 9 3.5 2.3 2.4 3.4 5.6 3.4 9.9 0 2.8-.6 5.2-1.7 7.3s-2.8 3.7-4.9 4.9-4.7 1.8-7.6 1.8c-5.8 0-9.9-1.8-12.2-5.5s-3.4-8.9-3.4-15.8c0-7.2 1.2-12.6 3.6-16.1s6.3-5.3 11.6-5.3c2.8 0 5.2.6 7.2 1.7s3.4 2.6 4.4 4.4 1.6 3.8 1.8 6zm-4.5 11c-1.6 0-3 .5-4.1 1.5s-1.6 2.3-1.6 4.1c0 1.8.5 3.2 1.5 4.3 1 1 2.4 1.5 4.3 1.5 1.7 0 3-.5 4-1.5s1.4-2.4 1.4-4.1c0-1.8-.5-3.2-1.4-4.2-.9-1.1-2.3-1.6-4.1-1.6z" fill="#414753"/></svg>