<svg xmlns="http://www.w3.org/2000/svg" viewBox="0 0 1530.7 1530.7">
  <defs>
    <style>
      .a {
        fill: #00ab96;
      }

      .b {
        fill: #fff;
      }
    </style>
  </defs>
  <g>
    <rect class="a" width="1530.7" height="1530.71"/>
    <path class="b" d="M543.3,295.5H295.7V418.7H795.3c-36.1-84.2-131.2-123.2-252-123.2m235,316.1H295.7V488.9h515c.2,4.8.3,9.7.3,14.6-.4,45.7-11.4,80.9-32.7,108.1M295.7,681.8V804.3H745.6L670.3,681.8Zm0,192.7H788.8l75.9,123.4h-569Z" transform="translate(-84.8 -84.7)"/>
    <g>
      <path class="b" d="M434.1,1367.6v37h-138V1206.9h44.5v160.7Z" transform="translate(-84.8 -84.7)"/>
      <path class="b" d="M487.8,1244.1H446.9v-37.2h40.9Zm0,160.5H446.9V1259.5h40.9Z" transform="translate(-84.8 -84.7)"/>
      <path class="b" d="M552.4,1206.9v63.3c10.1-10.4,24.1-14.6,38.4-14.6,42.8,0,61.3,35.8,61.3,73.9s-16.5,79.3-61,79.3c-16.8,0-28.3-7-39.5-19.1,0,5.1.8,14.9.8,14.9H511.5V1206.9Zm30.3,82.6c-24.1,0-30.6,21.5-30.6,41.7s5.1,43.1,29.7,43.1,28.9-26,28.9-44.8S604.8,1289.5,582.7,1289.5Z" transform="translate(-84.8 -84.7)"/>
      <path class="b" d="M706,1344.1c2.6,17.9,12.4,31.1,31.4,31.1,12.9,0,21-4.5,27.2-15.4l41.4,2.8c-10.4,31-37.8,46.2-69.7,46.2-45.9,0-73.4-32.2-73.4-76.8s28.9-76.7,73.4-76.7c48.4,0,71.4,37,71.4,81.8v7Zm58.3-31.4c-1.4-14.5-12.1-24.9-26.9-24.9-17.6,0-26.6,8.4-31.1,24.9Z" transform="translate(-84.8 -84.7)"/>
      <path class="b" d="M864.2,1283.3c7.9-20.1,19.9-26.6,37.5-26.6a37.3,37.3,0,0,1,7.3.6v37.5a55.5,55.5,0,0,0-9.8-.8c-29.7,0-33,21.8-33,39.2v71.4H823.9V1259.5h40.3Z" transform="translate(-84.8 -84.7)"/>
      <path class="b" d="M954.9,1344.1c2.6,17.9,12.4,31.1,31.4,31.1,12.9,0,21-4.5,27.2-15.4l41.4,2.8c-10.4,31-37.8,46.2-69.7,46.2-45.9,0-73.4-32.2-73.4-76.8s28.9-76.7,73.4-76.7c48.4,0,71.4,37,71.4,81.8v7Zm58.3-31.4c-1.4-14.5-12.1-24.9-26.9-24.9-17.6,0-26.6,8.4-31.1,24.9Z" transform="translate(-84.8 -84.7)"/>
      <path class="b" d="M1206.3,1350.8c-7.6,40-33,58-68.6,58-46.2,0-71.7-31.7-71.7-76.2s27.5-77.3,74.2-77.3c30.5,0,62.7,18.5,64.7,54.6l-39.8,1.7c-2.5-14.3-11.2-22.4-25.7-22.4-23.5,0-30.5,21.3-30.5,41.4s5.6,43.2,29.6,43.2c15.2,0,26.1-9.8,27.8-25Z" transform="translate(-84.8 -84.7)"/>
    </g>
  </g>
</svg>
