<svg xmlns="http://www.w3.org/2000/svg" viewBox="0 0 1530.7 1530.7">
  <defs>
    <style>
      .a {
        fill: #00b8e0;
      }

      .b {
        fill: #fff;
      }
    </style>
  </defs>
  <g>
    <rect class="a" width="1530.7" height="1530.71"/>
    <path class="b" d="M543.3,295.5H295.7V418.7H795.3c-36.1-84.2-131.2-123.2-252-123.2m235,316.1H295.7V488.9h515c.2,4.8.3,9.7.3,14.6-.4,45.7-11.4,80.9-32.7,108.1M295.7,681.8V804.3H745.6L670.3,681.8Zm0,192.7H788.8l75.9,123.4h-569Z" transform="translate(-84.8 -84.7)"/>
    <g>
      <path class="b" d="M469,1206.9l-69.2,197.7H358.6l-69.4-197.7h48.4l42,143.6,41.5-143.6Z" transform="translate(-84.8 -84.7)"/>
      <path class="b" d="M521.8,1404.6H480.6V1206.9h41.2Z" transform="translate(-84.8 -84.7)"/>
      <path class="b" d="M596.2,1290.9v65.2c0,12.1,2.2,16.8,15.7,16.8,4.2,0,7-.3,11.2-.5v31.9a219.8,219.8,0,0,1-28.3,1.9c-33.9,0-39.8-16.2-39.8-45.3v-70H534.3v-31.4H555v-42.8h41.2v42.8h25.5v31.4Z" transform="translate(-84.8 -84.7)"/>
      <path class="b" d="M768.1,1404.6H728.6l-.3-13.2c-15.9,11.2-24.9,17.4-45.6,17.4-28,0-50.4-17.4-50.4-46.8,0-41.2,40-44.8,71.4-49.3,7.3-1.1,22.4-1.7,22.4-12s-13.5-13.5-22.1-13.5c-11.5,0-26.1,3.9-25.5,18.2H640.4c1.9-36.1,29.1-50.1,61.9-50.1,24.1,0,51.2,3.9,61.9,29.1,4.4,11,3.9,27.8,3.9,39.5Zm-40.9-69.5a100.1,100.1,0,0,1-10.1,3.4c-11.5,3.1-43.1,3.3-43.1,22.1,0,12,10.9,15.7,19.3,15.7,3.1,0,23.2-.3,33.9-18.8Z" transform="translate(-84.8 -84.7)"/>
      <path class="b" d="M862.1,1404.6H822.6l-50.1-145.1h44l26.6,89.9,24.1-89.9h43.6Z" transform="translate(-84.8 -84.7)"/>
      <path class="b" d="M1044,1404.6h-39.5l-.3-13.2c-16,11.2-24.9,17.4-45.6,17.4-28.1,0-50.5-17.4-50.5-46.8,0-41.2,40.1-44.8,71.5-49.3,7.2-1.1,22.4-1.7,22.4-12s-13.5-13.5-22.2-13.5c-11.4,0-26,3.9-25.4,18.2H916.3c1.9-36.1,29.1-50.1,61.9-50.1,24,0,51.2,3.9,61.8,29.1,4.5,11,4,27.8,4,39.5Zm-40.9-69.5c-4,1.4-6.5,2.5-10.1,3.4-11.5,3.1-43.1,3.3-43.1,22.1,0,12,10.9,15.7,19.3,15.7,3.1,0,23.2-.3,33.9-18.8Z" transform="translate(-84.8 -84.7)"/>
    </g>
  </g>
</svg>
