<svg xmlns="http://www.w3.org/2000/svg" viewBox="0 0 1530.7 1530.7">
  <defs>
    <style>
      .a {
        fill: #00ab96;
      }

      .b {
        fill: #fff;
      }
    </style>
  </defs>
  <g>
    <rect class="a" width="1530.7" height="1530.71"/>
    <path class="b" d="M421.3,211H211.1V315.6h424C604.5,244.2,523.8,211,421.3,211M620.8,479.3H211.1V375.2H648.2c.2,4.1.3,8.2.3,12.4-.4,38.8-9.6,68.6-27.7,91.7M211.1,538.9v104H593l-64-104Zm0,163.6H629.6L694,807.2H211.1Z" transform="translate(-0.2 -0.2)"/>
    <g>
      <path class="b" d="M326.9,1092c-3.8,31.9-31.1,45.5-57.4,45.5-42.8,0-63.2-32.5-63.2-67.2,0-39,24-66.3,63.9-66.3,24.5,0,50.5,12.9,54.9,41.6l-28.7,2c-3.8-13.8-14.8-19.5-26.6-19.5-24.2,0-32.7,20.9-32.7,42,0,18.6,6.5,43.4,32.7,43.4,13.6,0,27.1-9.1,27.3-23.5ZM284,995.4H253l-16.7-21.1h24.4l8.1,12.2,7.7-12.2h24.8Z" transform="translate(-0.2 -0.2)"/>
      <path class="b" d="M360.3,1095.6c1.7,11.5,8,20,20.3,20,8.3,0,13.5-2.9,17.5-9.9l26.7,1.8c-6.7,20.1-24.4,29.8-45,29.8-29.6,0-47.3-20.8-47.3-49.5s18.6-49.4,47.3-49.4c31.3,0,46.1,23.8,46.1,52.7v4.5Zm37.6-20.2c-.9-9.4-7.8-16.1-17.3-16.1-11.4,0-17.2,5.4-20.1,16.1Z" transform="translate(-0.2 -0.2)"/>
      <path class="b" d="M456.2,1101.7c1.7,12.1,8,15.6,19.9,15.6,5.8,0,13.4-1.3,13.4-8.7,0-16.8-55.6-3.3-55.6-40.6,0-22.1,20-29.6,39-29.6,20.5,0,39.9,8.8,40.9,31.7l-24.9,1.3c-.5-9.9-8.6-13.5-16.4-13.5-5.1,0-13,.9-13,7.9,0,14.3,57.1,3.1,57.1,40.1,0,24.2-21.9,31.4-42.3,31.4s-43.3-8.8-43.3-33.6v-1.1Z" transform="translate(-0.2 -0.2)"/>
      <path class="b" d="M617.7,1041.1l-36.1,35.4,38.7,58.1H586.5L563,1094.9l-8.7,8.6v31.1H527.8V1007.1h26.5V1073l28.9-31.9Z" transform="translate(-0.2 -0.2)"/>
      <path class="b" d="M642,1095.6c1.6,11.5,8,20,20.2,20,8.3,0,13.6-2.9,17.5-9.9l26.8,1.8c-6.7,20.1-24.4,29.8-45,29.8-29.6,0-47.3-20.8-47.3-49.5s18.6-49.4,47.3-49.4c31.3,0,46.1,23.8,46.1,52.7v4.5Zm37.6-20.2c-.9-9.4-7.8-16.1-17.4-16.1-11.3,0-17.1,5.4-20,16.1Zm-30.4-47.2,8.2-26.5h29.8l-20.1,26.5Z" transform="translate(-0.2 -0.2)"/>
      <path class="b" d="M210.9,1192.6h57.8c24.2,0,43,8.6,43,32.8a27.3,27.3,0,0,1-18,26.2c6.8,2.7,21.3,11,21.3,30.9,0,30.3-25.5,37.6-44.3,37.6H210.9Zm28.6,49.1h23.6c9.8,0,20.3-.7,20.3-12.1s-10.9-13.2-19-13.2H239.5Zm0,54.9h22.9c15,0,23.5-4.7,23.5-16.3,0-14-11.9-15.7-20.2-15.7H239.5Z" transform="translate(-0.2 -0.2)"/>
      <path class="b" d="M385.8,1320.1v-10.3c-5.2,8.5-16.9,12.6-26.5,12.6-29.3,0-31.3-23.6-31.3-41.3v-54.6h26.6v53.7c0,10.2,2,20.2,14.6,20.2s16.1-11,16.1-25.1v-48.8h25.8v93.6Z" transform="translate(-0.2 -0.2)"/>
      <path class="b" d="M487.6,1320.1V1311c-5.4,8.5-15.1,11.4-24.7,11.4-26.5,0-39.9-24.4-39.9-48.2,0-25.5,12.8-50,41.2-50a33.8,33.8,0,0,1,22.4,8.5v-40.1h26.9v127.5ZM468.9,1246c-14.3,0-18.8,15.2-18.8,26.9s3.8,27.5,19.1,27.5,18.3-14.3,18.3-26.6S484.4,1246,468.9,1246Z" transform="translate(-0.2 -0.2)"/>
      <path class="b" d="M553,1281.1c1.7,11.5,8,20,20.3,20,8.3,0,13.5-2.9,17.5-9.9l26.7,1.8c-6.7,20-24.4,29.8-45,29.8-29.6,0-47.3-20.8-47.3-49.5s18.6-49.5,47.3-49.5c31.3,0,46.1,23.9,46.1,52.7v4.6Zm10.7-93.9,8.8,14.9,9.2-14.9h20.4L585,1213.7H559.5l-15.9-26.5Zm26.9,73.6c-.9-9.4-7.8-16-17.3-16-11.4,0-17.2,5.4-20.1,16Z" transform="translate(-0.2 -0.2)"/>
      <path class="b" d="M655.9,1226.5V1323c0,21.6-12.1,26.9-31.4,26.9H613.6v-22.4h.9c7.6,0,15-.2,15-10v-91Zm-26.4-10.3v-23.6h26.4v23.6Z" transform="translate(-0.2 -0.2)"/>
      <path class="b" d="M713.9,1322.8c-29.3,0-47.5-20.3-47.5-49,0-30.3,19.7-50,50-50,28.7,0,46.8,21.1,46.8,49.1S742.9,1322.8,713.9,1322.8Zm1.2-77.7c-16,0-21.4,13.7-21.4,27.7s5,28.3,21.1,28.3,21.1-15.3,21.1-29.3S730.8,1245.1,715.1,1245.1Z" transform="translate(-0.2 -0.2)"/>
      <path class="b" d="M818.8,1320.1H793.3L761,1226.5h28.4l17.1,58,15.6-58h28.1Z" transform="translate(-0.2 -0.2)"/>
      <path class="b" d="M883.3,1216.6H857v-24h26.3Zm0,103.5H857v-93.6h26.3Z" transform="translate(-0.2 -0.2)"/>
      <path class="b" d="M984.7,1285.4c-4.9,25.8-21.3,37.4-44.3,37.4-29.8,0-46.2-20.4-46.2-49.1s17.7-49.9,47.9-49.9c19.6,0,40.4,11.9,41.7,35.2l-25.7,1.1c-1.6-9.2-7.2-14.4-16.6-14.4-15.2,0-19.7,13.7-19.7,26.7s3.6,27.8,19.2,27.8c9.7,0,16.8-6.3,17.8-16.1Z" transform="translate(-0.2 -0.2)"/>
      <path class="b" d="M1017.7,1281.1c1.6,11.5,7.9,20,20.2,20,8.3,0,13.5-2.9,17.5-9.9l26.7,1.8c-6.7,20-24.4,29.8-44.9,29.8-29.7,0-47.4-20.8-47.4-49.5s18.6-49.5,47.4-49.5c31.2,0,46,23.9,46,52.7v4.6Zm37.5-20.3c-.9-9.4-7.7-16-17.3-16-11.4,0-17.2,5.4-20.1,16Z" transform="translate(-0.2 -0.2)"/>
    </g>
  </g>
</svg>
