<svg enable-background="new 0 0 300 300" viewBox="0 0 300 300" xmlns="http://www.w3.org/2000/svg"><path d="m0 0h300v300h-300z" fill="#125baa"/><g fill="#fff"><path d="m245.3 150.3h-34.4v-35.2c0-.1 0-.1 0-.2.5-9 8.1-16 17.2-15.6 9 .5 16 8.1 15.6 17.2 0 .3 0 .7-.1 1 2.4-.3 4.8 0 7.1.7 8.6 2.8 13.3 12.1 10.4 20.7-2.2 6.6-8.3 11.1-15.3 11.2zm-28-6.4h28.5c5.6-.1 10-4.7 9.9-10.2-.1-5.6-4.7-10-10.2-9.9-1.8 0-3.6.6-5.1 1.5s-3.4.5-4.4-1c-.6-1-.6-2.3 0-3.3 1.5-2.5 1.9-5.6.9-8.4-1.4-4.1-5.2-6.9-9.5-6.9-5.3 0-9.7 4.2-10 9.5zm38.8 14.9c3.5-1.5 6.7-3.7 9.3-6.5 2.7-2.9 4.7-6.3 5.9-10.1.4-1.3-.4-2.7-1.7-3-1.2-.3-2.5.3-3 1.5-1 3-2.6 5.8-4.8 8.2-2.1 2.3-4.7 4.1-7.6 5.3-1.3.5-1.9 2-1.3 3.2.4.9 1.3 1.5 2.3 1.5.2.1.6 0 .9-.1zm-49.7-50.4c1.2-3.4 3.2-6.5 5.8-8.9 2.3-2.1 4.9-3.7 7.8-4.6 1.3-.4 2.1-1.7 1.7-3s-1.7-2.1-3-1.7c-.1 0-.2.1-.3.1-3.6 1.2-6.8 3.1-9.6 5.7-3.3 3-5.7 6.8-7.1 11-.4 1.3.2 2.7 1.5 3.1 1.4.3 2.8-.4 3.2-1.7zm-11.3-.3c.2-1 .5-2.1.9-3.1 1.7-5.2 4.8-9.9 8.9-13.7 4.2-3.9 9.4-6.6 15-7.8 1.3-.3 2.2-1.6 1.9-3-.3-1.3-1.6-2.2-3-1.9-6.5 1.4-12.4 4.6-17.3 9-4.7 4.3-8.2 9.7-10.2 15.8-.4 1.2-.7 2.3-1 3.5-.3 1.3.5 2.7 1.9 3 .2 0 .4.1.6.1 1.1 0 2.1-.8 2.3-1.9zm58.5 62.9c1.3-.3 2.7-.6 3.9-1.1 6.1-2 11.5-5.5 15.8-10.1 4.6-5 7.8-11.1 9.2-17.7.3-1.3-.6-2.7-1.9-2.9-1.3-.3-2.7.6-2.9 1.9-1.2 5.8-4 11.1-8 15.4-3.8 4.1-8.5 7.1-13.8 8.8-1.1.4-2.3.7-3.4.9-1.3.3-2.2 1.6-1.9 2.9.2 1.1 1.2 2 2.4 2 .3 0 .5-.1.6-.1zm-65.3-50.3c8.7 0 14.9 6.5 14.9 14.8s-6.2 14.8-14.9 14.8c-8.8 0-14.9-6.5-14.9-14.8s6.1-14.8 14.9-14.8m0 23.2c4.9 0 8-3.7 8-8.4s-3.1-8.4-8-8.4-8 3.7-8 8.4 3.1 8.4 8 8.4m-171 5.7h6.8v-11h10.9v11h6.7v-27.7h-6.7v10.9h-10.9v-10.9h-6.8zm29.2 0h6.8v-27.7h-6.8zm34.9-27.7h11.6c6 0 9.8 3.6 9.8 8.8 0 4.9-2.5 7.6-6.6 8.6l7.5 10.3h-8.5l-7.1-10.4v10.4h-6.8v-27.7zm12.2 12.1c1.5 0 2.5-1.6 2.5-3.2s-1.2-3.1-2.7-3.1h-5.3v6.2zm42.8-12.1h9.7c8.2 0 14.5 6 14.5 13.8 0 7.4-5.6 13.9-14.5 13.9h-9.7zm9.5 21.6c4.3 0 7.7-3.1 7.7-7.7 0-4.3-2.9-7.7-7.7-7.7h-2.7v15.4zm17.6 6.2h6.8v-27.7h-6.8zm-41.5-27.8h-5l-11.6 27.7h7.3l1.3-2.9h11l1.4 2.9h7.3zm-5.9 18.6 3.3-9.5 3.2 9.5zm1.4-21.1h4.6l3.2-5.1h-5.7zm-53.3 8.5h-7.1v-6h21.1v6h-7.2v21.7h-6.8z"/><path d="m90.3 158.1h4.6l3.2-5.2h-5.7z"/><path d="m48.9 160.7h6.9v28.1h-6.9z"/><path d="m60.3 160.7h6.9v22.2h12.2v5.9h-19.1z"/><path d="m82.8 160.7h18.6v6.1h-11.7v5.1h10.8v6h-10.8v5.1h12.2v5.9h-19.1z"/><path d="m105.2 160.7h7.3l10.9 16.7v-16.7h6.8v28.1h-7.2l-11-16.7v16.7h-6.9v-28.1z"/><path d="m134.7 160.7h6.9v28.1h-6.9z"/><path d="m146.1 160.7h6.8v17.6c0 3.8 1.8 5.1 4.2 5.1 2.6 0 4.3-1.3 4.3-5.1v-17.6h6.9v18.7c0 6.7-5 10.4-11.2 10.4-6.4 0-11-3.9-11-10.4z"/><path d="m172.8 160.7h6.4l7.2 15.2 7.2-15.2h6.3v28.1h-6.8v-12.5l-6.1 13.4h-1.1l-6.1-13.5v12.6h-6.9v-28.1z"/><path d="m17.3 160.7h6.4l7.2 15.8 7.2-15.8h6.3v28.2h-6.8v-12l-4.5 12h-4.4l-4.5-12.1v12.1h-6.9z"/></g></svg>