<?xml version="1.0" encoding="UTF-8"?>
<!DOCTYPE svg PUBLIC "-//W3C//DTD SVG 1.1//EN" "http://www.w3.org/Graphics/SVG/1.1/DTD/svg11.dtd">
<!-- Creator: CorelDRAW -->
<svg xmlns="http://www.w3.org/2000/svg" xml:space="preserve" width="297mm" height="210mm" style="shape-rendering:geometricPrecision; text-rendering:geometricPrecision; image-rendering:optimizeQuality; fill-rule:evenodd; clip-rule:evenodd"
viewBox="0 0 297 210">
 <defs>
  <style type="text/css">
   <![CDATA[
    .fil3 {fill:#1F1A17}
    .fil2 {fill:#3386A6}
    .fil4 {fill:#C4263A}
    .fil1 {fill:#EC921A}
    .fil5 {fill:#F6B800}
    .fil0 {fill:white}
    .fil6 {fill:white;fill-rule:nonzero}
   ]]>
  </style>
 </defs>
 <g id="Layer_x0020_1">
  <metadata id="CorelCorpID_0Corel-Layer"/>
  <polygon class="fil0" points="10.6915,139.141 286.628,56.028 282.929,71.5058 216.503,99.5157 205.2,116.653 206.453,138.53 100.97,153.8 97.8159,138.158 26.9893,149.22 "/>
  <polygon class="fil1" points="167.259,99.1784 167.259,116.916 174.834,115.43 179.51,99.0439 178.761,96.2684 "/>
  <polygon class="fil2" points="179.382,95.9062 180.777,100.996 198.123,96.6035 195.456,115.444 208.609,94.1151 265.856,70.8677 "/>
  <polygon class="fil3" points="104.658,133.865 106.969,146.485 198.683,132.976 197.617,122.667 189.441,118.402 "/>
  <polygon class="fil4" points="146.579,106.178 34.6004,138.158 100.592,126.56 39.8223,141.022 142.108,122.161 130.955,117.754 90.1486,125.718 "/>
  <polygon class="fil5" points="125.087,113.562 145.854,121.404 166.485,105.509 166.485,102.645 147.379,111.47 "/>
  <path class="fil6" d="M112.647 142.146l-1.0463 -6.606 1.3335 -0.2112 1.0463 6.606 -1.3335 0.2112zm2.6178 -0.4147l-1.0463 -6.6059 1.2981 -0.2056 3.4026 3.9828 -0.6987 -4.4111 1.2397 -0.1963 1.0463 6.6059 -1.3396 0.2122 -3.3448 -3.8864 0.6823 4.3081 -1.2396 0.1963zm8.1379 -1.2889l-0.8692 -5.4878 -1.9595 0.3104 -0.1771 -1.1182 5.2494 -0.8314 0.1771 1.1182 -1.9549 0.3096 0.8692 5.4878 -1.335 0.2114zm4.1512 -0.6575l-1.0463 -6.6059 4.8972 -0.7756 0.1771 1.1181 -3.5637 0.5644 0.2319 1.4643 3.3161 -0.5252 0.1761 1.112 -3.3161 0.5252 0.2848 1.798 3.6898 -0.5844 0.1764 1.1135 -5.0233 0.7956zm6.1583 -0.9753l-1.0462 -6.606 2.8085 -0.4448c0.706,-0.1118 1.2277,-0.133 1.5663,-0.0653 0.3387,0.0678 0.6289,0.2379 0.8692,0.5104 0.2404,0.2741 0.3906,0.6051 0.4525,0.9957 0.0784,0.4953 -0.0027,0.9291 -0.2422,1.2981 -0.2398,0.3675 -0.6441,0.6413 -1.2108,0.8162 0.3159,0.1234 0.5835,0.2701 0.8031,0.4419 0.2195,0.1717 0.5283,0.4886 0.928,0.9519l1.0117 1.161 -1.595 0.2527 -1.1922 -1.2854c-0.4243,-0.4593 -0.7092,-0.7453 -0.8565,-0.8591 -0.1473,-0.1139 -0.2956,-0.1835 -0.4451,-0.2118 -0.1493,-0.0268 -0.3762,-0.0161 -0.6838,0.0327l-0.2692 0.0426 0.4368 2.7577 -1.3351 0.2115zm0.7312 -4.0244l0.9859 -0.1561c0.6398,-0.1014 1.0356,-0.1909 1.187,-0.27 0.1499,-0.0789 0.2597,-0.1925 0.3294,-0.3391 0.0683,-0.1464 0.0884,-0.3183 0.057,-0.5167 -0.0354,-0.223 -0.1237,-0.3919 -0.2638,-0.51 -0.1401,-0.1182 -0.3213,-0.1777 -0.5441,-0.1803 -0.1098,0.0032 -0.4356,0.0469 -0.9769,0.1326l-1.0398 0.1647 0.2653 1.6749zm5.9426 2.9673l-1.0463 -6.6059 1.2981 -0.2056 3.4025 3.9828 -0.6986 -4.4111 1.2396 -0.1963 1.0463 6.6059 -1.3396 0.2122 -3.3447 -3.8864 0.6823 4.3081 -1.2396 0.1963zm6.652 -1.0535l-1.0462 -6.606 4.8971 -0.7756 0.1771 1.1181 -3.5637 0.5645 0.2319 1.4642 3.3161 -0.5252 0.1761 1.112 -3.316 0.5252 0.2847 1.798 3.6899 -0.5844 0.1763 1.1135 -5.0233 0.7957zm7.6411 -1.2103l-0.8692 -5.4878 -1.9595 0.3104 -0.1771 -1.1182 5.2494 -0.8314 0.1771 1.1182 -1.9548 0.3096 0.8691 5.4878 -1.335 0.2114zm6.7182 -1.064l-1.0462 -6.606 2.8085 -0.4448c0.706,-0.1118 1.2277,-0.133 1.5663,-0.0652 0.3387,0.0677 0.6289,0.2378 0.8692,0.5103 0.2404,0.2741 0.3906,0.6051 0.4525,0.9957 0.0784,0.4953 -0.0027,0.9291 -0.2422,1.2981 -0.2398,0.3675 -0.6441,0.6413 -1.2108,0.8162 0.3159,0.1234 0.5835,0.2701 0.8031,0.4419 0.2196,0.1717 0.5283,0.4886 0.928,0.9519l1.0117 1.1611 -1.595 0.2526 -1.1922 -1.2853c-0.4243,-0.4594 -0.7092,-0.7454 -0.8565,-0.8592 -0.1473,-0.1139 -0.2955,-0.1835 -0.4451,-0.2118 -0.1493,-0.0268 -0.3762,-0.0161 -0.6838,0.0327l-0.2692 0.0426 0.4368 2.7577 -1.3351 0.2115zm0.7312 -4.0244l0.9859 -0.1561c0.6398,-0.1013 1.0356,-0.1909 1.187,-0.27 0.1499,-0.0789 0.2597,-0.1925 0.3294,-0.3391 0.0683,-0.1464 0.0884,-0.3183 0.057,-0.5167 -0.0354,-0.223 -0.1237,-0.3919 -0.2638,-0.51 -0.1401,-0.1182 -0.3213,-0.1777 -0.5441,-0.1803 -0.1098,0.0032 -0.4356,0.0469 -0.9769,0.1326l-1.0398 0.1647 0.2653 1.6749zm11.8872 2.0258l-1.452 0.23 -0.8145 -1.4098 -2.6409 0.4182 -0.3067 1.5874 -1.415 0.2242 1.5269 -7.0135 1.4104 -0.2234 3.6918 6.1869zm-2.8702 -2.2241l-1.2989 -2.3075 -0.5037 2.593 1.8026 -0.2855zm2.5267 -4.4932l2.4379 -0.3861c0.5491,-0.0869 0.974,-0.1117 1.2765,-0.0729 0.4056,0.0524 0.77,0.2029 1.0916,0.4514 0.3229,0.247 0.5902,0.5703 0.8015,0.9689 0.21,0.4004 0.3647,0.9087 0.4628,1.5286 0.086,0.5429 0.0927,1.0227 0.0196,1.4379 -0.0885,0.5059 -0.2623,0.9323 -0.5228,1.278 -0.1949,0.2626 -0.4794,0.4873 -0.8532,0.6758 -0.2788,0.1404 -0.6652,0.2489 -1.159,0.3271l-2.5086 0.3973 -1.0463 -6.606zm1.5107 0.907l0.6928 4.3743 0.9951 -0.1576c0.3722,-0.059 0.6382,-0.1217 0.7974,-0.191 0.2069,-0.088 0.3724,-0.2072 0.4951,-0.3591 0.1225,-0.1518 0.204,-0.3838 0.248,-0.6935 0.0424,-0.3095 0.0245,-0.7213 -0.0564,-1.232 -0.0809,-0.5106 -0.1889,-0.8939 -0.3214,-1.1536 -0.1341,-0.2594 -0.2941,-0.4532 -0.4797,-0.5799 -0.1875,-0.128 -0.4099,-0.1984 -0.6675,-0.2128 -0.193,-0.0136 -0.5607,0.0242 -1.1052,0.1104l-0.5982 0.0948zm6.1632 4.6493l-1.0463 -6.606 1.3335 -0.2112 1.0463 6.606 -1.3335 0.2112zm1.818 -3.632c-0.1067,-0.6737 -0.0961,-1.254 0.0331,-1.7427 0.0976,-0.3591 0.2542,-0.6946 0.4716,-1.0034 0.2178,-0.3072 0.471,-0.5507 0.7597,-0.7289 0.3844,-0.2406 0.8445,-0.4018 1.3828,-0.487 0.9736,-0.1542 1.7996,0.024 2.4797,0.5359 0.6801,0.5104 1.1053,1.3038 1.2756,2.3789 0.1691,1.0674 0.0104,1.9471 -0.474,2.6419 -0.4846,0.6932 -1.212,1.1174 -2.181,1.2709 -0.9828,0.1557 -1.8116,-0.0205 -2.4862,-0.5269 -0.6749,-0.5081 -1.0949,-1.2882 -1.2613,-2.3387zm1.3664 -0.2622c0.1184,0.7476 0.3821,1.2876 0.7878,1.619 0.4072,0.3313 0.876,0.4542 1.4082,0.3699 0.5306,-0.0841 0.9372,-0.344 1.2177,-0.7826 0.2793,-0.4368 0.3592,-1.0375 0.2378,-1.8035 -0.1198,-0.7567 -0.3753,-1.2949 -0.7652,-1.6163 -0.3911,-0.3196 -0.862,-0.4358 -1.4112,-0.3488 -0.5506,0.0872 -0.9635,0.3466 -1.2407,0.7768 -0.2757,0.4299 -0.355,1.0242 -0.2344,1.7855z"/>
 </g>
</svg>
