<svg xmlns="http://www.w3.org/2000/svg" viewBox="0 0 1530.7 1530.7">
  <defs>
    <style>
      .a {
        fill: #00809e;
      }

      .b {
        fill: #fff;
      }
    </style>
  </defs>
  <g>
    <rect class="a" width="1530.7" height="1530.71"/>
    <path class="b" d="M543.3,295.5H295.7V418.7H795.3c-36.1-84.2-131.2-123.2-252-123.2m235,316.1H295.7V488.9h515c.2,4.8.3,9.7.3,14.6-.4,45.7-11.4,80.9-32.7,108.1M295.7,681.8V804.3H745.6L670.3,681.8Zm0,192.7H788.8l75.9,123.4h-569Z" transform="translate(-84.8 -84.7)"/>
    <g>
      <path class="b" d="M425.6,1206.9v123.7c0,30.6-.3,50.4-23,66.4-14.3,10.1-29.4,11.8-46.2,11.8-26.3,0-50.1-10.7-59.1-37.3-2.5-7.3-2.8-17.9-2.8-28v-15.1h43.4v20.2c0,11.2,5.1,22.4,21,22.4,17.4,0,22.4-11,22.4-26.1v-138Z" transform="translate(-84.8 -84.7)"/>
      <path class="b" d="M578.3,1404.6H538.8l-.3-13.2c-15.9,11.2-24.9,17.4-45.6,17.4-28,0-50.4-17.4-50.4-46.8,0-41.2,40-44.8,71.4-49.3,7.3-1.1,22.4-1.7,22.4-12s-13.5-13.5-22.1-13.5c-11.5,0-26.1,3.9-25.5,18.2H450.6c2-36.1,29.1-50.1,61.9-50.1,24.1,0,51.2,3.9,61.9,29.1,4.5,11,3.9,27.8,3.9,39.5Zm-40.9-69.5a92.3,92.3,0,0,1-10.1,3.4c-11.5,3.1-43.1,3.3-43.1,22.1,0,12,10.9,15.7,19.3,15.7,3.1,0,23.3-.3,33.9-18.8Z" transform="translate(-84.8 -84.7)"/>
      <path class="b" d="M715,1292.8l-69.4,77.6h74.2v34.2H592.1v-30.8l71.7-80.1H600.2v-34.2H715Z" transform="translate(-84.8 -84.7)"/>
      <path class="b" d="M851.4,1292.8,782,1370.4h74.2v34.2H728.5v-30.8l71.7-80.1H736.6v-34.2H851.4Z" transform="translate(-84.8 -84.7)"/>
    </g>
  </g>
</svg>
