<svg xmlns="http://www.w3.org/2000/svg" viewBox="0 0 1530.7 1530.7">
  <defs>
    <style>
      .a {
        fill: #00ab96;
      }

      .b {
        fill: #fff;
      }
    </style>
  </defs>
  <g>
    <rect class="a" width="1530.7" height="1530.71"/>
    <path class="b" d="M543.3,295.5H295.7V418.7H795.3c-36.1-84.2-131.2-123.2-252-123.2m235,316.1H295.7V488.9h515c.2,4.8.3,9.7.3,14.6-.4,45.7-11.4,80.9-32.7,108.1M295.7,681.8V804.3H745.6L670.3,681.8Zm0,192.7H788.8l75.9,123.4h-569Z" transform="translate(-84.8 -84.7)"/>
    <g>
      <path class="b" d="M457.9,1209.7l-68.2,194.9H349.1l-68.4-194.9h47.7l41.4,141.6,40.9-141.6Z" transform="translate(-84.8 -84.7)"/>
      <path class="b" d="M590.5,1261.6l-47.2,141.9c-2.5,7.7-7.4,23.4-13.5,30.9-10.5,13.2-26.8,14-52.2,14-4.4,0-9.6-.5-10.7-.5v-32h13.5c16.3,0,20.4-8.6,20.4-18,0-5.8-1.9-9.9-5.8-20.4l-41.4-115.9h44.2l25.9,96.3,23.8-96.3Z" transform="translate(-84.8 -84.7)"/>
      <path class="b" d="M627.9,1354.3c2.4,18.5,12.1,23.8,30.3,23.8,8.8,0,20.4-2,20.4-13.3,0-25.7-85-5-85-62.1,0-33.7,30.7-45.3,59.6-45.3,31.5,0,61,13.6,62.7,48.6l-38.1,2c-.8-15.2-13.2-20.7-25.1-20.7-7.7,0-19.9,1.3-19.9,12.1,0,21.8,87.2,4.7,87.2,61.3,0,37-33.4,48-64.5,48s-66.3-13.5-66.3-51.3v-1.7Z" transform="translate(-84.8 -84.7)"/>
      <path class="b" d="M801,1408.7c-44.7,0-72.6-30.9-72.6-74.8,0-46.4,30.1-76.5,76.5-76.5,43.9,0,71.5,32.3,71.5,75.1S845.4,1408.7,801,1408.7Zm1.9-118.7c-24.5,0-32.8,21-32.8,42.2s7.7,43.4,32.3,43.4,32.3-23.5,32.3-44.7S827,1290,802.9,1290Z" transform="translate(-84.8 -84.7)"/>
      <path class="b" d="M1025,1351.6c-7.5,39.4-32.6,57.1-67.6,57.1-45.6,0-70.7-31.2-70.7-75.1s27.1-76.2,73.1-76.2c30.1,0,61.9,18.3,63.8,53.9l-39.2,1.6c-2.5-14.1-11-22.1-25.4-22.1-23.2,0-30.1,21-30.1,40.9s5.6,42.5,29.3,42.5c14.9,0,25.7-9.7,27.3-24.6Zm-80.9-150.2,13.5,22.9,14.1-22.9h31.2L976.7,1242H937.8l-24.3-40.6Z" transform="translate(-84.8 -84.7)"/>
      <path class="b" d="M1082,1246.4h-40.3v-36.7H1082Zm0,158.2h-40.3v-143H1082Z" transform="translate(-84.8 -84.7)"/>
      <path class="b" d="M1192.3,1404.6v-84.2c0-13.8-5.2-27.3-21.2-27.3-19.4,0-24.6,17.1-24.6,32.2v79.3h-40.8v-143h39.7v16.5c9.9-12.7,22.9-19.8,39.5-19.8,10.7,0,21.5,2.7,30.1,9.4,16.2,12.4,19,29.8,19,49.1v87.8Z" transform="translate(-84.8 -84.7)"/>
      <path class="b" d="M1382.7,1404.6h-38.9l-.3-13c-15.7,11-24.5,17.1-45,17.1-27.6,0-49.7-17.1-49.7-46.1,0-40.6,39.5-44.2,70.4-48.6,7.2-1.1,22.1-1.6,22.1-11.9s-13.2-13.2-21.8-13.2c-11.3,0-25.7,3.9-25.1,17.9h-37.5c1.9-35.6,28.7-49.4,61-49.4,23.7,0,50.5,3.9,61,28.7,4.4,10.8,3.8,27.4,3.8,39Zm-40.3-68.5c-3.9,1.4-6.3,2.5-9.9,3.3-11.3,3.1-42.5,3.3-42.5,21.8,0,11.9,10.7,15.5,19,15.5,3.1,0,22.9-.3,33.4-18.5Z" transform="translate(-84.8 -84.7)"/>
    </g>
  </g>
</svg>
