<svg viewBox="0 0 1700.79 1700.79" xmlns="http://www.w3.org/2000/svg"><path d="m1087.78 800.8c-1.73-3.96-4.2-3.96-5.69 0l-26.96 69.01c-1.48 3.96.74 7.17 4.95 7.17h49.97c4.2 0 6.18-3.22 4.7-7.17l-26.96-69.01z" fill="#e21f26"/><path d="m1387.91 621.72c-29.75-69.38-72.58-131.81-125.31-184.14-105.76-104.96-251.75-169.71-412.21-169.71h-1.61c-240.58.6-446.89 146.21-535.89 353.85h-167.82v457.36h167.7c29.81 69.47 72.79 131.92 125.81 184.13 105.36 104.96 251.34 169.71 411.8 169.71h1.21c161.67-.41 307.65-65.96 413.02-171.72 51.95-51.76 94.11-113.5 123.47-182.12h167.63v-457.36zm-538.73-279.45h1.21c140.35 0 267.44 56.3 359.53 148 38.54 38.2 70.98 82.57 95.77 131.45h-122.75c-14.07-20.31-29.94-39.28-47.41-56.65-73.6-72.39-174.14-117.43-285.53-117.43h-.81c-137.33.25-258.59 69.12-331.24 174.08h-122.71c83.7-165.46 255.42-279.17 453.95-279.45zm239.29 737c-1.46 1.52-2.93 3.04-4.42 4.53-59.52 59.91-141.16 96.91-232.45 96.91h-.4c-90.89 0-172.92-36.2-232.85-95.72-1.91-1.89-3.8-3.8-5.66-5.73h1.17c-.06-.06-.12-.13-.18-.2h473.83c-.06.06-.12.13-.18.2h1.16zm-474.04-457.55c.9-.93 1.79-1.86 2.71-2.77 59.52-59.91 141.16-96.91 232.45-96.91h.4c90.89 0 172.92 36.2 232.85 95.72 1.32 1.31 2.62 2.64 3.92 3.97h-472.33zm597.49 587.6c-92.09 92.09-219.57 149.19-360.33 149.6h-1.21c-100.28 0-194.16-29.13-273.2-79.07h-.01v-.02c-31.27-19.75-60.21-42.75-86.3-68.5-38.66-38.5-71.18-83.12-95.97-132.26h122c14.4 21.05 30.74 40.67 48.77 58.61 73.6 72.39 174.14 117.43 285.53 117.43h.81c138.18-.25 260.09-69.97 332.59-176.04h121.58c-24.41 48.37-56.32 92.31-94.26 130.24z" fill="#e21f26"/><g fill="#fff"><path d="m979.32 780.46h-24.92c-2.17 0-3.96 1.79-3.96 3.96v46.78c0 2.17-1.79 3.96-3.96 3.96h-48.05c-2.17 0-3.96-1.79-3.96-3.96v-46.78c0-2.17-1.79-3.96-3.96-3.96h-25.05c-2.17 0-3.96 1.79-3.96 3.96v128.83c0 2.17 1.79 3.96 3.96 3.96h24.92c2.17 0 3.96-1.79 3.96-3.96v-46.65c0-2.17 1.79-3.96 3.96-3.96h48.05c2.17 0 3.96 1.79 3.96 3.96v46.78c0 2.17 1.79 3.96 3.96 3.96h24.92c2.17 0 3.96-1.79 3.96-3.96v-128.95c.13-2.17-1.66-3.96-3.83-3.96zm130.87 0h-107.48c-2.17 0-3.96 1.79-3.96 3.96v128.83c0 2.17 1.79 3.96 3.96 3.96h107.48c2.17 0 3.96-1.79 3.96-3.96v-19.3c0-2.17-1.79-3.96-3.96-3.96h-76.81c-2.17 0-3.96-1.79-3.96-3.96v-23.39h63.65c2.17 0 3.96-1.79 3.96-3.96v-19.55c0-2.17-1.79-3.96-3.96-3.96h-63.65v-23.39c0-2.17 1.79-3.96 3.96-3.96h76.81c2.17 0 3.96-1.79 3.96-3.96v-19.43c0-2.17-1.79-3.96-3.96-3.96zm338.55 131.64-30.16-50.48-4.47-7.67s-2.81-4.22 0-10.22l4.73-8.69 27.61-49.33c1.66-2.94.26-5.24-3.07-5.24h-24.03c-3.32 0-7.54 2.3-9.33 5.11l-17.51 30.93c-1.79 2.81-4.6 2.68-6.26-.13l-19.94-30.67c-1.66-2.81-5.75-5.24-9.07-5.24h-26.2c-3.32 0-4.6 2.3-2.81 5.11l36.55 58.28c1.79 2.81 1.79 7.41 0 10.22l-23.26 37.06-47.93-106.97c-.89-2.04-3.45-3.58-5.62-3.58h-22.75c-2.17 0-4.73 1.66-5.62 3.58l-33.48 74.76c-.89 2.04.13 3.58 2.3 3.58h27.22c2.17 0 3.32 1.66 2.56 3.71l-7.67 20.07c-.77 2.04-3.2 3.71-5.37 3.71h-81.28c-2.17 0-3.96-1.79-3.96-3.96v-101.6c0-2.17-1.79-3.96-3.96-3.96h-24.79c-2.17 0-3.96 1.79-3.96 3.96v128.83c0 2.17 1.79 3.96 3.96 3.96h103.26c2.17 0 4.6-1.66 5.37-3.71l7.8-19.94c.77-2.04 3.2-3.71 5.37-3.71h47.29c2.17 0 4.6 1.66 5.37 3.71l7.8 19.94c.77 2.04 3.2 3.71 5.37 3.71h38.34c3.32 0 7.41-2.3 9.07-5.24l19.94-30.67c1.66-2.81 4.47-2.94 6.26-.13l17.64 30.93c1.79 2.81 6.01 5.11 9.33 5.11h26.33c3.45.13 4.73-2.3 3.07-5.11zm-159.11-49.46h-25.82c-2.17 0-3.32-1.66-2.56-3.71l13.93-35.66c.77-2.04 2.04-2.04 2.94 0l13.93 35.66c.77 2.04-.26 3.71-2.43 3.71z"/><path d="m285.1 914.05c0 2.89-2.17 5.07-5.07 5.07h-23.64c-3.14 0-5.07-2.17-5.07-5.07v-126.9c0-2.89 2.17-5.07 5.07-5.07h87.57c2.9 0 5.07 2.17 5.07 5.07v22.44c0 3.14-2.17 5.07-5.07 5.07h-58.86v20.75h46.32c2.89 0 5.07 2.17 5.07 5.07v21.71c0 3.14-2.17 5.07-5.07 5.07h-46.32v46.8z"/><path d="m389.32 894.27-9.65 20.75c-1.21 1.93-2.9 4.1-5.79 4.1h-25.81c-2.9 0-5.07-2.41-5.07-5.55l62.24-128.59c1.69-1.93 4.1-3.62 7-3.62s5.31 1.69 7 3.62l62.24 128.59c0 3.14-2.17 5.55-5.07 5.55h-25.81c-2.9 0-4.58-2.17-5.79-4.1l-9.65-20.75zm33.05-27.98-10.13-20.99-10.61 20.99h20.75z"/><path d="m536.96 890.89c14.72 0 19.06-7.24 19.06-34.74v-69c0-2.89 1.93-5.07 5.07-5.07h23.64c2.89 0 5.07 2.17 5.07 5.07v69.72c0 48.49-14.23 63.45-53.07 63.45-18.34 0-31.12-4.82-42.22-13.99-1.21-1.21-1.93-2.89-1.93-4.34 0-.96.48-2.17 1.21-2.9l10.37-14.96c1.21-1.21 2.65-2.17 4.34-2.17.96 0 1.69 0 2.89.96 7.48 6.03 15.92 7.96 25.57 7.96z"/><path d="m618.75 785.46c0-2.89 2.41-4.83 6.27-4.83l79.37 51.15v-42.46c0-4.1 2.89-7.24 7.24-7.24h19.3c4.1 0 7.24 3.14 7.24 7.24v124.73c0 2.89-2.17 5.07-5.07 5.07h-23.64c-3.14 0-5.07-2.17-5.07-5.07v-41.74l-51.87-34.02v75.75c0 2.89-2.17 5.07-5.07 5.07h-23.64c-3.14 0-5.07-2.17-5.07-5.07v-128.59z"/></g></svg>