<svg id="Layer_1" data-name="Layer 1" xmlns="http://www.w3.org/2000/svg" viewBox="0 0 1500 1500">
  <defs>
    <style>
      .cls-1 {
        fill: #000f37;
      }

      .cls-2 {
        fill: #fff;
      }
    </style>
  </defs>
  <g>
    <rect class="cls-1" width="1500" height="1500"/>
    <path class="cls-2" d="M449.3,206.6H206.6V327.3H696.2c-35.4-82.5-128.5-120.7-246.9-120.7M679.6,516.3h-473V396.1H711.3c.2,4.7.3,9.5.3,14.3-.4,44.8-11.1,79.3-32,105.9m-473,68.8V705.2H647.5L573.7,585.1Zm0,188.9H689.8l74.4,120.9H206.6Z"/>
    <g>
      <path class="cls-2" d="M293.8,1099.7c29.4,0,55.5,4.1,69.5,33.2,4.1,8.8,6,20,6,29.6,0,14-3.3,28.8-12.1,40.1-17.5,23-40,23.8-66.4,23.8H263.1v67H219.2V1099.7Zm-30.7,91.1h27.4c17.1,0,35.2-4.7,35.2-28,0-26.9-24.2-27.7-40.1-27.7H263.1Z"/>
      <path class="cls-2" d="M446.7,1297.5c-44.5,0-72.2-30.7-72.2-74.3,0-46.1,29.9-76.1,76-76.1,43.6,0,71.1,32.1,71.1,74.7S490.8,1297.5,446.7,1297.5Zm1.9-118c-24.4,0-32.7,20.9-32.7,42s7.7,43.1,32.1,43.1,32.1-23.3,32.1-44.5S472.5,1179.5,448.6,1179.5Z"/>
      <path class="cls-2" d="M624.1,1293.4v-79.6c0-13.1-.6-31.5-21.1-31.5-23.9,0-24.7,23-24.7,37.3v73.8H538.2V1099.7h40.1v66.1c6.3-11.2,26.6-17.8,38.7-17.8,38.6,0,47.4,29.3,47.4,54v91.4Z"/>
      <path class="cls-2" d="M752.4,1297.5c-44.5,0-72.2-30.7-72.2-74.3,0-46.1,29.9-76.1,76-76.1,43.6,0,71.1,32.1,71.1,74.7S796.5,1297.5,752.4,1297.5Zm1.9-118c-24.4,0-32.7,20.9-32.7,42s7.7,43.1,32.1,43.1,32.1-23.3,32.1-44.5S778.2,1179.5,754.3,1179.5Z"/>
      <path class="cls-2" d="M936.1,1293.4v-13.7c-8.2,12.9-23,17.3-37.6,17.3-40.3,0-60.6-37.1-60.6-73.3,0-38.7,19.5-76,62.5-76,12.9,0,24.2,4.7,34.1,12.9v-60.9h40.8v193.7Zm-28.5-112.5c-21.7,0-28.6,23-28.6,40.9,0,19.5,5.8,41.7,29.1,41.7s27.7-21.7,27.7-40.3S931.2,1180.9,907.6,1180.9Z"/>
      <path class="cls-2" d="M1125,1293.4h-38.7l-.3-12.9c-15.6,11-24.4,17-44.7,17-27.5,0-49.4-17-49.4-45.8,0-40.4,39.2-43.9,69.9-48.3,7.2-1.1,22-1.7,22-11.8s-13.2-13.2-21.7-13.2c-11.2,0-25.5,3.9-25,17.8H999.8c1.9-35.3,28.6-49.1,60.7-49.1,23.6,0,50.2,3.9,60.6,28.6,4.4,10.7,3.9,27.1,3.9,38.7Zm-40.1-68.1c-3.9,1.4-6.3,2.5-9.9,3.3-11.2,3.1-42.2,3.3-42.2,21.7,0,11.8,10.7,15.4,18.9,15.4,3,0,22.8-.3,33.2-18.4Z"/>
    </g>
  </g>
</svg>
