<?xml version="1.0" encoding="utf-8"?>
<!-- Generator: Adobe Illustrator 25.2.0, SVG Export Plug-In . SVG Version: 6.00 Build 0)  -->
<svg version="1.1" id="Vrstva_1" xmlns="http://www.w3.org/2000/svg" xmlns:xlink="http://www.w3.org/1999/xlink" x="0px" y="0px"
	 viewBox="0 0 841.9 841.9" style="enable-background:new 0 0 841.9 841.9;" xml:space="preserve">
<style type="text/css">
	.st0{fill:url(#SVGID_1_);}
	.st1{fill:#FFFFFF;}
</style>
<linearGradient id="SVGID_1_" gradientUnits="userSpaceOnUse" x1="923.543" y1="520.371" x2="-80.5431" y2="-20.371" gradientTransform="matrix(1 0 0 -1 0 671)">
	<stop  offset="0" style="stop-color:#C30C2B"/>
	<stop  offset="0.4236" style="stop-color:#C30C2B"/>
	<stop  offset="1" style="stop-color:#432C79"/>
</linearGradient>
<rect x="0.5" y="0" class="st0" width="841.9" height="841.9"/>
<path class="st1" d="M701.6,452.2H601.1V349.5c0-0.1,0-0.3,0-0.4c1.3-26.4,23.7-46.8,50.1-45.5c26.4,1.3,46.8,23.7,45.5,50.1
	c-0.1,1.1-0.1,2.1-0.3,3.2c6.9-0.8,14-0.1,20.6,2.1c7.2,2.3,13.6,6.3,18.9,11.7c18.6,18.8,18.6,49.1-0.2,67.7
	c-8.8,8.7-20.6,13.7-33,13.9H701.6z M619.6,433.7h83.1c16.2-0.3,29.1-13.7,28.8-29.9s-13.7-29.1-29.9-28.8
	c-5.2,0.1-10.4,1.6-14.8,4.4c-4.3,2.7-10,1.3-12.7-3c-1.8-3-1.8-6.7,0-9.7c8.5-13.8,4.1-31.9-9.7-40.4c-13.8-8.5-31.9-4.1-40.4,9.7
	c-1.2,1.9-2.1,3.9-2.8,6c-0.8,2.5-1.3,5.1-1.5,7.7V433.7z M732.9,477.2c10.4-4.3,19.7-10.7,27.3-19c7.8-8.4,13.6-18.5,17.1-29.4
	c1.2-3.8-1-7.9-4.8-9c-3.7-1.1-7.7,0.9-9,4.6c-2.8,8.9-7.6,17.1-13.9,23.9c-6.2,6.7-13.7,12-22.1,15.4c-3.6,1.7-5.1,6-3.4,9.6
	C725.6,476.7,729.4,478.3,732.9,477.2L732.9,477.2z M588.1,329.8c3.4-10,9.2-18.9,17-26c6.6-6,14.4-10.6,22.9-13.5
	c3.8-1.1,6-5.2,4.9-9c-1.1-3.8-5.2-6-9-4.9c-0.1,0-0.3,0.1-0.4,0.1c-10.4,3.5-20,9.1-28.1,16.5c-9.5,8.7-16.7,19.8-20.9,32
	c-1.3,3.8,0.7,7.9,4.5,9.2c0,0,0,0,0,0c0.8,0.3,1.5,0.4,2.3,0.4C584.3,334.7,587,332.7,588.1,329.8z M555,329.1c0.7-3,1.5-6,2.5-9
	c5-15.3,13.9-29,25.8-39.9c12.3-11.4,27.5-19.2,43.8-22.9c3.9-0.7,6.6-4.4,5.9-8.3c-0.7-3.9-4.4-6.6-8.3-5.9c-0.3,0-0.5,0.1-0.8,0.2
	c-18.8,4.2-36.3,13.3-50.5,26.4c-13.7,12.5-23.9,28.4-29.7,46c-1.1,3.4-2.1,6.8-2.9,10.3c-0.9,3.9,1.5,7.8,5.4,8.7
	c0.5,0.1,1.1,0.2,1.6,0.2C551.4,334.7,554.3,332.3,555,329.1L555,329.1z M725.9,512.7c22.2-4.7,42.4-16.1,57.8-32.7
	c13.5-14.5,22.7-32.4,26.9-51.8c0.8-3.9-1.7-7.7-5.6-8.6s-7.7,1.7-8.6,5.6l0,0c-3.6,16.8-11.6,32.4-23.3,45
	c-11,11.9-24.8,20.7-40.2,25.7c-3.3,1.1-6.6,2-10,2.7c-3.9,0.8-6.4,4.7-5.5,8.6c0.7,3.3,3.6,5.7,7,5.7
	C724.9,512.9,725.4,512.8,725.9,512.7z M536.8,365.4c25.6,0,43.7,19.1,43.7,43.3c0,24.3-18.1,43.4-43.7,43.4
	c-25.6,0-43.7-19.1-43.7-43.3C493.1,384.5,511.1,365.4,536.8,365.4 M536.8,433.2c14.3,0,23.6-10.9,23.6-24.5
	c0-13.6-9.2-24.5-23.6-24.5s-23.6,10.9-23.6,24.5C513.3,422.4,522.4,433.2,536.8,433.2 M35.8,450h19.9v-32.1h31.8V450h19.8v-81.2
	H87.5v32H55.7v-32H35.8V450z M121.3,450h19.9v-81.2h-19.9V450z M223.5,368.9h34c17.5,0,28.8,10.6,28.8,25.8
	c0,14.2-7.2,22.2-19.2,25.2l21.9,30.2h-24.9l-20.7-30.3v30.3h-19.9L223.5,368.9z M259.4,404.1c4.5,0,7.5-4.6,7.5-9.3s-3.5-8.9-8-8.9
	h-15.5v18.3L259.4,404.1z M384.7,368.9H413c24,0,42.5,17.7,42.5,40.5c0,21.7-16.5,40.8-42.5,40.8h-28.4L384.7,368.9z M412.6,432.1
	c12.7,0,22.5-8.9,22.5-22.6c0-12.6-8.5-22.5-22.5-22.5h-8v45.1H412.6z M464.2,450.2h19.9V369h-20L464.2,450.2z M342.4,368.9h-14.8
	l-34,81.2H315l3.9-8.4H351l4.1,8.4h21.4L342.4,368.9z M325.3,423.4l9.7-27.7l9.3,27.7H325.3z M329.3,361.4h13.3l9.3-14.9h-16.6
	L329.3,361.4z M173.1,386.3h-20.9v-17.6h61.9v17.6H193v63.5h-20L173.1,386.3z M79.2,565c25.5,0,43.5-19,43.5-43.1
	s-18.1-43.1-43.5-43.1s-43.5,19-43.5,43.1C35.8,546,53.7,565,79.2,565z M79.2,497.5c14.3,0,23.4,10.8,23.4,24.5
	c0,13.7-9.2,24.4-23.4,24.4s-23.4-10.8-23.4-24.4S64.9,497.5,79.2,497.5z M156.3,532.1l20.7,30.2h24.8L180,532.2
	c12-3,19.1-10.9,19.1-25.1c0-15.2-11.3-25.7-28.7-25.7h-33.8v80.9h19.8L156.3,532.1z M156.3,498.3h15.4c4.5,0,8,4.2,8,8.9
	s-3,9.3-7.4,9.3h-15.9L156.3,498.3z M228.7,562.3h-19.9v-80.9h19.9V562.3z M286,565c25.5,0,43.5-19,43.5-43.1s-18.1-43.1-43.5-43.1
	s-43.5,19-43.5,43.1S260.3,565,286,565L286,565z M286,497.5c14.3,0,23.4,10.8,23.4,24.5c0,13.7-9.2,24.4-23.4,24.4
	s-23.4-10.8-23.4-24.4S271.5,497.5,286,497.5L286,497.5z M363,562.3h-19.9v-80.9h20.9l31.4,48v-48h19.7v80.9h-20.6L363,514.2
	L363,562.3z"/>
</svg>
