<?xml version="1.0" encoding="utf-8"?>
<!-- Generator: Adobe Illustrator 25.2.0, SVG Export Plug-In . SVG Version: 6.00 Build 0)  -->
<svg version="1.1" id="Vrstva_1" xmlns="http://www.w3.org/2000/svg" xmlns:xlink="http://www.w3.org/1999/xlink" x="0px" y="0px"
	 viewBox="0 0 337 339" style="enable-background:new 0 0 337 339;" xml:space="preserve">
<style type="text/css">
	.st0{fill-rule:evenodd;clip-rule:evenodd;fill:#E30B10;}
	.st1{fill-rule:evenodd;clip-rule:evenodd;fill:#FFFFFF;}
</style>
<rect x="20.2" y="20.9" class="st0" width="297.1" height="297.1"/>
<path class="st1" d="M275.7,201v65.6c-2.9,0.7-11.6,4.3-14.5,3.6c-2-0.5-7.7-4.7-9.9-6.2c-1.7-1.2-2-4.1-4.2-4.9
	c-3.3-1.1-4.8,1.4-6.6,2c-1.9,0.5-5.4-0.1-7.6-0.3c-4.2-0.6-10.4-2.8-13.5-4.9c-1-0.6-1.2-2.4-2.3-3c-1.4-0.7-7.4-1.5-8.5-1.6
	c-1-0.2-9.9-0.2-11.5,0.3c-2,0.6-4,4.4-6.2,4.9c-2.8,0.6-6.9-0.5-8.8,0c-1.4,0.3-3,2.1-4.3,2c-2-0.2-4.3-2.7-6.3-3
	c-3.8-0.5-4,0.6-5.9-2.3c-5.4-8.1-14.9-1-23-4.6c-0.4-0.1-0.6-1.2-1-1.3c-2.9-1.1-5.7-0.1-7.6-2c-3.1-3-4.2-10.9-8.9-12.2
	c-3.1-0.8-5.6,1.1-7.2,1.3c-2.6,0.3-3.5-2.2-6.3-2.3c-4.3-0.2-6.5,1.2-9.5,0.4c-1.7,1.3-4.5,5.9-8.6,6.6c-2.6,0.4-3.5-2.6-5.2-3.3
	c-1.6-0.6-4.8-1.4-5.6-1.6c-4.1-0.9-5.7,0.6-9.5,0.3c-4.5-0.2-7.4-2.7-11.2-3.7V201L275.7,201z"/>
<polygon class="st1" points="262.9,183.8 274.4,180.5 274.4,67.7 253.1,99.2 256.3,120.1 262.9,113 "/>
<path class="st1" d="M214.5,151.5c-5,0-8.3-9.5-8.3-25.2c0-15.3,3.3-24.7,8.3-24.7c4.9,0,8.1,9.5,8.1,24.7
	C222.5,141.9,219.4,151.5,214.5,151.5 M214.5,68.7c-5.9,0-10.9,5.7-14.8,15.7c-3.9,10.9-6.2,24.7-6.2,41.9c0,17.6,2.3,31.3,6.2,42.3
	c4,10,9,16.2,14.8,16.2c5.6,0,10.8-6.1,14.6-16.2c4.2-10.9,6.2-24.7,6.2-42.3c0-17.1-2-31.4-6.2-41.9
	C225.3,74.4,220.1,68.7,214.5,68.7z"/>
<polygon class="st1" points="176.8,183.3 189.3,180.5 189.3,70.6 176.8,73 "/>
<path class="st1" d="M150.9,103.9h0.3c5.7,0,8.8,8.1,8.8,22.4c0,14.3-3.1,22.8-8.8,22.8h-0.3V103.9z M138.1,181.4h15.1
	c3.8,0,7.7-2.9,10.5-8.1c5.6-9.5,8.9-26.7,8.9-47.1c0-20-3.3-37.1-8.9-46.6c-2.8-5.2-6.8-8.1-10.5-8.1h-15.1V181.4z"/>
<path class="st1" d="M112.1,136.2l3.1-32.8l2.7,32.8H112.1z M76,101.5h0.2c3.4,0,5.3,4.7,5.3,12.8c0,8.6-1.9,13.3-5.3,13.3H76V101.5
	z M94.3,180.5l13.6,3.8l2-20.5h10.5l2,20L136,180L123,71.6h-15.1L94.8,176.4l-6.7-43.9c4-5.3,6-15.3,6-28.6
	c0-20.5-5.2-32.3-14.9-32.3H63.5v112.7l12.5-2.9v-45.2l6.2,48.1l12.1-4.5L94.3,180.5z"/>
</svg>
