<svg enable-background="new 0 0 300 300" viewBox="0 0 300 300" xmlns="http://www.w3.org/2000/svg"><path d="m0 0h300v300h-300z" fill="#e31e4c"/><g fill="#fff"><path d="m248.7 167.7h-35.6v-36.4c0-.1 0-.1 0-.2.3-9.4 8.2-16.7 17.5-16.3 9.4.3 16.7 8.2 16.3 17.5 0 .5-.1 1-.1 1.5 2.5-.3 4.9 0 7.3.7 8.9 2.9 13.7 12.5 10.8 21.4-2.3 6.8-8.6 11.5-15.8 11.6zm-29-6.5h29.4c5.7-.1 10.3-4.8 10.2-10.6-.1-5.7-4.8-10.3-10.6-10.2-1.9 0-3.7.6-5.3 1.5-1.5 1-3.6.5-4.5-1.1-.7-1.1-.7-2.4 0-3.4 1.6-2.6 2-5.8 1-8.7-1.4-4.2-5.4-7.1-9.9-7.1s-8.4 2.9-9.9 7.1c-.3.9-.5 1.8-.5 2.7v29.8zm40.1 15.4c3.7-1.5 7-3.8 9.6-6.7 2.8-3 4.8-6.5 6.1-10.4.4-1.4-.4-2.8-1.8-3.1-1.3-.3-2.6.3-3.1 1.6-1 3.1-2.7 6-4.9 8.5-2.2 2.4-4.9 4.2-7.8 5.5-1.3.5-1.9 2-1.4 3.3.4 1 1.3 1.6 2.4 1.6.3-.1.6-.2.9-.3zm-51.3-52.2c1.2-3.5 3.3-6.7 6-9.2 2.3-2.1 5.1-3.8 8.1-4.8 1.3-.5 1.9-2 1.4-3.3-.5-1.2-1.8-1.8-3-1.5-3.7 1.2-7.1 3.2-9.9 5.8-3.4 3.1-5.9 7-7.4 11.3-.5 1.3.3 2.8 1.6 3.2s2.8-.1 3.2-1.5zm-11.7-.2c.2-1.1.5-2.1.9-3.2 1.8-5.4 4.9-10.3 9.1-14.1 4.4-4 9.7-6.8 15.5-8.1 1.4-.3 2.3-1.7 1.9-3.1-.3-1.4-1.7-2.3-3.1-1.9-6.7 1.5-12.8 4.7-17.9 9.3-4.8 4.4-8.5 10-10.5 16.3-.4 1.2-.7 2.4-1 3.7-.3 1.4.5 2.7 1.9 3.1.2 0 .4.1.6.1 1.4-.1 2.4-1 2.6-2.1zm60.6 65c1.4-.3 2.7-.7 4.1-1.1 6.3-2 11.9-5.6 16.4-10.5 4.8-5.1 8.1-11.5 9.5-18.3.3-1.4-.6-2.7-2-3s-2.7.6-3 2c-1.3 6-4.1 11.5-8.3 15.9-3.9 4.2-8.8 7.3-14.2 9.1-1.2.4-2.3.7-3.5 1-1.4.3-2.3 1.7-2 3 .3 1.2 1.3 2 2.5 2 .1-.1.3-.1.5-.1zm-67.6-52c9 0 15.4 6.7 15.4 15.3s-6.4 15.3-15.4 15.3c-9.1 0-15.4-6.7-15.4-15.3s6.3-15.3 15.4-15.3m0 23.9c5.1 0 8.3-3.8 8.3-8.6s-3.3-8.6-8.3-8.6c-5.1 0-8.3 3.8-8.3 8.6s3.2 8.6 8.3 8.6m-176.8 6h7v-11.3h11.2v11.3h7v-28.7h-7v11.3h-11.2v-11.3h-7zm30.2 0h7v-28.7h-7zm36-28.7h12c6.2 0 10.2 3.7 10.2 9.1 0 5-2.5 7.8-6.8 8.9l7.7 10.7h-8.8l-7.3-10.7v10.7h-7zm12.7 12.5c1.6 0 2.6-1.6 2.6-3.3s-1.2-3.2-2.8-3.2h-5.4v6.5zm44.2-12.5h10c8.5 0 15 6.2 15 14.3 0 7.6-5.8 14.4-15 14.4h-10zm9.9 22.3c4.5 0 7.9-3.2 7.9-8 0-4.4-3-7.9-7.9-7.9h-2.8v15.9zm18.2 6.4h7v-28.7h-7zm-43-28.7h-5.2l-12 28.7h7.5l1.4-3h11.3l1.4 3h7.6zm-6.1 19.3 3.4-9.8 3.3 9.8zm1.5-21.9h4.7l3.3-5.3h-5.8zm-55.2 8.8h-7.3v-6.2h21.8v6.2h-7.4v22.4h-7.1z"/><path d="m12.6 204.9 11.1-18.3h-9.7v-5.5h19.1v.6l-11.5 18.3h11.1v5.5h-20v-.6z"/><path d="m48.5 181.1c7.4 0 12.7 5.6 12.7 12.6s-5.3 12.6-12.7 12.6c-7.5 0-12.7-5.6-12.7-12.6s5.2-12.6 12.7-12.6zm0 19.7c4.2 0 6.9-3.2 6.9-7.1s-2.7-7.1-6.9-7.1-6.9 3.2-6.9 7.1c0 4 2.6 7.1 6.9 7.1z"/><path d="m66 181.2h6.3l9.4 14.4v-14.4h5.9v24.3h-6.2l-9.4-14.5v14.5h-6z"/><path d="m127.1 181.2h5.9v19.2h10.6v5.1h-16.5z"/><path d="m177.4 198.4c0 1.4 1.1 2.5 2.5 2.6 1.5 0 2.4-.8 2.4-2.1 0-1.8-2.4-2.3-4.4-3-4.1-1.5-6.4-3.4-6.4-7.5 0-4.3 3.7-7.9 8.3-7.9 5.4 0 7.9 3.4 8.3 7.9h-5.6c0-1.4-.9-2.5-2.5-2.5-1.3 0-2.6.8-2.6 2.3 0 1.8 2.2 2.1 4.3 2.8 4.3 1.3 6.4 3.7 6.4 7.5 0 4.3-3.6 7.9-8.2 7.9-5.3 0-8.3-3.6-8.3-7.9h5.8z"/><path d="m192.2 181.2h5.9v10.9h.1l7-10.9h6.6l-8.3 11.5 8.8 12.8h-6.6l-7.4-11.8h-.1v11.8h-5.9z"/><path d="m221.9 193.8-8.6-12.5h6.7l4.9 7.3 4.9-7.3h6.7l-8.6 12.5v11.7h-5.9v-11.7z"/><path d="m159.9 181.5h-4.4l-10 24h6.3l1.2-2.5h9.5l1.2 2.5h6.3zm-5.1 16.1 2.9-8.2 2.8 8.2zm1.2-18.4h3.9l2.8-4.4h-4.9zm-109.1 0h3.9l2.8-4.4h-4.9z"/><path d="m104.5 181.5h-4.4l-10 24h6.3l1.2-2.5h9.5l1.2 2.5h6.3zm-5.1 16.1 2.9-8.2 2.8 8.2z"/></g></svg>