<?xml version="1.0" encoding="utf-8"?>
<!-- Generator: Adobe Illustrator 21.0.0, SVG Export Plug-In . SVG Version: 6.00 Build 0)  -->
<svg version="1.1" id="Vrstva_1" xmlns="http://www.w3.org/2000/svg" xmlns:xlink="http://www.w3.org/1999/xlink" x="0px" y="0px"
	 viewBox="0 0 612 792" style="enable-background:new 0 0 612 792;" xml:space="preserve">
<style type="text/css">
	.st0{fill:#FDFDFD;}
	.st1{fill:#7C67E7;}
	.st2{fill:#ED0F63;}
	.st3{fill:#737B7A;}
	.st4{fill:#9D4DC0;}
	.st5{fill:#8E58D1;}
	.st6{fill:#A14ABC;}
	.st7{fill:#C23095;}
	.st8{fill:#8B5AD5;}
	.st9{fill:#C52E91;}
	.st10{fill:#875EDA;}
	.st11{fill:#A447B8;}
	.st12{fill:#BA369E;}
	.st13{fill:#BE339A;}
	.st14{fill:#B739A2;}
	.st15{fill:#9C4DC1;}
	.st16{fill:#C82C8E;}
	.st17{fill:#BB359D;}
	.st18{fill:#D6217E;}
	.st19{fill:#B938A0;}
	.st20{fill:#D22482;}
	.st21{fill:#C52E92;}
	.st22{fill:#9E4DC0;}
	.st23{fill:#DB1D77;}
	.st24{fill:#A745B5;}
	.st25{fill:#CF2686;}
	.st26{fill:#DF1A73;}
	.st27{fill:#B937A0;}
	.st28{fill:#895CD7;}
	.st29{fill:#CB298B;}
	.st30{fill:#C13197;}
	.st31{fill:#B53AA4;}
	.st32{fill:#C13196;}
	.st33{fill:#D91E7A;}
	.st34{fill:#D91F7A;}
	.st35{fill:#C92B8D;}
	.st36{fill:#DE1B74;}
	.st37{fill:#AA43B1;}
	.st38{fill:#E11971;}
	.st39{fill:#E4166D;}
	.st40{fill:#895CD8;}
	.st41{fill:#CB298A;}
	.st42{fill:#A14ABB;}
	.st43{fill:#B33CA7;}
	.st44{fill:#B33CA6;}
	.st45{fill:#A04BBD;}
	.st46{fill:#B13DA8;}
	.st47{fill:#BB369E;}
	.st48{fill:#E11870;}
	.st49{fill:#E81369;}
	.st50{fill:#AE3FAC;}
	.st51{fill:#E91268;}
	.st52{fill:#8460DD;}
	.st53{fill:#8C5AD5;}
	.st54{fill:#EC1064;}
	.st55{fill:#AF3FAB;}
	.st56{fill:#A249BB;}
	.st57{fill:#9C4EC1;}
	.st58{fill:#E91267;}
	.st59{fill:#AD40AD;}
	.st60{fill:#B03EAA;}
	.st61{fill:#9454CB;}
	.st62{fill:#9653C9;}
	.st63{fill:#AE40AD;}
	.st64{fill:#8E58D2;}
	.st65{fill:#8262E0;}
	.st66{fill:#9851C6;}
	.st67{fill:#8063E3;}
	.st68{fill:#7F64E3;}
	.st69{fill:#9553CA;}
	.st70{fill:#DF1973;}
	.st71{fill:#9A4FC4;}
	.st72{fill:#A547B7;}
	.st73{fill:#DA1D78;}
	.st74{fill:#9A4FC3;}
	.st75{fill:#9156CE;}
	.st76{fill:#A943B2;}
	.st77{fill:#A348B9;}
	.st78{fill:#B53BA4;}
	.st79{fill:#7D67E6;}
	.st80{fill:#A646B6;}
	.st81{fill:#8361DF;}
	.st82{fill:#CC2889;}
	.st83{fill:#AB42B0;}
	.st84{fill:#D5217E;}
	.st85{fill:#9751C7;}
	.st86{fill:#9652C9;}
	.st87{fill:#9056CF;}
	.st88{fill:#A844B3;}
	.st89{fill:#C72C8F;}
	.st90{fill:#D12483;}
	.st91{fill:#BC379D;}
	.st92{fill:#9A50C4;}
	.st93{fill:#C23094;}
	.st94{fill:#AA42B1;}
	.st95{fill:#B9379F;}
	.st96{fill:#8460DE;}
	.st97{fill:#9F4BBE;}
	.st98{fill:#A349B9;}
	.st99{fill:#8063E2;}
	.st100{fill:#A248BA;}
	.st101{fill:#A645B5;}
	.st102{fill:#A14BBD;}
	.st103{fill:#B839A1;}
	.st104{fill:#AF3EAB;}
	.st105{fill:#FEFEFE;}
	.st106{fill:#FCFDFD;}
	.st107{fill:#9156CF;}
	.st108{fill:#9354CC;}
	.st109{fill:#BD349B;}
	.st110{fill:#FEFDFE;}
	.st111{fill:#CE2787;}
	.st112{fill:#D02584;}
	.st113{fill:#D32381;}
	.st114{fill:#B33BA6;}
	.st115{fill:#B13EA9;}
	.st116{fill:#BF3399;}
	.st117{fill:#BF3298;}
	.st118{fill:#A646B5;}
	.st119{fill:#8E5FD6;}
	.st120{fill:#895DD8;}
	.st121{fill:#C23195;}
</style>
<g>
	<g>
		<path class="st0" d="M303.1,53.6c96.8,0,193.7,0,290.5-0.1c2.7,0,3.1,0.7,3.1,3.2c-0.1,155.2-0.1,310.5,0,465.7
			c0,2.6-0.4,3.2-3.1,3.2c-193.7-0.1-387.4-0.1-581.1,0c-2.5,0-2.9-0.7-2.9-3c0.1-155.3,0.1-310.7,0-466c0-2.4,0.4-3,2.9-3
			C109.4,53.7,206.2,53.6,303.1,53.6z"/>
		<path class="st1" d="M244.3,478.3c-1.1,0-2.1,0.1-3.2,0.1c-61.9,0-123.8,0-185.7,0.1c-2.8,0-3.9-0.5-3.8-3.6
			c0.3-6.6,0.1-13.1,0-19.7c0-1.8,0.3-2.6,2.4-2.6c66,0.1,132,0.1,198,0.1c0.2,0,0.4,0.1,0.6,0.1c0.9,1.9-0.9,3.1-1.2,4.8
			c-1.1,6.3-3.9,12-5.5,18.2C245.7,476.7,245.2,477.6,244.3,478.3z"/>
		<path class="st2" d="M349.7,452.6c1.2,0,2.4-0.1,3.5-0.1c61.6,0,123.2,0,184.8-0.1c2.8,0,3.9,0.5,3.7,3.6
			c-0.3,6.5-0.2,12.9,0,19.4c0.1,2.5-0.7,3-3,3c-20.2-0.1-40.5-0.1-60.7-0.1c-44.3,0-88.5,0-132.8,0c-1.3,0-2.6-0.1-3.9-0.1
			c0.4-5.2,2.7-9.9,4.1-14.8c0.8-2.7,1.9-5.2,2.3-8.1C347.9,454.2,348.4,453.1,349.7,452.6z"/>
		<path class="st3" d="M410.1,424.7c-8,0-15.9,0-23.9,0c-1.5,0-3.3,0.1-3.4-2c-0.1-1.8,0.8-3.1,2.8-3.3c2.8-0.3,3.5-1.6,3-4.5
			c-1.4-8.4-1.3-8-9.8-8.6c-5.5-0.4-9,1.2-10.9,6.4c-0.3,0.7-0.7,1.3-1.1,2c-2.1,3.5-2.1,3.5,1.8,5c1,0.4,1.8,0.7,1.3,2
			c-0.4,1.2,0,3-2.2,3c-9-0.1-18.1,0-27.1-0.2c-2.5,0-4.4-1.5-5.5-3.8c-2.7-5.4-5.5-10.7-8.2-16.1c-0.7-1.3-1.4-2.6-3-2.4
			c-1.6,0.2-1.1,1.9-1.4,2.9c-0.8,3.3-1.5,6.7-2.3,10c-0.6,2.3-0.2,3.5,2.4,4c1.5,0.3,4.3,0,3.4,3.3c-0.5,1.6-1.1,2.3-2.8,2.3
			c-7-0.1-14,0-21,0c-1.4,0-2.7-0.1-2.8-1.9c-0.1-1.5,0.2-3,2-3.1c4.8-0.4,5.7-3.7,6.5-7.7c2.1-10.4,4.4-20.8,7-31.1
			c0.8-3.1,0.1-4.7-3-5c-2.7-0.3-2.9-1.8-2.2-4c0.4-1.1,0.9-1.3,1.9-1.3c9.3,0.2,18.5-0.6,27.8,0.5c7.6,0.9,12,4.3,13.1,9.6
			c1.4,6.8-1.7,13-8.1,16.9c-1.7,1.1-4.9,0.8-5.1,3c-0.1,1.7,1.7,3.6,2.7,5.4c1.6,3,3.2,6.1,4.9,9.1c3.1,5.7,7.9,5.7,11.3,0.2
			c6.8-11.1,13.5-22.3,20.3-33.3c2.3-3.6,4.9-7.1,7.5-10.5c1.9-2.6,4.8-1.2,7.2-1.2c2.1-0.1,1.3,2.2,1.5,3.3
			c2.4,13.7,4.6,27.3,6.9,41c0.6,3.7,2.4,5.5,5.7,5.6c3.6,0.1,6.5-2.1,7.2-5.3c2.5-11.3,5-22.7,7.7-34c0.7-3,0.1-4.4-2.9-4.8
			c-2.4-0.3-3.3-1.4-2.3-3.9c0.4-1.2,1-1.4,2.1-1.4c9,0.3,18.1-0.6,27.1,0.5c13.2,1.7,20.6,11.3,19.2,24.4
			c-2,17.9-14.1,29-32.2,29.2C425.4,424.7,417.8,424.6,410.1,424.7C410.1,424.6,410.1,424.7,410.1,424.7z"/>
		<path class="st3" d="M195.1,424.1c-1.6-2.2-1.2-4,1.5-4.5c4.1-0.7,5.5-3.1,6.2-6.9c1.3-7,3-13.9,4.5-20.8c0.2-0.8,0.6-1.6-0.3-2.8
			c-2.3,3.9-4.6,7.7-6.8,11.4c-4.4,7.4-8.8,14.8-13.4,22.1c-1.6,2.6-3.8,2.1-5.9,1.9c-2.1-0.2-1.3-2.2-1.5-3.4
			c-1.8-11.1-3.4-22.3-5.5-33.6c-1.3,5.5-2.5,10.9-3.7,16.4c-0.7,3.1-1.4,6.3-2.1,9.4c-1,4.4-1,4.6,3.3,6c1.9,0.6,2.3,1.4,1.8,3.2
			c-0.4,1.5-1.1,2.1-2.7,2c-5.1-0.1-10.1,0-15.2,0c-1.4,0-2.7-0.1-2.8-1.9c-0.1-1.5,0.2-2.9,2-3.2c4.7-0.7,5.8-3.9,6.6-8.1
			c2-10.1,4.4-20.2,6.7-30.2c1-4.3,1.1-4.5-3.2-5.6c-2.5-0.6-2.3-1.9-1.8-3.7c0.3-1.2,0.9-1.6,2-1.6c6,0,12.1,0.1,18.1,0
			c1.7,0,1.8,0.9,2,2.2c1.5,10.5,3.1,21,4.8,32.2c1-1.6,1.6-2.6,2.2-3.7c5.6-9.5,11.2-18.9,16.7-28.4c1-1.7,2.1-2.4,4.1-2.4
			c5.1,0.1,10.1,0.1,15.2,0c1.3,0,2.8,0,2.9,1.7c0.1,1.6-0.2,3.1-2.2,3.4c-4.3,0.5-5.5,3.3-6.3,7.2c-1.5,7.8-3.5,15.5-5.3,23.3
			c-1.7,3.1-2.8,6.4-3.9,9.7c-0.7,2.3,0.1,3.3,2.2,3.5c1.4,0.1,2.3,0.4,2.3,2c0,1.6-1.1,2.3-2.5,2.4c-3.3,0.3-6.7,0.3-10,0.1
			C201.9,423.4,198.5,424.4,195.1,424.1z"/>
		<path class="st3" d="M67.2,370.5c4.2,0.2,9.3-0.3,14.3,0.4c7,1,11.5,4.2,12.7,9.3c1.5,6.3-1.1,12.6-7,16.4c-1,0.6-2,1.2-3.1,1.7
			c-3.5,1.6-3.5,1.6-1.6,5.2c1.5,2.8,3.2,5.6,4.6,8.5c1.8,3.9,4,7.1,8.7,7.6c1.2,0.1,2,0.8,1.5,2.2c-0.5,1.2-0.1,2.9-2.3,2.8
			c-3.9-0.1-7.8,0-11.6-0.1c-2.9-0.1-5-1.4-6.4-4.1c-2.6-5.3-5.4-10.5-8.1-15.8c-0.7-1.3-1.3-2.7-3-2.5c-1.7,0.2-1.2,1.8-1.5,2.8
			c-0.7,2.9-1.3,5.9-2,8.8c-1,4.3-1,4.6,3.2,5.5c2.7,0.6,2.4,2,1.9,3.9c-0.4,1.6-1.7,1.4-2.8,1.4c-6.8,0-13.6,0-20.4,0
			c-1.4,0-3,0.2-3.2-1.8c-0.2-1.9,0.6-3.1,2.6-3.4c3.9-0.5,5.1-3,5.8-6.5c2.2-10.6,4.5-21.3,7.1-31.8c0.8-3.3,0.3-5.1-3.2-5.4
			c-2.4-0.2-2.5-1.5-2-3.6c0.4-1.7,1.3-1.6,2.6-1.6C58.2,370.5,62.3,370.5,67.2,370.5z"/>
		<path class="st3" d="M498.8,403.3c0.2-16,9.9-29.5,23.9-33.1c4.8-1.2,9.6-1.3,14.4-0.1c9.3,2.2,15,9.1,15.4,19.4
			c0.4,12-3.6,22.5-13.2,30.2c-7.5,6-16.3,7.6-25.6,5.3C503.6,422.4,498.7,414.9,498.8,403.3z"/>
		<path class="st3" d="M100.6,403.2c0.2-16.1,9.9-29.5,23.9-33.1c4.8-1.2,9.6-1.3,14.4-0.1c9.3,2.2,15,9.1,15.3,19.4
			c0.4,12-3.6,22.5-13.2,30.2c-7.5,6-16.3,7.6-25.6,5.3C105.4,422.4,100.4,414.9,100.6,403.2z"/>
		<path class="st3" d="M195.1,424.1c6.4-2.3,12.9-1,19.4-1.3c1.1-0.1,2.5,0.4,2.6-1.5c0.1-2.3-1.5-1.1-2.4-1.2
			c-3.1-0.3-3.2-1.3-2.5-4.5c0.5-2.3,2.2-4.1,2.4-6.5c0.1-1.6,1.4-2.3,2.5-3.2c-0.3,2.7-0.8,5.3-1.8,7.8c-0.5,0.3-0.7,0.8-0.2,1.3
			c0.5,1.1-1.3,2.5,0.2,3.2c2.1,0.9,4.3,2.4,6.7,1.7c2.9-0.8,5.2-2.3,7-5.2c8.7-14.1,16.5-28.8,26.4-42.1c1.8-2.5,5.5-3.6,8.4-2.7
			c1.1,0.3,1.1,1.2,1.2,2c2.4,14.2,4.8,28.4,7.1,42.6c0.4,2.6,1.3,4.4,4.1,5c1.2,0.2,2.6,0.3,2.1,2.4c-0.4,1.7-0.8,2.9-3,2.8
			c-6.2-0.2-12.5-0.1-18.7,0c-1.4,0-2.8-0.2-2.9-1.8c-0.1-1.5,0.3-3.1,2.3-3.3c3.6-0.4,4-2.2,3.4-5.4c-1.5-7.6-1.4-7.2-9.1-7.8
			c-5.9-0.5-9.6,1.2-11.6,6.8c-0.2,0.6-0.7,1.1-1,1.7c-2.1,3.5-2.1,3.5,1.6,4.9c0.9,0.3,2.1,0.4,1.5,1.9c-0.4,1.2,0.2,3.1-2,3.1
			c-5.4,0-10.8,0-16.2,0c-0.7,0-1.1-0.6-1.4-1.2c-0.1-0.2-0.3-0.3-0.5-0.4c-0.5-0.3-1,0-1.5,0.2c0.4,0.2,1-0.2,1.4,0.2
			c-0.2,1.1-1,1.2-1.9,1.2c-7.5,0-14.9,0-22.4,0C195.8,424.6,195.5,424.3,195.1,424.1z"/>
		<path class="st4" d="M158.3,323.8c3.1-2.3,5.2-5.1,5.4-9.1c0.3-2.9,0-5.7,0.1-8.6c3.7-13.8,8.4-27.3,12.8-40.8
			c4.7-14.3,9-28.7,14.1-42.8c0.9-2.5,1.4-5.2,2.3-7.7c0.6-1.5,1.2-3,2.8-3.8c2.4-0.1,4.9-0.3,7.1,1.1c-2,2.7-2.9,5.8-3.4,9
			c-0.1,0.7-0.3,1.5-1.1,1.8c-1.6-0.3-2.6-0.1-2.5,2c0.1,3.3,0,6.5-0.1,9.8c-2.2,6.8-4.4,13.7-6.6,20.5c-3.1,9.5-6.2,19-9.2,28.5
			c-3.8,12.4-8.5,24.5-11.9,37.1c-1.4,5.3-3.8,10.3-5.3,15.5c-0.2,0.7-0.8,1.3-1.4,1.8c-2.4,0-4.7,0-7.1,0c-0.6-0.6-0.7-1.3-0.5-2.1
			C155.1,331.8,156.5,327.7,158.3,323.8z"/>
		<path class="st3" d="M476.5,424.7c-3.4,0-6.9,0-10.3,0c-1.3,0-2.5-0.2-2.7-1.6c-0.2-1.4,0.1-3.2,1.8-3.3c5.3-0.4,6.1-4.2,6.9-8.4
			c2.1-10.2,4.3-20.4,6.8-30.5c0.8-3.2,0.2-4.7-3-5c-2.3-0.3-3-1.4-2.3-3.7c0.4-1.3,1.1-1.6,2.3-1.6c7.2,0,14.4,0,21.6,0
			c1.2,0,2.3,0.4,2.4,1.6c0.1,1.4-0.1,3.2-1.8,3.3c-5.5,0.4-6.2,4.4-7.1,8.7c-2.1,10.2-4.3,20.4-6.8,30.5c-0.7,2.9-0.2,4.2,2.7,4.7
			c1.9,0.3,3.5,0.8,2.7,3.5c-0.5,1.5-1.2,2-2.8,1.9C483.6,424.6,480.1,424.7,476.5,424.7z"/>
		<path class="st5" d="M196.5,90.6c3.7,0,7.3,0,11,0c0.7,0.7,0.9,1.6,0.6,2.4c-1.3,3.6-1.9,7.5-4,10.8c-1.3,0.7-2.7,0.6-4.1,0.6
			c-2.4-0.1-3.2,1.1-3.2,3.3c-0.1,3.8,0.4,7.7-0.4,11.5c-3.1,4.5-3.5,9.9-5.3,14.8c-3.1,8.4-5.5,17-8.3,25.5
			c-2.4,6.9-4.1,14.1-6.6,20.9c-3.3,9-5.4,18.4-9.1,27.2c-0.4,1.1-0.8,2.3-1.8,3c-0.6,0.4-1.2,0.5-1.4-0.5c0-6.4,0-12.8,0-19.2
			c2-6.1,3.9-12.3,5.7-18.4c3.3-11.3,7.5-22.4,11-33.7c2.6-8.5,5.2-17,8.4-25.4c1.4-3.8,2.1-7.9,3.6-11.7
			C193.9,98.1,195,94.3,196.5,90.6z"/>
		<path class="st6" d="M161.6,338c5-15.1,9.5-30.4,14.8-45.4c3.1-9,5.6-18.2,8.5-27.2c3.1-9.6,6.4-19.2,9.6-28.8
			c0.3-0.9,0.6-1.6,1.5-2c0,8.8,0,17.7,0,26.5c-2.1,5.2-3.8,10.5-5.4,15.8c-6.1,19.9-13,39.4-19,59.3c-0.2,0.6-0.4,1.2-0.9,1.7
			C167.6,338,164.6,338,161.6,338z"/>
		<path class="st7" d="M411.6,120.3c2.5,3.1,4.3,6.5,5.3,10.3c-1.7,4.1-3.2,8.2-4.5,12.5c-3.6,12.6-8,25-12.1,37.4
			c-2.7,8.3-4.8,16.7-7.7,24.9c-0.2,0.5-0.2,1-0.1,1.6c-3.2,2.7-6.5,5.1-10.6,6.4c-1.3-2.1-0.2-4.2,0.2-6.2c1-5.3,3.3-10.2,4.9-15.3
			c5.3-17.4,11.1-34.6,16.6-51.9c1.9-5.9,3.8-11.8,5.9-17.7C410,121.4,410.1,120.1,411.6,120.3z"/>
		<path class="st8" d="M196.5,90.6c0.4,4.8-2.5,8.8-3.8,13.1c-2.9,9.8-5.8,19.7-9.3,29.3c-3.3,9.2-5.8,18.6-9.1,27.7
			c-2.6,7.2-4.6,14.6-6.9,22c-0.8,2.6-1.5,5.1-3.2,7.3c-0.8-4.1-0.2-8.3-0.3-12.4c-0.1-3.3,0-6.6,0-9.9c3.3-8.5,5.6-17.4,8.6-26
			c3-8.7,5.5-17.4,8.4-26.1c2.5-7.3,5-14.7,7.2-22.1c0.3-1.2,0.9-2.2,1.9-2.9C192.2,90.6,194.3,90.6,196.5,90.6z"/>
		<path class="st9" d="M392.6,207c-0.7-0.3-1.4-0.6-1-1.7c4.4-12.2,7.5-24.8,11.9-37c3.3-9,6-18.3,8.8-27.5
			c1.1-3.6,2.1-7.2,4.6-10.2c2,4.5,2.7,9.3,3.1,14.2c-2.2,1.5-2.8,4-3.5,6.4c-2.6,9.5-5.8,18.8-9.1,28.1c-0.7,2-1.3,4.1-1.7,6.2
			c-0.4,2.7-1.2,5.2-2.6,7.6c-0.9,1.6-1.6,3.5-1.3,5.5C399.6,202.2,395.7,204.1,392.6,207z"/>
		<path class="st10" d="M164.2,166.8c0,7.8,0,15.5,0,23.3c0,6.9,0,13.8,0,20.7c1.6,2.2,0.8,4.7,0.9,7.1c0.1,1.3-0.1,2.6,0,3.8
			c0.1,3.1,0,6.2,0,9.2c0.2,8.4,0,16.7,0,25.1c0.2,9,0,18.1,0,27.1c0.1,6.1,0.1,12.2,0,18.3c0,1.5-0.4,2.9-0.9,4.4
			c-0.4,3,0.5,6-0.5,9c0-21.7-0.1-43.5-0.1-65.2c0-42.6,0-85.2,0-127.8c0-1.3,0.1-2.6,0.2-3.9c1.6,0.5,1.3-0.9,1.6-1.7
			c2.5-7.3,4.8-14.6,7.3-21.9c0.5-1.4,0.8-2.9,2.4-3.6c2,0,3.9,0,5.9,0c2,1.2,1.4,2.9,0.8,4.5c-4.8,14.1-9.2,28.4-13.9,42.6
			c-2,6.2-3.3,12.1-2.8,18.5C165,159.8,165.8,163.4,164.2,166.8z"/>
		<path class="st11" d="M170.6,338c0.4-5.4,2.7-10.3,4.3-15.4c2.6-8.6,5.4-17.1,8.2-25.6c3-8.8,5.3-17.9,8.8-26.6
			c0.6-1.5,1.2-3,1.4-4.6c0.3-1.8,0.9-3.5,2.6-4.6c0,6.7,0,13.4,0,20c-1.9,4.8-3.5,9.7-5,14.6c-4,12.7-8.3,25.3-12.1,38.1
			c-0.5,1.5-0.8,3.1-2.3,4.1C174.5,338,172.6,338,170.6,338z"/>
		<path class="st12" d="M249.9,261.9c-1.9-2.1-3.6-4.5-5-7c-1.6-3-0.3-5.8,0.8-8.6c3-7.7,5.2-15.7,7.7-23.6c2.2-6.9,5.1-13.7,6-21
			c2.3-3.2,5.5-5.6,7.9-8.7c0.5-0.6,1.2-0.9,2-0.7c2,1,1.6,2.6,1,4.2c-1.3,3.9-2.5,7.8-3.7,11.7c-1.1,3.4-2,6.8-2.5,10.3
			c-0.5,1.4-1.8,1.7-3,2c-1.8,0.6-2.1,1.4-0.9,3c0.6,0.8,1.3,1.7,1.1,2.9c-1.4,8.6-5.5,16.4-7.4,24.9c-0.3,1.5-1.2,2.8-1.8,4.1
			c-0.7,1.5-1.6,2.9-0.6,4.8C252.1,261.2,251.5,262.2,249.9,261.9z"/>
		<path class="st13" d="M411.6,120.3c-2.2,2.7-2.5,6.3-3.5,9.4c-4.3,13-8.2,26.1-12.7,39c-3.5,10-6,20.3-9.9,30.1
			c-1.8,4.6-3.1,9.5-3.5,14.6c-1.5,0.8-3,1.7-4.5,2.5c-2.1,0.6-1.8-0.9-1.6-2c0.3-2.2,1.1-4.4,1.8-6.5c2.5-8.2,5.2-16.4,7.8-24.6
			c2.3-7.2,5.1-14.4,7.3-21.7c3.9-12.6,8.6-25,12.1-37.7c0.7-2.6,1.5-5.4,3.8-7.3C409.9,117.3,411.1,118.5,411.6,120.3z"/>
		<path class="st14" d="M259.9,201.8c0.4,4.1-1.5,7.6-2.5,11.4c-0.7,2.6-2.5,5-2.1,7.9c0.2,1.5-1.2,2.5-1.7,3.9
			c-3,8.4-4.9,17.2-8.6,25.4c-0.5,1.2,0.4,3,0,4.5c-2.2-2.4-4.1-5.1-5.8-7.9c-0.5-1.6-0.1-3.2,0.4-4.7c2.8-9,5.7-18,8.8-26.9
			c0.8-2.5,1.3-5,2-7.5C252.9,205,256.1,202.9,259.9,201.8z"/>
		<path class="st15" d="M306.4,222.9c-2.2-0.5-3.5,0.1-3.1,2.7c0.2,1-0.1,2.1-0.1,3.2c-1.5,3.6-2,7.6-3.5,11.2
			c-2.7,6.4-4,13.3-6.4,19.8c-0.7,2-1.5,3.6-4,3.2c-0.5-0.1-1-0.4-1.3-0.7c-1.2-1.7-3.3-2.9-2.9-5.4c2.6-3.7,3.4-8.1,4.7-12.3
			c3.4-11,7.4-21.8,10.3-32.9c0.4-1.6,1-3.1,3.2-3c1.1,1.7,2.5,2.5,4.5,2.5c0.9,0,2,0,2.6,1C307.8,215.3,307.8,219.4,306.4,222.9z"
			/>
		<path class="st16" d="M401.9,198.5c-2.1-2-0.4-4,0.4-5.7c1-2.2,1.9-4.3,2.5-6.7c2.3-9.6,5.9-18.7,9.1-28c1.3-3.8,1.6-8,3.6-11.6
			c0.5-1,0.6-2.9,2.6-1.7C422.1,165.4,416.4,183.4,401.9,198.5z"/>
		<path class="st17" d="M402.5,109.9c1.5,1.6,3.7,2.4,4.7,4.5c-2,2.5-2.1,5.7-3,8.6c-4.9,14.9-9.9,29.7-14.6,44.6
			c-1.2,3.9-1.8,8.3-5.6,10.9c-0.4,0.1-0.7,0-0.9-0.3c-0.6-4,1.4-7.6,1.6-11.5c0-0.8,0.3-1.7,0.5-2.5c0-0.2,0.2-0.4,0.2-0.6
			c-0.7-10.5,4.9-19.4,7.4-29.1c1.9-7.2,4.7-14.1,6.9-21.2C400.1,111.9,400.4,110.1,402.5,109.9z"/>
		<path class="st18" d="M406.6,276.7c2.4,2.6,4.5,5.4,6.4,8.4c-1.7,6.3-3.9,12.5-6,18.6c-1.3,3.9-2.4,7.8-3.5,11.7
			c-0.6,2.2-1.1,4.4-3.5,5.4c-2.2-2.4-4.1-5-5.8-7.8c0.3-2.6,0.8-5.1,1.6-7.5c2.8-9.1,6.3-18,8.8-27.2
			C405,277.3,405.3,276.4,406.6,276.7z"/>
		<path class="st19" d="M367.3,219.9c-0.8,0.7-2.8,0.5-2.1,2.5c-2.7,9.4-6.1,18.5-9,27.9c-0.6,2.1-1.8,4-3.3,5.7
			c-1.3-1.3-2.4-2.8-3.2-4.5c-0.7-1.8-0.7-3.5,0.1-5.3c3.1-7.3,5.2-15,7.6-22.6c1.2-3.8,2.4-7.6,3.8-11.3c0.9-2.5,1.2-4.9,1.4-7.4
			c2.5-3.2,6.1-5.2,9-8.1c0.4-0.4,1.1-0.7,1.7-0.1c0.4,0.7,0.2,1.5,0,2.2c-1.6,5.3-2.7,10.8-4.9,16
			C367.6,216.4,367.6,218.2,367.3,219.9z"/>
		<path class="st20" d="M406.6,276.7c-2,0.8-0.9,2.6-1.4,3.9c-2.8,8.4-5.8,16.7-8.6,25.1c-0.8,2.4-0.9,5.2-2.4,7.4
			c-2.4-2.9-4.6-5.9-6.6-9.1c1.8-5.8,4.1-11.4,5.8-17.3c1.4-5,3.2-9.7,4.7-14.7c0.4-1.2,0.8-2.5,2-3.2
			C403.1,270.8,404.7,273.9,406.6,276.7z"/>
		<path class="st21" d="M265,282.6c-2-2.2-3.7-4.6-5.2-7.1c-1.8-3.9,1.2-7,2.3-10.2c2.2-6.9,4.4-13.9,6.8-20.7
			c0.6-1.6,0.8-3.7,2.9-4.3c2.8,1,3.6,3.8,5.4,5.7c0.7,0.9,1.4,1.8,1,3c-2.7,6.8-5.4,13.6-6.9,20.7c-0.8,3.7-3.1,6.8-3.4,10.7
			C267.8,281.8,266.1,282.1,265,282.6z"/>
		<path class="st22" d="M269.6,338c-2.8,0-5.6,0-8.4,0c-0.9-2.4,0.8-4.2,1.4-6.3c0.6-2.4,1.4-4.6,1.2-7.1c4.9-2.2,7.4-5.9,7.3-11.4
			c-0.1-7.2,0-14.4,0-21.6c2.6,0.6,3.1,3.3,4.7,4.8c1.1,1.6,2.1,3.2,3.4,4.7c0.7,0.9,1.2,1.9,1.4,3c0.2,2.1-0.5,4.1-1.2,5.9
			c-3.2,8.6-6.5,17.3-8.4,26.3C270.7,337.1,270.3,337.7,269.6,338z"/>
		<path class="st23" d="M310.9,292.2c2.6,2.4,4.6,5.4,6.6,8.4c-3.8,10.3-7.9,20.4-10.7,31c-0.2,0.8-0.3,1.7-0.7,2.5
			c-2.2,1-3.1-1.1-4.6-1.9c-1.6-1.6-4.1-2.4-4.1-5.2c4.6-9.4,6.5-19.8,10.3-29.5C308.4,295.5,308.9,293.3,310.9,292.2z"/>
		<path class="st24" d="M176.4,338c4.4-13.9,8.7-27.8,13.2-41.6c1.4-4.4,3.4-8.6,4.5-13c0.2-0.9,0.7-1.8,1.7-2.2c0,6,0,12.1,0,18.1
			c-1.3,3.8-2.2,7.8-3.7,11.6c-3.2,8.1-4.8,16.6-8.1,24.6c-0.4,1-0.7,2.1-1.8,2.5C180.3,338,178.4,338,176.4,338z"/>
		<path class="st25" d="M400.2,268.8c-3.8,9.8-6.1,20.2-10.1,30c-0.3,0.8-0.3,1.9-0.3,2.8c0,1.4-0.7,2.2-2.1,2.3
			c-2-2.2-3.7-4.6-5.2-7.1c-0.2-0.9-0.7-1.6-0.3-2.7c4-9.7,6.8-19.8,10.1-29.8c0.4-1.3,0.4-3.1,2.6-3.1
			C396.8,263.6,399.2,265.7,400.2,268.8z"/>
		<path class="st13" d="M384,178.4c6.7-13.5,10.1-28.2,14.9-42.4c1.8-5.2,3.6-10.5,5.4-15.7c0.4-1.2,1-2.5,0.9-3.7
			c-0.1-1.7,0.9-1.9,2-2.2c0.7,0.4,1.2,0.9,1.4,1.7c-4.4,12.9-9.3,25.8-13.1,38.9c-1.9,6.5-3.9,13.2-6.2,19.5
			c-3.3,9-5.4,18.4-9,27.4c-1.6,4-2.5,8.2-3.7,12.3c-0.3,0.9-0.6,1.7,0.8,1.8c-1,0.5-2.1,0.9-3.1,1.4c-2.7-0.7-1.5-2.7-1.2-4
			c0.8-3.5,1.8-7.1,3.1-10.4c1.2-3.1,2-6.3,3.2-9.4c0.4-0.9,0.6-1.8,0.3-2.8c-0.4-1.3,0-2.3,0.8-3.3
			C382.8,184.7,383.4,181.6,384,178.4z"/>
		<path class="st26" d="M305.7,334.1c-0.2-2.6,0.8-5.1,1.5-7.5c2.4-7.5,4.8-15,8-22.2c0.6-1.3-1.3-4.2,2.2-3.9
			c2.1,2.2,3.8,4.7,5.5,7.2c-2.4,8.9-5.6,17.6-8.4,26.4c-0.4,1.2-0.8,2.2-1.8,3C310.1,337.1,307.4,336.8,305.7,334.1z"/>
		<path class="st27" d="M402.5,109.9c-1.3,0.9-1.5,2.3-2,3.6c-3.6,10.4-6.8,20.9-10.3,31.4c-1.9,5.7-5.3,11.3-3.8,17.8
			c0.1,0.4-0.3,1-0.5,1.5c-0.9-0.6-1-1.6-1-2.6c0.2-6.9-0.4-13.7-1.2-20.5c3.8-9.2,6.7-18.8,9.9-28.2c0.5-1.6,1.5-3.2,0.9-5
			c-0.7-2-0.2-2.7,1.9-1.8c0.6,0.3,1.3,0.3,1.9,0.5C400,107.4,401.4,108.5,402.5,109.9z"/>
		<path class="st18" d="M303.2,281.2c0.8,1.3,1.6,2.6,2.4,3.9c-0.2,2.2-0.8,4.3-1.6,6.5c-2.6,7.4-4.6,14.9-7.3,22.3
			c-1,2.7-2.6,5.1-3.1,8c-2.5,0.2-2.5-2.5-3.9-3.5c-0.8-1.2-1.8-2.3-1.9-3.9c0.1-2.7,0.9-5.2,1.9-7.7c3-7.3,4.7-15.1,7.5-22.5
			c0.8-2,1-4.5,3.6-5.3C302.2,279,302.4,280.4,303.2,281.2z"/>
		<path class="st28" d="M164.2,166.8c0-3.7,0-7.3,0-11c3.1-10.2,6.6-20.2,9.9-30.3c3.5-10.9,7-21.9,10.4-32.9c0.2-0.7,0.4-1.4,1-2
			c1.5,0,3,0,4.5,0c-5,15.7-10.5,31.3-15.2,47.1c-2.5,8.3-5.3,16.5-8,24.8C166.2,164,165.8,165.7,164.2,166.8z"/>
		<path class="st29" d="M394.9,261.2c-2.5,2.7-2.6,6.4-3.8,9.7c-2.7,7.4-4.8,15.1-7.4,22.6c-0.4,1.1-1.2,2.1-1.3,3.3
			c-2.4-2.8-4.6-5.9-6.6-9c1.5-0.8,2.1-2.1,2.6-3.8c2.4-8.7,5.5-17.1,8.3-25.6c0.5-1.5,0.9-3.8,3.6-3
			C392.2,257.1,393.6,259.1,394.9,261.2z"/>
		<path class="st30" d="M272,240.5c-3,2.8-3,6.9-4.4,10.4c-2.7,7.1-4.1,14.6-7.8,21.3c-0.6,1.2,2,2.3-0.1,3.4
			c-2-2.2-3.7-4.6-5.2-7.1c-0.8-1.2-0.5-2.5-0.1-3.7c3.2-10.1,6.5-20,9.9-30c0.2-0.6,0.6-1.1,1.2-1.4c2.8,0.5,3.8,3.1,5.5,4.8
			C271.6,238.8,272.6,239.4,272,240.5z"/>
		<path class="st31" d="M363.2,204.7c-0.5,9.7-5.3,18.2-7.7,27.4c-1.4,5.3-3,10.7-5.4,15.7c-0.5,1.1-0.2,2.5-0.3,3.7
			c-1.9-2.2-3.7-4.6-5.2-7.1c-0.5-4.3,2.5-7.6,3.5-11.6c2-8,5.4-15.6,7-23.7c0.1-0.3,0.4-0.5,0.6-0.8
			C358,206.9,360,204.6,363.2,204.7z"/>
		<path class="st21" d="M372.3,282.6c-2-2.2-3.7-4.6-5.2-7.1c1-4.9,2.7-9.7,4.1-14.5c1.7-5.8,3.7-11.5,5.5-17.2
			c0.6-1.8,1.7-2.3,3.4-2.1c1.7,1.8,3.2,3.7,4.5,5.9c0.7,2.6-0.6,4.9-1.6,7c-3.2,6.8-4.7,14.2-7.2,21.3
			C374.9,278.3,374.5,280.9,372.3,282.6z"/>
		<path class="st32" d="M380.1,241.7c-1.8,0.8-2.5,2-3.1,4c-2.2,7.4-4.8,14.6-7.2,22c-0.9,2.6-0.5,5.7-2.7,7.8
			c-1.7-1.9-3.3-4-4.6-6.3c-0.7-2-0.2-4.1,0.4-6c3-8.8,5.5-17.8,8.8-26.5c0.5-1.2,0.7-2.8,2.6-2.7
			C376.4,236.4,378.4,239,380.1,241.7z"/>
		<path class="st33" d="M293.5,321.9c-0.5-4,2.1-7.1,3.3-10.6c2.1-6,3.6-12.1,5.8-18c1-2.8,2.1-5.5,3.1-8.2c1.8,2.4,4.2,4.2,5.3,7.1
			c-3.5,7.2-5.5,14.8-8,22.3c-1.4,4.3-2.4,8.8-5,12.7c-1.5,0.2-2.1-1-2.9-1.8C294.5,324.2,293,323.5,293.5,321.9z"/>
		<path class="st34" d="M400,320.8c1.2-2,2.2-4,2.8-6.4c2.7-9.1,5.8-18.2,8.8-27.2c0.3-0.8,0.9-1.4,1.4-2.1c1.7,2.2,3.3,4.3,5,6.5
			c-1.8,5.4-3.2,10.9-5,16.3c-1.8,5.5-3.6,11-5.4,16.5c-0.4,1.3-0.4,3.2-2.6,2.9C403.1,325.3,401.4,323.2,400,320.8z"/>
		<path class="st35" d="M265,282.6c3.8-4.9,4.9-10.9,6.4-16.7c1.3-5.2,4.3-9.8,4.8-15.3c0.1-0.8,0.9-1.4,1.8-1.8
			c1.9,0.7,3,2.4,4.3,3.8c0.5,1.5,2.9,2.1,1.9,4.2c-1.8-0.2-1.8,1.1-2.3,2.4c-3.4,10.4-6.5,20.9-10.6,31.1c-0.1,0.2-0.3,0.3-0.4,0.5
			C268.7,288.2,266.6,285.6,265,282.6z"/>
		<path class="st23" d="M405,327.2c0.7-0.3,1.2-0.8,1.5-1.6c2.9-9.4,5.8-18.7,8.7-28.1c0.7-2.2,1.3-4.3,2.9-6c1.7,2.4,4,4.4,5.2,7.1
			c-3.7,9.8-6.5,20-10,29.9c-0.5,1.5-1.1,3.1-2.8,3.7C408.4,330.9,406.4,329.4,405,327.2z"/>
		<path class="st16" d="M372.3,282.6c3.1-7.9,5.7-16.1,8-24.2c0.7-2.5,1.9-5,3.3-7.1c0.9-1.4-1-3.1,1.1-3.7c2.2,2.4,4.2,5,5.9,7.7
			c-2.1,0.1-2.5,2-2.9,3.4c-2.6,9.4-6.7,18.4-8.7,28c-0.5,2.5-2,0.6-2.9,1C374.5,286.2,373.3,284.5,372.3,282.6z"/>
		<path class="st36" d="M410.4,332.3c3.1-5.8,4.6-12.1,6.7-18.3c1.7-5.2,2.7-10.8,6.2-15.3c2,2.2,4.1,4.3,5.3,7.1
			c-2.2,6.8-4.9,13.5-6.7,20.5c-0.9,3.5-2.6,6.6-4.2,9.7C414.9,335.3,412.5,334.1,410.4,332.3z"/>
		<path class="st37" d="M182.3,338c2.4-6.7,4.6-13.5,6.6-20.4c1.6-5.6,4-11,5.5-16.7c0.2-0.7,0.7-1.3,1.5-1.6c0,4.5,0.1,9,0.1,13.5
			c0,3.1,0.5,6,2.2,8.5c-2.5,5.4-3.9,11.2-6.3,16.7C188.7,338,185.5,338,182.3,338z"/>
		<path class="st38" d="M417.6,336c-1.2-2.4,1.4-3.5,2-5.3c2.2-7.4,4.7-14.8,7-22.2c0.4-1.2,0.9-2.1,2-2.7c2.1,2.6,4.3,5.2,6.4,7.8
			c-2.8,6.8-4.5,14-6.9,20.9c-0.5,1.4-1.3,2.4-2.7,3C422.6,337.6,420.1,336.9,417.6,336z"/>
		<path class="st31" d="M398.3,106.6c-1.2,0.9-2.3,0.4-3.6-0.5c1.8,1.8,1.1,3.3,0.5,5.1c-2.3,6.6-4.2,13.5-6.6,20.1
			c-1.2,3.1-1.9,6.6-4,9.3c-2.6-3.3-3.4-7.2-4.3-11.1c2.3-7.2,5.3-14.2,7.2-21.6c0.6-2.2,2-4,3.1-5.9
			C393.3,103.1,396,104.6,398.3,106.6z"/>
		<path class="st13" d="M266.2,233.4c-2.2,1.1-1.3,3.5-1.9,5.1c-3.8,9.8-7.1,19.7-9.7,29.9c-1.8-2-3.4-4.2-4.7-6.5
			c0.7-0.5,2.1-0.5,0.4-1.9c-1.2-1,0-2.9,0.6-4c2.6-5,3.8-10.5,5.3-15.7c1.3-4.5,4.8-8.5,3.5-13.7c-0.1-0.4,0.9-0.3,1.4-0.4
			C264.1,227.7,265.9,230,266.2,233.4z"/>
		<path class="st39" d="M425.3,337.5c2.5-4.6,4.1-9.4,5.3-14.5c0.8-3.4,1.9-6.7,4.3-9.4c2.8,2.6,5.5,5.2,8.3,7.8
			c-0.5,5.9-2.6,11.3-5,16.7C433.9,338,429.6,338.5,425.3,337.5z"/>
		<path class="st40" d="M185.5,90.6c0.3,3-1.2,5.6-2,8.3c-3.3,10.7-7.1,21.2-10.3,31.9c-2.2,7.4-5.1,14.5-7.1,21.9
			c-0.3,1.1-0.1,2.7-1.8,3c-1.6-8.7,2.3-16.4,4.8-24.3c3.1-9.9,6-19.9,9.7-29.6c0.9-2.5,1.4-5.1,2.6-7.6c0.6-1.2,0.4-2.5-0.3-3.7
			C182.5,90.6,184,90.6,185.5,90.6z"/>
		<path class="st41" d="M270.8,290.9c0-4.2,3-7.4,3.7-11.4c1-5.8,3.8-11.1,5.6-16.7c0.7-2.3,1.2-4.7,1.6-7.2
			c0.9,0.4,1.7,0.7,2.6,1.1c0.4,0,0.6,0.3,0.7,0.7c1.1,1.5,2.1,3,3.2,4.5c-3.3,7.7-5.5,15.7-8.2,23.6c-1.2,3.6-1.6,7.5-3.8,10.8
			c-0.2,0.4-0.4,0.7-1,0.5c-1.4-1.7-2.9-3.4-4.3-5.2C271,291.3,270.9,291.1,270.8,290.9z"/>
		<path class="st42" d="M269.6,338c1.6-8.3,4.7-16.1,7.3-24c1.1-3.4,2.8-6.5,3-10.1c2.4,0.5,2.9,3,4.4,4.3c0.9,1.3,2,2.6,2,4.4
			c-3,7.8-4.8,16.1-8,23.9c-0.2,0.6-0.6,1.1-1.1,1.6C274.7,338,272.1,338,269.6,338z"/>
		<path class="st13" d="M374.3,234c-2,0.7-1.8,2.9-2.3,4.3c-2.9,8.4-5.6,16.8-8.3,25.3c-0.6,1.8-0.8,3.7-1.2,5.6
			c-2-2.2-3.7-4.6-5.2-7.1c-0.9-3.1,1.1-5.6,1.8-8.3c2.1-8.1,5.8-15.7,7.7-23.9c0.2-1.1,0.6-2.4,2.2-2.3
			C371.2,229.4,372.8,231.7,374.3,234z"/>
		<path class="st39" d="M328.8,314.8c3,2.6,6,5.2,9,7.8c-1.2,5.3-2.8,10.4-5,15.4c-3,0-6.1,0-9.1,0c-4.4-0.5-4.7-1-3.1-5.3
			c2-5.2,2.8-10.8,5.5-15.8C326.8,315.9,326.9,314.2,328.8,314.8z"/>
		<path class="st43" d="M356.1,208.5c-1.7,9.1-5.5,17.6-7.8,26.5c-0.8,3.2-2.9,6-3.8,9.3c-1.9-2.2-3.7-4.6-5.2-7.1
			c0.3-6.9,4.1-12.8,5.9-19.3c0.6-2.1,1.3-4,1.1-6.2C349.3,209.8,352.4,208.4,356.1,208.5z"/>
		<path class="st44" d="M250.8,207.6c0.1,5-2.2,9.5-3.7,14.1c-2.6,8.1-5.6,16.1-7.6,24.4c-0.1,0.3-0.3,0.6-0.4,0.9
			c-1.8-1.9-3.3-4-4.6-6.3c-0.9-2.9-1.1-5.5,1.1-8.3c1.5-1.8,2-4.5,2.6-6.9c1.3-5.4,3.3-10.6,5.8-15.6
			C246.1,208.6,248.1,207.2,250.8,207.6z"/>
		<path class="st45" d="M288.9,262.5c1.6,0,2.6-0.1,3.3-2.1c2.9-8.6,4.7-17.5,8.6-25.7c0.9-1.9-0.5-4.7,2.4-5.8c0,8,0,15.9,0,23.9
			c-1.5,3.6-2,7.4-3.4,11c-0.7,1.8-2.7,3.3-2.5,4.9c0.3,4.2-1.7,2-3.2,1.5c-1-0.5-1.7-1.4-2.3-2.4C291,266,288.6,264.9,288.9,262.5z
			"/>
		<path class="st46" d="M390.5,101.9c0.1,0.6,0.5,1.2,0.1,1.9c-4.4,6.8-5,15.1-8.3,22.3c-0.5,1.1-1,2.3-1.6,3.4
			c-3.1-2.5-5.1-5.7-6.2-9.5c2.1-6.7,4.9-13.2,6.9-20c0.3-1,0.9-1.7,2.1-1.1C386,99.4,388.3,100.6,390.5,101.9z"/>
		<path class="st47" d="M369.1,227.5c-1.1,1-1.3,2.2-1.6,3.6c-1.5,5.2-3.3,10.3-5,15.5c-1.7,5.2-3.4,10.3-5.1,15.5
			c-1.7-1.8-3.2-3.9-4.4-6.1c1.3-4.8,4.1-9.1,5.1-14.1c1.1-5.7,4.2-10.9,5.3-16.7c0.2-1.2,0.7-2.3,1.9-2.8
			C366.8,223.8,368.4,225.4,369.1,227.5z"/>
		<path class="st48" d="M328.8,314.8c-2.8,2.8-3.6,6.6-4.7,10.1c-1,3.2-1.7,6.5-3.2,9.6c-1.5,3.1,1.6,2.6,2.9,3.5
			c-1.9,0-3.9,0-5.8,0c-1.7-0.7-3.8,0.5-5.2-1.2c3-9.1,6-18.1,8.8-27.2c0.3-1,0.7-1.4,1.4-1.8C324.4,310.6,326.9,312.5,328.8,314.8z
			"/>
		<path class="st17" d="M384,178.4c0.1,0.6,1.4,0.2,1.1,0.8c-1.5,2.8-1.1,6.4-3.8,8.7c-0.9,0.8-1.4,1.6-0.4,2.7
			c0.6,0.6,0.4,1.3,0.1,2.1c-2.9,6.7-5,13.8-7.1,20.8c-0.4,1.3-0.8,2.7,0.5,3.9c-2.2,1.3-4.6,2.1-7.1,2.6c-1.7-1.5-0.6-3.5-0.1-4.7
			c2.8-6,3.9-12.5,5.8-18.8c-0.3-1.1,0.2-1.9,0.9-2.6c3.3-4,5.8-8.5,7.7-13.3c0.3-0.8,0.5-1.9,1.7-2.1
			C383.4,178.4,383.7,178.4,384,178.4z"/>
		<path class="st49" d="M438.3,338c1-5.7,3.2-11.2,5-16.7c4,2.7,8.5,3.9,13.1,5.1c-0.3,4.2-1.9,7.9-3.9,11.5
			C447.7,338,443,338,438.3,338z"/>
		<path class="st50" d="M346.5,211.9c1,1.3,1.1,2.4,0.4,4c-1.3,3-1.9,6.3-3.3,9.3c-1.8,3.9-2.6,8.1-4.3,12c-2.2-2.6-4.2-5.2-5.9-8.2
			c-0.4-1-0.9-2-0.5-3.1c1.6-4.4,2.5-9,4.9-13.1C340.6,211.5,343.4,210.5,346.5,211.9z"/>
		<path class="st51" d="M332.9,338c-0.1-4,2.1-7.3,3.1-10.9c0.4-1.4-0.2-3.6,1.9-4.4c4.2,2.7,9.3,2.8,13.9,4.4
			c-1.7,2-2.6,4.3-3.1,6.8c-0.3,1.6-0.7,3.1-2.1,4.1C341.9,338,337.4,338,332.9,338z"/>
		<path class="st52" d="M175.1,90.6c-2.8,6-4.2,12.4-6.4,18.5c-1.3,3.6-2.5,7.2-3.7,10.9c-1.2-0.6-0.6-1.6-1.1-2.2
			c-0.3-3.9,0-7.9-3-11.1c-0.2-2.2,1.2-3.9,1.8-5.9c0.9-3.5,2.1-6.9,3.4-10.2C169.1,90.6,172.1,90.6,175.1,90.6z"/>
		<path class="st3" d="M396.5,350.4c2.4,0.2,4.4,0.8,5.2,3.2c0.8,2.2,0,4.3-1.8,5.4c-4.6,3.1-9.4,6-14.1,9c-1.5,0.9-2.1-0.4-3-1
			c-0.9-0.7-1-1.7-0.4-2.6c3-4,6-8.1,9.2-12C392.8,350.9,394.7,350.6,396.5,350.4z"/>
		<path class="st53" d="M294.1,90.6c3.2,0,6.5,0,9.7,0c0.7,0.7,0.7,1.5,0.4,2.4c-1.5,5.6-3,11.2-5.9,16.3c-0.4,0.7-0.7,1.4-1.5,1.6
			c-1.8-0.1-3.1-1.3-4.5-2.3c-1.4-1.8-4.1-2.1-4.8-4.5c3.1-2.6,3.5-6.6,5-10C293,92.8,293,91.5,294.1,90.6z"/>
		<path class="st54" d="M452.5,338c0.7-4,2.3-7.8,3.9-11.5c4.5,0.9,9,1.9,13.5,2.8c2,0.4,1.6,2,1.6,3.3c0.1,5.6,0.1,5.6-5.5,5.6
			C461.5,338.1,457,338,452.5,338z"/>
		<path class="st55" d="M192,338c1.2-5.9,2.5-11.7,6.3-16.7c2.5,2.9,6,3.5,9.4,4.4c-1,4.2-2.2,8.3-4,12.3
			C199.7,338,195.8,338,192,338z"/>
		<path class="st54" d="M346.5,338c1.4-3,1.5-6.3,3-9.3c0.6-1.1,1.1-1.7,2.3-1.6c3.6,0.7,7.1,1.4,10.7,2.1c1.3,0.2,1.6,1,1.7,2.3
			c0.5,6.7,0.5,6.7-6.1,6.6C354.2,338.1,350.3,338,346.5,338z"/>
		<path class="st56" d="M351.8,91.7c2.1,0,4.2-0.1,6.3,0.7c0.6,0.3,1,0.9,0.9,1.6c-0.8,4.8-2,9.5-4.9,13.6
			c-3.5-0.4-7.2-0.3-10.1-2.9c0-4.2,1.7-8.1,3.1-12C347.9,90.5,350.1,91.6,351.8,91.7z"/>
		<path class="st11" d="M277.3,338c2.3-7.1,4.5-14.2,6.8-21.3c0.5-1.5,1.1-3,1.6-4.5c1.9-0.1,2.1,1.4,2.5,2.7
			c0.6,1.1,1.3,2.2,1.9,3.2c0.6,1,0.8,2.1,0.3,3.1c-2.4,5-3.9,10.4-5.8,15.6c-0.2,0.5-0.6,0.9-0.9,1.3
			C281.6,338,279.4,338,277.3,338z"/>
		<path class="st57" d="M351.8,91.7c-3.1-0.6-4.3,1-4.8,3.9c-0.6,3.1-1.7,6.1-2.5,9.2c-2.6,1.7-5.2,0-7.7,0
			c-4.3-1.2-4.6-1.7-3.1-6.1c0.1-0.4,0.3-0.8,0.4-1.2c1.4-6.6,1.7-7.1,9.9-6.3C346.6,91.2,349.3,90.8,351.8,91.7z"/>
		<path class="st58" d="M349.7,452.6c-2.2,6.9-4.3,13.7-6.4,20.6c-0.5,1.7-1,3.5-1.9,5c-1.9,0-3.9,0-5.8,0
			c-0.1-4.2,2.2-7.8,3.1-11.7c0.9-3.7,2.3-7.4,3.2-11.2c0.3-1.2,0.8-2.3,2-2.7C345.8,452.6,347.7,452.6,349.7,452.6z"/>
		<path class="st59" d="M383.5,98.8c-1.3,0.1-1.2,1.1-1.5,2c-2.3,6.5-4,13.3-7.3,19.4c-2.3-0.5-3.3-2.2-4.4-4
			c-0.5-1.2-0.8-2.6-0.3-3.8c2.3-5.3,2.8-11.2,5.6-16.4C378.2,97.2,381.1,97.2,383.5,98.8z"/>
		<path class="st60" d="M244.3,210.3c-0.5,3-2.3,5.5-3.2,8.4c-1.4,4.3-2.6,8.6-4,12.8c-0.4,1.3-0.6,2.8-2.1,3.4
			c-0.8,0.3-1.1,1-0.5,1.8c1,1.3,0.2,2.7,0.1,4c-1.4-1.3-2.4-2.8-3.2-4.5c-1.2-2.1-1.2-4.1-0.3-6.5c2.2-5.9,3.7-12.1,6.2-17.9
			C239.4,210.8,241.6,209.3,244.3,210.3z"/>
		<path class="st61" d="M204.2,103.4c0-3.1,1.4-5.7,2.4-8.5c0.5-1.4,0.9-2.8,0.8-4.3c3.9,0,7.7,0,11.6,0c0.6,5.1-1.6,9.3-4.3,13.4
			C211.2,104.4,207.6,105.2,204.2,103.4z"/>
		<path class="st10" d="M294.1,90.6c-0.3,4-2.4,7.4-3.6,11.1c-0.3,1.1-1.3,2.3-2.9,2.4c-0.2,0.2-0.5,0.3-0.8,0.3
			c-2.3-0.9-4.5-1.9-6.6-3.1c-0.7-0.5-1.3-1-1.5-1.8c-0.3-3.6,1.4-6.4,3.8-8.8C286.3,90.6,290.2,90.6,294.1,90.6z"/>
		<path class="st39" d="M343.9,452.6c-1.7,3.2-2,6.9-3.2,10.3c-1.8,5.1-2.8,10.4-5.2,15.3c-1.7,0-3.5,0-5.2,0
			c-0.8-0.8-0.7-1.8-0.4-2.7c2.8-7.2,4.4-14.8,7.4-21.9c0.2-0.4,0.5-0.7,0.7-1C340,452.6,341.9,452.6,343.9,452.6z"/>
		<path class="st62" d="M145.4,338c-3.5,0-7.1,0-10.6,0.1c-1.9,0.1-2.3-0.6-2.3-2.4c-0.1-6.1-0.2-6.1,5.8-7.3
			c3.5-0.7,6.9-1.3,10.4-2c0.8,1,0.4,2.1,0,3C147.6,332.3,147.3,335.4,145.4,338z"/>
		<path class="st63" d="M237.2,212.2c0.7,3-1.6,5.1-2.2,7.8c-0.8,3.8-2.4,7.5-3.7,11.2c-0.6,1.7,0.1,3.3,0,5
			c-2.2-2.4-4.1-5.1-5.8-7.9c-0.6-0.8-1.9-1.2-1.1-2.6c2.4-4,3.2-8.6,5-12.8C232,211.7,234.5,210.9,237.2,212.2z"/>
		<path class="st64" d="M296.6,110.6c3.8-6.1,5.8-12.9,7.2-19.9c1.9,0,3.9,0,5.8,0c1.3,1.5,1.1,3.3,0.5,4.9c-0.9,2.7-1.8,5.5-3,8.1
			c-2.5,0.9-3.2,2.6-3.1,5.2c0.1,2.8,0.4,5.6-0.3,8.3c-0.1,0.3-0.4,0.6-0.7,0.8c-0.7,0.2-1.3,0-1.8-0.5c-1-2.1-2.6-3.6-4.2-5.1
			C296.6,111.7,296.3,111.2,296.6,110.6z"/>
		<path class="st37" d="M338.1,213.2c-1.2,3.7-2.3,7.5-3.7,11.2c-0.6,1.5-0.9,3-0.9,4.6c-2-1.9-4.8-1.4-7.1-2.3
			c-1.5-0.4-2.9-1.4-2.3-2.8c1.3-3.7,1.5-7.9,4.1-11.2C331.5,212.2,334.8,211.7,338.1,213.2z"/>
		<path class="st65" d="M166.1,90.6c-0.7,5.7-2.5,11.1-5.2,16.1c-2.1-1.7-4.4-3-7.1-3.5c-0.8-0.3-1.2-1-0.9-1.8
			c1.4-3.6,1.8-7.4,3.6-10.9C159.6,90.6,162.9,90.6,166.1,90.6z"/>
		<path class="st66" d="M344,91.1c-6.8,0.2-6.7,0.2-8.9,6.4c-0.2,0.5-0.5,1-0.7,1.5c-1.5,3.8-1.4,3.9,2.3,5c-0.5,0.8-1.4,1.1-2.2,1
			c-3.5-0.5-7-0.1-10.4-1c-1-0.6-1.1-1.6-0.9-2.5c0.7-3.8,1.2-7.6,3.8-10.7C332.7,90.6,338.4,90.1,344,91.1z"/>
		<path class="st67" d="M244.3,478.3c1.8-7.6,5.4-14.6,6.5-22.4c0.2-1.3,1.9-1.8,1.9-3.3c1.7,0,3.4,0,5.1,0c0.2,3.2-1.5,5.9-2.3,8.9
			c-1.2,4.2-2.3,8.5-3.7,12.6c-0.5,1.5-1.1,3-2.3,4.2C247.8,478.3,246,478.3,244.3,478.3z"/>
		<path class="st68" d="M156.4,90.6c0.1,3.5-1.3,6.6-2.4,9.7c-0.3,1-1.1,1.8-0.3,2.9c-3.6-0.8-7.3-1.6-10.9-2.4
			c-1.4-3.3,0-7.6,3.2-10.3C149.5,90.6,152.9,90.6,156.4,90.6z"/>
		<path class="st69" d="M251.4,338c-3.1,0-6.2,0-9.3,0.1c-1.9,0.1-2.3-0.7-2.3-2.4c-0.1-6-0.2-6.1,5.8-7.3c3-0.6,6.1-1.2,9.1-1.8
			c0.5,0.5,0.8,1.2,0.5,1.7C253.8,331.5,253.8,335.2,251.4,338z"/>
		<path class="st8" d="M266.3,452.6c1.7,0,3.4,0,5.1,0c0.4,0.8,0.3,1.7,0,2.5c-2.3,7-4.4,14.1-6.9,21.1c-0.3,0.8-0.8,1.5-1.5,2
			c-1.7,0-3.4,0-5.2,0c-0.8-1.1-0.2-2.1,0.2-3c2.3-5.6,3.8-11.5,5.4-17.4C264,455.9,264.7,454,266.3,452.6z"/>
		<path class="st70" d="M338.1,452.6c-1,5.6-3.6,10.7-4.9,16.2c-0.7,3.2-2.7,6.1-2.9,9.5c-1.7,0-3.4,0-5.2,0c-1-2.2,0.2-4.2,0.9-6.1
			c2.2-5.6,3.1-11.5,5.5-17c0.4-0.9,0.5-1.8,1.3-2.5C334.6,452.6,336.3,452.6,338.1,452.6z"/>
		<path class="st71" d="M251.4,338c0.8-2.7,1.1-5.6,2.5-8.1c0.6-1,0.9-2.2,0.7-3.3c3-0.7,6-1.3,9.1-2c1.1,1.5,1.1,3,0.5,4.8
			c-1.1,2.8-2.1,5.8-3.1,8.6C257.9,338,254.7,338,251.4,338z"/>
		<path class="st72" d="M327.7,213.4c-0.1,3-1,5.9-2.3,8.5c-1.1,2.3-0.8,3.5,0.9,4.9c-3.9-0.7-7.8-1.5-11.7-2.2
			c-0.7-4.4,1.9-10.8,5-12.1C322.4,212.5,325.2,211.6,327.7,213.4z"/>
		<path class="st24" d="M283.8,338c1.5-5.7,3.2-11.3,5.9-16.6c0.5-1,0.4-2.2,0.5-3.3c1.5,0.9,1.9,2.8,3.2,3.8c0.4,1.2,1.9,1.8,2,3.2
			c0.1,0.4,0.2-0.1,0.1,0.3c-0.6,4.6-2,8.8-4.7,12.6C288.5,338,286.1,338,283.8,338z"/>
		<path class="st73" d="M332.9,452.6c0,4-2.4,7.2-3.3,11c-1.2,5-3,9.8-4.5,14.7c-1.7,0-3.4,0-5.2,0c-0.3-1.4,0.3-2.6,0.8-3.7
			c2.1-5.4,3.3-11.1,5-16.6c0.6-2,0.9-4.3,3.2-5.3C330.3,452.6,331.6,452.6,332.9,452.6z"/>
		<path class="st61" d="M327.1,90.6c-0.6,3.4-2.5,6.5-2.8,10c-0.1,0.9-0.3,1.9-0.4,2.8c-3,1.7-6.1,1-9.2,0.5
			c-0.6-0.3-1.1-0.9-0.9-1.5c0.9-4.1,1.4-8.5,4.3-11.8C321,90.6,324.1,90.6,327.1,90.6z"/>
		<path class="st74" d="M145.4,338c0.3-4.1,2.5-7.6,3.2-11.6c3.2-0.9,6.5-1.8,9.7-2.6c0.1,3.9-2.4,7.1-3.2,10.8
			c-0.2,1.1-0.8,2.2-0.7,3.4C151.4,338,148.4,338,145.4,338z"/>
		<path class="st10" d="M266.3,452.6c-3.2,8.4-4.8,17.4-8.4,25.6c-1.3,0-2.6,0-3.9,0c-1.1-1.3-0.6-2.6-0.2-3.9
			c2-6.5,4.3-12.9,6.3-19.5c0.3-1,0.9-1.7,1.7-2.2C263.3,452.6,264.8,452.6,266.3,452.6z"/>
		<path class="st75" d="M263.1,478.3c2.8-8.5,5.6-17.1,8.4-25.6c1.5,0,3,0,4.5,0c0.6,0.7,0.5,1.4,0.2,2.1
			c-2.1,5.5-3.2,11.3-5.5,16.7c-1,2.3-0.9,4.8-2.4,6.9C266.5,478.3,264.8,478.3,263.1,478.3z"/>
		<path class="st76" d="M229.4,213.3c0,4.5-2,8.4-4,12.1c-0.8,1.4-0.2,2,0.1,2.9c-2.2-0.5-4.3-1-6.5-1.5c-1.2-0.3-2.1-0.9-1.8-2.2
			c1-4,1.4-8.3,4.1-11.7C224.1,212.2,226.8,211.7,229.4,213.3z"/>
		<path class="st77" d="M294.1,269.6c0.9,0.4,1.7,0.7,3,1.2c-1.6-2.8,1.1-4.1,1.5-6.1c0.7-3.3,2.5-6.3,2.9-9.7
			c0.1-0.9,0.7-1.8,1.7-2.2c0,9.5,0,19,0,28.4c-0.9-0.4-1.6-1-2.1-1.9c-2.5-1.7-3.7-4.5-5.7-6.7
			C294.8,271.7,293.5,271.1,294.1,269.6z"/>
		<path class="st78" d="M203.6,338c0.7-4.3,1.6-8.6,4-12.3c2.8,0.1,5.5,0.7,8.2,1.5c-0.3,3.8-0.7,7.6-3.2,10.8
			C209.6,338,206.6,338,203.6,338z"/>
		<path class="st4" d="M236.7,91.1c1,0,2,0,3,0c1.6-0.3,3.2-0.6,4.7,0.2c-4,1.9-3.8,5.9-4.9,9.3c-0.6,1.9-1.2,3.7-3.1,4.6
			c-2.2,0.7-4.2-0.1-6.3-0.6c-0.8-0.5-1.8-0.9-1.2-2.1c1.1-2.6,1.4-5.5,2.4-8.2C232.7,90.6,232.5,90.5,236.7,91.1z"/>
		<path class="st79" d="M146,90.6c-1.7,3.2-3.7,6.4-3.2,10.3c-2.8-0.5-5.7-1-8.5-1.5c-1.4-0.2-1.8-1-1.9-2.4
			c-0.3-6.5-0.4-6.5,6.2-6.5C141.1,90.5,143.6,90.6,146,90.6z"/>
		<path class="st80" d="M354.2,107.2c1.2-3.7,2.5-7.4,3.6-11.1c0.3-1.2,0.9-2.4,0.3-3.7c2.5,1,5.3,0,7.7,1.3c0.4,3.3-1.8,6-2.3,9.1
			c-0.3,1.5-1.2,2.9-1.2,4.6c0,1.5-1.1,1.9-2.3,2.2C357.8,109.5,355.5,109.5,354.2,107.2z"/>
		<path class="st6" d="M319.5,213.2c-1.5,0.2-1.8,1.3-2.1,2.5c-0.9,3-1.8,5.9-2.7,8.9c-2.8-0.6-5.5-1.1-8.3-1.7
			c-0.5-4.3,1.5-9.2,4.1-10.3C313.6,211.5,316.6,210.6,319.5,213.2z"/>
		<path class="st55" d="M295.4,452.6c1.3,0,2.6,0,3.9,0c0.9,0.4,1,1.1,0.8,1.9c-2.7,7.4-4.6,15-7.3,22.3c-0.2,0.6-0.7,1-1.2,1.5
			c-1.3,0-2.6,0-3.9,0c-1-1.2-0.6-2.4-0.1-3.6c2.4-6.3,4.4-12.7,5.9-19.3C293.7,454.2,294.4,453.3,295.4,452.6z"/>
		<path class="st81" d="M261.8,452.6c-1.9,6-4,12-5.8,18c-0.7,2.5-2.5,4.8-2,7.6c-1.5,0-3,0-4.5,0c3.2-8.4,4.7-17.4,8.4-25.6
			C259.2,452.6,260.5,452.6,261.8,452.6z"/>
		<path class="st82" d="M312.9,478.3c-1.1,0-2.2,0-3.3,0c-1.2-1.4-1-3.1-0.4-4.6c1.9-5.5,3.7-11,5-16.6c0.4-1.6,1-3.3,2.5-4.4
			c1.1,0,2.2,0,3.3,0c1.3,0.6,1.2,1.7,0.9,2.8c-2.1,7.4-4.4,14.8-7,22.1C313.7,477.9,313.2,478.1,312.9,478.3z"/>
		<path class="st83" d="M375.6,96.2c-0.2,3.3-1.8,6.3-2.5,9.5c-0.4,2-1.4,4-2.2,5.9c-0.7,1.7-0.3,3.3,0,4.9
			c-2.9-0.3-4.7-2.1-6.2-4.3c1.2-6.1,3.1-11.9,6.2-17.2C372.6,95.4,374.1,95.8,375.6,96.2z"/>
		<path class="st84" d="M329,452.6c-2.9,4.7-3.5,10.1-5.1,15.2c-1.1,3.5-2.2,7.1-3.9,10.4c-1.1,0-2.2,0-3.3,0
			c-1.2-3,0.6-5.7,1.4-8.2c1.5-4.7,2.9-9.3,4.4-14c0.5-1.4,1-2.8,2.6-3.4C326.4,452.6,327.7,452.6,329,452.6z"/>
		<path class="st85" d="M215.2,103.4c0.7-4.4,3.4-8.3,3.9-12.8c2.6,0,5.2,0,7.8,0c0.7,0.3,1,0.9,0.7,1.5c-1.5,3.4-2.6,7-3.7,10.5
			c-0.2,0.6-0.7,1.1-1.3,1.3C220,104.4,217.5,105,215.2,103.4z"/>
		<path class="st86" d="M268.2,478.3c0-1.2,0-2.3,0.4-3.5c2.5-7.4,4.9-14.8,7.3-22.2c0.9,0,1.7,0,2.6,0c1.7,1.3,1,3,0.5,4.4
			c-1.9,6.3-3.7,12.5-5.9,18.7c-0.4,1-0.6,2.1-1.7,2.5C270.4,478.3,269.3,478.3,268.2,478.3z"/>
		<path class="st87" d="M318,90.6c-1.4,4.2-3.1,8.4-3.9,12.8c-2.4,1.5-4.7,1.5-7.1,0c-0.1-1.5,0.1-2.9,0.8-4.3
			c1.3-2.7,2.2-5.5,1.8-8.5C312.4,90.6,315.2,90.6,318,90.6z"/>
		<path class="st88" d="M371,95c-1.9,5.8-3.9,11.5-5.8,17.3c-2.3,0.2-4-0.9-5.2-2.8c2.2-2,2-5,2.9-7.6c1-2.7,1.9-5.4,2.9-8.1
			C367.5,94.7,369.5,93.7,371,95z"/>
		<path class="st31" d="M291.5,478.3c2.2-6.1,3.8-12.4,5.9-18.5c0.8-2.2,2.5-4.4,1.9-7.1c1.3,0,2.6,0,3.8,0c0.6,1.1,0.6,2.3,0.1,3.4
			c-2.5,6.6-4.1,13.5-6.6,20.1c-0.3,0.8-0.7,1.6-1.3,2.2C294.1,478.3,292.8,478.3,291.5,478.3z"/>
		<path class="st89" d="M316.7,452.6c-2.5,7-3.8,14.4-6.8,21.2c-0.6,1.4-0.3,3-0.4,4.4c-1.7,0-3.4,0-5.1,0c0.3-3.2,1.9-6.1,2.6-9.2
			c1.2-4.8,3-9.4,4.4-14.1c0.3-1.1,0.8-2,1.9-2.4C314.6,452.6,315.6,452.6,316.7,452.6z"/>
		<path class="st90" d="M325.1,452.6c-1.9,2.3-2.2,5.3-3,8c-1.8,5.9-3.6,11.7-5.3,17.6c-1.3,0-2.6,0-3.9,0c2.3-7.3,4.7-14.6,6.9-22
			c0.3-1.1,1.2-2.4,0.2-3.7C321.7,452.6,323.4,452.6,325.1,452.6z"/>
		<path class="st91" d="M221.7,328.3c2,0.3,4,0.6,6,0.8c2.1,0.2,2.8,1.1,2.8,3.3c-0.1,5.7,0,5.8-5.7,5.7c-1.9,0-3.8-0.1-5.8-0.1
			C218.5,334.3,220.1,331.3,221.7,328.3z"/>
		<path class="st71" d="M271.5,478.3c2.5-8,5.6-15.8,7.2-24.1c0.1-0.5-0.1-1-0.1-1.5c1.5,0,3,0,4.5,0c0.7,3.4-1.1,6.3-2,9.3
			c-1.6,5.5-2.9,11.2-5.7,16.3C274.1,478.3,272.8,478.3,271.5,478.3z"/>
		<path class="st92" d="M223,103.4c0.9-4.1,1.9-8,4.1-11.7c0.2-0.3-0.1-0.8-0.2-1.2c3.3,0,6.6-0.4,9.8,0.5c-2.5-0.3-3.8,0.3-4.5,3.2
			c-0.7,2.8-1.3,5.9-2.9,8.5c-0.4,0.6,0.6,0.7,0.8,1.2C227.6,105.7,225.2,105.2,223,103.4z"/>
		<path class="st80" d="M221,213.4c-0.9,3.5-1.7,7-2.8,10.4c-0.4,1.4-0.3,2.2,0.8,3c-2.2-0.4-4.3-0.8-6.5-1.3
			c-1.1-0.3-2.2-0.9-1.9-2.1c1-3.7,1-7.8,4.2-10.6C217,212.4,219.1,211.8,221,213.4z"/>
		<path class="st93" d="M313.5,452.6c-2.5,6.4-4.6,13-6.3,19.6c-0.6,2.2-1.5,4.1-2.7,6c-0.9,0-1.7,0-2.6,0c-0.9-0.9-0.6-2-0.2-3
			c2.3-6.4,4.5-12.7,6.1-19.3c0.3-1.2,0.8-2.4,1.9-3.3C310.9,452.6,312.2,452.6,313.5,452.6z"/>
		<path class="st94" d="M295.4,452.6c-1.5,5-3.2,10-4.4,15.1c-0.9,3.6-3.3,6.7-3.3,10.5c-1.3,0-2.6,0-3.9,0
			c-0.1-4.2,1.9-7.8,3.1-11.7c1.3-4.1,2.4-8.2,4-12.2c0.3-0.7,0.4-1.5,1.2-1.8C293.2,452.6,294.3,452.6,295.4,452.6z"/>
		<path class="st83" d="M290.9,338c1.5-4.3,3-8.6,4.5-12.9c0.8,0.7,1.7,1.4,2.5,2.1c0.4,2.3,2.9,2.7,3.9,4.5
			c-0.1,2.2-0.2,4.4-1.3,6.3C297.3,338,294.1,338,290.9,338z"/>
		<path class="st13" d="M309.6,452.6c-2.1,7.8-4.2,15.6-7.4,23.1c-0.4,0.8-0.4,1.7-0.4,2.5c-0.9,0-1.7,0-2.6,0
			c-0.8-0.8-0.8-1.7-0.6-2.7c2.1-7.7,4.4-15.4,7.1-22.9C307,452.6,308.3,452.6,309.6,452.6z"/>
		<path class="st95" d="M305.8,452.6c0.8,1.7-0.3,3.2-0.7,4.7c-1.6,5.7-3.4,11.4-5.2,17.1c-0.4,1.3-0.6,2.5-0.5,3.8
			c-1.3,0-2.6,0-3.9,0c1.4-4.6,3.1-9.2,4.3-13.9c1-4,3-7.7,3.5-11.8C304,452.6,304.9,452.6,305.8,452.6z"/>
		<path class="st96" d="M282.5,90.6c-0.8,3.1-3.6,5.5-3.2,9c-1.9,1.2-3.4-0.4-5.1-0.8c-1.8-1-4-1.1-5.7-2.2
			c-0.2-0.2-0.4-0.5-0.4-0.8c1-1.6,1.2-3.4,1.5-5.3C273.9,90.6,278.2,90.6,282.5,90.6z"/>
		<path class="st97" d="M275.3,478.3c1.4-6.9,4.4-13.3,6-20.2c0.4-1.9,1.1-3.7,1.7-5.5c1.1,0,2.2,0,3.3,0c0.8,1.1,0.3,2.3,0,3.4
			c-2,6.4-4.6,12.7-6,19.3c-0.2,1.1-0.8,2.2-1.7,3C277.5,478.3,276.4,478.3,275.3,478.3z"/>
		<path class="st98" d="M214.6,213.3c-1,3-2.1,5.9-3.1,8.9c-0.5,1.3,0,2.5,1.1,3.3c-2.4-0.4-4.7-0.9-7.1-1.3
			c-2.1-0.5-2.6-1.6-1.5-3.5c0.6-1,1.1-2.1,1.4-3.2c1.5-4.9,1.7-5,6.7-5.1C213,212.5,213.9,212.6,214.6,213.3z"/>
		<path class="st99" d="M269.6,90.6c1,2.1,0.8,3.8-1.3,5.1c-2.7,1.3-5.1-0.7-7.7-0.7c-2.2-0.7-4.4-1-6.7-1.3c-3.1-1-6.5-0.3-9.5-1.9
			c-1.4-1.2-3.1-0.3-4.6-0.7c0.4-0.6,1.1-0.6,1.7-0.6C250.8,90.5,260.2,90.6,269.6,90.6z"/>
		<path class="st100" d="M278.6,478.3c1.8-5.1,2.6-10.5,4.7-15.6c1.3-3.2,2.6-6.5,3.1-10c0.9,0,1.7,0,2.6,0c0.9,1,0.9,2.2,0.5,3.3
			c-2.4,6.5-4.3,13.1-6.6,19.6c-0.4,1-0.8,2-1.6,2.7C280.3,478.3,279.4,478.3,278.6,478.3z"/>
		<path class="st101" d="M281.2,478.3c2.4-7.3,4.7-14.7,7.3-21.9c0.5-1.3,0.4-2.5,0.5-3.7c1.1,0,2.1,0,3.2,0
			c-2.6,8.6-5.3,17.2-8.4,25.6C282.9,478.3,282,478.3,281.2,478.3z"/>
		<path class="st102" d="M212.2,213.2c-4.8,0.2-4.9,0.2-6,5.3c-0.2,0.9-0.7,1.6-1.2,2.2c-1.4,1.4-1.1,2.6,0.6,3.5
			c-2.4-0.4-4.7-0.9-7.1-1.3c0.6-2.7,1.4-5.3,1.8-8c0.3-1.8,1.3-2.2,2.8-2.3C206.2,211.5,209.3,210.6,212.2,213.2z"/>
		<path class="st103" d="M221.7,328.3c-0.1,3.5-2,6.4-2.6,9.7c-2.2,0-4.3,0-6.5,0c1.3-3.6,1.5-7.4,3.2-10.8
			C217.9,327.2,219.8,327.6,221.7,328.3z"/>
		<path class="st104" d="M300.6,338c0-2.2-0.2-4.4,1.3-6.3c1.3,0.8,2.6,1.7,3.9,2.5c2.2,1.3,4.6,2.1,7.1,2.6
			c1.7,0.4,3.5,0.8,5.2,1.2C312.2,338,306.4,338,300.6,338z"/>
		<path class="st3" d="M220.5,423.4c-0.9,0.3-1.7,0.9-3.4,0.2c1.8-0.1,2.5-3.3,4-0.2C220.8,423.4,220.7,423.4,220.5,423.4z"/>
		<path class="st3" d="M215.1,415c-0.4,0.1-1.1,0.6-1.1-0.3c0-0.8,0.7-0.9,1.3-0.9C215.3,414.2,215.2,414.6,215.1,415z"/>
		<path class="st105" d="M451.1,393.9c0,6-1.3,11.7-4.8,16.7c-4,5.7-11.1,8.5-17.9,7.1c-2.3-0.5-1.1-2-0.9-3
			c2.3-10.8,4.8-21.6,7.2-32.4c1.2-5.3,3.2-6.4,8.4-4.3c5.5,2.2,7.3,6.9,7.9,12.3C451.3,391.6,451.1,392.8,451.1,393.9z"/>
		<path class="st105" d="M327.3,395.7c-2,0.3-3-0.1-2.3-2.7c1.2-4.4,2.1-9,3-13.5c0.3-1.7,1.1-2.3,2.8-2.1c3.1,0.2,6,0.8,7.2,4.3
			c1.3,3.9-0.2,9.2-3.4,11.7C332.6,395.1,330.1,395.8,327.3,395.7z"/>
		<path class="st0" d="M383.6,386.4c0.7,4.3,1.2,7.7,1.9,11.1c0.4,1.9-0.2,2.2-1.8,2.2c-2.4-0.1-4.9,0-8,0
			C378.5,395,380.9,391,383.6,386.4z"/>
		<path class="st105" d="M66.6,395.3c1.2-5.4,2.4-10.9,3.7-16.3c0.2-0.7,0.3-1.4,1.2-1.7c3.7-1.1,8.1,1.5,8.9,5.4
			C81.9,391,75.7,396.8,66.6,395.3z"/>
		<path class="st105" d="M538.4,390.2c-0.1,7.9-1.4,15.4-5.7,22.2c-2.3,3.6-5.1,6.4-9.7,6.7c-4.7,0.3-8-1.5-9.1-6
			c-2.9-12.1-0.8-23.3,6.9-33.2c2.9-3.7,7-5,11.6-3.5c4.3,1.5,5.4,5.3,5.9,9.2C538.6,387.2,538.4,388.7,538.4,390.2z"/>
		<path class="st105" d="M140.2,390.3c-0.1,7.9-1.5,15.4-5.8,22.2c-2.2,3.4-5,6.2-9.4,6.6c-4.8,0.4-8.2-1.4-9.3-6.1
			c-2.9-11.9-0.7-23.1,6.8-32.9c2.8-3.7,6.9-5.2,11.5-3.7c4.6,1.5,5.7,5.5,6.2,9.7C140.4,387.5,140.2,388.9,140.2,390.3z"/>
		<path class="st106" d="M254.3,386.4c0.8,4.3,1.3,7.9,2,11.4c0.3,1.3-0.2,1.7-1.4,1.7c-2.6,0-5.2,0-8.5,0
			C249.1,395.1,251.5,391,254.3,386.4z"/>
		<path class="st105" d="M212.2,213.2c-3-0.8-6-0.5-9-0.6c-2.3-0.9-4.9-0.4-7.2-1.4c-1.3-1.1-1.1-2.7-1.1-4.2
			c-0.1-5.4,0-10.9,0-16.3c-0.1-9.2,0-18.5,0-27.7c-0.1-7.5-0.1-15,0-22.5c-0.2-3.1,0.2-6.2,0-9.3c0.3-3.9-1-7.9,1-11.6
			c0-4,0.3-8.1,0.1-12.1c-0.2-3,0.6-4.4,3.8-4c1.5,0.2,3,0,4.5-0.1c3.7,0,7.3,0,11,0c2.6,0,5.2,0,7.8,0c2.4,0.4,4.7,0.7,7.1,0.5
			c2.2,0.2,4.3,0.5,6.5,0.7c4.3-0.5,8.2,1.2,12.2,2.4c2.3,0.8,4.4,1.7,6.5,2.8c2.6,1.5,5.1,3.2,7.5,5.1c1.8,1.3,3.2,2.9,4.8,4.5
			c1.6,2.4,4,4.4,4.1,7.6c0,20.2,0.1,40.5,0,60.7c-0.3,2-1.1,3.7-3,4.7c-2.8,3.3-5.6,6.4-8.8,9.2c-3,1.9-6,3.9-9.1,5.8
			c-2.2,0.9-4.3,1.8-6.5,2.7c-2.4,0.6-4.7,1.3-7.1,1.9c-2.6,0.4-5.2,0.8-7.8,1.1c-2.8,0-5.6,0.1-8.4,0.1c-2.2,0-4.3-0.1-6.5-0.1
			C213.8,213.3,213,213.3,212.2,213.2z"/>
		<path class="st74" d="M195.9,190.7c0,6.8,0.1,13.6,0.1,20.5c-3.2,4.4-3.6,9.8-5.3,14.7c-4.2,11.9-7.6,24.1-11.8,36
			c-1.9,5.3-3.8,10.8-5.3,16.1c-2.3,8.3-6.4,16.1-7.5,24.8c-0.2,1.2-1.1,2.1-1.8,2.9c0-7.5,0-15.1,0-22.6
			c4.7-17.7,11.2-34.8,16.6-52.3c3.6-11.5,7.8-22.8,11.1-34.4c0.4-1.2,0.7-2.5,1.2-3.7C193.7,191.6,194.2,190.4,195.9,190.7z"/>
		<path class="st107" d="M195.9,119.6c0,3.9,0,7.7,0,11.6c-2,6.1-4.3,12.1-6,18.3c-1.9,6.7-4.3,13.3-6.6,19.9
			c-2.5,7.3-4.6,14.7-7,22.1c-2.8,8.3-5.7,16.6-8.1,25.1c-0.6,2-0.8,4.9-4,5.1c0-3.7,0-7.3,0-11c3-3.6,4.1-8.3,5.3-12.6
			c1.1-3.7,2.1-7.4,3.4-11c3.5-9.7,6.2-19.6,9.4-29.3c3.6-11,7.5-21.8,10.5-33C193.3,123,193.3,120.4,195.9,119.6z"/>
		<path class="st85" d="M195.9,190.7c-2.5,1.1-2.5,3.7-3.1,5.7c-2.8,9.5-6.3,18.9-9.3,28.3c-1.8,5.8-3.7,11.6-5.6,17.4
			c-3.3,10.2-6.6,20.3-9.9,30.5c-1.1,3.5-1.9,7.2-3.8,10.5c0-9,0-18.1,0-27.1c2.8-9.4,6-18.6,8.8-28c2.7-8.9,5.5-17.7,8.7-26.4
			c1.6-4.4,3.1-9,4.3-13.5c2-7.5,5.1-14.6,7.3-22.1c0.4-1.3,0.4-3.1,2.5-3.2C195.9,172.1,195.9,181.4,195.9,190.7z"/>
		<path class="st108" d="M195.9,162.9c-2.7,3.6-2.7,8.3-4.6,12.2c-3.1,6.3-4.4,13.2-6.6,19.7c-4.2,12.7-8.8,25.2-12.3,38.1
			c-1.9,6.8-4.8,13.3-6.3,20.2c-0.3,1.2-0.7,2.3-1.8,2.9c0-8.4,0-16.8,0-25.2c0.7-0.7,1-1.6,1.3-2.5c4.5-13.6,8.8-27.2,13.2-40.8
			c4.8-14.5,9.2-29.2,14-43.6c0.5-1.5,0.7-3.5,3.1-3.5C195.9,147.8,195.9,155.3,195.9,162.9z"/>
		<path class="st75" d="M195.9,140.3c-1.5,0.7-1.7,2.1-2.1,3.4c-3.6,11.9-7.6,23.6-11.2,35.5c-2,6.7-4.3,13.4-6.7,20.1
			c-3.3,9.3-6.1,18.8-9.1,28.3c-0.5,1.4-0.6,3-2.6,3.3c0-3,0-6,0-9.1c1.5-0.8,2.2-2.1,2.5-3.6c1.9-7.3,4.8-14.3,6.7-21.6
			c0.8-2.9,2.1-5.8,3-8.8c3.7-11.9,7.8-23.6,11.7-35.5c2-6.2,4.3-12.3,5.9-18.6c0.3-1,0.7-2.1,1.9-2.5
			C195.9,134.2,195.9,137.2,195.9,140.3z"/>
		<path class="st109" d="M268.7,192.5c0.8-1.3,1.5-2.6,2.3-3.9c0.9-3.8,2.9-7.1,4-10.8c0.7-2.1,1.4-4.3,1.5-6.5
			c0-1.3,0.3-2.6,0.8-3.7c0.5-1,0.5-2.1,0.8-3.1c0.1-0.3,0.3-0.6,0.4-0.8c1.1-1.6,1.6-3.5,2.2-5.3c4.4-13.8,9.3-27.4,13.3-41.3
			c0.5-1.8,2.2-3.1,2.2-5.2c0-0.4,0.7-0.3,1.1,0c1.6,1.5,3.9,2.4,4,5.1c-2.5,8.6-5.9,17-8.3,25.7c-2.6,9.2-5.9,18.2-9,27.2
			c-3.3,9.9-6.1,19.9-9.6,29.7c-1.5,4.5-2.5,9.1-4.2,13.5c-0.9,2.3-2.3,4.1-4.5,5.3c-0.6,0.4-1.2,0.7-1.9,0.2c-1-5.1,1.9-9.4,3-14.1
			c0.7-3,1.8-5.9,2.8-8.8C270.2,194.2,270.2,193.2,268.7,192.5z"/>
		<path class="st110" d="M263.8,218.6c0.5,0,1,0,1.2-0.6c1.1-0.7,2.3-1,3.4-1.7c1-0.7,2.2-1.1,3,0.4c0.8,6.8,0.4,13.5,0.3,20.3
			c0,0.6-0.3,1.2-0.8,1.7c-1.5-1.7-3.1-3.5-4.6-5.2c-1.2-2.7-3.3-4.9-5.2-7.1c-0.8-1.9-3.5-3.3-3-5c0.5-1.7,3.5-1.4,5.3-2.3
			C263.5,218.9,263.7,218.7,263.8,218.6z"/>
		<path class="st105" d="M360,109.5c1.7,0.9,3.5,1.9,5.2,2.8c1.9,1.4,3.8,2.8,5.8,4.2c1.2,1.3,2.5,2.5,3.7,3.8c2,3.1,4,6.1,6,9.2
			c1.3,3.7,2.6,7.3,3.9,11c1.4,7.8,1.7,15.8,1.5,23.7c-0.6,4.8-1.7,9.5-2.8,14.2c-2.5,6.5-5.9,12.6-10.3,18c-3.1,3-6.3,5.8-9.7,8.3
			c-2.4,1.3-4.7,2.6-7.1,3.9c-3.2,1.1-6.4,2.3-9.6,3.4c-2.8,0.2-5.7,0.5-8.4,1.3c-3.4,0.1-6.9,0.1-10.3,0.2
			c-2.7-0.1-5.5-0.1-8.2-0.2c-3-0.8-6-0.5-9-0.7c-1.4-0.8-2.9-0.5-4.3-0.7c-2-0.2-3.1-1-2.9-3.2c-1-1-1.1-2.3-1.1-3.6
			c0-5.5-0.2-11,0.2-16.4c0.3-2,1.3-3.6,2.3-5.3c5.9-10.5,8.1-21.8,7.4-33.8c-0.2-3,0-6-0.7-9c-0.3-3.9-1.7-7.4-3-11
			c-0.4-2.7-1.9-4.9-3.3-7.1c-0.3-1.7-2.9-2.6-1.9-4.9c0-3.4,0.3-6.8,0.1-10.2c-0.2-3,0.7-4.4,3.8-4.1c2.4,0,4.7,0,7.1,0
			c3.2,0,6.5,0,9.7,0c4.3,0.2,8.6,0.3,12.9,0.5c2.6,0.3,5.2,0.6,7.7,0.8c3.2,0.8,6.5,1.6,9.7,2.4C356.1,108,358.1,108.7,360,109.5z"
			/>
		<path class="st71" d="M303.2,188.1c0,6.9,0,13.8,0,20.7c-3.5,1.6-2.6,5.4-3.6,8.1c-3,7.4-4.8,15.3-7.5,22.8
			c-1.7,4.9-3.4,9.9-4.8,14.9c-0.3,1.2-0.5,2.6-2.3,2.6c-0.2-0.2-0.5-0.4-0.7-0.7c-0.5-1.5-2.4-2-2.5-3.8c-0.9-2.7,0.1-5.4,1.3-7.3
			c2.8-4.5,3.6-9.7,5.3-14.5c2.3-6.6,4.4-13.2,6.5-19.9c1.6-4.9,2.3-10,4.5-14.7c0.5-1,0.2-2.1,0-3.2
			C299.8,190.9,300.6,188.9,303.2,188.1z"/>
		<path class="st111" d="M288.9,262.5c0.8,1.9,2.7,3.1,3.3,5.1c-4.2,8-5.8,17-8.9,25.4c-0.7,1.9-1.1,3.9-1.9,5.8
			c-0.5,1.3-1,2.7-2.9,2.4c-1.5-1.2-2.3-2.9-3.2-4.5c4.4-10.6,6.4-22,11.2-32.4c0.4-0.8-1.5-3.6,1.7-2.5
			C288.5,262,288.7,262.2,288.9,262.5z"/>
		<path class="st85" d="M299.8,193.2c1.2,1.2,1,2.7,0.4,3.9c-2.8,5.3-3,11.5-5.4,16.9c-3.1,7-4.6,14.4-7,21.6
			c-1.9,5.8-5.1,11.1-6,17.3c-1.5-1.1-2.8-2.4-3.8-4c0.1-1.1-1-1.7-1.3-2.6c-1.1-2.2-0.5-4.1,0.6-6.3c3.2-6.1,4.7-12.9,6.8-19.4
			c1.3-3.9,2.9-7.6,3.6-11.7c0.2-1.1,0.5-2.1-0.2-3.1c0.4-2.9,3.5-3.6,4.8-5.7c1.5-1.5,3-2.9,4.3-4.6
			C297.4,194.4,298.2,193.1,299.8,193.2z"/>
		<path class="st61" d="M287.6,205.6c1.2,0.2,2,0.4,1.5,2.1c-1.7,5.2-3,10.6-5,15.8c-2.2,5.8-3.1,12-6.2,17.4
			c-1.1,1.9-0.7,3.7-1.2,5.5c-1.5-1.9-3.1-3.9-4.6-5.8c-0.4-0.6-0.8-1.3-1.2-1.9c0-7.6,0-15.1,0-22.7c0-0.5,0.2-0.8,0.6-1.1
			c1-0.9,2.2-1.3,3.3-2c3-2,6.5-3.3,9.3-5.7C285.2,206.5,286.1,205.2,287.6,205.6z"/>
		<path class="st112" d="M278.5,301.3c3-1.8,2.8-5.1,3.8-7.9c2.6-7.4,4.8-15,7.1-22.5c0.5-1.6,1.5-2.5,2.8-3.3
			c0.7,0.6,0.8,1.7,1.9,2c0.6,0.9,1.2,1.7,1.9,2.6c-3.8,10.3-7.3,20.8-10.6,31.2c-0.5,1.7,0.1,3.7-1.6,5c-1.3-1.5-2.6-3.1-3.8-4.6
			C279.4,303,279,302.1,278.5,301.3z"/>
		<path class="st113" d="M283.7,308.4c0.4-5.8,3-11,4.4-16.5c1.3-5,4.2-9.6,4.7-14.9c0.2-2,1.8-3.4,3.1-4.8c1.9,2.3,3.9,4.4,5.2,7.1
			c-2.1,0.6-2.4,2.7-3,4.3c-3.2,8.8-5.1,18.1-9.1,26.6c-0.7,1.4,0.1,3.2-0.9,4.7c-0.8-0.9-1.7-1.8-2.5-2.7
			C285.1,310.9,284.4,309.7,283.7,308.4z"/>
		<path class="st12" d="M297.3,111.8c-2.6,5.8-4.5,11.8-6.4,17.8c-1.9,6.1-3.6,12.3-5.9,18.2c-1.8,4.6-2.6,9.5-4.6,13.9
			c-0.4,0.9-0.2,2.3-1.7,2.4c-1.2-1.1-1-2.5-1.1-3.9c0-3.9-0.1-7.7,0-11.5c1.4-4.3,2.5-8.6,4.1-12.8c3.1-8.2,5.3-16.6,8.1-24.8
			c0.5-1.5,0.7-3.3,2.9-3.2c1.3,0.9,2.6,1.7,3.9,2.6C296.8,111,297.1,111.4,297.3,111.8z"/>
		<path class="st14" d="M292.7,108c-0.9,0.5-1.6,1.1-1.8,2.1c-2.7,11-7.4,21.4-9.9,32.5c-0.5,2.1-2.4,3.3-2.4,5.5
			c-0.6,0.1-1.1-0.3-1.2-0.9c-0.6-4.4-2.2-8.7-2.6-13.2c3.7-8.6,5.8-17.8,9-26.5c0.5-1.5,0.3-3.9,3.2-3.4c0.2,0,0.4,0,0.6,0
			C289.3,105.5,291.4,106.3,292.7,108z"/>
		<path class="st114" d="M287,104.1c-1.7,0.2-1.7,1.7-2.1,2.9c-2.5,7.7-4.9,15.4-7.3,23.1c-0.5,1.5-1.1,2.7-2.3,3.8
			c-2.8-1.2-2.5-4.2-3.7-6.3c0-0.3-0.1-0.6,0-0.9c-0.2-5.3,3.4-9.6,4.2-14.7c0.6-3.6,2.9-6.6,3.5-10.2c0.1-0.6,0.5-1.2,1.4-0.9
			C282.7,101.8,285.2,102.3,287,104.1z"/>
		<path class="st115" d="M280.6,100.8c-1.5,4.2-3.1,8.5-4.5,12.7c-1,2.8-1.4,5.8-3.2,8.3c-1,1.4,0.3,3.4-0.7,4.9
			c-0.6,0.1-0.9-0.2-1-0.7c-0.9-2.4-2.9-4.1-4.2-6.3c-0.1-0.2-0.2-0.4-0.1-0.6c2.9-6.8,4.3-14.2,7.3-20.9c1.9-0.1,3.3,1.6,5.1,1.4
			C279.7,100,280.1,100.4,280.6,100.8z"/>
		<path class="st116" d="M271.5,215.3c-0.2,0.2-0.4,0.4-0.6,0.7c-2,0.6-3.7,2-5.8,2c3.8-2.4,5.1-6.1,5.9-10.4
			c0.7-3.5,2.2-6.9,3.4-10.3c1.4-3.7,2.3-7.6,3.4-11.3c1.6-5.2,3.5-10.3,5.1-15.5c3.3-10.6,7.3-20.9,10.2-31.6
			c1.8-6.9,5-13.4,6.6-20.4c0.1-0.6,1-1,1.6-1.5c0.4,0.2,0.8,0.5,1.2,0.7c0.8,2,0.3,4-0.4,6c-4.8,13-8.7,26.4-13,39.5
			c-5.1,15.5-10.7,30.9-14.7,46.8C273.9,212,272.3,213.4,271.5,215.3z"/>
		<path class="st117" d="M271.5,215.3c-0.1-0.3-0.4-0.7-0.3-0.9c3.5-5.4,4-11.8,6.1-17.7c3.7-10.7,6.9-21.6,10.6-32.3
			c4.5-13,8.2-26.4,13-39.3c0.9-2.4,1.4-4.9,1.7-7.4c0.2,0,0.5,0,0.7,0c0.8,1.5,1.6,3,2.5,4.5c-5.4,13.6-9.2,27.8-13.8,41.7
			c-2.9,8.7-5.8,17.3-8.5,26.1c-2,6.5-4.2,12.9-6.3,19.3c-0.5,1.5-1.2,3-2.4,4.1C273.6,214,272.5,214.6,271.5,215.3z"/>
		<path class="st42" d="M248.8,107.9c-4.1-1.1-8.2-2.1-12.3-3.2c2.6-2.7,3.1-6.4,3.5-9.6c0.4-3.5,1.9-3.5,4.3-3.3
			c3.3,0,6.6,0.1,9.7,1.3C250.6,97.4,248.8,102.3,248.8,107.9z"/>
		<path class="st59" d="M274.1,98.2c-1.1,6.2-3,12.2-5.6,18c-0.5,1.2-0.4,2.7-1.7,3.6c-1.5-1.4-3-2.8-4.4-4.2
			c-1.1-1.7-0.5-3.4,0.1-4.9c1.6-4.1,3-8.3,4.1-12.5c0.2-0.9,0.6-1.6,1.6-1.8C270.3,96.7,272.4,96.8,274.1,98.2z"/>
		<path class="st37" d="M268.3,96.3c-1.8,6.5-4.9,12.5-5.8,19.3c-2.4-1.6-4.8-3.2-7.2-4.8c0.9-5.7,3.2-11,5.3-16.4
			c2.7-0.2,5.1,1.2,7.7,1.4C268.2,95.9,268.2,96.1,268.3,96.3z"/>
		<path class="st118" d="M260.5,94.3c-0.6,5.8-3.1,11-5.3,16.4c-2.1-0.9-4.3-1.9-6.4-2.8c-1.2-1.2-1.2-2.6-0.6-4.1
			c1.1-3,2.2-6,3.2-9c0.5-1.4,1.4-1.7,2.7-1.7C256.3,93,258.5,93.2,260.5,94.3z"/>
		<path class="st119" d="M271.1,126.1c0.3,0.2,0.7,0.5,1,0.7c0,0.2,0,0.4,0,0.6c0.9,15.5,0.2,31.1,0.4,46.6c0,1.1-0.3,2.3,0.3,3.5
			c1.1-1.3,1.3-3,1.8-4.4c0.5-1.2,0.9-2.5,2.7-1.8c-0.7,6.3-3.1,12-6.3,17.3C271,167.8,271,146.9,271.1,126.1z"/>
		<path class="st120" d="M277.3,171.3c-1.1,0.1-2,0.7-1.8,1.8c0.3,2-1.3,3.3-1.5,5.2c-0.1,1-0.9,1.6-1.8,1.6
			c-1.3-0.1-0.7-1.4-0.7-2.1c0-15.1-0.1-30.2,0-45.4c0-1.7-0.6-3.4,0.5-5c1.1,2.1,2.2,4.3,3.2,6.4c1.1,4.8,2.2,9.5,3.3,14.3
			c0,5.4,0.1,10.8,0.1,16.1c0,0-0.1,0-0.1,0c-0.7,1,0.1,2.3-0.6,3.2C277.7,168.7,277,169.9,277.3,171.3z"/>
		<path class="st119" d="M277.9,167.4c0.1-1.1-0.4-2.3,0.6-3.2C278.5,165.3,278.9,166.5,277.9,167.4z"/>
		<path class="st121" d="M274.7,213.3c3.8-11.2,7.7-22.4,11.3-33.7c4.4-13.7,8.6-27.5,12.9-41.2c1.4-4.6,3-9.1,4.6-13.7
			c0.4-1,0.6-2.4,2.1-2.6c1.5,2.2,2.9,4.4,3.3,7.1c-4.7,14.3-9.4,28.6-14,42.9c-3.2,9.8-6.6,19.6-9.6,29.4c-0.6,1.9-1.3,3.9-0.9,6
			C281.7,210.3,278,211.6,274.7,213.3z"/>
		<path class="st21" d="M284.4,207.5c-0.4-0.5-2.1,1.3-1.5-0.7c3.7-12.9,8.1-25.6,12.4-38.3c3.2-9.4,6-18.9,9.2-28.3
			c1-2.8,1.7-5.7,2.5-8.5c0.3-1.1,1-1.9,2-2.4c1.8,3.4,2.7,7.1,3.1,11c-4,12-7.9,24.1-11.8,36.1c-2.2,6.8-4,13.9-6.7,20.5
			c-0.4,1.1-0.6,2.3-0.8,3.5c-1.3,2.2-3.6,3.3-5.2,5.2C286.6,206.2,285.5,206.9,284.4,207.5z"/>
		<path class="st16" d="M292.8,200.4c-1.1-1.1-0.6-2.3-0.2-3.6c3.3-9.9,6.6-19.9,9.8-29.8c2.3-7,3.9-14.3,7.2-20.9
			c0.8-1.7,0.1-3.7,1.4-5.2c0.3-0.3,0.7-0.4,1.1-0.6c2.5,15.1,0.9,29.6-6.5,43.3c-0.8,1.5-1.6,3-2.4,4.5c-1.4,1.5-2.6,3.2-3.4,5.2
			C297,195.2,295.8,198.6,292.8,200.4z"/>
	</g>
</g>
</svg>
