<?xml version="1.0" encoding="utf-8"?>
<!-- Generator: Adobe Illustrator 25.2.0, SVG Export Plug-In . SVG Version: 6.00 Build 0)  -->
<svg version="1.1" id="Vrstva_1" xmlns="http://www.w3.org/2000/svg" xmlns:xlink="http://www.w3.org/1999/xlink" x="0px" y="0px"
	 viewBox="0 0 841.9 841.9" style="enable-background:new 0 0 841.9 841.9;" xml:space="preserve">
<style type="text/css">
	.st0{fill:url(#SVGID_1_);}
	.st1{fill:#FFFFFF;}
</style>
<linearGradient id="SVGID_1_" gradientUnits="userSpaceOnUse" x1="923.543" y1="520.371" x2="-80.5431" y2="-20.371" gradientTransform="matrix(1 0 0 -1 0 671)">
	<stop  offset="0" style="stop-color:#C30C2B"/>
	<stop  offset="0.4236" style="stop-color:#C30C2B"/>
	<stop  offset="1" style="stop-color:#432C79"/>
</linearGradient>
<rect x="0.5" y="0" class="st0" width="841.9" height="841.9"/>
<path class="st1" d="M700.6,436.6h-99V335.4c0-0.1,0-0.3,0-0.4c0.2-4.3,1-8.6,2.4-12.7c8.2-24.7,34.9-38.1,59.6-29.8
	c14.1,4.7,25.1,15.7,29.8,29.8c2.2,6.5,2.9,13.5,2.1,20.3c6.8-0.8,13.8-0.1,20.3,2c7.1,2.3,13.5,6.2,18.7,11.5
	c18.4,18.5,18.4,48.3-0.1,66.8c-8.7,8.7-20.4,13.6-32.6,13.8L700.6,436.6z M619.8,418.4h82c16-0.3,28.7-13.5,28.4-29.5
	c-0.3-16-13.5-28.7-29.5-28.4c-5.2,0.1-10.2,1.6-14.6,4.3c-4.3,2.6-9.9,1.3-12.5-3c-1.8-2.9-1.8-6.6,0-9.5
	c4.4-7.3,5.4-16.2,2.7-24.3c-1.4-4.3-3.8-8.1-7-11.3c-11.3-11.3-29.6-11.4-40.9-0.1c-3.2,3.2-5.6,7.1-7.1,11.4
	c-0.8,2.5-1.3,5-1.4,7.6V418.4z M731.6,461.3c10.2-4.2,19.4-10.6,26.9-18.7c7.7-8.3,13.4-18.2,16.8-29c1.2-3.7-0.9-7.8-4.6-8.9
	c-3.7-1.2-7.8,0.9-8.9,4.6l0,0c-2.8,8.8-7.5,16.8-13.7,23.6c-6.1,6.6-13.5,11.8-21.8,15.2c-3.6,1.5-5.4,5.7-3.9,9.3
	C723.8,461,727.9,462.8,731.6,461.3L731.6,461.3z M588.7,316c3.3-9.8,9.1-18.7,16.7-25.7c6.5-6,14.2-10.5,22.5-13.3
	c3.7-1.4,5.6-5.5,4.2-9.2c-1.3-3.5-5.1-5.4-8.7-4.4c-10.3,3.4-19.7,9-27.7,16.3c-9.4,8.6-16.5,19.5-20.6,31.6
	c-1.3,3.7,0.7,7.8,4.4,9c0,0,0,0,0,0c0.7,0.3,1.5,0.4,2.3,0.4C585,320.8,587.7,318.8,588.7,316z M556.1,315.2c0.7-3,1.5-5.9,2.5-8.8
	c5-15.1,13.7-28.6,25.5-39.3c12.2-11.2,27.1-19,43.2-22.6c3.9-0.8,6.4-4.5,5.6-8.4s-4.5-6.4-8.4-5.6c-0.1,0-0.3,0.1-0.4,0.1
	c-18.6,4.1-35.8,13.1-49.8,26c-13.5,12.4-23.6,28-29.3,45.3c-1.1,3.3-2.1,6.7-2.9,10.2c-0.9,3.8,1.5,7.7,5.4,8.5
	c0.5,0.1,1.1,0.2,1.6,0.2C552.5,320.8,555.4,318.5,556.1,315.2L556.1,315.2z M724.6,496.3c41.9-8.8,74.6-41.5,83.5-83.4
	c0.8-3.9-1.6-7.6-5.5-8.5c-3.9-0.8-7.6,1.6-8.5,5.5l0,0c-3.5,16.6-11.5,31.9-23,44.4c-10.8,11.7-24.5,20.4-39.6,25.4
	c-3.2,1.1-6.5,2-9.9,2.7c-3.8,0.8-6.3,4.6-5.5,8.5c0.7,3.3,3.6,5.6,6.9,5.6C723.6,496.5,724.1,496.4,724.6,496.3z M538.2,351
	c25.2,0,43.1,18.8,43.1,42.7c0,23.9-17.9,42.8-43.1,42.8c-25.2,0-43.1-18.8-43.1-42.7S512.8,351.1,538.2,351 M538.2,418
	c14.1,0,23.2-10.7,23.2-24.1c0-13.4-9.1-24.1-23.2-24.1S515,380.5,515,393.9C515,407.3,523.9,418,538.2,418 M44.1,434.5h19.6v-31.6
	h31.4v31.6h19.5v-80.1H95.1v31.5H63.7v-31.5H44.1V434.5z M128.5,434.5h19.6v-80.1h-19.7L128.5,434.5z M229.2,354.6h33.5
	c17.2,0,28.4,10.4,28.4,25.5c0,14-7.1,21.9-19,24.8l21.6,29.8h-24.6l-20.4-29.9v29.9h-19.6L229.2,354.6z M264.6,389.3
	c4.4,0,7.4-4.5,7.4-9.2s-3.5-8.8-7.9-8.8h-15.3v18L264.6,389.3z M388.2,354.6h27.9c23.6,0,41.9,17.4,41.9,39.9
	c0,21.4-16.3,40.2-41.9,40.2h-27.9L388.2,354.6z M415.7,416.8c12.6,0,22.2-8.8,22.2-22.3c0-12.4-8.4-22.2-22.2-22.2h-7.9v44.5H415.7
	z M466.6,434.7h19.5v-80.1h-19.6L466.6,434.7z M346.5,354.6h-14.7l-33.5,80.1h21.1l3.9-8.3H355l4,8.3h21.1L346.5,354.6z
	 M329.6,408.3l9.6-27.3l9.2,27.3H329.6z M333.6,347.1h13.2l9.2-14.7h-16.5L333.6,347.1z M179.6,371.7h-20.6v-17.3h61v17.3h-20.8
	v62.6h-19.7L179.6,371.7z M44,466h20.1L80,512l15.9-46H116l-30.8,78.8H74.8L44,466z M147.5,514.8l-28-48.8h21.8l15.8,31.7l15.9-31.7
	h21.7l-28,48.8v30h-19.2V514.8z M309.4,463.3c24.8,0,42.4,18.5,42.4,42s-17.6,42-42.4,42c-24.8,0-42.4-18.5-42.4-42
	C267,481.9,284.5,463.3,309.4,463.3z M309.4,529.1c13.9,0,22.8-10.5,22.8-23.8s-8.9-23.8-22.8-23.8s-22.9,10.5-22.9,23.8
	S295.4,529.1,309.4,529.1L309.4,529.1z M450.4,466h19.3v78.8h-19.3V466z M482.3,466h20.4l30.6,46.7V466h19.2v78.8h-20.1l-30.7-46.9
	v46.9h-19.3V466z M608,465.9h-14.4l-32.9,78.9h20.8l3.8-8.2h31.1l3.9,8.1h20.8L608,465.9z M591.3,518.8l9.5-26.9l9.1,26.9H591.3z
	 M236.2,489.7v-1.5c0-4.5-4.4-8-9.6-8c-5.5,0-10,3.7-10,8c0,2.1,1.1,4,2.9,4.9c2.4,1.5,5,2.6,7.8,3.2c1.3,0.2,2.4,0.6,3.8,0.8
	c5.3,1.3,12.7,3.3,16.4,6.8l1,0.9c4.6,4.5,7.3,10.6,7.4,17.1c-0.1,7.1-3.3,13.7-8.7,18.2c-12.1,9.8-29.5,9.8-41.6,0
	c-5.5-4.5-8.7-11.2-8.8-18.2v-1.5h20.1v1.5c0,4.4,4.2,8,9.5,8c5.5,0,10-3.7,10-8c0-2-1.1-3.6-3.1-5c-2.3-1.5-4.9-2.6-7.7-3.1
	c-1.3-0.3-2.4-0.6-3.8-0.9c-5.5-1.3-11.9-2.7-16.4-6.8l-0.5-0.5c-5.1-4.4-8-10.7-8.1-17.4c0.1-7.1,3.4-13.7,8.8-18.2
	c12.1-9.8,29.5-9.8,41.6,0c5.4,4.5,8.6,11.2,8.7,18.2v1.5L236.2,489.7z M404.3,463.3c12.9-0.3,25.2,5,33.9,14.5l-13.3,12.7
	c-5.4-5.5-12.8-8.7-20.6-8.8c-14.1,0-23.2,10.5-23.2,23.8c0,13.3,9.1,23.9,23.2,23.9c7.7-0.1,15.1-3.3,20.6-8.8l12.9,12.6
	c-8.6,9.4-20.8,14.6-33.5,14.5c-25,0-42.9-18.6-42.9-42.2C361.4,481.9,379.2,463.3,404.3,463.3z M408.2,444.9l-3.9,5.7l-3.9-5.7
	h-14.7l9.8,13.3H413l9.8-13.3L408.2,444.9z"/>
</svg>
