<?xml version="1.0" encoding="utf-8"?>
<!-- Generator: Adobe Illustrator 25.2.0, SVG Export Plug-In . SVG Version: 6.00 Build 0)  -->
<svg version="1.1" id="Vrstva_1" xmlns="http://www.w3.org/2000/svg" xmlns:xlink="http://www.w3.org/1999/xlink" x="0px" y="0px"
	 viewBox="0 0 841.9 841.9" style="enable-background:new 0 0 841.9 841.9;" xml:space="preserve">
<style type="text/css">
	.st0{fill:url(#SVGID_1_);}
	.st1{fill:#FFFFFF;}
</style>
<linearGradient id="SVGID_1_" gradientUnits="userSpaceOnUse" x1="923.543" y1="520.371" x2="-80.5431" y2="-20.371" gradientTransform="matrix(1 0 0 -1 0 671)">
	<stop  offset="0" style="stop-color:#C30C2B"/>
	<stop  offset="0.4236" style="stop-color:#C30C2B"/>
	<stop  offset="1" style="stop-color:#432C79"/>
</linearGradient>
<rect x="0.5" y="0" class="st0" width="841.9" height="841.9"/>
<path class="st1" d="M699.5,437.7H599.2V335.2c0-0.1,0-0.3,0-0.4c1.3-26.4,23.7-46.7,50-45.4c26.4,1.3,46.7,23.7,45.4,50
	c-0.1,1.1-0.1,2.1-0.3,3.2c6.9-0.8,14-0.1,20.6,2.1c7.1,2.3,13.6,6.3,18.9,11.7c18.6,18.7,18.5,49-0.2,67.6
	c-8.8,8.7-20.6,13.7-32.9,13.9H699.5z M617.6,419.2h83c16.2-0.3,29.1-13.7,28.8-29.9c-0.3-16.2-13.7-29.1-29.9-28.8
	c-5.2,0.1-10.4,1.6-14.8,4.4c-4.3,2.7-10,1.3-12.7-3c-1.8-3-1.8-6.7,0-9.7c8.4-13.8,4.1-31.9-9.7-40.3c-13.8-8.4-31.9-4.1-40.3,9.7
	c-1.2,1.9-2.1,3.9-2.8,6c-0.8,2.5-1.3,5.1-1.5,7.7V419.2z M730.8,462.7c10.3-4.2,19.6-10.7,27.2-18.9c7.8-8.4,13.6-18.4,17.1-29.3
	c1.2-3.8-1-7.8-4.8-9c-3.7-1.1-7.7,0.9-8.9,4.6c-2.8,8.9-7.6,17-13.9,23.9c-6.2,6.7-13.7,11.9-22.1,15.4c-3.6,1.7-5.1,6-3.4,9.6
	C723.5,462.2,727.3,463.8,730.8,462.7L730.8,462.7z M586.1,315.5c3.4-10,9.2-18.9,16.9-26c6.6-6,14.4-10.6,22.8-13.5
	c3.8-1.1,6-5.2,4.9-9c-1.1-3.8-5.2-6-9-4.9c-0.1,0-0.3,0.1-0.4,0.1c-10.4,3.5-20,9.1-28,16.5c-9.5,8.7-16.7,19.7-20.8,32
	c-1.3,3.8,0.7,7.9,4.5,9.2c0,0,0,0,0,0c0.8,0.3,1.5,0.4,2.3,0.4C582.3,320.4,585.1,318.4,586.1,315.5z M553.1,314.8
	c0.7-3,1.5-6,2.5-9c5-15.3,13.9-29,25.8-39.9c12.3-11.3,27.4-19.2,43.8-22.9c3.9-0.7,6.6-4.4,5.9-8.3c-0.7-3.9-4.4-6.6-8.3-5.9
	c-0.3,0-0.5,0.1-0.8,0.2c-18.8,4.2-36.2,13.3-50.4,26.3c-13.6,12.5-23.8,28.3-29.6,45.9c-1.1,3.4-2.1,6.8-2.9,10.3
	c-0.9,3.9,1.5,7.7,5.4,8.6c0.5,0.1,1.1,0.2,1.6,0.2C549.5,320.4,552.4,318,553.1,314.8L553.1,314.8z M723.8,498.1
	c22.2-4.7,42.3-16.1,57.7-32.7c13.4-14.5,22.7-32.4,26.8-51.8c0.8-3.9-1.7-7.7-5.6-8.6c-3.9-0.8-7.7,1.7-8.6,5.6l0,0
	c-3.6,16.8-11.6,32.3-23.3,44.9c-10.9,11.9-24.8,20.7-40.1,25.7c-3.3,1.1-6.6,2-10,2.7c-3.9,0.8-6.4,4.7-5.5,8.6
	c0.7,3.3,3.6,5.7,7,5.7C722.8,498.3,723.3,498.3,723.8,498.1z M534.9,351c25.6,0,43.7,19.1,43.7,43.3s-18.1,43.3-43.7,43.3
	s-43.7-19.1-43.7-43.3C491.3,370.1,509.2,351,534.9,351 M534.9,418.8c14.3,0,23.5-10.9,23.5-24.4c0-13.6-9.2-24.4-23.5-24.4
	c-14.3,0-23.5,10.9-23.5,24.4C511.4,408,520.5,418.8,534.9,418.8 M34.5,435.6h19.9v-32h31.8v32h19.7v-81.1H86.2v31.9H54.4v-31.9
	H34.5V435.6z M120,435.6h19.9v-81.1H120V435.6z M222,354.6h33.9c17.4,0,28.8,10.5,28.8,25.8c0,14.2-7.2,22.2-19.2,25.1l21.9,30.2
	h-24.9l-20.7-30.3v30.3H222L222,354.6z M257.9,389.7c4.5,0,7.4-4.6,7.4-9.3c0-4.7-3.5-8.9-8-8.9h-15.5v18.2L257.9,389.7z M383,354.6
	h28.3c23.9,0,42.5,17.6,42.5,40.4c0,21.6-16.5,40.7-42.5,40.7H383L383,354.6z M410.9,417.6c12.7,0,22.4-8.9,22.4-22.6
	c0-12.6-8.5-22.4-22.4-22.4h-8v45H410.9z M462.4,435.7h19.9v-81.1h-19.9L462.4,435.7z M340.8,354.6h-14.8L292,435.7h21.4l3.9-8.4h32
	l4.1,8.4h21.4L340.8,354.6z M323.6,409l9.7-27.7l9.3,27.7H323.6z M327.7,347H341l9.3-14.9h-16.6L327.7,347z M171.7,371.9h-20.8
	v-17.5h61.8V372h-21.1v63.4h-20L171.7,371.9z M34.5,464.5h52.4v17.6H54.4v17.3h29.9v17.3H54.4v29H34.5V464.5z M174.3,464.5h19.9
	v36.3h0.3l23.4-36.3h21.9l-27.9,38.6l29.4,42.6h-22l-24.9-39.3h-0.3v39.3h-19.8V464.5z M352.8,461.8c25.6,0,43.7,19.1,43.7,43.3
	s-18.1,43.3-43.7,43.3c-25.6,0-43.7-19.1-43.7-43.3S327,461.8,352.8,461.8L352.8,461.8z M352.8,529.6c14.3,0,23.6-10.9,23.6-24.5
	s-9.2-24.5-23.6-24.5s-23.6,10.9-23.6,24.5C329.3,518.8,338.3,529.6,352.8,529.6L352.8,529.6z M410.3,464.5h33.9
	c17.5,0,28.8,10.6,28.8,25.8c0,14.2-7.2,22.2-19.2,25.2l21.9,30.2h-24.9l-20.7-30.3v30.3h-19.9L410.3,464.5z M446.2,499.7
	c4.5,0,7.4-4.6,7.4-9.3c0-4.7-3.5-8.9-8-8.9h-15.5v18.3H446.2z M131.4,464.5h-14.8l-33.9,81.2h21.4l3.9-8.4h32.1l4.1,8.4h21.4
	L131.4,464.5z M114.2,519l9.7-27.7l9.3,27.7H114.2z M267.3,482.1h-20.9v-17.6h62v17.6h-21.1v63.6h-20V482.1z"/>
</svg>
