<?xml version="1.0" encoding="UTF-8" standalone="no"?>
<!DOCTYPE svg PUBLIC "-//W3C//DTD SVG 1.1//EN" "http://www.w3.org/Graphics/SVG/1.1/DTD/svg11.dtd">
<svg width="100%" height="100%" viewBox="0 0 2481 2481" version="1.1" xmlns="http://www.w3.org/2000/svg" xmlns:xlink="http://www.w3.org/1999/xlink" xml:space="preserve" xmlns:serif="http://www.serif.com/" style="fill-rule:evenodd;clip-rule:evenodd;stroke-linejoin:round;stroke-miterlimit:2;">
    <g id="Verze-2" serif:id="Verze 2">
        <g transform="matrix(1,0,0,1,0,221.694)">
            <g transform="matrix(2.26034,0,0,2.26034,-148.07,-138.878)">
                <path d="M784.824,595.744C769.736,595.744 757.504,583.512 757.504,568.424L757.504,454.314C757.504,439.226 769.736,426.994 784.824,426.994C799.913,426.994 812.145,439.226 812.145,454.314L812.145,568.424C812.145,583.512 799.913,595.744 784.824,595.744Z" style="fill:url(#_Linear1);"/>
            </g>
            <g transform="matrix(2.26034,0,0,2.26034,-148.07,-138.878)">
                <path d="M465.369,644.752C480.458,644.752 492.689,632.52 492.689,617.432L492.689,405.306C492.689,390.218 480.458,377.986 465.369,377.986C450.281,377.986 438.049,390.218 438.049,405.306L438.049,617.432C438.049,632.52 450.281,644.752 465.369,644.752Z" style="fill:url(#_Linear2);"/>
            </g>
            <g transform="matrix(2.26034,0,0,2.26034,-148.07,-138.878)">
                <path d="M350.733,568.118C365.821,568.118 378.053,555.886 378.053,540.798L378.053,481.94C378.053,466.852 365.821,454.62 350.733,454.62C335.644,454.62 323.413,466.852 323.413,481.94L323.413,540.798C323.413,555.886 335.644,568.118 350.733,568.118Z" style="fill:url(#_Linear3);"/>
            </g>
            <g transform="matrix(2.26034,0,0,3.84844,317.542,-949.507)">
                <path d="M465.369,644.752C472.667,644.752 483.646,643.108 488.547,638.446C493.778,633.469 492.689,625.223 492.689,617.432L492.689,405.306C492.689,398.22 493.969,389.331 489.544,384.476C484.548,378.993 473.372,377.986 465.369,377.986C457.567,377.986 446.551,379.115 441.573,384.36C436.924,389.258 438.049,398.02 438.049,405.306L438.049,617.432C438.049,625.167 437.121,633.125 442.287,638.095C447.198,642.82 458.016,644.752 465.369,644.752Z" style="fill:url(#_Linear4);"/>
            </g>
            <g transform="matrix(2.26034,0,0,4.73775,97.1837,-1404.27)">
                <path d="M465.369,644.752C472.667,644.752 483.646,643.108 488.547,638.446C493.778,633.469 492.689,625.223 492.689,617.432L492.689,405.306C492.689,398.22 493.969,389.331 489.544,384.476C484.548,378.993 473.372,377.986 465.369,377.986C457.567,377.986 446.551,379.115 441.573,384.36C436.924,389.258 438.049,398.02 438.049,405.306L438.049,617.432C438.049,625.167 437.121,633.125 442.287,638.095C447.198,642.82 458.016,644.752 465.369,644.752Z" style="fill:url(#_Linear5);"/>
            </g>
            <g transform="matrix(2.26034,0,0,2.26034,-148.07,-138.878)">
                <path d="M904.922,511.369C904.922,525.504 893.463,536.964 879.328,536.964C865.192,536.964 853.733,525.504 853.733,511.369C853.733,497.233 865.192,485.774 879.328,485.774C893.463,485.774 904.922,497.233 904.922,511.369Z" style="fill:url(#_Linear6);"/>
            </g>
        </g>
        <g transform="matrix(1,0,0,1,0,221.694)">
            <g transform="matrix(2.02386,-1.00654,1.00654,2.02386,-1141.82,647.756)">
                <path d="M784.824,595.744C769.736,595.744 757.504,583.512 757.504,568.424L757.504,454.314C757.504,439.226 769.736,426.994 784.824,426.994C799.913,426.994 812.145,439.226 812.145,454.314L812.145,568.424C812.145,583.512 799.913,595.744 784.824,595.744Z" style="fill:rgb(29,38,74);"/>
            </g>
            <g transform="matrix(-2.02386,-1.00654,-1.00654,2.02386,3195.41,647.756)">
                <path d="M784.824,595.744C769.736,595.744 757.504,583.512 757.504,568.424L757.504,454.314C757.504,439.226 769.736,426.994 784.824,426.994C799.913,426.994 812.145,439.226 812.145,454.314L812.145,568.424C812.145,583.512 799.913,595.744 784.824,595.744Z" style="fill:rgb(29,38,74);"/>
            </g>
        </g>
        <g transform="matrix(1,0,0,1,0,221.694)">
            <g transform="matrix(1.3428e-15,-2.26034,-2.01043,-1.54223e-15,2290.02,3115.03)">
                <path d="M784.824,595.744C769.736,595.744 757.504,583.512 757.504,568.424L757.504,454.314C757.504,439.226 769.736,426.994 784.824,426.994C799.913,426.994 812.145,439.226 812.145,454.314L812.145,568.424C812.145,583.512 799.913,595.744 784.824,595.744Z" style="fill:rgb(29,38,74);"/>
            </g>
            <g transform="matrix(-2.26034,-1.66533e-15,-1.66533e-15,2.26034,2922.78,185.196)">
                <path d="M784.824,595.744C769.736,595.744 757.504,583.512 757.504,568.424L757.504,454.314C757.504,439.226 769.736,426.994 784.824,426.994C799.913,426.994 812.145,439.226 812.145,454.314L812.145,568.424C812.145,583.512 799.913,595.744 784.824,595.744Z" style="fill:rgb(29,38,74);"/>
            </g>
            <g transform="matrix(-2.26034,-1.66533e-15,-1.66533e-15,2.26034,3143.79,185.196)">
                <path d="M784.824,595.744C765.348,595.744 757.504,583.512 757.504,568.424L757.504,454.314C757.504,439.226 769.736,426.994 784.824,426.994C799.913,426.994 812.145,439.226 812.145,454.314L812.145,568.424C812.145,583.512 804.3,595.744 784.824,595.744Z" style="fill:rgb(29,38,74);"/>
            </g>
        </g>
    </g>
    <defs>
        <linearGradient id="_Linear1" x1="0" y1="0" x2="1" y2="0" gradientUnits="userSpaceOnUse" gradientTransform="matrix(568.15,-566.964,651.815,653.178,264.628,739.118)"><stop offset="0" style="stop-color:rgb(29,38,74);stop-opacity:1"/><stop offset="0.09" style="stop-color:rgb(27,66,92);stop-opacity:1"/><stop offset="0.17" style="stop-color:rgb(22,160,151);stop-opacity:1"/><stop offset="0.39" style="stop-color:rgb(15,180,187);stop-opacity:1"/><stop offset="1" style="stop-color:white;stop-opacity:1"/></linearGradient>
        <linearGradient id="_Linear2" x1="0" y1="0" x2="1" y2="0" gradientUnits="userSpaceOnUse" gradientTransform="matrix(568.15,-566.964,651.815,653.178,264.628,739.118)"><stop offset="0" style="stop-color:rgb(29,38,74);stop-opacity:1"/><stop offset="0.09" style="stop-color:rgb(27,66,92);stop-opacity:1"/><stop offset="0.17" style="stop-color:rgb(22,160,151);stop-opacity:1"/><stop offset="0.39" style="stop-color:rgb(15,180,187);stop-opacity:1"/><stop offset="1" style="stop-color:white;stop-opacity:1"/></linearGradient>
        <linearGradient id="_Linear3" x1="0" y1="0" x2="1" y2="0" gradientUnits="userSpaceOnUse" gradientTransform="matrix(568.15,-566.964,651.815,653.178,264.628,739.118)"><stop offset="0" style="stop-color:rgb(29,38,74);stop-opacity:1"/><stop offset="0.09" style="stop-color:rgb(27,66,92);stop-opacity:1"/><stop offset="0.17" style="stop-color:rgb(22,160,151);stop-opacity:1"/><stop offset="0.39" style="stop-color:rgb(15,180,187);stop-opacity:1"/><stop offset="1" style="stop-color:white;stop-opacity:1"/></linearGradient>
        <linearGradient id="_Linear4" x1="0" y1="0" x2="1" y2="0" gradientUnits="userSpaceOnUse" gradientTransform="matrix(568.15,-333.001,651.815,383.637,58.6358,644.752)"><stop offset="0" style="stop-color:rgb(29,38,74);stop-opacity:1"/><stop offset="0.09" style="stop-color:rgb(27,66,92);stop-opacity:1"/><stop offset="0.17" style="stop-color:rgb(22,160,151);stop-opacity:1"/><stop offset="0.39" style="stop-color:rgb(15,180,187);stop-opacity:1"/><stop offset="1" style="stop-color:white;stop-opacity:1"/></linearGradient>
        <linearGradient id="_Linear5" x1="0" y1="0" x2="1" y2="0" gradientUnits="userSpaceOnUse" gradientTransform="matrix(568.15,-270.494,651.815,311.626,156.125,619.715)"><stop offset="0" style="stop-color:rgb(29,38,74);stop-opacity:1"/><stop offset="0.09" style="stop-color:rgb(27,66,92);stop-opacity:1"/><stop offset="0.17" style="stop-color:rgb(22,160,151);stop-opacity:1"/><stop offset="0.39" style="stop-color:rgb(15,180,187);stop-opacity:1"/><stop offset="1" style="stop-color:white;stop-opacity:1"/></linearGradient>
        <linearGradient id="_Linear6" x1="0" y1="0" x2="1" y2="0" gradientUnits="userSpaceOnUse" gradientTransform="matrix(568.15,-566.964,651.815,653.178,264.628,739.118)"><stop offset="0" style="stop-color:rgb(29,38,74);stop-opacity:1"/><stop offset="0.09" style="stop-color:rgb(27,66,92);stop-opacity:1"/><stop offset="0.17" style="stop-color:rgb(22,160,151);stop-opacity:1"/><stop offset="0.39" style="stop-color:rgb(15,180,187);stop-opacity:1"/><stop offset="1" style="stop-color:white;stop-opacity:1"/></linearGradient>
    </defs>
</svg>
