<?xml version="1.0" encoding="UTF-8" standalone="no"?>
<!DOCTYPE svg PUBLIC "-//W3C//DTD SVG 1.1//EN" "http://www.w3.org/Graphics/SVG/1.1/DTD/svg11.dtd">
<svg width="100%" height="100%" viewBox="0 0 3508 2481" version="1.1" xmlns="http://www.w3.org/2000/svg" xmlns:xlink="http://www.w3.org/1999/xlink" xml:space="preserve" xmlns:serif="http://www.serif.com/" style="fill-rule:evenodd;clip-rule:evenodd;stroke-linejoin:round;stroke-miterlimit:2;">
    <g transform="matrix(0.610862,0,0,0.610862,683.745,454.08)">
        <path d="M1473.19,1128.93L1473.19,355.759C1473.32,353.252 1473.32,350.736 1473.58,348.239C1476.25,321.916 1494.25,297.9 1518.41,287.691C1525.19,284.825 1532.29,282.983 1539.58,282.242C1544.57,281.734 1549.61,281.986 1554.63,282.242C1563.33,283.58 1566.26,283.656 1575.8,287.691C1599.99,297.914 1617.95,321.926 1620.63,348.239C1620.88,350.736 1620.89,353.252 1621.01,355.759L1621.01,1106.58L1598.72,1106.58C1594.54,1106.99 1593.38,1106.79 1589.45,1108.42C1583.57,1110.86 1578.77,1115.65 1576.33,1121.53C1574.7,1125.46 1574.9,1126.63 1574.49,1130.8L1574.49,1451.26C1574.9,1455.44 1574.7,1456.6 1576.33,1460.53C1578.77,1466.41 1583.57,1471.21 1589.45,1473.65C1593.38,1475.28 1594.54,1475.08 1598.72,1475.49L1621.01,1475.49L1621.01,2217.82C1620.89,2220.33 1620.88,2222.84 1620.63,2225.34C1617.95,2251.66 1599.96,2275.68 1575.8,2285.89C1569.02,2288.75 1561.92,2290.59 1554.63,2291.34C1552.14,2291.59 1549.62,2291.59 1547.11,2291.72L1547.09,2291.72C1544.59,2291.59 1542.07,2291.59 1539.58,2291.34C1513.25,2288.66 1489.24,2270.66 1479.03,2246.51C1476.16,2239.73 1474.32,2232.63 1473.58,2225.34C1473.32,2222.84 1473.32,2220.33 1473.19,2217.82L1473.19,1452.86C1490.09,1444.83 1505.68,1434.46 1519.11,1421.41C1551.64,1389.8 1568.19,1344.79 1569.9,1299.65C1570.69,1278.96 1568.85,1258.06 1563.6,1237.98C1554.71,1203.97 1535.52,1173.3 1508.63,1151.35C1497.59,1142.35 1485.7,1134.95 1473.19,1128.93ZM2354.4,1471.69L2354.4,2025.64C2353.98,2033 2354.19,2034.91 2352.54,2042.13C2347.6,2063.77 2332.43,2082.79 2312.44,2092.41C2294.97,2100.82 2274.19,2102.02 2255.82,2095.59C2229.74,2086.47 2209.79,2061.79 2206.65,2033.94C2206.34,2031.19 2206.34,2028.41 2206.18,2025.64L2206.18,547.934C2206.34,545.168 2206.34,542.39 2206.65,539.637C2209.74,512.186 2229.36,487.243 2255.82,477.987C2261.05,476.155 2266.48,474.916 2271.99,474.295C2277.5,473.675 2283.06,473.984 2288.59,474.295C2291.32,474.759 2294.08,475.07 2296.78,475.687C2326.36,482.437 2350.46,508.833 2353.93,539.637C2354.24,542.39 2354.24,545.168 2354.4,547.934L2354.4,1106.58L2250.45,1106.58C2246.27,1106.99 2245.11,1106.79 2241.18,1108.42C2235.3,1110.86 2230.5,1115.65 2228.06,1121.53C2226.43,1125.46 2226.63,1126.63 2226.22,1130.8L2226.22,1451.26C2226.63,1455.44 2226.43,1456.6 2228.06,1460.53C2230.5,1466.41 2235.3,1471.21 2241.18,1473.65C2245.11,1475.28 2246.27,1475.08 2250.45,1475.49L2341.38,1475.49C2345.55,1475.08 2346.72,1475.28 2350.65,1473.65C2351.96,1473.11 2353.21,1472.45 2354.4,1471.69ZM1437.69,1465.94L1437.69,1913.3C1437.28,1920.64 1437.48,1922.54 1435.84,1929.74C1429.7,1956.62 1407.49,1979.11 1380.25,1985.33C1358.67,1990.26 1335.03,1984.85 1317.74,1971.07C1302.63,1959.01 1292.56,1940.86 1290.39,1921.57C1290.08,1918.83 1290.08,1916.06 1289.92,1913.3L1289.92,1475.49L1364,1475.49C1388.54,1475.46 1413.75,1472.53 1437.69,1465.94ZM1656.66,1106.58L1656.66,743.056C1656.83,740.202 1656.83,737.334 1657.16,734.495C1660.47,706.178 1681.54,680.707 1709.25,672.412C1714.74,670.769 1720.4,669.771 1726.11,669.438C1731.82,669.106 1737.53,669.77 1743.21,670.434C1745.99,671.093 1748.81,671.592 1751.55,672.412C1776.17,679.784 1796.18,700.836 1802.16,726.05C1803.92,733.488 1803.7,735.464 1804.14,743.056L1804.14,1136.25C1783.87,1149.99 1766.42,1167.49 1753.47,1188.21C1712.58,1253.65 1717.22,1346.75 1765.19,1408.39C1776.21,1422.54 1789.42,1434.87 1804.14,1445.13L1804.14,1830.52C1803.7,1838.11 1803.92,1840.09 1802.16,1847.53C1794.94,1877.99 1766.63,1902.28 1734.69,1904.14C1714.66,1905.31 1694.35,1897.89 1679.8,1884.16C1667.31,1872.38 1659.15,1856.13 1657.16,1839.08C1656.83,1836.24 1656.83,1833.38 1656.66,1830.52L1656.66,1475.49L1697.66,1475.49C1701.83,1475.08 1703,1475.28 1706.93,1473.65C1712.81,1471.21 1717.61,1466.41 1720.04,1460.53C1721.67,1456.6 1721.48,1455.44 1721.89,1451.26L1721.89,1130.8C1721.48,1126.63 1721.67,1125.46 1720.04,1121.53C1717.61,1115.65 1712.81,1110.86 1706.93,1108.42C1705.47,1107.81 1703.9,1107.5 1702.39,1107.04C1700.81,1106.89 1699.24,1106.73 1697.66,1106.58L1656.66,1106.58ZM1057.42,1425.02L1070.04,1459.57C1070.39,1460.32 1070.67,1460.96 1070.93,1461.52L1070.93,1811.31C1070.76,1814.16 1070.76,1817.02 1070.43,1819.86C1067.12,1848.16 1046.05,1873.63 1018.36,1881.92C988.328,1890.91 953.202,1878.53 935.629,1851.81C930.914,1844.64 927.468,1836.65 925.489,1828.3C923.727,1820.87 923.944,1818.89 923.502,1811.31L923.502,1475.49L923.755,1475.49C927.474,1475.16 928.489,1475.32 932.036,1474.03C938.573,1471.65 943.476,1466.07 946.515,1459.57L959.129,1425.02L1057.42,1425.02ZM2531.25,1397.8L2531.25,1712.27C2530.81,1719.84 2531.03,1721.81 2529.27,1729.23C2522.69,1756.96 2498.87,1779.71 2470.45,1784.72C2447.98,1788.68 2423.87,1781.53 2407.18,1765.78C2394.72,1754.03 2386.58,1737.82 2384.6,1720.81C2384.26,1717.98 2384.26,1715.11 2384.1,1712.27L2384.1,1428.63L2398.55,1461.11C2399.32,1462.46 2399.95,1463.89 2400.84,1465.16C2404.41,1470.25 2409.96,1473.86 2416.07,1475.05C2417.59,1475.34 2419.15,1475.34 2420.69,1475.49L2481.98,1475.49C2483.54,1475.34 2485.12,1475.34 2486.66,1475.03C2489.75,1474.43 2492.69,1473.22 2495.32,1471.49C2497.93,1469.77 2499.97,1467.34 2501.99,1464.93L2504.25,1460.81L2531.25,1397.8ZM1200.95,1475.49C1205.1,1475.09 1206.25,1475.28 1210.16,1473.67C1212.49,1472.71 1214.64,1471.37 1216.54,1469.73C1218.45,1471.35 1220.6,1472.68 1222.92,1473.65C1226.86,1475.28 1228.02,1475.08 1232.2,1475.49L1253.98,1475.49L1253.98,1610.27C1253.81,1613.11 1253.81,1615.97 1253.48,1618.8C1250.18,1647.01 1229.18,1672.38 1201.58,1680.65C1177.01,1688 1148.78,1681.33 1130.1,1663.71C1119.73,1653.92 1112.32,1641.09 1109.03,1627.21C1107.27,1619.8 1107.49,1617.83 1107.05,1610.27L1107.05,1475.49L1200.95,1475.49ZM1840.24,1464.92C1847.62,1468 1855.2,1470.64 1862.9,1472.81C1902.97,1484.09 1946.91,1484.33 1987.15,1472.75L1987.15,1610.27C1986.71,1617.83 1986.93,1619.8 1985.17,1627.21C1979.92,1649.4 1963.73,1668.69 1942.79,1677.72C1914.17,1690.07 1877.91,1681.9 1857.42,1657.49C1848.26,1646.56 1842.39,1632.95 1840.74,1618.8C1840.41,1615.97 1840.4,1613.11 1840.24,1610.27L1840.24,1464.92ZM2567.61,1106.58L2567.61,1095.61C2567.77,1092.77 2567.77,1089.91 2568.1,1087.09C2571.39,1058.92 2592.36,1033.58 2619.93,1025.32C2625.39,1023.69 2631.02,1022.7 2636.7,1022.37C2642.38,1022.03 2648.06,1022.7 2653.71,1023.36C2661.07,1025.1 2663.05,1025.23 2670.03,1028.24C2693.55,1038.39 2710.85,1061.48 2713.84,1087.09C2714.17,1089.91 2714.17,1092.77 2714.34,1095.61L2714.34,1107.4C2713.51,1107.62 2712.6,1107.94 2711.45,1108.42C2705.57,1110.86 2700.77,1115.65 2698.33,1121.53C2696.71,1125.46 2696.9,1126.63 2696.49,1130.8L2696.49,1451.26C2696.9,1455.44 2696.71,1456.6 2698.33,1460.53C2700.77,1466.41 2705.57,1471.21 2711.45,1473.65C2712.38,1474.03 2713.36,1474.3 2714.34,1474.56L2714.34,1477.97C2714.17,1480.81 2714.17,1483.66 2713.84,1486.49C2710.23,1517.41 2685.05,1544.69 2653.71,1550.22C2631.27,1554.18 2607.19,1546.96 2590.62,1531.34C2580.27,1521.57 2572.87,1508.75 2569.58,1494.89C2567.83,1487.49 2568.05,1485.53 2567.61,1477.97L2567.61,1475.49L2651.02,1475.49C2655.19,1475.08 2656.36,1475.28 2660.29,1473.65C2666.17,1471.21 2670.97,1466.41 2673.4,1460.53C2675.03,1456.6 2674.84,1455.44 2675.25,1451.26L2675.25,1130.8C2674.84,1126.63 2675.03,1125.46 2673.4,1121.53C2670.97,1115.65 2666.17,1110.86 2660.29,1108.42C2656.36,1106.79 2655.19,1106.99 2651.02,1106.58L2567.61,1106.58ZM800.78,1475.49C804.754,1475.12 805.852,1475.3 809.617,1473.82C810.361,1473.53 811.087,1473.2 811.794,1472.83C812.383,1473.14 812.987,1473.42 813.604,1473.67C817.511,1475.28 818.667,1475.09 822.812,1475.49L887.098,1475.49C887.035,1476.94 886.953,1478.39 886.784,1479.84C883.171,1510.75 858.002,1538.04 826.658,1543.57C798.675,1548.5 768.437,1535.67 752.626,1511.63C747.933,1504.5 744.504,1496.55 742.535,1488.24C741.154,1482.41 740.994,1479.96 740.774,1475.49L800.78,1475.49ZM2031.53,1127.32C2040.54,1109.64 2056.63,1095.44 2075.96,1089.65C2081.42,1088.02 2087.04,1087.03 2092.73,1086.7C2098.41,1086.37 2104.08,1087.03 2109.73,1087.69C2117.09,1089.43 2119.06,1089.56 2126.04,1092.57C2149.55,1102.71 2166.84,1125.8 2169.83,1151.39C2170.16,1154.22 2170.16,1157.07 2170.33,1159.91L2170.33,1413.67C2170.16,1416.51 2170.16,1419.36 2169.83,1422.18C2166.54,1450.34 2145.58,1475.67 2118.03,1483.92C2093.5,1491.27 2065.32,1484.61 2046.67,1467.01C2042.03,1462.64 2037.99,1457.66 2034.65,1452.24C2073.84,1428.59 2102.72,1390.59 2115.4,1347.45C2136.98,1274 2115.04,1192.64 2059.66,1146.52C2050.89,1139.21 2041.46,1132.82 2031.53,1127.32ZM1924.07,1456.87L1924.11,1456.87L1923.97,1456.87L1924.07,1456.87ZM1925.81,1456.87L1925.8,1456.87L1925.81,1456.87L1925.81,1456.87ZM1923.36,1456.87L1923.4,1456.87L1923.32,1456.87L1923.36,1456.87ZM1363.89,1451.26C1339.24,1451.29 1314.58,1451.28 1289.92,1451.28L1289.92,1451.26L1363.89,1451.26ZM1232.2,1451.26L1253.98,1451.26L1253.98,1451.27L1248.66,1451.26L1232.2,1451.26ZM2420.69,1451.26L2384.1,1369.04C2384.1,1369.04 2420.69,1451.26 2420.69,1451.26ZM1364.89,1451.26L1364.06,1451.26L1364.65,1451.26L1364.89,1451.26ZM1473.19,1425.79C1484.55,1419.27 1494.69,1411.57 1503.52,1402.76C1494.34,1411.92 1484.13,1419.54 1473.19,1425.82L1473.19,1425.79ZM740.557,1130.77L740.557,1102.26C740.722,1099.42 740.723,1096.57 741.053,1093.74C744.346,1065.57 765.314,1040.23 792.878,1031.98C798.336,1030.35 803.966,1029.35 809.653,1029.02C815.331,1028.69 821.009,1029.35 826.658,1030.01C829.425,1030.67 832.235,1031.16 834.959,1031.98C859.456,1039.31 879.358,1060.26 885.303,1085.34C887.056,1092.74 886.84,1094.7 887.28,1102.26L887.28,1223.48L810.283,1417.19L778.281,1356.09L778.188,1355.91C774.018,1347.63 769.36,1339.6 764.176,1331.92C774.576,1321.79 783.185,1309.81 789.457,1296.69C814.044,1245.25 800.417,1181.23 759.84,1145.05C753.805,1139.67 747.348,1134.93 740.557,1130.77ZM2046.21,1413.86L2046.16,1413.9L2046.18,1413.88L2046.21,1413.86ZM1107.05,1072.97L1107.05,963.308C1107.21,960.465 1107.21,957.607 1107.54,954.779C1110.84,926.569 1131.84,901.193 1159.44,892.929C1164.91,891.293 1170.54,890.299 1176.24,889.967C1181.93,889.636 1187.61,890.298 1193.27,890.959C1196.04,891.616 1198.85,892.113 1201.58,892.929C1226.15,900.285 1246.07,921.376 1252,946.365C1253.75,953.776 1253.54,955.744 1253.98,963.308L1253.98,1106.57C1246.72,1106.57 1239.46,1106.58 1232.2,1106.58C1228.02,1106.99 1226.86,1106.79 1222.92,1108.42C1217.04,1110.86 1212.25,1115.65 1209.81,1121.53C1208.18,1125.46 1208.38,1126.63 1207.97,1130.8L1207.97,1403.32L1107.05,1149.43L1107.05,1084.66C1107.53,1082.81 1107.79,1080.92 1107.81,1079.02C1107.85,1076.17 1107.58,1074.87 1107.05,1072.97ZM1503.87,1402.41L1503.68,1402.6L1503.78,1402.5L1503.87,1402.41ZM1504.25,1402.03L1504.1,1402.17L1504.21,1402.07L1504.25,1402.03ZM1505.09,1401.17L1505.04,1401.22L1505.05,1401.2L1505.09,1401.17ZM2862.32,1381.56L2817.66,1381.56L2817.66,1319.07L2817.66,1381.56L2862.32,1381.56ZM1405.64,1361.26L1406.11,1361.03C1405.95,1361.11 1405.8,1361.18 1405.64,1361.26L1405.56,1361.3L1405.51,1361.32C1405.38,1361.38 1405.25,1361.45 1405.12,1361.51L1405,1361.56L1404.89,1361.61L1404.88,1361.62L1404.62,1361.74C1393.14,1367.04 1379.54,1369.87 1364.17,1369.94L1363.58,1369.94C1377.69,1369.91 1391.91,1367.61 1404.62,1361.74L1404.89,1361.61L1405.12,1361.51L1405.51,1361.32L1405.64,1361.26ZM1867.53,1344.08L1867.71,1344.3L1867.8,1344.41L1867.91,1344.55C1879.26,1358.27 1895.73,1366.5 1913.12,1369.13C1894.37,1366.53 1878.87,1357.81 1867.91,1344.55L1867.84,1344.46L1867.8,1344.41L1867.77,1344.38L1867.71,1344.3L1867.57,1344.13L1867.53,1344.08C1867.44,1343.97 1867.35,1343.85 1867.25,1343.74L1867.53,1344.08ZM1972.91,1353.76C1965.75,1359.68 1957.43,1363.97 1948.56,1366.66C1957.73,1363.92 1965.91,1359.55 1972.91,1353.76ZM740.557,1340.42C745.732,1347.47 750.329,1354.97 754.437,1362.72C750.178,1354.7 745.489,1347.2 740.557,1340.45L740.557,1340.42ZM1406.43,1360.87L1406.2,1360.99L1406.3,1360.94L1406.43,1360.87ZM1406.8,1360.69L1406.6,1360.79L1406.73,1360.73L1406.8,1360.69ZM1407.15,1360.51L1407.09,1360.54L1407.16,1360.51L1407.24,1360.47L1407.15,1360.51ZM1407.67,1360.25L1407.54,1360.32L1407.59,1360.29L1407.67,1360.25ZM1408.06,1360.05L1407.94,1360.11L1408.01,1360.07L1408.06,1360.05ZM1437.69,1328.38L1437.69,1329.41C1431.46,1342.41 1421.74,1352.58 1409.11,1359.48C1409,1359.54 1408.88,1359.6 1408.77,1359.67L1409.11,1359.48C1422.1,1352.36 1431.62,1341.27 1437.69,1328.38ZM2841.89,1343.3L2841.89,1357.33C2853.27,1357.33 2864.66,1357.41 2876.04,1357.33C2882.51,1357.26 2890.69,1355.43 2889.01,1347.85C2888.25,1344.47 2883.12,1343.34 2878.25,1343.3C2866.13,1343.28 2854.01,1343.3 2841.89,1343.3ZM1973.42,1353.33L1973.23,1353.49L1973.26,1353.47L1973.42,1353.33ZM1973.82,1352.99L1973.54,1353.23L1973.6,1353.18L1973.82,1352.99ZM1987.15,1337.54L1987.15,1337.58C1983.43,1343.42 1978.96,1348.59 1973.84,1352.98C1979.02,1348.53 1983.47,1343.31 1987.15,1337.54ZM1924.79,1236.35C1906.78,1236.5 1888.68,1244.72 1880.1,1261.88C1874.06,1273.94 1872.98,1288.13 1874.97,1301.44C1877.22,1316.4 1884.93,1331.21 1898.13,1338.96C1921.46,1352.65 1955.59,1346.11 1968.83,1320.92C1975.38,1308.46 1977.12,1293.82 1975.23,1279.8C1973.1,1263.98 1964.08,1248.59 1949.45,1241.51C1941.82,1237.81 1933.29,1236.33 1924.79,1236.35ZM1353.36,1345.72C1363.21,1345.72 1373.03,1345.95 1382.89,1343.65C1396.02,1340.6 1408.44,1333.16 1415.13,1320.36C1421.17,1308.8 1422.36,1295.02 1421.04,1282.47C1419.56,1268.43 1413.51,1254.52 1401.12,1246.13C1390.05,1238.64 1376.3,1236.18 1363.22,1235.95L1353.36,1235.83L1353.36,1345.72ZM1867,1343.42L1867.16,1343.63L1866.93,1343.33L1867,1343.42ZM1866.72,1343.06L1866.84,1343.22L1866.59,1342.9L1866.72,1343.06ZM1865.5,1341.45C1861.76,1336.37 1858.63,1330.7 1856.18,1324.52C1858.57,1330.53 1861.66,1336.24 1865.5,1341.45L1865.63,1341.62L1865.73,1341.77L1865.84,1341.91L1866.09,1342.25L1866.13,1342.3L1866.19,1342.37L1866.53,1342.82C1866.41,1342.67 1866.3,1342.52 1866.19,1342.37L1866.14,1342.31L1866.09,1342.25L1865.93,1342.03L1865.84,1341.91L1865.75,1341.79L1865.63,1341.62L1865.54,1341.5L1865.5,1341.45ZM1757.05,1339.36L1757.08,1339.47L1757.01,1339.22L1757.05,1339.36ZM1750.21,1293.69C1750.51,1308.82 1752.72,1324.05 1756.92,1338.89C1752.93,1324.78 1750.63,1309.66 1750.21,1293.69ZM1540.68,1335.54L1540.67,1335.58L1540.68,1335.55L1540.68,1335.54ZM1540.86,1246.89C1544.15,1260.47 1545.84,1275.08 1545.84,1290.63C1545.84,1306.21 1544.18,1320.84 1540.95,1334.44C1547.77,1305.83 1547.95,1275.19 1540.86,1246.89ZM2897.43,1323.57C2891.69,1320.62 2885,1319.13 2878.45,1319.07C2885.34,1319.12 2891.9,1320.61 2897.44,1323.46L2897.43,1323.56L2897.43,1323.57ZM2878.17,1319.07L2878.11,1319.07L2878.14,1319.07L2878.17,1319.07ZM2096.24,1254.16L2096.1,1253.46C2096.14,1253.69 2096.19,1253.93 2096.24,1254.16C2100.35,1275.33 2100.59,1296.94 2097.23,1317.72C2098.68,1308.25 2099.43,1298.4 2099.43,1288.23C2099.43,1276.39 2098.34,1265.02 2096.24,1254.16ZM1002.4,1306.06L1014.15,1306.06L1008.28,1289.88C1006.32,1295.28 1004.36,1300.67 1002.4,1306.06ZM2354.4,1302.38C2350.67,1293.98 2347.73,1285.25 2343.78,1277.01C2348.36,1286.52 2351.08,1294.8 2354.4,1302.37L2354.4,1302.38ZM1877.84,1227.27C1862.15,1239.4 1852.84,1258.49 1850.53,1278.07C1853.06,1256.64 1862.78,1238.92 1877.84,1227.27C1877.84,1227.27 1877.84,1227.27 1877.84,1227.27ZM2893.84,1254.42C2887.97,1257.87 2881.03,1259.37 2874.14,1259.39C2881.62,1259.39 2888.38,1257.63 2893.84,1254.42ZM2817.66,1259.39L2817.66,1200.5L2817.66,1259.39ZM2894.08,1254.27L2893.85,1254.41L2893.9,1254.38L2894.08,1254.27ZM2894.36,1254.1L2894.18,1254.21L2894.22,1254.18L2894.36,1254.1ZM2894.66,1253.91L2894.5,1254.02L2894.55,1253.99L2894.66,1253.91ZM2894.97,1253.72L2894.82,1253.82L2894.87,1253.78L2894.97,1253.72ZM2895.27,1253.52L2895.13,1253.61L2895.18,1253.58L2895.27,1253.52ZM2895.58,1253.31L2895.44,1253.41L2895.5,1253.37L2895.58,1253.31ZM2096,1252.95L2096.06,1253.29L2096.02,1253.05L2096,1252.95ZM2895.88,1253.1L2895.74,1253.2L2895.81,1253.15L2895.88,1253.1ZM2896.18,1252.89L2896.04,1252.99L2896.12,1252.94L2896.18,1252.89ZM2897.53,1251.85L2897.53,1251.86C2897.18,1252.14 2896.82,1252.42 2896.46,1252.69C2896.39,1252.73 2896.33,1252.78 2896.27,1252.83L2896.46,1252.69C2896.82,1252.42 2897.18,1252.14 2897.53,1251.85ZM1437.69,1252.76C1424.11,1224.8 1393.78,1212.46 1364.31,1211.74L1363.58,1211.72C1399.3,1212.28 1425.35,1227.06 1437.69,1252.74L1437.69,1252.76ZM2384.1,1107.8L2384.1,861.312C2384.26,858.465 2384.26,855.603 2384.6,852.77C2387.9,824.517 2408.93,799.103 2436.57,790.827C2442.05,789.188 2447.69,788.193 2453.4,787.861C2459.09,787.529 2464.78,788.192 2470.45,788.854C2477.83,790.604 2479.81,790.733 2486.82,793.753C2510.41,803.929 2527.75,827.091 2530.75,852.77C2531.08,855.603 2531.08,858.465 2531.25,861.312L2531.25,1106.58L2531.25,1106.58C2529.67,1106.73 2528.07,1106.73 2526.51,1107.04C2523.39,1107.66 2520.42,1108.9 2517.77,1110.67C2515.14,1112.43 2513.1,1114.91 2511.08,1117.37L2508.85,1121.57L2454.79,1252.73L2398.93,1121.32C2398.17,1119.94 2397.55,1118.49 2396.67,1117.19C2394.03,1113.31 2390.22,1110.19 2385.83,1108.39C2385.27,1108.16 2384.68,1107.97 2384.1,1107.8ZM1925.68,1212.12C1909.08,1212.08 1891.6,1216.76 1878.16,1227.02C1890.59,1217.52 1906.6,1212.12 1925.18,1212.12C1925.35,1212.12 1925.51,1212.12 1925.68,1212.12L1925.71,1212.12L1925.74,1212.12C1952.75,1212.28 1974.34,1224.1 1987.15,1243.42L1987.15,1243.63C1973.33,1223.25 1949.74,1212.33 1925.74,1212.12L1925.68,1212.12ZM2841.89,1224.73L2841.89,1235.16C2852.75,1235.16 2863.61,1235.29 2874.47,1235.16C2879.19,1235.08 2884.9,1233.56 2883.38,1228.19C2882.59,1225.36 2877.37,1224.77 2872.28,1224.73C2862.15,1224.71 2852.02,1224.73 2841.89,1224.73ZM777.355,1234.47L777.387,1235.07C777.377,1234.87 777.366,1234.67 777.355,1234.47C777.344,1234.28 777.333,1234.09 777.321,1233.89L777.355,1234.47ZM2873.38,1200.52C2873.08,1200.51 2872.79,1200.51 2872.49,1200.51C2872.79,1200.51 2873.08,1200.51 2873.38,1200.52L2873.38,1200.52ZM2872.16,1200.5L2872.1,1200.5L2872.14,1200.5L2872.16,1200.5ZM923.502,1197.95L950.193,1130.8L1070.93,1130.8L950.193,1130.8L923.502,1197.95ZM1507.26,1183.19L1507.31,1183.25L1507.28,1183.21L1507.26,1183.19ZM1506.43,1182.31L1506.46,1182.34L1506.45,1182.33L1506.43,1182.31ZM1803.72,1166.57L1803.72,1166.57L1803.72,1166.57L1803.72,1166.57ZM923.502,1132.36L923.502,762.273C923.668,759.42 923.669,756.553 924.001,753.715C927.309,725.41 948.378,699.949 976.074,691.657C981.558,690.015 987.214,689.018 992.929,688.685C998.634,688.352 1004.34,689.016 1010.01,689.68C1017.41,691.433 1019.39,691.562 1026.41,694.589C1049.99,704.759 1067.42,727.988 1070.43,753.715C1070.76,756.553 1070.76,759.42 1070.93,762.273L1070.93,997.268C1068.93,996.477 1066.83,995.899 1064.7,995.422C1063.24,995.364 1061.79,995.306 1060.33,995.247C1056.01,995.861 1055.99,995.863 1051.85,997.244L943.695,1044.51C940.148,1046.48 939.048,1046.76 936.158,1049.69C931.837,1054.06 929.296,1060.08 929.174,1066.23C929.092,1070.34 929.658,1071.33 930.72,1075.24L942.967,1107.8C937.316,1109.54 932.901,1112.96 929.888,1117.59C929.014,1118.93 928.415,1120.43 927.678,1121.85L923.502,1132.36ZM1370.91,1130.88L1371.18,1130.89L1371.05,1130.88L1370.91,1130.88ZM1369.33,1130.85L1370.24,1130.87L1369.92,1130.86L1369.33,1130.85ZM1368.42,1130.84L1369.17,1130.85L1368.6,1130.84L1368.42,1130.84ZM1367.28,1130.82L1367.29,1130.82L1367.28,1130.82L1367.28,1130.82ZM1364.06,1130.8L1364.91,1130.81L1364.65,1130.81L1364.06,1130.8ZM1289.92,1130.79C1314.58,1130.78 1339.24,1130.78 1363.89,1130.8L1289.92,1130.8L1289.92,1130.79ZM1253.98,1130.8L1253.98,1130.8L1232.2,1130.8C1239.46,1130.8 1246.72,1130.8 1253.98,1130.8ZM1840.24,1116.94L1840.24,978.09C1840.4,975.247 1840.41,972.39 1840.74,969.562C1844.03,941.354 1865.03,915.981 1892.63,907.718C1898.09,906.082 1903.73,905.088 1909.43,904.756C1915.11,904.425 1920.8,905.087 1926.45,905.748C1933.83,907.495 1935.8,907.624 1942.79,910.64C1966.29,920.774 1983.66,943.924 1986.66,969.562C1986.99,972.39 1986.99,975.247 1987.15,978.09L1987.15,1109.33C1967.17,1103.78 1946.28,1101.05 1925.44,1100.97C1912.58,1100.95 1899.42,1101.89 1886.57,1103.94C1870.64,1106.48 1855.05,1110.86 1840.24,1116.94ZM1289.92,1106.56L1289.92,660.277C1290.08,657.52 1290.08,654.749 1290.39,652.005C1293.47,624.636 1313.03,599.768 1339.41,590.54C1344.63,588.713 1350.04,587.478 1355.54,586.859C1361.03,586.24 1366.57,586.549 1372.08,586.859C1374.8,587.321 1377.56,587.632 1380.25,588.246C1409.78,594.987 1433.77,621.293 1437.23,652.005C1437.54,654.749 1437.54,657.52 1437.69,660.277L1437.69,1115.79C1414.03,1109.35 1389.23,1106.65 1364.7,1106.58C1339.77,1106.55 1314.85,1106.55 1289.92,1106.56ZM1070.93,1044.67L1061.55,1019.45L955.817,1065.66L1061.55,1019.45L1070.93,1044.67Z" style="fill:rgb(57,251,255);"/>
        <g transform="matrix(2.74339,0,0,2.74339,-3367.64,-2465.72)">
            <g transform="matrix(146.013,0,0,146.013,1390.51,1427.79)">
                <path d="M0.773,-0.21C0.754,-0.248 0.731,-0.282 0.707,-0.308C0.776,-0.351 0.825,-0.428 0.825,-0.524C0.825,-0.689 0.695,-0.8 0.497,-0.8L0.087,-0.8L0.087,0L0.334,0L0.334,-0.217L0.451,-0.217C0.484,-0.216 0.499,-0.193 0.515,-0.156L0.58,0L0.883,0L0.773,-0.21ZM0.334,-0.406L0.334,-0.594L0.466,-0.594C0.533,-0.594 0.575,-0.555 0.575,-0.499C0.575,-0.443 0.531,-0.406 0.476,-0.406L0.334,-0.406Z" style="fill:rgb(102,101,100);fill-rule:nonzero;"/>
            </g>
            <g transform="matrix(146.013,0,0,146.013,1528.64,1427.79)">
                <path d="M0.643,-0.93L0.588,-1.078L0.318,-0.96L0.359,-0.851L0.643,-0.93ZM0.666,0L0.936,0L0.618,-0.8L0.31,-0.8L-0.008,0L0.244,0L0.29,-0.126L0.62,-0.126L0.666,0ZM0.354,-0.302L0.455,-0.58L0.556,-0.302L0.354,-0.302Z" style="fill:rgb(102,101,100);fill-rule:nonzero;"/>
            </g>
            <g transform="matrix(146.013,0,0,146.013,1663.99,1427.79)">
                <path d="M0.416,-0.8L0.087,-0.8L0.087,0L0.416,0C0.7,0 0.87,-0.152 0.87,-0.401C0.87,-0.648 0.699,-0.8 0.416,-0.8ZM0.415,-0.203L0.329,-0.203L0.329,-0.599L0.415,-0.598C0.542,-0.596 0.62,-0.522 0.62,-0.4C0.62,-0.277 0.541,-0.203 0.415,-0.203Z" style="fill:rgb(102,101,100);fill-rule:nonzero;"/>
            </g>
            <g transform="matrix(146.013,0,0,146.013,1797.6,1427.79)">
                <rect x="0.087" y="-0.8" width="0.247" height="0.8" style="fill:rgb(102,101,100);fill-rule:nonzero;"/>
            </g>
            <g transform="matrix(146.013,0,0,146.013,1859.07,1427.79)">
                <path d="M0.48,0.014C0.733,0.014 0.916,-0.156 0.916,-0.407C0.916,-0.649 0.733,-0.814 0.48,-0.814C0.227,-0.814 0.044,-0.649 0.044,-0.407C0.044,-0.156 0.227,0.014 0.48,0.014ZM0.481,-0.203C0.368,-0.203 0.293,-0.285 0.293,-0.404C0.293,-0.517 0.368,-0.597 0.481,-0.597C0.593,-0.597 0.668,-0.517 0.668,-0.404C0.668,-0.285 0.593,-0.203 0.481,-0.203Z" style="fill:rgb(102,101,100);fill-rule:nonzero;"/>
            </g>
            <g transform="matrix(146.013,0,0,146.013,2035.16,1427.79)">
                <path d="M0.788,-0.8L0.598,-0.339L0.402,-0.8L0.087,-0.8L0.087,0L0.314,0L0.314,-0.435L0.32,-0.435C0.333,-0.408 0.34,-0.385 0.35,-0.364L0.512,0L0.665,0L0.821,-0.364C0.832,-0.387 0.839,-0.407 0.851,-0.434L0.857,-0.434L0.857,0L1.087,0L1.087,-0.8L0.788,-0.8Z" style="fill:rgb(102,101,100);fill-rule:nonzero;"/>
            </g>
            <g transform="matrix(146.013,0,0,146.013,2206.58,1427.79)">
                <path d="M0.708,-0.418C0.765,-0.452 0.803,-0.509 0.803,-0.587C0.803,-0.718 0.696,-0.8 0.504,-0.8L0.087,-0.8L0.087,0L0.506,0C0.718,0 0.839,-0.089 0.839,-0.228C0.839,-0.32 0.786,-0.384 0.708,-0.418ZM0.465,-0.626C0.518,-0.626 0.554,-0.598 0.554,-0.553C0.554,-0.508 0.518,-0.479 0.47,-0.479L0.329,-0.479L0.329,-0.626L0.465,-0.626ZM0.474,-0.174L0.329,-0.174L0.329,-0.33L0.48,-0.33C0.527,-0.33 0.568,-0.303 0.568,-0.254C0.568,-0.205 0.529,-0.174 0.474,-0.174Z" style="fill:rgb(102,101,100);fill-rule:nonzero;"/>
            </g>
        </g>
    </g>
</svg>
