<svg xmlns="http://www.w3.org/2000/svg" viewBox="0 0 1530.7 1530.7">
  <defs>
    <style>
      .a {
        fill: #de7008;
      }

      .b {
        fill: #fff;
      }
    </style>
  </defs>
  <g>
    <rect class="a" width="1530.7" height="1530.71"/>
    <path class="b" d="M543.3,295.5H295.7V418.7H795.3c-36.1-84.2-131.2-123.2-252-123.2m235,316.1H295.7V488.9h515c.2,4.8.3,9.7.3,14.6-.4,45.7-11.4,80.9-32.7,108.1M295.7,681.8V804.3H745.6L670.3,681.8Zm0,192.7H788.8l75.9,123.4h-569Z" transform="translate(-84.8 -84.7)"/>
    <g>
      <path class="b" d="M372,1206.9c29.9,0,56.5,4.2,70.8,33.9,4.2,8.9,6.2,20.4,6.2,30.2,0,14.3-3.4,29.4-12.3,40.9-18,23.5-40.9,24.3-67.8,24.3H340.6v68.4H295.8V1206.9Zm-31.4,92.9h28c17.4,0,35.9-4.7,35.9-28.5,0-27.5-24.7-28.3-40.9-28.3h-23Z" transform="translate(-84.8 -84.7)"/>
      <path class="b" d="M504,1404.6H462.9V1206.9H504Z" transform="translate(-84.8 -84.7)"/>
      <path class="b" d="M617,1404.6v-16c-8.1,13.2-26.3,19.6-41.1,19.6-45.4,0-48.5-36.7-48.5-64.1v-84.6h41.2v83.2c0,15.9,3.1,31.3,22.7,31.3s24.9-17,24.9-38.9v-75.6h40v145.1Z" transform="translate(-84.8 -84.7)"/>
      <path class="b" d="M712.3,1353.6c2.5,18.8,12.3,24.1,30.8,24.1,8.9,0,20.7-2,20.7-13.5,0-26-86.2-5-86.2-63,0-34.1,31-45.9,60.4-45.9,32,0,61.9,13.7,63.6,49.3l-38.6,2c-.9-15.4-13.5-21-25.5-21-7.9,0-20.2,1.4-20.2,12.3,0,22.1,88.5,4.7,88.5,62.1,0,37.6-33.9,48.8-65.5,48.8s-67.2-13.8-67.2-52.1V1355Z" transform="translate(-84.8 -84.7)"/>
    </g>
  </g>
</svg>
