<?xml version="1.0" encoding="utf-8"?>
<!-- Generator: Adobe Illustrator 25.2.0, SVG Export Plug-In . SVG Version: 6.00 Build 0)  -->
<svg version="1.1" id="Vrstva_1" xmlns="http://www.w3.org/2000/svg" xmlns:xlink="http://www.w3.org/1999/xlink" x="0px" y="0px"
	 viewBox="0 0 841.9 841.9" style="enable-background:new 0 0 841.9 841.9;" xml:space="preserve">
<style type="text/css">
	.st0{fill:url(#SVGID_1_);}
	.st1{fill:#FFFFFF;}
</style>
<linearGradient id="SVGID_1_" gradientUnits="userSpaceOnUse" x1="923.543" y1="520.371" x2="-80.5431" y2="-20.371" gradientTransform="matrix(1 0 0 -1 0 671)">
	<stop  offset="0" style="stop-color:#C30C2B"/>
	<stop  offset="0.4236" style="stop-color:#C30C2B"/>
	<stop  offset="1" style="stop-color:#432C79"/>
</linearGradient>
<rect x="0.5" y="0" class="st0" width="841.9" height="841.9"/>
<path class="st1" d="M77.3,468.5c13-0.3,25.6,5.1,34.3,14.7l-13.5,12.9c-5.5-5.6-13-8.9-20.9-9c-14.3,0-23.6,10.7-23.6,24.2
	s9.2,24.2,23.6,24.2c7.9-0.1,15.4-3.3,20.9-9l13.1,12.8c-8.7,9.5-21.1,14.9-34,14.7c-25.4,0-43.4-18.9-43.4-42.9
	S51.9,468.5,77.3,468.5z M161.2,468.5c25.3,0,43.3,18.9,43.3,42.8c0,23.9-17.9,42.8-43.2,42.8S118,535.3,118,511.3
	S135.8,468.5,161.2,468.5L161.2,468.5z M161.2,535.6c14.2,0,23.3-10.7,23.3-24.2c0-13.5-9.1-24.2-23.3-24.2
	c-14.2,0-23.2,10.7-23.2,24.2C138,524.9,146.9,535.6,161.2,535.6L161.2,535.6z M218.1,471.2h20.7l31.2,47.6v-47.6h19.5v80.3h-20.5
	l-31.3-47.8v47.8h-19.7V471.2z M478.3,468.5c13.1-0.3,25.6,5,34.4,14.7L499.2,496c-5.5-5.6-13-8.9-20.9-9
	c-14.3,0-23.6,10.7-23.6,24.2c0,13.5,9.2,24.2,23.6,24.2c7.9-0.1,15.4-3.3,20.9-9l13.1,12.8c-8.7,9.5-21.1,14.9-34,14.7
	c-25.4,0-43.5-18.9-43.5-42.8S452.9,468.5,478.3,468.5L478.3,468.5z M540.5,488.6h-20.7v-17.4h61.3v17.4h-20.9v62.8h-19.7V488.6z
	 M320.8,488.6h-20.6v-17.4h61.3v17.4h-20.9v62.8h-19.8L320.8,488.6z M402.4,471.2h-14.7l-33.5,80.3h21.1l3.9-8.3H411l4,8.3h21.2
	L402.4,471.2z M385.5,525l9.6-27.4l9.2,27.4L385.5,525z M703.1,444.5h-101V341.3c0-0.2,0-0.3,0-0.5c1.3-26.5,23.8-47,50.3-45.7
	c26.5,1.3,47,23.8,45.7,50.3c-0.1,1.1-0.1,2.1-0.3,3.2c7-0.8,14-0.1,20.7,2.1c7.2,2.3,13.7,6.4,19,11.7
	c18.7,18.8,18.6,49.3-0.2,68.1c-8.8,8.8-20.7,13.8-33.1,14L703.1,444.5z M620.8,425.9h83.5c16.3-0.3,29.3-13.8,28.9-30.1
	s-13.8-29.3-30.1-28.9c-5.3,0.1-10.4,1.6-14.9,4.4c-4.4,2.7-10.1,1.3-12.8-3c-1.8-3-1.8-6.7,0-9.7c8.5-13.9,4.1-32.1-9.8-40.6
	c-13.9-8.5-32.1-4.1-40.6,9.8c-1.2,1.9-2.1,4-2.8,6.1c-0.8,2.5-1.3,5.1-1.5,7.7L620.8,425.9z M734.7,469.6
	c10.4-4.3,19.8-10.8,27.4-19.1c7.8-8.5,13.6-18.5,17.1-29.5c1.2-3.8-1-7.9-4.9-9.1c-3.8-1.1-7.8,0.9-9,4.7c-2.8,8.9-7.6,17.1-14,24
	c-6.2,6.7-13.8,12-22.3,15.5c-3.6,1.7-5.2,6.1-3.4,9.7c1.6,3.3,5.4,4.9,8.9,3.8L734.7,469.6z M589,321.5c3.4-10,9.3-19,17.1-26.2
	c6.6-6.1,14.5-10.7,23-13.5c3.8-1.1,6-5.2,4.9-9c-1.1-3.8-5.2-6-9-4.9c-0.1,0-0.3,0.1-0.4,0.1c-10.5,3.5-20.1,9.2-28.2,16.6
	c-9.6,8.8-16.8,19.9-21,32.2c-1.3,3.8,0.7,7.9,4.5,9.2c0,0,0,0,0,0c0.8,0.3,1.5,0.4,2.3,0.4C585.2,326.4,588,324.4,589,321.5z
	 M555.8,320.7c0.7-3,1.5-6.1,2.5-9c5.1-15.4,14-29.2,25.9-40.1c12.4-11.4,27.6-19.3,44.1-23c4-0.7,6.6-4.4,6-8.4
	c-0.7-4-4.4-6.6-8.4-6c-0.3,0-0.5,0.1-0.8,0.2c-18.9,4.2-36.4,13.4-50.7,26.5c-13.7,12.6-24,28.5-29.8,46.2
	c-1.1,3.4-2.1,6.8-2.9,10.4c-0.9,3.9,1.6,7.8,5.5,8.7c0.5,0.1,1.1,0.2,1.6,0.2C552.1,326.4,555.1,324,555.8,320.7L555.8,320.7z
	 M727.6,505.3c22.3-4.7,42.6-16.2,58.1-32.9c13.5-14.6,22.9-32.6,27-52.1c0.8-3.9-1.7-7.8-5.6-8.6c-3.9-0.8-7.8,1.7-8.6,5.6l0,0
	c-3.6,16.9-11.7,32.5-23.4,45.2c-11,11.9-24.9,20.8-40.4,25.9c-3.3,1.1-6.7,2-10.1,2.7c-3.9,0.8-6.4,4.7-5.6,8.6
	c0.7,3.3,3.7,5.7,7.1,5.7C726.6,505.5,727.1,505.4,727.6,505.3z M537.5,357.2c25.7,0,44,19.2,44,43.6c0,24.4-18.2,43.6-44,43.6
	c-25.7,0-44-19.2-44-43.6S511.7,357.3,537.5,357.2 M537.5,425.5c14.4,0,23.7-10.9,23.7-24.6s-9.3-24.6-23.7-24.6
	s-23.7,10.9-23.7,24.6S523,425.5,537.5,425.5 M33.8,442.3h20v-32.3h32v32.3h19.9v-81.7H85.8v32.1h-32v-32.1h-20V442.3z M119.9,442.3
	h20v-81.7h-20V442.3z M222.6,360.8h34.1c17.6,0,29,10.6,29,25.9c0,14.3-7.2,22.3-19.3,25.3l22,30.4h-25.1l-20.8-30.5v30.5h-20
	L222.6,360.8z M258.6,396.2c4.5,0,7.5-4.6,7.5-9.4s-3.5-9-8-9h-15.6v18.4L258.6,396.2z M384.6,360.8h28.4
	c24.1,0,42.7,17.8,42.7,40.7c0,21.8-16.6,41-42.7,41h-28.5L384.6,360.8z M412.7,424.3c12.8,0,22.6-9,22.6-22.7
	c0-12.7-8.6-22.6-22.6-22.6h-8v45.3H412.7z M464.5,442.5h20v-81.7h-20.1L464.5,442.5z M342.1,360.8h-14.9L293,442.5h21.5l3.9-8.4
	h32.3l4.1,8.4h21.5L342.1,360.8z M324.9,415.6l9.8-27.8l9.4,27.8H324.9z M328.9,353.2h13.4l9.4-15H335L328.9,353.2z M171.9,378.3
	h-21v-17.6h62.2v17.7h-21.2v63.8h-20.1L171.9,378.3z"/>
</svg>
