<svg enable-background="new 0 0 500 500" viewBox="0 0 500 500" xmlns="http://www.w3.org/2000/svg"><path d="m337 356.9c-.8 0-1.6-.1-2.4-.2-6.7-1.1-11.9-6.5-12.7-13.2l-6.4-54.2-26.3-4c-5.9-.9-10.7-5.2-12.3-10.9s.3-11.9 4.8-15.7l27.5-23.1-4.7-39.6c-.7-5.9 2.1-11.7 7.2-14.8s11.6-2.9 16.5.5l24.5 16.9 58.1-49.3c5.4-4.6 13.3-4.8 19-.5s7.6 12 4.6 18.4l-30.8 66.7 72.3 50.4c5.8 4 8 11.5 5.4 18.1s-9.4 10.4-16.4 9.4l-91-13.6-23.1 50c-2.5 5.3-7.9 8.7-13.8 8.7z" fill="#202020"/><path d="m410.9 173.7-58.6 52.3-25.9-19.4 4.8 36.6-26.9 21.9 30.2 3.3 6 46.5 19.8-43.7 78.8 12-65.7-41.2m-8.5 38.4-27.9 60.3-7.8-65.7-37.8-5.8 33.7-28.4-5.7-47.7 34.1 23.5 66.9-56.8-36.1 78.2 82.8 57.6z" fill="#d8b130"/><path d="m74.5 322.5c-3.6 0-6.9-1.2-9.3-3.3l-10.9-10.5c-.1-.1-.1-.1-6.3-7.5-.6-.7-1.2-1.4-1.8-2.1-3.2-3.7-7.2-8.1-8.1-13l-3.5-.1c-7.9 0-13.3-4.7-13.3-11.6v-71.2c0-7.3 6-13.3 13.3-13.3h16.8c2 0 4.1.5 5.9 1.4 1.8-.9 3.8-1.4 5.9-1.4h16.8c7.3 0 13.3 6 13.3 13.3v11.7c.3.1.5.2.8.3l2.5-3.1c2.3-2.9 5.8-4.7 9.5-5 2.1-.2 4.3.2 6.3 1.1l10.4-13.2c2.5-3.2 6.3-5.1 10.5-5.1h20.4c2.3 0 4.5.6 6.5 1.7 2-1.1 4.2-1.7 6.5-1.7h16.8c1.7 0 3.3.3 4.9.9 1.5-.6 3.2-.9 4.8-.9h1.5c4.1 0 8.1 2 10.6 5.2l11 14.5v-6.4c0-7.3 6-13.3 13.3-13.3h25.2c4.5 0 8.6 2.2 11.1 6l32.9 50.1c3 4.6 2.9 10.4-.2 14.9l-13.3 19c-2.5 3.6-6.6 5.7-10.9 5.7l-27.2 9.2c-.3.5-7.4-4.2-7.8-3.5-2.3 4.3-2.9 5.3-3.4 5.7l-.4.4-13.5 2.4c-2.6 2.3-6.1 3.5-9.6 3.2-3.6-.2-7.1-2-9.4-4.8l-11.9-14.2c-.6 1.3-1.4 3-2 4.3-3.9 8.7-5.9 12.5-8.7 12.5l-18 .8c-3.2 0-3.3-4.2-3.4-11.2 0-1.8-.1-4.2-.2-5.8-1.7.7-3.5 1.1-5.3 1.1h-18c-3.2 0-6.2-1.1-8.6-3.2l-9.5-.1-6.3-.3c-2.4 2.6-5.7 4.2-9.2 4.4-2.7.2-6-1-8.5-2.7v5c0 18.8-2.6 28.7-7.8 29.5-1.3 1-5.2 3.6-9.2 4-.9.1-1.4.2-2 .2z" fill="#202020"/><path d="m80 286.9h-1.1l-15.7-14v-32.4h-11.8v30h-16.8v-69.1h16.8v24.4h11.7v-24.4h16.9v24.4h9.2v1.1l-9.2 12z" fill="#bf2826"/><path d="m81.9 288.8h-3.7l-16.9-15v-31.4h-8v30h-20.5v-72.9h20.6v24.4h8v-24.4h20.6v24.4h9.2v3.6l-9.2 12.1v49.2zm-16.8-16.8 13 11.6v-45.3l8.1-10.7h-8.1v-24.4h-13v24.4h-15.5v-24.4h-13v65.3h13v-30h15.5z" fill="#fff"/><path d="m114.2 225.5 18.9-24.2h20.4v69.1h-18l-19.4-18.6-15 19.5-12.3-13.2 14.5-18.5-7.5-7.2 11.1-13.9zm12.1 12.2 10.4 9.9v-22.9s-10.4 13-10.4 13z" fill="#bf2826"/><path d="m101.3 274.3-15-16 14.4-18.5-7.5-7.2 13.4-16.9 7.3 7 18.2-23.3h23.2v72.9h-20.6l-18.4-17.7zm35-5.7h15.3v-65.3h-17.6l-19.7 25.1-7.3-7-8.7 10.9 7.5 7.2-14.5 18.5 9.7 10.4 14.9-19.4zm2.3-16.5-14.9-14.2 14.9-18.6zm-9.7-14.5 5.9 5.7v-13.1z" fill="#fff"/><path d="m226.5 275.2-13.4 12.6-29.9-36.6v19.2h-16.8v-69.1h16.8v13l9.7-13h1.5l25.5 33.6-15.6 12.6zm-27.2-38.5-7.8-9.9-7.9 9.9z" fill="#bf2826"/><path d="m212.9 290.6-27.8-34.1v15.8h-20.6v-72.9h20.6v9.2l6.9-9.2h3.4l27.2 35.8-15.6 12.6 22.2 27.6zm-31.6-44.7 32 39.2 10.6-10-22.3-27.8 15.7-12.6-23.6-31.1-12.4 16.4v-16.8h-13v65.3h13zm21.9-7.3h-23.5l11.8-14.9zm-15.6-3.8h7.8l-3.9-4.9z" fill="#fff"/><path d="m287.4 251.4-13.3 19h-44.9v-69.1h25.2zm-20.2 1.8-21.2-32.2v32.1h21.2z" fill="#bf2826"/><path d="m275.1 272.4h-47.8v-72.9h28.2l34.2 52zm-43.9-3.8h42l12-17.2-31.6-48.2h-22.3zm39.5-13.5h-26.6v-40.4zm-22.8-3.8h15.7l-15.7-23.9z" fill="#fff"/><path d="m313.2 275h-12c-2.3 0-4.4 1-5.9 2.5-1.5-1.5-3.6-2.5-5.9-2.5h-12c-3.2 0-6 1.9-7.3 4.6l-3.9-3.3c-1.9-1.6-4.5-2.3-6.9-1.8-2.5.5-4.6 2.1-5.7 4.3l-6.6 12.9-6.5-12.9c-1.1-2.3-3.2-3.9-5.7-4.4s-5 .2-7 1.8l-3.9 3.3c-1.4-2.7-4.1-4.5-7.3-4.5h-14.6c-2.5 0-4.9 1.2-6.5 3.2l-8.1 10.3c-1.4-.9-3.1-1.3-4.8-1.2-2.3.2-4.4 1.3-5.9 3.1l-4 5v-12.2c0-4.5-3.7-8.2-8.2-8.2h-26.5c-2.5 0-4.8 1.2-6.3 2.9-1.5-1.8-3.7-2.9-6.3-2.9h-12c-1.5 0-3 .4-4.2 1.2-1.2-.7-2.7-1.2-4.2-1.2h-12c-4.5 0-8.2 3.7-8.2 8.2v49.5c0 4.5 3.7 8.2 8.2 8.2h12c1 0 1.9-.2 2.8-.5 0 0 .1.1.2.1l11.3 10c1.5 1.3 3.4 2.1 5.5 2.1h.8c4.5 0 8.2-3.7 8.2-8.2v-13.5l5.4 6.8c1.6 2 3.9 3.1 6.4 3.1h18.9c2.9 0 5.4-1.5 6.9-3.8l1.6 1.8c1.6 1.7 3.7 2.6 6 2.6h.4c2.4-.1 4.7-1.3 6.1-3.2l5.1-6.7 7.3 7c1.5 1.5 3.6 2.3 5.7 2.3h12.9c4.5 0 8.2-3.7 8.2-8.2v-21.6l13.9 25.7c1.4 2.7 4.2 4.3 7.2 4.3h1.8c3 0 5.8-1.6 7.2-4.3l14.3-26.1v12.4c0 2.1.8 4.1 2.2 5.6l8.2 8.7c1 1.1 2.3 1.9 3.7 2.3v11.8c0 4.5 3.7 8.2 8.2 8.2h.9c1.8 0 3.6-.6 5-1.7l20.7-16.1c2-1.6 3.2-4 3.2-6.5v-52.3c.2-4.3-3.5-8-8-8z" fill="#202020"/><path d="m125.4 282.2h-12v17.4h-8.4v-17.4h-12.1v49.5h12.1v-21.5h8.4v23.3l11.3 10h.7v-34.4l6.7-8.7v-.8h-6.7z" fill="#fff"/><path d="m126.5 344.5h-2.2l-11.9-10.6v-22.7h-6.4v21.5h-14.1v-51.6h14.1v17.5h6.4v-17.5h14.1v17.5h6.6v2.1l-6.6 8.7zm-12.1-11.5 10 8.9v-33.1l6.2-8.1h-6.2v-17.5h-10v17.5h-10.5v-17.5h-9.9v47.5h10v-21.5h10.5v23.8z" fill="#bf2826"/><path d="m138 322.2 7.5 9.5h19v-12.4h-14.5v-9.1h14.5v-10.6h-14.5v-5h14.5v-12.4h-26.5z" fill="#fff"/><path d="m165.5 332.7h-20.4l-8.1-10.2v-41.4h28.6v14.4h-14.6v3h14.5v12.6h-14.5v7.1h14.5zm-19.5-2h17.4v-10.3h-14.4v-11.2h14.5v-8.5h-14.5v-7.1h14.5v-10.3h-24.5v38.6z" fill="#bf2826"/><path d="m188.3 299.5-5.2-5-7.9 10 5.4 5.2-10.4 13.3 8.8 9.5 10.7-14 13.9 13.4h12.9v-49.5h-14.6zm16.2 15.9-7.4-7.1 7.4-9.3z" fill="#fff"/><path d="m179.1 333.9-10.3-11 10.3-13.2-5.4-5.2 9.3-11.5 5.2 5 13.2-16.8h16.1v51.6h-14.3l-13.4-12.9zm-7.6-11.1 7.4 7.9 10.7-13.9 14.5 13.9h11.4v-47.5h-13.1l-14 17.8-5.2-5-6.6 8.3 5.3 5.1zm34-5-9.9-9.4 9.9-12.4zm-7.1-9.6 5 4.8v-11.1z" fill="#bf2826"/><path d="m246.9 308.7-13.8-27.3-9.9 8.4 22.7 41.9h1.8l23-41.9-9.9-8.4z" fill="#fff"/><path d="m248.3 332.7h-3l-23.4-43.2 11.5-9.8 13.5 26.6 13.7-26.6 11.4 9.8zm-1.8-2h.6l22.3-40.6-8.2-7-14.3 27.9-14.2-28-8.2 7z" fill="#bf2826"/><path d="m301.2 282.2v17.2l-11.8 12.4v-29.6h-12v39.8l8.2 8.7 15.6-15.8v13.1l-9.6 7.3v15.2h.9l20.7-16.1v-52.2z" fill="#fff"/><path d="m292.9 351.5h-2.3v-16.7l9.6-7.3v-10.1l-14.6 14.8-9.2-9.8v-41.3h14.1v28.1l9.7-10.3v-17.8h14.1v53.9zm-.3-15.6v13.3l19.6-15.2v-50.7h-10v16.6l-13.8 14.6v-31.2h-10v38.4l7.2 7.6 16.6-16.9v16.2z" fill="#bf2826"/><g fill="#fff"><path d="m56.4 285.3 5.7-1 2.9 2.6-8.8 9.7-2.5-2.3-.4-5.1-4.6.8v-3.4l4.4-.8-.1-2 3.3-.5zm.1 3.3.2 2.7 2.9-3.2z"/><path d="m63.1 307.1-.1-.1-.4-4 2.9-3.2.2-4.9-5.1 5.6-2.4-2.1 7.7-8.5.1-1.9.1-.2 2.8 2.5-.2 5.9 3-3.4 2.4 2.1z"/><path d="m77.6 311.2-4.3 1-6.3-5.7 8.8-9.7 3.5 3.2zm-3.1-2.3 1.1-7.2-4.1 4.5z"/></g></svg>