<?xml version="1.0" encoding="utf-8"?>
<!-- Generator: Adobe Illustrator 25.2.0, SVG Export Plug-In . SVG Version: 6.00 Build 0)  -->
<svg version="1.1" id="Vrstva_1" xmlns="http://www.w3.org/2000/svg" xmlns:xlink="http://www.w3.org/1999/xlink" x="0px" y="0px"
	 viewBox="0 0 841.9 841.9" style="enable-background:new 0 0 841.9 841.9;" xml:space="preserve">
<style type="text/css">
	.st0{fill:url(#SVGID_1_);}
	.st1{fill:#FFFFFF;}
</style>
<linearGradient id="SVGID_1_" gradientUnits="userSpaceOnUse" x1="923.543" y1="520.371" x2="-80.5431" y2="-20.371" gradientTransform="matrix(1 0 0 -1 0 671)">
	<stop  offset="0" style="stop-color:#C30C2B"/>
	<stop  offset="0.4236" style="stop-color:#C30C2B"/>
	<stop  offset="1" style="stop-color:#432C79"/>
</linearGradient>
<rect x="0.5" y="0" class="st0" width="841.9" height="841.9"/>
<path class="st1" d="M84.1,457.7c13-0.3,25.5,5,34.2,14.6l-13.4,12.8c-5.5-5.6-12.9-8.8-20.8-8.9c-14.2,0-23.4,10.6-23.4,24.1
	s9.2,24.1,23.4,24.1c7.8-0.1,15.3-3.3,20.8-8.9l13,12.8c-8.7,9.4-21,14.8-33.8,14.6c-25.3,0-43.2-18.8-43.2-42.6
	S58.8,457.7,84.1,457.7z M127.7,460.4h19.6v79.8h-19.6V460.4z M174.1,477.7h-17.8v-17.4h55.6v17.3h-18.1v62.5h-19.7L174.1,477.7z
	 M245.1,501.6l-28.3-41.2h22.1l16,23.9l16.1-23.9h21.9l-28.3,41.2v38.6h-19.4V501.6z M333.6,460.4h32.2c13.3,0,23.9,9.9,23.9,22.3
	c0,7.4-3.1,12.1-8.6,16.4v0.3c8.2,5.9,11.7,11.4,11.7,19.7c0,11-8.8,21.2-23.9,21.2h-35.3L333.6,460.4z M362.3,492.2
	c4.1,0.2,7.6-2.9,7.8-6.9s-2.9-7.6-6.9-7.8c-0.3,0-0.6,0-0.9,0h-9.4v14.8H362.3z M364.8,522.8c4.5,0,7.4-2.7,7.4-6.9
	c0-3.9-3.1-7.1-7-7.1c-0.1,0-0.3,0-0.4,0h-11.9v14L364.8,522.8z M402.2,460.4h33.4c17.2,0,28.3,10.4,28.3,25.4
	c0,14-7.1,21.8-18.9,24.7l21.5,29.7h-24.4l-20.4-29.9v29.9h-19.6V460.4z M437.5,495c4.4,0,7.3-4.5,7.3-9.2s-3.4-8.8-7.8-8.8h-15.2
	v18L437.5,495z M473.5,460.4h20.5l31,47.4v-47.4h19.4v79.8h-20.4L493,492.7v47.5h-19.5L473.5,460.4z M601.1,457.7
	c25.1,0,43,18.8,43,42.6s-17.8,42.6-43,42.6c-25.1,0-43-18.8-43-42.6S575.8,457.7,601.1,457.7L601.1,457.7z M601.1,524.3
	c14.1,0,23.1-10.6,23.1-24.1s-9.1-24.1-23.2-24.1s-23.1,10.6-23.1,24.1C577.9,513.7,586.8,524.3,601.1,524.3L601.1,524.3z
	 M705.9,434.2H605.5V331.7c0-0.1,0-0.3,0-0.4c1.3-26.4,23.7-46.7,50-45.4c26.4,1.3,46.7,23.7,45.4,50c-0.1,1.1-0.1,2.1-0.3,3.2
	c6.9-0.8,14-0.1,20.6,2.1c7.1,2.3,13.6,6.3,18.9,11.7c18.6,18.7,18.5,49-0.2,67.6c-8.8,8.7-20.6,13.7-32.9,13.9L705.9,434.2z
	 M624,415.7H707c16.2-0.3,29.1-13.7,28.8-29.9c-0.3-16.2-13.7-29.1-29.9-28.8c-5.2,0.1-10.4,1.6-14.8,4.4c-4.3,2.7-10,1.3-12.7-3
	c-1.8-3-1.8-6.7,0-9.7c8.5-13.8,4.1-31.9-9.7-40.3s-31.9-4.1-40.3,9.7c-1.2,1.9-2.1,4-2.8,6.1c-0.8,2.5-1.3,5.1-1.5,7.7L624,415.7z
	 M737.2,459.2c10.3-4.2,19.6-10.7,27.2-18.9c7.7-8.4,13.6-18.4,17-29.3c1.2-3.8-1-7.8-4.8-9c-3.7-1.1-7.7,0.9-8.9,4.6
	c-2.8,8.9-7.6,17-13.9,23.9c-6.2,6.7-13.7,11.9-22.1,15.4c-3.6,1.7-5.1,6-3.4,9.6c1.6,3.3,5.4,4.9,8.8,3.7L737.2,459.2z M592.5,312
	c3.4-10,9.2-18.9,16.9-26c6.6-6,14.4-10.6,22.8-13.5c3.8-1.1,6-5.2,4.9-9c-1.1-3.8-5.2-6-9-4.9c-0.1,0-0.3,0.1-0.4,0.1
	c-10.4,3.5-20,9.1-28,16.5c-9.5,8.7-16.7,19.7-20.8,32c-1.3,3.8,0.7,7.9,4.5,9.2c0,0,0,0,0,0c0.8,0.3,1.5,0.4,2.3,0.4
	C588.7,316.9,591.5,314.9,592.5,312z M559.5,311.3c0.7-3,1.5-6,2.5-9c5-15.3,13.9-29,25.8-39.9c12.3-11.3,27.4-19.2,43.8-22.9
	c3.9-0.7,6.6-4.4,5.9-8.3c-0.7-3.9-4.4-6.6-8.3-5.9c-0.3,0-0.5,0.1-0.8,0.2c-18.8,4.2-36.2,13.3-50.4,26.3
	c-13.6,12.5-23.8,28.3-29.6,45.9c-1.1,3.4-2.1,6.8-2.9,10.3c-0.9,3.9,1.5,7.7,5.4,8.6c0.5,0.1,1.1,0.2,1.6,0.2
	C555.8,316.9,558.7,314.5,559.5,311.3L559.5,311.3z M730.2,494.7c22.2-4.7,42.3-16.1,57.7-32.7c13.4-14.5,22.7-32.4,26.8-51.8
	c0.8-3.9-1.7-7.7-5.6-8.6c-3.9-0.8-7.7,1.7-8.6,5.6l0,0c-3.6,16.8-11.6,32.3-23.3,44.9c-10.9,11.9-24.8,20.7-40.1,25.7
	c-3.3,1.1-6.6,2-10,2.7c-3.9,0.8-6.4,4.7-5.5,8.6c0.7,3.3,3.6,5.7,7,5.7C729.2,494.8,729.7,494.8,730.2,494.7z M541.3,347.5
	c25.6,0,43.7,19.1,43.7,43.3c0,24.2-18.1,43.3-43.7,43.3s-43.7-19.1-43.7-43.3C497.6,366.6,515.6,347.6,541.3,347.5 M541.3,415.3
	c14.3,0,23.5-10.9,23.5-24.4s-9.2-24.4-23.5-24.4c-14.3,0-23.5,10.9-23.5,24.4S526.8,415.3,541.3,415.3 M40.9,432.1h19.9v-32h31.8
	v32h19.7v-81.1H92.5v31.9H60.7v-31.9H40.9V432.1z M126.4,432.1h19.9v-81.1h-19.9V432.1z M228.4,351.1h33.9
	c17.4,0,28.8,10.5,28.8,25.8c0,14.2-7.2,22.2-19.2,25.1l21.9,30.2h-24.9l-20.7-30.3v30.3h-19.9L228.4,351.1z M264.2,386.3
	c4.5,0,7.4-4.6,7.4-9.3c0-4.7-3.5-8.9-8-8.9h-15.5v18.3L264.2,386.3z M389.4,351.1h28.3c23.9,0,42.5,17.6,42.5,40.4
	c0,21.6-16.5,40.7-42.5,40.7h-28.3L389.4,351.1z M417.3,414.1c12.7,0,22.4-8.9,22.4-22.6c0-12.6-8.5-22.4-22.4-22.4h-8v45H417.3z
	 M468.7,432.3h19.9v-81.1h-19.9L468.7,432.3z M347.1,351.1h-14.8l-33.9,81.1h21.4l3.9-8.4h32l4.1,8.4h21.4L347.1,351.1z M330,405.5
	l9.7-27.7l9.3,27.7H330z M334.1,343.5h13.3l9.3-14.9h-16.6L334.1,343.5z M178,368.5h-20.8v-17.5H219v17.5H198v63.4h-20L178,368.5z"
	/>
</svg>
