<svg xmlns="http://www.w3.org/2000/svg" viewBox="0 0 1530.7 1530.7">
  <defs>
    <style>
      .a {
        fill: #ed2e38;
      }

      .b {
        fill: #fff;
      }
    </style>
  </defs>
  <g>
    <rect class="a" width="1530.7" height="1530.71"/>
    <path class="b" d="M421,210.8H210.8V315.4H634.9C604.3,244,523.6,210.8,421,210.8M620.5,479.1H210.8V375H648c.2,4.1.3,8.2.3,12.4-.4,38.8-9.7,68.6-27.8,91.7M210.8,538.7v104H592.7l-63.9-104Zm0,163.6H629.4L693.8,807h-483Z" transform="translate(0 0)"/>
    <g>
      <path class="b" d="M287.3,1085.8l29.2,48.6H284.6l-26.5-44.1H238.9v44.1H210V1006.9h49.1c19.2,0,36.4,2.7,45.6,21.9,2.7,5.7,3.9,13.1,3.9,19.4,0,9.3-2.1,19-7.9,26.4A36.4,36.4,0,0,1,287.3,1085.8Zm-11.1-48.7c-5.8-7.3-15.2-6.9-23.5-6.9H238.9v36.5h15.3c4.7,0,11.3,0,15.7-1.9,6.6-3.1,10.1-9.3,10.1-16.5A18.3,18.3,0,0,0,276.2,1037.1Z" transform="translate(0 0)"/>
      <path class="b" d="M405.4,1134.4H379.9l-.2-8.5c-10.3,7.2-16.1,11.2-29.4,11.2-18.1,0-32.5-11.2-32.5-30.2,0-26.5,25.8-28.9,46-31.7,4.7-.8,14.5-1.1,14.5-7.8s-8.7-8.7-14.3-8.7c-7.4,0-16.8,2.6-16.4,11.8H323c1.3-23.3,18.8-32.4,39.9-32.4,15.6,0,33.1,2.6,39.9,18.8,2.9,7.1,2.6,17.9,2.6,25.5ZM379,1089.6c-2.5.9-4.2,1.6-6.5,2.2-7.4,2-27.8,2.1-27.8,14.2,0,7.8,7,10.2,12.4,10.2,2,0,15-.2,21.9-12.1Z" transform="translate(0 0)"/>
      <path class="b" d="M481.1,1134.4v-9c-5.4,8.5-15.2,11.3-24.7,11.3-26.6,0-39.9-24.3-39.9-48.2s12.8-50,41.1-50c8.5,0,15.9,3.1,22.4,8.5v-40.1h26.9v127.5Zm-18.8-74c-14.2,0-18.7,15.1-18.7,26.9s3.7,27.4,19.1,27.4,18.2-14.3,18.2-26.5S477.9,1060.4,462.3,1060.4Z" transform="translate(0 0)"/>
      <path class="b" d="M548.9,1030.9H522.5v-24h26.4Zm0,103.5H522.5v-93.5h26.4Z" transform="translate(0 0)"/>
      <path class="b" d="M607.3,1137.1c-29.3,0-47.5-20.2-47.5-48.9,0-30.4,19.7-50.1,50-50.1,28.7,0,46.8,21.2,46.8,49.2S636.3,1137.1,607.3,1137.1Zm1.2-77.6c-16,0-21.5,13.7-21.5,27.6s5.1,28.3,21.2,28.3,21.1-15.3,21.1-29.2S624.2,1059.5,608.5,1059.5Z" transform="translate(0 0)"/>
      <path class="b" d="M739.3,1062.3l-44.8,50.1h47.9v22H660v-19.9l46.3-51.6h-41v-22h74ZM712.9,1028h-23l-17.1-25.2h20.1l8.8,13.7,9.2-13.7h20.5Z" transform="translate(0 0)"/>
      <path class="b" d="M810.5,1134.4v-10.3c-5.3,8.5-17,12.6-26.6,12.6-29.2,0-31.2-23.6-31.2-41.3v-54.5h26.5v53.6c0,10.3,2,20.2,14.7,20.2s16-11,16-25.1v-48.7h25.9v93.5Z" transform="translate(0 0)"/>
      <path class="b" d="M877.4,1056.2c5-13,12.8-17.1,24.2-17.1a32,32,0,0,1,4.7.3v24.2a35.9,35.9,0,0,0-6.4-.5c-19.1,0-21.3,14.1-21.3,25.2v46.1H851.4v-93.5h26Z" transform="translate(0 0)"/>
      <path class="b" d="M969.2,1134.4v-55.1c0-9-3.4-17.9-13.9-17.9-12.6,0-16.1,11.2-16.1,21.2v51.8H912.5v-93.5h26v10.8c6.5-8.3,15-13,25.8-13,7.1,0,14.1,1.8,19.7,6.1,10.7,8.2,12.5,19.5,12.5,32.2v57.4Z" transform="translate(0 0)"/>
      <path class="b" d="M1093.8,1134.4l-25.5.2-.2-8.5c-10.3,7-16,11.2-29.4,11.2-18.1,0-32.5-11.2-32.5-30.4,0-26.5,25.8-28.8,46-31.7,4.7-.8,14.5-1.1,14.5-7.8s-8.7-8.7-14.3-8.7c-7.4,0-16.8,2.6-16.4,11.8h-24.6c1.3-23.3,18.8-32.4,39.9-32.4,15.6,0,33.1,2.6,39.9,18.8,2.9,7.1,2.6,17.9,2.6,25.5Zm-26.4-44.8a62.3,62.3,0,0,1-6.5,2.2c-7.4,2-27.8,2.1-27.8,14.2,0,7.8,7,10.2,12.5,10.2,1.9,0,14.9-.2,21.8-12.1Zm-5.3-61.6h-19.3l12.1-25.2h29.8Z" transform="translate(0 0)"/>
      <path class="b" d="M1135.9,1134.4h-26.6V1006.9h26.6Z" transform="translate(0 0)"/>
      <path class="b" d="M283,1231.9c-.9-13.5-9.1-19.5-24.8-19.5-12.8,0-20,4.5-20,13s8.5,11,21.3,13.9l16.6,3.8c10.7,2.4,37.2,8.5,37.2,38.8,0,15.7-7.9,40.8-53.5,40.8-28.8,0-53.2-9.9-54.7-43.3l28.7-1.6c.2,14.3,10.3,20.9,27.3,20.9,7.6,0,22.8-1.6,22.8-14.8,0-10.4-11.8-13.2-24.8-16l-9-2c-24.7-5.4-40.8-14.8-40.8-38.1,0-34.9,35-38.5,51.3-38.5,30.1,0,49.4,14.5,50.7,40.5Z" transform="translate(0 0)"/>
      <path class="b" d="M353.2,1226.3v11.2c6.8-9.2,14.8-13.5,26.3-13.5,25,0,38.9,20.4,38.9,49.1,0,24.7-13.4,49.1-40.5,49.1-10.5,0-16.8-3.2-24-10.5v37.4H327.4V1226.3Zm19.7,19.3c-16.3,0-19.2,15.4-19.2,28.2s3.5,26.2,19,26.2,18.8-16.4,18.8-28.5S387.1,1245.6,372.9,1245.6Z" transform="translate(0 0)"/>
      <path class="b" d="M472.7,1322.6c-29.3,0-47.5-20.3-47.5-49,0-30.3,19.7-50,50-50,28.7,0,46.8,21.1,46.8,49.1S501.8,1322.6,472.7,1322.6Zm1.2-77.7c-16,0-21.4,13.7-21.4,27.6s5,28.4,21.1,28.4,21.1-15.3,21.1-29.3S489.7,1244.9,473.9,1244.9Z" transform="translate(0 0)"/>
      <path class="b" d="M558.7,1241.7c5-13,12.8-17.2,24.2-17.2a24.1,24.1,0,0,1,4.7.4v24.2a36.1,36.1,0,0,0-6.3-.6c-19.2,0-21.4,14.1-21.4,25.3v46.1H532.7v-93.6h26Z" transform="translate(0 0)"/>
      <path class="b" d="M630.4,1246.5v42.1c0,7.8,1.5,10.9,10.1,10.9,2.7,0,4.5-.2,7.3-.4v20.6a140.4,140.4,0,0,1-18.3,1.2c-21.8,0-25.6-10.4-25.6-29.2v-45.2H590.5v-20.2h13.4v-27.6h26.5v27.6h16.4v20.2Z" transform="translate(0 0)"/>
    </g>
  </g>
</svg>
