<svg xmlns="http://www.w3.org/2000/svg" viewBox="0 0 1530.7 1530.7">
  <defs>
    <style>
      .a {
        fill: #ed2e38;
      }

      .b {
        fill: #fff;
      }
    </style>
  </defs>
  <g>
    <rect class="a" width="1530.7" height="1530.71"/>
    <path class="b" d="M543.3,295.5H295.7V418.7H795.3c-36.1-84.2-131.2-123.2-252-123.2m235,316.1H295.7V488.9h515c.2,4.8.3,9.7.3,14.6-.4,45.7-11.4,80.9-32.7,108.1M295.7,681.8V804.3H745.6L670.3,681.8Zm0,192.7H788.8l75.9,123.4h-569Z" transform="translate(-84.8 -84.7)"/>
    <g>
      <path class="b" d="M386.1,1347.8l34.2,56.7H382.9l-31-51.5H329.5v51.5H295.8V1255.6h57.3c22.5,0,42.5,3.2,53.3,25.5a57.7,57.7,0,0,1,4.6,22.8c0,10.8-2.5,22.1-9.2,30.8A44,44,0,0,1,386.1,1347.8Zm-13-57c-6.7-8.4-17.7-8-27.4-8H329.5v42.6l17.9.2c5.5,0,13.3,0,18.3-2.3,7.8-3.6,11.8-10.8,11.8-19.2A21.3,21.3,0,0,0,373.1,1290.8Z" transform="translate(-84.8 -84.7)"/>
      <path class="b" d="M524.1,1404.6H494.3l-.2-10c-12,8.5-18.8,13.1-34.4,13.1-21.1,0-38-13.1-38-35.2,0-31,30.2-33.8,53.8-37.2,5.5-.8,16.9-1.2,16.9-9s-10.1-10.2-16.7-10.2c-8.6,0-19.6,3-19.2,13.8H427.8c1.5-27.3,22-37.8,46.7-37.8,18.1,0,38.6,2.9,46.6,21.9,3.4,8.3,3,20.9,3,29.8Zm-30.9-52.4a62.2,62.2,0,0,1-7.6,2.6c-8.6,2.3-32.5,2.5-32.5,16.6,0,9.1,8.3,11.8,14.6,11.8,2.3,0,17.5-.2,25.5-14.1Z" transform="translate(-84.8 -84.7)"/>
      <path class="b" d="M612.6,1404.6V1394c-6.4,9.9-17.7,13.3-28.9,13.3-31,0-46.7-28.5-46.7-56.3,0-29.8,15-58.5,48.1-58.5,10,0,18.6,3.6,26.2,9.9v-46.8h31.4v149Zm-22-86.6c-16.6,0-21.9,17.8-21.9,31.5s4.4,32.1,22.4,32.1,21.3-16.7,21.3-31.1S608.8,1318,590.6,1318Z" transform="translate(-84.8 -84.7)"/>
      <path class="b" d="M691.8,1283.7H661v-28.1h30.8Zm0,120.9H661V1295.3h30.8Z" transform="translate(-84.8 -84.7)"/>
      <path class="b" d="M760,1407.7c-34.2,0-55.5-23.6-55.5-57.2,0-35.4,23-58.4,58.5-58.4,33.5,0,54.6,24.7,54.6,57.4S794,1407.7,760,1407.7Zm1.5-90.7c-18.8,0-25.1,16-25.1,32.3s5.9,33.1,24.7,33.1,24.6-17.9,24.6-34.2S779.8,1317,761.5,1317Z" transform="translate(-84.8 -84.7)"/>
      <path class="b" d="M914.3,1320.4,862,1378.8h55.9v25.8H821.7v-23.3l54-60.3H827.8v-25.7h86.5Zm-30.9-40.1H856.5l-19.9-29.5H860l10.4,16,10.7-16H905Z" transform="translate(-84.8 -84.7)"/>
      <path class="b" d="M997.5,1404.6v-12.1c-6.2,9.9-19.9,14.8-31.1,14.8-34.1,0-36.5-27.6-36.5-48.3v-63.7H961v62.6c0,12.1,2.3,23.7,17,23.7s18.8-12.9,18.8-29.4v-56.9H1027v109.3Z" transform="translate(-84.8 -84.7)"/>
      <path class="b" d="M1075.6,1313.2c5.9-15.2,15-20,28.3-20a32.3,32.3,0,0,1,5.5.4v28.2a49.1,49.1,0,0,0-7.4-.6c-22.4,0-24.9,16.5-24.9,29.6v53.8h-31.9V1295.3h30.4Z" transform="translate(-84.8 -84.7)"/>
      <path class="b" d="M1182.9,1404.6v-64.4c0-10.5-4-20.9-16.2-20.9-14.8,0-18.8,13.1-18.8,24.7v60.6h-31.2V1295.3h30.4v12.6c7.6-9.7,17.5-15.2,30.1-15.2,8.3,0,16.5,2.1,23,7.2,12.5,9.5,14.6,22.8,14.6,37.6v67.1Z" transform="translate(-84.8 -84.7)"/>
      <path class="b" d="M1328.5,1404.6l-29.8.2-.2-9.9c-12,8.2-18.8,13-34.4,13-21.1,0-37.9-13-37.9-35.4,0-31,30.1-33.8,53.8-37.1,5.4-.9,16.8-1.3,16.8-9.1s-10.1-10.1-16.6-10.1c-8.7,0-19.7,2.9-19.2,13.7h-28.7c1.5-27.3,21.9-37.8,46.6-37.8,18.2,0,38.6,3,46.6,21.9,3.4,8.3,3,20.9,3,29.8Zm-30.8-52.4a76.4,76.4,0,0,1-7.6,2.6c-8.7,2.3-32.5,2.5-32.5,16.6,0,9.1,8.2,11.8,14.6,11.8,2.3,0,17.5-.2,25.5-14.1Zm-6.2-71.9h-22.6l14.2-29.5h34.8Z" transform="translate(-84.8 -84.7)"/>
      <path class="b" d="M1377.7,1404.6h-31v-149h31Z" transform="translate(-84.8 -84.7)"/>
    </g>
  </g>
</svg>
