<svg xmlns="http://www.w3.org/2000/svg" viewBox="0 0 1530.7 1530.7">
  <defs>
    <style>
      .a {
        fill: #000f37;
      }

      .b {
        fill: #fff;
      }
    </style>
  </defs>
  <g>
    <rect class="a" width="1530.7" height="1530.71"/>
    <path class="b" d="M543.3,295.5H295.7V418.7H795.3c-36.1-84.2-131.2-123.2-252-123.2m235,316.1H295.7V488.9h515c.2,4.8.3,9.7.3,14.6-.4,45.7-11.4,80.9-32.7,108.1M295.7,681.8V804.3H745.6L670.3,681.8Zm0,192.7H788.8l75.9,123.4h-569Z" transform="translate(-84.8 -84.7)"/>
    <g>
      <path class="b" d="M425.6,1206.9v123.7c0,30.6-.3,50.4-23,66.4-14.3,10.1-29.4,11.8-46.2,11.8-26.3,0-50.1-10.7-59.1-37.3-2.5-7.3-2.8-17.9-2.8-28v-15.1h43.4v20.2c0,11.2,5.1,22.4,21,22.4,17.4,0,22.4-11,22.4-26.1v-138Z" transform="translate(-84.8 -84.7)"/>
      <path class="b" d="M540.6,1404.6v-16c-8.1,13.2-26.3,19.6-41.1,19.6-45.4,0-48.5-36.7-48.5-64.1v-84.6h41.2v83.2c0,15.9,3.1,31.3,22.7,31.3s24.9-17,24.9-38.9v-75.6h40v145.1Z" transform="translate(-84.8 -84.7)"/>
      <path class="b" d="M692.3,1404.6v-85.4c0-14-5.3-27.8-21.5-27.8-19.6,0-24.9,17.4-24.9,32.8v80.4H604.4V1259.5h40.3v16.8c10.1-12.9,23.3-20.1,40.1-20.1,10.9,0,21.8,2.8,30.5,9.5,16.5,12.6,19.3,30.2,19.3,49.8v89.1Z" transform="translate(-84.8 -84.7)"/>
      <path class="b" d="M798.9,1244.1H758v-37.2h40.9Zm0,160.5H758V1259.5h40.9Z" transform="translate(-84.8 -84.7)"/>
      <path class="b" d="M889.4,1408.8c-45.4,0-73.7-31.4-73.7-75.9,0-47.1,30.5-77.6,77.6-77.6,44.5,0,72.5,32.8,72.5,76.2S934.4,1408.8,889.4,1408.8Zm1.9-120.4c-24.9,0-33.3,21.2-33.3,42.8s7.8,44,32.8,44,32.7-23.8,32.7-45.4S915.7,1288.4,891.3,1288.4Z" transform="translate(-84.8 -84.7)"/>
      <path class="b" d="M1022.7,1283.3c7.9-20.1,19.9-26.6,37.5-26.6a37.3,37.3,0,0,1,7.3.6v37.5a55.5,55.5,0,0,0-9.8-.8c-29.7,0-33,21.8-33,39.2v71.4H982.4V1259.5h40.3Z" transform="translate(-84.8 -84.7)"/>
    </g>
  </g>
</svg>
