<svg xmlns="http://www.w3.org/2000/svg" viewBox="0 0 1530.7 1530.7">
  <defs>
    <style>
      .a {
        fill: #ab035c;
      }

      .b {
        fill: #fff;
      }
    </style>
  </defs>
  <g>
    <rect class="a" width="1530.7" height="1530.71"/>
    <path class="b" d="M543.3,295.5H295.7V418.7H795.3c-36.1-84.2-131.2-123.2-252-123.2m235,316.1H295.7V488.9h515c.2,4.8.3,9.7.3,14.6-.4,45.7-11.4,80.9-32.7,108.1M295.7,681.8V804.3H745.6L670.3,681.8Zm0,192.7H788.8l75.9,123.4h-569Z" transform="translate(-84.8 -84.7)"/>
    <g>
      <path class="b" d="M361,1206.9c23.5,0,46.7,1.9,66.3,16.5,26.1,19.3,35.9,51.5,35.9,82.6,0,37.5-16.3,76.2-52.7,91.3-16.2,6.7-33.8,7.3-51.2,7.3H295.7V1206.9Zm-21,161h13.1c30.8,0,62.8-1.4,62.8-63.9,0-18.7-4.5-44.2-23-54-11.5-6.2-28-6.2-40.9-6.2H340Z" transform="translate(-84.8 -84.7)"/>
      <path class="b" d="M566.6,1307.1v31.7H485.4v-31.7Z" transform="translate(-84.8 -84.7)"/>
      <path class="b" d="M684.7,1404.6v-14c-8.4,13.1-23.5,17.6-38.3,17.6-41.2,0-61.9-37.8-61.9-74.8,0-39.4,19.9-77.5,63.8-77.5,13.2,0,24.6,4.7,34.7,13.1v-62.1h41.7v197.7Zm-29.1-114.8c-22.1,0-29.1,23.5-29.1,41.7,0,19.9,5.9,42.5,29.6,42.5s28.3-22.1,28.3-41.1S679.7,1289.8,655.6,1289.8Z" transform="translate(-84.8 -84.7)"/>
      <path class="b" d="M838,1404.6v-16c-8.1,13.2-26.3,19.6-41.1,19.6-45.4,0-48.5-36.7-48.5-64.1v-84.6h41.2v83.2c0,15.9,3.1,31.3,22.7,31.3s24.9-17,24.9-38.9v-75.6h40v145.1Z" transform="translate(-84.8 -84.7)"/>
      <path class="b" d="M941.7,1283.3c7.9-20.1,19.9-26.6,37.6-26.6a36.9,36.9,0,0,1,7.2.6v37.5a55.5,55.5,0,0,0-9.8-.8c-29.6,0-33,21.8-33,39.2v71.4H901.4V1259.5h40.3Z" transform="translate(-84.8 -84.7)"/>
    </g>
  </g>
</svg>
