<svg xmlns="http://www.w3.org/2000/svg" viewBox="0 0 1530.7 1530.7">
  <defs>
    <style>
      .a {
        fill: #00ab96;
      }

      .b {
        fill: #fff;
      }
    </style>
  </defs>
  <g>
    <rect class="a" width="1530.7" height="1530.71"/>
    <path class="b" d="M543.3,295.5H295.7V418.7H795.3c-36.1-84.2-131.2-123.2-252-123.2m235,316.1H295.7V488.9h515c.2,4.8.3,9.7.3,14.6-.4,45.7-11.4,80.9-32.7,108.1M295.7,681.8V804.3H745.6L670.3,681.8Zm0,192.7H788.8l75.9,123.4h-569Z" transform="translate(-84.8 -84.7)"/>
    <g>
      <path class="b" d="M296.7,1206.9h89.6c37.5,0,66.6,13.4,66.6,50.9,0,26.9-20.7,38.4-28,40.6,10.6,4.2,33,17.1,33,47.9,0,47.1-39.4,58.3-68.6,58.3H296.7Zm44.2,76.1h36.7c15.1,0,31.3-1.1,31.3-18.7s-16.8-20.5-29.4-20.5H340.9Zm0,85.2h35.6c23.2,0,36.4-7.3,36.4-25.2,0-21.9-18.5-24.4-31.4-24.4H340.9Z" transform="translate(-84.8 -84.7)"/>
      <path class="b" d="M519.1,1283.3c7.8-20.1,19.8-26.6,37.5-26.6a38.4,38.4,0,0,1,7.3.6v37.5a57,57,0,0,0-9.8-.8c-29.7,0-33.1,21.8-33.1,39.2v71.4H478.7V1259.5h40.4Z" transform="translate(-84.8 -84.7)"/>
      <path class="b" d="M661.5,1404.6v-85.4c0-14-5.3-27.8-21.6-27.8-19.6,0-24.9,17.4-24.9,32.8v80.4H573.6V1259.5h40.3v16.8c10.1-12.9,23.2-20.1,40-20.1,11,0,21.9,2.8,30.6,9.5,16.5,12.6,19.3,30.2,19.3,49.8v89.1Z" transform="translate(-84.8 -84.7)"/>
      <path class="b" d="M792.9,1408.8c-45.4,0-73.7-31.4-73.7-75.9,0-47.1,30.5-77.6,77.6-77.6,44.5,0,72.5,32.8,72.5,76.2S837.9,1408.8,792.9,1408.8Zm1.9-120.4c-24.9,0-33.3,21.2-33.3,42.8s7.8,44,32.8,44,32.7-23.8,32.7-45.4S819.2,1288.4,794.8,1288.4Z" transform="translate(-84.8 -84.7)"/>
    </g>
  </g>
</svg>
