<svg enable-background="new 0 0 379 289" viewBox="0 0 379 289" xmlns="http://www.w3.org/2000/svg" xmlns:xlink="http://www.w3.org/1999/xlink"><clipPath id="a"><path d="m-231.3-140.6h841.9v595.3h-841.9z"/></clipPath><g fill="#2e2e2e"><path clip-path="url(#a)" d="m141.3 258v7.8l2.5-.2c1.1-.1 3.1-.5 4.2-1.9.7-1 .7-2.2.6-2.8-.1-1.4-.6-2.2-1.2-2.6-1.1-.8-2.8-.6-4-.5zm-7.8-5.6 10.3-1.2c3.5-.5 6.7-.4 9.4 1.6 2.6 2 3.2 4.8 3.5 6.8.2 2.2.2 5-1.6 7.6-1.8 2.5-5.4 4.3-10.3 4.9l-3.5.4v10.4l-7.8 1z"/><path clip-path="url(#a)" d="m174.4 267.6c-.4-2.6-2.2-4.1-4.7-3.8-2.8.4-4.6 3-4.2 6.2.4 2.6 2.2 4.1 4.7 3.8 2.8-.3 4.6-2.9 4.2-6.2zm7.3-10.8v21l-7.7 1 .2-2.3c-2 2.4-3.8 3.4-6.7 3.7-5.2.7-9-2.8-9.8-8.8-.8-7 3.2-12.7 9.5-13.4 2.9-.4 4.6.1 7.1 2.2l-.2-2.4z"/><path clip-path="url(#a)" d="m202.4 259.9-5 .6.1 3.2c0 .4 0 2.4-.5 4-.5 1.3-1.1 2.2-1.8 2.9l7.2-1zm7.4-6.6v15.4l2.9-.4.1 11.8-6.5.8v-6.1l-14.2 1.8v6.1l-6.6.8v-11.9c1.8-.4 2.8-1.3 3.4-2 1-1.2 1.4-2.9 1.4-5.4v-8.5z"/><path clip-path="url(#a)" d="m223.7 251.7v21l-7.7 1v-21zm-4.6-12.5c2.3-.2 4.3 1.3 4.7 3.7.2 2.3-1.3 4.3-3.7 4.7-2.3.2-4.3-1.3-4.7-3.7-.3-2.3 1.3-4.5 3.7-4.7z"/><path clip-path="url(#a)" d="m243.3 263.4c.8-1.2 1.2-2.6 1.1-4.4-.2-1.9-1.2-2.8-1.7-3.1-.8-.6-1.9-.8-3-.7-.8.1-2.2.5-3.2 1.9-.8 1.1-1.3 2.5-1.1 4.3.2 1.6 1 2.5 1.6 3 .8.7 2.2 1 3.2.8 1.1-.1 2.3-.7 3.1-1.8zm5-12.1c1.9 1.3 3.4 3.6 3.8 7s-.5 6.1-2 8.2c-1.4 1.8-4 4.1-8.9 4.7-4.1.5-7.6-.5-10-2.3-1.6-1.3-3.4-3.6-3.8-7.1-.4-3 .5-5.6 2.3-7.9 1.3-1.7 4-4.1 9.1-4.7 4.6-.7 7.7.7 9.5 2.1z"/><path clip-path="url(#a)" d="m18.2 188.7 14.1 24.6 9.5-27.6 16.9-2.1-25.9 62.1-15.9 1.9 8.1-18.6-22.7-38.4z"/><path clip-path="url(#a)" d="m79.6 181v25.8l16-27.7 16.8-2.2-18.5 32.3 23.4 26-17.6 2.2-14.8-17c-1.8-2.2-3.8-4.9-5.3-7.1v26.5l-14.6 1.8v-58.8z"/><path clip-path="url(#a)" d="m137.9 186.1.1 14.6 4.6-.6c2.2-.2 5.9-.8 7.9-3.5 1.4-1.8 1.3-4 1.2-5.3-.4-2.5-1.3-4-2.3-4.8-2.2-1.7-5.3-1.2-7.4-1zm-14.6-10.5 19.3-2.4c6.6-.7 12.6-.6 17.5 3.1s6 8.8 6.5 12.6c.6 4.2.6 9.5-2.8 14.3-3.5 4.8-10.2 8-19.3 9.1l-6.6.8.1 19.4-14.8 1.8v-58.7z"/><path clip-path="url(#a)" d="m187.6 205 12.6-1.6-3.8-10.8c-1.6-4.3-1.7-4.8-2.2-6.5-.1-.5-.4-1.1-.6-2-.6 3.1-1.1 5-1.7 7.2zm-3.9 12.1-3.2 10.2-16.3 2 21.6-61.4 16.6-2 21.1 56.2-15.4 1.9-3.6-9.5z"/><path clip-path="url(#a)" d="m249.9 141c1 .7 2.5 2.2 2.9 4.8.4 2.8-.6 5.2-2.2 6.6-1.2 1.2-2.4 1.7-4 1.9-1.7.2-2.9-.1-4.1-.8-2-1.4-2.5-3.1-2.6-4.7-.4-2.5 0-4.8 2-6.7 1.1-1.2 2.3-1.8 3.8-1.9 1.8-.3 3.1.1 4.2.8zm-4 19.5.1 58.8-15 1.8-.1-58.8zm-11.4-17.6c1 .7 2.4 2.2 2.8 4.8.4 2.8-.6 5.2-2.2 6.6-1.1 1.1-2.4 1.7-4 1.9-1.7.2-2.9-.1-4.1-1-2-1.3-2.5-3-2.6-4.6-.4-2.5.1-4.8 2-6.7 1.1-1.2 2.4-1.8 4-1.9s2.9.1 4.1.9z"/><path clip-path="url(#a)" d="m310.5 152.4.1 58.8-14.7 1.8v-24l-21.4 2.7v24l-14.6 1.9-.2-58.8 14.8-1.9v21.8l21.2-2.6.2-21.9z"/><path clip-path="url(#a)" d="m341.3 185.9 12.5-1.6-3.8-10.7c-1.4-4.3-1.7-4.8-2.2-6.5-.1-.5-.4-1.2-.6-2-.6 3.1-1.1 5-1.7 7.1zm-4 12.1-3.1 10.3-16.3 2 21.5-61.6 16.6-2 21.1 56.3-15.4 1.9-3.6-9.5z"/></g><path clip-path="url(#a)" d="m222.5 17.8c-.2-.1-.4-.2-.5-.4-4.4-2-9-3.2-13.9-3.4-11.3-.1-20.6 4.2-28 12.8-.4.4-.5.2-.7-.1-2-2.5-4.6-4.7-7.2-6.6-14.8-10.1-35.2-7.2-46.3 6.8-4.9 6.1-7.6 13.2-7.7 21.1-.1 9.6 3.2 18 10 24.8 5.8 5.8 11.5 11.5 17.2 17.2.8.8 1.6 1.6 2.4 2.4z" fill="#0057b8"/><path clip-path="url(#a)" d="m227.1 34.1 4 4c-.1.1.1.2.1.4.7 1 1.4 1.8 2 2.8 9.2 13.8 7.6 32-4.2 43.8-17 16.9-34 33.8-50.9 50.9-.7.6-.7.6-1.3 0-10.3-10.3-20.6-20.6-31-31-.2-.1-.4-.4-.6-.6l74.8-74.9c1.6.7 2.9 1.6 4.2 2.5 1 .8 1.9 1.4 2.9 2.1z" fill="#ffde00"/><path clip-path="url(#a)" d="m141.5 100.6c-.6 0-1.2-.2-1.7-.7l-.8-.9c-.5-.5-1.1-1-1.6-1.6l-5.3-5.2c-4-4-7.9-8-12-12-8.9-9.1-13.3-20.2-13.2-33 .1-10.3 3.5-19.8 10.2-28.1 14.9-18.5 41.9-22.6 61.4-9 .5.2.8.5 1.2.8 8.2-6.1 17.8-9.1 28.6-9 6.4.1 12.6 1.7 18.6 4.6.4.1.6.4 1 .5 1.1.6 1.6 2 .8 3.2-.6 1.1-2 1.6-3.1.8-.2-.1-.5-.2-.7-.4-5.4-2.5-10.9-3.8-16.7-4-10.3-.2-19.3 2.9-26.9 9l-1.4 1.2-1.6-1.2c-.7-.6-1.6-1.2-2.4-1.8-17.5-12-41.8-8.5-55.2 8.2-5.9 7.4-9 15.8-9.1 25.2-.1 11.4 4 21.4 12 29.5 3.8 4.1 7.9 8 11.9 12l5.3 5.2c.5.6 1 1.1 1.6 1.6l.8.8c.8 1 1 2.4 0 3.4-.5.6-1.1.9-1.7.9z" fill="#0057b8"/><path clip-path="url(#a)" d="m240.2 39.7c-.5-.8-1-1.6-1.4-2.3-.6-.8-1.1-1.6-1.7-2.2l-.2-.4-.1-.2c-.1-.2-.4-.5-.6-.8v.2l-.1-.1h.1c-.1-.2-.2-.4-.4-.5l-4-4c-.2-.2-.5-.4-.7-.6l-.8-.6c-.7-.6-1.4-1.1-2.2-1.6-1.1-.7-1.3-2.3-.6-3.4.7-1 2.3-1.3 3.2-.5.8.5 1.6 1 2.3 1.6l.8.6c.5.4 1 .7 1.3 1.2l3.9 3.9c.7.7 1.3 1.4 1.8 2.3.6.7 1.2 1.6 1.9 2.5 12.2 18.2 9.8 42.6-5.6 58.1l-50.9 50.9c-2.5 2.6-5.5 3.8-8.8 3.8-3.1 0-6.1-1.2-8.6-3.7l-31-31c-.2-.2-.4-.5-.6-.7l-.1-.1c-.8-1-.8-2.4.1-3.4 1-.8 2.4-.8 3.4.1l.1.1c.1.2.4.4.5.6l31 31c.7.6 2.4 2.4 5.3 2.4 3 0 4.7-1.8 5.4-2.4l50.9-50.9c13.1-13.3 15.6-33.8 6.4-49.9z" fill="#ffde00"/></svg>