<svg xmlns="http://www.w3.org/2000/svg" viewBox="0 0 1530.7 1530.7">
  <defs>
    <style>
      .a {
        fill: #85248f;
      }

      .b {
        fill: #fff;
      }
    </style>
  </defs>
  <g>
    <rect class="a" width="1530.7" height="1530.71"/>
    <path class="b" d="M543.3,295.5H295.7V418.7H795.3c-36.1-84.2-131.2-123.2-252-123.2m235,316.1H295.7V488.9h515c.2,4.8.3,9.7.3,14.6-.4,45.7-11.4,80.9-32.7,108.1M295.7,681.8V804.3H745.6L670.3,681.8Zm0,192.7H788.8l75.9,123.4h-569Z" transform="translate(-84.8 -84.7)"/>
    <g>
      <path class="b" d="M361.3,1206.9c23.6,0,46.8,1.9,66.4,16.5,26,19.3,35.8,51.5,35.8,82.6,0,37.5-16.2,76.2-52.6,91.3-16.2,6.7-33.9,7.3-51.2,7.3H296.1V1206.9Zm-21,161h13.2c30.8,0,62.7-1.4,62.7-63.9,0-18.7-4.5-44.2-22.9-54-11.5-6.2-28-6.2-40.9-6.2H340.3Z" transform="translate(-84.8 -84.7)"/>
      <path class="b" d="M558.8,1404.6H519.3l-50.1-145.1h43.9l26.6,89.9,24.1-89.9h43.7Z" transform="translate(-84.8 -84.7)"/>
      <path class="b" d="M678.4,1408.8c-45.4,0-73.6-31.4-73.6-75.9,0-47.1,30.5-77.6,77.5-77.6,44.5,0,72.5,32.8,72.5,76.2S723.5,1408.8,678.4,1408.8Zm2-120.4c-25,0-33.4,21.2-33.4,42.8s7.9,44,32.8,44,32.8-23.8,32.8-45.4S704.7,1288.4,680.4,1288.4Z" transform="translate(-84.8 -84.7)"/>
      <path class="b" d="M811.7,1259.5V1409c0,33.6-18.7,41.8-48.7,41.8H746.2V1416h1.4c11.8,0,23.3-.2,23.3-15.4V1259.5Zm-40.8-15.9v-36.7h40.8v36.7Z" transform="translate(-84.8 -84.7)"/>
      <path class="b" d="M974.9,1259.5l-56,54.9,59.9,90.2H926.5L890.1,1343l-13.5,13.4v48.2H835.5V1206.9h41.1v102.2l44.8-49.6Z" transform="translate(-84.8 -84.7)"/>
      <path class="b" d="M1110.3,1404.6h-39.5l-.3-13.2c-16,11.2-24.9,17.4-45.7,17.4-28,0-50.4-17.4-50.4-46.8,0-41.2,40.1-44.8,71.4-49.3,7.3-1.1,22.4-1.7,22.4-12s-13.4-13.5-22.1-13.5c-11.5,0-26,3.9-25.5,18.2H982.5c2-36.1,29.2-50.1,61.9-50.1,24.1,0,51.3,3.9,61.9,29.1,4.5,11,3.9,27.8,3.9,39.5Zm-41-69.5a98.7,98.7,0,0,1-10,3.4c-11.5,3.1-43.2,3.3-43.2,22.1,0,12,11,15.7,19.4,15.7,3,0,23.2-.3,33.8-18.8Z" transform="translate(-84.8 -84.7)"/>
    </g>
  </g>
</svg>
