<?xml version="1.0" encoding="utf-8"?>
<!-- Generator: Adobe Illustrator 25.2.0, SVG Export Plug-In . SVG Version: 6.00 Build 0)  -->
<svg version="1.1" id="Vrstva_1" xmlns="http://www.w3.org/2000/svg" xmlns:xlink="http://www.w3.org/1999/xlink" x="0px" y="0px"
	 viewBox="0 0 270 270" style="enable-background:new 0 0 270 270;" xml:space="preserve">
<style type="text/css">
	.st0{clip-path:url(#SVGID_2_);}
	.st1{clip-path:url(#SVGID_4_);fill:#FFFFFF;}
	.st2{clip-path:url(#SVGID_6_);fill:url(#SVGID_7_);}
	.st3{clip-path:url(#SVGID_9_);fill:#FFFFFF;}
	.st4{clip-path:url(#SVGID_11_);fill:url(#SVGID_12_);}
	.st5{clip-path:url(#SVGID_14_);fill:url(#SVGID_15_);}
	.st6{clip-path:url(#SVGID_17_);fill:url(#SVGID_18_);}
	.st7{clip-path:url(#SVGID_20_);fill:url(#SVGID_21_);}
	.st8{clip-path:url(#SVGID_23_);fill:url(#SVGID_24_);}
	.st9{clip-path:url(#SVGID_26_);fill:url(#SVGID_27_);}
	.st10{clip-path:url(#SVGID_29_);fill:url(#SVGID_30_);}
	.st11{clip-path:url(#SVGID_32_);fill:url(#SVGID_33_);}
	.st12{clip-path:url(#SVGID_35_);fill:url(#SVGID_36_);}
	.st13{clip-path:url(#SVGID_38_);fill:url(#SVGID_39_);}
	.st14{clip-path:url(#SVGID_41_);fill:url(#SVGID_42_);}
	.st15{clip-path:url(#SVGID_44_);fill:url(#SVGID_45_);}
	.st16{clip-path:url(#SVGID_47_);fill:url(#SVGID_48_);}
	.st17{clip-path:url(#SVGID_50_);fill:url(#SVGID_51_);}
	.st18{clip-path:url(#SVGID_53_);fill:url(#SVGID_54_);}
	.st19{clip-path:url(#SVGID_56_);fill:url(#SVGID_57_);}
	.st20{clip-path:url(#SVGID_59_);fill:url(#SVGID_60_);}
	.st21{clip-path:url(#SVGID_62_);fill:url(#SVGID_63_);}
	.st22{clip-path:url(#SVGID_65_);fill:url(#SVGID_66_);}
	.st23{clip-path:url(#SVGID_68_);fill:url(#SVGID_69_);}
	.st24{clip-path:url(#SVGID_71_);fill:url(#SVGID_72_);}
	.st25{clip-path:url(#SVGID_74_);fill:url(#SVGID_75_);}
	.st26{clip-path:url(#SVGID_77_);fill:url(#SVGID_78_);}
	.st27{clip-path:url(#SVGID_80_);fill:url(#SVGID_81_);}
	.st28{clip-path:url(#SVGID_83_);fill:url(#SVGID_84_);}
	.st29{clip-path:url(#SVGID_86_);fill:url(#SVGID_87_);}
	.st30{clip-path:url(#SVGID_89_);fill:url(#SVGID_90_);}
	.st31{clip-path:url(#SVGID_92_);fill:url(#SVGID_93_);}
	.st32{clip-path:url(#SVGID_95_);fill:url(#SVGID_96_);}
	.st33{clip-path:url(#SVGID_98_);fill:url(#SVGID_99_);}
	.st34{clip-path:url(#SVGID_101_);fill:url(#SVGID_102_);}
	.st35{clip-path:url(#SVGID_104_);fill:url(#SVGID_105_);}
	.st36{clip-path:url(#SVGID_107_);fill:url(#SVGID_108_);}
	.st37{clip-path:url(#SVGID_110_);fill:url(#SVGID_111_);}
	.st38{clip-path:url(#SVGID_113_);fill:url(#SVGID_114_);}
	.st39{clip-path:url(#SVGID_116_);fill:url(#SVGID_117_);}
	.st40{clip-path:url(#SVGID_119_);fill:url(#SVGID_120_);}
	.st41{clip-path:url(#SVGID_122_);fill:url(#SVGID_123_);}
	.st42{clip-path:url(#SVGID_125_);fill:url(#SVGID_126_);}
	.st43{clip-path:url(#SVGID_128_);fill:url(#SVGID_129_);}
	.st44{clip-path:url(#SVGID_131_);fill:url(#SVGID_132_);}
	.st45{clip-path:url(#SVGID_134_);fill:url(#SVGID_135_);}
	.st46{filter:url(#Adobe_OpacityMaskFilter);}
	.st47{clip-path:url(#SVGID_137_);fill:url(#SVGID_139_);}
	.st48{clip-path:url(#SVGID_137_);mask:url(#SVGID_138_);fill:url(#SVGID_140_);}
	.st49{clip-path:url(#SVGID_142_);}
	.st50{clip-path:url(#SVGID_142_);fill:#FFFFFF;}
</style>
<g>
	<defs>
		<rect id="SVGID_1_" width="270" height="270"/>
	</defs>
	<clipPath id="SVGID_2_">
		<use xlink:href="#SVGID_1_"  style="overflow:visible;"/>
	</clipPath>
	<g class="st0">
		<defs>
			<rect id="SVGID_3_" width="270" height="270"/>
		</defs>
		<clipPath id="SVGID_4_">
			<use xlink:href="#SVGID_3_"  style="overflow:visible;"/>
		</clipPath>
		<path class="st1" d="M231.3,101.7c-2,0-4,0.3-5.8,0.9c-13.5-37.8-49.8-63.7-90.5-63.7c-35.9,0-68.8,20.2-85.3,51.8
			C33,92,26,101.3,23.3,106.9c-2.6,5.4-3.7,11.6-3.7,21.5c0,13.4,0.2,18.9,1.7,25.1c3.1,13.5,12.9,21.8,27.1,23.1
			c16,33.2,49.4,54.4,86.6,54.4c37.4,0,70.9-21.3,86.8-54.8c7.1-1,11.3-4.4,13.6-7.3c2.5-3.1,4.5-7.3,6.1-12.9l7.2-26.2
			c1.2-4.4,1.7-6.1,1.7-9.2C250.4,110.2,241.8,101.7,231.3,101.7"/>
	</g>
	<g class="st0">
		<defs>
			<path id="SVGID_5_" d="M52.1,135c0,45.8,37.1,82.9,82.9,82.9s82.9-37.1,82.9-82.9c0-45.8-37.1-82.9-82.9-82.9S52.1,89.2,52.1,135
				"/>
		</defs>
		<clipPath id="SVGID_6_">
			<use xlink:href="#SVGID_5_"  style="overflow:visible;"/>
		</clipPath>
		
			<radialGradient id="SVGID_7_" cx="2.762008e-07" cy="270" r="1" gradientTransform="matrix(82.8679 0 0 -78.7245 135.001 21390.6191)" gradientUnits="userSpaceOnUse">
			<stop  offset="0" style="stop-color:#FFFFFF"/>
			<stop  offset="6.791618e-02" style="stop-color:#FFFEF9"/>
			<stop  offset="0.1788" style="stop-color:#FFFAE7"/>
			<stop  offset="0.3188" style="stop-color:#FFF3C7"/>
			<stop  offset="0.4825" style="stop-color:#FFE997"/>
			<stop  offset="0.6639" style="stop-color:#FFDD4C"/>
			<stop  offset="0.8" style="stop-color:#FFD500"/>
			<stop  offset="1" style="stop-color:#FFD500"/>
		</radialGradient>
		<rect x="52.1" y="52.1" class="st2" width="165.7" height="165.7"/>
	</g>
	<g class="st0">
		<defs>
			<path id="SVGID_8_" d="M101.8,97.4l33.1,37.9l-37.6,32.9c9.2,10.4,22.6,17,37.6,17c27.7,0,50.2-22.5,50.2-50.2
				c0-27.7-22.5-50.2-50.2-50.2C122.3,84.8,110.6,89.6,101.8,97.4"/>
		</defs>
		<clipPath id="SVGID_9_">
			<use xlink:href="#SVGID_8_"  style="overflow:visible;"/>
		</clipPath>
		<path class="st3" d="M135,87.8c-13.2,0-25.1,5.4-33.7,14.1c8.5-8.4,20.2-13.6,33.1-13.6c26.1,0,47.2,21.1,47.2,47.2
			c0,12.9-5.2,24.6-13.6,33.1c8.7-8.6,14.1-20.5,14.1-33.7C182.2,108.9,161.1,87.8,135,87.8"/>
	</g>
	<g class="st0">
		<defs>
			
				<rect id="SVGID_10_" x="106.4" y="62.3" transform="matrix(0.7422 -0.6702 0.6702 0.7422 -42.1113 98.5565)" width="1.2" height="83.5"/>
		</defs>
		<clipPath id="SVGID_11_">
			<use xlink:href="#SVGID_10_"  style="overflow:visible;"/>
		</clipPath>
		
			<linearGradient id="SVGID_12_" gradientUnits="userSpaceOnUse" x1="0" y1="270" x2="1" y2="270" gradientTransform="matrix(-155.62 -172.5306 -19.4994 16.123 5396.3613 -4222.0435)">
			<stop  offset="0" style="stop-color:#FFFFFF"/>
			<stop  offset="0.1702" style="stop-color:#FFF5D4"/>
			<stop  offset="0.3969" style="stop-color:#FFE998"/>
			<stop  offset="0.6015" style="stop-color:#FFE05F"/>
			<stop  offset="0.7765" style="stop-color:#FFD929"/>
			<stop  offset="0.9151" style="stop-color:#FFD600"/>
			<stop  offset="1" style="stop-color:#FFD500"/>
		</linearGradient>
		<polygon class="st4" points="102.9,162.3 46.2,99.4 111.2,45.7 167.9,108.6 		"/>
	</g>
	<g class="st0">
		<defs>
			
				<rect id="SVGID_13_" x="107.6" y="61.5" transform="matrix(0.7656 -0.6433 0.6433 0.7656 -40.9787 93.768)" width="1.2" height="83.3"/>
		</defs>
		<clipPath id="SVGID_14_">
			<use xlink:href="#SVGID_13_"  style="overflow:visible;"/>
		</clipPath>
		
			<linearGradient id="SVGID_15_" gradientUnits="userSpaceOnUse" x1="0" y1="270" x2="1" y2="270" gradientTransform="matrix(-140.9281 -168.0321 -168.0321 140.9281 45501.25 -37918.3867)">
			<stop  offset="0" style="stop-color:#FFFFFF"/>
			<stop  offset="0.1702" style="stop-color:#FFF5D4"/>
			<stop  offset="0.3969" style="stop-color:#FFE998"/>
			<stop  offset="0.6015" style="stop-color:#FFE05F"/>
			<stop  offset="0.7765" style="stop-color:#FFD929"/>
			<stop  offset="0.9151" style="stop-color:#FFD600"/>
			<stop  offset="1" style="stop-color:#FFD500"/>
		</linearGradient>
		<polygon class="st5" points="103.4,162.3 49.1,97.5 112.9,44 167.3,108.7 		"/>
	</g>
	<g class="st0">
		<defs>
			
				<rect id="SVGID_16_" x="106.9" y="62" transform="matrix(0.7517 -0.6595 0.6595 0.7517 -41.6776 96.6662)" width="1.2" height="83.3"/>
		</defs>
		<clipPath id="SVGID_17_">
			<use xlink:href="#SVGID_16_"  style="overflow:visible;"/>
		</clipPath>
		
			<linearGradient id="SVGID_18_" gradientUnits="userSpaceOnUse" x1="0" y1="270" x2="1" y2="270" gradientTransform="matrix(-193.6729 -223.5365 -223.5365 193.6729 60484.1602 -52162.875)">
			<stop  offset="0" style="stop-color:#FFFFFF"/>
			<stop  offset="1" style="stop-color:#FFD500"/>
		</linearGradient>
		<polygon class="st6" points="103.5,163 48.2,99.2 111.5,44.3 166.9,108.2 		"/>
	</g>
	<g class="st0">
		<defs>
			
				<rect id="SVGID_19_" x="107.9" y="61.2" transform="matrix(0.7713 -0.6365 0.6365 0.7713 -40.659 92.5756)" width="1.2" height="83.3"/>
		</defs>
		<clipPath id="SVGID_20_">
			<use xlink:href="#SVGID_19_"  style="overflow:visible;"/>
		</clipPath>
		
			<linearGradient id="SVGID_21_" gradientUnits="userSpaceOnUse" x1="0" y1="270" x2="1" y2="270" gradientTransform="matrix(-186.834 -229.2835 -229.2835 186.834 62036.0352 -50316.5352)">
			<stop  offset="0" style="stop-color:#FFFFFF"/>
			<stop  offset="1" style="stop-color:#FFD500"/>
		</linearGradient>
		<polygon class="st7" points="103,161.8 49.6,96.3 113.9,43.9 167.3,109.4 		"/>
	</g>
	<g class="st0">
		<defs>
			
				<rect id="SVGID_22_" x="119.2" y="54.5" transform="matrix(0.9062 -0.4228 0.4228 0.9062 -29.6724 59.7498)" width="1.2" height="84.5"/>
		</defs>
		<clipPath id="SVGID_23_">
			<use xlink:href="#SVGID_22_"  style="overflow:visible;"/>
		</clipPath>
		
			<linearGradient id="SVGID_24_" gradientUnits="userSpaceOnUse" x1="0" y1="270" x2="1" y2="270" gradientTransform="matrix(-93.8589 -201.6324 -198.8319 92.554 53820.6953 -24857.9258)">
			<stop  offset="0" style="stop-color:#FFFFFF"/>
			<stop  offset="0.1702" style="stop-color:#FFF5D4"/>
			<stop  offset="0.3969" style="stop-color:#FFE998"/>
			<stop  offset="0.6015" style="stop-color:#FFE05F"/>
			<stop  offset="0.7765" style="stop-color:#FFD929"/>
			<stop  offset="0.9151" style="stop-color:#FFD600"/>
			<stop  offset="1" style="stop-color:#FFD500"/>
		</linearGradient>
		<polygon class="st8" points="108,149.4 71.9,71.9 131.7,44.1 167.8,121.6 		"/>
	</g>
	<g class="st0">
		<defs>
			
				<rect id="SVGID_25_" x="119.7" y="54.3" transform="matrix(0.9112 -0.4119 0.4119 0.9112 -29.0885 58.1335)" width="1.2" height="84.5"/>
		</defs>
		<clipPath id="SVGID_26_">
			<use xlink:href="#SVGID_25_"  style="overflow:visible;"/>
		</clipPath>
		
			<linearGradient id="SVGID_27_" gradientUnits="userSpaceOnUse" x1="0" y1="270" x2="1" y2="270" gradientTransform="matrix(-91.4241 -202.7495 -199.9283 90.1636 54116.7656 -24212.5312)">
			<stop  offset="0" style="stop-color:#FFFFFF"/>
			<stop  offset="0.1702" style="stop-color:#FFF5D4"/>
			<stop  offset="0.3969" style="stop-color:#FFE998"/>
			<stop  offset="0.6015" style="stop-color:#FFE05F"/>
			<stop  offset="0.7765" style="stop-color:#FFD929"/>
			<stop  offset="0.9151" style="stop-color:#FFD600"/>
			<stop  offset="1" style="stop-color:#FFD500"/>
		</linearGradient>
		<polygon class="st9" points="108.4,148.8 73.3,70.9 132.2,44.3 167.3,122.2 		"/>
	</g>
	<g class="st0">
		<defs>
			
				<rect id="SVGID_28_" x="120.9" y="53.9" transform="matrix(0.9112 -0.4119 0.4119 0.9112 -28.8087 58.5746)" width="1.2" height="84.5"/>
		</defs>
		<clipPath id="SVGID_29_">
			<use xlink:href="#SVGID_28_"  style="overflow:visible;"/>
		</clipPath>
		
			<linearGradient id="SVGID_30_" gradientUnits="userSpaceOnUse" x1="0" y1="270" x2="1" y2="270" gradientTransform="matrix(-91.4241 -202.7495 -199.9283 90.1636 54117.9336 -24212.959)">
			<stop  offset="0" style="stop-color:#FFFFFF"/>
			<stop  offset="0.1702" style="stop-color:#FFF5D4"/>
			<stop  offset="0.3969" style="stop-color:#FFE998"/>
			<stop  offset="0.6015" style="stop-color:#FFE05F"/>
			<stop  offset="0.7765" style="stop-color:#FFD929"/>
			<stop  offset="0.9151" style="stop-color:#FFD600"/>
			<stop  offset="1" style="stop-color:#FFD500"/>
		</linearGradient>
		<polygon class="st10" points="109.6,148.3 74.5,70.5 133.4,43.9 168.5,121.8 		"/>
	</g>
	<g class="st0">
		<defs>
			
				<rect id="SVGID_31_" x="122" y="53.4" transform="matrix(0.9337 -0.3582 0.3582 0.9337 -26.1107 50.2423)" width="1.2" height="84.5"/>
		</defs>
		<clipPath id="SVGID_32_">
			<use xlink:href="#SVGID_31_"  style="overflow:visible;"/>
		</clipPath>
		
			<linearGradient id="SVGID_33_" gradientUnits="userSpaceOnUse" x1="0" y1="270" x2="1" y2="270" gradientTransform="matrix(-79.4657 -207.7313 -204.8307 78.3521 55440.6211 -21023.5254)">
			<stop  offset="0" style="stop-color:#FFFFFF"/>
			<stop  offset="0.1702" style="stop-color:#FFF5D4"/>
			<stop  offset="0.3969" style="stop-color:#FFE998"/>
			<stop  offset="0.6015" style="stop-color:#FFE05F"/>
			<stop  offset="0.7765" style="stop-color:#FFD929"/>
			<stop  offset="0.9151" style="stop-color:#FFD600"/>
			<stop  offset="1" style="stop-color:#FFD500"/>
		</linearGradient>
		<polygon class="st11" points="110.9,145.8 80.4,66.1 134.3,45.5 164.8,125.1 		"/>
	</g>
	<g class="st0">
		<defs>
			
				<rect id="SVGID_34_" x="121.8" y="53.4" transform="matrix(0.932 -0.3626 0.3626 0.932 -26.3629 50.886)" width="1.2" height="84.5"/>
		</defs>
		<clipPath id="SVGID_35_">
			<use xlink:href="#SVGID_34_"  style="overflow:visible;"/>
		</clipPath>
		
			<linearGradient id="SVGID_36_" gradientUnits="userSpaceOnUse" x1="0" y1="270" x2="1" y2="270" gradientTransform="matrix(-80.4603 -207.3444 -204.461 79.3332 55340.7812 -21288.4043)">
			<stop  offset="0" style="stop-color:#FFFFFF"/>
			<stop  offset="0.1702" style="stop-color:#FFF5D4"/>
			<stop  offset="0.3969" style="stop-color:#FFE998"/>
			<stop  offset="0.6015" style="stop-color:#FFE05F"/>
			<stop  offset="0.7765" style="stop-color:#FFD929"/>
			<stop  offset="0.9151" style="stop-color:#FFD600"/>
			<stop  offset="1" style="stop-color:#FFD500"/>
		</linearGradient>
		<polygon class="st12" points="110.7,146 79.8,66.4 134.1,45.4 165,124.9 		"/>
	</g>
	<g class="st0">
		<defs>
			
				<rect id="SVGID_37_" x="120.8" y="53.6" transform="matrix(0.925 -0.3799 0.3799 0.925 -27.2988 53.3163)" width="1.2" height="84.5"/>
		</defs>
		<clipPath id="SVGID_38_">
			<use xlink:href="#SVGID_37_"  style="overflow:visible;"/>
		</clipPath>
		
			<linearGradient id="SVGID_39_" gradientUnits="userSpaceOnUse" x1="0" y1="270" x2="1" y2="270" gradientTransform="matrix(-84.3022 -205.8134 -202.9508 83.1306 54932.7227 -22313.8164)">
			<stop  offset="0" style="stop-color:#FFFFFF"/>
			<stop  offset="0.1702" style="stop-color:#FFF5D4"/>
			<stop  offset="0.3969" style="stop-color:#FFE998"/>
			<stop  offset="0.6015" style="stop-color:#FFE05F"/>
			<stop  offset="0.7765" style="stop-color:#FFD929"/>
			<stop  offset="0.9151" style="stop-color:#FFD600"/>
			<stop  offset="1" style="stop-color:#FFD500"/>
		</linearGradient>
		<polygon class="st13" points="109.6,146.8 77.2,67.8 133.3,44.8 165.6,123.8 		"/>
	</g>
	<g class="st0">
		<defs>
			
				<rect id="SVGID_40_" x="120.9" y="53.7" transform="matrix(0.9177 -0.3974 0.3974 0.9177 -28.1065 56.1746)" width="1.2" height="84.4"/>
		</defs>
		<clipPath id="SVGID_41_">
			<use xlink:href="#SVGID_40_"  style="overflow:visible;"/>
		</clipPath>
		
			<linearGradient id="SVGID_42_" gradientUnits="userSpaceOnUse" x1="0" y1="270" x2="1" y2="270" gradientTransform="matrix(-117.3449 -275.6484 -272.1543 115.8259 73616.3594 -31146.084)">
			<stop  offset="0" style="stop-color:#FFFFFF"/>
			<stop  offset="1" style="stop-color:#FFD500"/>
		</linearGradient>
		<polygon class="st14" points="109.5,147.4 76.1,68.9 133.5,44.4 166.9,122.9 		"/>
	</g>
	<g class="st0">
		<defs>
			
				<rect id="SVGID_43_" x="107.6" y="93.7" transform="matrix(0.2755 -0.9613 0.9613 0.2755 17.9389 212.3505)" width="84.5" height="1.2"/>
		</defs>
		<clipPath id="SVGID_44_">
			<use xlink:href="#SVGID_43_"  style="overflow:visible;"/>
		</clipPath>
		
			<linearGradient id="SVGID_45_" gradientUnits="userSpaceOnUse" x1="0" y1="270" x2="1" y2="270" gradientTransform="matrix(61.3343 -213.7861 -210.7861 -60.4924 57051.4688 16464.2246)">
			<stop  offset="0" style="stop-color:#FFFFFF"/>
			<stop  offset="0.1702" style="stop-color:#FFF5D4"/>
			<stop  offset="0.3969" style="stop-color:#FFE998"/>
			<stop  offset="0.6015" style="stop-color:#FFE05F"/>
			<stop  offset="0.7765" style="stop-color:#FFD929"/>
			<stop  offset="0.9151" style="stop-color:#FFD600"/>
			<stop  offset="1" style="stop-color:#FFD500"/>
		</linearGradient>
		<polygon class="st15" points="116,128.9 139.5,47 183.7,59.7 160.2,141.5 		"/>
	</g>
	<g class="st0">
		<defs>
			
				<rect id="SVGID_46_" x="107.6" y="93.8" transform="matrix(0.2762 -0.9611 0.9611 0.2762 17.7606 212.3824)" width="84.5" height="1.2"/>
		</defs>
		<clipPath id="SVGID_47_">
			<use xlink:href="#SVGID_46_"  style="overflow:visible;"/>
		</clipPath>
		
			<linearGradient id="SVGID_48_" gradientUnits="userSpaceOnUse" x1="0" y1="270" x2="1" y2="270" gradientTransform="matrix(61.3343 -213.7861 -210.7861 -60.4924 57051.5156 16464.3477)">
			<stop  offset="0" style="stop-color:#FFFFFF"/>
			<stop  offset="0.1702" style="stop-color:#FFF5D4"/>
			<stop  offset="0.3969" style="stop-color:#FFE998"/>
			<stop  offset="0.6015" style="stop-color:#FFE05F"/>
			<stop  offset="0.7765" style="stop-color:#FFD929"/>
			<stop  offset="0.9151" style="stop-color:#FFD600"/>
			<stop  offset="1" style="stop-color:#FFD500"/>
		</linearGradient>
		<polygon class="st16" points="116.1,129 139.5,47.1 183.7,59.8 160.2,141.7 		"/>
	</g>
	<g class="st0">
		<defs>
			
				<rect id="SVGID_49_" x="107.9" y="93.9" transform="matrix(0.2795 -0.9601 0.9601 0.2795 17.5051 212.2933)" width="84.5" height="1.2"/>
		</defs>
		<clipPath id="SVGID_50_">
			<use xlink:href="#SVGID_49_"  style="overflow:visible;"/>
		</clipPath>
		
			<linearGradient id="SVGID_51_" gradientUnits="userSpaceOnUse" x1="0" y1="270" x2="1" y2="270" gradientTransform="matrix(62.3019 -213.5026 -210.5163 -61.4428 56978.832 16720.9961)">
			<stop  offset="0" style="stop-color:#FFFFFF"/>
			<stop  offset="0.1702" style="stop-color:#FFF5D4"/>
			<stop  offset="0.3969" style="stop-color:#FFE998"/>
			<stop  offset="0.6015" style="stop-color:#FFE05F"/>
			<stop  offset="0.7765" style="stop-color:#FFD929"/>
			<stop  offset="0.9151" style="stop-color:#FFD600"/>
			<stop  offset="1" style="stop-color:#FFD500"/>
		</linearGradient>
		<polygon class="st17" points="115.9,128.8 139.8,47.1 184.5,60.1 160.6,141.9 		"/>
	</g>
	<g class="st0">
		<defs>
			<polygon id="SVGID_52_" points="137.7,134.8 138.8,135.2 166.6,55.4 165.4,55 			"/>
		</defs>
		<clipPath id="SVGID_53_">
			<use xlink:href="#SVGID_52_"  style="overflow:visible;"/>
		</clipPath>
		
			<linearGradient id="SVGID_54_" gradientUnits="userSpaceOnUse" x1="0" y1="270" x2="1" y2="270" gradientTransform="matrix(73.2125 -210.0164 -207.091 -72.2059 56054.0586 19627.0586)">
			<stop  offset="0" style="stop-color:#FFFFFF"/>
			<stop  offset="0.1702" style="stop-color:#FFF5D4"/>
			<stop  offset="0.3969" style="stop-color:#FFE998"/>
			<stop  offset="0.6015" style="stop-color:#FFE05F"/>
			<stop  offset="0.7765" style="stop-color:#FFD929"/>
			<stop  offset="0.9151" style="stop-color:#FFD600"/>
			<stop  offset="1" style="stop-color:#FFD500"/>
		</linearGradient>
		<polygon class="st18" points="112.8,126.5 140.8,46 191.5,63.7 163.5,144.2 		"/>
	</g>
	<g class="st0">
		<defs>
			
				<rect id="SVGID_55_" x="109.5" y="94.4" transform="matrix(0.3241 -0.946 0.946 0.3241 12.7296 207.8051)" width="84.5" height="1.2"/>
		</defs>
		<clipPath id="SVGID_56_">
			<use xlink:href="#SVGID_55_"  style="overflow:visible;"/>
		</clipPath>
		
			<linearGradient id="SVGID_57_" gradientUnits="userSpaceOnUse" x1="0" y1="270" x2="1" y2="270" gradientTransform="matrix(72.1768 -210.3721 -207.4467 -71.1702 56149.8984 19347.3574)">
			<stop  offset="0" style="stop-color:#FFFFFF"/>
			<stop  offset="0.1702" style="stop-color:#FFF5D4"/>
			<stop  offset="0.3969" style="stop-color:#FFE998"/>
			<stop  offset="0.6015" style="stop-color:#FFE05F"/>
			<stop  offset="0.7765" style="stop-color:#FFD929"/>
			<stop  offset="0.9151" style="stop-color:#FFD600"/>
			<stop  offset="1" style="stop-color:#FFD500"/>
		</linearGradient>
		<polygon class="st19" points="112.9,126.7 140.5,46.1 190.7,63.3 163,143.9 		"/>
	</g>
	<g class="st0">
		<defs>
			
				<rect id="SVGID_58_" x="109" y="94.2" transform="matrix(0.2834 -0.959 0.959 0.2834 17.4006 212.9783)" width="84.4" height="1.2"/>
		</defs>
		<clipPath id="SVGID_59_">
			<use xlink:href="#SVGID_58_"  style="overflow:visible;"/>
		</clipPath>
		
			<linearGradient id="SVGID_60_" gradientUnits="userSpaceOnUse" x1="0" y1="270" x2="1" y2="270" gradientTransform="matrix(86.7624 -286.7469 -283.0823 -85.7144 76573.6875 23269.9902)">
			<stop  offset="0" style="stop-color:#FFFFFF"/>
			<stop  offset="1" style="stop-color:#FFD500"/>
		</linearGradient>
		<polygon class="st20" points="116.1,128.7 140.8,47.2 186.3,61 161.7,142.5 		"/>
	</g>
	<g class="st0">
		<defs>
			
				<rect id="SVGID_61_" x="108.7" y="94.1" transform="matrix(0.2981 -0.9545 0.9545 0.2981 15.4859 210.5085)" width="84.4" height="1.2"/>
		</defs>
		<clipPath id="SVGID_62_">
			<use xlink:href="#SVGID_61_"  style="overflow:visible;"/>
		</clipPath>
		
			<linearGradient id="SVGID_63_" gradientUnits="userSpaceOnUse" x1="0" y1="270" x2="1" y2="270" gradientTransform="matrix(91.2271 -285.3577 -281.6871 -90.0958 76196.1406 24452.6797)">
			<stop  offset="0" style="stop-color:#FFFFFF"/>
			<stop  offset="1" style="stop-color:#FFD500"/>
		</linearGradient>
		<polygon class="st21" points="114.2,127.7 140.1,46.6 187.5,61.8 161.6,142.8 		"/>
	</g>
	<g class="st0">
		<defs>
			
				<rect id="SVGID_64_" x="119.4" y="100.6" transform="matrix(0.5715 -0.8206 0.8206 0.5715 -14.284 175.0912)" width="82.1" height="1.2"/>
		</defs>
		<clipPath id="SVGID_65_">
			<use xlink:href="#SVGID_64_"  style="overflow:visible;"/>
		</clipPath>
		
			<linearGradient id="SVGID_66_" gradientUnits="userSpaceOnUse" x1="0" y1="270" x2="1" y2="270" gradientTransform="matrix(123.5648 -177.3982 -179.9736 -125.3297 48732.0078 33970.9297)">
			<stop  offset="0" style="stop-color:#FFFFFF"/>
			<stop  offset="0.1702" style="stop-color:#FFF5D4"/>
			<stop  offset="0.3969" style="stop-color:#FFE998"/>
			<stop  offset="0.6015" style="stop-color:#FFE05F"/>
			<stop  offset="0.7765" style="stop-color:#FFD929"/>
			<stop  offset="0.9151" style="stop-color:#FFD600"/>
			<stop  offset="1" style="stop-color:#FFD500"/>
		</linearGradient>
		<polygon class="st22" points="104.6,113 152.2,44.7 216.4,89.4 168.8,157.7 		"/>
	</g>
	<g class="st0">
		<defs>
			
				<rect id="SVGID_67_" x="119.9" y="100.9" transform="matrix(0.5721 -0.8202 0.8202 0.5721 -14.4132 175.4876)" width="82.1" height="1.2"/>
		</defs>
		<clipPath id="SVGID_68_">
			<use xlink:href="#SVGID_67_"  style="overflow:visible;"/>
		</clipPath>
		
			<linearGradient id="SVGID_69_" gradientUnits="userSpaceOnUse" x1="0" y1="270" x2="1" y2="270" gradientTransform="matrix(168.5305 -237.9418 -241.3915 -170.9158 65317.7188 46275.5703)">
			<stop  offset="0" style="stop-color:#FFFFFF"/>
			<stop  offset="1" style="stop-color:#FFD500"/>
		</linearGradient>
		<polygon class="st23" points="104.9,112.8 153,44.9 217.1,90.3 169,158.2 		"/>
	</g>
	<g class="st0">
		<defs>
			
				<rect id="SVGID_70_" x="119.9" y="101" transform="matrix(0.5741 -0.8188 0.8188 0.5741 -14.6066 175.1021)" width="82.2" height="1.2"/>
		</defs>
		<clipPath id="SVGID_71_">
			<use xlink:href="#SVGID_70_"  style="overflow:visible;"/>
		</clipPath>
		
			<linearGradient id="SVGID_72_" gradientUnits="userSpaceOnUse" x1="0" y1="270" x2="1" y2="270" gradientTransform="matrix(169.3507 -237.3621 -240.8119 -171.736 65161.1914 46497.0195)">
			<stop  offset="0" style="stop-color:#FFFFFF"/>
			<stop  offset="1" style="stop-color:#FFD500"/>
		</linearGradient>
		<polygon class="st24" points="104.8,112.6 153.2,44.8 217.3,90.5 168.9,158.3 		"/>
	</g>
	<g class="st0">
		<defs>
			
				<rect id="SVGID_73_" x="121.3" y="102" transform="matrix(0.6193 -0.7852 0.7852 0.6193 -18.7694 166.5722)" width="82.1" height="1.2"/>
		</defs>
		<clipPath id="SVGID_74_">
			<use xlink:href="#SVGID_73_"  style="overflow:visible;"/>
		</clipPath>
		
			<linearGradient id="SVGID_75_" gradientUnits="userSpaceOnUse" x1="0" y1="270" x2="1" y2="270" gradientTransform="matrix(134.0042 -169.6482 -172.1007 -135.9236 46606.3867 36831.3594)">
			<stop  offset="0" style="stop-color:#FFFFFF"/>
			<stop  offset="0.1702" style="stop-color:#FFF5D4"/>
			<stop  offset="0.3969" style="stop-color:#FFE998"/>
			<stop  offset="0.6015" style="stop-color:#FFE05F"/>
			<stop  offset="0.7765" style="stop-color:#FFD929"/>
			<stop  offset="0.9151" style="stop-color:#FFD600"/>
			<stop  offset="1" style="stop-color:#FFD500"/>
		</linearGradient>
		<polygon class="st25" points="104.7,110.2 156.4,44.8 220,95.1 168.4,160.5 		"/>
	</g>
	<g class="st0">
		<defs>
			
				<rect id="SVGID_76_" x="121.7" y="102.4" transform="matrix(0.6208 -0.784 0.784 0.6208 -19.0055 166.713)" width="82.1" height="1.2"/>
		</defs>
		<clipPath id="SVGID_77_">
			<use xlink:href="#SVGID_76_"  style="overflow:visible;"/>
		</clipPath>
		
			<linearGradient id="SVGID_78_" gradientUnits="userSpaceOnUse" x1="0" y1="270" x2="1" y2="270" gradientTransform="matrix(182.511 -227.3955 -230.6714 -185.0979 62423.582 50105.0195)">
			<stop  offset="0" style="stop-color:#FFFFFF"/>
			<stop  offset="1" style="stop-color:#FFD500"/>
		</linearGradient>
		<polygon class="st26" points="105,110.1 157.2,45.1 220.6,95.9 168.4,160.9 		"/>
	</g>
	<g class="st0">
		<defs>
			<polygon id="SVGID_79_" points="136.8,134.8 137.7,135.5 189,71.3 188,70.6 			"/>
		</defs>
		<clipPath id="SVGID_80_">
			<use xlink:href="#SVGID_79_"  style="overflow:visible;"/>
		</clipPath>
		
			<linearGradient id="SVGID_81_" gradientUnits="userSpaceOnUse" x1="0" y1="270" x2="1" y2="270" gradientTransform="matrix(183.3082 -226.7573 -230.0333 -185.8952 62251.2422 50320.2344)">
			<stop  offset="0" style="stop-color:#FFFFFF"/>
			<stop  offset="1" style="stop-color:#FFD500"/>
		</linearGradient>
		<polygon class="st27" points="105,109.9 157.4,45 220.7,96.2 168.3,161 		"/>
	</g>
	<g class="st0">
		<defs>
			
				<rect id="SVGID_82_" x="120.3" y="101.2" transform="matrix(0.5951 -0.8036 0.8036 0.5951 -16.5014 170.9273)" width="82.1" height="1.2"/>
		</defs>
		<clipPath id="SVGID_83_">
			<use xlink:href="#SVGID_82_"  style="overflow:visible;"/>
		</clipPath>
		
			<linearGradient id="SVGID_84_" gradientUnits="userSpaceOnUse" x1="0" y1="270" x2="1" y2="270" gradientTransform="matrix(128.8879 -173.5683 -176.0754 -130.7386 47679.4375 35431.3008)">
			<stop  offset="0" style="stop-color:#FFFFFF"/>
			<stop  offset="0.1702" style="stop-color:#FFF5D4"/>
			<stop  offset="0.3969" style="stop-color:#FFE998"/>
			<stop  offset="0.6015" style="stop-color:#FFE05F"/>
			<stop  offset="0.7765" style="stop-color:#FFD929"/>
			<stop  offset="0.9151" style="stop-color:#FFD600"/>
			<stop  offset="1" style="stop-color:#FFD500"/>
		</linearGradient>
		<polygon class="st28" points="104.5,111.5 154.2,44.6 218.3,92.2 168.6,159.1 		"/>
	</g>
	<g class="st0">
		<defs>
			
				<rect id="SVGID_85_" x="120.8" y="101.6" transform="matrix(0.5943 -0.8042 0.8042 0.5943 -16.5277 171.6124)" width="82.2" height="1.2"/>
		</defs>
		<clipPath id="SVGID_86_">
			<use xlink:href="#SVGID_85_"  style="overflow:visible;"/>
		</clipPath>
		
			<linearGradient id="SVGID_87_" gradientUnits="userSpaceOnUse" x1="0" y1="270" x2="1" y2="270" gradientTransform="matrix(174.744 -233.4122 -236.7846 -177.2189 64074.0234 47977.5312)">
			<stop  offset="0" style="stop-color:#FFFFFF"/>
			<stop  offset="1" style="stop-color:#FFD500"/>
		</linearGradient>
		<polygon class="st29" points="104.9,111.6 154.8,44.9 218.8,92.8 168.9,159.5 		"/>
	</g>
	<g class="st0">
		<defs>
			
				<rect id="SVGID_88_" x="120.8" y="101.6" transform="matrix(0.6009 -0.7993 0.7993 0.6009 -17.104 170.1941)" width="82.1" height="1.2"/>
		</defs>
		<clipPath id="SVGID_89_">
			<use xlink:href="#SVGID_88_"  style="overflow:visible;"/>
		</clipPath>
		
			<linearGradient id="SVGID_90_" gradientUnits="userSpaceOnUse" x1="0" y1="270" x2="1" y2="270" gradientTransform="matrix(177.225 -231.5477 -234.9008 -179.7222 63565.1602 48653.2734)">
			<stop  offset="0" style="stop-color:#FFFFFF"/>
			<stop  offset="1" style="stop-color:#FFD500"/>
		</linearGradient>
		<polygon class="st30" points="104.6,110.9 155.3,44.7 219.1,93.6 168.5,159.7 		"/>
	</g>
	<g class="st0">
		<defs>
			
				<rect id="SVGID_91_" x="135.6" y="119.7" transform="matrix(0.9303 -0.3667 0.3667 0.9303 -31.8658 72.8154)" width="80.2" height="1.2"/>
		</defs>
		<clipPath id="SVGID_92_">
			<use xlink:href="#SVGID_91_"  style="overflow:visible;"/>
		</clipPath>
		
			<linearGradient id="SVGID_93_" gradientUnits="userSpaceOnUse" x1="0" y1="270" x2="1" y2="270" gradientTransform="matrix(268.4 -105.0306 -109.1863 -278.9677 29633.7344 75450.2734)">
			<stop  offset="0" style="stop-color:#FFFFFF"/>
			<stop  offset="4.726970e-02" style="stop-color:#FFF7DC"/>
			<stop  offset="9.788722e-02" style="stop-color:#FFF0B8"/>
			<stop  offset="0.1541" style="stop-color:#FFE995"/>
			<stop  offset="0.2147" style="stop-color:#FFE373"/>
			<stop  offset="0.2808" style="stop-color:#FFDE53"/>
			<stop  offset="0.3545" style="stop-color:#FFDA33"/>
			<stop  offset="0.439" style="stop-color:#FFD809"/>
			<stop  offset="0.5408" style="stop-color:#FFD600"/>
			<stop  offset="0.6777" style="stop-color:#FFD500"/>
			<stop  offset="1" style="stop-color:#FFD500"/>
		</linearGradient>
		<polygon class="st31" points="127.8,109.1 203.3,79.6 223.6,131.4 148.1,161 		"/>
	</g>
	<g class="st0">
		<defs>
			
				<rect id="SVGID_94_" x="135.1" y="118.3" transform="matrix(0.9225 -0.3861 0.3861 0.9225 -32.3449 76.8486)" width="80.2" height="1.2"/>
		</defs>
		<clipPath id="SVGID_95_">
			<use xlink:href="#SVGID_94_"  style="overflow:visible;"/>
		</clipPath>
		
			<linearGradient id="SVGID_96_" gradientUnits="userSpaceOnUse" x1="0" y1="270" x2="1" y2="270" gradientTransform="matrix(194.8204 -81.1587 -84.3446 -202.4471 22914.4805 54793.7227)">
			<stop  offset="0" style="stop-color:#FFFFFF"/>
			<stop  offset="0.1702" style="stop-color:#FFF5D4"/>
			<stop  offset="0.3969" style="stop-color:#FFE998"/>
			<stop  offset="0.6015" style="stop-color:#FFE05F"/>
			<stop  offset="0.7765" style="stop-color:#FFD929"/>
			<stop  offset="0.9151" style="stop-color:#FFD600"/>
			<stop  offset="1" style="stop-color:#FFD500"/>
		</linearGradient>
		<polygon class="st32" points="126.6,107.7 201.4,76.5 223.8,130.2 148.9,161.4 		"/>
	</g>
	<g class="st0">
		<defs>
			
				<rect id="SVGID_97_" x="136" y="120.9" transform="matrix(0.9444 -0.3288 0.3288 0.9444 -30.1439 64.6628)" width="80.2" height="1.2"/>
		</defs>
		<clipPath id="SVGID_98_">
			<use xlink:href="#SVGID_97_"  style="overflow:visible;"/>
		</clipPath>
		
			<linearGradient id="SVGID_99_" gradientUnits="userSpaceOnUse" x1="0" y1="270" x2="1" y2="270" gradientTransform="matrix(199.3629 -69.2516 -71.9894 -207.1657 19578.7852 56068.2031)">
			<stop  offset="0" style="stop-color:#FFFFFF"/>
			<stop  offset="0.1702" style="stop-color:#FFF5D4"/>
			<stop  offset="0.3969" style="stop-color:#FFE998"/>
			<stop  offset="0.6015" style="stop-color:#FFE05F"/>
			<stop  offset="0.7765" style="stop-color:#FFD929"/>
			<stop  offset="0.9151" style="stop-color:#FFD600"/>
			<stop  offset="1" style="stop-color:#FFD500"/>
		</linearGradient>
		<polygon class="st33" points="129.5,110.7 206,84.1 222.7,132.3 146.3,158.8 		"/>
	</g>
	<g class="st0">
		<defs>
			
				<rect id="SVGID_100_" x="135.3" y="119.1" transform="matrix(0.9223 -0.3864 0.3864 0.9223 -32.6312 77.0916)" width="80.2" height="1.2"/>
		</defs>
		<clipPath id="SVGID_101_">
			<use xlink:href="#SVGID_100_"  style="overflow:visible;"/>
		</clipPath>
		
			<linearGradient id="SVGID_102_" gradientUnits="userSpaceOnUse" x1="0" y1="270" x2="1" y2="270" gradientTransform="matrix(263.7041 -107.6324 -111.9079 -273.7873 30360.9316 74054.4062)">
			<stop  offset="0" style="stop-color:#FFFFFF"/>
			<stop  offset="1" style="stop-color:#FFD500"/>
		</linearGradient>
		<polygon class="st34" points="127,108.3 202.1,77.7 223.9,131.1 148.8,161.8 		"/>
	</g>
	<g class="st0">
		<defs>
			<polygon id="SVGID_103_" points="138.3,134.5 138.7,135.6 212.9,105.3 212.5,104.2 			"/>
		</defs>
		<clipPath id="SVGID_104_">
			<use xlink:href="#SVGID_103_"  style="overflow:visible;"/>
		</clipPath>
		
			<linearGradient id="SVGID_105_" gradientUnits="userSpaceOnUse" x1="0" y1="270" x2="1" y2="270" gradientTransform="matrix(263.9898 -105.8681 -110.2359 -274.4651 29909.5938 74237.4219)">
			<stop  offset="0" style="stop-color:#FFFFFF"/>
			<stop  offset="1" style="stop-color:#FFD500"/>
		</linearGradient>
		<polygon class="st35" points="127.4,108.6 202.6,78.4 223.8,131.3 148.6,161.4 		"/>
	</g>
	<g class="st0">
		<defs>
			<polygon id="SVGID_106_" points="138.3,134.5 138.7,135.7 214.5,109.7 214.1,108.6 			"/>
		</defs>
		<clipPath id="SVGID_107_">
			<use xlink:href="#SVGID_106_"  style="overflow:visible;"/>
		</clipPath>
		
			<linearGradient id="SVGID_108_" gradientUnits="userSpaceOnUse" x1="0" y1="270" x2="1" y2="270" gradientTransform="matrix(269.6963 -90.3412 -94.0764 -280.4072 25546.7012 75842.2266)">
			<stop  offset="0" style="stop-color:#FFFFFF"/>
			<stop  offset="1" style="stop-color:#FFD500"/>
		</linearGradient>
		<polygon class="st36" points="130.1,111.3 206.8,85.6 222.7,132.9 146,158.6 		"/>
	</g>
	<g class="st0">
		<defs>
			<polygon id="SVGID_109_" points="138.5,135.2 138.9,136.3 214.7,110.2 214.3,109 			"/>
		</defs>
		<clipPath id="SVGID_110_">
			<use xlink:href="#SVGID_109_"  style="overflow:visible;"/>
		</clipPath>
		
			<linearGradient id="SVGID_111_" gradientUnits="userSpaceOnUse" x1="0" y1="270" x2="1" y2="270" gradientTransform="matrix(269.4508 -91.0914 -94.8456 -280.1389 25754.6191 75770.4297)">
			<stop  offset="0" style="stop-color:#FFFFFF"/>
			<stop  offset="1" style="stop-color:#FFD500"/>
		</linearGradient>
		<polygon class="st37" points="130.2,111.8 206.9,85.9 223,133.5 146.4,159.4 		"/>
	</g>
	<g class="st0">
		<defs>
			<polygon id="SVGID_112_" points="138.2,134.5 138.6,135.6 213.6,107.4 213.2,106.2 			"/>
		</defs>
		<clipPath id="SVGID_113_">
			<use xlink:href="#SVGID_112_"  style="overflow:visible;"/>
		</clipPath>
		
			<linearGradient id="SVGID_114_" gradientUnits="userSpaceOnUse" x1="0" y1="270" x2="1" y2="270" gradientTransform="matrix(266.773 -98.642 -102.7239 -277.353 27881.3555 75017.3438)">
			<stop  offset="0" style="stop-color:#FFFFFF"/>
			<stop  offset="1" style="stop-color:#FFD500"/>
		</linearGradient>
		<polygon class="st38" points="128.6,109.8 204.5,81.7 223.2,132.1 147.3,160.2 		"/>
	</g>
	<g class="st0">
		<defs>
			<polygon id="SVGID_115_" points="138.2,134.4 138.6,135.6 213.8,107.9 213.4,106.7 			"/>
		</defs>
		<clipPath id="SVGID_116_">
			<use xlink:href="#SVGID_115_"  style="overflow:visible;"/>
		</clipPath>
		
			<linearGradient id="SVGID_117_" gradientUnits="userSpaceOnUse" x1="0" y1="270" x2="1" y2="270" gradientTransform="matrix(267.4798 -96.7064 -100.7082 -278.1085 27337.1367 75221.3203)">
			<stop  offset="0" style="stop-color:#FFFFFF"/>
			<stop  offset="1" style="stop-color:#FFD500"/>
		</linearGradient>
		<polygon class="st39" points="129,110.1 205,82.5 223,132.2 146.9,159.8 		"/>
	</g>
	<g class="st0">
		<defs>
			<polygon id="SVGID_118_" points="127.5,135.5 191.9,174.6 195.6,176.1 196.6,176.1 128.1,134.5 			"/>
		</defs>
		<clipPath id="SVGID_119_">
			<use xlink:href="#SVGID_118_"  style="overflow:visible;"/>
		</clipPath>
		
			<linearGradient id="SVGID_120_" gradientUnits="userSpaceOnUse" x1="0" y1="270.002" x2="1" y2="270.002" gradientTransform="matrix(180.2809 109.7178 114.011 -187.3454 -30652.1211 50720.0703)">
			<stop  offset="0" style="stop-color:#FFFFFF"/>
			<stop  offset="0.1702" style="stop-color:#FFF5D4"/>
			<stop  offset="0.3969" style="stop-color:#FFE998"/>
			<stop  offset="0.6015" style="stop-color:#FFE05F"/>
			<stop  offset="0.7765" style="stop-color:#FFD929"/>
			<stop  offset="0.9151" style="stop-color:#FFD600"/>
			<stop  offset="1" style="stop-color:#FFD500"/>
		</linearGradient>
		<polygon class="st40" points="146.2,103.8 215.1,145.7 177.9,206.8 109,164.9 		"/>
	</g>
	<g class="st0">
		<defs>
			<polygon id="SVGID_121_" points="127.6,135.6 205.1,181.2 205.7,180.1 128.2,134.5 			"/>
		</defs>
		<clipPath id="SVGID_122_">
			<use xlink:href="#SVGID_121_"  style="overflow:visible;"/>
		</clipPath>
		
			<linearGradient id="SVGID_123_" gradientUnits="userSpaceOnUse" x1="0" y1="270" x2="1" y2="270" gradientTransform="matrix(274.009 163.3736 151.7041 -253.8861 -40824.3047 68688.7266)">
			<stop  offset="0" style="stop-color:#FFFFFF"/>
			<stop  offset="1" style="stop-color:#FFD500"/>
		</linearGradient>
		<polygon class="st41" points="148.1,100.2 226.2,146.8 185.2,215.5 107.1,168.9 		"/>
	</g>
	<g class="st0">
		<defs>
			<polygon id="SVGID_124_" points="127.6,135.6 205.9,179.6 206.5,178.5 128.2,134.5 			"/>
		</defs>
		<clipPath id="SVGID_125_">
			<use xlink:href="#SVGID_124_"  style="overflow:visible;"/>
		</clipPath>
		
			<linearGradient id="SVGID_126_" gradientUnits="userSpaceOnUse" x1="0" y1="270" x2="1" y2="270" gradientTransform="matrix(94.5263 53.8479 50.0201 -87.623 -13366.2959 23799.3516)">
			<stop  offset="0" style="stop-color:#FFFFFF"/>
			<stop  offset="0.1698" style="stop-color:#FFFFFD"/>
			<stop  offset="0.272" style="stop-color:#FFFDF7"/>
			<stop  offset="0.3562" style="stop-color:#FFFBED"/>
			<stop  offset="0.4308" style="stop-color:#FFF7DD"/>
			<stop  offset="0.4989" style="stop-color:#FFF3C8"/>
			<stop  offset="0.5624" style="stop-color:#FFEDAD"/>
			<stop  offset="0.6222" style="stop-color:#FFE789"/>
			<stop  offset="0.6792" style="stop-color:#FFDF59"/>
			<stop  offset="0.7321" style="stop-color:#FFD700"/>
			<stop  offset="0.75" style="stop-color:#FFD500"/>
			<stop  offset="1" style="stop-color:#FFD500"/>
		</linearGradient>
		<polygon class="st42" points="147,100.6 225.9,145.6 187.1,213.5 108.2,168.5 		"/>
	</g>
	<g class="st0">
		<defs>
			<polygon id="SVGID_127_" points="72.3,174.3 73.3,174.3 77.1,172.9 142.5,135.5 141.9,134.5 			"/>
		</defs>
		<clipPath id="SVGID_128_">
			<use xlink:href="#SVGID_127_"  style="overflow:visible;"/>
		</clipPath>
		
			<linearGradient id="SVGID_129_" gradientUnits="userSpaceOnUse" x1="0" y1="270.002" x2="1" y2="270.002" gradientTransform="matrix(-183.0986 104.9493 -109.0263 -190.2787 29576.1699 51511.9883)">
			<stop  offset="0" style="stop-color:#FFFFFF"/>
			<stop  offset="0.1702" style="stop-color:#FFF5D4"/>
			<stop  offset="0.3969" style="stop-color:#FFE998"/>
			<stop  offset="0.6015" style="stop-color:#FFE05F"/>
			<stop  offset="0.7765" style="stop-color:#FFD929"/>
			<stop  offset="0.9151" style="stop-color:#FFD600"/>
			<stop  offset="1" style="stop-color:#FFD500"/>
		</linearGradient>
		<polygon class="st43" points="125.1,104.2 55.1,144.3 89.6,204.6 159.7,164.5 		"/>
	</g>
	<g class="st0">
		<defs>
			
				<rect id="SVGID_130_" x="57.8" y="156.2" transform="matrix(0.8753 -0.4836 0.4836 0.8753 -63.026 69.2521)" width="89.9" height="1.2"/>
		</defs>
		<clipPath id="SVGID_131_">
			<use xlink:href="#SVGID_130_"  style="overflow:visible;"/>
		</clipPath>
		
			<linearGradient id="SVGID_132_" gradientUnits="userSpaceOnUse" x1="0" y1="270" x2="1" y2="270" gradientTransform="matrix(-278.2089 156.0986 -144.9737 -257.8116 39276.9492 69748.3984)">
			<stop  offset="0" style="stop-color:#FFFFFF"/>
			<stop  offset="1" style="stop-color:#FFD500"/>
		</linearGradient>
		<polygon class="st44" points="123.4,100.7 44.1,145.2 82.1,212.9 161.4,168.4 		"/>
	</g>
	<g class="st0">
		<defs>
			<polygon id="SVGID_133_" points="62.3,176.4 62.9,177.5 142.4,135.6 141.8,134.5 			"/>
		</defs>
		<clipPath id="SVGID_134_">
			<use xlink:href="#SVGID_133_"  style="overflow:visible;"/>
		</clipPath>
		
			<linearGradient id="SVGID_135_" gradientUnits="userSpaceOnUse" x1="0" y1="270" x2="1" y2="270" gradientTransform="matrix(-95.9109 51.341 -47.699 -88.914 13009.4199 24147.6055)">
			<stop  offset="0" style="stop-color:#FFFFFF"/>
			<stop  offset="0.1698" style="stop-color:#FFFFFD"/>
			<stop  offset="0.272" style="stop-color:#FFFDF7"/>
			<stop  offset="0.3562" style="stop-color:#FFFBED"/>
			<stop  offset="0.4308" style="stop-color:#FFF7DD"/>
			<stop  offset="0.4989" style="stop-color:#FFF3C8"/>
			<stop  offset="0.5624" style="stop-color:#FFEDAD"/>
			<stop  offset="0.6222" style="stop-color:#FFE789"/>
			<stop  offset="0.6792" style="stop-color:#FFDF59"/>
			<stop  offset="0.7321" style="stop-color:#FFD700"/>
			<stop  offset="0.75" style="stop-color:#FFD500"/>
			<stop  offset="1" style="stop-color:#FFD500"/>
		</linearGradient>
		<polygon class="st45" points="124.5,101.2 44.4,144.1 80.2,210.8 160.3,167.9 		"/>
	</g>
	<g class="st0">
		<defs>
			<path id="SVGID_136_" d="M99.5,135.1c0,19.6,15.9,35.5,35.5,35.5c19.6,0,35.5-15.9,35.5-35.5c0-19.6-15.9-35.5-35.5-35.5
				C115.4,99.6,99.5,115.5,99.5,135.1"/>
		</defs>
		<clipPath id="SVGID_137_">
			<use xlink:href="#SVGID_136_"  style="overflow:visible;"/>
		</clipPath>
		<defs>
			<filter id="Adobe_OpacityMaskFilter" filterUnits="userSpaceOnUse" x="99.5" y="99.6" width="71" height="71">
				<feColorMatrix  type="matrix" values="1 0 0 0 0  0 1 0 0 0  0 0 1 0 0  0 0 0 1 0"/>
			</filter>
		</defs>
		<mask maskUnits="userSpaceOnUse" x="99.5" y="99.6" width="71" height="71" id="SVGID_138_">
			<g class="st46">
				
					<radialGradient id="SVGID_139_" cx="3.223004e-07" cy="270" r="1" gradientTransform="matrix(35.5076 0 0 -35.5076 135.001 9722.1123)" gradientUnits="userSpaceOnUse">
					<stop  offset="0" style="stop-color:#FFFFFF"/>
					<stop  offset="0.4" style="stop-color:#FFFFFF"/>
					<stop  offset="1" style="stop-color:#000000"/>
				</radialGradient>
				<rect x="99.5" y="99.6" class="st47" width="71" height="71"/>
			</g>
		</mask>
		
			<radialGradient id="SVGID_140_" cx="3.223004e-07" cy="270" r="1" gradientTransform="matrix(35.5076 0 0 -35.5076 135.001 9722.1113)" gradientUnits="userSpaceOnUse">
			<stop  offset="0" style="stop-color:#FFFFFF"/>
			<stop  offset="0.4" style="stop-color:#FFFFFF"/>
			<stop  offset="1" style="stop-color:#FFFFFF"/>
		</radialGradient>
		<rect x="99.5" y="99.6" class="st48" width="71" height="71"/>
	</g>
	<g class="st0">
		<defs>
			<rect id="SVGID_141_" width="270" height="270"/>
		</defs>
		<clipPath id="SVGID_142_">
			<use xlink:href="#SVGID_141_"  style="overflow:visible;"/>
		</clipPath>
		<path class="st49" d="M109.6,176.9c0,2.1,0,2.3-0.4,2.8c-0.5,0.6-1.1,0.9-1.8,0.9c-0.8,0-1.5-0.4-1.9-1.1
			c-0.3-0.5-0.3-0.7-0.3-2.6v-10.6c0-2.2,0.1-2.4,0.6-3c0.6-0.6,0.8-0.6,3.1-0.6h2.1c4.1,0,5.5,1.3,5.5,5.2c0,2.2-0.5,3.2-2,3.9
			c1.4,0.7,1.9,1.5,2,3.2l0.1,1.8c0,0.5,0.1,1.2,0.1,1.3c0,0.9-0.1,1.3-0.5,1.8c-0.5,0.5-1,0.7-1.7,0.7c-0.7,0-1.5-0.4-1.9-1
			c-0.3-0.5-0.3-0.7-0.4-2.6l-0.1-1.1c-0.1-1.8-0.3-2.2-1.5-2.2l-0.8,0V176.9z M109.6,170c0.3,0.1,0.5,0.1,0.7,0.1
			c1.3,0,1.7-0.4,1.7-1.9c0-1.5-0.4-1.9-1.9-1.9h-0.5V170z"/>
		<path class="st49" d="M123,176.5l-0.1,0.7c-0.2,1.7-0.3,1.8-0.5,2.3c-0.3,0.6-1.1,1.1-1.9,1.1c-1.3,0-2.3-1-2.3-2.1
			c0-0.4,0-0.5,0.3-1.9l2-10.6c0.3-1.7,0.4-2,0.9-2.6c0.4-0.5,1-0.7,2-0.7h1.4c1.1,0,1.8,0.3,2.2,0.8c0.3,0.5,0.4,0.7,0.8,2.3
			l2.5,10.7c0.4,1.6,0.4,1.6,0.4,2.1c0,1.1-1,2.1-2.3,2.1c-0.8,0-1.6-0.4-1.9-1c-0.3-0.5-0.3-0.6-0.6-2.3l-0.2-0.8H123z
			 M124.8,170.6c-0.1-0.8-0.3-1.8-0.5-4c-0.2,1.6-0.3,2.8-0.4,4l-0.3,2.2h1.7L124.8,170.6z"/>
		<path class="st49" d="M150.6,176.9c0,2.1,0,2.3-0.5,2.8c-0.5,0.6-1.1,0.9-1.8,0.9c-0.8,0-1.5-0.4-1.9-1.1
			c-0.3-0.4-0.3-0.7-0.3-2.6v-10.8c0-2.1,0-2.3,0.4-2.8c0.5-0.6,1.1-0.9,1.8-0.9c0.8,0,1.5,0.4,1.9,1.1c0.3,0.5,0.3,0.7,0.3,2.6
			V176.9z"/>
		<path class="st49" d="M137.4,162.6c2.6,0,4,0.3,5,1.3c0.9,0.8,1.4,2.1,1.6,3.8c0.1,0.6,0.1,1.5,0.1,3c0,4.4,0,4.9-0.5,6.4
			c-0.5,1.4-1.7,2.6-3.1,3c-0.8,0.2-1.8,0.3-3.3,0.3h-1.1c-2.2,0-2.4-0.1-3.1-0.6c-0.6-0.6-0.6-0.8-0.6-3.1v-10.3
			c0-2.2,0-2.4,0.6-3.1c0.6-0.6,0.8-0.6,3.1-0.6H137.4z M136.8,176.7c1.7,0,2.1-0.1,2.4-0.7c0.2-0.5,0.3-1.2,0.3-3.6
			c0-3.3-0.1-4.6-0.3-5.2c-0.2-0.5-0.5-0.7-1.1-0.8c-0.2,0-0.2,0-1.3,0V176.7z"/>
		<path class="st49" d="M164.1,164.9c0.6,1.3,0.7,2.2,0.7,6.6c0,3.3-0.1,4.2-0.3,5.1c-0.6,2.8-2.4,4-5.8,4c-2.7,0-4.5-0.8-5.3-2.6
			c-0.6-1.3-0.7-2.2-0.7-6.7c0-3.2,0.1-4,0.3-5c0.6-2.8,2.4-4,5.9-4C161.5,162.4,163.3,163.2,164.1,164.9 M157.4,167.4
			c-0.1,0.3-0.1,2.8-0.1,4.1c0,2.2,0.1,4,0.2,4.4c0.2,0.6,0.7,1,1.4,1c0.8,0,1.3-0.5,1.4-1.3c0.1-0.3,0.1-2.8,0.1-4.1
			c0-2.1-0.1-4-0.2-4.4c-0.2-0.6-0.7-1-1.4-1C158,166.1,157.5,166.6,157.4,167.4"/>
		<path class="st49" d="M231.3,109.7c-3.4,0-6.7,1.7-8.8,4.4c-0.7-1-1.6-1.8-2.6-2.5c-10.3-37.3-44.4-64.6-84.9-64.6
			c-35.7,0-66.4,21.2-80.2,51.7c-0.3,0-0.6,0-0.9,0c-14.6,0-20.8,6.5-23.3,11.9c-2.1,4.2-2.9,9.4-2.9,18c0,12.7,0.2,17.8,1.5,23.3
			c1.8,7.8,7.4,17.1,23.7,17.1c0.3,0,0.6,0,0.9,0c13.3,31.8,44.7,54.2,81.3,54.2c36.8,0,68.3-22.5,81.5-54.5c0.3,0,0.7,0,1,0
			c5.3,0,9.2-1.6,11.7-4.7c1.8-2.2,3.3-5.5,4.5-9.9l7.2-26.3c1.2-4.2,1.4-5,1.4-7C242.4,114.6,237.4,109.7,231.3,109.7 M135,52.6
			c36.7,0,67.7,24,78.4,57.1c-0.9,0-1.7,0.2-2.5,0.4c-0.8-0.2-1.7-0.3-2.6-0.3c-2.4,0-4.3,0.6-5.9,1.5c-1.6-1-3.6-1.5-5.7-1.5
			c-2.3,0-4.5,0.7-6.3,1.9c-0.5-0.3-0.9-0.5-1.4-0.7c-0.3-2.1-1.1-4.4-3.1-6.4c-2.1-2.1-5-3.3-8-3.3c-3.1,0-5.9,1.2-8,3.3
			c-2,2-2.8,4-3.1,6.4c-0.6,0.2-1.1,0.5-1.6,0.8c-2.2-1.3-4.9-2-7.9-2c-3.1,0-5.6,0.6-7.8,2c-2-1.4-4.3-1.8-6.3-1.8
			c-2.5,0-5.2,0.8-7.3,2.6c-2-1.7-4.6-2.6-7.3-2.6c-3.2,0-6.3,1.4-8.4,3.8c-2.1-2.4-5.2-3.8-8.5-3.8c-3.4,0-6.7,1.6-8.8,4.3
			c-0.1,0.1-0.1,0.2-0.2,0.3c-3.4-3-8.5-4.7-14-4.7c-4.7,0-8.9,1.1-12.2,3c-1.9-7.2-7.3-12-15.4-13.6C74.1,71.6,102.3,52.6,135,52.6
			 M135,217.4c-33.6,0-62.5-20.1-75.3-49c4.2-0.7,7.7-2,10.4-4c3.1-2.3,5.4-5.6,6.7-9.4c3.2,1.8,7.2,2.7,11.4,2.7
			c6,0,11.4-2,14.8-5.2c2.6,3.3,6.7,5.2,11.5,5.2c3,0,5.6-0.6,7.8-1.9c1.6,1.1,3.6,1.8,6.3,1.8c2.9,0,5.4-0.9,7.4-2.6
			c2,1.6,4.6,2.6,7.3,2.6c3.2,0,6.3-1.4,8.5-3.9c2.1,2.5,5.3,3.9,8.7,3.9c3.4,0,6.7-1.6,8.9-4.4c0.2-0.2,0.3-0.4,0.4-0.6
			c2.2,2.6,5.9,5,12.5,5c3.6,0,6.3-0.9,8.2-2.2c1.9,1.3,4.2,2.1,6.6,2.1c3.4,0,6.7-1.6,8.8-4.3c0.2-0.2,0.3-0.4,0.5-0.6
			c-0.9,1.5-1.4,3.4-1.4,5.4c0,3.6,1.7,7.5,6,9.4C198.2,196.7,169,217.4,135,217.4"/>
		<path class="st50" d="M65.1,139.6c-2.1,0-4,0.7-5.2,1.9c-1.2,1-1.5,2.1-1.7,4.7c-0.3,3.7-1.5,5-4.5,5c-2.5,0-4-1.2-4.9-3.7
			c-0.5-1.8-0.8-5.1-0.8-11.5c0-1.5,0-1.6,0.1-3.9c0.1-3.2,0.1-3.2,0.2-9.1c0-4.6,1.7-6.8,5.1-6.8c2.7,0,4.1,1.5,4.5,4.7
			c0.3,3.5,0.3,3.7,0.9,4.5c0.9,1.4,3.1,2.2,5.6,2.2c4.6,0,6.9-2.9,6.9-8.7c0-9.5-6.2-14.8-17.4-14.8c-9.3,0-15.4,2.9-18.2,8.7
			c-1.6,3.3-2.3,8-2.3,15.5c0,12.9,0.3,17.3,1.4,22c2,8.6,7.8,12.7,18.1,12.7c6.1,0,10.8-1.2,13.8-3.4c3.4-2.6,5.5-7,5.5-11.7
			C72.1,142.7,69.5,139.6,65.1,139.6 M88.4,115.6c-5.2,0-9.5,1.6-11.8,4.3c-2.2,2.6-2.9,6-2.9,14.1c0,7.7,0.7,11.1,2.9,13.7
			c2.2,2.6,6.6,4.3,11.5,4.3c4.9,0,9.3-1.6,11.5-4.3c2.2-2.6,2.9-6,2.9-13.9c0-7.9-0.7-11.3-2.9-13.9
			C97.4,117.2,93.1,115.6,88.4,115.6 M90.8,142.7c-0.4,0.9-1.4,1.4-2.6,1.4c-1.3,0-2.4-0.6-2.7-1.4c-0.4-0.9-0.6-3.6-0.6-9
			c0-5.4,0.1-8.1,0.6-9c0.4-0.9,1.4-1.4,2.7-1.4c1.2,0,2.3,0.6,2.6,1.4c0.4,0.9,0.6,3.6,0.6,9C91.4,139.1,91.2,141.8,90.8,142.7
			 M128.4,115.7c-1.7,0-3.3,0.8-4.4,2.2c-1.1,1.3-1.1,1.8-1.1,7.1v12.8c0,3.4-0.7,4.6-2.9,4.6c-2.2,0-2.9-1.1-2.9-4.8V125
			c0-4.8-0.1-5.4-0.7-6.6c-1-1.7-2.9-2.8-4.9-2.8c-1.7,0-3.3,0.8-4.4,2.2c-1.1,1.3-1.1,1.8-1.1,7.1v16.5c0,3.5,0.2,4.8,0.9,6.2
			c1.4,2.7,4.1,4.1,7.7,4.1c4.1,0,6.3-1.4,8.3-5.3c1.3,3.9,2.8,5.1,5.7,5.1c2.1,0,3.6-0.7,4.5-2.3c0.9-1.4,0.9-1.5,1-7V125
			c0-4.8-0.1-5.4-0.7-6.6C132.3,116.8,130.4,115.7,128.4,115.7 M157.1,115.6c-4.2,0-6.6,1.6-8.4,5.7c-0.9-3.9-2.6-5.6-5.7-5.6
			c-3.6,0-5.5,2.3-5.5,6.8v20c0,4.8,0.1,5.4,0.7,6.6c1,1.7,2.9,2.8,4.9,2.8c1.7,0,3.3-0.8,4.4-2.2c1.1-1.4,1.1-1.8,1.1-7.1v-11.9
			c0-2.5,0-2.7,0.1-3.4c0.3-1.4,1.4-2.4,2.8-2.4c1.1,0,2.3,0.8,2.7,1.9c0.3,0.9,0.4,1.4,0.4,4.1v11.8c0,4.8,0.1,5.4,0.7,6.6
			c1,1.7,2.9,2.8,4.9,2.8c1.7,0,3.3-0.8,4.4-2.2c1.1-1.4,1.1-1.8,1.1-7.1v-17.8C165.9,118.8,162.7,115.6,157.1,115.6 M189.1,119.7
			c0-2.6-1.9-3.6-4.3-3.6h-1.4v-2.3c0-2.6-0.4-3.9-1.6-5.1c-1.1-1.1-2.5-1.6-3.9-1.6c-1.5,0-2.9,0.6-4,1.6c-1.3,1.3-1.6,2.5-1.6,5.5
			v1.9c-0.4,0-1,0-1.4,0c-2.7,0-4.2,0.9-4.2,3.6c0,3.7,2,4,5.6,4v16.4c0,3.5,0.4,6.6,1.1,7.8c1.6,2.6,4.4,3.9,8.8,3.9
			c4.6,0,7-1.9,7-5.7c0-2.3-1.1-3.9-2.9-4.2c-1.9-0.4-1.9-0.4-2.1-0.6c-0.5-0.6-0.6-1.5-0.6-4.1v-13.5
			C187.3,123.7,189.1,123.1,189.1,119.7 M231.3,115.4c-1.8,0-3.6,1-4.4,2.5c-0.7,1.3-0.7,1.5-1.5,5.8l-0.7,3.3
			c-0.7,4.7-0.8,5.7-1.6,10.5c-1-5.2-1.4-7.5-2-9.8l-1.1-4c-1.1-4.5-1.2-4.8-2-6.1c-0.8-1.3-2.5-2.3-4.2-2.3c-1,0-2,0.3-2.8,0.8
			c-0.8-0.4-1.7-0.7-2.7-0.7c-2.8,0-4.4,1.2-6.3,4.6c-0.7-3.1-2.4-4.6-5.3-4.6c-1.8,0-3.5,0.9-4.4,2.2c-0.9,1.1-1,2-1,5.2v19.3
			c0,4.9,0.1,5.4,0.7,6.6c1,1.7,2.9,2.8,4.9,2.8c1.7,0,3.3-0.8,4.4-2.2c1.1-1.3,1.1-1.8,1.1-7.1v-11.8c0-3.8,0.9-5.2,3.4-5.2
			c0.2,0,0.8,0,1.6,0.1h0.6c0.5,0,1-0.1,1.5-0.2c0.1,0.4,0.3,0.9,0.5,1.4l7.5,23.2c-0.6,3.6-1.1,4.2-3.7,4.2
			c-2.1,0.2-3.3,1.6-3.3,3.9c0,3.3,2.3,4.9,6.9,4.9c3.4,0,5.9-0.8,7.3-2.6c1.3-1.6,2.5-4.3,3.5-7.8l7.3-26.3c1.1-4,1.2-4.3,1.2-5.5
			C236.6,117.8,234.2,115.4,231.3,115.4"/>
	</g>
</g>
</svg>
