<svg xmlns="http://www.w3.org/2000/svg" viewBox="0 0 1530.7 1530.7">
  <defs>
    <style>
      .a {
        fill: #00ab96;
      }

      .b {
        fill: #fff;
      }
    </style>
  </defs>
  <g>
    <rect class="a" width="1530.7" height="1530.71"/>
    <path class="b" d="M543.3,295.5H295.7V418.7H795.3c-36.1-84.2-131.2-123.2-252-123.2m235,316.1H295.7V488.9h515c.2,4.8.3,9.7.3,14.6-.4,45.7-11.4,80.9-32.7,108.1M295.7,681.8V804.3H745.6L670.3,681.8Zm0,192.7H788.8l75.9,123.4h-569Z" transform="translate(-84.8 -84.7)"/>
    <g>
      <path class="b" d="M415.4,1329.2l45.3,75.3H411.2l-41.1-68.3H340.3v68.3H295.6V1206.9h76c29.9,0,56.5,4.2,70.7,33.8,4.2,9,6.2,20.5,6.2,30.3,0,14.2-3.4,29.4-12.3,40.8C429.8,1320.1,422.9,1325.6,415.4,1329.2Zm-17.2-75.6c-9-11.2-23.5-10.6-36.4-10.6H340.3v56.5l23.7.3c7.3,0,17.7,0,24.4-3.1,10.3-4.7,15.6-14.3,15.6-25.4A28.7,28.7,0,0,0,398.2,1253.6Z" transform="translate(-84.8 -84.7)"/>
      <path class="b" d="M504.8,1344.1c2.5,17.9,12.3,31.1,31.3,31.1,12.9,0,21-4.5,27.2-15.4l41.4,2.8c-10.3,31-37.8,46.2-69.7,46.2-45.9,0-73.4-32.2-73.4-76.8s28.9-76.7,73.4-76.7c48.4,0,71.4,37,71.4,81.8v7Zm58.2-31.4c-1.4-14.5-12-24.9-26.9-24.9-17.6,0-26.6,8.4-31.1,24.9Z" transform="translate(-84.8 -84.7)"/>
      <path class="b" d="M758,1259.5v127.1c0,11-.5,22.4-4.7,32.5-11.2,26.6-40.6,33.1-66.7,33.1-31.1,0-61-10.4-64.1-46h43.7c3.9,10.1,13.4,13.5,23.5,13.5,25.2,0,27.7-15.1,27.7-36.4a38.9,38.9,0,0,1,.3-5.9c-9,12.3-26,17.9-40.6,17.9-39.2,0-61.3-32.2-61.3-68.9s21.3-70.8,60.7-70.8c19.4,0,30.8,7.8,41.8,23v-19.1Zm-70.5,30c-20.5,0-31.4,16.5-31.4,35.5s10.1,35.3,30.2,35.3,30.8-17.3,30.8-36.7S707.1,1289.5,687.5,1289.5Z" transform="translate(-84.8 -84.7)"/>
      <path class="b" d="M822.6,1244.1H781.7v-37.2h40.9Zm0,160.5H781.7V1259.5h40.9Z" transform="translate(-84.8 -84.7)"/>
      <path class="b" d="M913.1,1408.8c-45.4,0-73.6-31.4-73.6-75.9,0-47.1,30.5-77.6,77.5-77.6,44.5,0,72.5,32.8,72.5,76.2S958.2,1408.8,913.1,1408.8Zm2-120.4c-25,0-33.4,21.2-33.4,42.8s7.9,44,32.8,44,32.8-23.8,32.8-45.4S939.4,1288.4,915.1,1288.4Z" transform="translate(-84.8 -84.7)"/>
      <path class="b" d="M1094.4,1404.6v-85.4c0-14-5.3-27.8-21.5-27.8-19.6,0-25,17.4-25,32.8v80.4h-41.4V1259.5h40.3v16.8c10.1-12.9,23.3-20.1,40.1-20.1,10.9,0,21.8,2.8,30.5,9.5,16.5,12.6,19.3,30.2,19.3,49.8v89.1Z" transform="translate(-84.8 -84.7)"/>
    </g>
  </g>
</svg>
