<?xml version="1.0" encoding="utf-8"?>
<!-- Generator: Adobe Illustrator 23.0.2, SVG Export Plug-In . SVG Version: 6.00 Build 0)  -->
<svg version="1.1" id="Vrstva_1" xmlns="http://www.w3.org/2000/svg" xmlns:xlink="http://www.w3.org/1999/xlink" x="0px" y="0px"
	 viewBox="0 0 482.7 502.5" style="enable-background:new 0 0 482.7 502.5;" xml:space="preserve">
<style type="text/css">
	.st0{fill:#D93E36;}
	.st1{fill:#0084C1;}
	.st2{clip-path:url(#SVGID_2_);fill:#FFFFFF;}
	.st3{clip-path:url(#SVGID_4_);fill:#FFFFFF;}
	.st4{clip-path:url(#SVGID_6_);fill:#F8EC11;}
</style>
<rect x="38.3" y="32.1" class="st0" width="406.2" height="438.4"/>
<rect x="59.5" y="147.4" class="st1" width="363.6" height="222.9"/>
<g>
	<g>
		<defs>
			<rect id="SVGID_1_" width="482.7" height="502.5"/>
		</defs>
		<clipPath id="SVGID_2_">
			<use xlink:href="#SVGID_1_"  style="overflow:visible;"/>
		</clipPath>
		<path class="st2" d="M170.8,42.3h19.4l-11.7,10h-15.4L170.8,42.3z M59.5,56.9h31c10,0,17,2.6,21.3,7c3.8,3.8,5.8,8.8,5.8,15.3v0.2
			c0,10.1-5.3,16.8-13.5,20.2l15.6,22.8H98.9l-13.2-19.9h-8.1v19.9H59.5V56.9z M89.8,88.3c6.1,0,9.7-3,9.7-7.8v-0.2
			c0-5.2-3.8-7.9-9.8-7.9h-12v15.8L89.8,88.3L89.8,88.3z M178.9,56.4h-17.5l-27.8,66h19l4.7-11.8h25.4l4.7,11.8h19.5L178.9,56.4z
			 M162.6,96.5l7.4-18.5l7.3,18.5H162.6z M226.2,56.9h25.4c23.3,0,36.9,13.5,36.9,32.4v0.2c0,18.9-13.8,33-37.3,33h-25L226.2,56.9
			L226.2,56.9z M244.4,72.9v33.4h7.4c11,0,18.2-6,18.2-16.6v-0.2c0-10.5-7.2-16.7-18.2-16.7L244.4,72.9L244.4,72.9z M311.5,56.9
			h18.2v65.5h-18.2V56.9z M352.6,89.8v-0.2c0-18.8,15.2-34.1,35.4-34.1c20.2,0,35.2,15.1,35.2,33.9v0.2c0,18.8-15.2,34.1-35.4,34.1
			C367.6,123.7,352.6,108.6,352.6,89.8 M404.5,89.8v-0.2c0-9.6-6.7-17.7-16.8-17.7c-10,0-16.7,8.1-16.7,17.5v0.2
			c0,9.5,6.8,17.7,16.8,17.7C397.9,107.3,404.5,99.3,404.5,89.8"/>
	</g>
	<g>
		<defs>
			<rect id="SVGID_3_" width="482.7" height="502.5"/>
		</defs>
		<clipPath id="SVGID_4_">
			<use xlink:href="#SVGID_3_"  style="overflow:visible;"/>
		</clipPath>
		<path class="st3" d="M340.6,375.6H360l-11.7,10H333L340.6,375.6z M59.5,450.1H90c14.1,0,22.4-6.2,22.4-16.3v-0.2
			c0-8-4.6-12.1-11.7-14.4c5.2-2.3,9.1-6.3,9.1-13.2v-0.2c0-4-1.4-7.2-3.8-9.6c-3.5-3.4-8.7-5.2-16.1-5.2H59.5V450.1z M93.6,409.5
			c0,3.5-2.9,5.1-7.8,5.1H75.5v-10.4h10.7c4.8,0,7.4,1.8,7.4,5.1C93.6,409.3,93.6,409.5,93.6,409.5z M96,431.4v0.2
			c0,3.5-2.8,5.4-7.8,5.4H75.5v-10.9H88C93.4,426.1,96,428.2,96,431.4 M126.6,450.1h44.9v-14.3h-28.6v-44.7h-16.4V450.1z
			 M180.7,450.1h17.1l4.2-10.6h22.8l4.2,10.6h17.5l-25.1-59.5h-15.8L180.7,450.1z M206.8,426.8l6.7-16.7l6.6,16.7H206.8z
			 M259.1,450.1h16.2v-32.4l25.3,32.4h14.2v-59h-16.2v31.2l-24.3-31.2h-15.3V450.1L259.1,450.1z M332.5,450.1h16.4v-59h-16.4V450.1
			L332.5,450.1z M366.3,450.1h16.4v-15.4l6-6.6l14.9,21.9h19.6l-23.1-33.7l22.4-25.3h-19.3l-20.4,24v-24h-16.4L366.3,450.1
			L366.3,450.1z"/>
	</g>
	<g>
		<defs>
			<rect id="SVGID_5_" width="482.7" height="502.5"/>
		</defs>
		<clipPath id="SVGID_6_">
			<use xlink:href="#SVGID_5_"  style="overflow:visible;"/>
		</clipPath>
		<path class="st4" d="M197.5,191.2c-53,0-95.9,42.9-95.9,95.9c0,35.6,19.4,66.7,48.3,83.2h95.3c28.8-16.5,48.3-47.6,48.3-83.2
			C293.4,234.1,250.4,191.2,197.5,191.2 M218,255.9c4.7-1.9,10,0.4,11.9,5.1c1.9,4.7-0.4,10-5.2,11.9c-4.7,1.9-10-0.4-11.9-5.1
			C211,263,213.3,257.7,218,255.9 M155.3,290.9c-1.9-4.7,0.4-10,5.1-11.9c4.7-1.9,10,0.4,11.9,5.1c1.9,4.7-0.4,10-5.1,11.9
			S157.1,295.6,155.3,290.9 M253.8,284.4c-2.4,20.4-15,37.6-33.7,46.1c-7.8,3.5-16,5.3-24.2,5.3c-11.4,0-22.8-3.4-32.7-10.1
			c-3.7-2.5-4.7-7.6-2.2-11.4c2.5-3.7,7.6-4.7,11.4-2.2c12.2,8.3,27.5,9.6,40.9,3.5s22.4-18.5,24.2-33.1c0.5-4.5,4.6-7.7,9.1-7.1
			C251.1,275.9,254.3,279.9,253.8,284.4 M165.2,179.7l-10.1-32.3h24.3l0.2,29C174.7,177.2,169.9,178.3,165.2,179.7 M247.3,186.6
			c-4.1-2-8.4-3.8-12.8-5.3l12-33.9h29.4L247.3,186.6z M87.4,261.6l-27.9-1.3v-19.5l32.8,5.5C90.4,251.1,88.7,256.3,87.4,261.6
			 M115.3,210.4l-55.8-36.1v-26.9h10.3l54.6,54.4C121.2,204.5,118.2,207.4,115.3,210.4 M306.8,258.9l116.3-21.5v32.8l-113.5,3
			C309,268.4,308.1,263.6,306.8,258.9 M423.2,147.4v18.9l-132.3,58c-2.3-3.3-4.7-6.5-7.3-9.5l93.7-67.4L423.2,147.4L423.2,147.4z
			 M307.2,316.2l116,24.4v29.8h-2.3l-118.7-39C304.2,326.4,305.9,321.4,307.2,316.2 M88.9,320.3c1.4,4.9,3.2,9.6,5.3,14.2L59.5,356
			v-27.4L88.9,320.3z"/>
	</g>
</g>
</svg>
