<?xml version="1.0" encoding="utf-8"?>
<!-- Generator: Adobe Illustrator 25.2.0, SVG Export Plug-In . SVG Version: 6.00 Build 0)  -->
<svg version="1.1" id="Layer_1" xmlns="http://www.w3.org/2000/svg" xmlns:xlink="http://www.w3.org/1999/xlink" x="0px" y="0px"
	 viewBox="0 0 382 379.7" style="enable-background:new 0 0 382 379.7;" xml:space="preserve">
<style type="text/css">
	.st0{fill-rule:evenodd;clip-rule:evenodd;fill:#FFFFFF;}
	.st1{fill-rule:evenodd;clip-rule:evenodd;fill:#FFFFFF;stroke:#000000;stroke-width:2;stroke-miterlimit:10;}
	.st2{fill-rule:evenodd;clip-rule:evenodd;}
	.st3{fill-rule:evenodd;clip-rule:evenodd;fill:#E3051B;}
</style>
<rect class="st0" width="382" height="379.7"/>
<g>
	<rect x="17.7" y="16.5" class="st1" width="346.6" height="346.6"/>
	<path class="st2" d="M303.8,321.2v-4.2c6.5,2.4,13,4.8,19,7.8c4.2,2.4,1.4,5.8-0.1,5c-0.9-0.6-3.7-1.8-7.1-3.5
		C311.6,324.4,307.8,322.8,303.8,321.2L303.8,321.2z M303.8,308.2V302C305.8,303.1,305.8,305.9,303.8,308.2L303.8,308.2z
		 M303.8,298.8v-4.4c2.7-1.9,4.5-3.6,5.3-4.7c0.8-1,0.5-5-2.8-1.4c0,0-1.2,1.2-2.5,2.7v-5.8c1.2-1.2,2.2-2.1,3-2.6
		c11-6.7,9.1,6.1,5.3,9.8C309.6,294.9,306.6,297,303.8,298.8z M261,299.5c1.2,0.1,2.4,1.2,2.5,3.3c-0.4,0.2-1.3,0.6-2.5,0.3v3.5
		c0.4,0,0.9,0,1.3-0.1c-0.4,0.4-0.8,1-1.3,1.7v7.6c1.9-1.3,3.7-3.1,5.5-5.7c0,0,1.3,3.7,3.5,4.8c2.2,0.9,4.8,1.5,8.1-0.1
		c4-1.2,6.1-3.9,3.9-0.4c-2.7,3.7-2.3,5.3-0.3,6.6c2.1,1.1,2,0.7,3.5-1.9c0.9-1.7,1.5-3.5,2.4-4.5c6.1,2.7,11.2,4.7,16.1,6.6v-4.2
		c-3.7-1.4-7.3-2.7-10.8-4.2c4.3-0.4,7-1,10.2-4c0.2-0.2,0.4-0.4,0.6-0.6V302c-0.9-0.5-2.2-0.7-4-0.3c-0.1,0-0.3,0.1-0.4,0.1
		c1.3-0.9,2.8-1.9,4.4-3v-4.4c-0.1,0.1-0.1,0.1-0.3,0.2c-2,1.5-3.9,2.6-5.4,3c0.6-0.9,3.5-4.2,5.7-6.6v-5.8
		c-3.8,3.9-8.8,10.4-9.9,12.2c-1.7,2.9-3.3,5.3-4.9,6.6c-1.4,1.4-8.1,6-10.4,7.3c-2,1.1-10.3,1.3-7.3-4.5c2.7-5.3,7.6-7.7,10.3-7.6
		c2.2,0.1-5,5.5-0.7,5.7c1.5,0.1,7.1-3.1,7.7-6.5c0.6-4.1-4.8-3.9-7.8-3.2c-1.6,0.2-5.8,1.8-9.3,4.5c-1.3,1.1-2.4,2.2-3.7,3.5
		c0.1-0.8,0.1-2.1-0.1-2.8c-0.9-2.9-3.1-3.8-6-4c-0.1,0-0.3,0-0.4,0V299.5z M259.6,302.5c-1.8-0.6-1.2-2,0.6-2.9
		c0.2-0.1,0.5-0.1,0.8-0.1v-3.2c-3.6,0-6.5,2.2-8.7,3.9c-2.7,2.1-4.7,4.1-5.6,6c-0.9,1.9-1.4,4-1.2,5.3c0.5,1.7,0.9,2.7,1.6,3.9
		c-3.9-2.3-10.2-6.6-12-7.2c-1.8-0.6-4.8-1.4,0.5-3.5c5.3-2.1,17.9-8.1,20.7-12.8c2.9-4.8,2.3-13.7-11.6-13.5
		c-13.8,1-19.3,3-22.6,4.3c-3.2,1.3-17.8,7.6-11.7,9.4c2.7,0.7,13.7-6.3,24.7-7.8c4.2-0.6,9.3-1.3,13.3-0.3c4,1,8.4,2.4,2.3,7.4
		c-6,5-15,8.9-18.1,9.7c-3,0.6-5,2.2-3-2.7c2.2-5,3.5-7.7,0.8-8.4c-2.6-0.6-2.8,1.2-3.8,2.9c-1.1,1.7-3.8,8.4-4.5,9.3
		c-0.6,0.9-2.7,1.3-3.6,2.4c-0.8,1.2-0.9,3.3-0.2,3.7c-3.1,2.7-14.2,7.3-17.2,8.1c-1.4,0.4-3.7,0.9-5.5,0.9v6.2
		c2.7-0.3,5.7-1.5,7.8-2.6c2.5-1.4,9.6-5.3,13.9-7.7c-0.2,0.7-1,3-2.2,7c-1.4,4.6-0.6,4.7,1,5.5c1.7,0.9,3,1,4-3.4
		c1.1-4.4,3.6-10.7,4-11.4c0.6-0.9,1.3-2.1,4.5,0.1c3.2,2,18.9,9.9,23,12.5c4.2,2.5,4,2.7,4.8,3.2c0.8,0.4,1.9,1.4,3.1-0.9
		c1-2.3-0.2-3.5-1.9-4.2c-1.5-0.8-5.2-2.9-6-3.4c3.6-0.1,6.5-0.7,8.9-2.3v-7.6c-0.4,0.5-0.8,1.1-1.2,1.5c-1.6,1.8-3.8,3.5-6.8,3.5
		c-4.1,0-2.7-4.6-2-6.2c0.9-1.6,2.4-3.3,3.6-4.4c0.6,1.2,2.7,4,6.5,4v-3.5C260.6,303,260.1,302.8,259.6,302.5L259.6,302.5z
		 M195.9,310.5v-7c2.7-2.5,6.2-5,9.5-6.5c5.4-2.2,5.6,0,5.2,3.3c-0.5,3.2-6.3,10.2-9.2,10.1c-2.9-0.2,3.8-8.9,0.1-6
		C199.9,305.6,198.4,306.9,195.9,310.5L195.9,310.5z M195.9,294.1v-6c0.1,0,0.1-0.1,0.1-0.1c1.5-1,2.7-1,3.9,0.4
		c1.1,1.3,0.7,2.1-0.3,2.7c-0.9,0.6-1.9,1.5-3.5,2.8C196,294,196,294,195.9,294.1z M195.9,288.1v6c-1.6,1.2-2.7,0.6-3.9-0.4
		c-1.2-1.2-0.6-2.1-0.1-2.6C192.4,290.6,194.9,288.9,195.9,288.1L195.9,288.1z M195.9,303.5c-1.6,1.5-2.9,3.1-3.7,4.5
		c-2.2,3.7-4.8,6.1-6.5,7.2c-1.6,1-3.9,1.1-1.2-3.1c2.8-4.2,6.3-9.1,7.7-10.4c1.7-1.5,2.7-3,1.1-4.5c-1.7-1.5-2.4-1.7-3.6-0.3
		c0,0-8.4,10.2-10.4,14.1c-0.8,1.4-1.5,3-2,4.5c-0.1-2.4-1.9-4.7-3.8-6.6c-2.3-2.3-3-2.7-3-4.4c-0.1-1.5,2.4-4,4.7-4.4
		c4.3-0.7-2.9,3.5,0.1,5.2c2.3,1.3,7.6-4.1,6.3-8.1c-0.1-0.5-0.5-1-1.4-1.4c-0.9-0.4-2.3-0.7-4.2-0.4c-9.1,1.4-15.3,7.6-8.9,14
		c2.5,2.5,6.6,4.4,3.5,7.7c-2.7,2.7-10.5,3.5-7.1,0.2c1.8-1.7-1.6-5-4.5-1.7c-0.9-1.3-2.5-2.5-4.3-3.1c-2.4-0.9-4.5-1.4-4.2-3.6
		c1.2-6.6,9.1-7.3,5.6-4.5c-1.3,1.1-0.7,3.5,1.6,3c2.4-0.6,4.3-2.4,5.2-3.3c1.8-1.7,0.6-5.2-1.9-6c-3.3-0.9-6.6-0.1-11.7,3.7
		c-6.6,4.8-5.6,11.4-0.9,13c3.7,1.4,6.9,3.2,3.7,5c-1.1,0.6-5,2.1-4.8,0.6c0.3-2.9-2.4-2.9-4.8-1.2c0.3-0.8,0.5-0.9,0.7-1.7
		c-0.6-1.4-1.9-1.9-3.2-1.4c-2.3,3.5-11.4,8-3.9-1c2.2-2.7,4.5-5.5,2.4-6.3c-2.1-0.9-4.7,2.4-7.8,5.5c-2.4,3.3-6.1,6.1-8.1,7
		c-1.9,0.8-3.9-0.6-1.8-3.4c3-6,7.1-9.5,12.7-10.5c4.3-0.8,4.3,1.6,6.8,0.2c1.2-0.6,1.1-3.9-3.9-4.5c-11.1-1.2-18.4,9.5-21.4,15.5
		c-0.3,0.2-0.6,0.5-0.9,0.7v5.3c0.1-0.1,0.3-0.2,0.4-0.4c0,0,0.4,4.7,3.5,4.2c6.3-0.6,9.9-5.3,10.9-6.2c1.2-1,0.9,3,4.5,3
		c3.6,0.1,6.6-3,7.6-4c-0.2,1-0.9,4,1.9,5.1c2.7,1.1,6.6-0.1,10.1-1.4c1.7-0.6,3.2-1.7,4.4-3.2c0.9,1.9,3.1,3.4,5.8,3.1
		c4.5-0.5,10.1-2.2,12.6-5.2c0.4-0.5,0.8-1,1-1.5c-0.1,1.4,0.4,2.7,1.6,3.7c3,2.4,6.1-0.6,7.1-1c1.1-0.3,2.7-3.1,5.3,0.6
		c1.1,1.7,3,2.1,5.2,1.8v-6.2c-2.2,0-3.7-0.8-1.7-4c0.6-1,1.2-1.9,1.7-2.7V303.5L195.9,303.5z M114,309.2v-5.9
		c1.9-2,3.5-3.8,4.1-4.7c1.6-2.1,4-5,3-6c-0.9-1.2-1.6,0-2.2,0.4c-2.2,2.6-3.5,4.2-4.9,6.1v-6.5c1.7-2.2,3-3.7,3-3.7
		c5.5-6.1,11.5-4.6,10.6,1.9c-0.9,6.6-9.6,14.9-13.2,18.1C114.3,308.9,114.2,309,114,309.2z M114,292.5v6.5c-0.6,0.8-1.2,1.7-2,2.8
		c-1.2,1.9-4.7,6.1-5.3,9c2.1-2.2,4.9-5.1,7.3-7.6v5.9c-3.4,3-7.6,7.6-10.9,11.4c-2.4,4.5,0.3,6.2,4.4,3.5c1.2-0.8,4.1-2.7,6.6-4.6
		v5.3c-4.5,3.5-9.6,8.1-15.4,7.1c-2.2-0.4-2.8-2.5-2.6-5c-12.1,11.8-22.1,15.2-27.8,14.8c-20.5-1.4-8-29.9,4.1-41.7
		c5.5-5.3,18.6-16.1,25.9-15.6c3.7,0.2,6,2.7,6,7.2c0.1,9.6-16.6,26.9-24.4,27.7c-1.8,0.2-3.5-1.4-3.3-3.7c0.1-4.2,5.1-8.2,9.9-8.1
		c8.4-5.7,12.2-14.1,12.4-16.4c0-1.2-0.6-1.8-1.7-1.6c-1.1,0.3-8.2,0.1-22.8,17.9c-4.5,5.6-8,13.3-8.2,18.7
		c-0.2,5.1,1.8,8.2,6.3,8.5c6.7,0.5,18-7.4,24.9-13.2c1.8-4.3,5.3-11.1,8.1-16.4C107.7,300.9,111.4,295.9,114,292.5z"/>
	<path class="st3" d="M302.6,319.6v-4.2c6.5,2.4,13,4.8,19,7.8c4.2,2.4,1.4,5.8-0.1,5c-0.9-0.6-3.7-1.7-7.1-3.5
		C310.4,322.8,306.6,321.3,302.6,319.6L302.6,319.6z M302.6,306.6v-6.3C304.6,301.5,304.6,304.3,302.6,306.6L302.6,306.6z
		 M302.6,297.3v-4.5c2.7-1.9,4.5-3.6,5.3-4.7c0.8-1,0.5-5-2.8-1.4c0,0-1.2,1.2-2.5,2.7v-5.7c1.2-1.2,2.2-2.2,3-2.7
		c11-6.7,9.1,6.1,5.3,9.8C308.3,293.3,305.4,295.4,302.6,297.3z M302.6,283.7v5.7c-2.2,2.4-5.1,5.8-5.7,6.6c1.5-0.4,3.4-1.5,5.4-3
		c0.1-0.1,0.2-0.1,0.3-0.2v4.5c-1.6,1-3.1,1.9-4.4,2.9c0.1,0,0.2-0.1,0.4-0.1c1.8-0.4,3.1-0.2,4,0.3v6.3c-0.1,0.2-0.4,0.4-0.6,0.6
		c-2.9,2.6-5.3,3.5-8.9,3.8v-1.9c2.4-0.6,4.3-1.5,4.8-3c-0.1-0.9-0.9-1.2-2.2-0.9c-0.6,0.2-1.5,0.6-2.6,1.2v-11.2
		C294.8,292.8,299.2,287.2,302.6,283.7L302.6,283.7z M302.6,315.3v4.2c-3-1.2-6-2.4-9.4-3.8v-4C296.3,313,299.4,314.1,302.6,315.3z
		 M259.8,297.9c1.2,0.1,2.4,1.2,2.5,3.3c-0.4,0.2-1.3,0.6-2.5,0.3v3.5c0.4,0,0.9,0,1.3-0.1c-0.4,0.4-0.8,1-1.3,1.7v7.6
		c2-1.3,3.7-3.1,5.5-5.7c0,0,1.3,3.7,3.5,4.8c2.2,0.9,4.8,1.5,8.1,0c4-1.3,6.1-4,3.9-0.5c-2.7,3.7-2.3,5.3-0.3,6.6
		c2.1,1.1,2,0.7,3.5-1.9c0.9-1.7,1.5-3.5,2.4-4.5c2.4,1,4.5,1.9,6.6,2.8v-4c-0.4-0.2-0.9-0.4-1.4-0.6c0.5-0.1,0.9-0.1,1.4-0.1v-1.9
		c-1.3,0.4-2.7,0.6-4.2,0.9c-0.2-0.1-0.4-0.1-0.5-0.2c0.1-0.1,0.2-0.3,0.4-0.4c1.4-1.2,3-2.2,4.3-3v-11.2c-0.1,0.2-0.3,0.5-0.4,0.6
		c-1.7,2.9-3.3,5.3-4.9,6.6c-1.4,1.5-8.1,6-10.4,7.3c-2.1,1.1-10.4,1.3-7.4-4.5c2.7-5.3,7.6-7.7,10.3-7.6c2.2,0.1-5,5.5-0.7,5.7
		c1.5,0.1,7.1-3.1,7.7-6.5c0.6-4.1-4.7-3.9-7.8-3.2c-1.6,0.3-5.8,1.8-9.3,4.5c-1.3,1.1-2.4,2.2-3.7,3.6c0.1-0.9,0.1-2.2-0.1-2.9
		c-0.9-2.9-3.1-3.8-6-4c-0.1,0-0.3,0-0.4,0V297.9z M258.4,301c-1.8-0.7-1.2-2.1,0.6-3c0.2-0.1,0.5-0.1,0.8-0.1v-3.2
		c-3.6,0-6.5,2.2-8.7,4c-2.7,2-4.7,4-5.6,6c-0.9,1.9-1.4,4-1.2,5.3c0.5,1.7,0.9,2.7,1.6,3.9c-3.9-2.3-10.2-6.6-12-7.2
		c-1.8-0.6-4.8-1.4,0.5-3.5c5.3-2.1,17.9-8.1,20.7-12.8c2.9-4.8,2.3-13.7-11.6-13.5c-13.8,1.1-19.3,3-22.6,4.3
		c-3.2,1.3-17.8,7.6-11.7,9.4c2.7,0.7,13.7-6.3,24.7-7.8c4.2-0.6,9.3-1.3,13.3-0.3c4,1,8.4,2.4,2.3,7.4c-6,5-15,8.9-18.1,9.7
		c-3,0.6-5,2.2-3-2.7c2.2-5,3.5-7.7,0.8-8.4c-2.6-0.7-2.8,1.1-3.8,2.8c-1.1,1.7-3.8,8.4-4.5,9.3c-0.6,0.9-2.7,1.3-3.6,2.5
		c-0.8,1.2-0.9,3.2-0.2,3.7c-3.1,2.7-14.2,7.3-17.2,8.1c-1.4,0.4-3.7,0.9-5.5,0.9v6.3c2.7-0.4,5.7-1.6,7.8-2.7
		c2.5-1.4,9.6-5.3,13.9-7.7c-0.2,0.7-1,3-2.2,7c-1.4,4.6-0.6,4.7,1,5.5c1.7,0.9,3,1,4-3.4c1.1-4.4,3.6-10.7,4-11.4
		c0.6-0.9,1.3-2.1,4.5,0.1c3.2,2.1,18.9,9.9,23,12.5c4.2,2.5,4,2.7,4.8,3.2c0.8,0.4,1.9,1.4,3.1-0.9c1-2.3-0.2-3.5-1.9-4.2
		c-1.5-0.8-5.2-2.9-6-3.4c3.7-0.1,6.5-0.7,8.9-2.3v-7.6c-0.4,0.5-0.8,1.1-1.2,1.5c-1.6,1.8-3.8,3.5-6.8,3.5c-4.1,0-2.7-4.6-2-6.2
		c0.9-1.6,2.4-3.3,3.6-4.4c0.6,1.2,2.7,4,6.5,4v-3.5C259.4,301.5,258.9,301.2,258.4,301L258.4,301z M194.7,308.9v-7
		c2.7-2.5,6.2-5,9.5-6.4c5.4-2.3,5.6-0.1,5.2,3.2c-0.5,3.3-6.3,10.2-9.2,10.1c-2.9-0.2,3.8-8.9,0.1-6
		C198.7,304,197.2,305.3,194.7,308.9L194.7,308.9z M194.7,292.5v-6c0.1,0,0.1-0.1,0.1-0.1c1.5-1,2.7-1,3.9,0.4
		c1.1,1.3,0.7,2.1-0.3,2.7c-0.9,0.6-1.9,1.5-3.5,2.8C194.8,292.5,194.7,292.5,194.7,292.5z M194.7,286.5v6c-1.6,1.2-2.7,0.6-3.8-0.4
		c-1.3-1.2-0.6-2.1-0.1-2.6C191.2,289,193.7,287.3,194.7,286.5L194.7,286.5z M194.7,302c-1.6,1.5-2.9,3.1-3.7,4.5
		c-2.3,3.7-4.8,6.1-6.6,7.2c-1.6,1.1-3.9,1.1-1.2-3.1c2.8-4.2,6.3-9.1,7.7-10.4c1.7-1.5,2.7-3,1.1-4.5c-1.6-1.5-2.4-1.7-3.6-0.3
		c0,0-8.4,10.2-10.4,14.1c-0.8,1.5-1.5,3-2,4.5c-0.1-2.4-1.9-4.7-3.8-6.6c-2.3-2.3-3-2.7-3-4.4c-0.1-1.5,2.4-4,4.7-4.4
		c4.3-0.7-2.9,3.5,0.1,5.2c2.3,1.3,7.6-4.1,6.3-8.1c-0.1-0.5-0.5-1-1.4-1.4c-0.9-0.4-2.3-0.7-4.2-0.4c-9.1,1.4-15.3,7.6-8.9,14
		c2.5,2.5,6.6,4.4,3.5,7.7c-2.7,2.7-10.5,3.5-7.1,0.2c1.8-1.7-1.6-4.9-4.5-1.7c-0.9-1.3-2.5-2.5-4.3-3.1c-2.4-0.9-4.5-1.4-4.2-3.6
		c1.3-6.6,9.1-7.3,5.6-4.5c-1.3,1.1-0.7,3.5,1.6,3c2.4-0.6,4.3-2.4,5.2-3.3c1.8-1.7,0.6-5.2-1.9-6c-3.3-0.9-6.6-0.1-11.7,3.7
		c-6.6,4.8-5.6,11.4-0.9,13c3.7,1.4,6.9,3.2,3.7,5c-1.1,0.6-5,2.1-4.8,0.6c0.3-2.8-2.4-2.9-4.8-1.2c0.3-0.8,0.5-0.9,0.7-1.7
		c-0.6-1.4-1.9-1.9-3.2-1.4c-2.3,3.5-11.4,8-3.9-1c2.2-2.7,4.5-5.5,2.4-6.3c-2.1-0.9-4.7,2.4-7.8,5.5c-2.4,3.3-6.1,6.1-8.1,7
		c-1.9,0.8-3.9-0.6-1.8-3.4c3-6,7.1-9.5,12.7-10.5c4.3-0.8,4.3,1.6,6.8,0.2c1.2-0.6,1.1-3.9-3.9-4.5c-11.1-1.2-18.4,9.5-21.4,15.5
		c-0.1,0.1-0.4,0.4-0.6,0.5v5.3c0.1-0.1,0.1-0.1,0.2-0.1c0,0,0.4,4.7,3.5,4.2c6.3-0.6,9.9-5.3,10.9-6.3c1.2-1,0.9,3,4.5,3.1
		c3.6,0.1,6.6-3.1,7.6-4c-0.2,1.1-0.9,4,1.9,5.1c2.7,1.1,6.6-0.1,10.1-1.4c1.7-0.6,3.2-1.7,4.4-3.2c0.9,1.9,3.1,3.4,5.8,3.1
		c4.5-0.5,10.1-2.2,12.6-5.2c0.4-0.5,0.8-1,1-1.5c-0.1,1.4,0.4,2.7,1.6,3.7c3,2.4,6.1-0.6,7.2-1c1-0.3,2.6-3.1,5.2,0.6
		c1.2,1.7,3,2.1,5.2,1.9v-6.3c-2.2,0-3.7-0.8-1.7-4c0.6-1,1.2-1.9,1.7-2.7V302L194.7,302z M113.1,307.3v-5.5
		c1.8-2.1,3.2-3.9,3.8-4.8c1.6-2.1,4-5,3-6c-0.9-1.2-1.6,0-2.2,0.4c-2,2.4-3.3,3.9-4.6,5.6v-6.5c1.6-2,2.7-3.3,2.7-3.3
		c5.5-6.1,11.5-4.6,10.6,1.9C125.4,295.7,116.7,304,113.1,307.3C113.2,307.2,113.2,307.2,113.1,307.3z M113.1,290.5v6.5
		c-0.7,0.9-1.4,1.9-2.3,3.2c-1.2,1.9-4,6.4-4.7,9.4c2.2-2.3,4.8-5.3,7-7.8v5.5c-3.5,3.1-7.7,7.8-11.2,11.7c-2.4,4.5,0.3,6.2,4.4,3.5
		c1.2-0.8,4.4-2.9,6.8-4.8v5.3c-4.5,3.5-9.7,8.3-15.7,7.3c-2.2-0.4-2.8-2.5-2.6-5c-12.1,11.8-22.1,15.2-27.8,14.8
		c-20.5-1.4-8-29.9,4.1-41.7c5.5-5.3,18.6-16.1,25.9-15.6c3.7,0.2,6,2.7,6,7.2c0.1,9.6-16.6,26.9-24.4,27.7
		c-1.8,0.2-3.5-1.4-3.3-3.7c0.1-4.2,5.1-8.2,9.9-8.1c8.4-5.7,12.2-14,12.4-16.4c0-1.2-0.6-1.8-1.7-1.6c-1.1,0.3-8.2,0.1-22.8,17.9
		c-4.5,5.6-8,13.3-8.2,18.7c-0.2,5.1,1.8,8.2,6.3,8.6c6.7,0.4,18-7.5,24.9-13.3c1.8-4.3,5.3-11.1,8.1-16.4
		C106.5,299.2,110.5,293.9,113.1,290.5z"/>
	<path class="st3" d="M64.8,271.2c-0.3-0.1-0.6-0.3-0.9-0.4c-0.1-0.1-0.3-0.4-0.4-0.6c0-10.6,0-21.2,0-31.8c0-1.4,0.1-2.8,0.3-4.2
		c0-1.9-0.1-3.7-0.3-5.6c0-3.6,0-7.2,0-10.9c0-0.4,0.1-0.9,0.3-1.4c0.1-3.1,0.3-6.3,0.4-9.4c0.1-0.1,0.3-0.4,0.4-0.6
		c10.4,0,20.7,0,31.2,0c1,0.1,2,0.3,3,0.5c0.6,0.1,1.4,0.3,2.1,0.6c1.2,0,2.3,0,3.4,0.1c0.4-0.3,0.9-0.6,1.4-0.9
		c4.8,0,9.6,0,14.6,0.2c0.1,0.1,0.3,0.3,0.6,0.6c0.4,0,1,0,1.6,0.1c1.3-0.1,2.5-0.3,3.8-0.4c0.4-0.1,0.9-0.5,1.4-0.8
		c25.4,0,52.8,0,78.3,0c0.4,0-0.2,0.1,0.4,0.3c0.3,0-0.1-0.1,0.3-0.3c1.6,0,3.2,0,4.7,0c0.3,0,0.6,0.1,1,0.3
		c8.4,0,16.8-0.1,25.1-0.3c0.3,0.1,0.7,0.3,1.2,0.5c0.9-0.2,1.7-0.4,2.7-0.5c0.7,0.3,1.4,0.6,2.3,1.1c0.7,0,1.4,0,2.2,0
		c0.2-0.3,0.5-0.6,0.9-1.1c16.8,0,33.6,0,50.4,0c0.1,0,0.3,0.1,0.6,0.3c2.9,0,5.7,0,8.7,0c0.1,0.2,0.4,0.5,0.6,0.8
		c0.7,0,1.6,0,2.4-0.1c0.3,1.1,0.6,2.2,0.9,3.5c0.1,0.1,0.3,0.3,0.4,0.4c0.3,0,0.7,0,1.2,0.2c0.1-0.4,0.2-0.8,0.5-1.3
		c0-0.4-0.1-1.1-0.3-1.7c-0.2-0.1-0.6-0.3-1.1-0.6c0-0.2,0-0.4,0.1-0.5c0.8,0.1,1.7,0.5,2.7,0.8c0,0.6,0,1.2,0,1.9
		c-0.3,0.1-0.6,0.3-0.9,0.5c0,0.3,0,0.7-0.1,1.2c0.3,0.6,0.6,1.2,1,1.9c0,8.9,0,17.9,0.1,27c0,4,0,8.3-0.1,12.5c0,2.5,0,5,0.1,7.7
		c0,3.1,0,6.4-0.1,9.6c0,0.1-0.1,0.5-0.3,0.8c-0.1,0-0.3,0.1-0.6,0.3C230.5,271.2,147.8,271.2,64.8,271.2z"/>
	<path class="st2" d="M308.3,44.2c3.7,0,7.6,0,11.4,0c1.9,0,4.1-0.1,6.2-0.3c0.3,0,0.6,0.1,0.9,0.3c1.5,0,3.1,0.1,4.6,0.3
		c0,3.1,0,6.2,0,9.4c-0.3,0.9-0.5,1.9-0.9,3.1c0,0.9,0,1.7,0,2.5c0.1,0.6,0.3,1.2,0.6,1.8c0.1,0.1,0.2,0.3,0.4,0.6
		c0,1.2,0,2.4,0,3.7c-0.4,0.1-0.8,0.4-1.2,0.7c0,0.1,0,0.3-0.1,0.6c-0.3,0.1-0.6,0.3-0.9,0.4c-1.7,0-3.5,0-5.3,0.1
		c-3.8-0.1-7.6-0.3-11.6-0.6c-0.1,0.3-0.3,0.6-0.4,0.8c0,18.4,0,36.6,0,55.1c0,0.4,0.1,1,0.3,1.6c0.1,0.1,0.4,0.3,0.7,0.6
		c-0.1,0.4-0.4,0.9-0.7,1.5c0,0.4,0,0.9,0,1.4c0,0.1,0.1,0.4,0.3,0.6c0,1.2,0,2.3,0,3.4c0.3,0.6,0.6,1.2,0.9,1.9
		c0,0.7,0,1.5-0.1,2.4c-0.1,0.6-0.3,1.2-0.6,1.9c0,1.2,0,2.5-0.1,3.9c0,3.7,0,7.3,0.1,11.2c0,3.1,0,6.3-0.1,9.6c0,1-0.1,1.9-0.3,3.1
		c0,3.4,0,6.8,0,10.2c0,0.4,0.1,0.8,0.3,1.4c0,0.7,0,1.4,0,2.2c-0.1,0.8-0.3,1.8-0.6,2.8c0,5.2,0,10.3-0.1,15.6
		c-0.4,0.1-0.9,0.4-1.3,0.7c-0.1,0.3-0.3,0.5-0.4,0.9c-0.3,0.1-0.6,0.3-0.9,0.4c-0.2,0-0.5,0-0.8,0.1v-6c0.1,0,0.1-0.1,0.1-0.1
		c0.1-0.3,0.1-0.6,0-0.9c0-0.1-0.1-0.1-0.1-0.2v-4c0.1,0.1,0.1,0.1,0.2,0.1c0.1,0.2,0.1,0.5,0.1,0.8c0.1,0.1,0.1,0.1,0.1,0.2
		c0.1,0.1,0.2,0.1,0.4,0.1c0.1-0.1,0.2-0.3,0.4-0.4c0.1-0.3,0.1-0.6,0.1-0.9c0.1-0.2,0.1-0.4,0-0.7c0-0.1-0.1-0.1-0.1-0.3
		c-0.1,0-0.2-0.1-0.3-0.1c0-0.4,0-0.7,0-1.1c-0.1-0.1-0.1-0.1-0.1-0.2c-0.1-0.1-0.1-0.2-0.1-0.4c-0.1-0.2-0.4-0.4-0.6-0.6
		c0,0-0.1-0.1-0.1,0v-5.1c0.4-0.3,0.8-0.6,1.2-0.9c0.1-1.1,0.1-2.2,0.1-3.3c0-0.1-0.1-0.1-0.1-0.2c-0.2-0.1-0.5-0.2-0.7-0.4
		c0,0.1-0.1,0.1-0.2,0.3c-0.1,0-0.1,0-0.3-0.1v-0.2c0.1,0,0.1,0,0.2,0.1c0.1-0.1,0.1-0.1,0.1-0.1c0-0.1-0.1-0.2-0.1-0.3
		c-0.1,0-0.1-0.1-0.2-0.1l0,0v-0.1c0,0,0-0.1,0.1-0.1c0,0,0.1-0.1,0.1-0.1c0,0-0.1-0.1-0.1-0.1l0,0v-2.7v-0.1
		c0.1-0.1,0.1-0.1,0.1-0.2c0-0.1,0-0.2,0-0.4c0-0.1-0.1-0.1-0.1-0.1c0-0.1,0-0.3,0.1-0.5c0,0,0-0.1,0.1-0.1c0-0.1,0-0.2,0-0.3
		c0-0.1-0.1-0.2-0.1-0.3c0-0.1-0.1-0.1-0.1-0.1v-4.8c0.1,0,0.1,0.1,0.1,0.1c0.1-0.2,0.1-0.4,0.1-0.6c-0.1,0-0.1-0.1-0.2-0.1h-0.1
		v-2.2c0.1-0.1,0.1-0.1,0.2-0.3c0-0.1,0-0.1,0-0.3c0-0.1-0.1-0.1-0.1-0.2c0-0.2,0-0.4-0.1-0.5c0.1,0,0.1-0.1,0.1-0.1
		c0-0.3,0-0.6,0-1c-0.1-0.1-0.1-0.3-0.2-0.5c0,0,0,0,0-0.1V44.2z M307.9,44.2c0.1,0,0.3,0,0.4,0v114.7c-0.1,0-0.1-0.1-0.1-0.1
		c-0.1,0-0.2,0-0.3,0V44.2L307.9,44.2z M308.3,199.9c-0.1,0-0.3,0-0.4,0V194c0.1-0.1,0.2-0.1,0.4-0.1c0,0,0,0,0.1-0.1V199.9
		L308.3,199.9z M308.3,161.9v2.2c-0.1,0-0.1,0-0.1,0c-0.1,0-0.1,0.1-0.1,0.1c0.1,0.1,0.1,0.3,0.2,0.5c0,0,0,0,0.1,0v4.8
		c-0.1,0-0.1,0-0.1-0.1c0,0-0.1,0-0.2,0h-0.1v-4.8c0-0.1,0.1-0.1,0.1-0.1c0-0.1,0-0.1-0.1-0.2v-3.7c0,0,0.1,0,0.1-0.1
		c0.1,0.1,0.2,0.2,0.3,0.3c-0.1,0.2-0.1,0.4-0.1,0.6c0,0.1,0,0.2,0,0.4c0,0,0,0,0,0.1c0,0.1,0,0.1,0,0.3c0,0,0.1,0,0.1-0.1
		C308.3,162.1,308.3,162,308.3,161.9L308.3,161.9z M308.3,171.6v2.7c-0.1,0-0.1,0-0.1,0c0,0.1,0,0.1,0,0.2c0,0,0,0.1,0,0.1
		c0,0,0,0,0.1,0c0,0,0,0,0.1,0v0.1c0,0,0,0-0.1,0c0,0.1,0.1,0.3,0.1,0.4l0,0v0.2h-0.1c0,0.1-0.1,0.1-0.2,0.2
		c-0.1,0.1-0.1,0.2-0.1,0.3v-4c0.1-0.1,0.1-0.1,0.1-0.1C308.1,171.8,308.3,171.7,308.3,171.6L308.3,171.6z M308.3,180.1v5.1h-0.1
		c-0.1-0.1-0.2-0.2-0.4-0.4v-4.4C308.1,180.3,308.2,180.2,308.3,180.1L308.3,180.1z M308.3,188.6v4c-0.1-0.1-0.2-0.2-0.4-0.4
		c0-0.1-0.1-0.1-0.1-0.2v-3.7C308.1,188.4,308.2,188.6,308.3,188.6z M307.6,200c-0.1,0-0.2-0.1-0.3-0.1v-6c0.1,0.1,0.4,0.1,0.6,0.1
		v5.9C307.8,199.9,307.7,200,307.6,200L307.6,200z M307.3,44.2c0.1,0,0.4,0,0.6,0v114.6c-0.1,0-0.1,0-0.2,0
		c-0.1,0.1-0.2,0.3-0.4,0.5V44.2L307.3,44.2z M307.9,160.6v3.7c0-0.1,0-0.1-0.1-0.1c0,0-0.1,0-0.1,0c-0.1,0-0.1,0.1-0.3,0.2
		c0,0.1,0.1,0.1,0.1,0.3c0.1,0,0.1,0.1,0.3,0.1c0-0.1,0.1-0.1,0.1-0.1v4.8c-0.1,0.1-0.1,0.1-0.1,0.1c-0.1,0.2-0.2,0.4-0.3,0.6
		c-0.1,0.1-0.1,0.1-0.1,0.2V160C307.5,160.2,307.7,160.4,307.9,160.6L307.9,160.6L307.9,160.6z M307.9,172v4
		c-0.1,0.2-0.1,0.4-0.2,0.6c-0.1,0.5-0.3,1-0.4,1.5v-4.4l0,0c0.1,0.1,0.2,0.1,0.3,0.1c0,0,0.1-0.1,0.1-0.1c-0.1-0.1-0.1-0.2-0.3-0.4
		c0-0.1,0-0.1-0.1-0.1c0.1-0.1,0.1-0.1,0.1-0.1c0-0.3,0-0.6,0.1-0.9C307.6,172.1,307.8,172.1,307.9,172L307.9,172z M307.9,180.4v4.4
		c0-0.1-0.1-0.1-0.1-0.1c-0.1,0-0.3,0-0.4,0.1c0,0-0.1,0-0.1-0.1v-2.2c0.1-0.4,0.1-0.9,0.3-1.3C307.6,180.9,307.8,180.7,307.9,180.4
		C307.9,180.4,307.9,180.4,307.9,180.4L307.9,180.4z M307.9,188.3v3.7c0-0.1-0.1-0.3-0.1-0.4c0-0.4,0-0.8-0.1-1.2
		c-0.1,0-0.3,0-0.4,0v-2.2c0-0.1,0.1-0.1,0.1-0.1c0.1,0,0.1,0,0.3,0c0,0,0,0.1,0,0.1C307.8,188.3,307.8,188.3,307.9,188.3
		L307.9,188.3z M307.3,187.5v-1.4c0,0.1,0,0.1,0.1,0.1c0,0.1,0.1,0.2,0.1,0.3c0,0.2,0.1,0.4,0,0.6
		C307.6,187.3,307.5,187.4,307.3,187.5L307.3,187.5z M307.3,199.9c-0.2-0.1-0.4-0.1-0.6-0.2v-5.9c0.1,0,0.1,0.1,0.2,0
		c0.1,0,0.1,0.1,0.2,0.1c0.1,0,0.1,0,0.2,0V199.9L307.3,199.9z M306.7,44.2c0.2,0,0.4,0,0.6,0v115.1c-0.1,0.1-0.1,0.4-0.1,0.6
		c0,0,0,0.1,0.1,0.1v10.5c-0.1,0-0.1,0.1-0.1,0.1c-0.1-0.1-0.3-0.4-0.5-0.6c0.1-0.3,0.3-0.6,0.4-0.9c0,0-0.1-0.1-0.1-0.1
		c0-0.1,0-0.1,0.1-0.2c0,0-0.1-0.1-0.1-0.2c-0.1-0.1-0.1-0.1-0.1-0.2c-0.1-0.2-0.1-0.4-0.2-0.6c0-0.1,0.1-0.3,0.1-0.5
		c0.1-0.1,0.1-0.3,0.3-0.4c0-0.6,0.1-1.2,0.1-1.7c0-0.2,0-0.4-0.1-0.6c-0.1-0.1-0.3-0.3-0.4-0.4c-0.1-0.1-0.1-0.1-0.1-0.3l0,0v-18.2
		c0,0.1,0.1,0.1,0.1,0.1c0.1-0.1,0.1-0.1,0.2-0.3c0.1-0.2,0.1-0.5,0.1-0.7c0-0.1-0.1-0.2-0.1-0.4c-0.1-0.1-0.2-0.1-0.3-0.2V44.2
		L306.7,44.2z M307.3,173.7v4.4c-0.1,0.4-0.1,0.6-0.2,0.9c-0.1,0.4,0,0.9,0,1.4c0,0.2,0,0.4-0.1,0.6c-0.1,0-0.3-0.1-0.4-0.1v-0.4
		c0,0.1,0.1,0.1,0.1,0.1c0-0.1,0.1-0.2,0.1-0.4c0-0.1-0.1-0.1-0.1-0.2c-0.1-0.1-0.1-0.1-0.1-0.1v-2.8v-0.1c0-0.1,0-0.2,0-0.4
		c0,0,0-0.1,0-0.1V175c0,0,0,0,0.1,0c0.1-0.1,0.1-0.2,0.2-0.4c0.1-0.4,0.1-0.6,0.3-1.1C307.3,173.7,307.3,173.7,307.3,173.7
		L307.3,173.7z M307.3,182.4v2.2c-0.2,0-0.4-0.1-0.6-0.2c0,0,0-0.1-0.1-0.1l0,0v-1.6c0,0.1,0,0.1,0,0.1c0.1,0,0.2,0.1,0.4,0
		c0.1-0.1,0.1-0.1,0.2-0.2C307.3,182.6,307.3,182.5,307.3,182.4L307.3,182.4z M307.3,186.1v1.4c-0.1,0-0.1,0-0.1,0
		c0-0.1-0.1-0.1-0.1-0.1c-0.1-0.2-0.1-0.4-0.1-0.5c0-0.1,0-0.3,0-0.4c0.1-0.2,0.1-0.4,0.1-0.5C307.3,186,307.3,186,307.3,186.1
		C307.3,186.1,307.3,186.1,307.3,186.1L307.3,186.1z M307.3,188.2v2.2c-0.2-0.1-0.4-0.1-0.6-0.1v-1.7c0.1-0.1,0.1-0.1,0.3-0.1
		C307.1,188.5,307.2,188.3,307.3,188.2z M306.7,199.7c-0.1,0-0.2-0.1-0.3-0.1v-5.3l0,0c0.1-0.1,0.1-0.4,0.2-0.6c0,0,0,0,0.1,0V199.7
		L306.7,199.7z M306.4,44.2c0.1,0,0.1,0,0.3,0V144c-0.1-0.1-0.2-0.1-0.3-0.2V44.2L306.4,44.2z M306.7,145.5v18.2
		c-0.1,0-0.2,0-0.3-0.1v-18.2C306.5,145.4,306.5,145.5,306.7,145.5L306.7,145.5z M306.7,175v1.6h-0.1l0,0c0,0.1,0,0.4,0.1,0.6l0,0
		v2.8c-0.1-0.1-0.1-0.1-0.1-0.1s0,0-0.1,0.1c-0.1,0.1-0.1,0.3-0.1,0.4v-5.5c0,0,0,0,0,0.1C306.5,175,306.5,175,306.7,175L306.7,175z
		 M306.7,180.7v0.4c-0.1,0-0.2,0-0.3-0.1v-0.6c0,0.1,0,0.1,0.1,0.2C306.5,180.6,306.5,180.7,306.7,180.7L306.7,180.7z M306.7,182.7
		v1.6c-0.1,0-0.2-0.1-0.3-0.1v-2.1l0,0C306.5,182.4,306.5,182.5,306.7,182.7L306.7,182.7z M306.7,188.7v1.7
		c-0.1-0.1-0.2-0.1-0.3-0.1v-1.6C306.5,188.7,306.5,188.7,306.7,188.7L306.7,188.7z M306.4,174.1v-0.4c0,0.1,0.1,0.1,0.1,0.1
		c0,0.3-0.1,0.5-0.1,0.7C306.5,174.4,306.4,174.2,306.4,174.1L306.4,174.1L306.4,174.1z M306.4,166.4v-0.3l0,0
		c0.1-0.1,0.1-0.1,0.2-0.1c0,0.1,0,0.1,0,0.2C306.5,166.3,306.5,166.4,306.4,166.4C306.4,166.4,306.4,166.4,306.4,166.4z
		 M306.4,199.6c-0.1,0-0.1-0.1-0.2-0.1c-0.1,0-0.2-0.1-0.3-0.1v-4.9c0.1,0,0.1,0,0.2,0c0.1,0,0.1-0.1,0.3-0.1V199.6L306.4,199.6z
		 M305.9,44.2c0.1,0,0.3,0,0.5,0v99.6c-0.1,0-0.1,0-0.1,0s-0.1-0.1-0.1-0.1c-0.1,0-0.2,0-0.4-0.1V44.2L305.9,44.2z M306.4,145.4
		v18.2c-0.1,0-0.1,0-0.1,0c0,0-0.1,0.1-0.1,0.1c-0.1,0.1-0.1,0.1-0.1,0.2c0,0.1-0.1,0.4-0.1,0.5v-4.1c0,0,0.1,0.1,0.1,0.1
		c0.1,0,0.1-0.1,0.2-0.1c0-0.1,0-0.2,0-0.4c-0.1-0.1-0.1-0.2-0.2-0.3c0,0,0,0-0.1,0c0,0,0,0.1-0.1,0.1c0,0.2,0,0.4,0,0.6v-8.3
		c0-0.2,0.1-0.4,0.1-0.6c-0.1-0.1-0.1-0.2-0.1-0.3v-0.8c0.1,0,0.1,0.1,0.2,0.1c0-0.1,0-0.2,0-0.4c0,0-0.1-0.1-0.1-0.1
		c-0.1,0-0.1,0-0.1,0v-5.2c0.1,0.2,0.3,0.4,0.4,0.7C306.3,145.4,306.3,145.4,306.4,145.4L306.4,145.4z M306.4,166.1v0.3
		c-0.1,0-0.1,0-0.1-0.1c0,0,0-0.1,0-0.1C306.3,166.2,306.3,166.2,306.4,166.1L306.4,166.1z M306.4,173.7v0.4
		c-0.1-0.1-0.1-0.2-0.1-0.3C306.3,173.7,306.3,173.7,306.4,173.7C306.3,173.7,306.3,173.7,306.4,173.7L306.4,173.7z M306.4,174.9
		c-0.1-0.1-0.1-0.1-0.1-0.1c-0.1-0.4-0.1-0.9-0.1-1.3c0-0.1-0.1-0.2-0.1-0.3c-0.1,0-0.1-0.1-0.2-0.1v7.7c0,0.1,0.1,0.1,0.1,0.1
		c0.1,0.1,0.3,0.1,0.4,0.1v-0.6l0,0l0,0V174.9L306.4,174.9z M306.4,182.1v2.1c-0.2-0.1-0.4-0.1-0.5-0.2v-2.1
		C306,182,306.2,182.1,306.4,182.1L306.4,182.1z M306.4,188.7v1.6c-0.1,0-0.2,0-0.3,0c0-0.3,0.1-0.5,0.1-0.7
		c-0.1-0.3-0.1-0.5-0.3-0.8l-0.1-0.1v-1.1h0.1c0,0,0.1,0,0.2,0c0.1,0.1,0.1,0.3,0.1,0.4C306.3,188.3,306.3,188.5,306.4,188.7
		L306.4,188.7L306.4,188.7z M305.9,172.2v-0.5c0.1,0.1,0.1,0.1,0.1,0.1c0,0.1,0.1,0.2,0.1,0.3c0,0.1,0,0.1-0.1,0.1
		C306,172.2,306,172.2,305.9,172.2L305.9,172.2z M305.9,169.4v-1.2c0.1,0,0.1,0.1,0.2,0.1c0,0.3-0.1,0.5,0,0.8
		c-0.1,0-0.1,0.1-0.1,0.1C305.9,169.3,305.9,169.3,305.9,169.4L305.9,169.4z M305.9,166.6L305.9,166.6L305.9,166.6L305.9,166.6z
		 M305.9,199.4c-0.1-0.1-0.2-0.1-0.3-0.1v-4.8c0.1,0,0.2,0,0.3,0V199.4L305.9,199.4z M305.6,44.2c0.1,0,0.2,0,0.3,0v99.4
		c-0.1,0-0.1,0-0.1-0.1c-0.1,0.1-0.1,0.2-0.1,0.4V44.2L305.6,44.2z M305.9,144.7v5.2h-0.1c-0.1,0-0.1,0.1-0.1,0.1c0,0.1,0,0.2,0,0.4
		c0.1,0,0.1,0,0.2,0v0.8c0-0.1-0.1-0.1-0.1-0.2c-0.1-0.1-0.1-0.2-0.2-0.3l0,0v-6.8c0,0.1,0.1,0.1,0.1,0.1c0,0.1,0,0.2,0,0.4
		C305.8,144.5,305.8,144.6,305.9,144.7L305.9,144.7z M305.9,152.1v8.3v0.1l0,0v4.1c0,0.1-0.1,0.1-0.1,0.3c0,0,0,0-0.1,0.1
		c0,0-0.1,0-0.1,0v-11.6c0-0.1,0-0.1,0.1-0.1c0-0.3,0-0.5,0.1-0.8c0,0,0.1-0.1,0.1-0.2C305.9,152.1,305.9,152.1,305.9,152.1
		L305.9,152.1z M305.9,166.6L305.9,166.6c0,0.1-0.1,0.1-0.1,0.2c0,0-0.1,0-0.1,0.1c-0.1,0.1-0.1,0.1-0.1,0.1v-0.7
		c0.1,0,0.1,0.1,0.2,0.1C305.8,166.5,305.9,166.5,305.9,166.6L305.9,166.6z M305.9,168.3v1.2c0,0.1-0.1,0.2-0.1,0.3
		c-0.1,0.1-0.1,0.1-0.2,0.2c0,0.1,0,0.3,0,0.4v-2.2C305.7,168.1,305.8,168.2,305.9,168.3L305.9,168.3z M305.9,171.7v0.5
		c0,0,0,0-0.1,0c0,0.3,0,0.6,0,0.9c0,0,0,0,0.1,0.1v7.7c0,0-0.1-0.1-0.1-0.1c0-0.1-0.1-0.1-0.1-0.1v-3.5c0-0.1,0.1-0.2,0.1-0.4
		c0,0-0.1,0-0.1-0.1v-5.5c0,0.1,0,0.1,0,0.1c0.1,0.1,0.1,0.1,0.1,0.2C305.8,171.6,305.8,171.7,305.9,171.7L305.9,171.7z
		 M305.9,181.9v2.1c-0.1,0-0.1,0-0.1,0c-0.1-0.1-0.1-0.2-0.2-0.3l0,0v-2c0,0,0.1,0.1,0.1,0.1C305.8,181.9,305.8,181.9,305.9,181.9
		L305.9,181.9z M305.9,187.6v1.1c-0.1-0.1-0.1-0.1-0.2-0.3c0-0.1-0.1-0.1-0.1-0.2v-0.4C305.7,187.8,305.8,187.7,305.9,187.6z
		 M305.6,199.3c-0.1-0.1-0.1-0.1-0.2-0.1v-4.6c0.1,0,0.1,0,0.2,0V199.3L305.6,199.3z M305.4,44.2c0.1,0,0.1,0,0.2,0v99.6l0,0l0,0
		v6.8h-0.1c-0.1,0-0.1,0-0.1,0V44.2L305.4,44.2z M305.6,153.3v11.6c-0.1,0-0.1,0-0.1-0.1c-0.1,0-0.1,0-0.1-0.1c0-0.1,0-0.1,0-0.1
		v-11.1C305.5,153.4,305.5,153.3,305.6,153.3L305.6,153.3z M305.6,166.3v0.7c-0.1,0.1-0.1,0.1-0.1,0.1s-0.1,0.1-0.1,0.1
		c0,0,0,0,0,0.1v-1.1C305.5,166.3,305.5,166.3,305.6,166.3L305.6,166.3z M305.6,168.1v2.2c0,0.3-0.1,0.6-0.1,0.8
		c0,0.1,0.1,0.1,0.1,0.2v5.5c-0.1,0-0.1,0-0.1-0.1c-0.1,0.2,0,0.4,0,0.7c0-0.1,0-0.1,0.1-0.2v3.5c-0.1,0-0.1,0-0.2-0.1v-6.4
		c0-0.1,0-0.1,0.1-0.2c0-0.1,0-0.1,0-0.3l-0.1-0.1l0,0V168C305.5,168,305.5,168,305.6,168.1L305.6,168.1z M305.6,181.7v2
		c-0.1,0-0.1,0-0.2,0v-2.2C305.5,181.6,305.5,181.6,305.6,181.7L305.6,181.7z M305.6,187.8v0.4c-0.1-0.1-0.1-0.2-0.1-0.4
		C305.5,187.8,305.5,187.8,305.6,187.8z M305.4,199.1c-0.1-0.1-0.1-0.1-0.1-0.1v-4.6c0.1,0,0.1,0,0.1,0.1V199.1L305.4,199.1z
		 M305.3,44.2c0.1,0,0.1,0,0.1,0v106.5c-0.1,0-0.1,0-0.1,0V44.2L305.3,44.2z M305.4,153.5v11.1l0,0c-0.1,0-0.1,0-0.1,0.1v-4.4
		c0-0.1,0-0.1,0.1-0.2c-0.1-0.1-0.1-0.1-0.1-0.1v-6.4H305.4C305.3,153.6,305.3,153.6,305.4,153.5L305.4,153.5z M305.4,166.3v1.1
		c-0.1,0.1-0.1,0.4-0.1,0.6c0,0,0,0,0.1,0v5.7c-0.1,0-0.1,0-0.1,0c0,0.2,0,0.4-0.1,0.6l0.1,0.1c0,0,0-0.1,0.1-0.1v6.4
		c-0.1,0-0.1,0-0.1,0v-0.9h0.1c0-0.1,0-0.1-0.1-0.2v-13.3C305.3,166.2,305.3,166.2,305.4,166.3L305.4,166.3z M305.4,181.5v2.2
		c-0.1,0-0.1,0-0.1,0v-2.4C305.3,181.4,305.3,181.4,305.4,181.5z M305.3,199.1C305.3,199.1,305.3,199.1,305.3,199.1
		c-0.1-0.1-0.1-0.1-0.2-0.1v-4.5c0.1,0,0.1,0,0.2,0V199.1L305.3,199.1z M305,44.2c0.1,0,0.1,0,0.2,0v106.5c-0.1,0-0.1,0-0.2,0V44.2
		L305,44.2z M305.3,153.5v6.4c0-0.2-0.1-0.4-0.1-0.6c0,0,0,0-0.1,0v-6.2c0.1,0.1,0.1,0.2,0.1,0.3
		C305.2,153.4,305.2,153.5,305.3,153.5L305.3,153.5z M305.3,160.3v4.4l0,0c-0.1,0.2-0.1,0.4-0.2,0.7v-0.7c0.1,0,0.1-0.1,0.1-0.1
		c0-0.1,0-0.1-0.1-0.1v-3.4l0,0c0.1,0,0.1-0.1,0.1-0.1C305.3,160.8,305.3,160.5,305.3,160.3L305.3,160.3z M305.3,166.2v13.3
		c0-0.1-0.1-0.2-0.1-0.4c0,0,0,0-0.1,0V166l0.1,0.1C305.1,166.2,305.1,166.2,305.3,166.2C305.3,166.2,305.3,166.2,305.3,166.2
		L305.3,166.2z M305.3,179.8v0.9c0,0-0.1,0-0.1-0.1c0,0.2,0,0.5,0.1,0.8l0,0v2.4c-0.1,0-0.1-0.1-0.1-0.1c0,0.1,0,0.1-0.1,0.1v-4
		C305.1,179.8,305.2,179.8,305.3,179.8z M305,199L305,199l-0.1-4.5h0.1V199L305,199z M305,44.2L305,44.2l0.1,106.5l0,0
		c-0.1,0.2-0.1,0.5-0.1,0.7V44.2L305,44.2z M305,153.1v6.2H305v-7.5c0,0,0,0.1,0.1,0.1c-0.1,0.2-0.1,0.4-0.1,0.6
		C305,152.7,305,152.8,305,153.1L305,153.1z M305,161.1v3.4v-0.1c0,0-0.1-0.1-0.1-0.1v-3.5C305,160.8,305,161,305,161.1L305,161.1z
		 M305,164.7v0.7c0,0,0,0,0,0.1c0,0.1,0,0.2,0,0.4c0,0.1,0,0.1,0,0.2v13.2H305v-14.3C305,164.9,305,164.7,305,164.7L305,164.7z
		 M305,179.8v4c0,0.1-0.1,0.1-0.1,0.1L305,179.8L305,179.8z M305,199c-0.2-0.1-0.4-0.1-0.5-0.1v-4.5c0.1,0,0.3,0.1,0.5,0.1V199
		L305,199z M304.5,44.2c0.1,0,0.3,0,0.5,0v107.2c0,0.1,0,0.2,0,0.4l0,0v7.5c0,0-0.1,0-0.1,0.1c-0.1,0.1-0.1,0.1-0.2,0.3
		c0,0.1,0,0.3-0.1,0.4c0.1,0.3,0.2,0.5,0.4,0.7v3.5c-0.1-0.1-0.1-0.2-0.2-0.3c-0.1,0-0.1,0-0.2,0.1c-0.1,0.1-0.1,0.1-0.1,0.2v-1.1
		l0,0c0-0.1,0.1-0.3,0.1-0.4c0,0-0.1,0-0.1-0.1V44.2L304.5,44.2z M305,164.9v14.3c-0.1,0-0.1,0-0.1,0c0,0,0,0-0.1,0.1
		c0,0.1,0,0.3,0,0.4c0.1,0,0.1,0,0.1,0.1h0.1v4.1c-0.1,0.1-0.1,0.1-0.2,0.2c-0.1,0.2-0.1,0.4-0.1,0.6c-0.1,0.1-0.1,0.1-0.1,0.3v-2.4
		c0.1,0,0.1,0,0.2,0c0-0.1,0-0.1,0.1-0.2c-0.1-0.1-0.1-0.4-0.2-0.6c-0.1,0-0.1,0-0.1,0v-16.7l0.1,0.1
		C304.7,165.2,304.8,165,305,164.9L305,164.9z M304.5,198.9c-0.4-0.1-0.6-0.1-0.9-0.2v-4.4c0,0,0,0,0.1,0.1c0.3,0,0.6,0.1,0.9,0.1
		V198.9L304.5,198.9z M303.5,44.2c0.3,0,0.6,0,0.9,0v118.4h-0.1l0,0c-0.1,0.1-0.1,0.1-0.1,0.2c0,0.1,0.1,0.1,0.1,0.3c0,0,0,0,0.1,0
		v1.1c-0.1,0.1-0.1,0.2-0.2,0.4c0,0.2,0,0.4,0.1,0.5c0,0,0.1,0,0.1,0v16.7c-0.2,0-0.4-0.1-0.5-0.1c-0.1,0.1-0.1,0.2-0.3,0.4
		c0,0.1,0,0.2-0.1,0.4c0,0,0,0.1,0.1,0.2c0.2-0.1,0.5-0.1,0.8-0.1v2.4l0,0c-0.1,0.3-0.1,0.6-0.1,0.9c-0.1,0.4-0.3,0.9-0.4,1.2
		c0,0.2,0,0.4-0.1,0.7c0,0-0.1,0.1-0.1,0.1c-0.1,0.4-0.1,0.8-0.1,1.2c0.1,0.1,0.1,0.2,0.3,0.4c0,0.1,0,0.1,0,0.2
		c0.1,0.1,0.2,0.2,0.4,0.4c-0.1,0.1-0.1,0.2-0.2,0.4c-0.1,0.1-0.3,0.2-0.4,0.4c0,0.4,0,0.7-0.1,1.1c-0.1,0.2-0.1,0.4,0,0.7
		c-0.1,0-0.1,0-0.1,0.1v-7.5c0.1,0,0.2,0,0.3,0c0.1,0,0.1-0.1,0.2-0.1c0-0.1,0.1-0.1,0.1-0.2c0-0.1,0-0.1-0.1-0.2
		c0.1-0.1,0-0.1,0-0.3c0-0.1,0-0.4,0.1-0.5c-0.1-0.1-0.1-0.1-0.1-0.2c-0.1,0-0.1,0-0.1,0c-0.1,0.1-0.1,0.2-0.1,0.3
		c0,0.1,0,0.3,0,0.5c0,0-0.1,0.1-0.1,0.2h-0.1V44.2z M303.5,198.6L303.5,198.6c-0.3-0.1-0.6-0.1-1-0.1v-8.4c0.1-0.1,0.1-0.1,0.1-0.2
		c0,0,0-0.1-0.1-0.1v-4.5l0,0c0.2,0,0.4,0.1,0.6,0.1c0-0.1,0-0.1,0.1-0.1c0.1-0.1,0.1-0.1,0.1-0.1c0.1,0.1,0.1,0.1,0.2,0.1v7.5
		c-0.1,0-0.1,0.1-0.1,0.1c-0.1,0.1-0.1,0.2-0.2,0.4c-0.1,0.3-0.1,0.6-0.2,0.8c0.2,0.1,0.4,0.1,0.6,0.2V198.6L303.5,198.6z
		 M302.5,44.2c0.4,0,0.7,0,1,0v140.5l0,0c0,0,0-0.1,0-0.1c0-0.1,0-0.4,0-0.5c0-0.1,0-0.2-0.1-0.4c0,0,0,0-0.1-0.1
		c-0.1,0-0.2,0-0.4-0.1c-0.1,0.1-0.1,0.1-0.3,0.2c0,0.1,0,0.1-0.1,0.2c0,0-0.1,0-0.1,0.1v-1.2c0.1-0.1,0.2-0.2,0.3-0.3
		c0.2-0.1,0.4-0.1,0.6-0.1c0-0.1,0-0.4,0.1-0.6c-0.1-0.3-0.1-0.6-0.3-1c0-0.1,0-0.2,0-0.4c-0.1-0.1-0.1-0.2-0.2-0.3
		c-0.1,0-0.2,0-0.3-0.1c-0.1,0-0.1,0.1-0.1,0.1v-7.8c0.1,0,0.1,0.1,0.1,0.1c0.1-0.1,0.1-0.3,0.1-0.4c0.1-0.7,0.1-1.4,0.1-2.2
		c0.1-0.1,0.1-0.2,0.1-0.3c0-0.1,0-0.3,0-0.4c0-0.1-0.1-0.2-0.1-0.3c-0.1,0-0.2,0-0.3,0c0,0-0.1,0-0.1,0.1V44.2z M302.5,198.6
		c-1.4-0.1-2.8-0.1-4.2-0.2v-3.6c0,0,0,0,0.1,0c0,0,0.1-0.1,0.1-0.1c0-0.1,0.1-0.4,0.1-0.6c0.1,0,0.1-0.1,0.1-0.1
		c0.1-0.1,0.1-0.3,0.1-0.4c-0.1-0.1-0.1-0.2-0.2-0.4c-0.1,0-0.1,0-0.3-0.1c0,0,0,0,0,0.1V44.2c1.4,0,2.8,0,4.2,0V169c0,0,0,0-0.1,0
		c-0.1,0.5-0.3,1.1-0.5,1.6c0,0,0.1,0,0.1,0.1c-0.1,0.1-0.1,0.1,0,0.3c0.1,0.1,0.1,0.1,0.2,0.2c0.1,0.1,0.1,0.2,0.1,0.4
		c0,0.2,0,0.4,0,0.7c0.1,0.1,0.1,0.1,0.1,0.1v7.8c0,0.1-0.1,0.1-0.1,0.1c-0.1,0.2-0.1,0.4-0.3,0.7c0.1,0.1,0.1,0.3,0.1,0.4
		c-0.1,0.2-0.2,0.4-0.3,0.6c-0.1,0-0.2,0.1-0.3,0.1c-0.1,0.3-0.1,0.6-0.1,0.9c0,0,0.1,0.1,0.1,0.1c0.2-0.1,0.4-0.2,0.7-0.4
		c0.1,0,0.1,0,0.1,0v1.2l0,0c0-0.1,0-0.1,0-0.2c-0.1,0-0.2,0-0.4,0c0,0.1-0.1,0.2-0.1,0.4c0,0,0,0.1,0,0.2c0,0,0,0.1,0.1,0.1
		c0.1,0.1,0.1,0.1,0.2,0.3c0,0.1,0,0.2,0,0.3c0.1,0.1,0.1,0.1,0.2,0.2v4.5c0-0.1-0.1-0.1-0.1-0.1c-0.1,0-0.1,0-0.1-0.1
		c-0.1-0.1-0.2-0.4-0.4-0.5c0-0.4,0-0.7-0.1-1c0-0.1,0-0.1-0.1-0.2c0-0.1,0-0.2-0.1-0.4c0-0.1-0.1-0.3-0.1-0.4
		c-0.1-0.1-0.3-0.1-0.5-0.3c-0.1,0.1-0.3,0.2-0.5,0.4c-0.1,0.1-0.1,0.2-0.3,0.4c-0.1,0.1-0.1,0.4-0.2,0.6c-0.1,0.6-0.1,1.2-0.2,1.8
		c0,0,0.1,0,0.1,0.1c0,0.1,0,0.4,0.1,0.6c-0.3,0.1-0.5,0.1-0.8,0.2c0,0.1,0,0.1-0.1,0.2c0,0,0,0.1,0.1,0.1c0.2,0.4,0.5,0.9,0.8,1.4
		c0.1,0.1,0.3,0.1,0.4,0.2c0.1,0,0.1,0.1,0.1,0.3c0.1,0,0.2,0.1,0.4,0.3c0.1,0,0.2,0,0.4-0.1c0.1-0.3,0.3-0.6,0.4-1
		c0.1-0.1,0.1-0.2,0.1-0.4c0,0,0.1,0,0.1-0.1c0.1-0.3,0.1-0.6,0.3-0.9c0,0,0-0.1,0.1-0.1c0.1-0.2,0.1-0.4,0.1-0.6V198.6z
		 M298.3,198.3c-5.5-0.2-11-0.6-16.6-0.9c0-0.3-0.1-0.7-0.3-1.2c0-11.3,0-22.8,0-34.1c0-5.5-0.1-11-0.3-16.5c0-0.6,0.1-1.2,0.3-1.7
		c0-13.7,0-27.4,0.1-41c0-0.8,0.1-1.8,0.3-2.8c0.1-0.4,0.4-0.8,0.7-1.2c0-3,0-6,0-9.1c-0.3-1.4-0.6-3-1-4.5c0-5,0-10.3-0.1-15.5
		c-0.3-0.4-0.6-1-0.9-1.6c-0.8,0-1.8,0-2.8-0.1c-2.2,0-4.5,0-6.9,0.1c-0.4,0-0.8,0-1.4-0.1c-0.1-0.1-0.3-0.1-0.4-0.2V43.7
		c7.3,0.1,14.5,0.3,21.8,0.5c2.4,0,5,0,7.4,0V193c-0.1,0.1-0.3,0.4-0.5,0.6c0,0.2,0.1,0.4,0.1,0.6c0.1,0.1,0.1,0.3,0.2,0.4
		c0.1,0,0.1,0,0.2,0.1V198.3L298.3,198.3z M269,198.9c1.7-0.1,3.5,0,5.2,0c0.4-0.3,0.9-0.6,1.3-0.9c0.4-0.4,0.7-0.9,1-1.2
		c0.1-0.6,0.1-1.2,0.1-1.7c-0.8-5.1-1.5-10.1-2.2-15.2c-0.3-0.5-0.4-1.1-0.6-1.7c-0.4-3.1-0.8-6.2-1.1-9.1c-0.7-4-1.4-7.9-2-11.7
		c-0.3-3.7-0.6-7.4-0.8-11.1c-0.3-1.8-0.6-3.6-0.9-5.4V198.9z M269,67.9c-0.1-0.1-0.3-0.2-0.4-0.4c-0.6,0-1.2,0-1.7-0.1
		c-0.9,0-1.7,0-2.6,0.1c-0.1,0-0.1-0.1-0.3-0.1V43.6c1.7,0,3.3,0.1,5,0.1V67.9L269,67.9z M269,141v57.9c-1,0-2.1,0.1-3.1,0.1
		c-0.6,0-1.2,0-1.9,0v-2.2c0.1,0,0.2,0.1,0.3,0.1c0.7-0.1,1.4-0.1,2.2-0.1c0.1-0.1,0.3-0.3,0.3-0.4c0-0.3,0-0.6,0-0.8
		c-0.1-0.3-0.3-0.4-0.3-0.6c-0.6-0.3-1-0.6-1.4-0.7c-0.4-0.9-0.7-1.6-1-2.2v-85.8c0.3,2.4,0.6,4.7,1,7.1c0.1,0.7,0.3,1.4,0.6,2.2
		c0,0.8,0,1.7,0.1,2.5c0.1,0.8,0.3,1.8,0.6,2.8c0.3,2.5,0.6,5,0.8,7.6C267.8,132.5,268.4,136.8,269,141z M264.1,67.4
		c-0.6-0.4-1.4-0.9-2.1-1.4c-0.1-0.1-0.3-0.3-0.4-0.6v-2.7c0.1-0.5,0.2-0.9,0.3-1.4c0-3.5,0-7,0-10.5c0-2.2,0.1-4.2,0.3-6.3
		c0.6-0.3,1.2-0.6,1.7-0.9c0.1,0,0.2,0,0.3,0V67.4L264.1,67.4z M264.1,106.3V192l0,0c-0.6-0.3-1.4-0.6-2.1-0.9
		c-0.1-0.1-0.3-0.3-0.4-0.4v-6.9c0.1-0.1,0.1-0.1,0.1-0.3c-0.1,0-0.1-0.1-0.1-0.1v-2.2c0.1,0.1,0.1,0.1,0.1,0.1
		c0.4-0.3,0.9-0.6,1.2-0.7c0.3-0.4,0.6-0.7,0.7-1c0-0.5,0-0.9,0-1.4c-0.4-0.3-0.9-0.6-1.3-0.7c-0.1-0.4-0.1-0.9-0.1-1.2
		c0.4-0.5,0.7-0.9,1-1.4c0.4-0.3,0.6-0.6,0.9-0.9c-0.1-0.3-0.3-0.6-0.4-0.9c-0.6-0.1-1.2-0.2-1.7-0.4c-0.1,0-0.3,0.1-0.4,0.1V86.8
		c0.4,3.8,0.9,7.6,1.4,11.4c0.1,0.7,0.3,1.4,0.6,2.1c0,0.7,0,1.6,0.1,2.4C263.8,104,263.9,105.1,264.1,106.3L264.1,106.3z
		 M264.1,196.8v2.2c-0.8,0-1.7,0-2.5,0v-3c0.6,0.1,1.1,0.1,1.6,0.2C263.4,196.4,263.8,196.6,264.1,196.8z M261.5,65.4
		c0-0.6,0-1.2-0.1-1.9c0.1-0.3,0.1-0.5,0.1-0.7V65.4L261.5,65.4z M261.5,86.8c-0.1-1.2-0.3-2.5-0.4-3.7c-0.1-0.3-0.3-0.4-0.3-0.6
		c-0.3-2.8-0.5-5.5-0.8-8.2c-1.4-10-2.8-19.9-4.2-29.8c-0.9-0.1-1.7-0.3-2.5-0.3c-0.2-0.1-0.4-0.2-0.6-0.4v132.5c0.1,0,0.3,0,0.4,0
		c0,0.2,0,0.5,0,0.9c0.1,0.3,0.3,0.7,0.6,1.2c0,0.1,0,0.3,0,0.4c-0.1,0-0.3,0.1-0.6,0.3c0,0-0.1,0-0.3-0.1c-0.1-0.1-0.1-0.1-0.1-0.1
		v20c3,0.1,5.9,0.1,8.9,0.1v-3c-0.6-0.1-1.4-0.3-2.1-0.4c-0.1-0.9-0.3-1.9-0.6-2.9c-0.1,0-0.3-0.1-0.4-0.2c0-0.4-0.1-1-0.3-1.6
		c0.1,0,0.4,0,0.7,0c0.1-0.1,0.3-0.3,0.6-0.4c0.6,0,1.1,0,1.8,0.1c0.1,0.1,0.2,0.1,0.3,0.2v-6.9c-0.1,0.2-0.1,0.4-0.3,0.7
		c-0.3,0.3-0.7,0.6-1.1,0.9c0,0.1-0.1,0.3-0.3,0.6c-0.1,0-0.3,0-0.4,0c-0.4-0.1-0.9-0.3-1.4-0.4c-0.1-0.1-0.4-0.3-0.7-0.6
		c0-0.3,0-0.6-0.1-1c0.1-0.3,0.2-0.6,0.4-1c0.3,0,0.6-0.1,0.9-0.2c0.7,0,1.4,0,2.1,0.1c0.3,0.1,0.6,0.4,1,0.6v-2.2
		c-0.4-0.1-0.9-0.4-1.2-0.7c0,0,0-0.1-0.1-0.3c-0.4-0.1-0.9-0.4-1.3-0.6c-0.4,0-0.9-0.1-1.4-0.3c-0.1-0.1-0.2-0.3-0.4-0.4
		c0.1-0.1,0.2-0.4,0.4-0.7c0.6-0.3,1.2-0.7,1.7-1.2c0-0.6,0-1.2-0.1-1.9c0.1-0.3,0.3-0.6,0.4-1c0.4-0.3,1-0.6,1.5-0.9
		c0.2,0,0.4,0,0.6-0.1V86.8z M252.7,43.8v132.5c-0.4,0-0.6,0-1,0c0.1,0.4,0.1,0.8,0.1,1.1c-0.1,0.3-0.1,0.4-0.1,0.6
		c0.1,0.3,0.1,0.4,0.1,0.6c0.4,0.1,0.6,0.2,0.9,0.4v20c-0.6,0-1.2,0-1.7,0c-0.2,0-0.5-0.1-0.9-0.3c-0.3-0.1-0.7-0.4-1.2-0.7
		c-2,0-4-0.1-6.2-0.3v-73.2c0,0.1,0.1,0.1,0.1,0.1c0.1,0.2,0.4,0.4,0.5,0.6c0.2,0,0.4,0.1,0.6,0.1c0.1,0.1,0.1,0.1,0.1,0.1
		c0.1-0.1,0.2-0.1,0.3-0.1c0.1-0.1,0.2-0.2,0.3-0.4c0-0.2,0-0.4,0-0.6c-0.4-0.2-0.6-0.4-1-0.6c-0.3-0.1-0.6-0.3-0.9-0.4v-3
		c0,0.1,0.1,0.1,0.1,0.1c0.1,0,0.4,0,0.5,0c0.1-0.1,0.1-0.1,0.2-0.1c0.1-0.3,0.1-0.5,0.1-0.7c0.2-0.2,0.3-0.4,0.4-0.5
		c-0.1-0.5-0.1-1-0.1-1.5c-0.4,0-0.7,0-1.1,0c0,0-0.1,0-0.1,0.1v-3.5c0.2,0,0.4,0,0.6,0c0.1-0.4,0.1-0.9,0.1-1.3
		c-0.3-0.1-0.4-0.2-0.6-0.3c-0.1,0-0.1,0.1-0.1,0.1v-4.8c0-0.1,0.1-0.1,0.1-0.1c-0.1-0.2-0.1-0.4-0.1-0.5c0-0.1,0-0.1,0-0.1V62.6
		c0.6,0,1.2,0,1.7,0c0.1-0.3,0.1-0.4,0.1-0.6c-0.2-0.3-0.4-0.6-0.5-0.9c-0.3-0.9-0.6-1.9-0.9-2.8c-0.1-0.2-0.3-0.4-0.4-0.6V43.5
		c3.1,0,6.3,0,9.4,0.1C252.3,43.7,252.5,43.8,252.7,43.8z M242.7,43.5v14.3c-0.1-0.1-0.3-0.3-0.4-0.4c0-0.1-0.1-0.2-0.1-0.3v-6.6
		h0.1c0.1-0.4,0.3-0.9,0.3-1.2c0-0.4,0-0.9,0-1.2c-0.1-0.2-0.3-0.4-0.4-0.5v-4.2C242.3,43.5,242.5,43.5,242.7,43.5L242.7,43.5z
		 M242.7,62.6v44.6c-0.2-0.1-0.4-0.1-0.5-0.1V62.6C242.3,62.6,242.5,62.6,242.7,62.6L242.7,62.6z M242.7,107.8v4.8
		c-0.2,0.1-0.4,0.2-0.5,0.3v-5.1c0.1,0,0.1,0,0.2,0c0.1,0.1,0.1,0.1,0.1,0.1C242.6,107.8,242.6,107.8,242.7,107.8L242.7,107.8z
		 M242.7,114.1v3.5c-0.2,0-0.4,0.1-0.5,0.1v-2.1c0.1,0,0.1,0,0.1,0c0.1-0.4,0.1-0.8,0.1-1.2c-0.1-0.2-0.1-0.4-0.2-0.6l0,0v0.2
		c0,0,0.1,0.1,0.1,0.1C242.4,114.1,242.5,114.1,242.7,114.1L242.7,114.1z M242.7,120.2v3c-0.2-0.1-0.4-0.1-0.5-0.2v-3
		c0.1,0.1,0.1,0.1,0.2,0.2C242.5,120.2,242.5,120.2,242.7,120.2L242.7,120.2z M242.7,124.4v73.2c-0.1,0-0.2,0-0.3,0
		c-0.1-1.1-0.1-2.2-0.2-3.3v-70.6l0,0c0.1,0.2,0.1,0.4,0.3,0.6C242.5,124.3,242.6,124.4,242.7,124.4z M242.2,43.5v4.2
		c-0.1-0.2-0.3-0.4-0.4-0.5c-0.1-0.1-0.2-0.1-0.4-0.2v-3.5C241.7,43.5,242,43.5,242.2,43.5L242.2,43.5z M242.2,50.5v6.6
		c-0.1-0.4-0.2-0.6-0.2-0.9c-0.1-0.1-0.4-0.1-0.5-0.1v-5.6C241.7,50.5,242,50.5,242.2,50.5L242.2,50.5z M242.2,62.6v44.5
		c-0.1,0-0.2,0-0.4,0c-0.1,0.1-0.1,0.1-0.2,0.2c-0.1,0.1-0.1,0.3-0.1,0.4V62.6C241.7,62.6,242,62.6,242.2,62.6L242.2,62.6z
		 M242.2,107.8v5.1c-0.1,0.1-0.1,0.1-0.1,0.1c-0.1,0.3-0.1,0.5-0.1,0.7c0.1,0.1,0.2,0.1,0.3,0.3v-0.2c-0.1,0.1-0.1,0.1-0.2,0.1
		c-0.2,0.2-0.4,0.4-0.5,0.6v-1.7c0.1,0,0.1,0,0.2,0c0.1-0.2,0.1-0.4,0.1-0.6c-0.1,0.1-0.2,0.1-0.4,0.1v-4.3
		C241.7,107.8,242,107.8,242.2,107.8L242.2,107.8z M242.2,115.6v2.1c-0.2,0.1-0.4,0.1-0.6,0.1c0,0.3,0,0.5,0,0.7
		c0.2,0.4,0.3,0.7,0.4,1.1c0.1,0.1,0.2,0.2,0.3,0.3v3c-0.1-0.1-0.3-0.1-0.4-0.2c-0.1,0-0.3-0.1-0.4-0.1v-7c0.1,0,0.1,0,0.1,0
		C241.8,115.6,242,115.6,242.2,115.6L242.2,115.6z M242.2,123.8v70.6c-0.2-3.1-0.5-6.1-0.7-9.3v-61.7
		C241.7,123.5,242,123.6,242.2,123.8z M241.5,43.5v3.5c-0.1-0.1-0.2-0.1-0.3-0.2c-0.4,0-0.7,0-1.1,0v-3.2c0.1,0,0.2,0,0.4,0
		C240.8,43.5,241.1,43.5,241.5,43.5L241.5,43.5z M241.5,50.5v5.6c-0.2-0.1-0.5-0.1-0.7-0.1c-0.1,1.2-0.3,2.1-0.4,3.1
		c-0.1,0.1-0.1,0.3-0.2,0.4v-9.3c0.2,0.1,0.4,0.2,0.5,0.4C240.9,50.5,241.2,50.5,241.5,50.5L241.5,50.5z M241.5,62.6v45.1
		c0,0.1,0,0.1,0,0.2l0,0v4.3c-0.1,0-0.1,0-0.2,0c-0.1,0.2-0.1,0.4-0.1,0.6c0.1,0,0.3-0.1,0.4-0.1v1.7c-0.1,0.1-0.2,0.4-0.4,0.5
		c-0.1,0.2-0.1,0.4-0.1,0.6c0.2,0,0.3,0.1,0.4,0.1v7c-0.1-0.1-0.2-0.1-0.3-0.1c0.1,0.2,0.1,0.4,0.1,0.6c0.1,0.1,0.1,0.1,0.2,0.1V185
		c-0.4-5.6-0.9-11.2-1.4-16.8v-15.8c0.1,0,0.1,0,0.1,0s0,0-0.1,0V123c0.1,0,0.3,0,0.4,0c0.1-0.3,0.1-0.5,0.1-0.6
		c-0.1-0.1-0.2-0.2-0.3-0.3c-0.1-0.1-0.1-0.3-0.1-0.4c-0.1-0.1-0.1-0.1-0.1-0.1v-1c0.2-0.1,0.4-0.1,0.5-0.2
		c-0.1-0.2-0.1-0.4-0.1-0.5c-0.1-0.1-0.1-0.1-0.1-0.1c-0.1,0-0.1,0-0.3,0v-1.2c0.1,0,0.1,0,0.1,0c-0.1-0.1-0.1-0.3-0.1-0.4v-7
		c0.1,0,0.1,0,0.1,0c0.1-0.1,0.2-0.3,0.3-0.4c0.1-0.1,0.2-0.1,0.3-0.1c0-0.4,0-0.8,0-1.2c-0.3-0.1-0.4-0.2-0.6-0.3
		c-0.1,0-0.1,0-0.1,0V62.6C240.6,62.6,241,62.6,241.5,62.6z M240.1,43.5v3.2c-0.2,0-0.4,0-0.6,0c-0.1,0.1-0.2,0.1-0.4,0.2v-3.5
		C239.4,43.5,239.8,43.5,240.1,43.5L240.1,43.5z M240.1,50.2v9.3c0,0.1-0.1,0.3-0.1,0.4c-0.3,0.2-0.6,0.4-0.9,0.6V49.2
		c0.2,0.1,0.4,0.3,0.6,0.4c0.1,0.1,0.1,0.3,0.1,0.4C239.9,50,240,50.1,240.1,50.2L240.1,50.2z M240.1,62.6v46.7
		c-0.1,0.1-0.4,0.1-0.5,0.1c-0.1,0.1-0.4,0.3-0.4,0.4c0,0.1,0,0.1-0.1,0.2v-0.6c0.1-0.1,0.1-0.1,0.1-0.1c0.3-0.1,0.4-0.1,0.6-0.2
		c0.1-0.1,0.1-0.2,0.3-0.3c0-0.2,0-0.4,0-0.6c-0.3,0.1-0.5,0.1-0.8,0.1c-0.1,0.1-0.1,0.1-0.1,0.1s0,0-0.1,0v-6.8l0.1-0.1l-0.1-0.1
		V62.4c0.3,0.1,0.5,0.1,0.8,0.2C239.9,62.6,240,62.6,240.1,62.6L240.1,62.6z M240.1,111.2v7c0-0.3-0.1-0.5-0.1-0.8
		c-0.1-0.1-0.1-0.3-0.2-0.4c-0.1-0.1-0.2-0.1-0.4-0.1c-0.1,0.3-0.3,0.5-0.4,0.6v-2.4c0.1,0,0.3-0.1,0.4-0.1c0-0.2,0-0.4,0-0.5
		c-0.1-0.1-0.1-0.1-0.1-0.1c-0.1-0.1-0.2-0.2-0.3-0.4v-2.8C239.4,111.2,239.8,111.2,240.1,111.2L240.1,111.2z M240.1,118.6
		c0,0.1-0.1,0.1-0.1,0.1c-0.1,0-0.3,0-0.5,0c0,0-0.1,0-0.1,0c-0.1-0.3-0.1-0.6-0.2-0.9v4c0.3-0.1,0.5-0.2,0.8-0.3
		c0.1,0,0.1,0.1,0.2,0.1v-1c0,0.1-0.1,0.1-0.1,0.1c0,0,0,0-0.1-0.1c0,0-0.1,0-0.1-0.1c0-0.2,0-0.4-0.1-0.7c0.1,0,0.1-0.1,0.2-0.1
		c0.1,0,0.1,0,0.2,0V118.6L240.1,118.6z M240.1,123v29.4c-0.1-0.1-0.2-0.3-0.2-0.3c-0.3,0-0.5,0-0.8,0V123c0.1,0,0.3,0,0.4,0
		C239.7,123,239.9,123,240.1,123L240.1,123z M240.1,152.5v15.8c-0.1-2.2-0.4-4.3-0.5-6.5c-0.1-0.6-0.4-1.2-0.5-1.8v-6.8
		c0.2,0,0.4,0,0.6,0C239.9,152.9,240,152.7,240.1,152.5z M239.1,43.5v3.5c-0.1,0.1-0.3,0.1-0.4,0.2c-0.1,0.3-0.1,0.6-0.1,0.9
		c0.1,0.4,0.3,0.6,0.3,0.9c0.1,0.1,0.1,0.1,0.2,0.2v11.3c-0.2,0.2-0.5,0.4-0.8,0.5c-0.1,0.4-0.1,0.8-0.1,1.1
		c0.4,0.1,0.6,0.3,0.9,0.4v38.9c-0.1-0.1-0.1-0.2-0.1-0.4c-0.4-0.1-0.7-0.1-0.9-0.1c-0.4,0.1-0.9,0.3-1.3,0.3
		c-0.4,0.4-0.9,0.9-1.2,1.3c-0.4-4.5-0.7-9.1-0.9-13.5c0.1-5.8,0.2-11.6,0.4-17.4c-0.1-0.3-0.2-0.6-0.4-0.7c-0.1,0-0.1,0-0.1,0V43.5
		C236.1,43.5,237.6,43.5,239.1,43.5L239.1,43.5z M239.1,101.4c-0.2,0.3-0.5,0.5-0.8,0.8c-0.1,0-0.2,0-0.5,0.1
		c-0.1,0.1-0.4,0.3-0.7,0.5c0,0.1,0,0.3-0.1,0.4c-0.1,0-0.4,0-0.7,0c-0.1,0.1-0.4,0.3-0.7,0.4c0,5.1,0,10.2-0.1,15.2
		c0.1,1.3,0.3,2.6,0.4,3.8c0,0.7,0,1.4,0,2.3c0.7,0.8,1.4,1.8,2.2,2.8c0,0.1,0.1,0.4,0.2,0.6c-0.1,0-0.2,0.1-0.4,0.3
		c0,1-0.1,2-0.3,3.1c-0.1,0.1-0.3,0.3-0.6,0.4c0,0.9,0,1.7,0,2.5c0,0.4,0.1,0.9,0.3,1.4c-0.4,0-1,0-1.6,0.1c0-0.4,0-0.9-0.1-1.3
		c0.1-0.1,0.3-0.3,0.4-0.5c-0.4,0-0.9-0.1-1.3-0.1v3.7c0.1,0,0.2-0.1,0.3-0.1c0.4,0,0.9,0,1.4,0.1c0,0.1,0,0.3-0.1,0.6
		c-0.4,0-0.9,0-1.3,0.1c-0.1,0-0.2,0.1-0.3,0.2v18c1.2,0,2.4,0,3.7,0c0.3,0.9,0.6,1.9,0.8,2.8v-6.8c-0.2,0-0.5,0-0.8,0
		c0-0.1-0.1-0.3-0.2-0.6c0.2-0.1,0.5-0.3,0.9-0.4c0.1,0,0.1,0,0.1,0V123V123c-0.1-0.1-0.1-0.3-0.3-0.4c0-0.1,0-0.4,0.1-0.6
		c0-0.1,0.1-0.1,0.1-0.1v-4c0,0,0-0.1,0-0.1c0,0,0,0,0-0.1v-2.4c0,0.1-0.1,0.1-0.1,0.1s-0.1,0-0.1-0.1c0-0.1-0.1-0.1-0.1-0.3
		c0-0.3,0-0.6,0-0.9c0.1,0,0.1-0.1,0.2-0.1c0.1,0.1,0.1,0.2,0.1,0.3v-2.8c-0.1,0-0.1,0-0.2,0.1c0-0.4,0-0.7,0.1-1.1
		c0.1-0.1,0.1-0.2,0.1-0.3v-0.6c0,0.1-0.1,0.1-0.1,0.1c-0.1,0-0.3,0-0.6,0.1c-0.1,0-0.1,0.1-0.2,0.1c0.1-0.4,0.1-0.8,0.2-1.2
		c0.2-0.1,0.4-0.1,0.6-0.2V101.4z M234.6,43.5v27.2c-0.3-0.1-0.4-0.3-0.5-0.4c-0.1-0.9-0.3-1.7-0.4-2.4c-0.3-0.1-0.4-0.3-0.6-0.4
		c-0.1,0.1-0.3,0.1-0.4,0.1c-0.1,0.9-0.3,1.7-0.4,2.4c-0.1,3.1-0.3,6.2-0.4,9.1c-0.9,10.3-1.9,20.5-2.8,30.8
		c-0.3,1.3-0.4,2.5-0.6,3.7c-0.1,1.3-0.1,2.4-0.1,3.5c0.1,1.7,0.1,3.4,0.1,4.9c-0.1,0.9-0.1,1.7-0.1,2.4c-0.4,0.6-0.7,1.1-1,1.7
		c-0.1,0.7-0.3,1.3-0.3,1.9c0,1.5,0,3.1,0,4.5c0.3,0.4,0.6,0.9,0.9,1.3c0.5,0.1,0.9,0.3,1.4,0.4c1.8,0.1,3.6,0.2,5.3,0.2v3.7
		c-0.2,0-0.4,0-0.5,0c-0.4,0.3-0.9,0.6-1.3,0.7c0.6,0.1,1.2,0.3,1.7,0.3c0,0,0-0.1,0.1-0.1v18c-2.7,0-5.4,0-8.1,0
		c-0.1,0-0.3,0.1-0.4,0.2c-0.1,0.1-0.1,0.3-0.2,0.4v-8.4c0.4,0,0.7,0,0.9,0c0.1-0.1,0.3-0.3,0.3-0.4c-0.4,0-0.8,0-1.2,0V99.5
		c0.1,0.1,0.3,0.1,0.4,0.1c0.1-0.3,0.3-0.4,0.4-0.6c-0.1-0.9-0.1-1.6-0.1-2.3c-0.2,0.1-0.4,0.1-0.6,0.1V43.6
		C228.8,43.6,231.7,43.6,234.6,43.5z M225.8,43.6v53.2c-0.3,0-0.5,0-0.7,0c-0.1,0.6-0.3,1-0.3,1.4c0.1,0.4,0.3,0.9,0.3,1.2
		c0.2,0.1,0.5,0.1,0.7,0.1V149c-0.4,0-0.8,0-1.2,0c0.4,0.1,0.6,0.3,0.9,0.4c0.1,0,0.1,0,0.2,0v8.4c-0.2,0.4-0.4,0.9-0.6,1.3
		c-0.3,1.2-0.6,2.2-1,3.5c0,4.3,0,8.9-0.1,13.4c-0.1,0.4-0.3,0.8-0.6,1.4c0,1.3,0,2.7-0.1,4.1c0,1,0,2.1,0.1,3.2
		c-0.6,2.1-1.2,4.4-1.8,6.6c-0.3,0.7-0.6,1.4-1,2.1c-0.3,1.4-0.6,2.8-0.9,4.2c-0.7,0.3-1.4,0.6-2.1,0.9c-0.6,0-1.3,0-2-0.1V88.3
		c0.2,0,0.3,0,0.4,0c0.1-0.1,0.3-0.3,0.3-0.4c-0.1-0.3-0.3-0.4-0.3-0.6c-0.1-0.1-0.3-0.1-0.4-0.1V49.5c0.1-0.3,0.2-0.6,0.3-1
		c0.1-0.9,0.3-1.9,0.4-3.1c0.1-0.3,0.3-0.6,0.4-1.1c0.7,0,1.4,0,2.1-0.1c0.1-0.1,0.4-0.3,0.7-0.6C221.8,43.6,223.8,43.6,225.8,43.6z
		 M215.8,49.5v37.7c-0.1-0.1-0.2-0.1-0.2-0.1c-0.1,0.1-0.3,0.1-0.3,0.1c-0.1,0.1-0.1,0.3-0.1,0.4c0.1,0.3,0.1,0.4,0.1,0.6
		c0.2,0,0.4,0,0.5,0v110.2c-0.1-0.1-0.4-0.1-0.5-0.1c-0.3,0-0.7,0.1-1.2,0.3c-0.6-0.1-1.2-0.4-1.7-0.7c-0.4,0-0.6,0-0.9,0v-76.5
		c0.1,0,0.1,0,0.2,0c0.3-0.3,0.6-0.4,0.8-0.6c0.1-1,0.1-2,0.1-2.8c-0.4,0.1-0.8,0.1-1.2,0.1V72.7c1.5-10.9,2.9-19.9,4-21.9
		C215.6,50.4,215.7,50,215.8,49.5z M211.5,72.7v45.4c-0.4,0.1-0.9,0.1-1.2,0.1c0.1,0.8,0.1,1.7,0.1,2.5c0.1,0.1,0.3,0.3,0.3,0.4
		c0.3,0.1,0.6,0.1,0.8,0.1v76.5c-9.5,0-19,0-28.4,0v-23.6c1-0.1,1.9-0.1,3-0.3c2.8-0.1,5.7-0.3,8.6-0.4c0.1-0.1,0.4-0.3,0.7-0.5
		c0-0.1,0.1-0.4,0.3-0.7c0.1-2,0.3-4,0.6-5.9c0.1-0.6,0.2-1.2,0.4-1.7c0-1.1,0-2.4,0-3.7c0.3-0.6,0.6-1.2,1-1.9
		c0.1-1.7,0.4-3.4,0.7-5c0-6.5,0.7-9.2,2.5-16.8c0-0.6,0.1-1.2,0.3-1.7c0-3.2,0-6.5,0.1-9.9c0.6-1.4,1.3-2.8,1.9-4.2
		C206.1,114.5,209,90.9,211.5,72.7L211.5,72.7z M183.1,124.6c4.5,0.1,8.9,0.1,13.3,0.3c0.3-0.3,0.4-0.4,0.6-0.6
		c0.3-1.2,0.6-2.3,0.7-3.2c0-4.7,0-9.1,0-13.7c-0.3-1.9-0.4-3.8-0.6-5.6c-0.1-0.3-0.3-0.4-0.3-0.6c-0.8-0.3-1.7-0.6-2.4-0.7
		c-0.1-0.1-0.1-0.3-0.1-0.3c-0.7-0.3-1.4-0.6-2.1-0.6c-0.7,0.2-1.4,0.4-2.1,0.5c-2.4,0.2-4.8,0.4-7.1,0.5v13.1c0.2,0,0.5,0,0.7,0.1
		c0,0.6,0,1.3-0.1,1.9c-0.1,0.1-0.2,0.3-0.5,0.4c-0.1,0-0.1,0-0.1,0v3c0.1,0,0.3,0.1,0.5,0.1c0.1,0.1,0.2,0.3,0.4,0.6
		c0,0.1,0,0.3-0.1,0.4c-0.2,0-0.4,0-0.7,0V124.6L183.1,124.6z M183.1,65.4V43.8c5.5-0.1,10.8-0.1,15.8-0.1c0.9,0.3,1.7,0.6,2.5,0.9
		c0,6.9,0,13.8,0,20.7c-0.4,0.3-0.9,0.6-1.2,0.9c-1.9-0.1-3.7-0.3-5.5-0.6C191.5,65.4,187.3,65.4,183.1,65.4z M183.1,43.8v21.7
		c-2.1,0.1-4.2,0.1-6.1,0.1V52.8c0.4-0.1,0.6-0.1,1-0.1c0.3-0.2,0.4-0.5,0.6-0.6c-0.3-0.6-0.6-1.2-0.7-1.7c-0.3-0.1-0.4-0.3-0.6-0.4
		c-0.1,0-0.2,0-0.3,0v-6.1C179,43.8,181.1,43.8,183.1,43.8L183.1,43.8z M183.1,100.6v13.1c-0.4-0.1-0.9-0.1-1.2-0.1
		c-0.3,0.6-0.6,1-0.9,1.4c0,0.3,0,0.6,0,0.8c0.1,0.3,0.3,0.4,0.4,0.6c0.6-0.1,1.1-0.3,1.7-0.3v3c-0.3-0.1-0.5-0.1-0.6-0.1
		c-0.1,0.3-0.3,0.4-0.3,0.6c0.3,0.3,0.6,0.4,0.7,0.6c0.1,0,0.1,0,0.2,0v4.4c-2,0-4.1-0.1-6.1-0.1v-23.6c0.4,0,0.8,0,1.2,0
		C179.9,100.8,181.5,100.7,183.1,100.6L183.1,100.6z M183.1,174.3v23.6c-2.1,0-4.1,0-6.1,0v-23.2c0.2,0,0.4,0,0.5,0
		C179.4,174.7,181.3,174.5,183.1,174.3z M177,43.8v6.1c-0.6-0.1-1.1-0.1-1.5-0.1c0.1,0.9,0.1,1.7,0.1,2.4c0.1,0.3,0.2,0.5,0.2,0.8
		c0.4-0.1,0.8-0.1,1.2-0.1v12.7c-1,0-2,0-3,0v-9.4c0.1,0,0.1,0,0.1,0c0.1-0.1,0.4-0.3,0.5-0.4c0.1-0.2,0.1-0.4,0.1-0.5
		c0.1-0.4,0.1-0.8,0.1-1.1c-0.1-0.2-0.2-0.3-0.2-0.4c-0.2-0.1-0.4-0.1-0.6-0.2v-5.2c0.1,0,0.1-0.1,0.2-0.1c0.1-0.1,0.3-0.2,0.4-0.3
		c0.1-0.1,0.1-0.3,0.1-0.4c-0.1-0.1-0.1-0.1-0.1-0.1c-0.2-0.1-0.4-0.1-0.4-0.2c0,0,0,0-0.1,0v-3.4C175,43.8,176,43.8,177,43.8
		L177,43.8z M177,100.9v23.6c-1-0.1-2-0.1-3-0.1v-8.2c0.4-0.4,0.9-0.8,1.2-1.1c-0.1-0.3-0.3-0.4-0.4-0.6c-0.2,0.1-0.4,0.1-0.7,0.1
		v-13.8C175,100.9,176,100.9,177,100.9L177,100.9z M177,174.7v23.2c-1,0-2,0-3,0v-23.2C175,174.7,176,174.7,177,174.7z M174,43.8
		v3.4c-0.1-0.1-0.3-0.2-0.4-0.4c-0.3,0.1-0.5,0.1-0.7,0.1c-0.1,0.1-0.3,0.2-0.4,0.2c0,0.1,0,0.2-0.1,0.4v-3.7
		C173,43.8,173.5,43.8,174,43.8L174,43.8z M174,48.4v5.2c-0.1,0-0.2,0-0.4,0c-0.4,0-0.8,0-1.2,0v-1.9c0.2,0,0.4,0,0.6,0
		c0.3-0.3,0.6-0.6,0.7-0.7c-0.1-0.6-0.1-0.9-0.1-1.4c-0.4-0.1-0.8-0.1-1.2-0.1v-1.4c0.1,0.1,0.3,0.3,0.4,0.4
		C173.2,48.4,173.6,48.4,174,48.4L174,48.4z M174,56.1v9.4c-0.5,0.1-1.1,0.1-1.6,0.1v-9.2C173,56.3,173.5,56.1,174,56.1L174,56.1z
		 M174,100.9v13.8c-0.3,0.1-0.6,0.1-0.9,0.1c-0.1,0.6-0.1,0.9-0.1,1.4c0.1,0.1,0.1,0.1,0.1,0.1c0.4,0,0.7,0,0.9,0l0,0v8.2
		c-0.1,0-0.4,0-0.5,0c-0.4,0-0.7,0-1.1,0v-23.5C173,100.9,173.5,100.9,174,100.9L174,100.9z M174,174.7v23.2c-0.5,0-1,0-1.6,0v-23.2
		C173,174.7,173.5,174.7,174,174.7z M172.4,43.8v3.7c-0.1,0.1-0.1,0.4-0.1,0.5l0.1,0.1v1.4c-0.1,0-0.1,0-0.1,0
		c-0.3,0.1-0.6,0.3-0.9,0.3c-0.1,0.5-0.2,1.1-0.2,1.5c0.2,0.1,0.5,0.3,0.6,0.4c0.2,0,0.4,0,0.6,0v1.9c-0.1,0-0.1,0-0.2,0
		c-0.4-0.2-0.8-0.4-1.2-0.6c-0.1-0.3-0.1-0.5-0.1-0.7c-0.1-0.1-0.2-0.1-0.2-0.1c-0.2-0.6-0.3-1.2-0.4-1.8c-0.2-0.2-0.4-0.4-0.5-0.5
		c-0.3-0.1-0.5-0.1-0.7-0.3c-0.1,0-0.1,0.1-0.2,0.1v-5.8C170,43.8,171.2,43.8,172.4,43.8L172.4,43.8z M172.4,56.4v9.2
		c-0.3,0-0.6,0-0.9,0c0,11.3,0,22.7,0,34.1c0,0.4,0.1,0.9,0.3,1.3c0.2,0,0.4,0,0.6,0v23.5c-0.2,0-0.5,0.1-0.8,0.1
		c0,16.6,0,33.2-0.1,49.8c0.1,0,0.3,0.1,0.4,0.3c0.1,0,0.4,0,0.5,0v23.2c-1.2,0-2.4,0-3.6,0V55.4c0.5,0.1,1,0.2,1.4,0.3
		c0.3,0.3,0.4,0.6,0.6,0.8c0.4,0,0.7,0,1,0C172.1,56.4,172.3,56.4,172.4,56.4z M168.8,43.8v5.8c-0.6,0.1-1.2,0.1-1.7,0.1
		c-0.4,0.4-0.7,0.8-1,1.2c-0.3,0.2-0.6,0.4-0.8,0.5c-0.3,0.3-0.5,0.6-0.6,0.8c-0.4,0.1-0.7,0.3-1,0.4c-0.1,0.1-0.1,0.1-0.1,0.2v-3.2
		c0.1-0.1,0.4-0.1,0.6-0.3c0.1-0.1,0.1-0.2,0.1-0.3c-0.1-0.3-0.1-0.4-0.2-0.6c-0.2-0.1-0.4-0.2-0.4-0.3v-4.2
		C165.2,43.8,167,43.8,168.8,43.8L168.8,43.8z M168.8,55.4v142.5c-1.8,0-3.6,0-5.3,0V54.1c0.8,0,1.7,0,2.5,0
		c0.1,0.2,0.2,0.4,0.3,0.5c0.4,0.3,0.8,0.5,1.2,0.6c0.4,0,0.8,0,1.1,0C168.6,55.4,168.7,55.4,168.8,55.4z M163.5,43.8v4.2
		c-0.1,0-0.1,0-0.2-0.1c-0.1-0.3-0.1-0.6-0.1-0.9c-0.1-0.1-0.2-0.2-0.3-0.3c-0.4-0.1-0.6-0.1-0.9-0.1c-0.1,0-0.2-0.1-0.2-0.1
		c-0.5-0.1-1-0.1-1.4-0.1c-0.5,0-1.1,0-1.6,0v-2.6C160.4,43.9,161.9,43.8,163.5,43.8L163.5,43.8z M163.5,49.6
		c-0.1,0.1-0.3,0.1-0.4,0.2c-0.1,0-0.4,0-0.6,0.1c-0.2-0.1-0.4-0.3-0.6-0.4c-0.2-0.1-0.6-0.2-0.9-0.4c-0.1-0.1-0.1-0.2-0.2-0.4
		c0-0.1,0-0.3,0-0.5c-0.2-0.1-0.4-0.3-0.5-0.4c-0.4-0.1-0.9-0.1-1.4-0.3v2.3c0.3,0.1,0.6,0.1,0.9,0.1c0,0.3,0,0.6,0.1,1
		c-0.1,0-0.1,0.1-0.4,0.1c-0.2,0-0.4,0-0.6,0v146.8c1.6,0,3.1,0,4.7,0V54.1c-0.1,0-0.3,0-0.4,0c-0.1,0-0.2-0.1-0.3-0.2
		c0-0.1,0-0.4,0-0.6c0.2-0.1,0.4-0.4,0.7-0.5V49.6z M158.8,43.9v2.6c-0.2,0.1-0.5,0.1-0.8,0.1c-0.1,0.1-0.1,0.1-0.3,0.1
		c-0.2,0.1-0.4,0.1-0.6,0.1c-0.1,0.1-0.1,0.1-0.1,0.1c-0.6,0-1.2,0-1.8,0c-0.1,0.1-0.1,0.1-0.1,0.1c-0.4,0-0.6,0-0.9,0v-3.1
		C155.7,43.9,157.3,43.9,158.8,43.9L158.8,43.9z M158.8,47.5v2.3c0,0-0.1,0-0.1,0c-0.3,0.1-0.6,0.2-0.8,0.3c0.1,0.2,0.1,0.4,0.1,0.6
		c0.1,0.1,0.1,0.1,0.3,0.1c0.1,0.1,0.1,0.1,0.2,0.3c0.1,0,0.3,0,0.4,0v146.8c-1.5,0-3,0-4.6,0V57.1c0.5,0,1,0,1.5,0
		c0.1,0.1,0.3,0.1,0.4,0.1c0.2,0.2,0.4,0.4,0.6,0.6c0.1,0.1,0.4,0.1,0.5,0.1c0.1,0,0.2,0,0.2,0c0.1-0.1,0.2-0.3,0.3-0.4
		c0-0.4,0-0.6,0-0.9c-0.1-0.1-0.1-0.2-0.2-0.3c-0.2-0.1-0.4-0.1-0.4-0.2c-0.4-0.1-0.9-0.1-1.3-0.2c-0.5,0.1-1,0.1-1.5,0.1v-4
		c0.1,0,0.3,0,0.4,0c0.1-0.1,0.3-0.1,0.5-0.1c0.1-0.1,0.1-0.3,0.1-0.4c0.1-0.1,0.2-0.1,0.3-0.1c-0.3-0.2-0.6-0.4-0.8-0.6
		c-0.2,0-0.4,0-0.6,0v-0.4c0.2,0,0.4,0,0.5,0c0.1-0.1,0.4-0.1,0.4-0.1c0.1-0.1,0.1-0.1,0.1-0.2c0.1-0.1,0.2-0.1,0.4-0.1
		c-0.1-0.2-0.2-0.4-0.2-0.6c-0.1-0.1-0.2-0.1-0.3-0.2c-0.3-0.1-0.4-0.1-0.6-0.1c-0.1,0-0.1,0-0.2,0v-0.7c0.2,0,0.4,0,0.6,0
		c0.1-0.1,0.2-0.1,0.3-0.1c0.2,0,0.5,0.1,0.6,0.1c0.2,0.3,0.4,0.6,0.4,0.9c0.1,0,0.3,0,0.4,0c0.1-0.1,0.4-0.1,0.4-0.1
		c-0.1-0.1-0.2-0.2-0.3-0.3c0.1-0.1,0.2-0.3,0.3-0.4c0.2-0.1,0.5-0.2,0.7-0.3c0.2-0.1,0.4-0.3,0.6-0.4c0.1,0,0.2,0,0.3,0
		C158.7,47.5,158.7,47.5,158.8,47.5z M154.2,43.9V47l0,0c-0.2,0.1-0.4,0.1-0.4,0.1c0,0.4,0,0.7,0,1c0.1-0.1,0.3-0.1,0.4-0.1v0.7
		c-0.1,0-0.1,0-0.2,0c-0.1,0.1-0.1,0.1-0.2,0.1c-0.4,0.1-0.9,0.2-1.2,0.2c0.3,0.3,0.4,0.6,0.6,0.9c0.3,0.1,0.4,0.2,0.6,0.3
		c0.1,0,0.3,0,0.4,0v0.4c-0.1,0-0.3,0-0.4,0c-0.2,0.1-0.4,0.3-0.6,0.4c-0.1,0.1-0.1,0.1-0.1,0.2c-0.1,0.1-0.1,0.1-0.1,0.1
		c-0.1,0.2-0.1,0.4-0.1,0.5c0.3,0,0.6,0,0.8,0c0.2,0,0.4,0,0.6,0v4c-0.4,0-0.7,0-1.1,0c-0.5,0.2-1.1,0.4-1.7,0.5v-1.5
		c0.2-0.1,0.4-0.3,0.7-0.4c0.1-0.4,0.1-0.6,0.1-1c-0.4,0-0.6,0-0.8,0v-0.4c0-0.1,0.1-0.1,0.1-0.1c-0.1-0.3-0.1-0.4-0.1-0.6l0,0v-1.3
		c0.1,0,0.1,0,0.2,0c0.2-0.1,0.3-0.1,0.4-0.2c-0.1,0-0.1-0.1-0.1-0.1c-0.1,0-0.3,0-0.4,0v-6.9C152.3,43.9,153.3,43.9,154.2,43.9
		L154.2,43.9z M154.2,57.1v140.8c-0.9,0-1.8,0-2.7,0V58.2c0.1,0,0.3,0.1,0.4,0.1c0.2-0.1,0.5-0.1,0.6-0.1c0.1-0.1,0.2-0.1,0.3-0.2
		c0.1-0.1,0.1-0.3,0.1-0.4c0.4-0.2,0.6-0.4,0.9-0.5C154,57.2,154.1,57.2,154.2,57.1z M151.5,43.9v6.9c-0.1,0-0.2,0-0.3,0
		c-0.1,0.1-0.2,0.1-0.4,0.2c0.3,0,0.4,0.1,0.6,0.1v1.3c-0.1-0.1-0.1-0.2-0.1-0.2c-0.3-0.1-0.4-0.1-0.6-0.1c-0.1,0-0.2,0.1-0.3,0.1
		c0,0,0,0,0,0.1v-8.4C150.7,43.9,151.1,43.9,151.5,43.9L151.5,43.9z M151.5,53.1v0.4l0,0c-0.4,0.1-0.7,0.4-1,0.5v-0.7
		c0.2,0,0.4,0,0.5,0C151.2,53.3,151.3,53.2,151.5,53.1L151.5,53.1z M151.5,54.9v1.5c-0.1,0.1-0.2,0.1-0.4,0.1
		c-0.2,0.1-0.4,0.2-0.6,0.3v-1.6c0.2-0.1,0.4-0.1,0.6-0.1C151.2,55.1,151.3,55,151.5,54.9L151.5,54.9z M151.5,58.2v139.7
		c-0.4,0-0.7,0-1,0V57.8l0,0c0.1,0.1,0.2,0.2,0.3,0.2C151,58.1,151.2,58.2,151.5,58.2z M150.5,43.9v8.4c-0.2,0.3-0.4,0.6-0.5,0.8
		c0.1,0.1,0.4,0.2,0.4,0.3c0,0,0,0,0.1,0v0.7c-0.1,0-0.1,0.1-0.2,0.1c-0.2,0.1-0.4,0.1-0.5,0.1c-0.1,0.1-0.3,0.2-0.4,0.3v-0.4
		c0,0,0.1,0,0.1,0c0.1-0.1,0.3-0.1,0.4-0.2c-0.1-0.1-0.1-0.1-0.1-0.1c-0.1,0-0.3,0-0.4,0v-1.2c0.1,0,0.1,0,0.1,0
		c0.1-0.1,0.3-0.3,0.4-0.4c0-0.1,0-0.3,0-0.4c-0.1,0-0.2-0.1-0.2-0.1c-0.1-0.1-0.2-0.1-0.3-0.1v-3.5c0,0,0,0,0-0.1
		c0.1,0,0.2,0,0.3,0c-0.1-0.3-0.1-0.5-0.1-0.7c-0.1-0.1-0.1-0.2-0.2-0.3v-3.1C149.7,43.9,150.1,43.9,150.5,43.9L150.5,43.9z
		 M150.5,55.3v1.6c-0.1,0-0.1,0-0.1,0c-0.1,0.2-0.1,0.4-0.1,0.5c0.1,0.1,0.1,0.3,0.2,0.4l0,0v140.1c-0.4,0-0.7,0-1.1,0V55.4
		c0.1,0,0.1,0,0.3,0c0.1,0.1,0.2,0.1,0.2,0.1C150.1,55.4,150.2,55.4,150.5,55.3z M149.4,43.9V47h-0.1c-0.4,0-0.6,0-0.9,0
		c-0.2,0.1-0.5,0.1-0.6,0.1c0.1,0.5,0.1,1,0.1,1.4c0.2,0.3,0.4,0.4,0.6,0.6c0.1,0.1,0.1,0.1,0.3,0.1c0.1-0.1,0.1-0.1,0.1-0.1
		c0.1-0.1,0.1-0.2,0.3-0.3c0-0.2,0-0.4,0-0.5c0.1-0.1,0.2-0.2,0.3-0.4v3.5c-0.2,0-0.4,0-0.6,0c0,0.4,0,0.8,0,1.2
		c0.2-0.1,0.4-0.1,0.6-0.1v1.2c-0.2,0-0.4,0-0.5,0c0.1,0.1,0.2,0.2,0.2,0.4c0.1,0,0.2,0,0.3,0v0.4c-0.3,0.1-0.6,0.4-0.8,0.6
		c0.2,0.1,0.5,0.2,0.8,0.3v142.6c-0.6,0-1.2,0-1.9,0V58l0,0c0.1-0.1,0.2-0.3,0.3-0.4c0-0.1,0-0.3,0-0.4c0.1-0.1,0.1-0.1,0.1-0.1
		c0.1-0.2,0.2-0.4,0.3-0.6c-0.2-0.1-0.3-0.1-0.4-0.2c-0.1,0-0.2,0-0.4-0.1v-0.9c0.1,0,0.1,0,0.1,0c0.3-0.1,0.4-0.1,0.6-0.1
		c0-0.3,0-0.4,0-0.6c-0.3,0-0.5,0.1-0.7,0.1V43.8c0.5,0.1,1.1,0.1,1.6,0.1C149.2,43.9,149.3,43.9,149.4,43.9z M147.5,43.8v10.9
		c-0.2,0-0.4,0-0.6,0c0,0.2,0,0.4,0,0.6c0.2,0,0.4,0.1,0.6,0.1h0.1v0.9c-0.2,0-0.4-0.1-0.6-0.1c-0.1,0.2-0.1,0.4-0.1,0.6
		c0.1,0.3,0.1,0.6,0.2,0.9c0.1,0.1,0.2,0.3,0.3,0.4c0.1,0,0.1,0,0.1,0v139.9c-0.9,0-1.9,0-2.8,0V60.1c0.3,0,0.6,0,0.9,0
		c0.4-0.2,0.6-0.4,0.8-0.6c-0.1-0.2-0.2-0.4-0.2-0.6c-0.5-0.1-0.9-0.3-1.3-0.4c0.1-0.4,0.1-0.8,0.1-1.2c0.3-0.1,0.4-0.2,0.5-0.3
		c0.1-0.4,0.1-0.9,0.1-1.4c-0.4,0-0.6,0-0.9,0v-2.2c0.1,0.1,0.2,0.3,0.4,0.4c0.1,0.1,0.1,0.1,0.2,0.1c0.6-0.1,0.9-0.2,1.4-0.3
		c0.2-0.1,0.4-0.3,0.4-0.4c0.1-0.3,0.2-0.6,0.2-0.8c-0.1-0.3-0.1-0.4-0.1-0.6c-0.1-0.1-0.2-0.1-0.3-0.1c-0.6,0.1-1.2,0.1-1.7,0.1
		c-0.1,0.2-0.3,0.4-0.5,0.6v0.1v-4c0.2,0,0.4,0,0.6,0c0.2,0.1,0.3,0.1,0.4,0.1c0.1,0,0.2,0,0.3,0c0.2-0.2,0.4-0.4,0.6-0.5
		c-0.1-0.1-0.4-0.2-0.4-0.4c-0.2,0-0.4,0-0.6,0c-0.4-0.1-0.6-0.1-0.8-0.2v-4C145.6,43.6,146.6,43.7,147.5,43.8z M144.7,43.5v4h-0.1
		c-0.3,0.1-0.4,0.1-0.6,0.1c-0.1,0.1-0.2,0.1-0.3,0.3c0.3,0.2,0.5,0.4,0.7,0.6c0.1,0,0.1,0,0.2,0v4c-0.1,0.3-0.1,0.6-0.1,0.9
		c0,0.1,0.1,0.1,0.1,0.2v2.2c-0.1,0-0.3,0-0.4,0c-0.3,0-0.5,0.1-0.6,0.1c-0.1,0.3-0.1,0.5-0.1,0.7c-0.3,0.2-0.4,0.4-0.5,0.5
		c-0.1,0.2-0.1,0.4-0.1,0.6c0.1,0.8,0.1,1.7,0.1,2.4c0.5,0.1,1.1,0.1,1.6,0.1v137.8c-1.2,0-2.4,0-3.6,0c-0.3-0.4-0.6-0.9-1-1.4
		c0-0.3-0.1-0.6-0.3-0.8c0-3.2,0-6.4,0.1-9.8c0-3.1,0-6.3-0.1-9.6c0-0.6,0-1.2,0.1-1.7c0-0.1,0.1-0.4,0.3-0.7c0,0,0.1,0,0.3-0.1
		c0-12.5,0-25.2,0.1-37.9c-0.1-1.5-0.4-3.1-0.7-4.6c0.1-0.1,0.3-0.4,0.6-0.7c0-3.2,0-6.5,0.1-9.9c0-3.4,0-6.8-0.1-10.2
		c-0.1-2.1-0.4-4.2-0.7-6.3c0-0.3-0.1-0.6-0.3-1c0-0.4,0-0.9,0-1.5c0-0.3,0.1-0.6,0.3-1c0-14.6,0-29.3,0.1-43.9
		c0.1-4.2,0.4-8.5,0.7-12.7c0.4-0.3,0.9-0.6,1.3-1c0.4,0.1,0.9,0.3,1.5,0.4C143.9,43.5,144.3,43.5,144.7,43.5L144.7,43.5z
		 M100.5,197.5V176c0.4-0.1,0.6-0.1,0.9-0.1c0.9-0.6,1.7-1,2.4-1.4c0.4-0.4,0.7-0.9,1-1.2c0.4-1,0.7-2,1-3c0-12.4,0-24.8,0-37.2
		c-0.3-0.9-0.4-1.7-0.6-2.5c-0.6-0.7-1-1.4-1.4-2.1c-1.1-0.6-2.1-1-3.1-1.4c0,0-0.1,0-0.1,0v-21.4c1.1-0.4,2.1-0.8,3.1-1.2
		c0.4-0.6,0.9-1,1.2-1.4c0.4-1.2,0.7-2.5,1-3.7c0-9.7,0-19.4,0-29.2c-0.1-0.7-0.3-1.4-0.4-2.2c-0.3-0.6-0.6-1.4-0.9-1.9
		c-0.4-0.4-0.7-0.7-0.9-1c-0.7-0.4-1.4-0.7-2.2-0.9c-0.3-0.1-0.6-0.1-0.9-0.1V44.3c1.4,0,2.7,0,4.1,0c2.8,0.3,5.8,0.6,8.7,0.9
		c1.7,0.3,3.4,0.7,5.3,1.2c1.2,0.4,2.5,0.9,3.8,1.4c1.1,0.5,2.2,1.2,3.5,1.9c1.4,1,2.8,2.1,4.2,3.2c0.6,0.7,1.2,1.6,1.9,2.4
		c0.6,1.3,1.5,2.7,2.4,4.1c0.4,1.4,0.9,3,1.2,4.5c0.1,0.9,0.3,1.9,0.4,3c0,8.3,0,16.7,0,25.2c-0.1,1.4-0.3,2.8-0.4,4.2
		c-0.4,1.7-0.8,3.4-1.4,5.3c-0.6,1.1-1.3,2.2-1.9,3.5c-0.6,0.7-1.2,1.4-1.9,2.2c-0.9,0.6-1.7,1.3-2.5,1.9c-1,0.6-1.9,1.2-3,1.9
		c-1.7,0.7-3.5,1.4-5.4,2.2c-2.1,0.6-4.3,1.2-6.6,1.7c0,0.3,0,0.5-0.1,0.9c2.7,0.6,5.5,1.2,8.3,1.7c0.9,0.3,1.7,0.6,2.7,0.9
		c0.9,0.4,1.9,0.9,2.8,1.4c0.9,0.6,1.7,1.2,2.6,1.8c0.5,0.6,1.1,1.3,1.8,2c0.6,0.9,1.3,1.7,1.9,2.7c0.4,0.9,0.9,1.8,1.4,2.8
		c0.4,1.6,0.9,3.1,1.2,4.7c0.1,1.1,0.3,2.2,0.4,3.4c0,10.5,0,21.1,0,31.7c-0.1,1.4-0.3,3-0.4,4.5c-0.4,2-0.8,4-1.4,6
		c-0.6,1.4-1.3,3-1.9,4.5c-0.4,0.7-0.9,1.4-1.4,2.2c0,0.1,0,0.3-0.1,0.6c-1.2,1.2-2.2,2.2-3.4,3.5c-0.9,0.6-1.7,1.2-2.5,1.9
		c-1.3,0.5-2.5,1.1-3.8,1.8c-1.8,0.6-3.7,1.2-5.5,1.8c-2.8,0.4-5.6,0.9-8.5,1.4C104.8,197.5,102.6,197.5,100.5,197.5z M100.5,44.3
		v19.6c-0.9-0.1-1.8-0.2-2.7-0.3c-0.8,0.1-1.7,0.1-2.4,0.1c-0.1,0.1-0.1,0.3-0.1,0.4c0.1,13.9,0.1,27.7,0.1,41.5
		c1,0.1,1.9,0.1,2.8,0.1c0.7-0.1,1.4-0.1,2-0.1c0.1-0.1,0.1-0.1,0.2-0.1V127c-1.7-0.1-3.4-0.1-5-0.1c-0.1,0.1-0.1,0.3-0.1,0.3
		c0.1,16.3,0.1,32.7,0.1,49c1.6,0,3.1,0,4.5,0c0.1-0.1,0.4-0.1,0.5-0.1v21.5c-7.6,0-15.1,0-22.8,0.1V88.6c0.2,0,0.4,0,0.6,0
		c0.1,0.2,0.1,0.3,0.1,0.4c0.1,0.1,0.4,0.1,0.4,0.1c0.3,0,0.4,0,0.6,0c0.1-0.1,0.4-0.2,0.4-0.3c-0.1-0.4-0.2-0.7-0.2-1
		c-0.1-0.2-0.2-0.4-0.4-0.6c-0.3-0.2-0.6-0.4-0.9-0.6c-0.2,0-0.4-0.1-0.7-0.1V62.1c0.1-0.1,0.1-0.1,0.2-0.2c0-0.1,0-0.4,0-0.4
		c-0.1-0.1-0.2-0.1-0.2-0.1v-3.7c0.3-0.3,0.5-0.6,0.7-0.8c-0.1-0.2-0.3-0.4-0.4-0.6c-0.1,0-0.2,0-0.4,0v-12
		C85.3,44.3,92.9,44.3,100.5,44.3z M77.7,44.3v12c-0.1,0-0.2,0-0.4,0c-0.1,0.2-0.1,0.3-0.2,0.4c-0.1,0.4-0.1,0.7-0.1,1.1
		c0.1,0.1,0.1,0.1,0.1,0.1c0.1,0,0.4,0,0.4,0c0.1,0,0.1-0.1,0.1-0.1v3.7c-0.1-0.3-0.1-0.4-0.2-0.6c-0.2-0.1-0.4-0.1-0.4-0.2
		c-0.1-0.2-0.2-0.3-0.2-0.4c-0.1-0.1-0.2-0.1-0.4-0.1l0,0V44.3C76.9,44.3,77.3,44.3,77.7,44.3L77.7,44.3z M77.7,62.1v24.4
		c-0.2,0-0.4-0.1-0.6-0.1c-0.2-0.2-0.3-0.3-0.4-0.4c-0.1-0.3-0.1-0.4-0.3-0.6l0,0v-2l0,0c0.3-0.2,0.4-0.5,0.6-0.6
		c-0.1-0.2-0.2-0.3-0.2-0.4c-0.1-0.1-0.3-0.1-0.4-0.1V62.9c0-0.1,0.1-0.1,0.1-0.1c0.3-0.1,0.6-0.3,0.9-0.5
		C77.7,62.2,77.7,62.1,77.7,62.1L77.7,62.1z M77.7,88.6v108.9c-0.4,0-0.8,0-1.2,0V89c0.2-0.1,0.4-0.2,0.6-0.3
		C77.4,88.7,77.6,88.6,77.7,88.6z M76.5,44.3v15.8c-0.2,0.1-0.4,0.1-0.4,0.1c-0.1,0.7-0.1,1.4-0.2,2.1c-0.2,0.2-0.3,0.4-0.4,0.4
		c-0.3,0.1-0.6,0.2-0.7,0.2c-0.4-0.2-0.6-0.3-0.9-0.4h-0.1V44.3C74.7,44.3,75.6,44.3,76.5,44.3L76.5,44.3z M76.5,62.9v19.4
		c-0.1,0-0.1,0-0.2,0c-0.1,0.1-0.2,0.1-0.3,0.1c-0.1,0.2-0.1,0.4-0.1,0.6c0.1,0.2,0.1,0.3,0.2,0.4c0.1,0.1,0.3,0.1,0.4,0.1v2
		c-0.3-0.1-0.4-0.2-0.6-0.3c-0.1-0.1-0.1-0.2-0.1-0.3c-0.3-0.1-0.5-0.1-0.6-0.1c-0.5,0.1-0.9,0.2-1.4,0.4v-7.8c0.1,0,0.2,0,0.3,0
		c0.3-0.4,0.6-0.6,0.8-0.9c0.2-0.1,0.4-0.2,0.6-0.2c0.1-0.1,0.4-0.3,0.5-0.5c-0.1-0.4-0.1-0.6-0.1-0.9c-0.4-0.4-0.7-0.7-1-1.1
		c0.1-0.4,0.2-0.9,0.2-1.3c0.1-0.1,0.1-0.1,0.2-0.2c-0.1-0.3-0.3-0.6-0.4-0.8c-0.2-0.3-0.5-0.5-0.8-0.6c-0.1,0.1-0.1,0.1-0.3,0.1V68
		c0.2,0.1,0.4,0.2,0.6,0.3c0.3-0.1,0.4-0.1,0.6-0.1c0.1-0.3,0.1-0.4,0.2-0.6c0.1-0.1,0.2-0.1,0.2-0.1c0.1-0.4,0.1-0.6,0.3-0.9
		c0.1-0.2,0.2-0.3,0.3-0.4c0-0.4,0-0.8,0-1.2c-0.2-0.2-0.4-0.4-0.6-0.6c0-0.1,0-0.2,0-0.3c0.1-0.1,0.1-0.1,0.3-0.3
		c0.1-0.2,0.1-0.4,0.1-0.6C76.1,63.2,76.3,63.1,76.5,62.9L76.5,62.9z M76.5,89v108.6c-0.9,0-1.8,0-2.7,0V104c0.1,0,0.3,0,0.3,0
		c0.2-0.1,0.3-0.4,0.4-0.4c-0.2-0.1-0.4-0.2-0.6-0.4V92.3c0.1,0.1,0.2,0.1,0.3,0.2c0.5,0.1,0.8,0.1,1.2,0.1c0.2-0.1,0.4-0.3,0.6-0.4
		c0-0.1,0-0.4,0-0.5c-0.1-0.1-0.2-0.4-0.2-0.4c-0.5-0.1-1-0.1-1.5-0.1c-0.1,0.1-0.1,0.3-0.3,0.4v-1.9c0.1-0.1,0.2-0.1,0.3-0.1
		c0.1-0.1,0.2-0.1,0.2-0.1c0.4-0.1,0.8-0.2,1.2-0.3C75.9,89.2,76.1,89.1,76.5,89L76.5,89z M73.8,87.7v-1c0.1,0,0.4,0,0.5,0
		c0.1-0.1,0.1-0.1,0.1-0.1c0.1,0,0.2,0,0.3,0c0.1,0.1,0.1,0.1,0.1,0.3c-0.1,0.1-0.1,0.2-0.1,0.4C74.4,87.4,74.1,87.6,73.8,87.7
		L73.8,87.7z M73.8,44.3v18.2c-0.3-0.1-0.6-0.1-1-0.1c-0.4,0.3-0.6,0.6-0.9,1c-0.3,0.1-0.5,0.2-0.7,0.3c-0.2,0-0.4,0-0.6,0
		c-0.1,0-0.1-0.1-0.1-0.1v-6.5c0.3,0.1,0.6,0.1,0.9,0.1c0.2-0.4,0.4-0.7,0.6-1.1c0-0.2,0-0.5,0-0.7c-0.2-0.2-0.4-0.5-0.6-0.8
		c-0.4,0-0.6,0-0.9,0V44.3C71.6,44.3,72.8,44.3,73.8,44.3L73.8,44.3z M73.8,68v2.8c-0.1,0-0.3,0-0.4,0c-0.1,0.2-0.2,0.4-0.3,0.4
		c0.1,0.2,0.1,0.4,0.1,0.4c-0.1,0.2-0.1,0.3-0.1,0.4c-0.1-0.1-0.4-0.1-0.4-0.1c-0.1-0.4-0.1-0.7-0.3-1.1c0-0.2,0-0.5,0-0.6
		c0.1-0.1,0.2-0.2,0.2-0.2c0.1-0.4,0.1-0.6,0.2-0.9c-0.1-0.4-0.1-0.9-0.1-1.3c-0.1-0.3-0.1-0.4-0.2-0.6c0.1-0.1,0.1-0.1,0.2-0.1
		c0.3,0.1,0.4,0.4,0.6,0.4c0.1,0.1,0.1,0.4,0.2,0.4C73.8,68,73.8,68,73.8,68L73.8,68z M73.8,77.3v7.8c-0.1,0-0.4,0.1-0.6,0.1
		c-0.1-0.1-0.2-0.1-0.4-0.1c-0.1,0.1-0.2,0.1-0.3,0.1c-0.1,0.1-0.2,0.3-0.3,0.4c0,0.1,0,0.4,0,0.4c0.1,0.1,0.1,0.1,0.3,0.1
		c0.1,0.3,0.1,0.4,0.1,0.6c0.4-0.1,0.7-0.1,1.1-0.1v1c-0.1-0.1-0.1-0.3-0.2-0.4c-0.5-0.1-1-0.1-1.5-0.1c-0.2,0.2-0.4,0.4-0.6,0.6
		c-0.3,0.1-0.5,0.1-0.7,0.3c-0.1,0.1-0.2,0.1-0.3,0.3v-4.9c0.1,0.1,0.1,0.2,0.1,0.3c0.2,0.1,0.4,0.2,0.6,0.2
		c0.1,0.1,0.1,0.1,0.1,0.1c0.1-0.1,0.1-0.1,0.2-0.1c0.1-0.2,0.2-0.4,0.2-0.5c0.1-0.6,0.1-1.1,0.1-1.7c-0.4-0.6-0.9-1.2-1.2-1.7
		c-0.1-0.1-0.1-0.3-0.1-0.4v-2c0.1-0.1,0.1-0.3,0.1-0.4c0.4-0.3,0.6-0.4,0.9-0.6c0.3,0.1,0.5,0.1,0.8,0.1c0.1,0.1,0.1,0.2,0.3,0.4
		c0.3,0.1,0.6,0.1,0.9,0.2C73.6,77.3,73.7,77.3,73.8,77.3L73.8,77.3z M73.8,89.8v1.9c-0.1,0.1-0.1,0.2-0.2,0.4
		c0.1,0.1,0.1,0.1,0.2,0.2v10.9c-0.1,0-0.1-0.1-0.2-0.1c-0.1,0.1-0.4,0.2-0.4,0.2c0.1,0.1,0.1,0.1,0.1,0.2c0.2,0.2,0.4,0.4,0.4,0.4
		c0.1,0,0.1,0,0.1,0v93.5c-1.1,0-2.2,0-3.3,0v-80.9c0,0,0,0,0.1,0c0.1,0.1,0.1,0.1,0.1,0.1c0.1-0.2,0.4-0.4,0.4-0.4
		c0-0.2,0-0.4,0-0.5c-0.3-0.2-0.4-0.4-0.6-0.6c-0.1,0-0.1,0-0.1,0v-4.7c0.1,0,0.1,0,0.1,0c0.1-0.1,0.1-0.2,0.2-0.3
		c0.2-0.1,0.4-0.2,0.5-0.3c0.1-0.5,0.1-1.1,0.1-1.6c-0.1,0-0.4,0-0.5,0c-0.2,0.1-0.4,0.3-0.4,0.4c-0.1,0-0.1,0-0.1,0V100
		c0,0,0,0,0.1,0c0.1,0.1,0.1,0.1,0.1,0.1c0.2-0.2,0.5-0.3,0.7-0.4c0-0.2,0-0.4,0-0.4c-0.1-0.1-0.2-0.1-0.3-0.1
		c-0.2-0.1-0.3-0.4-0.4-0.4c-0.1,0.1-0.1,0.1-0.2,0.1v-5.3c0.4,0,0.9,0,1.3,0c0.1-0.2,0.3-0.4,0.5-0.6c0-0.4,0-0.7,0-1.1
		c-0.2-0.2-0.3-0.4-0.4-0.6c-0.3-0.3-0.5-0.6-0.7-0.7c0.3-0.1,0.6-0.1,0.7-0.1c0.3-0.2,0.4-0.3,0.6-0.4C73,90,73.4,89.9,73.8,89.8
		L73.8,89.8z M70.5,75.2v-1.9c0.1,0.1,0.2,0.1,0.3,0.1c0.4,0.2,0.8,0.5,1.2,0.6c-0.1,0.2-0.1,0.3-0.1,0.4c-0.4,0.2-0.8,0.3-1.2,0.4
		C70.7,74.9,70.6,75.1,70.5,75.2L70.5,75.2z M70.5,67v-0.6c0.3,0.1,0.6,0.1,0.9,0.2c0.1,0.1,0.1,0.1,0.1,0.1
		c-0.1,0.1-0.1,0.2-0.1,0.3C71.1,67,70.8,67,70.5,67z M70.5,44.3v10.4c-0.1,0-0.3,0-0.4,0c-0.1,0.1-0.2,0.2-0.3,0.2
		c0,0.3,0,0.5,0,0.8c0.1,0.5,0.1,1,0.3,1.5c0.1,0,0.2,0,0.4,0v6.5c-0.5-0.1-0.9-0.3-1.3-0.4c-0.1-0.1-0.1-0.2-0.1-0.2
		c-0.3,0.1-0.5,0.1-0.8,0.1c0.1,0.8,0.1,1.6,0.1,2.4c0.2,0.3,0.4,0.4,0.5,0.6c0.5,0,0.9,0,1.3,0c0.1,0.1,0.2,0.1,0.4,0.1V67
		c-0.1,0-0.1,0-0.1,0c-0.1-0.1-0.1-0.2-0.1-0.2c-0.6,0-1,0-1.4,0c-0.1,0.2-0.4,0.3-0.4,0.4c-0.1,0.3-0.1,0.4-0.2,0.6
		c0,0.6,0,1.4,0,2c0.1,0.9,0.1,1.7,0.2,2.4c0.1,0.1,0.2,0.4,0.3,0.5c0.2,0.1,0.4,0.3,0.6,0.4c0.3,0,0.6,0,0.7,0
		c0.2,0.1,0.4,0.1,0.6,0.1v1.9c0,0.1,0,0.1-0.1,0.1c-0.2,0.1-0.4,0.2-0.6,0.3c-0.1,0.1-0.2,0.2-0.2,0.4c-0.2,0.1-0.4,0.3-0.6,0.5
		c-0.2,0.3-0.3,0.4-0.4,0.6c-0.1,0.1-0.3,0.2-0.4,0.3c0.1,0.4,0.2,0.9,0.2,1.3c0.1,0.2,0.1,0.4,0.2,0.6c0.2,0.1,0.3,0.1,0.4,0.2
		c0.1,0.2,0.1,0.4,0.1,0.4c0.2,0.1,0.3,0.2,0.4,0.3c-0.1,0.4-0.2,0.9-0.4,1.3c0.1,0.3,0.2,0.6,0.2,0.8c0.2,0.2,0.5,0.4,0.7,0.5
		c0.1,0.3,0.2,0.6,0.4,0.8v4.9c-0.1,0.1-0.3,0.2-0.4,0.3c-0.3,0.1-0.6,0.2-0.8,0.2c-0.3,0.1-0.6,0.2-0.7,0.3
		c-0.1,0.2-0.1,0.4-0.1,0.6c0.1,0.2,0.1,0.4,0.1,0.6c0.1,0.4,0.4,0.6,0.5,0.9c0.2,0.1,0.3,0.2,0.4,0.3c0.3,0.7,0.4,1.4,0.6,2.1
		c0.1,0,0.2,0,0.3,0v5.3c-0.1,0.1-0.3,0.1-0.4,0.2c0,0.3,0,0.4,0,0.6c0.1,0.2,0.3,0.3,0.4,0.4v8.8c-0.4,0.1-0.9,0.1-1.3,0.3
		c-0.1,0.4-0.1,0.8-0.1,1.1c0.1,0.1,0.2,0.2,0.2,0.3c0.1,0.1,0.2,0.1,0.3,0.1c0.4,0,0.6,0,0.9,0v4.7c-0.2,0.2-0.5,0.4-0.6,0.4
		c0.1,0.3,0.1,0.5,0.1,0.7c0.2,0.1,0.4,0.1,0.6,0.2v80.9c-1.8,0-3.7,0.1-5.5,0.1c0,0-0.1-0.1-0.2-0.3c0-0.1,0.1-0.4,0.2-0.7
		c0-0.1-0.1-0.3-0.2-0.6c0.2-1.7,0.5-3.4,0.8-5c-0.1-2.4-0.4-5-0.6-7.7c0-7,0-14.2,0.1-21.4c0.1-0.3,0.3-0.7,0.6-1.2
		c0-3.7,0-7.6,0.1-11.5c-0.3-0.9-0.7-1.7-1.1-2.5c0-2.2,0-4.2,0-6.3c0.1-3.4,0.3-6.9,0.4-10.4c0-5.6,0-11.2-0.1-17.1
		c-0.1-0.5-0.3-1.2-0.6-1.9c0.3-2.2,0.6-4.5,0.9-6.8c-0.1-1.7-0.3-3.4-0.4-5.2c0-1.2,0-2.3,0.1-3.5c0-0.4,0.1-1,0.3-1.6
		C65.1,87,65,80.1,64.9,73.2c0-9.6,0-19.2,0.1-28.9C66.9,44.3,68.7,44.3,70.5,44.3L70.5,44.3z M70.5,77.6c-0.1,0.1-0.2,0.4-0.3,0.6
		c0.1,0.5,0.1,0.9,0.3,1.4V77.6z"/>
	<g>
		<path class="st0" d="M285.6,212c1.3,0,2.7,0,4.1,0.1c1.8,0.3,3.6,0.6,5.4,1c0.9,0.5,1.7,0.9,2.7,1.5c0.7,0.4,1.4,1.1,2.2,1.7
			c0.5,0.9,1.1,1.9,1.6,3c0,2.2,0,4.2,0.2,6.3c0,0.3,0.1,0.6,0.4,0.9c0,0.1-0.2,0.3-0.4,0.6c0,8.4,0,16.9,0,25.5
			c0,0.7,0.1,1.4,0.4,2.4c0,0.4-0.2,0.9-0.4,1.3c0,0.5,0,1.1,0,1.7c-0.4,0.8-0.7,1.5-1.1,2.2c-0.4,0.5-0.7,1.1-1.3,1.7
			c-0.5,0.3-1.1,0.8-1.6,1.2c-1.1,0.6-2.2,1.2-3.2,1.8c-0.9,0.1-1.8,0.3-2.7,0.6c-2.1,0.1-4.2,0.3-6.3,0.4V257
			c0.4,0.1,0.7,0.1,1,0.1c0.2-0.1,0.4-0.3,0.6-0.3c0.1-1.4,0.1-2.6,0.1-3.7c-0.1-3.6-0.1-7.1-0.1-10.5c0.1-6.6,0.1-13,0.1-19.4
			c-0.1-0.7-0.4-1.4-0.4-2.1c-0.1-0.3-0.4-0.6-0.5-0.7c-0.4,0-0.6,0-0.9,0V212z M284.9,265.8c-2-0.1-4-0.3-6-0.4
			c0,0-0.1-0.1-0.4-0.3c-0.7-0.1-1.4-0.3-2.3-0.4c-0.1-0.1-0.5-0.3-0.9-0.6c-0.2,0-0.6,0-0.9-0.1c-0.7-0.4-1.4-0.9-2.2-1.4
			c-0.4-0.5-0.9-1.1-1.4-1.7c-0.4-0.8-0.7-1.7-1.1-2.6c0-1.4,0-3,0-4.5c0-0.6-0.1-1.2-0.4-1.9c0-3,0-6,0-8.9c0,0,0.2-0.2,0.4-0.4
			c0-0.6-0.1-1.2-0.4-1.8c0-6.3,0-12.5,0-18.8c0.6-1.7,1.1-3.3,1.8-5.1c0.9-0.6,1.8-1.2,2.7-1.9c1.2-0.6,2.5-1.2,3.7-1.9
			c1.8-0.3,3.6-0.6,5.4-0.9c0.8,0,1.7,0,2.5,0v8.2c-0.1,0-0.3,0-0.4,0c-0.4,0.1-0.7,0.3-0.9,0.3c-0.1,1.1-0.4,2.1-0.5,3
			c0,4.5,0,8.9,0,13.5c0.1,0.1,0.4,0.3,0.4,0.3c0,3,0,6,0,8.9c-0.2,0.8-0.4,1.4-0.4,1.9c0.1,2.7,0.1,5.4,0.1,8.1
			c0.4,0.4,0.6,0.5,0.7,0.6c0.3,0.1,0.6,0.1,0.9,0.1v8.9C285.3,265.8,285.1,265.8,284.9,265.8z"/>
		<path class="st0" d="M100.2,265.5c-1.1,0-2.4,0-3.6-0.1c-0.4-0.4-0.7-0.9-1.3-1.4c-0.4-0.6-0.7-1.3-1.1-2.1
			c-0.1-1.6-0.4-3.4-0.5-5.2c0-3.9,0-7.8,0-11.7c0-0.6,0.1-1.4,0.4-2.1c-0.4-0.6-0.9-1.2-1.4-1.9c-0.1-0.1-0.2-0.1-0.4-0.1v-8.1
			c0.3-0.1,0.6-0.2,0.9-0.3c0.4-0.7,0.7-1.3,0.9-1.9c-0.2-0.4-0.4-0.9-0.4-1.2c0-0.5,0-0.9,0-1.4c0.1-0.1,0.4-0.1,0.4-0.1
			c0-0.6,0-1.1,0-1.5c-0.2-0.3-0.4-0.4-0.4-0.6c0-1.4,0-2.7,0-3.9c-0.4-0.4-0.7-0.8-1.1-1.1c-0.1,0-0.2-0.1-0.4-0.1v-8.1
			c1.6,0.1,3.1,0.1,4.7,0.2c1.9,0.4,4,1.1,5.9,1.7c0.7,0.3,1.4,0.7,2.2,1.2c0.7,0.7,1.4,1.6,2.2,2.5c0.4,0.9,0.7,1.9,1.2,3
			c0,3-0.1,6-0.4,9.1c0,0-0.1,0.1-0.4,0.3c-0.1,0.4-0.4,0.9-0.5,1.5c0,0-0.2,0.1-0.4,0.3c0,0.3,0,0.6-0.2,0.9
			c-0.9,0.7-1.9,1.6-3,2.5c-0.2,0-0.4,0.1-0.7,0.3c0,0.3,0,0.6-0.2,0.9c0.6,0.3,1.1,0.6,1.8,1c0.2,0.1,0.4,0.4,0.6,0.7
			c0.1,0.2,0.5,0.4,0.9,0.5c0.2,0.3,0.6,0.6,0.9,1c0.4,1.1,0.7,2.2,1.2,3.5c0,1.8,0,3.6,0,5.5c0,0,0.2,0.1,0.4,0.3c0,3,0,6,0.2,9.1
			c0,1.2,0.1,2.5,0.4,3.9c0,0,0.1,0,0.4,0.1c0,0.6,0,1.2,0.1,1.8c-0.4,0.3-0.7,0.6-1.2,0.9C105.5,265.4,102.9,265.4,100.2,265.5z
			 M92.3,240.9c-0.2-0.1-0.5-0.2-0.7-0.4c-0.1,0.1-0.5,0.5-0.9,0.8c0,4,0,8.1-0.2,12.1c0,3.3,0,6.6,0.2,9.9c0,0.3,0,0.6-0.2,0.9
			c-0.5,0.3-1.1,0.6-1.6,1c-3.6,0-7.3,0-11.2,0.1c-0.1-0.1-0.4-0.3-0.5-0.6c-0.2,0-0.4-0.1-0.7-0.3c-0.2-0.8-0.4-1.7-0.7-2.6
			c0-5.2,0.1-10.4,0.4-15.7c0,0-0.2-0.1-0.4-0.3c0-1.7,0.1-3.3,0.4-4.9c0-0.4-0.2-0.6-0.4-1.1c0-0.4,0-0.9,0-1.5c0,0,0.1,0,0.4-0.1
			c0-8.4,0-16.7,0.1-25.3c0.4-0.1,0.9-0.3,1.4-0.4c2.5,0,5,0,7.7-0.1c0.6,0,1.1,0.1,1.7,0.3c0,0,0-0.1,0.1-0.3c1.7,0,3.4,0,5,0.1
			v8.1c-0.2-0.1-0.4-0.2-0.5-0.3c-0.4,0.1-0.6,0.1-0.7,0.1c-0.2,1.5-0.4,3-0.6,4.5c0.2,0.4,0.2,0.6,0.2,0.8c-0.2,1.5-0.2,3-0.2,4.3
			c0.2,0.7,0.2,1.5,0.2,2.2c0.1,0.1,0.4,0.3,0.5,0.4c0.2,0.1,0.4,0.4,0.4,0.4c0.2-0.1,0.5-0.3,0.7-0.4V240.9z"/>
		<path class="st0" d="M197.9,212.5c2.5,0.2,5,0.4,7.5,0.7c1.1,0.5,2.1,0.9,3.2,1.4c0.4,0,0.9,0.1,1.4,0.3c0,0.3,0.2,0.6,0.4,1.1
			c0.6,0.1,1.1,0.4,1.7,0.7c0.5,0.9,1.1,1.8,1.8,2.7c0,0.5,0,0.9,0,1.5c0,0,0.1,0.1,0.4,0.3c0,1.4,0,2.7,0.1,4.2
			c0,0.7,0,1.4-0.1,2.2c0,1.3,0,2.7,0.1,4.2c0,1.2,0,2.4-0.1,3.6c0,2.1,0,4.2,0.1,6.4c0,5.1,0,10.2-0.1,15.3
			c-0.2,0.7-0.6,1.5-0.9,2.2c0,0-0.1,0-0.4,0.1c-0.1,0.4-0.4,0.9-0.5,1.4c-0.2,0.1-0.4,0.4-0.7,0.7c-0.9,0.6-1.8,1.2-2.7,1.8
			c-1.4,0.4-2.8,0.9-4.2,1.5c0,0,0,0.1-0.2,0.3c-2.2,0.1-4.3,0.3-6.6,0.4v-7.9c0.4-0.2,0.7-0.4,1-0.5c0.1-0.4,0.1-0.8,0.1-1.1
			c0.2-0.1,0.4-0.3,0.4-0.3c0-0.7,0-1.5,0-2.2c-0.1-0.1-0.4-0.1-0.4-0.1c0.2-1.5,0.4-3,0.4-4.5c-0.1-1.5-0.4-3-0.4-4.5
			c0.2-1.2,0.4-2.2,0.4-3.2c-0.1-0.5-0.4-0.8-0.4-1.1c0.2-0.7,0.4-1.4,0.4-1.9c0-4.8,0-9.6,0-14.2c-0.1-0.9-0.4-1.8-0.5-2.7
			c-0.4-0.1-0.7-0.3-1-0.4V212.5z M197,265.5c-0.2-0.1-0.6-0.3-0.9-0.4c-0.4,0-0.7,0.1-1.2,0.3c-3.9,0-7.8,0-11.8-0.1
			c-0.1-0.3-0.5-0.7-0.9-1.2c0-2.8,0-5.6-0.2-8.5c0-2.8,0-5.7,0.2-8.5c0-0.9,0-1.9-0.2-3c0-2.1,0-4.2,0.2-6.4c0-2.4,0-5-0.2-7.5
			c0-1.4,0-2.7,0.2-4c0-3.5,0-6.9-0.2-10.4c0-0.6,0-1.2,0.2-1.9c0.4-0.4,0.7-0.6,1.1-0.9c1.8,0,3.7,0,5.8,0c0.1,0,0.4-0.1,0.5-0.3
			c1.4,0.1,2.8,0.3,4.2,0.4c0.9,0,1.8,0,2.9-0.1c0.1,0,0.4-0.1,0.7-0.3c0.1,0,0.4,0,0.6,0v8.2c-0.1,0-0.3-0.1-0.4-0.1
			c-0.4,0.3-0.5,0.4-0.7,0.6c-0.1,3.9-0.4,7.6-0.4,11.4c0.2,1.4,0.4,2.6,0.4,3.7c-0.1,1.8-0.4,3.5-0.4,5.1c0.2,0.1,0.4,0.1,0.4,0.1
			c0,1.5,0,3,0,4.3c-0.1,0.1-0.4,0.1-0.4,0.1c0.2,1.7,0.4,3.3,0.4,4.8c-0.1,0.6-0.4,1-0.4,1.4c0.2,1.5,0.4,2.9,0.4,4.2
			c0.2,0.4,0.4,0.9,0.6,1.2c0.1,0.1,0.1,0.1,0.1,0.1c0.1-0.1,0.3-0.1,0.4-0.2v7.9C197.6,265.5,197.3,265.5,197,265.5z"/>
		<path class="st0" d="M237.1,265.5c-0.4-0.1-0.7-0.3-1.3-0.4c-0.1-0.3-0.5-0.6-0.9-0.9c0-8.4-0.2-16.8-0.4-25.1
			c0-4.5,0-9.1,0.1-13.8c0-2.4,0-5-0.1-7.5c0-1.1,0-2.2,0.1-3.5c0-0.3,0.2-0.6,0.4-1.1c0.6-0.3,1.3-0.6,2-0.9c1.7,0,3.5,0.1,5.3,0.3
			c0,0,0.2-0.1,0.4-0.3c1.3,0,2.7,0.1,4.2,0.3c0,0,0.1-0.1,0.4-0.3c0.1,0,0.5,0,0.9,0c0.1,0.1,0.4,0.3,0.5,0.4
			c0.2,0.4,0.4,1.1,0.7,1.7c0,1.4,0,2.8-0.1,4.3c0,9,0,17.9,0.1,26.9c0,0,0.2,0,0.4,0.1c0,0.1,0,0.3,0,0.6c0,0.2-0.1,0.4-0.4,0.5
			c0,3.2,0,6.7-0.1,10.2c0,1.2,0,2.4,0.1,3.7c0,1,0,2.1-0.1,3.1c-0.4,0.5-0.7,0.9-1.1,1.4c-0.4,0-0.9,0-1.4,0.1c-1.9,0-4,0-6.1-0.1
			C239.6,265.4,238.4,265.4,237.1,265.5z"/>
		<path class="st0" d="M145.8,212.7c1.9-0.1,3.9-0.1,5.9-0.2c0.9,0.1,1.9,0.3,3,0.4c0.4,1.1,0.7,2.1,1.1,3.2c0.4,1.7,0.7,3.2,1.1,5
			c0,0.4,0,0.8,0,1.2c0.4,1.4,0.7,2.7,1.3,4.2c0.1,1.7,0.4,3.5,0.5,5.3c0.1,0.6,0.4,1.4,0.7,2.1c0,0.4,0,1,0,1.7
			c0.5,2.4,1.1,4.9,1.8,7.5c0,0.6,0,1.3,0.1,2.1c0,0,0.2,0,0.4,0.1c0,0.4,0,0.9,0,1.3c0,0.2,0.2,0.4,0.4,0.5c0.4,2.5,0.7,5,1.1,7.8
			c0.2,0.1,0.4,0.4,0.7,0.7c0,1.2,0,2.5,0.2,3.9c0.1,0.1,0.4,0.3,0.7,0.6c0,1.5,0,3,0.1,4.5c-0.1,0.3-0.5,0.6-0.9,0.9
			c-2.7,0-5.4,0-8.1,0c-1.3,0-2.5-0.1-4-0.3c-0.2-0.1-0.6-0.3-0.9-0.4c-0.1-0.3-0.4-0.8-0.5-1.2c-0.2-0.7-0.4-1.7-0.6-2.5
			c0-0.8,0-1.5,0-2.2c0,0-0.1,0-0.3-0.1c-0.4-2.1-0.7-4.4-1.1-6.6c-0.6-0.1-1.3-0.4-2-0.7c-0.1,0-0.5,0.1-0.9,0.3v-8.2
			c0.5-0.3,0.9-0.6,1.2-0.8c-0.1-1.6-0.1-3.2-0.1-4.8c-0.4-0.3-0.6-0.6-0.7-0.7c-0.1,0.1-0.3,0.4-0.4,0.5V212.7z M128.9,265.4
			c-0.6-0.1-1.3-0.3-2-0.6c0-0.6,0-1.4,0-2.1c0.2-0.9,0.4-1.8,0.7-2.7c0.2-1.3,0.4-2.7,0.6-4c0,0,0.1-0.1,0.4-0.3
			c0.4-2.5,0.7-5.3,1.1-7.9c0.1-0.4,0.4-0.9,0.7-1.5c0.1-1.4,0.4-3,0.5-4.5c0,0,0.2-0.1,0.4-0.3c0.2-0.8,0.4-1.5,0.6-2.2
			c0.1-2.2,0.5-4.5,0.9-6.9c0,0,0.1-0.1,0.4-0.3c0.7-3.2,1.4-6.4,2.2-9.7c0.1-1.4,0.4-2.7,0.5-4c0.2-0.4,0.4-0.9,0.6-1.5
			c0-0.7,0-1.5,0-2.4c0.4-0.4,0.7-0.9,1.1-1.4c0.4,0,0.7-0.1,1.2-0.3c2.4,0,4.8-0.1,7.2-0.1v24.8c-0.1,0.1-0.1,0.1-0.2,0.2
			c-0.1,1.2-0.4,2.2-0.5,3.3c-0.2,0.3-0.4,0.6-0.6,0.7c0.4,0.4,0.7,0.9,0.9,1.4c0.1,0.1,0.4,0.1,0.4,0.1l0,0v8.2l0,0
			c-0.2,0-0.4-0.1-0.7-0.3c-0.6,0.1-1.1,0.4-1.7,0.7c-0.9,4.2-1.8,8.6-2.7,12.9c-0.4,0.1-0.7,0.3-1.1,0.4
			C136.1,265.2,132.5,265.2,128.9,265.4z"/>
	</g>
	<path class="st0" d="M310.7,215c0-0.1-0.1-0.3-0.3-0.6c0-0.6,0-1.2,0-1.9c0.1,0,0.3-0.1,0.4-0.2c0.1,0.4,0.4,0.8,0.7,1.2
		c0,0,0.1,0,0.3,0.1c0,0.3,0,0.6,0,1c-0.3,0.1-0.6,0.3-0.9,0.4C311,215.1,310.9,215.1,310.7,215z"/>
	<path class="st0" d="M215.7,207.3c0.1,0,0.1,0,0.2-0.1c0.1,0,0.1-0.1,0.3-0.1c0.4,0,0.6-0.1,1-0.1c0,0,0,0,0.1-0.1
		c0,0-0.1-0.1-0.1-0.1c0,0-0.1-0.1-0.1-0.1c-0.1,0-0.1,0-0.2,0c-0.1-0.1,0-0.1,0.1-0.1c0.3,0,0.6,0,1-0.1c0.1,0,0.4,0,0.6,0
		c0,0,0.2,0,0.4,0c0.1,0.1,0.1,0.1,0.2,0.1c0.1,0.1,0.2,0.3,0.4,0.4c0.1,0,0.1,0,0.3,0.1c0.1-0.1,0.1-0.1,0.3-0.1
		c-0.1,0-0.1,0,0-0.1c0.1,0,0.2,0,0.4-0.1c0,0,0,0,0.1-0.1c0.3,0,0.6,0,0.9,0c0.2,0.1,0.4,0.3,0.7,0.5c0.4,0,0.6-0.1,1,0
		c0.1-0.1,0.1-0.1,0.1-0.1c0.2,0,0.4,0,0.6-0.1c0.1,0,0.1-0.1,0.3-0.1c0.4-0.1,1-0.1,1.5-0.1c0.1,0,0.3,0.1,0.6,0.1
		c0.1,0,0.1,0,0.2,0.1c0.1,0.1,0.2,0.1,0.4,0.1c0.1,0.1,0.2,0.1,0.4,0.1c0.1,0,0.1,0,0.2,0c0-0.1-0.1-0.1-0.1-0.1c0.4,0,0.8,0,1.2,0
		c0,0,0.1,0.1,0.3,0.1c0.1,0.1,0.2,0.1,0.4,0.1c0.6,0.1,1.2,0.1,1.9,0.1c0.1,0.1,0.1,0.1,0.2,0.1c0.1,0.1,0.1,0.1,0.1,0.2
		c-0.1,0.1-0.3,0.1-0.4,0.1c-0.4,0.1-0.9,0.1-1.4,0.2c0.1,0,0.1,0,0.2,0c0.1,0.1,0.1,0.1,0.3,0.2c-0.1,0-0.1,0-0.1,0.1
		c-0.2-0.1-0.4-0.1-0.6-0.2c-0.1,0-0.1,0-0.2,0c-0.1,0-0.1,0-0.1,0c-0.4,0.1-0.8,0.1-1.2,0.1c-0.1,0.1-0.2,0.2-0.4,0.4
		c-0.1,0-0.1,0.1-0.3,0.1c-0.1,0.1-0.2,0.1-0.3,0.1c-0.1,0-0.3,0-0.5,0c-0.1,0-0.1,0-0.3,0c-0.1,0-0.4,0-0.6,0c0,0,0,0-0.1,0.1
		c-0.1,0-0.2,0-0.4,0c-0.1-0.1-0.3-0.1-0.5-0.1c-0.1,0-0.1-0.1-0.3-0.1c0-0.1-0.1-0.1-0.1-0.2c0.1,0,0.1-0.1,0.2-0.1
		c0.2,0,0.5-0.1,0.8-0.1c0.1,0,0.2-0.1,0.4-0.1c-0.3-0.1-0.6-0.2-1-0.3c-0.3,0.1-0.6,0.1-1,0.2c-0.1,0-0.1,0-0.2,0
		c-0.1,0-0.1,0-0.2,0c-0.1,0-0.2,0-0.4,0c-0.1-0.1-0.1-0.1-0.3-0.1c-0.4,0-0.6-0.1-0.9-0.1c-0.2,0-0.4,0.1-0.6,0.1
		c-0.2,0.1-0.4,0.1-0.6,0.1c-0.8,0.1-1.5,0.1-2.3,0.1c-0.3-0.1-0.6-0.1-0.9-0.1c-0.2-0.1-0.4-0.2-0.6-0.3c-0.1,0-0.3,0-0.4,0
		C215.9,207.6,215.8,207.5,215.7,207.3z"/>
</g>
</svg>
