<svg enable-background="new 0 0 300 300" viewBox="0 0 300 300" xmlns="http://www.w3.org/2000/svg"><path d="m0 0h300v300h-300z" fill="#676767"/><g fill="#fff"><path d="m250.9 163.4h-35.2v-36c0-.1 0-.1 0-.2.3-9.3 8.1-16.5 17.4-16.2s16.5 8.1 16.2 17.4c0 .5-.1 1-.1 1.5 2.4-.3 4.9 0 7.2.7 8.8 2.9 13.6 12.4 10.7 21.2-2.2 6.8-8.5 11.4-15.7 11.5zm-28.8-6.4h29.1c5.7-.1 10.2-4.8 10.1-10.5s-4.8-10.2-10.5-10.1c-1.8 0-3.6.6-5.2 1.5-1.5.9-3.5.5-4.5-1.1-.6-1-.6-2.4 0-3.4 1.6-2.6 1.9-5.8 1-8.6-1.4-4.2-5.3-7.1-9.8-7-4.4 0-8.4 2.8-9.8 7-.3.9-.5 1.8-.5 2.7v29.5zm39.8 15.2c3.6-1.5 6.9-3.8 9.6-6.6 2.7-3 4.8-6.5 6-10.3.4-1.4-.4-2.7-1.8-3.1-1.3-.3-2.6.3-3 1.6-1 3.1-2.7 6-4.9 8.4-2.2 2.3-4.8 4.2-7.8 5.4-1.3.5-1.9 2-1.4 3.3.4.9 1.3 1.6 2.3 1.6.4-.1.7-.2 1-.3zm-50.8-51.7c1.2-3.5 3.2-6.6 6-9.1 2.3-2.1 5-3.7 8-4.7 1.3-.5 1.9-2 1.4-3.3-.5-1.2-1.8-1.8-3-1.5-3.7 1.2-7 3.2-9.9 5.8-3.3 3.1-5.9 6.9-7.3 11.2-.5 1.3.3 2.8 1.6 3.2s2.7-.3 3.2-1.6zm-11.6-.2c.2-1.1.5-2.1.9-3.1 1.8-5.4 4.9-10.2 9.1-14 4.3-4 9.6-6.8 15.4-8 1.4-.3 2.2-1.7 1.9-3-.3-1.4-1.7-2.2-3-1.9-6.6 1.5-12.7 4.7-17.7 9.2-4.8 4.4-8.4 10-10.4 16.1-.4 1.2-.7 2.4-1 3.6-.3 1.4.5 2.7 1.9 3 .2 0 .4.1.6.1 1-.1 2-.9 2.3-2zm59.9 64.4c1.4-.3 2.7-.7 4-1.1 6.2-2 11.8-5.6 16.2-10.4 4.7-5.1 8-11.4 9.4-18.2.3-1.4-.6-2.7-2-3s-2.7.6-3 2c-1.3 5.9-4.1 11.4-8.2 15.8-3.8 4.2-8.7 7.3-14.1 9-1.2.4-2.3.7-3.5.9-1.4.3-2.2 1.6-1.9 3 .3 1.2 1.3 2 2.5 2zm-66.9-51.5c8.9 0 15.3 6.7 15.3 15.2s-6.3 15.2-15.3 15.2-15.3-6.7-15.3-15.2 6.3-15.2 15.3-15.2m0 23.7c5 0 8.2-3.8 8.2-8.6s-3.2-8.6-8.2-8.6c-5.1 0-8.2 3.8-8.2 8.6s3.1 8.6 8.2 8.6m-175.2 5.9h7v-11.2h11.1v11.2h6.9v-28.4h-6.9v11.2h-11.1v-11.2h-7zm29.9 0h7v-28.4h-7zm35.7-28.4h11.9c6.1 0 10.1 3.7 10.1 9 0 5-2.5 7.8-6.7 8.8l7.7 10.6h-8.7l-7.2-10.6v10.6h-7v-28.4zm12.6 12.3c1.6 0 2.6-1.6 2.6-3.3s-1.2-3.1-2.8-3.1h-5.4v6.4zm43.8-12.3h9.9c8.4 0 14.9 6.2 14.9 14.2 0 7.6-5.8 14.2-14.9 14.2h-9.9zm9.8 22.1c4.5 0 7.8-3.1 7.8-7.9 0-4.4-3-7.8-7.8-7.8h-2.8v15.8zm18 6.3h7v-28.4h-7zm-42.6-28.4h-5.2l-11.9 28.4h7.5l1.4-2.9h11.2l1.4 2.9h7.5zm-6 19.1 3.4-9.7 3.3 9.7zm1.4-21.7h4.7l3.3-5.2h-5.8zm-54.6 8.7h-7.3v-6.1h21.6v6.1h-7.4v22.2h-7v-22.2z"/><path d="m17.3 173.1h11.3c5.5 0 8.8 4.1 8.8 8.6 0 5-3.8 8.6-8.8 8.6h-4.7v9.7h-6.6zm10.7 11.6c1.7 0 2.7-1.6 2.7-3.1s-.9-2.8-2.7-2.8h-4.1v6h4.1z"/><path d="m54.6 172.2c8.5 0 14.5 6.3 14.5 14.4s-6 14.4-14.5 14.4-14.5-6.3-14.5-14.4 6-14.4 14.5-14.4zm0 22.5c4.8 0 7.8-3.6 7.8-8.1s-3.1-8.1-7.8-8.1c-4.8 0-7.8 3.6-7.8 8.1s3 8.1 7.8 8.1z"/><path d="m73.7 173.1h11.3c5.5 0 8.8 4.1 8.8 8.6 0 5-3.8 8.6-8.8 8.6h-4.7v9.7h-6.6zm10.7 11.6c1.7 0 2.7-1.6 2.7-3.1s-.9-2.8-2.7-2.8h-4.1v6h4.1z"/><path d="m98 173.1h11.3c5.8 0 9.6 3.5 9.6 8.6 0 4.7-2.4 7.4-6.4 8.4l7.3 10h-8.3l-6.9-10.1v10h-6.6zm11.9 11.7c1.5 0 2.5-1.5 2.5-3.1s-1.2-3-2.7-3h-5.1v6.1z"/><path d="m136.9 172.2c8.5 0 14.5 6.3 14.5 14.4s-6 14.4-14.5 14.4-14.5-6.3-14.5-14.4 5.9-14.4 14.5-14.4zm0 22.5c4.8 0 7.8-3.6 7.8-8.1s-3.1-8.1-7.8-8.1c-4.8 0-7.8 3.6-7.8 8.1s3 8.1 7.8 8.1z"/><path d="m171.3 172.2c5.1 0 8.7 1.9 11.6 4.9l-4.5 4.3c-1.9-1.8-4.3-3-7-3-4.8 0-7.9 3.6-7.9 8.1s3.1 8.1 7.9 8.1c2.7 0 5.1-1.2 7-3l4.4 4.3c-2.7 2.8-6.4 4.9-11.4 4.9-8.5 0-14.6-6.3-14.6-14.4-.1-7.9 6-14.2 14.5-14.2z"/><path d="m186.1 173.1h6.6v12.1h.1l7.8-12.1h7.3l-9.3 12.8 9.8 14.2h-7.3l-8.3-13.1h-.1v13.1h-6.6z"/></g></svg>