<?xml version="1.0" encoding="utf-8"?>
<!-- Generator: Adobe Illustrator 24.1.0, SVG Export Plug-In . SVG Version: 6.00 Build 0)  -->
<svg version="1.1" id="Vrstva_1" xmlns="http://www.w3.org/2000/svg" xmlns:xlink="http://www.w3.org/1999/xlink" x="0px" y="0px"
	 viewBox="0 0 800 800" style="enable-background:new 0 0 800 800;" xml:space="preserve">
<style type="text/css">
	.st0{fill:#FFFFFF;}
</style>
<rect x="-11.5" y="-9.8" width="822.7" height="819.3"/>
<g>
	<g>
		<path class="st0" d="M132.4,533.3l-16.9-3.1l0,0.1c0.8,0.8,1.7,2.2,2.2,3.4c2.8,6.1,0.2,13.3-6.2,16.1c-7.4,3.3-14.7-0.1-17.9-7.2
			c-3.3-7.3-0.5-15.1,6.2-18.1c4-1.8,7.3-1.7,11.9-1l17.4,2.7L132.4,533.3L132.4,533.3z M98.7,540.3L98.7,540.3
			c1.8,4,5.7,5.4,9.9,3.6c3.9-1.8,5.6-5.7,3.8-9.6c-1.8-4-5.8-5.5-9.9-3.7C98.9,532.2,96.9,536.2,98.7,540.3z"/>
		<path class="st0" d="M120.6,591.1c-4.8-7.2-1.1-15.5,9.2-22.3c10.3-6.8,19.3-7.1,24.1,0.1c4.8,7.2,1,15.4-9.2,22.2
			C134.4,598,125.4,598.3,120.6,591.1L120.6,591.1z M149.4,571.9L149.4,571.9c-3.2-4.8-11.6-0.6-16,2.4c-4.4,3-11.5,8.9-8.3,13.8
			c3.2,4.8,11.4,0.5,15.8-2.4C145.4,582.7,152.6,576.7,149.4,571.9z"/>
		<path class="st0" d="M153.9,620c1.5,1.7,1.5,4.4-0.2,5.9c-1.7,1.5-4.4,1.3-6-0.5c-1.5-1.7-1.5-4.4,0.2-5.9
			C149.6,618,152.3,618.2,153.9,620z"/>
		<polygon class="st0" points="174.1,642 178.7,646.2 165.6,653.4 161.6,649.7 		"/>
		<polygon class="st0" points="240,655.3 262.4,668.3 259.5,673.4 230.2,693.6 223.6,689.8 253.7,669.9 237.1,660.4 		"/>
		<path class="st0" d="M280.4,718.9c-8.1-3.1-9.9-12-5.5-23.5c4.4-11.5,11.7-17,19.8-13.9c8,3.1,9.8,12,5.4,23.5
			C295.7,716.5,288.5,722,280.4,718.9L280.4,718.9z M292.8,686.5L292.8,686.5c-5.4-2.1-9.8,6.2-11.7,11.2c-1.9,5-4.2,14,1.3,16
			c5.4,2.1,9.6-6.2,11.5-11.2C295.8,697.6,298.2,688.6,292.8,686.5z"/>
		<path class="st0" d="M324.3,723.1c2.3,0.5,3.8,2.7,3.2,5c-0.5,2.3-2.9,3.6-5.2,3.1c-2.2-0.5-3.8-2.7-3.2-5
			C319.7,723.9,322,722.5,324.3,723.1z"/>
		<path class="st0" d="M399.9,701.8l5.9-0.1l17,37.8l-7.8,0.1l-3.7-8.7l-16.5,0.3l-3.3,8.8l-7.6,0.1L399.9,701.8L399.9,701.8z
			 M408.9,725.2L408.9,725.2l-6.1-15.4l-5.7,15.6L408.9,725.2z"/>
		<path class="st0" d="M497.7,695.4c1.2,4.2-0.3,7.9-3.3,9.9l0,0.1c4.1-0.2,8.2,2.4,9.5,6.9c2.1,7.3-2.4,12.9-9.5,15
			c-7,2.1-13.9-0.2-16.1-7.5c-1.4-4.8,1-8.9,4.3-10.9l0-0.1c-3.6-0.2-6.8-2.1-8-6.3c-1.8-6.2,2.2-11.7,8.6-13.6
			C489.7,687,495.9,689.2,497.7,695.4L497.7,695.4z M481,700.7L481,700.7c0.9,2.9,3.6,4.7,6.8,3.8c2.9-0.9,4.6-3.9,3.8-6.9
			c-0.9-3.1-4-4.4-6.8-3.6C481.7,694.9,480.1,697.6,481,700.7L481,700.7z M484.8,717.9L484.8,717.9c1.1,3.8,4.5,5.3,8.1,4.2
			c3.6-1,5.6-4.1,4.5-7.9c-1.1-3.6-4.6-5.4-8.1-4.4C485.8,710.8,483.8,714.2,484.8,717.9z"/>
		<path class="st0" d="M546.6,707.2c-7.8,3.8-15.5-1-20.9-12.1c-5.4-11.1-4.4-20.1,3.4-23.9c7.7-3.8,15.4,1.1,20.8,12.1
			C555.3,694.4,554.4,703.4,546.6,707.2L546.6,707.2z M531.5,676L531.5,676c-5.2,2.5-2.1,11.4,0.2,16.2c2.3,4.8,7.3,12.6,12.5,10
			c5.2-2.5,2.1-11.2-0.3-16C541.6,681.4,536.7,673.5,531.5,676z"/>
		<path class="st0" d="M579.7,678.1c1.9-1.3,4.6-0.9,5.8,1c1.3,1.9,0.7,4.6-1.3,5.9c-1.9,1.2-4.6,0.9-5.8-1
			C577.2,682,577.7,679.4,579.7,678.1z"/>
		<polygon class="st0" points="607.3,617.5 612,612.6 635.1,634.8 646.3,623.1 650.7,627.3 634.7,643.9 		"/>
		<polygon class="st0" points="636.6,584.5 651,563.7 655.8,567.1 645.3,582.3 653.2,587.8 663.2,573.4 667.9,576.7 657.9,591.1 
			666.8,597.2 677.9,581.3 682.8,584.7 667.8,606.2 		"/>
		<polygon class="st0" points="672,537.7 667,548.2 661.6,545.7 674.5,518.5 679.9,521 674.9,531.5 704,545.3 701.1,551.4 		"/>
	</g>
	<g>
		<g>
			<path class="st0" d="M115,229.2l5.1-7.4l33.4,1.7l0.1-0.1l-23.4-16.2l3.8-5.6l31.2,21.6l-4.9,7.1l-34.4-1.9l-0.1,0.1l24.1,16.7
				l-3.8,5.6L115,229.2z"/>
			<path class="st0" d="M152,180.5l17.6-18l4.2,4.1l-12.9,13.2l6.9,6.7L180,174l4.1,4l-12.2,12.5l7.7,7.5l13.5-13.9l4.3,4.2
				L179.2,207L152,180.5z"/>
			<path class="st0" d="M220.4,153.8c3.4,4.4,6.5,11.7-1,17.5c-4.9,3.7-9.9,3.3-13.9,0.1l3.9-5.2c2,1.6,4.4,1.7,6.3,0.3
				c3.1-2.3,1.9-5.3-0.7-8.8l-15.5-20.2l5.4-4.1L220.4,153.8z"/>
			<path class="st0" d="M227.1,118.7l5.9-3.3l15.8,27.8l14-8l3,5.2l-19.9,11.3L227.1,118.7z"/>
			<path class="st0" d="M267.9,97.5l23.4-9.1l2.1,5.5l-17.1,6.7l3.5,9l16.2-6.3l2.1,5.3l-16.2,6.3l3.9,10l18-7l2.2,5.6l-24.3,9.5
				L267.9,97.5z"/>
			<path class="st0" d="M316.8,80.8l12.1-2.6c8.5-1.9,14.6-0.1,16.3,7.7c1.8,8.2-4.2,12.4-12,14.2l-5.1,1.1l3.3,15.4l-6.6,1.4
				L316.8,80.8z M331.6,94.5c4.3-0.9,8-2.8,7-7.2s-5.1-4.3-9.2-3.4l-4.8,1.1l2.3,10.6L331.6,94.5z"/>
			<path class="st0" d="M387.2,78.6c-1.6-1.8-4.5-3-7.2-2.8c-3.1,0.2-6.6,1.9-6.4,5.6c0.2,3.5,3.2,4.3,7.6,5.4
				c5,1.2,11.3,2.9,11.8,10.4c0.5,8.1-5.6,12.5-13,13c-4.9,0.3-10.1-1.2-13.4-4.6l4.5-4.8c2,2.5,5.6,3.8,8.6,3.6
				c3.2-0.2,6.8-2,6.5-6.1c-0.3-4-4.3-4.8-9.1-6c-4.7-1.2-9.8-3.1-10.3-10.1c-0.5-7.7,6.3-11.6,13.2-12c3.8-0.2,8.2,0.8,11.3,3.4
				L387.2,78.6z M375.5,60.7l4,4.6l3.4-5.1l5.9-0.4l-5.7,8.1l-7.1,0.5l-6.6-7.3L375.5,60.7z"/>
			<path class="st0" d="M415.9,70.9l6.7,0.4l-2.2,37.9l-6.7-0.4L415.9,70.9z M421.8,60.5l7.3,0.4l-8,7.3l-5-0.3L421.8,60.5z"/>
			<path class="st0" d="M479.5,79.7l6.5,1.9l-4.3,14.7l17,5l4.3-14.7l6.5,1.9L498.7,125l-6.5-1.9l4.8-16.1l-17-5l-4.8,16.2l-6.5-1.9
				L479.5,79.7z"/>
			<path class="st0" d="M552,134c-4.1,8.2-12.6,10.4-20.3,6.5c-7.8-3.9-11.1-12-7-20.2l10.7-21.5l6,3l-10.6,21.3
				c-2,3.9-2.3,9.1,3.6,12c5.8,2.9,9.7-0.4,11.7-4.3l10.6-21.3l6,3L552,134z"/>
			<path class="st0" d="M586.4,127l10.8,8c8,5.9,14,16.3,5.5,27.8c-7.9,10.7-20.2,8.6-28.2,2.7l-10.8-8L586.4,127z M577.2,160.1
				c5.6,4.2,13.6,6.6,19.7-1.7c6.5-8.7,1.6-15.3-4-19.4l-4.5-3.4l-15.7,21.1L577.2,160.1z"/>
			<path class="st0" d="M633.2,165.1l10.2,10.7c4,4.2,6.1,10.2,1.1,15c-3.1,3-7,3-10.6,1l-0.1,0.1c2.8,3.9,2.9,8.6-0.8,12.1
				c-6,5.7-13,2.4-17.9-2.8l-9.4-9.9L633.2,165.1z M614.4,192.2l4.2,4.4c2.4,2.5,6.4,5.7,10,2.2c2.9-2.7,2-5.7-1.8-9.6l-4.4-4.6
				L614.4,192.2z M626.6,180.6l4.1,4.3c3.1,3.3,6.1,3.7,8.5,1.5c2.4-2.3,1.8-5-1.8-8.7l-3.7-3.9L626.6,180.6z"/>
			<path class="st0" d="M675.2,214.9l3.3,4.8l-22.2,34.9l-4.4-6.4l5.2-7.8l-9.3-13.6l-9.1,2.1l-4.3-6.3L675.2,214.9z M660.6,235.3
				l9.5-13.5l-16.1,3.8L660.6,235.3z"/>
		</g>
	</g>
	<g>
		<path class="st0" d="M347.1,424.1c4,10.2,15.5,17.6,29,17.6c16.8,0,30.5-9.8,30.5-25.6c0-16-19.4-28.5-30.5-38.2
			c-4.3-3.8-8.7-7.5-8.7-11.8c0-4.3,3.7-7.2,8.7-7.2c5,0,8.7,3.3,8.7,8.7v4.4h21.8v-4.8c0-14.2-13.7-25.6-30.5-25.6
			c-13.7,0-25.2,6.4-29.1,17.3c-4.9-10.3-15.4-17.3-27.5-17.3c-16.8,0-30.5,13.7-30.5,30.5v45.7c0,3.6-2.9,6.5-6.5,6.5
			c-3.6,0-6.5-2.9-6.5-6.5v-76.2l-18.9,6.8c-1.7,0.6-2.9,2.2-2.9,4.1v65.3c0,3.6-2.9,6.5-6.5,6.5c-3.6,0-6.5-2.9-6.5-6.5V306.8
			l-18.9,6.9c-1.7,0.6-2.9,2.2-2.9,4.1v25.1c-2.8-0.8-5.7-1.3-8.7-1.3c-16.8,0-30.5,13.7-30.5,30.5v45.7c0,3.6-2.9,6.5-6.5,6.5
			c-3.6,0-6.5-2.9-6.5-6.5V306.8l-18.9,6.9c-1.7,0.6-2.9,2.2-2.9,4.1v11.3c0,3.6-3.3,6.5-6.5,6.5c-2.9,0-5.2-1.6-6.2-4.4
			c-4.3-11.7-15.5-20.1-28.7-20.1c-16.8,0-30.5,13.7-30.5,30.5v69.7c0,16.8,13.7,30.5,30.5,30.5c16.8,0,30.5-13.6,30.5-30.5v-61
			c4,0,7.7-1.1,10.9-3v70.5c0,13.2,10.7,23.9,24,23.9c7.8,0,14.8-3.8,19.2-9.6c5.6,5.9,13.4,9.6,22.2,9.6c6.5,0,12.5-2,17.4-5.5
			c4.1,3.4,9.5,5.5,15.2,5.5c6.9,0,13.1-2.9,17.4-7.5c4.4,4.6,10.6,7.5,17.4,7.5c7.8,0,14.8-3.8,19.2-9.6c5.6,5.9,13.4,9.6,22.2,9.6
			C331.7,441.8,342.2,434.6,347.1,424.1z M112.6,415.6c0,4.8-3.9,8.7-8.7,8.7c-4.8,0-8.7-3.9-8.7-8.7v-78.4c0-4.8,3.9-8.7,8.7-8.7
			c4.8,0,8.7,3.9,8.7,8.7V415.6z M219.3,415.6c0,4.8-3.9,8.7-8.7,8.7c-4.8,0-8.7-3.9-8.7-8.7v-47.9c0-4.8,3.9-8.7,8.7-8.7
			c4.8,0,8.7,3.9,8.7,8.7V415.6z M310.7,367.7c0-4.8,3.9-8.7,8.7-8.7c4.8,0,8.7,3.9,8.7,8.7v8.7c0,4.8-3.9,8.7-8.7,8.7h-8.7V367.7z
			 M310.7,415.6v-13.1h8.7c14.4,0,26.5-10,29.7-23.4c6.1,10.5,18.8,19.1,27,26.2c4.3,3.8,8.7,7.6,8.7,11.8s-3.6,7.2-8.7,7.2
			c-5.1,0-8.7-3.7-8.7-8.7v-2.2c0-2.4-2-4.4-4.4-4.4h-34.8v6.5c0,4.8-3.9,8.7-8.7,8.7C314.6,424.4,310.7,420.5,310.7,415.6z
			 M641.7,332.9c7.2,0,13.1-5.9,13.1-13.1c0-7.2-5.8-13.1-13.1-13.1c-7.2,0-13.1,5.9-13.1,13.1C628.6,327,634.5,332.9,641.7,332.9z
			 M265,332.9c7.2,0,13.1-5.9,13.1-13.1c0-7.2-5.9-13.1-13.1-13.1c-7.2,0-13.1,5.9-13.1,13.1C251.9,327,257.8,332.9,265,332.9z
			 M696.1,341.6c-16.8,0-30.5,13.7-30.5,30.5v45.7c0,3.6-2.9,6.5-6.5,6.5c-3.6,0-6.5-2.9-6.5-6.5v-76.2l-18.9,6.8
			c-1.7,0.6-2.9,2.2-2.9,4.1v65.3c0,3.6-2.9,6.5-6.5,6.5c-3.6,0-6.5-2.9-6.5-6.5V306.8l-18.9,6.9c-1.7,0.6-2.9,2.2-2.9,4.1v25.1
			c-2.8-0.8-5.7-1.3-8.7-1.3c-16.8,0-30.5,13.7-30.5,30.5v45.7c0,3.6-2.9,6.5-6.5,6.5c-3.6,0-6.5-2.9-6.5-6.5l0-46.8
			c0-16.2-13.2-29.4-29.4-29.4c-16.2,0-29.4,13.2-29.4,29.4v3.3h15.3c2.4,0,4.3-2,4.3-4.4v-2.2c0-4.8,3.9-8.7,8.7-8.7
			c4.8,0,8.7,3.9,8.7,8.7v13.1h-8.7c-16.8,0-30.5,13.7-30.5,30.5v6.5c0,3.6-2.9,6.5-6.5,6.5c-2.8,0-5.2-1.8-6.1-4.3l-7.9-17.8
			c-0.9-2-2.8-3.5-5.1-3.8l-11-1.6c-0.7-0.1-1.3-0.7-1.3-1.5c0-0.8,0.7-1.5,1.5-1.5c16.5-0.4,29.8-14,29.8-30.5v-19.6
			c0-16.8-13.7-30.5-30.5-30.5h-30.5v126.3h17.4c2.4,0,4.4-2,4.4-4.4v-37l12.9,29.3c3.7,8.4,12.1,14.3,21.9,14.3
			c7.8,0,14.8-3.8,19.2-9.6c5.6,5.9,13.4,9.6,22.2,9.6c6.5,0,12.5-2,17.4-5.5c4.1,3.4,9.5,5.5,15.2,5.5c7.8,0,14.8-3.8,19.2-9.6
			c5.6,5.9,13.4,9.6,22.2,9.6c6.5,0,12.5-2,17.4-5.5c4.1,3.4,9.5,5.5,15.2,5.5c6.9,0,13.1-2.9,17.4-7.5c4.4,4.6,10.6,7.5,17.4,7.5
			c7.8,0,14.8-3.8,19.2-9.6c5.6,5.9,13.4,9.6,22.2,9.6c16.8,0,30.5-13.6,30.5-30.5v-39.2C726.6,355.3,713,341.6,696.1,341.6z
			 M437,330.7h8.7c4.8,0,8.7,3.9,8.7,8.7v28.3c0,4.8-3.9,8.7-8.7,8.7H437V330.7z M521.9,415.6c0,4.8-3.9,8.7-8.7,8.7
			c-4.8,0-8.7-3.9-8.7-8.7v-8.7c0-4.8,3.9-8.7,8.7-8.7h8.7V415.6z M596,415.6c0,4.8-3.9,8.7-8.7,8.7c-4.8,0-8.7-3.9-8.7-8.7v-47.9
			c0-4.8,3.9-8.7,8.7-8.7c4.8,0,8.7,3.9,8.7,8.7V415.6z M704.9,415.6c0,4.8-3.9,8.7-8.7,8.7s-8.7-3.9-8.7-8.7v-47.9
			c0-4.8,3.9-8.7,8.7-8.7s8.7,3.9,8.7,8.7V415.6z"/>
		<g>
			<path class="st0" d="M305.2,483.2c-10.9,0-19.7,8.8-19.7,19.7v25.3c0,10.9,8.8,19.7,19.7,19.7c10.9,0,19.7-8.8,19.7-19.7v-25.3
				C324.8,492,316,483.2,305.2,483.2z M313.6,531c0,4.7-3.8,8.4-8.4,8.4c-4.7,0-8.4-3.8-8.4-8.4v-30.9c0-4.7,3.8-8.4,8.4-8.4
				c4.7,0,8.4,3.8,8.4,8.4V531z"/>
			<rect x="383.8" y="465" class="st0" width="11.3" height="81.5"/>
			<rect x="404.9" y="484.6" class="st0" width="11.3" height="61.8"/>
			<path class="st0" d="M410.5,463.6c-3.9,0-7,3.1-7,7c0,3.9,3.1,7,7,7c3.9,0,7-3.1,7-7C417.6,466.7,414.4,463.6,410.5,463.6z"/>
			<path class="st0" d="M354.3,483.2c-10.9,0-19.7,8.8-19.7,19.7v43.5h11.3l0-46.4c0-4.7,3.8-8.4,8.4-8.4c4.7,0,8.4,3.8,8.4,8.4
				v28.1l0,0v18.3H374v-18.3v-25.3C374,492,365.2,483.2,354.3,483.2z"/>
			<path class="st0" d="M445.7,483.2c-10.9,0-19.7,8.8-19.7,19.7v43.5h11.3l0-46.4c0-4.7,3.8-8.4,8.4-8.4c4.7,0,8.4,3.8,8.4,8.4
				v28.1l0,0v18.3h11.3v-18.3v-25.3C465.3,492,456.5,483.2,445.7,483.2z"/>
			<path class="st0" d="M514.5,519.7v-16.9c0-10.9-8.8-19.7-19.7-19.7c-10.9,0-19.7,8.8-19.7,19.7v25.3c0,10.9,8.8,19.7,19.7,19.7
				c10.9,0,19.7-8.8,19.7-19.7v0h-11.2v2.8c0,4.7-3.8,8.4-8.4,8.4c-4.7,0-8.4-3.8-8.4-8.4v-11.2H514.5z M494.8,491.6
				c4.7,0,8.4,3.8,8.4,8.4v11.2h-16.9v-11.2C486.4,495.4,490.2,491.6,494.8,491.6z"/>
		</g>
	</g>
</g>
</svg>
