<?xml version="1.0" encoding="utf-8"?>
<!-- Generator: Adobe Illustrator 25.2.0, SVG Export Plug-In . SVG Version: 6.00 Build 0)  -->
<svg version="1.1" id="Vrstva_1" xmlns="http://www.w3.org/2000/svg" xmlns:xlink="http://www.w3.org/1999/xlink" x="0px" y="0px"
	 viewBox="0 0 595.3 435" style="enable-background:new 0 0 595.3 435;" xml:space="preserve">
<style type="text/css">
	.st0{fill-rule:evenodd;clip-rule:evenodd;fill:#FFFFFF;}
	.st1{fill-rule:evenodd;clip-rule:evenodd;}
	.st2{fill-rule:evenodd;clip-rule:evenodd;fill:#009FE3;}
	.st3{fill-rule:evenodd;clip-rule:evenodd;fill:#FFCC00;}
	.st4{fill:#FFFFFF;}
</style>
<path class="st0" d="M561.5,75.3c2,1.6,3.9,3.4,5.5,5.4c6.4,7.7,9.4,17.1,9.4,27.1v137.6c0,9.9-3,19.2-9.4,26.9
	c-1.5,1.8-3.2,3.5-5.1,5.1v86.1c0,32.8-26.9,59.6-59.6,59.6H93c-32.8,0-59.6-26.8-59.6-59.6V270c-3.6-3.1-6.7-6.7-9.1-10.9
	c-3.5-6.1-5.4-12.9-5.4-19.9v-1.1l0.1-1.1c0.8-8,3.1-15.8,7.6-22.6c1.9-2.9,4.2-5.6,6.8-7.9v-16.5c-3.3-4.6-5.9-9.6-7.7-15
	c-3-8.8-4-18.2-4-27.5c0-14.6,3.4-28.8,11.8-40.9V82.6C33.3,49.8,60.1,23,93,23h409.4C532.5,23,557.9,45.8,561.5,75.3"/>
<path class="st1" d="M552,80.8c2.8,1.6,5.3,3.7,7.4,6.2c4.9,5.9,7.1,13.1,7.1,20.8v137.6c0,7.6-2.2,14.7-7.1,20.5
	c-2.2,2.6-4.6,4.7-7.4,6.2v91.3c0,27.3-22.4,49.7-49.7,49.7H93c-27.4,0-49.7-22.4-49.7-49.7v-98.4c-4.2-2.8-7.9-6.4-10.4-10.9
	c-2.6-4.6-4-9.7-4-15v-0.6l0.1-0.6c0.7-6.4,2.4-12.7,6-18.2c2.3-3.5,5.1-6.4,8.4-8.4v-24.9c-3.7-4.4-6.4-9.4-8.3-14.8
	c-2.7-7.7-3.5-16.1-3.5-24.2c0-13,3-25.5,10.6-36.2c0.4-0.5,0.7-1,1.1-1.5V82.6c0-27.4,22.4-49.7,49.7-49.7h409.4
	C529.1,32.9,551,54.3,552,80.8"/>
<path class="st2" d="M93,405.2h409.4c21.4,0,38.9-17.5,38.9-38.9V137.7c0-21.4-17.6-38.9-38.9-38.9H93c-21.3,0-38.9,17.6-38.9,38.9
	v228.6C54.1,387.6,71.6,405.2,93,405.2"/>
<path class="st3" d="M541.2,300.2c-232.6-91.6-241.7,56.1-487.1-16.2V82.6c0-21.4,17.6-38.9,38.9-38.9h409.4
	c21.3,0,38.9,17.6,38.9,38.9V300.2z"/>
<path class="st0" d="M284.3,330.8c-68.6,26.7-159,29-227.7,13.2c-1-0.2-2.1-4.3-2.4-10.5c-0.7-12,0-30.5-0.1-33.8l1.2,0.6
	c245.4,66.2,253.3-82.3,485.9,3.6C410,265.4,358.4,302,284.3,330.8"/>
<path class="st4" d="M506.9,357.5c0-3-0.5-5.7-1.6-8.3c-1.1-2.5-2.7-4.6-4.7-6.1c-2.1-1.5-4.5-2.3-7.3-2.3c-2.8,0-5.2,0.8-7.3,2.3
	c-2.1,1.5-3.7,3.6-4.8,6.1c-1.1,2.6-1.7,5.3-1.7,8.2c0,3,0.6,5.7,1.7,8.3c1.1,2.6,2.7,4.6,4.8,6.1c2.1,1.5,4.5,2.3,7.3,2.3
	c2.8,0,5.2-0.8,7.3-2.3c2.1-1.5,3.6-3.5,4.7-6.1C506.3,363.3,506.9,360.5,506.9,357.5 M493.2,383.4c-4.7,0-8.9-1.1-12.7-3.3
	c-3.8-2.2-6.8-5.2-9-9.2c-2.2-3.9-3.3-8.4-3.3-13.4c0-5,1.1-9.4,3.3-13.4c2.2-3.9,5.2-7,9-9.2c3.8-2.2,8.1-3.3,12.7-3.3
	c3.5,0,6.8,0.6,9.9,1.8c3.1,1.2,5.7,3,8,5.3c2.3,2.3,4.1,5.1,5.3,8.2c1.3,3.2,1.9,6.6,1.9,10.4c0,3.8-0.6,7.3-1.9,10.4
	c-1.3,3.2-3,5.9-5.3,8.2c-2.3,2.3-5,4.1-8.1,5.3C499.9,382.7,496.6,383.4,493.2,383.4z M464.7,339.2v36.7c0,1.7-0.6,3.2-1.9,4.4
	c-1.3,1.2-2.7,1.8-4.4,1.8c-1.8,0-3.2-0.6-4.4-1.8c-1.2-1.2-1.8-2.7-1.8-4.4v-36.7c0-1.7,0.6-3.2,1.8-4.4c1.2-1.3,2.7-1.9,4.4-1.9
	c1.2,0,2.2,0.3,3.2,0.9c1,0.6,1.7,1.3,2.3,2.3C464.4,337,464.7,338,464.7,339.2z M452.2,319.7c0-1.7,0.6-3.2,1.8-4.4
	c1.2-1.2,2.7-1.9,4.4-1.9c1.7,0,3.2,0.6,4.5,1.8c1.2,1.2,1.8,2.7,1.8,4.4c0,1.8-0.6,3.3-1.8,4.5c-1.2,1.2-2.7,1.8-4.5,1.8
	c-1.7,0-3.2-0.6-4.4-1.8C452.8,322.9,452.2,321.4,452.2,319.7z M423.5,342c-2.4,0-4.5,0.6-6.3,1.8c-1.7,1.2-3.1,3-4,5.2
	c-0.9,2.2-1.4,4.9-1.4,8c0,4.6,1,8.2,3.1,10.9c2.1,2.7,4.9,4,8.5,4c3.6,0,6.4-1.3,8.5-4c2.1-2.7,3.1-6.3,3.1-10.9
	c0-4.7-1-8.3-3.1-11C430,343.3,427.1,342,423.5,342z M433.9,375.9c-1.3,1.5-2.3,2.5-3.1,3.2c-0.8,0.7-2.2,1.4-4,2
	c-1.9,0.7-4.4,1-7.4,1c-3.7,0-7-1.1-9.9-3.2c-2.9-2.1-5.1-5.1-6.7-8.9c-1.5-3.8-2.3-8.2-2.3-13.1c0-5,0.8-9.4,2.3-13.2
	c1.6-3.8,3.8-6.8,6.7-8.9c2.9-2.1,6.2-3.2,9.9-3.2c2,0,3.8,0.3,5.5,0.9c1.6,0.6,2.9,1.2,4,1.9c1.1,0.7,2.1,1.5,3,2.3
	c0.9,0.8,1.5,1.2,1.7,1.2c0.3,0,0.4-0.4,0.4-1.1v-17.1c0-1.7,0.6-3.2,1.8-4.4c1.2-1.2,2.7-1.9,4.5-1.9c1.8,0,3.2,0.6,4.5,1.8
	c1.2,1.2,1.8,2.7,1.8,4.5v56.2c0,1.1-0.3,2.2-0.9,3.1c-0.6,1-1.3,1.7-2.3,2.3c-1,0.6-2,0.9-3.2,0.9c-1.7,0-3.2-0.6-4.4-1.9
	C434.5,379.1,433.9,377.6,433.9,375.9z M375.5,328.5c-0.9,0.6-1.7,0.9-2.5,0.9c-0.7,0-1.3-0.2-2-0.7c-0.6-0.5-1-1.2-1-2.3
	c0-0.9,0.2-1.7,0.8-2.6l5.6-8.5c0.8-1.2,1.9-1.8,3.5-1.8c0.9,0,1.8,0.2,2.7,0.7c0.9,0.5,1.7,1.2,2.3,2.1c0.6,0.9,0.9,2,0.9,3.3
	c0,1.6-0.6,2.8-1.7,3.5L375.5,328.5z M384.5,357.8c-1.6,0.5-3.5,1-5.7,1.6c-2.2,0.6-4.7,1.2-7.5,1.7c-4.2,0.8-6.3,2.8-6.3,6
	c0,1.8,0.7,3.4,2,4.6c1.3,1.2,3.4,1.8,6.3,1.8c2.9,0,5.6-0.7,7.9-2c2.3-1.3,3.5-3.1,3.5-5.3V357.8z M361.1,349.6
	c-3.4,0-5.1-1.7-5.1-5.1c0-2.5,0.8-4.7,2.4-6.6c1.6-1.9,3.9-3.5,7-4.5c3.1-1.1,6.6-1.6,10.7-1.6c6.2,0,11.1,1.1,14.8,3.3
	c3.7,2.2,5.6,5.6,5.6,10v31.1c0,1.6-0.6,3-1.8,4.2c-1.2,1.2-2.6,1.8-4.2,1.8c-1.6,0-2.9-0.5-4-1.5c-1.1-1-1.7-2.3-1.9-3.9
	c-2.1,2-4.3,3.4-6.7,4.2c-2.4,0.8-5.2,1.2-8.5,1.2c-2.8,0-5.4-0.6-8-1.7s-4.6-2.7-6.2-4.8c-1.6-2.1-2.4-4.6-2.4-7.6
	c0-4.9,1.4-8.4,4.3-10.6c2.9-2.2,6.2-3.7,10-4.4c3.8-0.7,7.7-1.6,11.7-2.6c4-1,6-2.7,6-5.1c0-1.7-0.9-3-2.7-3.9
	c-1.8-0.9-4-1.4-6.8-1.4c-2.2,0-3.8,0.4-4.8,1.2c-1,0.8-1.9,2-2.7,3.6c-0.8,1.6-1.6,2.8-2.4,3.6
	C364.5,349.2,363.1,349.6,361.1,349.6z M341.9,344c-5.1,2-7.6,6.1-7.6,12.4v19.6c0,1.7-0.6,3.2-1.9,4.4c-1.3,1.2-2.7,1.8-4.5,1.8
	c-1.7,0-3.2-0.6-4.4-1.9c-1.2-1.3-1.8-2.7-1.8-4.4V338c0-1.1,0.3-2.2,0.9-3.2c0.6-1,1.3-1.7,2.3-2.3c1-0.6,2-0.9,3.2-0.9
	c1.7,0,3.2,0.6,4.4,1.9c1.2,1.2,1.8,2.7,1.8,4.4c1.4-1.6,3-3,4.9-4.3c1.9-1.3,3.9-2,5.8-2c4,0,6,2,6,6.1c0,1.6-0.4,2.7-1.3,3.4
	c-0.9,0.7-2.3,1.3-4.3,1.8C343.3,343.6,342.1,343.9,341.9,344z"/>
<path class="st1" d="M460.2,185.1c-2.5,0-3.7,1-5.1,3.1c-2.8,4.2-3.6,9.4-3.6,14.3c0,4.9,0.9,9.8,3.7,14c1.3,2,2.6,3.1,5,3.1
	c2.6,0,4-0.6,5.5-2.8c2.7-4.1,3.4-9.6,3.4-14.4c0-4.6-0.6-10.1-3.2-14.1C464.4,186.1,462.9,185.1,460.2,185.1 M241,185.1
	c-2.5,0-3.7,1-5.1,3.1c-2.8,4.2-3.6,9.4-3.6,14.3c0,5.1,0.8,10.4,3.5,14.7c1.3,2.2,2.6,2.9,5.2,2.9c2.6,0,4-0.6,5.4-2.8
	c2.7-4.3,3.4-9.9,3.4-14.8c0-4.6-0.6-10.1-3.2-14.1C245.2,186.1,243.7,185.1,241,185.1z M147.4,136.7c-1.3-1.1-2.6-2.4-3.8-3.8
	c0,0,0-0.1-0.1-0.1c-1.1,4-3.1,7.7-6,11c-5.1,5.6-11.9,8.4-19.5,8.4h-1.4l-1.3-0.3c-8.1-1.8-16.1-3.7-24.2-5.7c-0.1,0-0.2,0-0.2,0
	c1.8,0.8,3.8,1.5,5.4,2.1l0.2,0.1l0.2,0.1c7.7,3.4,15.5,6.9,23.2,10.3c2.8,1.2,6.5,2.7,9.1,4.2l0.5,0.3l0.4,0.3
	c3.1,2.2,5.9,4.6,8.4,7.2v-11.1c0-7.6,2.1-14.7,6.8-20.7C146,138.2,146.7,137.4,147.4,136.7z M511.8,112.1c-0.4,1.3-0.9,2.6-1.5,3.8
	c-2.3,4.9-6.2,8.4-11.1,10.6l-7.4,3.6c1.5-0.3,3.1-0.4,4.7-0.4c5.7,0,10.9,1.8,15.4,5V112.1z M54.1,207.9c0.7-0.1,1.3-0.1,2-0.1
	c7.2,0,17.5,4.6,24,7.5c1.5,0.7,5.1,2.2,6.7,2.2H90c1.7,0,3.1-0.3,4.5-1.3c0.1-0.3,0.1-0.7,0.1-0.9c0-1.1-0.4-1.5-1.2-2.2
	c-1.8-1.5-5-2.7-7.2-3.5c-3.8-1.3-7.7-2.7-11.5-4c-6.9-2.5-14.2-5.6-20.6-9.7V207.9z M541.2,275.5c-0.7,0-1.3,0.1-2,0.1
	c-8.1,0-15.2-3.2-20.4-9.4c-0.3-0.4-0.7-0.8-1-1.3c-4.4,6.2-10.9,9.9-18.6,10.6l-0.6,0.1H498c-6.1,0-11.8-1.7-16.6-5.2
	c-1.7,1.1-3.4,2.1-5.3,3c-6.2,2.9-12.8,4.4-19.6,4.4c-19.1,0-34.1-9.4-44.9-24.9c-0.2-0.2-0.3-0.5-0.5-0.7c-0.9,5.1-3,9.9-6.5,14
	c-5.1,6.1-12.2,9.4-20.2,9.4c-8.1,0-15.2-3.2-20.4-9.4c-4.9-5.9-7.1-13.1-7.1-20.7V190c0-2.5-0.4-5.6-2-7.6c-0.8-1-1.3-1.2-2.5-1.2
	c-1.2,0-2.1,0.1-2.8,1.1c-1.6,2.2-2.1,5.1-2.1,7.8v55.5c0,7.6-2.1,14.8-7,20.6c-5.2,6.2-12.3,9.4-20.4,9.4c-6.5,0-12.3-2.2-17.1-6.3
	c-0.3,1.6-0.6,3.3-0.9,4.9c-2.4,10.5-6.9,20.2-14,28.3c-6.8,7.7-15,13.4-24.6,16.9c-8.3,3.1-17.2,4.3-26,4.3
	c-13.6,0-28.5-2-40.1-9.6c-9.3-6-15.2-14.7-17.5-25.5l-0.4-1.8l0.2-1.9c1.1-11.7,7.1-20.7,17.4-24.9c-1.8-1.9-3.5-4-5.1-6.3
	c-1.1,4.5-3.1,8.7-6.2,12.3c-5.1,6.2-12.2,9.5-20.3,9.5c-8.1,0-15.2-3.2-20.4-9.4c-2.8-3.3-4.6-7.1-5.7-11.1
	c-5.8,7.1-13,12.6-21.4,16.5c-9.3,4.4-19.3,6.2-29.5,6.2c-8.2,0-16.7-0.8-24.6-3c-3.5-1-6.8-2.2-10.1-3.7v91.8
	c0,21.3,17.5,38.9,38.9,38.9h409.4c21.4,0,38.9-17.5,38.9-38.9V275.5z M552,80.8c2.8,1.6,5.3,3.7,7.4,6.2c4.9,5.9,7.1,13.1,7.1,20.8
	v137.6c0,7.6-2.2,14.7-7.1,20.5c-2.2,2.6-4.6,4.7-7.4,6.2v91.3c0,27.3-22.4,49.7-49.7,49.7H93c-27.4,0-49.7-22.4-49.7-49.7v-98.4
	c-4.2-2.8-7.9-6.4-10.4-10.9c-2.6-4.6-4-9.7-4-15v-0.6l0.1-0.6c0.7-6.4,2.4-12.7,6-18.2c2.3-3.5,5.1-6.4,8.4-8.4v-24.9
	c-3.7-4.4-6.4-9.4-8.3-14.8c-2.7-7.7-3.5-16.1-3.5-24.2c0-13,3-25.5,10.6-36.2c0.4-0.5,0.7-1,1.1-1.5V82.6
	c0-27.4,22.4-49.7,49.7-49.7h409.4C529.1,32.9,551,54.3,552,80.8z M512.9,99.1c1.1-4.2,3-8.2,5.8-11.7c5.1-6.4,12.3-9.8,20.5-9.8
	c0.6,0,1.1,0,1.7,0.1c-2.5-19-18.9-33.9-38.6-33.9H93c-21.3,0-38.9,17.6-38.9,38.9v16.5c3.9-2.9,8.1-5.3,12.7-7.3l0.4-0.2l0.4-0.2
	c4-1.4,8.2-2.5,12.4-3.4c4.8-0.9,9.6-1.4,14.4-1.4c10,0,19.8,1.8,28.9,6.1c5.1,2.4,9.6,5.5,13.1,9.2c1.2-5.2,3.5-10,7.1-14.2
	c5.7-6.8,13.4-10.5,22.3-10.5c8.6,0,16.1,3.7,21.9,10.1c5.8,6.4,8.6,14.3,8.6,22.9c0,8.5-2.8,16.3-8.4,22.8
	c-1.2,1.4-2.5,2.6-3.8,3.7c0.7,0.7,1.3,1.4,1.9,2.1c3.3,4,5.4,8.6,6.5,13.5c3.6-5.4,7.9-10.2,12.9-14.3c8.7-7,18.8-11,30-11
	c8,0,15.9,1.4,23,5.3c1.3,0.7,2.5,1.5,3.7,2.3c4.5-3.2,9.7-4.9,15.2-4.9c7.7,0,14.5,3.2,19.7,8.9c0.7,0.7,1.3,1.5,1.9,2.3
	c0.5-0.6,1-1.3,1.5-1.9c5.1-6.1,12-9.7,20.1-9.7c5.9,0,11.4,1.7,16.2,5.1c0.7-0.5,1.5-1,2.2-1.4c7.8-4.5,16.9-5.9,25.8-5.9
	c12.5,0,23.9,4.1,32.8,13c5.2,5.2,8.7,11.2,11,17.8c4.4-7.7,10.1-14.5,17.1-20.1c3.1-2.5,6.4-4.6,9.9-6.2c-2.5-4.5-3.5-9.5-3.5-14.7
	c0-4.4,0.8-8.8,2.8-12.8c2.3-4.8,6.2-8.4,11.1-10.6l29.1-14.4l0.4-0.2c4.2-1.7,8.8-3.1,13.4-3.1c7.5,0,14,3.1,18.6,9
	C510.4,89,512.3,93.9,512.9,99.1z"/>
<path class="st4" d="M523.9,245.5V107.8c0-5.1,1.4-9.4,4.2-12.9c2.8-3.5,6.5-5.3,11-5.3c4.4,0,8,1.7,10.9,5.1
	c2.9,3.4,4.3,7.8,4.3,13v137.6c0,5.1-1.4,9.3-4.3,12.8c-2.9,3.4-6.5,5.1-10.9,5.1c-4.5,0-8.2-1.7-11-5
	C525.3,255,523.9,250.7,523.9,245.5 M494.1,115.4l-29.4,14.3c-2.5,1.3-5.3,2.2-8.6,2.7c-3.8-0.4-6.8-2.1-9-4.9
	c-2.2-2.8-3.3-6.4-3.3-10.7c0-2.8,0.5-5.3,1.6-7.5c1-2.2,2.8-3.8,5.3-4.8l29-14.3c3.6-1.5,6.6-2.2,8.8-2.2c3.8,0,6.8,1.5,9.1,4.4
	c2.3,2.9,3.4,6.5,3.4,10.9c0,2.8-0.5,5.3-1.6,7.5C498.3,112.8,496.6,114.4,494.1,115.4z M460.2,173c-6.4,0-11.4,2.8-15.2,8.5
	c-3.8,5.7-5.6,12.7-5.6,21c0,8.1,1.9,15,5.6,20.7c3.8,5.7,8.8,8.6,15.2,8.6c6.7,0,11.9-2.7,15.6-8.2c3.6-5.4,5.5-12.5,5.5-21.1
	c0-8.5-1.8-15.4-5.3-20.8C472.1,175.9,466.8,173,460.2,173z M416.6,168c4.2-8.5,9.6-15.4,16.4-20.8c6.8-5.4,14-8.1,21.6-8.1
	c6.8,0,12.5,1.3,17.1,3.8c3.8,2.1,7.3,5.4,10.7,9.8c1.2-3.6,3-6.3,5.6-8.2c2.6-1.9,5.4-2.8,8.4-2.8c4.2,0,7.7,1.6,10.7,4.9
	c3,3.3,4.5,7.8,4.5,13.4v85.3c0,4.5-1.2,8.5-3.5,12c-2.3,3.5-5.7,5.5-10.1,5.9c-4.4,0-8.1-1.4-11.1-4.3c-2.2-2.1-3.7-4.3-4.5-6.7
	c-3.1,4.5-6.9,7.8-11.5,10c-4.5,2.2-9.3,3.2-14.4,3.2c-14.1,0-25.8-6.6-34.9-19.7c-8.4-12.2-12.7-26.7-12.7-43.4
	c0-6.3,0.7-12.3,2-18.2C412.4,178.4,414.3,173,416.6,168z M335.5,152.8c2.7-4.2,5.8-7.3,9.3-9.4c4.9-2.8,11.5-4.3,19.7-4.3
	c9.9,0,17.9,3.1,24.1,9.4c7.3,7.3,10.9,17.9,10.9,31.8v65.1c0,5.2-1.4,9.5-4.2,12.9c-2.8,3.4-6.4,5-10.9,5c-4.6,0-8.3-1.7-11.1-5
	c-2.8-3.4-4.2-7.6-4.2-12.9V190c0-6.3-1.6-11.3-4.6-15.2c-3.1-3.9-7.1-5.8-12-5.8c-5.4,0-9.6,2-12.6,6c-3,4-4.4,9-4.4,15v55.5
	c0,5.2-1.4,9.5-4.2,12.9c-2.8,3.4-6.5,5-11,5c-4.4,0-8-1.7-10.9-5.1c-2.9-3.4-4.3-7.7-4.3-12.8v-85.7c0-5.1,1.5-9.4,4.5-13
	c3-3.6,6.6-5.4,10.7-5.4c3.9,0,7.3,1.2,10.1,3.6C332.8,146.9,334.5,149.5,335.5,152.8z M241,173c-6.4,0-11.4,2.8-15.2,8.5
	c-3.8,5.7-5.6,12.7-5.6,21c0,8.4,1.8,15.4,5.4,21.1c3.6,5.7,8.7,8.6,15.5,8.6c6.9,0,12.1-2.8,15.7-8.4c3.6-5.6,5.4-12.7,5.4-21.4
	c0-8.5-1.8-15.4-5.3-20.8C252.9,175.9,247.6,173,241,173z M197.4,168c4.2-8.7,9.3-15.5,15.6-20.6c6.9-5.5,14.3-8.3,22.4-8.3
	c6.8,0,12.5,1.3,17.1,3.8c3.8,2.1,7.3,5.4,10.7,9.8c1.2-3.6,3.1-6.3,5.6-8.2c2.6-1.9,5.4-2.8,8.4-2.8c4.2,0,7.7,1.6,10.7,4.9
	c3,3.3,4.5,7.8,4.5,13.4v88.6c0,9.2-0.6,16.8-1.9,22.6c-2.1,9.1-5.8,16.7-11.3,22.9c-5.5,6.2-12,10.7-19.7,13.5
	c-6.5,2.4-13.8,3.6-21.8,3.6c-14.5,0-25.7-2.5-33.5-7.6c-6.5-4.2-10.6-10.1-12.3-17.9c0.8-8.5,5-13.7,12.7-15.7
	c1.9,0.2,4.2,0.9,6.8,2.2c3.5,1.9,6.3,3.4,8.3,4.5c2,1,4.7,1.9,8.1,2.7c3.4,0.7,6.4,1.1,9.2,1.1c7.4,0,13.4-2.6,18.1-7.8
	c4.7-5.2,7-12.2,7-21v-2.2c-3,4.5-6.8,7.9-11.5,10.2c-4.7,2.3-10,3.5-16,3.5c-17.8,0-30.6-9.2-38.4-27.5c-4.3-11-6.4-22-6.4-32.9
	c0-6.7,0.6-12.9,1.9-18.6C192.9,178.7,194.8,173.3,197.4,168z M165.8,131.3c-5.1,0-9.3-2.1-12.9-6.3c-3.5-4.2-5.3-9.1-5.3-14.8
	c0-5.7,1.7-10.6,5.2-14.7c3.4-4.1,7.8-6.2,12.9-6.2c4.9,0,9.2,2,12.9,6c3.6,4,5.5,8.9,5.5,14.8c0,5.7-1.8,10.6-5.5,14.8
	C175,129.2,170.7,131.3,165.8,131.3z M150.6,245.5v-85.7c0-5.2,1.4-9.6,4.2-13.1c2.8-3.5,6.5-5.3,11-5.3c4.3,0,7.9,1.8,10.8,5.3
	c2.9,3.5,4.4,7.9,4.4,13.1v85.7c0,5.1-1.4,9.3-4.3,12.8c-2.9,3.4-6.5,5.1-10.9,5.1c-4.5,0-8.2-1.7-11-5
	C152,255,150.6,250.7,150.6,245.5z M43.6,147.4c0-11.6,2.8-21.3,8.4-29.1c4.7-6.6,11.2-11.7,19.7-15.4c3.4-1.2,6.9-2.2,10.7-2.9
	c3.8-0.7,7.8-1.1,12.1-1.1c8.8,0,16.7,1.6,23.8,4.9c9.6,4.5,14.4,11,14.4,19.7c0,5.1-1.4,9.1-4.1,12.1c-2.7,3-6.2,4.5-10.5,4.5
	c-8.6-1.9-17.1-4-25.7-6c-3.8,0-7.1,1-10,2.9c-2.9,1.9-4.6,4.8-5,8.7c0,4.6,1.8,8,5.3,10.1c1.3,0.7,4.4,2.1,9.3,4
	c20.5,9.1,30.9,13.7,31.2,13.9C135,182,141,194.8,141,212.1c0,13.9-3.3,25.3-9.9,34.2c-4.8,6.1-10.8,10.9-17.9,14.2
	c-7.1,3.4-15.3,5-24.3,5c-8.2,0-15.3-0.9-21.3-2.6c-6-1.7-11.6-4.2-16.6-7.5c-3.4-2.1-5.9-4.5-7.5-7.4c-1.6-2.8-2.4-5.8-2.4-9
	c0.5-5.1,1.9-9.3,4.1-12.8c2.9-4.3,6.6-6.5,11.1-6.5c3.1,0,9.5,2.1,19.1,6.4c4.8,2.1,8.7,3.2,11.7,3.2H90c4.4,0,8.3-1.2,11.7-3.6
	c3.4-2.4,5.1-6,5.1-10.7c0-4.6-1.9-8.5-5.6-11.6c-2.6-2.1-6.2-4-10.9-5.6c-4.7-1.6-8.5-3-11.5-4c-10.5-3.7-18.4-8-23.8-12.8
	c-3.8-3.6-6.6-8.1-8.5-13.5C44.6,162.3,43.6,155.5,43.6,147.4z"/>
</svg>
