<?xml version="1.0" encoding="utf-8"?>
<!-- Generator: Adobe Illustrator 25.2.0, SVG Export Plug-In . SVG Version: 6.00 Build 0)  -->
<svg version="1.1" id="Vrstva_1" xmlns="http://www.w3.org/2000/svg" xmlns:xlink="http://www.w3.org/1999/xlink" x="0px" y="0px"
	 viewBox="0 0 841.9 841.9" style="enable-background:new 0 0 841.9 841.9;" xml:space="preserve">
<style type="text/css">
	.st0{fill:url(#SVGID_1_);}
	.st1{fill:#FFFFFF;}
</style>
<linearGradient id="SVGID_1_" gradientUnits="userSpaceOnUse" x1="923.543" y1="520.371" x2="-80.5431" y2="-20.371" gradientTransform="matrix(1 0 0 -1 0 671)">
	<stop  offset="0" style="stop-color:#C30C2B"/>
	<stop  offset="0.4236" style="stop-color:#C30C2B"/>
	<stop  offset="1" style="stop-color:#432C79"/>
</linearGradient>
<rect x="0.5" y="0" class="st0" width="841.9" height="841.9"/>
<path class="st1" d="M40,466.2h17.2l25.8,39.6v-39.6h16.2v66.7h-17l-26-39.7v39.7H40V466.2z M146.6,463.9c21,0,35.9,15.7,35.9,35.6
	s-14.9,35.6-35.9,35.6c-21,0-35.8-15.7-35.8-35.6S125.5,463.9,146.6,463.9L146.6,463.9z M146.6,519.6c11.8,0,19.3-8.9,19.3-20.1
	s-7.6-20.1-19.3-20.1c-11.8,0-19.3,8.9-19.3,20.1S134.7,519.6,146.6,519.6L146.6,519.6z M193.9,466.2h27.9
	c14.3,0,23.7,8.7,23.7,21.2c0,11.7-5.9,18.2-15.8,20.7l18,24.8h-20.4l-17-24.9v24.9h-16.3L193.9,466.2z M223.3,495
	c3.7,0,6.1-3.8,6.1-7.7s-2.9-7.3-6.6-7.3h-12.7v15L223.3,495z M264.1,480.6h-14.9v-14.4h46.5v14.4h-15.1v52.2h-16.4L264.1,480.6z
	 M303.2,466.1h16.3v26.2h26.1v-26.2h16.2v66.7h-16.2v-26.3h-26.1v26.3h-16.3L303.2,466.1z M400.9,466.1h15.2l17,37.3l17.1-37.3h15
	v66.7H449v-28.3l-10.6,28.4h-10.6l-10.6-28.6v28.6h-16.3L400.9,466.1z M475.9,466.1h16.2v41.8c0,8.9,4.2,12,9.9,12
	c6.2,0,10.1-3.1,10.1-12v-41.8h16.3v44.2c0,15.8-11.8,24.7-26.4,24.7c-15.2,0-26.1-9.3-26.1-24.7L475.9,466.1z M597.8,466.1h16.3
	v66.7h-16.4L597.8,466.1z M659.1,463.9c10.9-0.3,21.3,4.2,28.6,12.2l-11.3,10.7c-4.6-4.7-10.8-7.4-17.3-7.5
	c-11.9,0-19.5,8.9-19.5,20.1s7.7,20.1,19.5,20.1c6.5-0.1,12.8-2.8,17.3-7.4l10.9,10.7c-7.3,7.9-17.5,12.3-28.2,12.2
	c-21.1,0-36.1-15.7-36.1-35.6C622.9,479.6,637.9,463.9,659.1,463.9L659.1,463.9z M572.4,486.7v-1.2c0-3.7-3.6-6.7-8.1-6.7
	c-4.6,0-8.4,3.1-8.4,6.7c0,1.7,1,3.3,2.5,4.1c2,1.3,4.2,2.2,6.5,2.7c1.1,0.2,2,0.5,3.2,0.7c4.4,1,10.6,2.7,13.7,5.7l0.9,0.8
	c3.9,3.7,6.1,8.9,6.2,14.3c-0.1,5.9-2.7,11.5-7.3,15.2c-10.2,8.2-24.7,8.2-34.8,0c-4.6-3.8-7.3-9.3-7.4-15.2v-1.2h16.7v1.2
	c0,3.6,3.5,6.7,8,6.7s8.3-3.1,8.3-6.7c-0.1-1.7-1.1-3.3-2.6-4.2c-2-1.3-4.1-2.1-6.4-2.6c-1-0.3-2-0.5-3.2-0.8
	c-4.6-1.1-10-2.3-13.7-5.6l-0.4-0.4c-4.2-3.7-6.7-9-6.8-14.6c0.1-5.9,2.8-11.5,7.4-15.2c10.2-8.2,24.7-8.2,34.8,0
	c4.5,3.8,7.2,9.3,7.3,15.2v1.2L572.4,486.7z M706.8,436.6H606.2V333.8c0-0.1,0-0.3,0-0.4c1.3-26.4,23.7-46.8,50.1-45.6
	c26.4,1.3,46.8,23.7,45.6,50.1c-0.1,1.1-0.1,2.1-0.3,3.2c6.9-0.8,14-0.1,20.6,2.1c7.2,2.3,13.7,6.3,19,11.7
	c18.7,18.8,18.6,49.1-0.2,67.8c-8.8,8.7-20.6,13.7-33,13.9L706.8,436.6z M624.8,418.1h83.1c16.2-0.3,29.1-13.7,28.8-30
	c-0.3-16.2-13.7-29.1-30-28.8c-5.3,0.1-10.4,1.6-14.9,4.4c-4.4,2.7-10.1,1.3-12.7-3c-1.8-3-1.8-6.7,0-9.7
	c8.5-13.8,4.1-31.9-9.7-40.4s-31.9-4.1-40.4,9.7c-1.2,1.9-2.1,4-2.8,6.1c-0.8,2.5-1.3,5.1-1.5,7.7L624.8,418.1z M738.2,461.6
	c10.4-4.3,19.7-10.7,27.3-19c7.7-8.4,13.6-18.5,17-29.4c1.2-3.8-1-7.9-4.8-9c-3.8-1.1-7.7,0.9-9,4.6c-2.8,8.9-7.6,17.1-13.9,23.9
	c-6.2,6.7-13.7,12-22.2,15.4c-3.6,1.7-5.1,6-3.4,9.6c1.6,3.3,5.4,4.9,8.9,3.7L738.2,461.6z M593.1,314.1c3.4-10,9.2-19,17-26.1
	c6.6-6.1,14.4-10.6,22.9-13.5c3.8-1.1,6-5.2,4.9-9c-1.1-3.8-5.2-6-9-4.9c-0.1,0-0.3,0.1-0.4,0.1c-10.4,3.5-20,9.1-28.1,16.6
	c-9.6,8.8-16.7,19.8-20.9,32.1c-1.3,3.8,0.7,7.9,4.5,9.2c0,0,0,0,0,0c0.8,0.3,1.5,0.4,2.3,0.4C589.3,319,592.1,317,593.1,314.1z
	 M560,313.4c0.7-3,1.5-6,2.5-9c5.1-15.3,14-29.1,25.8-40c12.4-11.4,27.5-19.3,43.9-22.9c3.9-0.7,6.6-4.4,6-8.3s-4.4-6.6-8.3-6
	c-0.3,0-0.5,0.1-0.8,0.2c-18.9,4.2-36.3,13.3-50.5,26.4c-13.7,12.5-23.9,28.4-29.7,46c-1.1,3.4-2.1,6.8-2.9,10.4
	c-0.9,3.9,1.6,7.8,5.4,8.7c0.5,0.1,1.1,0.2,1.6,0.2C556.4,319,559.2,316.6,560,313.4L560,313.4z M731.1,497.2
	c22.2-4.7,42.4-16.1,57.9-32.8c13.5-14.6,22.8-32.5,26.9-51.9c0.8-3.9-1.7-7.8-5.6-8.6c-3.9-0.8-7.8,1.7-8.6,5.6l0,0
	c-3.6,16.9-11.6,32.4-23.3,45.1c-11,11.9-24.8,20.8-40.2,25.8c-3.3,1.1-6.6,2-10,2.7c-3.9,0.8-6.4,4.7-5.5,8.6
	c0.7,3.3,3.6,5.7,7,5.7C730.1,497.4,730.6,497.3,731.1,497.2z M541.8,349.7c25.6,0,43.8,19.1,43.8,43.4s-18.2,43.4-43.8,43.4
	c-25.6,0-43.8-19.1-43.8-43.4S516,349.7,541.8,349.7 M541.8,417.7c14.4,0,23.6-10.9,23.6-24.5c0-13.6-9.2-24.5-23.6-24.5
	s-23.6,10.9-23.6,24.5C518.2,406.8,527.3,417.7,541.8,417.7 M40,434.5H60v-32.1h31.9v32.1h19.8v-81.4H91.8v32H60v-32H40V434.5z
	 M125.8,434.5h19.9v-81.4h-19.9V434.5z M228.1,353.3h34c17.5,0,28.9,10.6,28.9,25.8c0,14.2-7.2,22.2-19.2,25.2l22,30.2h-25
	l-20.7-30.4v30.4H228L228.1,353.3z M264,388.5c4.5,0,7.5-4.6,7.5-9.3s-3.5-9-8-9h-15.5v18.3L264,388.5z M389.5,353.3h28.3
	c24,0,42.6,17.7,42.6,40.5c0,21.7-16.5,40.8-42.6,40.8h-28.4L389.5,353.3z M417.4,416.5c12.7,0,22.5-9,22.5-22.7
	c0-12.6-8.5-22.5-22.5-22.5h-8v45.2H417.4z M469,434.7H489v-81.4h-20L469,434.7z M347.1,353.3h-14.9l-34,81.4h21.4l3.9-8.4h32.1
	l4.1,8.4h21.4L347.1,353.3z M329.9,407.8l9.8-27.7l9.4,27.7H329.9z M334,345.7h13.4l9.3-15h-16.7L334,345.7z M177.6,370.7h-20.9
	v-17.6h62v17.6h-21.1v63.6h-20L177.6,370.7z"/>
</svg>
