<svg xmlns="http://www.w3.org/2000/svg" viewBox="0 0 1530.7 1530.7">
  <defs>
    <style>
      .a {
        fill: #00ab96;
      }

      .b {
        fill: #fff;
      }
    </style>
  </defs>
  <g>
    <rect class="a" width="1530.7" height="1530.71"/>
    <path class="b" d="M543.3,295.5H295.7V418.7H795.3c-36.1-84.2-131.2-123.2-252-123.2m235,316.1H295.7V488.9h515c.2,4.8.3,9.7.3,14.6-.4,45.7-11.4,80.9-32.7,108.1M295.7,681.8V804.3H745.6L670.3,681.8Zm0,192.7H788.8l75.9,123.4h-569Z" transform="translate(-84.8 -84.7)"/>
    <g>
      <path class="b" d="M451.5,1206.9v34.7l-107,126.6H453.7v36.4H286.6v-33.4l108.3-127.4H292.5v-36.9Z" transform="translate(-84.8 -84.7)"/>
      <path class="b" d="M511.7,1404.6H470.5V1206.9h41.2Z" transform="translate(-84.8 -84.7)"/>
      <path class="b" d="M576.5,1404.6H535.6V1259.5h40.9Zm-38.1-165,12.6-41.1h46.2l-31.1,41.1Z" transform="translate(-84.8 -84.7)"/>
      <path class="b" d="M688.7,1404.6v-85.4c0-14-5.4-27.8-21.6-27.8-19.6,0-24.9,17.4-24.9,32.8v80.4H600.7V1259.5h40.4v16.8c10-12.9,23.2-20.1,40-20.1,10.9,0,21.8,2.8,30.5,9.5,16.5,12.6,19.3,30.2,19.3,49.8v89.1Z" transform="translate(-84.8 -84.7)"/>
    </g>
  </g>
</svg>
